<?xml version="1.0" encoding="UTF-8" standalone="no"?>
<svg
   xmlns:dc="http://purl.org/dc/elements/1.1/"
   xmlns:cc="http://creativecommons.org/ns#"
   xmlns:rdf="http://www.w3.org/1999/02/22-rdf-syntax-ns#"
   xmlns:svg="http://www.w3.org/2000/svg"
   xmlns="http://www.w3.org/2000/svg"
   xmlns:sodipodi="http://sodipodi.sourceforge.net/DTD/sodipodi-0.dtd"
   xmlns:inkscape="http://www.inkscape.org/namespaces/inkscape"
   viewBox="0 0 500 59.96"
   version="1.1"
   id="svg8"
   sodipodi:docname="ColoredBar.svg"
   inkscape:version="0.92.4 (5da689c313, 2019-01-14)">
  <metadata
     id="metadata14">
    <rdf:RDF>
      <cc:Work
         rdf:about="">
        <dc:format>image/svg+xml</dc:format>
        <dc:type
           rdf:resource="http://purl.org/dc/dcmitype/StillImage" />
        <dc:title>ColoredBar</dc:title>
      </cc:Work>
    </rdf:RDF>
  </metadata>
  <defs
     id="defs12" />
  <sodipodi:namedview
     pagecolor="#ffffff"
     bordercolor="#666666"
     borderopacity="1"
     objecttolerance="10"
     gridtolerance="10"
     guidetolerance="10"
     inkscape:pageopacity="0"
     inkscape:pageshadow="2"
     inkscape:window-width="2400"
     inkscape:window-height="1271"
     id="namedview10"
     showgrid="false"
     inkscape:zoom="2.8284271"
     inkscape:cx="250"
     inkscape:cy="65.311553"
     inkscape:window-x="2391"
     inkscape:window-y="-9"
     inkscape:window-maximized="1"
     inkscape:current-layer="svg8" />
  <title
     id="title2">ColoredBar</title>
  <g
     id="Layer_2"
     data-name="Layer 2">
    <g
       id="Layer_1-2"
       data-name="Layer 1">
      <path
         d="M500,60c-.83-.22-1.65-.44-2.48-.69s.3-.37-.34-.8a.34.34,0,0,1-.15-.18c0-.12.07-.22.18-.28l0,0a1.72,1.72,0,0,1,.59-.2,1.67,1.67,0,0,0,.4-.1l.07-.06a.2.2,0,0,0,0-.11,1,1,0,0,0-.11-.5.89.89,0,0,0-.52-.33c-.18-.06-.47-.08-.59-.23a1.26,1.26,0,0,1-.16-.53,2.83,2.83,0,0,0-.14-.52c-.05-.1-.27-.48-.4-.47.92-.11,2.56-.18,2-.35-.8-.25-3.11-1.36-3.34-2.25a1.64,1.64,0,0,1-.08-.69c.08-.45,1-.75.66-1.3-.1-.17-.27-.16-.41-.27a.54.54,0,0,1-.11-.57.78.78,0,0,1,.6-.65c.29-.07.58-.07.78-.33a.18.18,0,0,0,.06-.15c0-.09-.14-.11-.23-.12s-1,.09-.65-.29a3,3,0,0,1,.28-.22c.54-.52-.46-.68-.71-.83a.43.43,0,0,1-.17-.38.7.7,0,0,1,.18-.39,2.64,2.64,0,0,1,1-.52c.41-.17,1.12-.24,1.21-.75.05-.24-.29-.56-.48-.69s-.39-.26-.44-.49a.58.58,0,0,1,0-.26c.07-.36.22-1.08.56-1.25a3.42,3.42,0,0,1,.72-.16,5.11,5.11,0,0,0,.66-.22.18.18,0,0,0,.09-.06.16.16,0,0,0,0-.1.56.56,0,0,0-.5-.51c-.11,0-.44,0-.51-.1-.18-.26,1.61-.53,1.63-.69a3.39,3.39,0,0,0,0-.78.47.47,0,0,0-.15-.37c-.06,0-1.08,0-1.14,0-.29,0-.84.07-1.09-.09.36-.31,2.46-.13,2.37-.59s-1.27-.22-1.54-.25l-1-.1c-.15,0-.92,0-1-.1-.27-.39,1.4-.83,1.58-.89.94-.28,0-.52.91-.81.29-.09,1.07-.1,1.22-.27s0-.78-.15-1a3.86,3.86,0,0,0-1.71-.95c-.41-.17-1.05-.25-1.12-.81,0-.32,1.54-.59,1.28-.89,0,0-.06,0-.06,0-1.06-.71-.39-1.47-1.25-2.1.92-.12,2.56-.18,2-.36a9.82,9.82,0,0,1-3.54-2.4c-.47-.75,1.89-1.44.26-2.23.09-.1-.75-.19-.64-.29a7.54,7.54,0,0,1,1.08-.77c.14-.08,1-.38.94-.59a.13.13,0,0,0-.12-.06c-.47-.09-1.17.28-1.49-.29a.94.94,0,0,1-.08-.47c0-.18,0-.36,0-.53,0-.83.73-1,1.38-1.29.45-.19,1.29-.39,1.56-.83-.64,0-1.68.39-2.09-.29a5.3,5.3,0,0,0-.5-.67c-.38-.47-.56-.95,0-1.36a2.56,2.56,0,0,1,1-.38c.16,0,.47-.05.56-.21s-.05-.43-.17-.55-.85-.38-.85-.41.13,0,.15-.05.19,0,.25,0,.1-.27.14-.39.11-.17.16-.26a.33.33,0,0,0,0-.29c-.05-.11-.2-.16-.23-.28s0-.17,0-.25a.32.32,0,0,0-.17-.21c-.33-.19-.76.05-1.07-.15.33-.26,1.56,0,1.05-.74-.1-.16-.28-.22-.39-.37a1,1,0,0,1-.14-.51,1.49,1.49,0,0,1,.42-1c.26-.29.73-.44.69-.87a1.12,1.12,0,0,0-.5-.72c-.25-.22-.57-.5-.43-.87a1.25,1.25,0,0,1,.46-.53c.15-.14.23-.35.38-.48s.42-.31.24-.52a.11.11,0,0,0-.07,0c-1.06-.7.57-1.47-.29-2.1.92-.11,1.61-.18,1-.35-1-.43-2.74-1.71-2.41-3,.09-.35.5-.5.63-.85s-.05-.43-.23-.61-.21-.08-.17-.27.23-.23.34-.28A.74.74,0,0,0,496,0H0C.83.21,1.65.44,2.48.68s-.3.38.34.8A.4.4,0,0,1,3,1.67c0,.11-.07.21-.18.28a.05.05,0,0,1,0,0,1.73,1.73,0,0,1-.59.21,1.07,1.07,0,0,0-.4.1.18.18,0,0,0-.07.05.25.25,0,0,0,0,.12.91.91,0,0,0,.11.49.86.86,0,0,0,.52.34c.18.06.47.07.59.23A1.18,1.18,0,0,1,3.05,4a3.07,3.07,0,0,0,.14.52c.05.1.27.48.4.46-.92.11-2.56.18-2,.35.8.25,3.11,1.36,3.34,2.25a1.68,1.68,0,0,1,.08.7c-.08.45-1,.74-.66,1.29.1.18.27.17.41.28a.54.54,0,0,1,.11.57.79.79,0,0,1-.6.65c-.29.06-.58.07-.78.32a.2.2,0,0,0-.06.16c0,.09.14.11.23.11s1-.09.65.3a3,3,0,0,1-.28.22c-.54.51.46.68.71.83a.42.42,0,0,1,.17.38.71.71,0,0,1-.18.38,2.51,2.51,0,0,1-1,.52c-.41.18-1.12.25-1.21.76,0,.24.29.56.48.69s.39.25.44.48a.82.82,0,0,1,0,.27c-.07.36-.22,1.08-.56,1.25a4.19,4.19,0,0,1-.72.16,5.11,5.11,0,0,0-.66.22l-.09.05a.18.18,0,0,0,0,.1.56.56,0,0,0,.5.51c.11,0,.44,0,.51.11s-1.61.53-1.63.68a3.48,3.48,0,0,0,0,.79.42.42,0,0,0,.15.36c.06,0,1.08,0,1.14,0,.29,0,.84-.06,1.09.1-.36.3-2.46.12-2.37.59s1.27.22,1.54.24l1,.11a3.5,3.5,0,0,1,1,.1c.27.38-1.4.83-1.58.88-.94.29,0,.52-.91.81-.29.09-1.07.11-1.22.28s0,.77.15,1a3.67,3.67,0,0,0,1.71,1c.41.17,1.05.26,1.12.81,0,.33-1.54.6-1.28.89,0,0,.06,0,.06,0,1.06.7.39,1.47,1.25,2.1-.92.11-2.56.18-2,.35a9.7,9.7,0,0,1,3.54,2.41c.47.75-1.89,1.44-.26,2.22-.09.1.75.2.64.29a6.25,6.25,0,0,1-1.08.77c-.14.08-1,.39-.94.59,0,0,.07.06.12.07.47.08,1.17-.28,1.49.28a.94.94,0,0,1,.08.47c0,.18,0,.36,0,.54,0,.83-.73,1-1.38,1.28-.45.19-1.29.4-1.56.84.64,0,1.68-.39,2.09.28a5.3,5.3,0,0,0,.5.67c.38.47.56,1,0,1.37a2.73,2.73,0,0,1-1,.37c-.16,0-.47,0-.56.22s.05.43.17.54.85.38.85.41-.13,0-.15.06-.19,0-.25,0-.1.27-.14.38-.11.17-.16.26a.34.34,0,0,0,0,.29c0,.11.2.17.23.29s0,.16,0,.24a.32.32,0,0,0,.17.22c.33.19.76-.06,1.07.15-.33.26-1.56,0-1,.74.1.15.28.22.39.36a1,1,0,0,1,.14.52,1.47,1.47,0,0,1-.42,1c-.26.29-.73.45-.69.88a1.17,1.17,0,0,0,.5.72c.25.21.57.49.43.86a1.22,1.22,0,0,1-.46.54c-.15.13-.23.34-.38.48s-.42.31-.24.52l.07,0c1.06.7-.57,1.46.29,2.1-.92.11-1.61.18-1,.35,1,.42,2.74,1.7,2.41,3-.09.36-.5.51-.63.85s0,.44.23.62.21.07.17.26-.23.23-.34.29a.76.76,0,0,0-.4.37,1.42,1.42,0,0,0,.3,0H500Z"
         style="fill:#587c84"
         id="path4" />
    </g>
  </g>
</svg>
