<svg id="Calque_1" data-name="Calque 1" xmlns="http://www.w3.org/2000/svg" viewBox="0 0 160.27 129.06"><defs><style>.cls-1{fill:#b55947;}.cls-2{fill:#338094;}.cls-3{fill:#f2f2f2;}.cls-4{fill:#4d4d4d;}</style></defs><title>track_finances</title><path class="cls-1" d="M40.16,66.59A19.67,19.67,0,1,1,20.5,46.92,19.66,19.66,0,0,1,40.16,66.59" transform="translate(-0.83 -0.51)"/><path class="cls-1" d="M73,7.45l0-1.62a61.3,61.3,0,0,0-47.62,35l-.43.91,1,.22a25.21,25.21,0,0,1,0,49.24,25.45,25.45,0,0,1-4.78.54v0H22l-.9,0v1.59a25.9,25.9,0,0,0,4.49-.46,61.28,61.28,0,0,0,50.24,34.74l.14-1.6a59.75,59.75,0,0,1-48.76-33.5,26.83,26.83,0,0,0,0-51.93A59.77,59.77,0,0,1,73,7.45" transform="translate(-0.83 -0.51)"/><path class="cls-2" d="M161.1,66.59a19.67,19.67,0,1,1-19.66-19.67A19.66,19.66,0,0,1,161.1,66.59" transform="translate(-0.83 -0.51)"/><path class="cls-2" d="M141.44,39.77h0a27.44,27.44,0,0,0-5.13.49A61.29,61.29,0,0,0,86.12,5.53L86,7.13A59.77,59.77,0,0,1,134.7,40.62a26.83,26.83,0,0,0,0,51.93,59.74,59.74,0,0,1-48.76,33.5l.13,1.6a61.32,61.32,0,0,0,50.52-35.31l.42-.92-1-.21a25.2,25.2,0,0,1,5.41-49.82l.65,0V39.77Z" transform="translate(-0.83 -0.51)"/><path class="cls-2" d="M81,129.58a2.52,2.52,0,1,1,2.52-2.52A2.52,2.52,0,0,1,81,129.58" transform="translate(-0.83 -0.51)"/><path class="cls-3" d="M150,67.9a7.33,7.33,0,1,1-7.32-7.33A7.33,7.33,0,0,1,150,67.9" transform="translate(-0.83 -0.51)"/><path class="cls-4" d="M141.5,64.82l.28,0a.44.44,0,0,0,.51-.36.43.43,0,0,0-.37-.5,2,2,0,0,0-.42,0,2.65,2.65,0,1,0,2.64,2.65,3,3,0,0,0,0-.43.44.44,0,0,0-.51-.36.43.43,0,0,0-.36.5,1.42,1.42,0,0,1,0,.29,1.77,1.77,0,1,1-1.76-1.77" transform="translate(-0.83 -0.51)"/><path class="cls-4" d="M143.46,62a.43.43,0,0,0-.28-.55,5.32,5.32,0,0,0-1.68-.27,5.38,5.38,0,1,0,5.37,5.38,5.63,5.63,0,0,0-.26-1.69.44.44,0,1,0-.84.28,4.43,4.43,0,0,1,.23,1.41,4.5,4.5,0,1,1-4.5-4.5,4.41,4.41,0,0,1,1.4.22.44.44,0,0,0,.56-.28" transform="translate(-0.83 -0.51)"/><path class="cls-4" d="M148.92,63.32a.43.43,0,0,0-.57-.22.44.44,0,0,0-.23.58,7.07,7.07,0,0,1,.61,2.91A7.23,7.23,0,1,1,144.41,60a.43.43,0,0,0,.57-.22.44.44,0,0,0-.22-.58,8.11,8.11,0,1,0,4.85,7.43,8,8,0,0,0-.69-3.27" transform="translate(-0.83 -0.51)"/><path class="cls-4" d="M144.82,61.76,146,60.59v1.5h1.5l-1.18,1.17a.15.15,0,0,1-.13.05l-1.29-.12-.12-1.3a.16.16,0,0,1,0-.13m-.92.21.14,1.46-2.85,2.85a.44.44,0,0,0,0,.62.45.45,0,0,0,.31.12.47.47,0,0,0,.31-.12l2.85-2.85,1.45.13h.1a1,1,0,0,0,.73-.31L148.8,62a.47.47,0,0,0-.33-.81h-1.59V59.62a.47.47,0,0,0-.3-.44.46.46,0,0,0-.52.1l-1.86,1.86a1,1,0,0,0-.3.83" transform="translate(-0.83 -0.51)"/><path class="cls-3" d="M19.75,61.45a5.45,5.45,0,0,0-3,10.11A.51.51,0,0,1,17,72v.71h-.38a.82.82,0,0,0-.82.82v.88a.82.82,0,0,0,.82.82h.2v.52a1.09,1.09,0,0,0,1.09,1.1H21.2a1.1,1.1,0,0,0,1.1-1.1v-.52h.2a.82.82,0,0,0,.82-.82v-.88a.82.82,0,0,0-.82-.82h-.38V72a.52.52,0,0,1,.24-.43,5.45,5.45,0,0,0-2.61-10.11" transform="translate(-0.83 -0.51)"/><path class="cls-4" d="M25.27,61.56a.43.43,0,0,0,.31-.13l1.21-1.21a.44.44,0,1,0-.62-.62L25,60.81a.44.44,0,0,0,0,.62.42.42,0,0,0,.31.13" transform="translate(-0.83 -0.51)"/><path class="cls-4" d="M22.11,59.81h.12a.44.44,0,0,0,.42-.32l.44-1.66a.44.44,0,1,0-.84-.23l-.45,1.66a.45.45,0,0,0,.31.54" transform="translate(-0.83 -0.51)"/><path class="cls-4" d="M18.3,59.51a.44.44,0,0,0,.42.32h.12a.44.44,0,0,0,.31-.54l-.45-1.65a.43.43,0,1,0-.84.22Z" transform="translate(-0.83 -0.51)"/><path class="cls-4" d="M15.38,61.47a.48.48,0,0,0,.31.13.44.44,0,0,0,.31-.13.42.42,0,0,0,0-.62l-1.21-1.21a.42.42,0,0,0-.62,0,.44.44,0,0,0,0,.62Z" transform="translate(-0.83 -0.51)"/><path class="cls-4" d="M12.18,64.18l1.66.44.11,0a.45.45,0,0,0,.43-.33.45.45,0,0,0-.31-.54l-1.66-.44a.45.45,0,0,0-.54.31.44.44,0,0,0,.31.54" transform="translate(-0.83 -0.51)"/><path class="cls-4" d="M13.85,67.28l-1.65.44a.43.43,0,0,0-.31.54.43.43,0,0,0,.42.32h.11l1.66-.44a.45.45,0,0,0,.31-.54.44.44,0,0,0-.54-.31" transform="translate(-0.83 -0.51)"/><path class="cls-4" d="M28.81,67.68l-1.65-.45a.44.44,0,0,0-.54.31.44.44,0,0,0,.31.54l1.65.44.12,0a.44.44,0,0,0,.11-.86" transform="translate(-0.83 -0.51)"/><path class="cls-4" d="M27,64.59h.11l1.66-.45a.44.44,0,0,0,.31-.53.43.43,0,0,0-.54-.31l-1.65.44a.43.43,0,0,0-.31.54.44.44,0,0,0,.42.32" transform="translate(-0.83 -0.51)"/><path class="cls-4" d="M22.74,69.87A1.37,1.37,0,0,0,22.07,71v.71H18.66V71A1.37,1.37,0,0,0,18,69.87a4.57,4.57,0,0,1,2.54-8.49A4.6,4.6,0,0,1,24.94,66a4.54,4.54,0,0,1-2.2,3.88m.53,3.52H17.46v-.76h5.81Zm-1,1.41A.21.21,0,0,1,22,75H18.7a.21.21,0,0,1-.21-.21v-.53h3.76ZM20.58,60.5a5.46,5.46,0,0,0-3,10.12.48.48,0,0,1,.25.42v.71h-.38a.82.82,0,0,0-.82.82v.88a.82.82,0,0,0,.82.82h.2v.53a1.09,1.09,0,0,0,1.09,1.09H22a1.09,1.09,0,0,0,1.09-1.09v-.53h.21a.82.82,0,0,0,.82-.82v-.88a.82.82,0,0,0-.82-.82H23V71a.49.49,0,0,1,.24-.42A5.46,5.46,0,0,0,20.58,60.5" transform="translate(-0.83 -0.51)"/><path class="cls-1" d="M20.39,62.53A3.41,3.41,0,0,0,17,65.94a.44.44,0,0,0,.44.43.43.43,0,0,0,.44-.43,2.53,2.53,0,0,1,2.53-2.53.44.44,0,0,0,0-.88" transform="translate(-0.83 -0.51)"/><path class="cls-1" d="M18.1,67a.43.43,0,0,0-.58-.21.44.44,0,0,0-.21.58,3.9,3.9,0,0,0,.19.35.44.44,0,0,0,.61.14.45.45,0,0,0,.14-.6c-.06-.09-.1-.18-.15-.26" transform="translate(-0.83 -0.51)"/><path class="cls-1" d="M19.21,68.17l-.2-.11a.44.44,0,0,0-.61.12.45.45,0,0,0,.13.61l.27.16A.54.54,0,0,0,19,69a.43.43,0,0,0,.39-.23.45.45,0,0,0-.19-.6" transform="translate(-0.83 -0.51)"/><path class="cls-1" d="M79.28.52a5.72,5.72,0,0,0-5.37,5.35l7.34-.24L77.88,2.48a.57.57,0,0,1,.29-1,.58.58,0,0,1,.42.16l4.83,4.52L79,10.87a.61.61,0,0,1-.44.24.57.57,0,0,1-.6-.53.59.59,0,0,1,.12-.39h0l0,0,3.16-3.38L74,7A5.71,5.71,0,1,0,79.28.52" transform="translate(-0.83 -0.51)"/><path class="cls-4" d="M67.2,58.37h-2v-.74h5v.74H68.07v6H67.2Z" transform="translate(-0.83 -0.51)"/><path class="cls-4" d="M71.89,57.72a9,9,0,0,1,1.66-.14,2.76,2.76,0,0,1,2,.55A1.68,1.68,0,0,1,76,59.41a1.76,1.76,0,0,1-1.27,1.71v0a1.68,1.68,0,0,1,1,1.36,10.73,10.73,0,0,0,.52,1.85h-.9a8.73,8.73,0,0,1-.45-1.61c-.2-.93-.56-1.28-1.35-1.31h-.82v2.92h-.86Zm.86,3.06h.89c.93,0,1.52-.51,1.52-1.27s-.63-1.25-1.55-1.26a3.65,3.65,0,0,0-.86.08Z" transform="translate(-0.83 -0.51)"/><path class="cls-4" d="M79.41,62.24l-.7,2.12h-.9l2.28-6.73h1l2.3,6.73h-.93l-.72-2.12Zm2.2-.68L81,59.63c-.15-.44-.25-.84-.35-1.23h0c-.1.4-.21.81-.34,1.22l-.66,1.94Z" transform="translate(-0.83 -0.51)"/><path class="cls-4" d="M90,64.14a4.32,4.32,0,0,1-1.78.32,3.15,3.15,0,0,1-3.32-3.41,3.35,3.35,0,0,1,3.51-3.53,3.61,3.61,0,0,1,1.6.3l-.21.71a3.17,3.17,0,0,0-1.36-.28A2.5,2.5,0,0,0,85.8,61a2.45,2.45,0,0,0,2.58,2.71,3.48,3.48,0,0,0,1.42-.28Z" transform="translate(-0.83 -0.51)"/><path class="cls-4" d="M92.08,57.63H93v3.24h0c.18-.26.35-.5.52-.72l2.06-2.52h1.08L94.2,60.48l2.63,3.88h-1l-2.22-3.31-.63.74v2.57h-.87Z" transform="translate(-0.83 -0.51)"/><path class="cls-4" d="M54.93,69.63h3.62v.73H55.8V72.6h2.54v.71H55.8v3h-.87Z" transform="translate(-0.83 -0.51)"/><path class="cls-4" d="M61.67,69.63v6.73H60.8V69.63Z" transform="translate(-0.83 -0.51)"/><path class="cls-4" d="M64.19,76.36V69.63h1L67.29,73a19.08,19.08,0,0,1,1.21,2.19h0c-.08-.9-.1-1.72-.1-2.77V69.63h.82v6.73h-.88l-2.14-3.42A21.14,21.14,0,0,1,65,70.7h0c0,.85.07,1.65.07,2.77v2.88Z" transform="translate(-0.83 -0.51)"/><path class="cls-4" d="M72.86,74.24l-.7,2.12h-.9l2.28-6.73h1l2.3,6.73H76l-.72-2.12Zm2.2-.68-.66-1.93c-.15-.44-.25-.84-.35-1.23h0c-.1.4-.21.81-.34,1.22L73,73.56Z" transform="translate(-0.83 -0.51)"/><path class="cls-4" d="M78.89,76.36V69.63h1L82,73a19.08,19.08,0,0,1,1.21,2.19h0c-.08-.9-.1-1.72-.1-2.77V69.63h.82v6.73h-.88l-2.14-3.42a23.08,23.08,0,0,1-1.25-2.24h0c0,.85.07,1.65.07,2.77v2.88Z" transform="translate(-0.83 -0.51)"/><path class="cls-4" d="M91.17,76.14a4.32,4.32,0,0,1-1.78.32,3.15,3.15,0,0,1-3.32-3.41,3.35,3.35,0,0,1,3.51-3.53,3.61,3.61,0,0,1,1.6.3l-.21.71a3.17,3.17,0,0,0-1.36-.28A2.5,2.5,0,0,0,87,73a2.45,2.45,0,0,0,2.58,2.71A3.48,3.48,0,0,0,91,75.45Z" transform="translate(-0.83 -0.51)"/><path class="cls-4" d="M94.14,69.63v6.73h-.87V69.63Z" transform="translate(-0.83 -0.51)"/><path class="cls-4" d="M97.75,74.24l-.7,2.12h-.9l2.28-6.73h1l2.3,6.73h-.93l-.72-2.12Zm2.2-.68-.66-1.93c-.15-.44-.25-.84-.35-1.23h0c-.1.4-.21.81-.34,1.22l-.66,1.94Z" transform="translate(-0.83 -0.51)"/><path class="cls-4" d="M103.77,69.63h.87v6h2.87v.73h-3.74Z" transform="translate(-0.83 -0.51)"/></svg>