<svg xmlns="http://www.w3.org/2000/svg" viewBox="0 0 139.9 169.33"><defs><style>.cls-1{fill:#2e475e;opacity:0.6;}.cls-2{fill:none;stroke-linecap:round;stroke-linejoin:round;stroke-width:3.67px;}.cls-2,.cls-4{stroke:#666;}.cls-3{fill:#fff;}.cls-4{stroke-miterlimit:10;stroke-width:0.5px;}</style></defs><title>360</title><g id="Layer_2" data-name="Layer 2"><g id="Layer_1-2" data-name="Layer 1"><rect id="Rectangle_5194" data-name="Rectangle 5194" class="cls-1" y="12.42" width="131.57" height="156.9"/><polyline class="cls-2" points="96.19 1.84 96.19 50.25 138.02 50.25"/><polygon class="cls-2" points="96.62 1.84 5.72 1.84 5.72 161.38 138.06 161.38 138.06 49.18 96.62 1.84"/><rect class="cls-3" x="8.08" y="68.36" width="126.15" height="56"/><path class="cls-4" d="M98.64,86.78a1.93,1.93,0,1,1,1.93,1.93,1.94,1.94,0,0,1-1.93-1.93m-1.1,0a3,3,0,1,0,3-3,2.94,2.94,0,0,0-3,3M83,96.72c0-6,.22-11.36,4.34-11.36s4.34,5.41,4.34,11.36c0,5.67-.23,11.12-4.34,11.12S83,102.39,83,96.72m4.34,13.64c7.28,0,7.7-7.93,7.7-13.64,0-6.63-.42-13.87-7.7-13.87s-7.7,7.92-7.7,13.87c0,6.4.42,13.64,7.7,13.64M60.8,101.59c0-2.81.69-6.24,4.27-6.24s4.27,3.43,4.27,6.24-.92,6.25-4.27,6.25-4.27-3.43-4.27-6.25M72.08,89.33c0-1.26-.53-6.48-6.82-6.48-7.81,0-8.19,8.53-8.19,14.71,0,5.6.53,12.8,8,12.8,5,0,7.62-4,7.62-9.22s-2.36-8.54-7-8.54a5.86,5.86,0,0,0-5.14,3h-.08V93.48c0-1.41.27-8.12,4.77-8.12,2.28,0,3.54,1.72,3.54,4Zm-32,7.81h1.72c3.35,0,4.88,2,4.88,5.14,0,4.57-2.33,5.56-4.31,5.56-3.09,0-4.3-2.85-4.3-5.33H34.74v.34c0,1.18.42,7.51,7.66,7.51,5.18,0,7.66-3.43,7.66-8.35,0-3.73-1.94-5.67-5-6.28v-.08c2.82-.68,4.19-3.09,4.19-5.79,0-3-1.3-7-6.94-7-5,0-7.16,3.16-7.16,7.77h3.35c0-2,.35-5.26,3.89-5.26,2.59,0,3.51,2,3.51,4.5,0,2.7-1.26,4.76-4.12,4.76H40.11Z"/></g></g></svg>