<svg id="Layer_1" data-name="Layer 1" xmlns="http://www.w3.org/2000/svg" xmlns:xlink="http://www.w3.org/1999/xlink" viewBox="0 0 51 51"><defs><linearGradient id="linear-gradient" x1="-473.1" y1="522.7" x2="-473.82" y2="523.54" gradientTransform="matrix(40.71, 0, 0, -33.59, 19309.5, 17583.43)" gradientUnits="userSpaceOnUse"><stop offset="0"/><stop offset="0.01" stop-color="#000101"/><stop offset="0.19" stop-color="#101a22"/><stop offset="0.38" stop-color="#1d2d3c"/><stop offset="0.57" stop-color="#253b4e"/><stop offset="0.78" stop-color="#2b4459"/><stop offset="1" stop-color="#2d475d"/></linearGradient><linearGradient id="linear-gradient-2" x1="-466.17" y1="527.39" x2="-466.57" y2="526.49" gradientTransform="matrix(25.32, 0, 0, -45.74, 11821.63, 24123.16)" gradientUnits="userSpaceOnUse"><stop offset="0"/><stop offset="0.02" stop-color="#020404"/><stop offset="0.19" stop-color="#173036"/><stop offset="0.37" stop-color="#29555f"/><stop offset="0.54" stop-color="#37727e"/><stop offset="0.71" stop-color="#418695"/><stop offset="0.86" stop-color="#4792a3"/><stop offset="1" stop-color="#4a97a8"/></linearGradient><linearGradient id="linear-gradient-3" x1="-474.19" y1="520.43" x2="-473.21" y2="520.78" gradientTransform="matrix(41.2, 0, 0, -28.9, 19549.29, 15085.68)" gradientUnits="userSpaceOnUse"><stop offset="0" stop-color="#b44141"/><stop offset="0.18" stop-color="#993737"/><stop offset="0.56" stop-color="#551e1e"/><stop offset="1"/></linearGradient></defs><title>Artboard 1</title><g id="_3_phase_graphic" data-name=" 3 phase graphic"><g id="Group_6879" data-name="Group 6879"><g id="Group_6878" data-name="Group 6878"><g id="Group_6877" data-name="Group 6877"><path id="Path_13817" data-name="Path 13817" d="M19.13,3.67c4.31.93,6.55,5.12,6.55,5.12L40,33.59h0s4.75.15,7.72-3.1a12.62,12.62,0,0,0,3-8.74h0A25.33,25.33,0,0,0,10.05,5.4h0A12.54,12.54,0,0,1,19.13,3.67Z" style="fill:url(#linear-gradient)"/><path id="Path_13818" data-name="Path 13818" d="M9.84,42.12C8.5,37.89,11,33.82,11,33.82h0l14.31-25s-2.24-4.22-6.54-5.16A12.49,12.49,0,0,0,9.69,5.41h0a25.62,25.62,0,0,0,6.19,43.77h0A12.62,12.62,0,0,1,9.84,42.12Z" style="fill:url(#linear-gradient-2)"/><path id="Path_13819" data-name="Path 13819" d="M50.75,22.1a12.61,12.61,0,0,1-3,8.73c-3,3.27-7.72,3.1-7.72,3.1H11.36s-2.51,4-1.16,8.23a12.55,12.55,0,0,0,6,7h0A25.34,25.34,0,0,0,50.75,22.09Z" style="fill:url(#linear-gradient-3)"/></g></g></g></g></svg>