<svg xmlns="http://www.w3.org/2000/svg" xmlns:xlink="http://www.w3.org/1999/xlink" width="51" height="51" viewBox="0 0 51 51">
  <defs>
    <style>
      .cls-1 {
        fill: url(#linear-gradient);
      }

      .cls-2 {
        fill: url(#linear-gradient-2);
      }

      .cls-3 {
        fill: url(#linear-gradient-3);
      }
    </style>
    <linearGradient id="linear-gradient" x1="0.96" y1="0.833" x2="0.244" y2="-0.006" gradientUnits="objectBoundingBox">
      <stop offset="0"/>
      <stop offset="0.007" stop-color="#000101"/>
      <stop offset="0.19" stop-color="#101a22"/>
      <stop offset="0.379" stop-color="#1d2d3c"/>
      <stop offset="0.573" stop-color="#253b4e"/>
      <stop offset="0.775" stop-color="#2b4459"/>
      <stop offset="1" stop-color="#2d475d"/>
    </linearGradient>
    <linearGradient id="linear-gradient-2" x1="0.635" y1="-0.013" x2="0.235" y2="0.883" gradientUnits="objectBoundingBox">
      <stop offset="0"/>
      <stop offset="0.016" stop-color="#020404"/>
      <stop offset="0.194" stop-color="#173036"/>
      <stop offset="0.37" stop-color="#29555f"/>
      <stop offset="0.542" stop-color="#37727e"/>
      <stop offset="0.707" stop-color="#418695"/>
      <stop offset="0.863" stop-color="#4792a3"/>
      <stop offset="1" stop-color="#4a97a8"/>
    </linearGradient>
    <linearGradient id="linear-gradient-3" x1="0.02" y1="0.754" x2="0.998" y2="0.403" gradientUnits="objectBoundingBox">
      <stop offset="0" stop-color="#b44141"/>
      <stop offset="0.178" stop-color="#993737"/>
      <stop offset="0.559" stop-color="#551e1e"/>
      <stop offset="1"/>
    </linearGradient>
  </defs>
  <g id="_3_phase_graphic" data-name="3 phase graphic" transform="translate(0)">
    <g id="Layer_1" data-name="Layer 1">
      <g id="Group_6879" data-name="Group 6879">
        <g id="Group_6878" data-name="Group 6878">
          <g id="Group_6877" data-name="Group 6877">
            <path id="Path_13817" data-name="Path 13817" class="cls-1" d="M1195.332,525.072c4.307.935,6.545,5.127,6.545,5.127l14.315,24.795h0s4.75.157,7.713-3.1a12.568,12.568,0,0,0,3.042-8.735h0a25.325,25.325,0,0,0-40.7-16.349h0A12.568,12.568,0,0,1,1195.332,525.072Z" transform="translate(-1176.2 -521.406)"/>
            <path id="Path_13818" data-name="Path 13818" class="cls-2" d="M1061.818,607.423c-1.344-4.23,1.167-8.3,1.167-8.3h0l14.315-24.988s-2.238-4.225-6.545-5.167a12.492,12.492,0,0,0-9.086,1.747h0a25.621,25.621,0,0,0,6.189,43.765l0,0A12.623,12.623,0,0,1,1061.818,607.423Z" transform="translate(-1051.977 -565.303)"/>
            <path id="Path_13819" data-name="Path 13819" class="cls-3" d="M1223.777,822.7a12.568,12.568,0,0,1-3.042,8.735c-2.963,3.262-7.713,3.1-7.713,3.1h-28.63s-2.511,4.034-1.167,8.232a12.567,12.567,0,0,0,6.044,7l0,0a25.334,25.334,0,0,0,34.765-23.5,25.523,25.523,0,0,0-.252-3.575Z" transform="translate(-1173.029 -800.602)"/>
          </g>
        </g>
      </g>
    </g>
  </g>
</svg>
