<svg xmlns="http://www.w3.org/2000/svg" viewBox="0 0 139.9 169.33"><defs><style>.cls-1{fill:#7d677d;opacity:0.7;}.cls-2{fill:#fff;}.cls-3{fill:none;stroke:#666;stroke-linecap:round;stroke-linejoin:round;stroke-width:3.67px;}</style></defs><title>Budget</title><g id="Layer_2" data-name="Layer 2"><g id="Layer_1-2" data-name="Layer 1"><rect id="Rectangle_5194" data-name="Rectangle 5194" class="cls-1" y="12.42" width="131.57" height="156.9"/><rect class="cls-2" x="6.85" y="68.36" width="126.15" height="56"/><polyline class="cls-3" points="96.19 1.84 96.19 50.25 138.02 50.25"/><polygon class="cls-3" points="96.62 1.84 5.72 1.84 5.72 161.38 138.06 161.38 138.06 49.18 96.62 1.84"/><path d="M27.19,88.26h6.22v2.36H24.26V76.4h2.93Z" transform="translate(-4.99)"/><path d="M41,90.62a3.23,3.23,0,0,1-.29-1,3.41,3.41,0,0,1-2.66,1.14,3.8,3.8,0,0,1-2.58-.89,2.9,2.9,0,0,1-1-2.27,3,3,0,0,1,1.25-2.58,6.16,6.16,0,0,1,3.6-.91h1.3v-.6a1.73,1.73,0,0,0-.38-1.17A1.46,1.46,0,0,0,39.06,82a1.66,1.66,0,0,0-1.11.34,1.17,1.17,0,0,0-.41.94H34.72a2.86,2.86,0,0,1,.56-1.7,3.83,3.83,0,0,1,1.61-1.23,5.92,5.92,0,0,1,2.32-.44,4.57,4.57,0,0,1,3.1,1,3.41,3.41,0,0,1,1.15,2.76v4.58a4.85,4.85,0,0,0,.42,2.27v.17Zm-2.34-2a2.47,2.47,0,0,0,1.15-.28,1.85,1.85,0,0,0,.79-.75V85.81H39.57q-2.12,0-2.25,1.47v.16a1.1,1.1,0,0,0,.37.87A1.41,1.41,0,0,0,38.69,88.66Z" transform="translate(-4.99)"/><path d="M51.35,87.7a.91.91,0,0,0-.51-.82,6,6,0,0,0-1.65-.53c-2.51-.53-3.77-1.59-3.77-3.2a2.9,2.9,0,0,1,1.17-2.35,4.69,4.69,0,0,1,3-.94,5.09,5.09,0,0,1,3.22.94,3,3,0,0,1,1.2,2.46H51.24a1.38,1.38,0,0,0-.39-1,1.67,1.67,0,0,0-1.22-.39,1.72,1.72,0,0,0-1.1.32,1,1,0,0,0-.39.82.86.86,0,0,0,.44.76,4.68,4.68,0,0,0,1.5.5,12.18,12.18,0,0,1,1.78.47,2.91,2.91,0,0,1,2.23,2.84,2.75,2.75,0,0,1-1.24,2.34,5.29,5.29,0,0,1-3.2.89,5.53,5.53,0,0,1-2.36-.47A4,4,0,0,1,45.67,89a3,3,0,0,1-.58-1.78h2.67a1.51,1.51,0,0,0,.56,1.15,2.21,2.21,0,0,0,1.39.4,2,2,0,0,0,1.22-.31A.94.94,0,0,0,51.35,87.7Z" transform="translate(-4.99)"/><path d="M59.29,77.45v2.6h1.8v2.07h-1.8V87.4a1.26,1.26,0,0,0,.22.84,1.18,1.18,0,0,0,.86.25,4.15,4.15,0,0,0,.83-.07v2.14a5.75,5.75,0,0,1-1.71.25,2.68,2.68,0,0,1-3-3v-5.7H54.92V80.05h1.55v-2.6Z" transform="translate(-4.99)"/><path d="M71.59,86.62l2-6.57h3L72.32,92.26l-.23.56A3.21,3.21,0,0,1,69,94.89a4.57,4.57,0,0,1-1.25-.19V92.56h.43a2.33,2.33,0,0,0,1.19-.24,1.63,1.63,0,0,0,.62-.81l.33-.87-3.7-10.6h3Z" transform="translate(-4.99)"/><path d="M82.42,90.81a5.17,5.17,0,0,1-3.78-1.42,5.09,5.09,0,0,1-1.46-3.8v-.27a6.38,6.38,0,0,1,.61-2.85,4.44,4.44,0,0,1,1.75-1.93,4.82,4.82,0,0,1,2.57-.68,4.37,4.37,0,0,1,3.41,1.36,5.57,5.57,0,0,1,1.25,3.88v1.15H80a2.6,2.6,0,0,0,.83,1.66,2.46,2.46,0,0,0,1.74.63,3.06,3.06,0,0,0,2.55-1.18l1.38,1.55a4.12,4.12,0,0,1-1.72,1.4A5.55,5.55,0,0,1,82.42,90.81Zm-.32-8.68a1.76,1.76,0,0,0-1.36.57,3,3,0,0,0-.67,1.63H84V84.1a2.1,2.1,0,0,0-.5-1.45A1.81,1.81,0,0,0,82.1,82.13Z" transform="translate(-4.99)"/><path d="M94.49,90.62a3.24,3.24,0,0,1-.28-1,3.41,3.41,0,0,1-2.67,1.14A3.79,3.79,0,0,1,89,89.92a2.9,2.9,0,0,1-1-2.27,3,3,0,0,1,1.25-2.58,6.15,6.15,0,0,1,3.59-.91h1.3v-.6a1.73,1.73,0,0,0-.37-1.17A1.46,1.46,0,0,0,92.53,82a1.68,1.68,0,0,0-1.12.34,1.16,1.16,0,0,0-.4.94H88.18a2.81,2.81,0,0,1,.57-1.7,3.8,3.8,0,0,1,1.6-1.23,6,6,0,0,1,2.33-.44,4.59,4.59,0,0,1,3.1,1,3.43,3.43,0,0,1,1.14,2.76v4.58a5.12,5.12,0,0,0,.42,2.27v.17Zm-2.33-2a2.47,2.47,0,0,0,1.15-.28,1.89,1.89,0,0,0,.78-.75V85.81H93c-1.41,0-2.17.49-2.26,1.47v.16a1.13,1.13,0,0,0,.37.87A1.45,1.45,0,0,0,92.16,88.66Z" transform="translate(-4.99)"/><path d="M105,82.7a8,8,0,0,0-1-.08,2.08,2.08,0,0,0-2.1,1.08v6.92H99.09V80.05h2.67l.08,1.26a2.6,2.6,0,0,1,2.35-1.45,3.12,3.12,0,0,1,.88.12Z" transform="translate(-4.99)"/><path d="M107.35,80.76,106,80a5.2,5.2,0,0,0,.87-2.72V75.62h2.24v1.51a4.43,4.43,0,0,1-.49,1.91A5,5,0,0,1,107.35,80.76Z" transform="translate(-4.99)"/><path d="M114.59,87.7a.91.91,0,0,0-.51-.82,5.88,5.88,0,0,0-1.65-.53c-2.51-.53-3.77-1.59-3.77-3.2a2.9,2.9,0,0,1,1.17-2.35,4.71,4.71,0,0,1,3-.94,5.08,5.08,0,0,1,3.22.94,3,3,0,0,1,1.21,2.46h-2.83a1.38,1.38,0,0,0-.39-1,1.65,1.65,0,0,0-1.22-.39,1.72,1.72,0,0,0-1.1.32,1,1,0,0,0-.39.82.88.88,0,0,0,.44.76,4.68,4.68,0,0,0,1.5.5,11.85,11.85,0,0,1,1.78.47,2.91,2.91,0,0,1,2.23,2.84,2.75,2.75,0,0,1-1.24,2.34,5.29,5.29,0,0,1-3.2.89,5.56,5.56,0,0,1-2.36-.47,4,4,0,0,1-1.61-1.3,3,3,0,0,1-.59-1.78H111a1.47,1.47,0,0,0,.55,1.15,2.21,2.21,0,0,0,1.39.4,2,2,0,0,0,1.23-.31A1,1,0,0,0,114.59,87.7Z" transform="translate(-4.99)"/><path d="M36.61,113.62V98h5.48a7.17,7.17,0,0,1,4.32,1.09,3.73,3.73,0,0,1,1.47,3.19,3.56,3.56,0,0,1-.59,2,3.42,3.42,0,0,1-1.65,1.28,3.28,3.28,0,0,1,1.9,1.22,3.57,3.57,0,0,1,.69,2.23,4.15,4.15,0,0,1-1.44,3.42,6.52,6.52,0,0,1-4.1,1.18Zm3.22-9.09h2.39c1.62,0,2.44-.68,2.44-1.94a1.8,1.8,0,0,0-.62-1.53,3.18,3.18,0,0,0-1.95-.47H39.83Zm0,2.28V111h2.76a2.67,2.67,0,0,0,1.78-.54A1.85,1.85,0,0,0,45,109a2,2,0,0,0-2.22-2.18Z" transform="translate(-4.99)"/><path d="M57.41,112.44a3.9,3.9,0,0,1-3.18,1.39,3.71,3.71,0,0,1-2.86-1.07,4.61,4.61,0,0,1-1-3.15V102h3.11v7.51c0,1.21.55,1.82,1.65,1.82a2.23,2.23,0,0,0,2.17-1.1V102h3.11v11.62H57.49Z" transform="translate(-4.99)"/><path d="M62.27,107.72a7,7,0,0,1,1.22-4.33,4,4,0,0,1,3.34-1.61,3.54,3.54,0,0,1,2.8,1.27V97.12h3.12v16.5H69.94l-.15-1.24a3.64,3.64,0,0,1-3,1.45,4,4,0,0,1-3.3-1.61A7.29,7.29,0,0,1,62.27,107.72Zm3.11.23a4.59,4.59,0,0,0,.57,2.51,1.85,1.85,0,0,0,1.65.87,2.08,2.08,0,0,0,2-1.22v-4.59a2.06,2.06,0,0,0-2-1.22C66.13,104.3,65.38,105.52,65.38,108Z" transform="translate(-4.99)"/><path d="M74.7,107.72A6.88,6.88,0,0,1,76,103.41a4.13,4.13,0,0,1,3.44-1.63,3.62,3.62,0,0,1,3,1.31l.13-1.09h2.82v11.23a5,5,0,0,1-.7,2.65,4.36,4.36,0,0,1-1.95,1.72,6.74,6.74,0,0,1-2.94.59,6.38,6.38,0,0,1-2.49-.51,4.42,4.42,0,0,1-1.84-1.31l1.38-1.89a3.65,3.65,0,0,0,2.81,1.3,2.66,2.66,0,0,0,1.92-.66,2.48,2.48,0,0,0,.69-1.88v-.62a3.59,3.59,0,0,1-2.82,1.21A4.09,4.09,0,0,1,76,112.19a6.76,6.76,0,0,1-1.3-4.34Zm3.11.23a4.25,4.25,0,0,0,.63,2.48,2,2,0,0,0,1.74.9,2.16,2.16,0,0,0,2-1.07v-4.89a2.15,2.15,0,0,0-2-1.07,2,2,0,0,0-1.75.92A4.75,4.75,0,0,0,77.81,108Z" transform="translate(-4.99)"/><path d="M93.06,113.83a5.69,5.69,0,0,1-4.16-1.57,5.55,5.55,0,0,1-1.61-4.17v-.3a7.07,7.07,0,0,1,.68-3.14,4.89,4.89,0,0,1,1.92-2.12,5.34,5.34,0,0,1,2.83-.75,4.82,4.82,0,0,1,3.75,1.5,6.15,6.15,0,0,1,1.37,4.27v1.27h-7.4a2.85,2.85,0,0,0,.91,1.82,2.72,2.72,0,0,0,1.91.69,3.36,3.36,0,0,0,2.81-1.3l1.52,1.71a4.59,4.59,0,0,1-1.89,1.54A6.15,6.15,0,0,1,93.06,113.83Zm-.35-9.55a1.93,1.93,0,0,0-1.5.63,3.21,3.21,0,0,0-.74,1.79h4.32v-.25a2.28,2.28,0,0,0-.56-1.6A2,2,0,0,0,92.71,104.28Z" transform="translate(-4.99)"/><path d="M103.32,99.14V102h2v2.27h-2v5.8a1.38,1.38,0,0,0,.25.93,1.25,1.25,0,0,0,.94.28,4.81,4.81,0,0,0,.91-.08v2.35a6.2,6.2,0,0,1-1.88.28q-3.26,0-3.33-3.29v-6.27H98.52V102h1.69V99.14Z" transform="translate(-4.99)"/></g></g></svg>