<svg id="Layer_1" data-name="Layer 1" xmlns="http://www.w3.org/2000/svg" viewBox="0 0 120 120"><defs><style>.cls-1{fill:#4a97a8;}.cls-2{fill:#317077;}.cls-3{fill:#fff;}.cls-4{fill:#2d475d;}.cls-5{fill:#ef861f;}</style></defs><title>Course map icon</title><g id="Course_map_icon" data-name="Course map icon"><g id="Group_2800" data-name="Group 2800"><g id="Group_2790" data-name="Group 2790"><circle id="Ellipse_182-2" data-name="Ellipse 182-2" class="cls-1" cx="59.95" cy="63.08" r="45.12"/><path id="Path_9832" data-name="Path 9832" class="cls-2" d="M76.34,44.86,54.88,52.17l1,18.48L36,79.3,77.4,103.91C92,99,102.93,83.72,104.64,67.86Z"/><g id="Group_2774" data-name="Group 2774"><path id="Path_9833" data-name="Path 9833" class="cls-3" d="M64.15,83.64,77.72,80l4.43-30.4L68.58,53.24Z"/><path id="Path_9834" data-name="Path 9834" class="cls-3" d="M63.23,83.51l-9.65-7L58,46.12l9.65,7Z"/><path id="Path_9835" data-name="Path 9835" class="cls-3" d="M39.17,80.29l13.58-3.61,4.43-30.4L43.6,49.89Z"/><path id="Path_9836" data-name="Path 9836" class="cls-4" d="M85.07,47.71l0-.21-.12,0a1.46,1.46,0,0,0-1.65-.64l-14.88,4-9-7.67a1.47,1.47,0,0,0-1.35-.3l-.39.11,0,0v0L41.87,47.34a1.5,1.5,0,0,0-1.09,1.23L36,81.08a1.52,1.52,0,0,0,.34,1.16l0,.16.14,0,0,0a1.47,1.47,0,0,0,1.38.31l15.44-4.18,8,6.75a1.48,1.48,0,0,0,1.55,1.42,1.64,1.64,0,0,0,.32,0l.4-.11,0,0v0l15.78-4.28A1.47,1.47,0,0,0,80.46,81L85.2,48.52A1.41,1.41,0,0,0,85.07,47.71ZM54.68,75.77a2,2,0,0,0-.27-.17l4.24-29.09,8.24,7,0,0-4.23,29ZM43.59,50l13.58-3.69L52.9,75.58,39.32,79.27Zm25,4,13.32-3.61-4.27,29.3L64.33,83.27Z"/><path id="Path_9837" data-name="Path 9837" class="cls-5" d="M71.62,33.21a9.23,9.23,0,0,0-10.56,7.64,12.27,12.27,0,0,0,.16,3.2c.07.34.21.89.32,1.22l5.51,17.41c.11.34.36.37.55.08L77.86,47.65c.19-.29.47-.78.64-1.08a12.08,12.08,0,0,0,1.07-3,9.22,9.22,0,0,0-7.95-10.34ZM69.75,46.09a3.94,3.94,0,1,1,4.57-3.31,4,4,0,0,1-4.57,3.31Z"/><circle id="Ellipse_183" data-name="Ellipse 183" class="cls-3" cx="70.39" cy="41.69" r="4.49"/></g></g></g></g></svg>