<svg xmlns="http://www.w3.org/2000/svg" xmlns:xlink="http://www.w3.org/1999/xlink" width="1661" height="1145" viewBox="0 0 1661 1145">
  <defs>
    <style>
      .cls-1 {
        fill: url(#linear-gradient);
      }

      .cls-2 {
        fill: url(#linear-gradient-2);
      }

      .cls-3 {
        fill: url(#linear-gradient-3);
      }

      .cls-4 {
        fill: url(#linear-gradient-4);
      }

      .cls-5 {
        fill: url(#linear-gradient-5);
      }

      .cls-6 {
        fill: #b7dfe5;
      }

      .cls-7 {
        fill: url(#linear-gradient-6);
      }

      .cls-8 {
        fill: #e4f2f4;
      }

      .cls-9 {
        fill: #f2f9f9;
      }

      .cls-10 {
        fill: #fff;
      }

      .cls-11 {
        fill: #c2e7ef;
      }

      .cls-12 {
        fill: #d4eff4;
      }
    </style>
    <linearGradient id="linear-gradient" x1="0.5" x2="0.5" y2="0.746" gradientUnits="objectBoundingBox">
      <stop offset="0" stop-color="#4b88a3"/>
      <stop offset="0.276" stop-color="#3a7a95"/>
      <stop offset="0.815" stop-color="#105673"/>
      <stop offset="1" stop-color="#004967"/>
    </linearGradient>
    <linearGradient id="linear-gradient-2" x1="0.5" x2="0.5" y2="1" gradientUnits="objectBoundingBox">
      <stop offset="0.26" stop-color="#4ca7c5"/>
      <stop offset="1" stop-color="#0e99b7"/>
    </linearGradient>
    <linearGradient id="linear-gradient-3" x1="0.5" x2="0.5" y2="1" gradientUnits="objectBoundingBox">
      <stop offset="0.26" stop-color="#3486a3"/>
      <stop offset="1" stop-color="#005f86"/>
    </linearGradient>
    <linearGradient id="linear-gradient-4" x1="0.5" y1="0" x2="0.5" y2="1" xlink:href="#linear-gradient-2"/>
    <linearGradient id="linear-gradient-5" x1="0.5" x2="0.5" y2="1" gradientUnits="objectBoundingBox">
      <stop offset="0" stop-color="#9bccdb"/>
      <stop offset="0.205" stop-color="#96cada"/>
      <stop offset="0.439" stop-color="#88c6d7"/>
      <stop offset="0.689" stop-color="#71bfd3"/>
      <stop offset="0.947" stop-color="#51b6ce"/>
      <stop offset="1" stop-color="#4ab4cd"/>
    </linearGradient>
    <linearGradient id="linear-gradient-6" x1="0.5" x2="0.5" y2="1" gradientUnits="objectBoundingBox">
      <stop offset="0" stop-color="#2b8faa"/>
      <stop offset="1" stop-color="#0087a1"/>
    </linearGradient>
  </defs>
  <g id="Group_8977" data-name="Group 8977" transform="translate(0.004)">
    <rect id="Rectangle_5120" data-name="Rectangle 5120" class="cls-1" width="1661" height="1145" transform="translate(-0.004)"/>
    <g id="Group_8976" data-name="Group 8976" transform="translate(-0.004 347.927)">
      <g id="Group_8975" data-name="Group 8975">
        <path id="Path_19696" data-name="Path 19696" class="cls-2" d="M382.273,552.352C509.158,521.2,622.744,450.983,808.5,424.46a403.8,403.8,0,0,0,73.006,25.129c59.377,14.268,146.691,21.18,264.342-17.211,21.877,4.027,42.379,8.48,61.39,13.068V570.705H261.486v-3.136C304.523,567.569,344,561.742,382.273,552.352Z" transform="translate(453.344 225.969)"/>
        <path id="Path_19697" data-name="Path 19697" class="cls-3" d="M779.676,416.6v36.2c-19.011-4.588-39.514-9.041-61.39-13.068Q747.7,430.152,779.676,416.6Z" transform="translate(880.909 218.612)"/>
        <path id="Path_19698" data-name="Path 19698" class="cls-4" d="M673.305,446.687l-.019-1.026c89.23-1.162,164.734-23.774,218.652-46.348a597.149,597.149,0,0,0,70.3-34.984V465.525q-31.973,13.62-61.39,23.135c-85.862-15.856-192.806-25.187-312.7-11.113q-12.545,1.481-24.645,3.194a442.791,442.791,0,0,1-40.25-20.773A1017.19,1017.19,0,0,1,673.305,446.687Z" transform="translate(698.352 169.687)"/>
        <path id="Path_19699" data-name="Path 19699" class="cls-5" d="M713.976,384.953a1101.594,1101.594,0,0,0,126.44-64.933,433.387,433.387,0,0,1,9.544,61.952V405.8a597.149,597.149,0,0,1-70.3,34.984A1141.611,1141.611,0,0,0,643.2,412.348C666,404.565,689.6,395.5,713.976,384.953Z" transform="translate(810.625 128.213)"/>
        <path id="Path_19700" data-name="Path 19700" class="cls-6" d="M754.61,317.05v67.7a433.387,433.387,0,0,0-9.544-61.952C748.241,320.9,751.416,319.005,754.61,317.05Z" transform="translate(905.975 125.433)"/>
        <path id="Path_19701" data-name="Path 19701" class="cls-7" d="M772.572,282.391V403.256c-3.194,1.955-6.369,3.853-9.544,5.75a485.267,485.267,0,0,0-35.719-103.227v-.019a251.763,251.763,0,0,0-1.433-80.809A189.545,189.545,0,0,1,772.572,282.391Z" transform="translate(888.013 39.228)"/>
        <path id="Path_19702" data-name="Path 19702" class="cls-3" d="M770.477,266.7A485.267,485.267,0,0,1,806.2,369.927a1101.594,1101.594,0,0,1-126.44,64.933C731.041,388.649,761.765,328.168,770.477,266.7Z" transform="translate(844.845 78.306)"/>
        <path id="Path_19703" data-name="Path 19703" class="cls-5" d="M765.852,244.1a251.763,251.763,0,0,1,1.433,80.809c-4.066-8.5-8.5-17.076-13.3-25.652-.968-1.723-1.936-3.427-2.923-5.13a450.683,450.683,0,0,0-67.9-89.637,190.149,190.149,0,0,1,82.667,39.591Z" transform="translate(848.037 20.077)"/>
        <path id="Path_19704" data-name="Path 19704" class="cls-7" d="M876.2,281.572v.019c-8.712,61.468-39.436,121.949-90.721,168.161C761.1,460.3,737.5,469.364,714.7,477.147a1059.495,1059.495,0,0,0-147.891-10.958,169.607,169.607,0,0,0,14.733-17.637c25.536,5.866,72.658,12.507,124.543-5.808C828.108,399.668,858.1,260.238,859.975,250.79c.987,1.7,1.955,3.407,2.923,5.13C867.7,264.5,872.133,273.073,876.2,281.572Z" transform="translate(739.124 63.414)"/>
        <path id="Path_19705" data-name="Path 19705" class="cls-6" d="M821.31,305.989l-.019-.019a190.148,190.148,0,0,0-82.667-39.591,454.781,454.781,0,0,0-71.09-59.455c-8.848-27.046-23.716-50.878-43.618-68.554,44.857,1.2,79.647,21.412,92.986,30.221.523.348,1.026.678,1.491,1.007.542.348,1.065.716,1.588,1.084a303.69,303.69,0,0,1,94.148,106.557l.019.058A238.078,238.078,0,0,1,821.31,305.989Z" transform="translate(792.579 -41.811)"/>
        <path id="Path_19706" data-name="Path 19706" class="cls-8" d="M662.64,119.02a30.209,30.209,0,0,1,12.681,6.408c5.014-8.751,15.236-12.661,23.871-9.68A20,20,0,0,1,712.1,132.533c15.159-5.731,32.157.213,40.017,13.552,7.124,12.1,5.382,27.956-4.53,38.72,1.123-.348,9.293-2.807,16.146,1.936,6.834,4.743,9.544,14.694,5.808,23.871a39.866,39.866,0,0,1,29.66,66q-4.095-9.293-9.022-18.237C757.349,199,698.8,157.217,630.7,140.432c.716-3.62,3.485-13.513,13.01-18.876A26.431,26.431,0,0,1,662.64,119.02Z" transform="translate(798.925 -63.911)"/>
        <path id="Path_19707" data-name="Path 19707" class="cls-9" d="M661.266,131.961c68.109,16.785,126.653,58.564,159.488,117.941q4.937,8.944,9.022,18.237a226.245,226.245,0,0,1,8.576,22.729A303.69,303.69,0,0,0,744.2,184.31c-.465-.329-1.007-.7-1.588-1.084-.465-.329-.968-.658-1.491-1.007a289.381,289.381,0,0,0-114.689-45.883,145.437,145.437,0,0,0-28.4-12.526A283.672,283.672,0,0,1,661.266,131.961Z" transform="translate(768.355 -55.439)"/>
        <path id="Path_19708" data-name="Path 19708" class="cls-3" d="M852.852,322.871c-1.878,9.448-31.867,148.878-153.893,191.954-51.885,18.314-99.007,11.674-124.543,5.808,12.526-9.332,69.212-53.627,82.59-134.223,64.217-61.352,78.485-146.555,56.86-212.631A454.725,454.725,0,0,1,852.852,322.871Z" transform="translate(746.247 -8.667)"/>
        <path id="Path_19709" data-name="Path 19709" class="cls-10" d="M674.3,155.584c-.523-.368-1.045-.736-1.588-1.084C673.3,154.887,673.839,155.255,674.3,155.584Z" transform="translate(838.256 -26.713)"/>
        <path id="Path_19710" data-name="Path 19710" class="cls-9" d="M714.048,122.269A24.431,24.431,0,0,1,725.083,143.6a26.431,26.431,0,0,0-18.934,2.536c-9.525,5.363-12.294,15.256-13.01,18.876a283.672,283.672,0,0,0-63.23-8.151h-.019a169.092,169.092,0,0,0-49.252-7.9c-4.821-.077-9.68.019-14.559.329a28.488,28.488,0,0,1,37.132-37.191,13.967,13.967,0,0,1,21.3-15c13.223-10.609,31.363-11.4,44.044-2.42,15.546,11.016,14.6,30.8,14.52,31.944C691.513,117.932,704.6,116.306,714.048,122.269Z" transform="translate(736.482 -88.494)"/>
        <path id="Path_19711" data-name="Path 19711" class="cls-7" d="M674.573,206.948c21.625,66.076,7.357,151.279-56.86,212.631a204.208,204.208,0,0,0,1.1-59.474,238.25,238.25,0,0,0-2.42-221.4c4.956-.348,9.816-.426,14.559-.31C650.857,156.07,665.725,179.9,674.573,206.948Z" transform="translate(785.54 -41.835)"/>
        <path id="Path_19712" data-name="Path 19712" class="cls-11" d="M671.347,146.562a288.7,288.7,0,0,1,56.047,29.6c-13.339-8.809-48.129-29.021-92.986-30.221-2.594-2.343-5.3-4.55-8.073-6.64a131.781,131.781,0,0,0-13.629-9.022A287.57,287.57,0,0,1,671.347,146.562Z" transform="translate(782.086 -49.383)"/>
        <path id="Path_19713" data-name="Path 19713" class="cls-6" d="M771.578,367.71a1141.611,1141.611,0,0,1,136.469,28.44c-53.917,22.574-129.422,45.186-218.652,46.348a548.772,548.772,0,0,1-100.033-7.88,551.25,551.25,0,0,1-83.325-21.064q16.756-.029,34.286-.871C602.1,409.76,680.353,398.918,771.578,367.71Z" transform="translate(682.243 172.851)"/>
        <path id="Path_19714" data-name="Path 19714" class="cls-7" d="M881.384,437.26c-117.651,38.391-204.964,31.479-264.342,17.211a403.8,403.8,0,0,1-73.006-25.129q12.11-1.713,24.645-3.194C688.578,412.073,795.522,421.4,881.384,437.26Z" transform="translate(717.811 221.087)"/>
        <path id="Path_19715" data-name="Path 19715" class="cls-4" d="M671.436,220.136a239.565,239.565,0,0,1-26,114.766,214.6,214.6,0,0,0-22.9-72.735,286.493,286.493,0,0,0-34.577-81.7,16.712,16.712,0,0,0,3.465-7.608c5.034,3.814,11.577,4.375,16.456,1.452a14.46,14.46,0,0,0,6.311-9.041C649.85,185.637,669.539,217.019,671.436,220.136Z" transform="translate(723.84 -16.633)"/>
        <path id="Path_19716" data-name="Path 19716" class="cls-6" d="M629.923,190.3a128.422,128.422,0,0,0-58.777-17.327,160.37,160.37,0,0,1,65.05-31.228,150.239,150.239,0,0,1,22.554-3.214,239.864,239.864,0,0,1,28.421,106.635C685.273,242.048,665.584,210.665,629.923,190.3Z" transform="translate(707.24 -41.661)"/>
        <path id="Path_19717" data-name="Path 19717" class="cls-3" d="M544.2,418.855q-16.175.087-31.692-.542c-16.011-12.119-31.654-24.8-47.238-37.733q8.247-1.626,16.688-3.117,27.762-4.937,57.809-8.518a1017.749,1017.749,0,0,1,122.084-6.892,1059.495,1059.495,0,0,1,147.891,10.958c-91.224,31.208-169.477,42.05-231.255,44.973Q560.943,418.826,544.2,418.855Z" transform="translate(644.082 167.55)"/>
        <path id="Path_19718" data-name="Path 19718" class="cls-11" d="M681.494,140.155a131.781,131.781,0,0,1,13.629,9.022c2.769,2.091,5.479,4.3,8.073,6.64-4.743-.116-9.6-.039-14.559.31a150.239,150.239,0,0,0-22.554,3.214,160.37,160.37,0,0,0-65.05,31.228c-.891-.039-1.8-.077-2.71-.1a133.621,133.621,0,0,0-58.6,12.487,75.07,75.07,0,0,1,6.331-40.23c16.03-34.132,53.124-42.089,57.77-43a169.092,169.092,0,0,1,49.252,7.9h.019A145.437,145.437,0,0,1,681.494,140.155Z" transform="translate(673.769 -59.258)"/>
        <path id="Path_19719" data-name="Path 19719" class="cls-5" d="M536.353,480.242c39.03-.31,76.375-9.157,108.339-25.323a204.334,204.334,0,0,0,21.567-12.565,181.708,181.708,0,0,0,43.754-40.617c37.152-48.574,48.11-117.806,31.111-186.417a214.6,214.6,0,0,1,22.9,72.736,204.208,204.208,0,0,1-1.1,59.474c-13.378,80.6-70.064,124.891-82.59,134.223A169.607,169.607,0,0,1,665.6,499.389a1017.749,1017.749,0,0,0-122.084,6.892q-30.086,3.543-57.809,8.518a214.522,214.522,0,0,1-24.452-16.708,597.053,597.053,0,0,0,64.72-17.966H526C529.461,480.242,532.907,480.281,536.353,480.242Z" transform="translate(594.058 30.214)"/>
        <path id="Path_19720" data-name="Path 19720" class="cls-7" d="M612.042,312.45c6.486-46.212-7.628-94.516-39.727-131.474a27.446,27.446,0,0,0,9.06-8.286,16.606,16.606,0,0,0,17.908,6.292,16.1,16.1,0,0,0,8.151-5.46,286.493,286.493,0,0,1,34.577,81.7c17,68.612,6.04,137.843-31.111,186.417a181.708,181.708,0,0,1-43.754,40.617c6.931-12.545,16.708-35.351,13.745-63.21a99.261,99.261,0,0,0-6.156-25.245,155.295,155.295,0,0,0,37.307-81.351Z" transform="translate(698.111 -9.687)"/>
        <path id="Path_19721" data-name="Path 19721" class="cls-9" d="M600.789,156.379a128.422,128.422,0,0,1,58.777,17.327,14.46,14.46,0,0,1-6.311,9.041c-4.879,2.923-11.422,2.362-16.456-1.452a16.712,16.712,0,0,1-3.465,7.608,16.1,16.1,0,0,1-8.151,5.46,16.606,16.606,0,0,1-17.908-6.292,27.446,27.446,0,0,1-9.06,8.286,22.972,22.972,0,0,1-19.5,1.878c-9.912-3.814-13.145-14.113-13.552-15.488a16.44,16.44,0,0,1-18.876.484,11.95,11.95,0,0,1-1.684-1.394c-5.246-4.9-5.092-12.1-5.072-12.642l-.058-.426a133.621,133.621,0,0,1,58.6-12.487C598.989,156.3,599.9,156.34,600.789,156.379Z" transform="translate(668.522 -25.069)"/>
        <path id="Path_19722" data-name="Path 19722" class="cls-7" d="M704.717,420.6l.019,1.026A1017.19,1017.19,0,0,0,554.677,434.9a627.755,627.755,0,0,1-65.011-43.792q15.536.61,31.692.542a551.251,551.251,0,0,0,83.325,21.064A548.772,548.772,0,0,0,704.717,420.6Z" transform="translate(618.198 194.754)"/>
        <path id="Path_19723" data-name="Path 19723" class="cls-5" d="M556.436,209.719a152.919,152.919,0,0,0-29.04-7.473,24.222,24.222,0,0,0,.678-21.857,25.532,25.532,0,0,0,17.753-1.626,24.86,24.86,0,0,0,10.086-9.293,11.95,11.95,0,0,0,1.684,1.394,16.44,16.44,0,0,0,18.876-.484c.407,1.375,3.64,11.674,13.552,15.488a22.972,22.972,0,0,0,19.5-1.878c32.1,36.958,46.212,85.261,39.727,131.474-3.485-13.668-17.017-59.687-61.8-89.908A144.847,144.847,0,0,0,556.436,209.719Z" transform="translate(653.95 -12.701)"/>
        <path id="Path_19724" data-name="Path 19724" class="cls-4" d="M635.208,296A155.3,155.3,0,0,1,597.9,377.355,111.22,111.22,0,0,0,578.619,345.2c19.031-50.878,6.156-112.5-36.223-154.938A144.847,144.847,0,0,1,573.411,206.1C618.19,236.317,631.723,282.336,635.208,296Z" transform="translate(668.84 6.758)"/>
        <path id="Path_19725" data-name="Path 19725" class="cls-8" d="M535.048,146.432a141.1,141.1,0,0,1,13.4-14.133C588.636,95.457,637.83,93.056,653.318,92.94a14.065,14.065,0,0,0-5.808,15,28.488,28.488,0,0,0-37.132,37.191c-2.9.174-5.808.407-8.712.736l-.1.019a208.556,208.556,0,0,0-84.894,28.846l-.019-.039A147.158,147.158,0,0,1,535.048,146.432Z" transform="translate(642.218 -84.333)"/>
        <path id="Path_19726" data-name="Path 19726" class="cls-4" d="M603.346,312.145c2.962,27.859-6.815,50.665-13.745,63.21a204.334,204.334,0,0,1-21.567,12.565c-7.725-3.059-16.03-6.156-24.878-9.2,11.19-19.224,16.4-40.095,15.217-59.474A162.41,162.41,0,0,0,597.19,286.9,99.261,99.261,0,0,1,603.346,312.145Z" transform="translate(666.057 97.213)"/>
        <path id="Path_19727" data-name="Path 19727" class="cls-8" d="M513.662,245.679a47.766,47.766,0,0,1-4.375-22.922c1.413-24.026,20.193-36.881,22.3-38.275A18.58,18.58,0,0,1,533,164.445c5.9-7.725,15.546-7.086,16.2-7.028a15.054,15.054,0,0,1,3.175-16.108,185.393,185.393,0,0,1,56.163-20.483l.1-.019c2.9-.329,5.808-.561,8.712-.736,4.879-.31,9.738-.407,14.559-.329-4.646.91-41.74,8.867-57.77,43a75.07,75.07,0,0,0-6.331,40.23l.058.426c-.019.542-.174,7.744,5.072,12.642a24.86,24.86,0,0,1-10.086,9.293,25.532,25.532,0,0,1-17.753,1.626,24.222,24.222,0,0,1-.678,21.857,21.121,21.121,0,0,1-2.556,3.62c-6.911,7.938-16.959,7.8-18.392,7.744A51.515,51.515,0,0,1,513.662,245.679Z" transform="translate(631.312 -59.27)"/>
        <path id="Path_19728" data-name="Path 19728" class="cls-7" d="M574.238,280.165a111.22,111.22,0,0,1,19.282,32.157A162.41,162.41,0,0,1,554.7,344.672a79.5,79.5,0,0,0-5.014-23.793c-.774-2.052-1.646-4.066-2.614-6.021a117.106,117.106,0,0,0,6.137-47.49c-.213-2.575-.523-5.111-.949-7.628A127.151,127.151,0,0,1,574.238,280.165Z" transform="translate(669.249 71.791)"/>
        <path id="Path_19729" data-name="Path 19729" class="cls-3" d="M572.694,193.873c42.379,42.437,55.253,104.06,36.223,154.938a127.151,127.151,0,0,0-21.974-20.425,91.272,91.272,0,0,0-2.42-11.055,18,18,0,0,0-.755-2.517l-.078-.29a83.863,83.863,0,0,0-19.031-32.7c-19.05-20.018-43.773-24.684-54.634-26.02a35.7,35.7,0,0,0,7.57-11.848l-.406-.5A13.859,13.859,0,0,0,524,231.644a14.1,14.1,0,0,0-10.648-13.223,11.8,11.8,0,0,0,9.351-20.657c1.433.058,11.48.194,18.392-7.744a21.117,21.117,0,0,0,2.556-3.62A152.919,152.919,0,0,1,572.694,193.873Z" transform="translate(630.577 3.145)"/>
        <path id="Path_19730" data-name="Path 19730" class="cls-3" d="M546.878,330.079a99.842,99.842,0,0,0,8.635-21.432,133.825,133.825,0,0,0,18.644-17.327,79.5,79.5,0,0,1,5.014,23.793c1.181,19.379-4.027,40.249-15.217,59.474-13.165-4.53-27.53-8.983-43.018-13.049A108.427,108.427,0,0,0,546.878,330.079Z" transform="translate(638.556 101.35)"/>
        <path id="Path_19731" data-name="Path 19731" class="cls-5" d="M562.873,263.68a117.106,117.106,0,0,1-6.137,47.49,68.52,68.52,0,0,0-4.511-7.938,70.415,70.415,0,0,0-9.893-11.906,101.27,101.27,0,0,0-5.576-18.934,12.287,12.287,0,0,0,2.885-.465,14.047,14.047,0,0,0,7.512-5.576,12.9,12.9,0,0,0,7.976,1.471A13.134,13.134,0,0,0,562.873,263.68Z" transform="translate(654.467 75.479)"/>
        <path id="Path_19732" data-name="Path 19732" class="cls-10" d="M565.78,261.021c.426,2.517.736,5.053.949,7.628a13.134,13.134,0,0,1-7.744,4.143,12.9,12.9,0,0,1-7.976-1.471A14.047,14.047,0,0,1,543.5,276.9a12.287,12.287,0,0,1-2.885.465,102.538,102.538,0,0,0-7.976-15.72c4.646-1.336,9.97,1.045,12.468,5.9a13.608,13.608,0,0,1,4.84-6.776c5.731-4.143,12.623-1.742,13.61-1.355l.077.039Q564.706,260.208,565.78,261.021Z" transform="translate(650.251 70.51)"/>
        <path id="Path_19733" data-name="Path 19733" class="cls-9" d="M504.863,263.86a15.792,15.792,0,0,1,5.731-5.44,15.961,15.961,0,0,1,19.592,3.388c-.678-10.784,6.989-20.038,16.688-21.3,8.286-1.084,16.727,3.814,20.328,12.1a17.377,17.377,0,0,1,10.183-1.22c6.021,1.239,11.035,6.06,13.455,12.623l.078.29c.271.832.523,1.665.755,2.517a91.272,91.272,0,0,1,2.42,11.055q-1.074-.813-2.149-1.568l-.077-.039A146.419,146.419,0,0,0,550.514,256a21.121,21.121,0,0,1-1.607,11.287,21.7,21.7,0,0,1-11.635,11,19.173,19.173,0,0,0-9.99,2.827c-6.931-6.873-17.017-8.344-24.2-4.046A15.982,15.982,0,0,1,504.863,263.86Z" transform="translate(619.383 53.654)"/>
        <path id="Path_19734" data-name="Path 19734" class="cls-10" d="M548.871,255.247c-.232-.852-.484-1.684-.755-2.517A18,18,0,0,1,548.871,255.247Z" transform="translate(665.564 65.23)"/>
        <path id="Path_19735" data-name="Path 19735" class="cls-7" d="M554.826,297.8c.968,1.955,1.839,3.969,2.614,6.021A133.825,133.825,0,0,1,538.8,321.152a94.519,94.519,0,0,0,3.136-18.7,97.329,97.329,0,0,0-1.51-24.49,70.415,70.415,0,0,1,9.893,11.906A68.52,68.52,0,0,1,554.826,297.8Z" transform="translate(656.118 88.845)"/>
        <path id="Path_19736" data-name="Path 19736" class="cls-6" d="M575,268.71c-.987-.387-7.88-2.788-13.61,1.355a13.608,13.608,0,0,0-4.84,6.776c-2.5-4.859-7.821-7.241-12.468-5.9a10.626,10.626,0,0,0-7.2,7.841,20.665,20.665,0,0,0-16.475-8.054,21.7,21.7,0,0,0,11.635-11,21.121,21.121,0,0,0,1.607-11.287A146.419,146.419,0,0,1,575,268.71Z" transform="translate(637.496 61.215)"/>
        <path id="Path_19737" data-name="Path 19737" class="cls-3" d="M617.4,120.29a185.393,185.393,0,0,0-56.163,20.483,178.334,178.334,0,0,0-49.387,41.276,31.439,31.439,0,0,0-9.874-.387,55.276,55.276,0,0,1-2.226-8.48A219.891,219.891,0,0,1,532.5,149.136,208.556,208.556,0,0,1,617.4,120.29Z" transform="translate(619.012 -58.734)"/>
        <path id="Path_19738" data-name="Path 19738" class="cls-3" d="M577.414,336.622c15.488,4.066,29.853,8.518,43.018,13.049,8.848,3.04,17.153,6.137,24.878,9.2C613.346,375.033,576,383.88,536.971,384.19A673.573,673.573,0,0,0,460.6,317.94q11.819.7,24.161,1.936A599.6,599.6,0,0,1,577.414,336.622Z" transform="translate(577.896 126.266)"/>
        <path id="Path_19739" data-name="Path 19739" class="cls-3" d="M568.193,285a97.329,97.329,0,0,1,1.51,24.49,94.519,94.519,0,0,1-3.136,18.7,145.679,145.679,0,0,1-57.441,26.6c5.13-4.492,22.341-21.548,25.4-46.929a68.39,68.39,0,0,0-1.955-26.194,24.2,24.2,0,0,0,2.439-11,10.5,10.5,0,0,0,12.1-.232A81.409,81.409,0,0,1,568.193,285Z" transform="translate(624.332 81.806)"/>
        <path id="Path_19740" data-name="Path 19740" class="cls-10" d="M549.829,289.445a81.409,81.409,0,0,0-21.083-14.559c4.317-3.311,3.911-8.828,3.872-9.2a15.185,15.185,0,0,0,11.635,4.821A101.27,101.27,0,0,1,549.829,289.445Z" transform="translate(644.133 77.361)"/>
        <path id="Path_19741" data-name="Path 19741" class="cls-10" d="M544.094,275.78a15.185,15.185,0,0,1-11.635-4.821l-3.543-3.059a10.626,10.626,0,0,1,7.2-7.841A102.538,102.538,0,0,1,544.094,275.78Z" transform="translate(643.727 72.091)"/>
        <path id="Path_19742" data-name="Path 19742" class="cls-7" d="M511.081,328.458c2.768-.445,5.518-.968,8.247-1.587a145.679,145.679,0,0,0,57.441-26.6,99.842,99.842,0,0,1-8.635,21.432,170.076,170.076,0,0,1-69.909,8.325C502.543,329.7,506.841,329.174,511.081,328.458Z" transform="translate(612.836 109.727)"/>
        <path id="Path_19743" data-name="Path 19743" class="cls-4" d="M609.235,316.086a108.425,108.425,0,0,1-25.942,31.46A599.6,599.6,0,0,0,490.635,330.8q-18.527-13.01-36.319-24.529a153.445,153.445,0,0,0,61.352,18.14,150.822,150.822,0,0,0,23.658,0A170.076,170.076,0,0,0,609.235,316.086Z" transform="translate(566.691 115.343)"/>
        <path id="Path_19744" data-name="Path 19744" class="cls-10" d="M519.771,262.777a19.173,19.173,0,0,1,9.99-2.827A20.666,20.666,0,0,1,546.237,268l3.543,3.059c.039.368.445,5.885-3.872,9.2a10.5,10.5,0,0,1-12.1.232c-3.194-3.5-7.9-5.072-11.945-3.853-5.556,1.646-9.332,8.286-7.57,15.236-6.815-9.467-4.317-22.651,4.84-28.711C519.346,263.028,519.559,262.893,519.771,262.777Z" transform="translate(623.665 71.988)"/>
        <path id="Path_19745" data-name="Path 19745" class="cls-5" d="M555.383,130.87a15.054,15.054,0,0,0-3.175,16.108c-.658-.058-10.3-.7-16.2,7.028a18.58,18.58,0,0,0-1.413,20.038,22.773,22.773,0,0,0-28.595-1.9,178.334,178.334,0,0,1,49.387-41.276Z" transform="translate(619.301 -48.831)"/>
        <path id="Path_19746" data-name="Path 19746" class="cls-9" d="M559.29,119.379a141.082,141.082,0,0,0-13.4,14.133c-2.246-2.749-8.305-8.983-17.734-9.448-9.486-.465-18.566,5.053-23.077,14.036-.406-14.172,8.828-26.736,21.954-30.337A30.341,30.341,0,0,1,559.29,119.379Z" transform="translate(618.669 -71.414)"/>
        <path id="Path_19747" data-name="Path 19747" class="cls-5" d="M709.856,413.73a442.791,442.791,0,0,0,40.25,20.773C564.347,461.026,450.761,531.245,323.876,562.4A1020.359,1020.359,0,0,1,629.512,430.263C657.255,423.371,684.088,417.951,709.856,413.73Z" transform="translate(430.66 215.926)"/>
        <path id="Path_19748" data-name="Path 19748" class="cls-8" d="M499.576,161.083c1.394-13.978,7.3-25.284,10.938-31.344,4.511-8.983,13.591-14.5,23.077-14.036,9.428.465,15.488,6.7,17.734,9.448a147.157,147.157,0,0,0-18.392,28.266l.019.039A219.89,219.89,0,0,0,500.2,177.5,58.494,58.494,0,0,1,499.576,161.083Z" transform="translate(611.338 -63.053)"/>
        <path id="Path_19749" data-name="Path 19749" class="cls-6" d="M505.448,306.346a14.416,14.416,0,0,1-10.822-4.182,8.074,8.074,0,0,1,5.227-6.389,8.252,8.252,0,0,1,6.776.813c-.058-1.123-.252-6.834,3.872-10.977,4.453-4.433,12.081-5.247,18.566-1.607-1.762-6.95,2.013-13.591,7.57-15.236,4.046-1.22,8.751.349,11.945,3.853a24.2,24.2,0,0,1-2.439,11,20.644,20.644,0,0,1-5.3,6.679,22.032,22.032,0,0,1-23.232,2.652c0,.426-.174,7.938-6.292,11.616A12.585,12.585,0,0,1,505.448,306.346Z" transform="translate(605.851 79.858)"/>
        <path id="Path_19750" data-name="Path 19750" class="cls-5" d="M536.558,276.24a68.389,68.389,0,0,1,1.955,26.194c-3.059,25.381-20.27,42.437-25.4,46.929-2.73.619-5.479,1.142-8.247,1.587,3.5-3.949,13.552-16.669,13.32-35.274a52.5,52.5,0,0,0-10.164-30.1,22.032,22.032,0,0,0,23.232-2.652A20.644,20.644,0,0,0,536.558,276.24Z" transform="translate(616.354 87.235)"/>
        <path id="Path_19751" data-name="Path 19751" class="cls-6" d="M535.989,199.281a11.8,11.8,0,0,1-9.351,20.657,14.1,14.1,0,0,1,10.648,13.223,13.858,13.858,0,0,1-6.815,11.81,14.57,14.57,0,0,1-6.408,2.072,14.74,14.74,0,0,1-28.227-1.607q1.51-5.808,3.427-11.422,2.207-6.563,4.937-12.816a160.076,160.076,0,0,1,21.974-36.416A51.515,51.515,0,0,0,535.989,199.281Z" transform="translate(606.35 1.629)"/>
        <path id="Path_19752" data-name="Path 19752" class="cls-9" d="M543.366,156.1c-2.11,1.394-20.889,14.249-22.3,38.275a47.766,47.766,0,0,0,4.375,22.922,160.076,160.076,0,0,0-21.974,36.416,37.962,37.962,0,0,1-6.6-17.23c-1.646-14.191,5.537-24.665,7.512-27.356-5.614-4.724-7.357-12.139-4.608-17.656,2.672-5.363,8.5-6.8,9.448-7.008-6.292-10.261-3.64-23.542,5.556-30.26A22.773,22.773,0,0,1,543.366,156.1Z" transform="translate(607.557 -30.893)"/>
        <path id="Path_19753" data-name="Path 19753" class="cls-10" d="M509.626,272.455c.852-3.465,2.962-8.809,8.247-11.964,7.182-4.3,17.269-2.827,24.2,4.046-.213.116-.426.252-.639.387-9.157,6.06-11.655,19.244-4.84,28.711-6.486-3.64-14.113-2.827-18.566,1.607-4.124,4.143-3.93,9.854-3.872,10.977a8.252,8.252,0,0,0-6.776-.813,8.074,8.074,0,0,0-5.227,6.389c-4.588,4.1-11.151,3.233-13.8-.5-1.955-2.749-1.742-7.047.716-10.4-3.6-4.7-3.156-11.055.5-14.52a10.582,10.582,0,0,1,10.88-1.936,7.8,7.8,0,0,1,9.177-11.984Z" transform="translate(596.154 70.228)"/>
        <path id="Path_19754" data-name="Path 19754" class="cls-9" d="M538.151,222.806l.406.5a35.7,35.7,0,0,1-7.57,11.848c-9.835,10.164-24.239,12.468-32.97,7.086-6.2-3.833-10.2-11.984-10.377-21.335a35.645,35.645,0,0,1,1.975-12.448,13.3,13.3,0,0,0,1.142.929c6.95,5.13,15.217,2.749,16.166,2.459h.019q-1.917,5.6-3.427,11.422a14.74,14.74,0,0,0,28.227,1.607A14.57,14.57,0,0,0,538.151,222.806Z" transform="translate(596.978 23.793)"/>
        <path id="Path_19755" data-name="Path 19755" class="cls-7" d="M535.839,311.165c.232,18.6-9.815,31.325-13.32,35.274-4.24.716-8.538,1.239-12.855,1.568a150.821,150.821,0,0,1-23.658,0c16.688-4.55,28.963-17.289,31.111-32.331a36.886,36.886,0,0,0-3.6-21.219,12.585,12.585,0,0,0,5.866-1.781c6.118-3.678,6.292-11.19,6.292-11.616A52.5,52.5,0,0,1,535.839,311.165Z" transform="translate(594.88 91.747)"/>
        <path id="Path_19756" data-name="Path 19756" class="cls-8" d="M494.387,261.423c-5.3-4.7-7.376-12.6-4.995-20.038-.678-.368-4.608-2.536-5.479-6.776-.755-3.7,1.026-7.821,4.627-10.512l-.174-1.839c.29-.039.581-.058.871-.077a13.5,13.5,0,0,1,6.776-25.168,29.6,29.6,0,0,1,22.07-44.915,31.439,31.439,0,0,1,9.874.387c-9.2,6.718-11.848,20-5.556,30.26-.949.213-6.776,1.646-9.448,7.008-2.749,5.518-1.007,12.932,4.608,17.656-1.975,2.691-9.157,13.165-7.512,27.356a37.961,37.961,0,0,0,6.6,17.23q-2.73,6.244-4.937,12.816h-.019c-.949.29-9.215,2.672-16.166-2.459A13.3,13.3,0,0,1,494.387,261.423Z" transform="translate(590.193 -29.17)"/>
        <path id="Path_19757" data-name="Path 19757" class="cls-8" d="M536.239,125.2a22.716,22.716,0,0,0-26.368,33.028v.019a29.859,29.859,0,0,0-11.79,7.376c-8.906,9.041-12.623,23.464-7.647,35.719A44.563,44.563,0,0,1,536.239,125.2Z" transform="translate(578.902 -58.51)"/>
        <path id="Path_19758" data-name="Path 19758" class="cls-9" d="M496.187,129.328a23.137,23.137,0,0,1,23.019-5.944c-3.64,6.06-9.544,17.366-10.938,31.344a37.18,37.18,0,0,0-15.43,1.7v-.019A23.322,23.322,0,0,1,496.187,129.328Z" transform="translate(597.7 -56.698)"/>
        <path id="Path_19759" data-name="Path 19759" class="cls-8" d="M523.3,253.8a15.983,15.983,0,0,0-1.781,13.2c-5.285,3.156-7.4,8.5-8.247,11.964a7.8,7.8,0,0,0-9.177,11.984,10.582,10.582,0,0,0-10.88,1.936c-3.659,3.465-4.1,9.816-.5,14.52a11.758,11.758,0,0,1-9.912-9.428c-.891-5.769,3.349-11.829,9.912-13.087a23.152,23.152,0,0,1,2.439-26.136C501.911,250.953,513.643,248.8,523.3,253.8Z" transform="translate(589.907 63.716)"/>
        <path id="Path_19760" data-name="Path 19760" class="cls-7" d="M586.326,384.706c-3.446.039-6.892,0-10.358-.116h-.019a276.036,276.036,0,0,1-107.7-25.652,286.185,286.185,0,0,1-60.384-37.868,600.3,600.3,0,0,1,102.085-2.614A673.573,673.573,0,0,1,586.326,384.706Z" transform="translate(511.1 125.751)"/>
        <path id="Path_19761" data-name="Path 19761" class="cls-9" d="M531.362,155.636a55.276,55.276,0,0,0,2.226,8.48,29.6,29.6,0,0,0-22.07,44.915,13.5,13.5,0,0,0-6.776,25.168c-.29.019-.581.039-.871.077a26.045,26.045,0,0,0-17.4,9.428,30.724,30.724,0,0,1,9.409-59.687c-4.975-12.255-1.258-26.678,7.647-35.719a29.859,29.859,0,0,1,11.79-7.376,37.18,37.18,0,0,1,15.43-1.7A58.494,58.494,0,0,0,531.362,155.636Z" transform="translate(572.078 -41.188)"/>
        <path id="Path_19762" data-name="Path 19762" class="cls-6" d="M507.379,239.529a24.837,24.837,0,0,1-19.844-3.814c-7.279-5.285-10.919-14.733-9.661-24.355a26.012,26.012,0,0,0,14.985,6.931l4.143-.1C497.177,227.545,501.184,235.7,507.379,239.529Z" transform="translate(582.684 26.508)"/>
        <path id="Path_19763" data-name="Path 19763" class="cls-3" d="M911.137,395.724a627.755,627.755,0,0,0,65.011,43.792c-25.768,4.22-52.6,9.641-80.344,16.533A1020.359,1020.359,0,0,0,590.168,588.182c-38.275,9.39-77.75,15.217-120.787,15.217a495.135,495.135,0,0,1-54.324-3.04c-86.965-9.6-240.567-71.516-375.681-186.34V414c10.629,1.413,20.831,2.343,30.608,2.846l-.019.349c50.956,31.092,118.812,63.423,202.448,81.447C536.7,555.6,755.231,425.674,816.6,386.18A765.162,765.162,0,0,0,911.137,395.724Z" transform="translate(36.864 190.139)"/>
        <path id="Path_19764" data-name="Path 19764" class="cls-6" d="M494.917,218.148a35.645,35.645,0,0,0-1.975,12.448l-4.143.1c-.658-.678-9-9.583-6.292-20.967a21.855,21.855,0,0,1,7.415-11.616C487.541,205.544,489.612,213.443,494.917,218.148Z" transform="translate(586.378 14.106)"/>
        <path id="Path_19765" data-name="Path 19765" class="cls-9" d="M479.421,197.658a26.045,26.045,0,0,1,17.4-9.428l.174,1.839c-3.6,2.691-5.382,6.815-4.627,10.512.871,4.24,4.8,6.408,5.479,6.776a21.855,21.855,0,0,0-7.415,11.616c-2.71,11.384,5.634,20.289,6.292,20.967a25.925,25.925,0,0,1-17.308-42.282Z" transform="translate(577.133 4.858)"/>
        <path id="Path_19766" data-name="Path 19766" class="cls-3" d="M546.756,364.5a597.057,597.057,0,0,1-64.72,17.966,247.559,247.559,0,0,1-42.979-43.618A276.036,276.036,0,0,0,546.756,364.5Z" transform="translate(542.856 145.838)"/>
        <path id="Path_19767" data-name="Path 19767" class="cls-3" d="M491.895,378.088q-8.451,1.481-16.688,3.117-10.28-8.538-20.56-17.172c4.337-.852,8.615-1.742,12.8-2.652A214.522,214.522,0,0,0,491.895,378.088Z" transform="translate(555.33 166.926)"/>
        <path id="Path_19768" data-name="Path 19768" class="cls-7" d="M500.5,372.917c2.168-.426,4.356-.871,6.563-1.3,15.585,12.932,31.228,25.613,47.238,37.733a765.162,765.162,0,0,1-94.535-9.544q-19.892-3.223-39.146-7.241C445.784,385.327,472.288,378.648,500.5,372.917Z" transform="translate(522.547 176.511)"/>
        <path id="Path_19769" data-name="Path 19769" class="cls-7" d="M481.955,379.922c-2.207.426-4.395.871-6.563,1.3-9.912-5.266-19.224-10.609-27.956-15.914q7.115-1.22,13.959-2.556Q471.7,371.375,481.955,379.922Z" transform="translate(546.278 168.209)"/>
        <path id="Path_19770" data-name="Path 19770" class="cls-5" d="M479.738,283.117q8.8,3.427,17.85,7.3,25.033,10.658,51.943,24.645c4.414,2.3,8.886,4.685,13.378,7.124q17.6,9.583,35.99,20.677,13.678,8.247,27.782,17.385,17.8,11.529,36.319,24.529-12.342-1.249-24.161-1.936A667.1,667.1,0,0,0,270.166,251.347a352.787,352.787,0,0,1,84.274-.445,108.468,108.468,0,0,0,34.306,5.266c14.481,2.807,29.582,6.5,45.361,11.19C448.743,271.714,463.94,276.922,479.738,283.117Z" transform="translate(355.889 61.366)"/>
        <path id="Path_19771" data-name="Path 19771" class="cls-4" d="M449.764,338.85a247.559,247.559,0,0,0,42.979,43.618c-4.182.91-8.46,1.8-12.8,2.652-17.172-14.4-34.461-28.943-52.33-43.211Q439.261,340.486,449.764,338.85Z" transform="translate(524.768 145.838)"/>
        <path id="Path_19772" data-name="Path 19772" class="cls-4" d="M546.954,297.626a667.752,667.752,0,0,1,149.421,83.887,600.3,600.3,0,0,0-102.085,2.614,302.46,302.46,0,0,1-24.761-22.612c-23.852-10.88-52.562-22.012-84.429-29.679a520.884,520.884,0,0,0-112.714-35.506A584.854,584.854,0,0,0,208.7,287.888c25.575-12.313,52.253-23.484,82.048-30.918a320.281,320.281,0,0,1,36.958-6.95A669.767,669.767,0,0,1,546.954,297.626Z" transform="translate(282.743 62.693)"/>
        <path id="Path_19773" data-name="Path 19773" class="cls-3" d="M477.21,238.62c14.539,59.416-14.772,105.822-19.844,113.585q-18.382-11.122-35.99-20.677l.232-.445q5.343-8.393,9.835-16.979c23.948-14.423,40.714-38.41,44.857-65.824A85.765,85.765,0,0,0,477.21,238.62Z" transform="translate(516.645 52.023)"/>
        <path id="Path_19774" data-name="Path 19774" class="cls-6" d="M454.26,222.048a93.147,93.147,0,0,1,15.275,54.479,146.7,146.7,0,0,0-30.879-59.745,111.755,111.755,0,0,0-9.08-18.682,104.048,104.048,0,0,1,9.757,6.04l.058.039A98.14,98.14,0,0,1,454.26,222.048Z" transform="translate(524.95 14.096)"/>
        <path id="Path_19775" data-name="Path 19775" class="cls-4" d="M472.343,267.495v.019a85.766,85.766,0,0,1-.91,9.661c-4.143,27.414-20.909,51.4-44.857,65.824,24.355-46.367,29.834-95.813,14.888-135.249A146.7,146.7,0,0,1,472.343,267.495Z" transform="translate(521.782 23.129)"/>
        <path id="Path_19776" data-name="Path 19776" class="cls-3" d="M532.3,364.07c8.731,5.3,18.044,10.648,27.956,15.914-28.208,5.731-54.711,12.41-79.879,19.65-42.2-8.731-82.57-19.883-123.614-31.363a605.312,605.312,0,0,0,146.458.058Q518.238,366.5,532.3,364.07Z" transform="translate(449.336 169.444)"/>
        <path id="Path_19777" data-name="Path 19777" class="cls-5" d="M491.281,383.642q-6.853,1.336-13.959,2.556a582.065,582.065,0,0,1-61.816-43.25q12.226-1.1,23.445-2.517C456.82,354.7,474.109,369.238,491.281,383.642Z" transform="translate(510.843 147.317)"/>
        <path id="Path_19778" data-name="Path 19778" class="cls-8" d="M463.978,228.641a104.048,104.048,0,0,0-9.757-6.04c-1.123-1.859-2.3-3.678-3.543-5.479a114.615,114.615,0,0,0-34.519-32.312,135.676,135.676,0,0,0-12.913-7.047c11.209-7.976,25.42-7.589,33.88,0,8.034,7.183,7.8,18.063,7.744,19.844a12.089,12.089,0,0,1,18.392,13.068,19.824,19.824,0,0,1,24.2,11.132c3.407,8.383-.755,19.457-8.557,24.742a98.14,98.14,0,0,0-14.868-17.869Z" transform="translate(496.605 -10.404)"/>
        <path id="Path_19779" data-name="Path 19779" class="cls-7" d="M433.515,341.73a582.065,582.065,0,0,0,61.816,43.25q-14.055,2.41-29.079,4.259-36.3-25.207-69.986-45.07Q415.839,343.385,433.515,341.73Z" transform="translate(489.191 148.534)"/>
        <path id="Path_19780" data-name="Path 19780" class="cls-7" d="M445.8,214.162c14.946,39.436,9.467,88.882-14.888,135.249a92.331,92.331,0,0,1-8.964,4.8v-.019c9.2-16.03,26.891-52.214,23.813-99.491a171.466,171.466,0,0,0-12.487-53.8A157.32,157.32,0,0,1,445.8,214.162Z" transform="translate(514.955 16.717)"/>
        <path id="Path_19781" data-name="Path 19781" class="cls-3" d="M477.873,263.79c3.078,47.277-14.617,83.461-23.813,99.491v.019a99.239,99.239,0,0,1-14.481,5.5q-26.92-14.026-51.943-24.645c20.444-10.513,35.739-27.433,43.5-46.832l.465.194c2.3-3.1,20.986-29.079,11.751-60.984-6.582-22.729-23.309-34.693-28.362-38.023a19.905,19.905,0,0,0,1.9-7.318,105.52,105.52,0,0,1,31.015,4.55h.019a143.642,143.642,0,0,1,17.463,14.23v.019A171.466,171.466,0,0,1,477.873,263.79Z" transform="translate(477.817 7.628)"/>
        <path id="Path_19782" data-name="Path 19782" class="cls-5" d="M426.791,196.328a105.983,105.983,0,0,1,12.894,6.04,111.755,111.755,0,0,1,9.08,18.682,157.32,157.32,0,0,0-12.526-13.262v-.019a143.642,143.642,0,0,0-17.463-14.23C421.6,194.411,424.294,195.34,426.791,196.328Z" transform="translate(510.907 9.828)"/>
        <path id="Path_19783" data-name="Path 19783" class="cls-6" d="M445.118,210.892c1.239,1.8,2.42,3.62,3.543,5.479a105.983,105.983,0,0,0-12.894-6.04c-.29-2.381-1.588-8.983-7.841-12.429a15.82,15.82,0,0,0-13.049-.7c.465-1.1,2.323-5.808.232-10.416a12.322,12.322,0,0,0-5.924-5.885l1.413-2.323A114.615,114.615,0,0,1,445.118,210.892Z" transform="translate(499.988 -4.174)"/>
        <path id="Path_19784" data-name="Path 19784" class="cls-5" d="M424.77,330.223a286.185,286.185,0,0,0,60.384,37.868q-10.512,1.626-22.148,3.059c-23.135-18.45-47.219-36.436-73.2-53.027,4.608-4.55,8.015-8.17,10.2-10.513A302.46,302.46,0,0,0,424.77,330.223Z" transform="translate(480.897 116.598)"/>
        <path id="Path_19785" data-name="Path 19785" class="cls-4" d="M428.947,282.411a92.331,92.331,0,0,0,8.964-4.8q-4.472,8.567-9.835,16.979l-.232.445c-4.492-2.439-8.964-4.821-13.378-7.124A99.239,99.239,0,0,0,428.947,282.411Z" transform="translate(505.11 88.518)"/>
        <path id="Path_19786" data-name="Path 19786" class="cls-11" d="M449.744,201.932c6.253,3.446,7.55,10.048,7.841,12.429-2.5-.987-5.188-1.917-8.015-2.788h-.019a105.52,105.52,0,0,0-31.015-4.55h-.019a131.719,131.719,0,0,0-31.925-9.486,18.156,18.156,0,0,1,33.4-13.746A16.938,16.938,0,0,1,431,184.934a12.322,12.322,0,0,1,5.924,5.885c2.091,4.608.232,9.312-.232,10.416A15.82,15.82,0,0,1,449.744,201.932Z" transform="translate(474.082 -8.205)"/>
        <path id="Path_19787" data-name="Path 19787" class="cls-5" d="M762.668,382.44q19.283,4.008,39.146,7.241C740.443,429.175,521.907,559.1,257.624,502.143,173.988,484.119,106.132,451.788,55.176,420.7l.019-.349q13.155.726,25.3.484c83.868,47.355,157.92,65.747,217.142,72.29C474.843,512.675,586.047,433.318,762.668,382.44Z" transform="translate(51.652 186.638)"/>
        <path id="Path_19788" data-name="Path 19788" class="cls-5" d="M433.994,232.993c9.235,31.905-9.448,57.886-11.751,60.984l-.465-.194a77.933,77.933,0,0,0,5.6-34.016c-2.052-32.641-24.7-52.93-29.737-57.209a14.715,14.715,0,0,0,2.633-1.355,15.093,15.093,0,0,0,5.363-6.234C410.685,198.3,427.412,210.264,433.994,232.993Z" transform="translate(485.829 11.167)"/>
        <path id="Path_19789" data-name="Path 19789" class="cls-3" d="M480.163,366.067q-11.209,1.394-23.445,2.517-17.656,1.626-37.249,2.439-24.684-14.578-47.993-26.543a438.03,438.03,0,0,0,35.487-31.441C432.944,329.632,457.028,347.617,480.163,366.067Z" transform="translate(459.382 121.68)"/>
        <path id="Path_19790" data-name="Path 19790" class="cls-7" d="M445.363,257.381a77.933,77.933,0,0,1-5.6,34.016c-7.763,19.4-23.058,36.319-43.5,46.832q-9.06-3.862-17.85-7.3c9.951-4.608,37.036-19.844,45.651-52.253,7.705-28.982-2.323-60.461-25.633-81.157,5.285,3.853,11.868,4.763,17.192,2.652C420.66,204.451,443.311,224.74,445.363,257.381Z" transform="translate(464.548 13.553)"/>
        <path id="Path_19791" data-name="Path 19791" class="cls-6" d="M426.923,186.2l-1.413,2.323a16.938,16.938,0,0,0-11.016-1.142,18.279,18.279,0,0,0-22.748-8.228,11.468,11.468,0,0,1,22.264,0A135.676,135.676,0,0,1,426.923,186.2Z" transform="translate(478.338 -11.793)"/>
        <path id="Path_19792" data-name="Path 19792" class="cls-6" d="M415.909,198.508a15.093,15.093,0,0,1-5.363,6.234,14.715,14.715,0,0,1-2.633,1.355c-5.324,2.11-11.906,1.2-17.192-2.652q-1.191-1.075-2.439-2.091l-1.626-5.324a106.335,106.335,0,0,1,31.131-4.84h.019A19.905,19.905,0,0,1,415.909,198.508Z" transform="translate(471.811 7.629)"/>
        <path id="Path_19793" data-name="Path 19793" class="cls-4" d="M420.5,198.531c23.309,20.7,33.338,52.175,25.633,81.157-8.615,32.409-35.7,47.645-45.651,52.253-15.8-6.2-31-11.4-45.631-15.759,3.717-1.258,38.2-13.552,48.206-47.142a67.041,67.041,0,0,0,.774-34.461,112.051,112.051,0,0,0,5.479-29.369,29.8,29.8,0,0,0,8.751-8.77A20.514,20.514,0,0,0,420.5,198.531Z" transform="translate(437.651 12.543)"/>
        <path id="Path_19794" data-name="Path 19794" class="cls-4" d="M531.669,388.734a605.312,605.312,0,0,1-146.458-.058c-19.36-5.4-38.875-10.9-58.835-16.243a473.124,473.124,0,0,0,52.717-30.163,727.73,727.73,0,0,0,82.59,1.394Q495.4,363.614,531.669,388.734Z" transform="translate(411.214 149.039)"/>
        <path id="Path_19795" data-name="Path 19795" class="cls-3" d="M435.895,321.959c-2.188,2.343-5.6,5.963-10.2,10.513a564.649,564.649,0,0,0-74.226-40.191C383.333,299.947,412.043,311.079,435.895,321.959Z" transform="translate(432.763 102.249)"/>
        <path id="Path_19796" data-name="Path 19796" class="cls-10" d="M387.5,196.44q1.249,1.016,2.439,2.091A20.514,20.514,0,0,1,387.5,196.44Z" transform="translate(470.655 12.543)"/>
        <path id="Path_19797" data-name="Path 19797" class="cls-11" d="M431.318,187.074a131.719,131.719,0,0,1,31.925,9.486,106.335,106.335,0,0,0-31.131,4.84,112.128,112.128,0,0,0-27.433,12.836c1.433,1.82,2.768,3.678,4.008,5.6a32.837,32.837,0,0,1-17.54-6.815,16.687,16.687,0,0,1-28.556,10.648,13.26,13.26,0,0,1-23.716-11.616,114.258,114.258,0,0,1,37.907-21.141,111.326,111.326,0,0,1,30.434-5.363A119.017,119.017,0,0,1,431.318,187.074Z" transform="translate(419.361 2.258)"/>
        <path id="Path_19798" data-name="Path 19798" class="cls-6" d="M399.919,193.69l1.626,5.324a29.8,29.8,0,0,1-8.751,8.77,26.68,26.68,0,0,1-16.3,4.337c-1.239-1.917-2.575-3.775-4.008-5.6A112.128,112.128,0,0,1,399.919,193.69Z" transform="translate(454.365 9.969)"/>
        <path id="Path_19799" data-name="Path 19799" class="cls-8" d="M444.028,185.989a44.793,44.793,0,0,0-23.561,8.383,43.405,43.405,0,0,0-11.19,12.061,111.326,111.326,0,0,0-30.434,5.363,114.258,114.258,0,0,0-37.907,21.141c-6.97-10.687-6.64-24.258.484-33.4,8.751-11.229,26.349-14.017,39.688-4.84.678-16.669,13.629-30.144,29.524-31.46C425.288,162.022,439.324,171.411,444.028,185.989Z" transform="translate(415.333 -18.631)"/>
        <path id="Path_19800" data-name="Path 19800" class="cls-12" d="M384.986,183.323a44.793,44.793,0,0,1,23.561-8.383A18.288,18.288,0,0,0,397.9,196.914a119.017,119.017,0,0,0-24.1-1.529A43.405,43.405,0,0,1,384.986,183.323Z" transform="translate(456.389 -7.581)"/>
        <path id="Path_19801" data-name="Path 19801" class="cls-7" d="M436.2,355.823a727.73,727.73,0,0,1-82.59-1.394c12.991-8.576,24.549-17.114,34.6-25.149Q411.521,341.274,436.2,355.823Z" transform="translate(435.258 136.881)"/>
        <path id="Path_19802" data-name="Path 19802" class="cls-5" d="M390.857,200.97a112.051,112.051,0,0,1-5.479,29.369,78.513,78.513,0,0,0-10.822-25.032,26.68,26.68,0,0,0,16.3-4.337Z" transform="translate(455.945 16.783)"/>
        <path id="Path_19803" data-name="Path 19803" class="cls-7" d="M425.757,216.14a67.041,67.041,0,0,1-.774,34.461c-10.009,33.59-44.489,45.883-48.206,47.142-15.778-4.685-30.879-8.383-45.361-11.19a98.76,98.76,0,0,0,50.975-14.017C407.675,257.3,419.872,234.455,425.757,216.14Z" transform="translate(408.927 30.982)"/>
        <path id="Path_19804" data-name="Path 19804" class="cls-7" d="M508.715,337.262A438.03,438.03,0,0,1,473.229,368.7c-82.009-42.166-151.666-61.139-210.463-66.385q9.293-3.253,19.321-5.9c54.034-14.288,106.5-10.4,152.4.658A564.649,564.649,0,0,1,508.715,337.262Z" transform="translate(333.94 97.458)"/>
        <path id="Path_19805" data-name="Path 19805" class="cls-7" d="M626.811,374.093c41.043,11.481,81.409,22.632,123.614,31.363C573.8,456.334,462.6,535.691,285.4,516.137c-59.222-6.544-133.274-24.936-217.142-72.29a312.441,312.441,0,0,0,89.366-14.191c36.068-11.364,64.953-27.859,90.314-46.677A427.814,427.814,0,0,0,379.6,402.552c74.749-.581,138.076-20.134,188.373-44.7C587.936,363.193,607.451,368.692,626.811,374.093Z" transform="translate(63.895 163.622)"/>
        <path id="Path_19806" data-name="Path 19806" class="cls-4" d="M279.557,300.179q6.621-2.759,13.629-5.189c58.8,5.247,128.454,24.219,210.463,66.385-10.048,8.034-21.606,16.572-34.6,25.149a716.8,716.8,0,0,1-74.265-9.351,726.4,726.4,0,0,1-164.521-50.2A267.366,267.366,0,0,1,279.557,300.179Z" transform="translate(294.433 104.785)"/>
        <path id="Path_19807" data-name="Path 19807" class="cls-7" d="M497.226,371.061a473.124,473.124,0,0,1-52.717,30.163c-71.9-19.263-149.208-36.571-244.343-41.585,18.353-17.114,37.074-33.686,58.274-48.129a726.4,726.4,0,0,0,164.521,50.2A716.8,716.8,0,0,0,497.226,371.061Z" transform="translate(257.352 120.248)"/>
        <path id="Path_19808" data-name="Path 19808" class="cls-5" d="M348,255.056A108.468,108.468,0,0,1,313.7,249.79C324.712,251.01,336.134,252.733,348,255.056Z" transform="translate(382.983 62.478)"/>
        <path id="Path_19809" data-name="Path 19809" class="cls-5" d="M119.2,407.552a487.471,487.471,0,0,1-43.057-32.97,378.224,378.224,0,0,0,48.264-4.453c101.756-15.991,168.935-68.864,196.62-93.7q5.837-2.9,11.732-5.731a584.854,584.854,0,0,1,163.689,8.441,520.884,520.884,0,0,1,112.714,35.506c-45.9-11.055-98.368-14.946-152.4-.658q-10.019,2.643-19.321,5.9c-46.89-4.162-86.868.407-120.71,8.944-73.278,18.45-128.492,58.2-190.038,83.732C124.139,410.9,121.642,409.217,119.2,407.552Z" transform="translate(71.28 79.885)"/>
        <path id="Path_19810" data-name="Path 19810" class="cls-4" d="M506.241,598.055v3.136H0V391.89a479.778,479.778,0,0,0,76.24,16.766v.019C211.349,523.5,364.951,585.413,451.916,595.015A495.135,495.135,0,0,0,506.241,598.055Z" transform="translate(0.004 195.484)"/>
        <path id="Path_19811" data-name="Path 19811" class="cls-4" d="M147.868,377.889c-14.83,4.8-28.943,9.022-42.2,12.739-1.142-.736-2.284-1.471-3.407-2.207,61.545-25.536,116.76-65.282,190.038-83.732,33.841-8.538,73.82-13.107,120.71-8.944q-7,2.439-13.629,5.189a322.921,322.921,0,0,0-47.064,4.395c-60.171,10.125-89.288,32.447-176.834,63.249Q161.3,373.542,147.868,377.889Z" transform="translate(95.719 104.031)"/>
        <path id="Path_19812" data-name="Path 19812" class="cls-3" d="M330.258,302.065a322.922,322.922,0,0,1,47.064-4.395,267.367,267.367,0,0,0-49.291,26.794c-21.2,14.443-39.92,31.015-58.274,48.129q-25.933-1.394-53.724-1.471c-31.189-.077-61.294,1.2-90.218,3.5q13.417-4.327,27.607-9.312C240.969,334.512,270.087,312.19,330.258,302.065Z" transform="translate(160.095 107.294)"/>
        <path id="Path_19813" data-name="Path 19813" class="cls-3" d="M481.106,377.955c-50.3,24.568-113.624,44.121-188.373,44.7a427.814,427.814,0,0,1-131.667-19.573c27.859-20.676,51.459-44.16,75.7-66.715C331.9,341.384,409.2,358.692,481.106,377.955Z" transform="translate(208.227 143.517)"/>
        <path id="Path_19814" data-name="Path 19814" class="cls-7" d="M290.162,337.083c-24.239,22.554-47.839,46.038-75.7,66.715a458.574,458.574,0,0,1-110.449-51.943c13.262-3.717,27.375-7.938,42.2-12.739,28.924-2.3,59.029-3.582,90.218-3.5Q264.259,335.67,290.162,337.083Z" transform="translate(97.367 142.804)"/>
        <path id="Path_19815" data-name="Path 19815" class="cls-3" d="M203.977,331.491c8.383-2.013,16.533-4.356,24.471-6.97,4.956-1.626,9.816-3.349,14.617-5.169q10.106-3.8,19.883-8.092c7.512-3.253,14.907-6.679,22.245-10.222,4.55-2.188,9.08-4.433,13.591-6.7,14.326-7.163,28.556-14.6,43.018-21.8-27.685,24.839-94.864,77.711-196.62,93.7A378.224,378.224,0,0,1,96.916,370.7a414.883,414.883,0,0,1-42.96-42.263,322.171,322.171,0,0,0,67.992,10.706q6.97.319,13.688.349a282.806,282.806,0,0,0,48.013-3.853C190.6,334.492,197.356,333.1,203.977,331.491Z" transform="translate(50.511 83.772)"/>
        <path id="Path_19816" data-name="Path 19816" class="cls-4" d="M175.371,272.434c3.833,4.3,9,11.732,11.616,23.6-4.511,2.265-9.041,4.511-13.591,6.7a35.406,35.406,0,0,0,4.066-16.437,34.935,34.935,0,0,0-3.717-15.565C174.325,271.272,174.848,271.853,175.371,272.434Z" transform="translate(210.987 82.078)"/>
        <path id="Path_19817" data-name="Path 19817" class="cls-3" d="M190.706,293.39a35.406,35.406,0,0,1-4.066,16.437c-7.337,3.543-14.733,6.97-22.245,10.222a50.022,50.022,0,0,0-5.15-56.9c11.016,2.459,20.6,7.376,27.743,14.675A34.935,34.935,0,0,1,190.706,293.39Z" transform="translate(194.333 74.983)"/>
        <path id="Path_19818" data-name="Path 19818" class="cls-4" d="M164.1,269.147a41.562,41.562,0,0,0-6.815-6.737,71.641,71.641,0,0,1,9.08,1.433,50.022,50.022,0,0,1,5.15,56.9q-9.787,4.269-19.883,8.092c16.882-11.4,24.181-31.731,18.6-48.458A36.7,36.7,0,0,0,164.1,269.147Z" transform="translate(184.894 74.29)"/>
        <path id="Path_19819" data-name="Path 19819" class="cls-5" d="M177.308,277.119c5.576,16.727-1.723,37.055-18.6,48.458-4.8,1.82-9.661,3.543-14.617,5.169a50.48,50.48,0,0,0,18.392-20.889h.019a32.526,32.526,0,0,0,8.673-43.966A36.7,36.7,0,0,1,177.308,277.119Z" transform="translate(175.937 77.548)"/>
        <path id="Path_19820" data-name="Path 19820" class="cls-6" d="M168.222,269.346a32.526,32.526,0,0,1-8.673,43.966,41.928,41.928,0,0,0,3.678-23.774C161,274.3,150.488,265.067,147.236,262.415a82.034,82.034,0,0,1,14.172.194A41.562,41.562,0,0,1,168.222,269.346Z" transform="translate(179.518 74.092)"/>
        <path id="Path_19821" data-name="Path 19821" class="cls-3" d="M174.309,313.207A50.48,50.48,0,0,1,155.917,334.1c-7.938,2.614-16.088,4.956-24.471,6.97,9.428-5.266,16.166-13.01,19.573-21.18,1.123-1.529,10.551-14.83,5.692-31.421-4.22-14.423-16.146-20.754-18.218-21.819,2.5-.755,5.014-1.413,7.492-1.975a98.668,98.668,0,0,1,16.03-2.362c3.253,2.652,13.765,11.887,15.991,27.123a41.928,41.928,0,0,1-3.678,23.774Z" transform="translate(160.822 74.197)"/>
        <path id="Path_19822" data-name="Path 19822" class="cls-12" d="M162.437,266.835a98.664,98.664,0,0,0-16.03,2.362v-.019a7.718,7.718,0,0,0-6.331-5.731,7.43,7.43,0,0,0-5.324,1.7A5.054,5.054,0,0,0,131,260.8c1.258-.484,2.517-.929,3.775-1.3a46.988,46.988,0,0,1,14.539-2.013,45.756,45.756,0,0,1,27.3,9.544A82.034,82.034,0,0,0,162.437,266.835Z" transform="translate(160.235 69.671)"/>
        <path id="Path_19823" data-name="Path 19823" class="cls-5" d="M158.948,286.369c4.859,16.592-4.569,29.892-5.692,31.421a29.191,29.191,0,0,0,1.975-17.308c-3.678-17.192-25.052-24.413-26.175-24.761a5.013,5.013,0,0,0,4.976-2.188,5.08,5.08,0,0,0-1.045-6.35c2.594-.968,5.169-1.859,7.744-2.633C142.8,265.615,154.727,271.946,158.948,286.369Z" transform="translate(120.804 76.293)"/>
        <path id="Path_19824" data-name="Path 19824" class="cls-7" d="M162.822,295.081a29.191,29.191,0,0,1-1.975,17.308c-3.407,8.17-10.145,15.914-19.573,21.18-6.621,1.607-13.378,3-20.328,4.143,12.991-7.182,21.257-20.115,21.393-33.919.135-12.7-6.679-21.78-9.525-25.11a9.532,9.532,0,0,0,1.413-1.239,9.145,9.145,0,0,0,.794-.968,9.755,9.755,0,0,0,1.626-6.156C137.77,270.669,159.143,277.89,162.822,295.081Z" transform="translate(113.213 81.694)"/>
        <path id="Path_19825" data-name="Path 19825" class="cls-9" d="M147.513,259.505a46.987,46.987,0,0,0-14.539,2.013l-.058-.174a8.26,8.26,0,0,1,8.015-6.021C145.132,255.478,147.378,259.253,147.513,259.505Z" transform="translate(124.417 67.651)"/>
        <path id="Path_19826" data-name="Path 19826" class="cls-11" d="M139.958,272.265a5.08,5.08,0,0,1,1.045,6.35,5.013,5.013,0,0,1-4.976,2.188,9.755,9.755,0,0,1-1.626,6.156l-.116-.077a10.515,10.515,0,0,0-9.39-2.575c-.368-.445-4.743-5.866-2.788-12.584a13.858,13.858,0,0,1,11.984-9.68,4.95,4.95,0,0,1,9.448,1.568,7.431,7.431,0,0,1,5.324-1.7,7.718,7.718,0,0,1,6.331,5.731v.019c-2.478.561-4.995,1.22-7.492,1.975C145.127,270.406,142.552,271.3,139.958,272.265Z" transform="translate(113.832 71.212)"/>
        <path id="Path_19827" data-name="Path 19827" class="cls-9" d="M152.225,259.675l.058.174c-1.258.368-2.517.813-3.775,1.3a5.052,5.052,0,0,0-5.692,2.788,13.858,13.858,0,0,0-11.984,9.68c-1.955,6.718,2.42,12.139,2.788,12.584a10.482,10.482,0,0,0-7.047,6.408,4.957,4.957,0,0,0-7.918,5.324,3.611,3.611,0,0,0-2.73-.968,3.282,3.282,0,0,0-2.11,1.142,7.161,7.161,0,0,1,.445-7.318c-2.478-2.517-2.556-6.311-.6-8.46a5.994,5.994,0,0,1,6.176-1.452c-3.194-7.279-.736-15.236,4.84-18.508,5.924-3.5,12.72-.136,13.184.116a8.785,8.785,0,0,1,4.24-4.608A9.442,9.442,0,0,1,152.225,259.675Z" transform="translate(105.109 69.321)"/>
        <path id="Path_19828" data-name="Path 19828" class="cls-4" d="M156.026,274.64c2.846,3.33,9.661,12.41,9.525,25.11-.136,13.8-8.4,26.736-21.393,33.919a282.806,282.806,0,0,1-48.013,3.853v-.039c33.841,0,57.673-17,59.571-34.829.29-2.865.62-11.287-7.841-22.128a5.994,5.994,0,0,0-.232-4.569A9.9,9.9,0,0,0,156.026,274.64Z" transform="translate(90 85.738)"/>
        <path id="Path_19829" data-name="Path 19829" class="cls-6" d="M132.029,283.01c-1.2,2.788-5.46,4.395-10.145,2.923a6.528,6.528,0,0,1-7.028.252,5.417,5.417,0,0,1-1.781-2.013,3.282,3.282,0,0,1,2.11-1.142,3.611,3.611,0,0,1,2.73.968,4.957,4.957,0,0,1,7.918-5.324,9.993,9.993,0,0,1,16.437-3.833l.116.077a9.147,9.147,0,0,1-.794.968,9.532,9.532,0,0,1-1.413,1.239,9.9,9.9,0,0,1-8.383,1.316A5.994,5.994,0,0,1,132.029,283.01Z" transform="translate(105.847 83.254)"/>
        <path id="Path_19830" data-name="Path 19830" class="cls-3" d="M194.92,345.067A458.574,458.574,0,0,0,305.369,397.01c-25.362,18.818-54.247,35.313-90.314,46.677a312.441,312.441,0,0,1-89.366,14.191C87.937,436.582,48.191,409.42,6.9,374.8q19.341-5.6,40.559-11.016c3.349.445,6.718.832,10.125,1.162,51.691,4.956,94.128-5.595,133.932-22.09C192.636,343.6,193.778,344.331,194.92,345.067Z" transform="translate(6.462 149.592)"/>
        <path id="Path_19831" data-name="Path 19831" class="cls-5" d="M164.411,340.27c2.439,1.665,4.937,3.349,7.492,5.014-39.8,16.495-82.241,27.046-133.932,22.09-3.407-.329-6.776-.716-10.125-1.162A1157.566,1157.566,0,0,1,164.411,340.27Z" transform="translate(26.072 147.167)"/>
        <path id="Path_19832" data-name="Path 19832" class="cls-7" d="M147.422,335.314a487.471,487.471,0,0,0,43.057,32.97A1157.566,1157.566,0,0,0,53.914,394.227,285.466,285.466,0,0,1,0,381.6V310.34A386.9,386.9,0,0,0,147.422,335.314Z" transform="translate(0.004 119.153)"/>
        <path id="Path_19833" data-name="Path 19833" class="cls-4" d="M147.422,366.043A386.9,386.9,0,0,1,0,341.069V277.51c27.646,17.269,62.92,35.158,104.467,46.27A414.884,414.884,0,0,0,147.422,366.043Z" transform="translate(0.004 88.424)"/>
        <path id="Path_19834" data-name="Path 19834" class="cls-7" d="M132.147,442.434q-12.139.232-25.3-.484c-9.777-.5-19.98-1.433-30.608-2.846A479.778,479.778,0,0,1,0,422.338V363.329c4.375-1.316,8.828-2.652,13.358-3.969C54.649,393.976,94.4,421.138,132.147,442.434Z" transform="translate(0.004 165.036)"/>
        <path id="Path_19835" data-name="Path 19835" class="cls-4" d="M13.354,370.789c-4.53,1.317-8.983,2.652-13.358,3.969V347.15a285.466,285.466,0,0,0,53.918,12.623Q32.714,365.145,13.354,370.789Z" transform="translate(0.004 153.607)"/>
      </g>
      <path id="Path_19836" data-name="Path 19836" class="cls-11" d="M493.118,252.53a7.6,7.6,0,1,1-7.6-7.6A7.6,7.6,0,0,1,493.118,252.53Z" transform="translate(581.671 57.932)"/>
      <path id="Path_19837" data-name="Path 19837" class="cls-11" d="M544.1,206.91a7.6,7.6,0,1,1-7.6-7.6A7.6,7.6,0,0,1,544.1,206.91Z" transform="translate(643.725 15.232)"/>
      <path id="Path_19838" data-name="Path 19838" class="cls-9" d="M601.606,139.913a7.6,7.6,0,1,1-7.6-7.6A7.6,7.6,0,0,1,601.606,139.913Z" transform="translate(713.705 -47.478)"/>
      <path id="Path_19839" data-name="Path 19839" class="cls-11" d="M625.85,177.453a7.6,7.6,0,1,1-7.6-7.6A7.6,7.6,0,0,1,625.85,177.453Z" transform="translate(780.167 -12.34)"/>
      <path id="Path_19840" data-name="Path 19840" class="cls-11" d="M477.237,162.657a7.6,7.6,0,1,1-7.595-7.6A7.594,7.594,0,0,1,477.237,162.657Z" transform="translate(562.343 -26.189)"/>
      <path id="Path_19841" data-name="Path 19841" class="cls-11" d="M381.683,218.613a7.6,7.6,0,1,1-7.595-7.6A7.6,7.6,0,0,1,381.683,218.613Z" transform="translate(446.048 26.186)"/>
      <circle id="Ellipse_383" data-name="Ellipse 383" class="cls-12" cx="4.217" cy="4.217" r="4.217" transform="translate(1089.522 273.037)"/>
      <circle id="Ellipse_384" data-name="Ellipse 384" class="cls-12" cx="4.217" cy="4.217" r="4.217" transform="translate(1198.675 170.322)"/>
      <circle id="Ellipse_385" data-name="Ellipse 385" class="cls-9" cx="4.217" cy="4.217" r="4.217" transform="translate(1277.592 74.317)"/>
      <circle id="Ellipse_386" data-name="Ellipse 386" class="cls-12" cx="4.217" cy="4.217" r="4.217" transform="translate(1478.116 198.299)"/>
      <circle id="Ellipse_387" data-name="Ellipse 387" class="cls-9" cx="4.217" cy="4.217" r="4.217" transform="translate(1207.361 114.926)"/>
      <path id="Path_19842" data-name="Path 19842" class="cls-12" d="M500.941,110.3a4.217,4.217,0,1,1-4.217-4.217A4.216,4.216,0,0,1,500.941,110.3Z" transform="translate(598.77 -72.035)"/>
      <circle id="Ellipse_388" data-name="Ellipse 388" class="cls-12" cx="4.217" cy="4.217" r="4.217" transform="translate(1267.939 185.328)"/>
      <circle id="Ellipse_389" data-name="Ellipse 389" class="cls-12" cx="4.217" cy="4.217" r="4.217" transform="translate(1426.14 220.351)"/>
      <path id="Path_19843" data-name="Path 19843" class="cls-12" d="M539.091,288.939a4.217,4.217,0,1,1-4.217-4.217A4.216,4.216,0,0,1,539.091,288.939Z" transform="translate(645.15 95.174)"/>
      <path id="Path_19844" data-name="Path 19844" class="cls-12" d="M402,208.564a4.217,4.217,0,1,1-4.217-4.217A4.216,4.216,0,0,1,402,208.564Z" transform="translate(478.484 19.943)"/>
      <circle id="Ellipse_390" data-name="Ellipse 390" class="cls-12" cx="4.217" cy="4.217" r="4.217" transform="translate(1080.156 400.011)"/>
      <circle id="Ellipse_391" data-name="Ellipse 391" class="cls-12" cx="4.217" cy="4.217" r="4.217" transform="translate(729.515 214.726)"/>
      <path id="Path_19845" data-name="Path 19845" class="cls-12" d="M151.465,268.469a4.217,4.217,0,1,1-4.217-4.217A4.216,4.216,0,0,1,151.465,268.469Z" transform="translate(133.886 76.015)"/>
      <path id="Path_19846" data-name="Path 19846" class="cls-12" d="M132.071,282.5a4.217,4.217,0,1,1-4.217-4.217A4.216,4.216,0,0,1,132.071,282.5Z" transform="translate(115.733 89.145)"/>
      <circle id="Ellipse_392" data-name="Ellipse 392" class="cls-12" cx="4.217" cy="4.217" r="4.217" transform="translate(997.271 324.508)"/>
      <path id="Path_19847" data-name="Path 19847" class="cls-12" d="M487.369,284.892a2.653,2.653,0,1,1-2.654-2.652A2.655,2.655,0,0,1,487.369,284.892Z" transform="translate(585.779 92.851)"/>
      <circle id="Ellipse_393" data-name="Ellipse 393" class="cls-12" cx="2.653" cy="2.653" r="2.653" transform="translate(1180.279 364.568)"/>
      <circle id="Ellipse_394" data-name="Ellipse 394" class="cls-12" cx="2.653" cy="2.653" r="2.653" transform="translate(1146.003 377.114)"/>
      <path id="Path_19848" data-name="Path 19848" class="cls-12" d="M517.873,296.249a2.653,2.653,0,1,1-2.654-2.654A2.653,2.653,0,0,1,517.873,296.249Z" transform="translate(622.845 103.48)"/>
      <circle id="Ellipse_395" data-name="Ellipse 395" class="cls-12" cx="2.653" cy="2.653" r="2.653" transform="translate(1046.695 237.868)"/>
      <circle id="Ellipse_396" data-name="Ellipse 396" class="cls-12" cx="2.653" cy="2.653" r="2.653" transform="translate(1115.785 270.384)"/>
      <path id="Path_19849" data-name="Path 19849" class="cls-12" d="M535.443,194.383a2.653,2.653,0,1,1-2.654-2.654A2.653,2.653,0,0,1,535.443,194.383Z" transform="translate(644.195 8.133)"/>
      <circle id="Ellipse_397" data-name="Ellipse 397" class="cls-12" cx="2.653" cy="2.653" r="2.653" transform="translate(1299.375 190.648)"/>
      <path id="Path_19850" data-name="Path 19850" class="cls-12" d="M513.063,287.892a2.653,2.653,0,1,1-2.654-2.652A2.655,2.655,0,0,1,513.063,287.892Z" transform="translate(617.001 95.659)"/>
      <path id="Path_19851" data-name="Path 19851" class="cls-12" d="M566.123,194.667a2.653,2.653,0,1,1-2.652-2.652A2.653,2.653,0,0,1,566.123,194.667Z" transform="translate(681.476 8.401)"/>
      <path id="Path_19852" data-name="Path 19852" class="cls-12" d="M481.566,281.472a2.653,2.653,0,1,1-2.652-2.652A2.653,2.653,0,0,1,481.566,281.472Z" transform="translate(578.727 89.65)"/>
      <circle id="Ellipse_398" data-name="Ellipse 398" class="cls-12" cx="2.653" cy="2.653" r="2.653" transform="translate(959.293 165.035)"/>
      <circle id="Ellipse_399" data-name="Ellipse 399" class="cls-12" cx="2.653" cy="2.653" r="2.653" transform="translate(890.377 235.215)"/>
      <path id="Path_19853" data-name="Path 19853" class="cls-12" d="M339.826,216.6a2.653,2.653,0,1,1-2.654-2.652A2.653,2.653,0,0,1,339.826,216.6Z" transform="translate(406.494 28.932)"/>
      <path id="Path_19854" data-name="Path 19854" class="cls-12" d="M157.08,258.757a2.653,2.653,0,1,1-2.654-2.652A2.655,2.655,0,0,1,157.08,258.757Z" transform="translate(184.433 68.389)"/>
      <path id="Path_19855" data-name="Path 19855" class="cls-12" d="M122.683,289.007a2.653,2.653,0,1,1-2.654-2.652A2.653,2.653,0,0,1,122.683,289.007Z" transform="translate(109.872 96.703)"/>
      <circle id="Ellipse_400" data-name="Ellipse 400" class="cls-12" cx="2.653" cy="2.653" r="2.653" transform="translate(216.27 373.232)"/>
    </g>
  </g>
</svg>
