<svg xmlns="http://www.w3.org/2000/svg" xmlns:xlink="http://www.w3.org/1999/xlink" width="97" height="98.524" viewBox="0 0 97 98.524">
  <defs>
    <style>
      .cls-1 {
        fill: none;
        stroke: #000;
        stroke-miterlimit: 10;
        stroke-width: 3px;
        fill-rule: evenodd;
      }

      .cls-2 {
        fill: #fff;
      }

      .cls-3 {
        fill: #5ca5b5;
      }

      .cls-4 {
        fill: #3e8188;
      }

      .cls-5 {
        fill: #65bdc1;
      }

      .cls-6 {
        fill: #2d475d;
      }

      .cls-7 {
        fill: #3e5563;
      }

      .cls-8 {
        fill: #f2716d;
      }

      .cls-9 {
        fill: #f69039;
      }

      .cls-10 {
        fill: #94d5d6;
      }

      .cls-11 {
        filter: url(#Ellipse_362);
      }
    </style>
    <filter id="Ellipse_362" x="0" y="1.524" width="97" height="97" filterUnits="userSpaceOnUse">
      <feOffset dy="3" input="SourceAlpha"/>
      <feGaussianBlur stdDeviation="3" result="blur"/>
      <feFlood flood-opacity="0.302"/>
      <feComposite operator="in" in2="blur"/>
      <feComposite in="SourceGraphic"/>
    </filter>
  </defs>
  <g id="Group_8957" data-name="Group 8957" transform="translate(-926 -439.476)">
    <g id="Plan_icon" data-name="Plan icon" transform="translate(431.836 213.134)">
      <path id="Path_14304" data-name="Path 14304" class="cls-1" d="M165.421,380.205A46.011,46.011,0,1,1,211.433,334.2a46.016,46.016,0,0,1-46.012,46.009Z" transform="translate(377.732 -60.341)"/>
    </g>
    <g id="Search_icon" data-name="Search icon" transform="translate(935.044 446.526)">
      <g class="cls-11" transform="matrix(1, 0, 0, 1, -9.04, -7.05)">
        <circle id="Ellipse_362-2" data-name="Ellipse 362" class="cls-2" cx="39.5" cy="39.5" r="39.5" transform="translate(9 7.52)"/>
      </g>
      <g id="Group_8533" data-name="Group 8533" transform="translate(5.958 5.958)">
        <ellipse id="Ellipse_312" data-name="Ellipse 312" class="cls-3" cx="33.566" cy="34.109" rx="33.566" ry="34.109" transform="translate(0 0)"/>
        <path id="Path_18869" data-name="Path 18869" class="cls-4" d="M476.779-224.55l19.839,14.68a34.029,34.029,0,0,0,29.536-33.747c0-.172,0-.343-.006-.514l-22.035-17.524L486.222-240.4Z" transform="translate(-458.936 277.903)"/>
        <g id="Group_8532" data-name="Group 8532" transform="translate(17.858 13.549)">
          <ellipse id="Ellipse_313" data-name="Ellipse 313" class="cls-5" cx="10.398" cy="10.459" rx="10.398" ry="10.459" transform="translate(7.512 5.764) rotate(-15.364)"/>
          <path id="Path_18870" data-name="Path 18870" class="cls-6" d="M495.612-261.567a10.714,10.714,0,0,0-5.367,4.137,10.608,10.608,0,0,0,2.9,14.775h0a10.7,10.7,0,0,0,9.478,1.189l.8,2.3a13.151,13.151,0,0,1-11.649-1.461,13.038,13.038,0,0,1-3.562-18.162,13.155,13.155,0,0,1,6.6-5.085Zm14.411,17.317a13.163,13.163,0,0,1-6.6,5.088l-.8-2.3a10.709,10.709,0,0,0,5.37-4.137,10.611,10.611,0,0,0-2.9-14.776,10.7,10.7,0,0,0-9.477-1.188l-.8-2.3a13.145,13.145,0,0,1,11.648,1.46A13.039,13.039,0,0,1,510.023-244.25Z" transform="translate(-479.139 264.613)"/>
          <path id="Path_18871" data-name="Path 18871" class="cls-7" d="M486.2-222.739l-2.948-1.966,7.145-10.6,2.949,1.965Z" transform="translate(-478.447 257.133)"/>
          <path id="Path_18872" data-name="Path 18872" class="cls-7" d="M482-215.73a2.855,2.855,0,0,1-3.947.784,2.815,2.815,0,0,1-.768-3.926l6.747-10.011a2.857,2.857,0,0,1,3.945-.785,2.822,2.822,0,0,1,.77,3.928Z" transform="translate(-476.799 255.816)"/>
          <path id="Path_18873" data-name="Path 18873" class="cls-8" d="M486.2-221.418l-2.948-1.966,4.546-6.744,2.949,1.965Z" transform="translate(-478.447 255.812)"/>
          <path id="Path_18874" data-name="Path 18874" class="cls-9" d="M482-215.726a2.855,2.855,0,0,1-3.947.784,2.815,2.815,0,0,1-.768-3.926l6.747-10.011a2.855,2.855,0,0,1,2.123-1.248l2.947,1.964a2.823,2.823,0,0,1-.355,2.427Z" transform="translate(-476.799 255.812)"/>
          <ellipse id="Ellipse_314" data-name="Ellipse 314" class="cls-10" cx="4.751" cy="7.077" rx="4.751" ry="7.077" transform="translate(18.135 5.956) rotate(-19.181)"/>
        </g>
      </g>
    </g>
  </g>
</svg>
