<svg data-v-c781368e="" xmlns="http://www.w3.org/2000/svg" xmlns:xlink="http://www.w3.org/1999/xlink" viewBox="0 0 38 38" width="50">
  <defs data-v-c781368e="">
    <linearGradient data-v-c781368e="" id="linear-gradient" x1="363.72" y1="972.09" x2="363.29" y2="972.6" gradientTransform="matrix(46.18, 0, 0, -38.1, -16760.78, 37059.51)" gradientUnits="userSpaceOnUse">
      <stop data-v-c781368e="" offset="0"></stop>
      <stop data-v-c781368e="" offset="0.15" stop-color="#261f26"></stop>
      <stop data-v-c781368e="" offset="0.3" stop-color="#473a46"></stop>
      <stop data-v-c781368e="" offset="0.47" stop-color="#614f60"></stop>
      <stop data-v-c781368e="" offset="0.63" stop-color="#735f72"></stop>
      <stop data-v-c781368e="" offset="0.81" stop-color="#7e687d"></stop>
      <stop data-v-c781368e="" offset="1" stop-color="#826b81"></stop>
    </linearGradient>
    <linearGradient data-v-c781368e="" id="linear-gradient-2" x1="358.59" y1="971.38" x2="358.35" y2="970.84" gradientTransform="matrix(28.72, 0, 0, -51.48, -10287.41, 50005.84)" gradientUnits="userSpaceOnUse">
      <stop data-v-c781368e="" offset="0"></stop>
      <stop data-v-c781368e="" offset="0.08" stop-color="#121a1b"></stop>
      <stop data-v-c781368e="" offset="0.25" stop-color="#32484d"></stop>
      <stop data-v-c781368e="" offset="0.41" stop-color="#4d6e76"></stop>
      <stop data-v-c781368e="" offset="0.57" stop-color="#628c95"></stop>
      <stop data-v-c781368e="" offset="0.73" stop-color="#71a1ac"></stop>
      <stop data-v-c781368e="" offset="0.87" stop-color="#7aaeba"></stop>
      <stop data-v-c781368e="" offset="1" stop-color="#7eb3bf"></stop>
    </linearGradient>
    <linearGradient data-v-c781368e="" id="linear-gradient-3" x1="363.25" y1="973.21" x2="363.84" y2="973.43" gradientTransform="matrix(46.74, 0, 0, -32.79, -16968.43, 31939.21)" gradientUnits="userSpaceOnUse">
      <stop data-v-c781368e="" offset="0"></stop>
      <stop data-v-c781368e="" offset="0.45" stop-color="#58403a"></stop>
      <stop data-v-c781368e="" offset="0.82" stop-color="#9c7167"></stop>
      <stop data-v-c781368e="" offset="1" stop-color="#b78579"></stop>
    </linearGradient>
  </defs>
  <title data-v-c781368e="">Home</title>
  <g data-v-c781368e="" id="Layer_2" data-name="Layer 2">
    <g data-v-c781368e="" id="Layer_1-2" data-name="Layer 1">
      <g data-v-c781368e="" id="Group_10898" data-name="Group 10898">
        <g data-v-c781368e="" id="Group_1" data-name="Group 1">
          <circle data-v-c781368e="" id="Ellipse_366-2" data-name="Ellipse 366-2" cx="19" cy="19" r="19" style="fill: rgb(255, 255, 255);"></circle>
        </g>
        <g data-v-c781368e="" id="Group_10362" data-name="Group 10362">
          <g data-v-c781368e="" id="Group_10361" data-name="Group 10361">
            <path data-v-c781368e="" id="Path_19696" data-name="Path 19696" d="M14.66,4.32a7.47,7.47,0,0,1,4.47,3.5l9.8,17h0a7.43,7.43,0,0,0,5.27-2.13,8.59,8.59,0,0,0,2.09-6h0A17.33,17.33,0,0,0,8.44,5.5h0A8.61,8.61,0,0,1,14.66,4.32Z" style="fill: url(&quot;#linear-gradient&quot;);"></path>
            <path data-v-c781368e="" id="Path_19697" data-name="Path 19697" d="M8.54,30.42a7.47,7.47,0,0,1,.8-5.63h0l9.79-17a7.47,7.47,0,0,0-4.47-3.5A8.61,8.61,0,0,0,8.44,5.5h0a17.34,17.34,0,0,0,4.23,29.71h0A8.59,8.59,0,0,1,8.54,30.42Z" style="fill: url(&quot;#linear-gradient-2&quot;);"></path>
            <path data-v-c781368e="" id="Path_19698" data-name="Path 19698" d="M36.29,16.69a8.59,8.59,0,0,1-2.09,6,7.43,7.43,0,0,1-5.27,2.13H9.34a7.47,7.47,0,0,0-.8,5.63,8.57,8.57,0,0,0,4.14,4.79h0A17.32,17.32,0,0,0,36.46,19.13a18.08,18.08,0,0,0-.17-2.44Z" style="fill: url(&quot;#linear-gradient-3&quot;);"></path>
          </g>
        </g>
      </g>
    </g>
  </g>
</svg>
