<svg xmlns="http://www.w3.org/2000/svg" viewBox="0 0 120 120"><defs><style>.cls-1{fill:#3e596f;}.cls-2{fill:#1a323f;}.cls-3{fill:#f5bf16;stroke:#e58924;stroke-miterlimit:10;stroke-width:2.35px;}.cls-4{fill:#fff;}.cls-5{fill:#3ba8df;}.cls-6{fill:#f6c828;}.cls-7{fill:#426faf;}</style></defs><title>Plan icon</title><g id="Calque_1" data-name="Calque 1"><circle class="cls-1" cx="54.83" cy="61.57" r="45.13"/><path class="cls-2" d="M73,45.75,51,50.58,49.92,68.92l-.28,15.44,17.84,19.77c15-3.24,27.44-17.07,30.89-32.53Z"/><path class="cls-3" d="M81.83,79.87A1.75,1.75,0,0,1,80.63,82l-36.73,11a1.76,1.76,0,0,1-2.2-1.14L27,42.93a1.75,1.75,0,0,1,1.2-2.16L64.9,29.72a1.76,1.76,0,0,1,2.2,1.14l14.73,49Z"/><path class="cls-4" d="M78.76,78.88a.41.41,0,0,1-.28.5L44.23,89.68a.41.41,0,0,1-.51-.27L29.93,43.56a.41.41,0,0,1,.28-.51L64.46,32.76A.4.4,0,0,1,65,33L78.76,78.88Z"/><path class="cls-5" d="M50.09,35.94a2.51,2.51,0,0,0-.1-1,2.78,2.78,0,0,0-5.32,1.6,2.6,2.6,0,0,0,.48.9l-5.42,1.63L41,43.15l15.6-4.68-1.24-4.1Zm-2.4.93A1.28,1.28,0,1,1,47,34.42a1.28,1.28,0,1,1,.74,2.45Z"/><path class="cls-6" d="M41.92,50.46c-.54,1.3-1.23,2.52-1.87,3.76a21.76,21.76,0,0,1-2.78-1.57,6.65,6.65,0,0,1,.55-1.14c.62.22,1.13.65,1.73.92.45-.83.88-1.67,1.28-2.52A3.2,3.2,0,0,1,41.92,50.46Z"/><rect class="cls-7" x="43.26" y="47.88" width="20.51" height="0.96" transform="translate(-11.66 17.45) rotate(-16.73)"/><path class="cls-6" d="M44,57.82c-.55,1.3-1.24,2.52-1.88,3.77A23.12,23.12,0,0,1,39.37,60a6.65,6.65,0,0,1,.55-1.14c.62.22,1.13.65,1.73.92.45-.83.87-1.67,1.28-2.52A3.55,3.55,0,0,1,44,57.82Z"/><rect class="cls-7" x="45.36" y="55.24" width="20.51" height="0.96" transform="translate(-13.69 18.37) rotate(-16.73)"/><path class="cls-6" d="M46.6,65.44c-.54,1.3-1.23,2.52-1.87,3.76A21.76,21.76,0,0,1,42,67.63a6.65,6.65,0,0,1,.55-1.14c.62.22,1.13.65,1.73.91.45-.82.88-1.66,1.28-2.51A3.2,3.2,0,0,1,46.6,65.44Z"/><rect class="cls-7" x="47.94" y="62.86" width="20.51" height="0.96" transform="translate(-15.77 19.44) rotate(-16.73)"/><path class="cls-6" d="M48.9,73c-.55,1.3-1.23,2.52-1.87,3.77a23.12,23.12,0,0,1-2.78-1.58,6.65,6.65,0,0,1,.55-1.14c.62.22,1.13.65,1.73.92.45-.83.88-1.67,1.28-2.52A3.39,3.39,0,0,1,48.9,73Z"/><rect class="cls-7" x="50.24" y="70.45" width="20.51" height="0.96" transform="translate(-17.86 20.42) rotate(-16.73)"/></g></svg>