<svg xmlns="http://www.w3.org/2000/svg" viewBox="0 0 120 120"><defs><style>.cls-1{fill:#3e596f;}.cls-2{fill:#1a323f;}.cls-3{fill:#5ca5b5;}.cls-4{fill:#fff;}.cls-5{fill:#f5bf16;stroke:#e58924;stroke-miterlimit:10;stroke-width:2.35px;}.cls-6{fill:#ef9a31;}</style></defs><title>Report icon</title><g id="Calque_1" data-name="Calque 1"><circle class="cls-1" cx="60.83" cy="62.88" r="45.13"/><path class="cls-2" d="M77.48,45.6,56.17,52.87l1,18.34L58.6,86.59l19.93,17.64c14.55-4.9,25.36-20,27.06-35.79Z"/><rect class="cls-3" x="39.97" y="47.95" width="43.1" height="29.12"/><path class="cls-4" d="M36.25,39.77V75A4,4,0,0,0,40,79.2H83.08A4,4,0,0,0,86.85,75V39.77ZM83.13,71.31a3.41,3.41,0,0,1-3.22,3.58H43.2A3.42,3.42,0,0,1,40,71.31V48H83.13Z"/><path class="cls-5" d="M72.74,87.57,62.62,77.44a1.32,1.32,0,0,0-1-.37h-.14a1.3,1.3,0,0,0-1,.37L50.37,87.57a1.3,1.3,0,0,0,1.84,1.84l8-8V89.2a1.3,1.3,0,1,0,2.6,0V81.36l8.05,8a1.3,1.3,0,0,0,1.84-1.84Z"/><path class="cls-6" d="M52.21,61.34l8.62-1.19A8.49,8.49,0,1,0,57.77,68Z"/><rect class="cls-4" x="64.42" y="56.54" width="14.89" height="1.62"/><rect class="cls-4" x="64.43" y="60.79" width="14.9" height="1.62"/><rect class="cls-4" x="64.43" y="65.04" width="9.48" height="1.61"/></g></svg>