<svg xmlns="http://www.w3.org/2000/svg" viewBox="0 0 120 120"><defs><style>.cls-1{fill:#5ca5b5;}.cls-2{fill:#3e8188;}.cls-3{fill:#65bdc1;}.cls-4{fill:#2d475d;}.cls-5{fill:#3e5563;}.cls-6{fill:#f2716d;}.cls-7{fill:#f69039;}.cls-8{fill:#94d5d6;}</style></defs><title>Search icon</title><g id="Calque_1" data-name="Calque 1"><ellipse class="cls-1" cx="59.89" cy="60" rx="45.07" ry="45.13"/><path class="cls-2" d="M38.78,85.16l26.64,19.71a45.69,45.69,0,0,0,39.65-45.31c0-.23,0-.46,0-.69L75.48,35.34l-24,28.54Z"/><ellipse class="cls-3" cx="66.07" cy="49.97" rx="13.96" ry="14.04" transform="translate(-10.88 19.29) rotate(-15.36)"/><path class="cls-4" d="M60.92,36.48A14.39,14.39,0,0,0,53.71,42,14.24,14.24,0,0,0,57.6,61.87h0a14.41,14.41,0,0,0,12.73,1.6l1.07,3.09A17.57,17.57,0,1,1,59.84,33.38ZM80.27,59.73a17.69,17.69,0,0,1-8.87,6.83l-1.07-3.09a14.29,14.29,0,1,0-9.41-27l-1.08-3.1a17.7,17.7,0,0,1,15.64,2A17.52,17.52,0,0,1,80.27,59.73Z"/><polygon class="cls-5" points="49.21 78.57 45.26 75.93 54.85 61.7 58.81 64.33 49.21 78.57"/><path class="cls-5" d="M45.78,86.21a3.83,3.83,0,0,1-5.3,1.05,3.78,3.78,0,0,1-1-5.27l9.06-13.44a3.84,3.84,0,0,1,5.3-1.06,3.79,3.79,0,0,1,1,5.28Z"/><polygon class="cls-6" points="49.21 78.57 45.26 75.93 51.36 66.87 55.32 69.51 49.21 78.57"/><path class="cls-7" d="M45.78,86.21a3.83,3.83,0,0,1-5.3,1.05,3.78,3.78,0,0,1-1-5.27l9.06-13.44a3.84,3.84,0,0,1,2.85-1.68l4,2.64a3.81,3.81,0,0,1-.48,3.26Z"/><ellipse class="cls-8" cx="72.3" cy="47.26" rx="6.38" ry="9.5" transform="translate(-11.52 26.38) rotate(-19.18)"/></g></svg>