<svg xmlns="http://www.w3.org/2000/svg" viewBox="0 0 120 120"><defs><style>.cls-1{fill:#3e596f;}.cls-2{fill:#1a323f;}.cls-3{fill:#f5bf16;stroke:#e58924;stroke-miterlimit:10;stroke-width:2.35px;}.cls-4{font-size:14.54px;font-family:Helvetica-Bold, Helvetica;font-weight:700;}.cls-4,.cls-6{fill:#fff;}.cls-5{fill:#3e96b0;}</style></defs><title>Spend icon</title><g id="Calque_1" data-name="Calque 1"><ellipse class="cls-1" cx="57.83" cy="59.72" rx="45.1" ry="45.13"/><path class="cls-2" d="M73.89,42.87l-21.3,7.27,1,18.34L55,83.86,74.94,101.5c14.53-4.9,25.34-20,27-35.78Z"/><ellipse class="cls-3" cx="72.52" cy="66.8" rx="9.28" ry="9.28"/><text class="cls-4" transform="matrix(1.04, 0.36, -0.32, 0.95, 67.33, 70.07)">$</text><path class="cls-5" d="M55.17,84.46l-21-13.54s8-2.09,12.22-19C50.25,36.42,58,34,58,34L79,47.55S69.38,51.11,67.13,65.9A25.77,25.77,0,0,1,55.17,84.46Z"/><path class="cls-6" d="M55.13,85.35,32.3,70.62,34,70.18c.07,0,7.67-2.29,11.66-18.4C49.56,36,57.41,33.38,57.74,33.28l.34-.11L80.66,47.74l-1.44.53C79.13,48.31,70,51.9,67.89,66,65.83,79.56,56,84.92,55.53,85.14ZM35.8,71.05,55.19,83.56A25.52,25.52,0,0,0,66.37,65.79c1.81-11.94,8.23-16.77,11-18.33L57.88,34.88a12.44,12.44,0,0,0-3.79,2.91c-2.11,2.26-5,6.58-7,14.36C43.92,65.18,38.4,69.63,35.8,71.05Z"/><path class="cls-6" d="M54.63,66.69c-3.64-.88-5.09-5.6-3.53-9.78,1.31-3.52,4.4-5.47,7.07-4.83s4.52,3.8,4.08,7.53C61.72,64,58.27,67.58,54.63,66.69Z"/></g></svg>