<svg xmlns="http://www.w3.org/2000/svg" xmlns:xlink="http://www.w3.org/1999/xlink" viewBox="0 0 61 61"><defs><style>.cls-1{fill:#fff;}.cls-2{fill:url(#linear-gradient);}.cls-3{fill:url(#linear-gradient-2);}.cls-4{fill:url(#linear-gradient-3);}</style><linearGradient id="linear-gradient" x1="162.3" y1="892.65" x2="161.58" y2="893.49" gradientTransform="matrix(43.99, 0, 0, -36.29, -7083.32, 32431.44)" gradientUnits="userSpaceOnUse"><stop offset="0"/><stop offset="0.15" stop-color="#261f26"/><stop offset="0.3" stop-color="#473a46"/><stop offset="0.47" stop-color="#614f60"/><stop offset="0.63" stop-color="#735f72"/><stop offset="0.81" stop-color="#7e687d"/><stop offset="1" stop-color="#826b81"/></linearGradient><linearGradient id="linear-gradient-2" x1="159.57" y1="892.74" x2="159.17" y2="891.85" gradientTransform="matrix(27.36, 0, 0, -49.03, -4345.07, 43775.06)" gradientUnits="userSpaceOnUse"><stop offset="0"/><stop offset="0.08" stop-color="#121a1b"/><stop offset="0.25" stop-color="#32484d"/><stop offset="0.41" stop-color="#4d6e76"/><stop offset="0.57" stop-color="#628c95"/><stop offset="0.73" stop-color="#71a1ac"/><stop offset="0.87" stop-color="#7aaeba"/><stop offset="1" stop-color="#7eb3bf"/></linearGradient><linearGradient id="linear-gradient-3" x1="161.41" y1="893.2" x2="162.38" y2="893.55" gradientTransform="matrix(44.51, 0, 0, -31.23, -7170.63, 27942.1)" gradientUnits="userSpaceOnUse"><stop offset="0"/><stop offset="0.45" stop-color="#58403a"/><stop offset="0.82" stop-color="#9c7167"/><stop offset="1" stop-color="#b78579"/></linearGradient></defs><title>SymbolicIdentifier</title><g id="Layer_2" data-name="Layer 2"><g id="Layer_1-2" data-name="Layer 1"><g id="Group_1" data-name="Group 1"><circle id="Ellipse_366-2" data-name="Ellipse 366-2" class="cls-1" cx="30.5" cy="30.5" r="30.5"/></g><g id="Group_10362" data-name="Group 10362"><g id="Group_10361" data-name="Group 10361"><path id="Path_19696" data-name="Path 19696" class="cls-2" d="M23.43,7.1c4.66,1,7.07,5.54,7.07,5.54L46,39.43h0s5.13.17,8.33-3.35a13.59,13.59,0,0,0,3.29-9.44h0A27.37,27.37,0,0,0,13.61,9h0A13.63,13.63,0,0,1,23.43,7.1Z"/><path id="Path_19697" data-name="Path 19697" class="cls-3" d="M13.77,48.32C12.32,43.79,15,39.43,15,39.43h0L30.5,12.64S28.08,8.11,23.43,7.1A13.63,13.63,0,0,0,13.61,9h0A27.36,27.36,0,0,0,20.3,55.89h0A13.6,13.6,0,0,1,13.77,48.32Z"/><path id="Path_19698" data-name="Path 19698" class="cls-4" d="M57.58,26.64a13.59,13.59,0,0,1-3.28,9.44C51.1,39.6,46,39.43,46,39.43H15s-2.71,4.36-1.26,8.89a13.6,13.6,0,0,0,6.53,7.57h0A27.38,27.38,0,0,0,57.86,30.5a27.86,27.86,0,0,0-.27-3.87Z"/></g></g></g></g></svg>