<svg xmlns="http://www.w3.org/2000/svg" viewBox="0 0 120 120"><defs><style>.cls-1{fill:#2d475d;}.cls-2{fill:#122631;}.cls-3{fill:#ef9a31;}.cls-4{fill:#fff;}.cls-5{fill:#3e96b0;}</style></defs><title>Team icon</title><g id="Calque_1" data-name="Calque 1"><circle class="cls-1" cx="56.95" cy="58.87" r="45.13"/><path class="cls-2" d="M34.53,75.17l29.2,27.41A44.06,44.06,0,0,0,102,58.9v-.66L73.07,33.45,50.26,63.07Z"/><path class="cls-3" d="M80.44,60.39H76.35v9h4.09a1.84,1.84,0,0,0,1.84-1.84V62.23A1.84,1.84,0,0,0,80.44,60.39Z"/><path class="cls-3" d="M80.44,48.44H76.35v9h4.09a1.85,1.85,0,0,0,1.84-1.84V50.27A1.84,1.84,0,0,0,80.44,48.44Z"/><path class="cls-3" d="M80.44,36.47H76.35v9h4.09a1.84,1.84,0,0,0,1.84-1.83V38.32A1.84,1.84,0,0,0,80.44,36.47Z"/><rect class="cls-4" x="40.2" y="37.95" width="30.25" height="29.56"/><path class="cls-5" d="M76.24,72.58V79a1.53,1.53,0,0,1-1.54,1.53H39.14A1.53,1.53,0,0,1,37.6,79v-.64H70.72a3.06,3.06,0,0,0,3.06-3.06V34.16a3.07,3.07,0,0,0-3.06-3.07H37.6a3.08,3.08,0,0,0-3.07,3.07V79a4.6,4.6,0,0,0,4.61,4.59H74.7A4.59,4.59,0,0,0,79.31,79V72.58ZM49.41,45.82a4.89,4.89,0,0,1,5.28-4.91A4.91,4.91,0,0,1,60,45.82,1.88,1.88,0,0,1,61,47.65c0,1.05-.64,1.9-1.44,1.9h-.14c-.85,2.63-2.67,4.86-4.77,4.86s-3.91-2.23-4.77-4.86h-.14a1.72,1.72,0,0,1-1.44-1.9A1.88,1.88,0,0,1,49.41,45.82ZM44.18,59.61a5.1,5.1,0,0,1,5.11-5.1h2.13l1.71,5.71,1.29-3-1.5-1.9.06,0a11.82,11.82,0,0,0,1.6.11,10.64,10.64,0,0,0,1.62-.12l.15.15L55,57.16l1.32,3L58,54.51h2.13a5.1,5.1,0,0,1,5.11,5.1v5.82h-21Z"/></g></svg>