<svg xmlns="http://www.w3.org/2000/svg" viewBox="0 0 120 120">
  <defs>
    <style>
      .cls-3{fill:#ef9a31}
    </style>
  </defs>
  <g id="Calque_1" data-name="Calque 1">
    <circle cx="56.95" cy="58.87" r="45.13" fill="#2d475d"/>
    <path fill="#122631" d="M34.53 75.17l29.2 27.41A44.06 44.06 0 00102 58.9v-.66L73.07 33.45 50.26 63.07z"/>
    <path d="M80.44 60.39h-4.09v9h4.09a1.84 1.84 0 001.84-1.84v-5.32a1.84 1.84 0 00-1.84-1.84z" class="cls-3"/>
    <path d="M80.44 48.44h-4.09v9h4.09a1.85 1.85 0 001.84-1.84v-5.33a1.84 1.84 0 00-1.84-1.83z" class="cls-3"/>
    <path d="M80.44 36.47h-4.09v9h4.09a1.84 1.84 0 001.84-1.83v-5.32a1.84 1.84 0 00-1.84-1.85z" class="cls-3"/>
    <path fill="#fff" d="M40.2 37.95h30.25v29.56H40.2z"/>
    <path fill="#3e96b0" d="M76.24 72.58V79a1.53 1.53 0 01-1.54 1.53H39.14A1.53 1.53 0 0137.6 79v-.64h33.12a3.06 3.06 0 003.06-3.06V34.16a3.07 3.07 0 00-3.06-3.07H37.6a3.08 3.08 0 00-3.07 3.07V79a4.6 4.6 0 004.61 4.59H74.7A4.59 4.59 0 0079.31 79v-6.42zM49.41 45.82a4.89 4.89 0 015.28-4.91A4.91 4.91 0 0160 45.82a1.88 1.88 0 011 1.83c0 1.05-.64 1.9-1.44 1.9h-.14c-.85 2.63-2.67 4.86-4.77 4.86s-3.91-2.23-4.77-4.86h-.14a1.72 1.72 0 01-1.44-1.9 1.88 1.88 0 011.11-1.83zm-5.23 13.79a5.1 5.1 0 015.11-5.1h2.13l1.71 5.71 1.29-3-1.5-1.9h.06a11.82 11.82 0 001.6.11 10.64 10.64 0 001.62-.12l.15.15-1.35 1.7 1.32 3L58 54.51h2.13a5.1 5.1 0 015.11 5.1v5.82h-21z"/>
  </g>
</svg>