<svg id="Layer_1" data-name="Layer 1" xmlns="http://www.w3.org/2000/svg" viewBox="0 0 120 120"><defs><style>.cls-1{fill:#2d475d;}.cls-2{fill:#122631;opacity:0.6;isolation:isolate;}.cls-3{fill:#d7d8da;}.cls-4{fill:#fff;}.cls-5{fill:#ef861f;}.cls-6{fill:#ca6618;}.cls-7{fill:#d3dade;}.cls-8{fill:#8e8e8e;}.cls-9{fill:#646464;}</style></defs><title>Tools icon</title><g id="Tools_icon" data-name="Tools icon"><g id="Job_aides_tools_--_Generator:_Adobe_Illustrator_23.0.6_SVG_Export_Plug-In_--_svg_version_1.1_xmlns_http:_www.w3.org_2000_svg_xmlns:xlink_http:_www.w3.org_1999_xlink0px_y_0px_width_72.34px_height_61.74px_viewBox_0_0_72.34_61.74_style_enable-backgroun" data-name="Job aides tools -- Generator: Adobe Illustrator 23.0.6 SVG Export Plug-In -- svg version 1.1 xmlns http: www.w3.org 2000 svg xmlns:xlink http: www.w3.org 1999 xlink0px y 0px width 72.34px height 61.74px viewBox 0 0 72.34 61.74 style enable-backgroun"><g id="Group_2817" data-name="Group 2817"><g id="Group_2815" data-name="Group 2815"><circle id="Ellipse_191-2" data-name="Ellipse 191-2" class="cls-1" cx="59.95" cy="60.04" r="45.13"/><path id="Path_14437" data-name="Path 14437" class="cls-2" d="M81.61,47.94,69.94,56.06,57.43,67.83,44.33,76l25.46,27.52C84.14,102,97.32,89.94,102.31,75.44Z"/></g></g></g><g id="Group_7339" data-name="Group 7339"><g id="Group_7335" data-name="Group 7335"><path id="Path_14427" data-name="Path 14427" class="cls-3" d="M62.54,58.6,49.18,72l-2.08.94-4.8,5.94,1.82,1.82L50,76l1-2.18L64.36,60.42Z"/><path id="Path_14428" data-name="Path 14428" class="cls-4" d="M49.05,71.83l-2.08,1-4.8,5.93.26.27L47.23,73l2.08-.94L62.67,58.74l-.26-.27Z"/></g><path id="Rectangle_4765" data-name="Rectangle 4765" class="cls-5" d="M62.26,53.93l12-12a4.79,4.79,0,0,1,6.76,0h0a4.79,4.79,0,0,1,0,6.77l-12,12a4.79,4.79,0,0,1-6.77,0h0A4.77,4.77,0,0,1,62.26,53.93Z"/><path id="Path_14429" data-name="Path 14429" class="cls-6" d="M62.26,60.69l.75.75a3.74,3.74,0,0,0,5.27,0L81.79,47.93a3.74,3.74,0,0,0,0-5.27L81,41.91Z"/><path id="Rectangle_4766" data-name="Rectangle 4766" class="cls-6" d="M62.17,56.13l14.3-14.31a.81.81,0,0,1,1.14,0h0a.8.8,0,0,1,0,1.14L63.31,57.27a.81.81,0,0,1-1.14,0h0A.81.81,0,0,1,62.17,56.13Z"/><path id="Rectangle_4767" data-name="Rectangle 4767" class="cls-5" d="M65.62,59.58l14.3-14.31a.83.83,0,0,1,1.15,0h0a.83.83,0,0,1,0,1.15L66.76,60.72a.81.81,0,0,1-1.14,0h0A.81.81,0,0,1,65.62,59.58Z"/><g id="Group_7338" data-name="Group 7338"><path id="Path_14430" data-name="Path 14430" class="cls-7" d="M50.51,39.93c-5.3,1.42-8.36,4.17-9.17,8l.15.16-2.87,2.87-1.75-.48L34.5,52.82l5.74,5.74,2.37-2.37-.27-1.84-.06-.06,2.55-2.55,5.05.34L59,61.19l2.31-2.31L52.46,50l.07-1.31,0,0,0,0A5.45,5.45,0,0,1,56.23,43,14.93,14.93,0,0,1,66.41,45.3,14.43,14.43,0,0,0,50.51,39.93Z"/><g id="Group_7336" data-name="Group 7336"><path id="Path_14431" data-name="Path 14431" class="cls-4" d="M42.28,54.82l.06.06.2,1.38.06-.06-.21-1.49Z"/><path id="Path_14432" data-name="Path 14432" class="cls-4" d="M36.86,51l1.76.48,2.87-2.87-.16-.16c0-.1.05-.19.07-.29l-2.78,2.79-1.76-.47L34.5,52.82l.26.26Z"/><path id="Path_14433" data-name="Path 14433" class="cls-4" d="M50.51,39.93c-5.3,1.42-8.36,4.17-9.17,8l.1.11c1-3.58,4-6.18,9.07-7.55a14.64,14.64,0,0,1,15.19,4.4c.24.14.47.28.71.44A14.45,14.45,0,0,0,50.51,39.93Z"/><path id="Path_14434" data-name="Path 14434" class="cls-4" d="M51.67,51.35l8.57,8.58,1.06-1-8.82-8.82Z"/></g><g id="Group_7337" data-name="Group 7337"><path id="Path_14435" data-name="Path 14435" class="cls-8" d="M54.3,57.06,74.09,79a1.85,1.85,0,0,0,2.59,0l2.54-2.54a1.83,1.83,0,0,0,0-2.59L57.37,54Z"/><path id="Path_14436" data-name="Path 14436" class="cls-9" d="M57.37,54l-1.53,1.53L78,77.64l1.27-1.27a1.83,1.83,0,0,0,0-2.59Z"/></g></g></g></g></svg>