<?xml version="1.0" encoding="UTF-8" standalone="no"?>
<svg
   xmlns:dc="http://purl.org/dc/elements/1.1/"
   xmlns:cc="http://creativecommons.org/ns#"
   xmlns:rdf="http://www.w3.org/1999/02/22-rdf-syntax-ns#"
   xmlns:svg="http://www.w3.org/2000/svg"
   xmlns="http://www.w3.org/2000/svg"
   version="1.1"
   viewBox="0 0 50 50"
   data-name="Layer 1"
   id="Layer_1">
  <metadata
     id="metadata59">
    <rdf:RDF>
      <cc:Work
         rdf:about="">
        <dc:format>image/svg+xml</dc:format>
        <dc:type
           rdf:resource="http://purl.org/dc/dcmitype/StillImage" />
        <dc:title>Artboard 1</dc:title>
      </cc:Work>
    </rdf:RDF>
  </metadata>
  <defs
     id="defs43">
    <linearGradient
       gradientUnits="userSpaceOnUse"
       gradientTransform="translate(-4104.38 20833.91) scale(46.18 38.1)"
       y2="-546.74"
       x2="89.37"
       y1="-546.23"
       x1="89.8"
       id="linear-gradient">
      <stop
         id="stop2"
         offset="0" />
      <stop
         id="stop4"
         stop-color="#261f26"
         offset="0.15" />
      <stop
         id="stop6"
         stop-color="#473a46"
         offset="0.3" />
      <stop
         id="stop8"
         stop-color="#614f60"
         offset="0.47" />
      <stop
         id="stop10"
         stop-color="#735f72"
         offset="0.63" />
      <stop
         id="stop12"
         stop-color="#7e687d"
         offset="0.81" />
      <stop
         id="stop14"
         stop-color="#826b81"
         offset="1" />
    </linearGradient>
    <linearGradient
       gradientUnits="userSpaceOnUse"
       gradientTransform="translate(-2519.81 28214.16) scale(28.72 51.48)"
       y2="-547.5"
       x2="88.18"
       y1="-548.04"
       x1="88.42"
       id="linear-gradient-2">
      <stop
         id="stop17"
         offset="0" />
      <stop
         id="stop19"
         stop-color="#121a1b"
         offset="0.08" />
      <stop
         id="stop21"
         stop-color="#32484d"
         offset="0.25" />
      <stop
         id="stop23"
         stop-color="#4d6e76"
         offset="0.41" />
      <stop
         id="stop25"
         stop-color="#628c95"
         offset="0.57" />
      <stop
         id="stop27"
         stop-color="#71a1ac"
         offset="0.73" />
      <stop
         id="stop29"
         stop-color="#7aaeba"
         offset="0.87" />
      <stop
         id="stop31"
         stop-color="#7eb3bf"
         offset="1" />
    </linearGradient>
    <linearGradient
       gradientUnits="userSpaceOnUse"
       gradientTransform="translate(-4155.23 17922.57) scale(46.74 32.79)"
       y2="-545.86"
       x2="89.87"
       y1="-545.64"
       x1="89.28"
       id="linear-gradient-3">
      <stop
         id="stop34"
         offset="0" />
      <stop
         id="stop36"
         stop-color="#58403a"
         offset="0.45" />
      <stop
         id="stop38"
         stop-color="#9c7167"
         offset="0.82" />
      <stop
         id="stop40"
         stop-color="#b78579"
         offset="1" />
    </linearGradient>
    <filter
       id="filter227"
       style="color-interpolation-filters:sRGB;">
      <feFlood
         id="feFlood217"
         result="flood"
         flood-color="rgb(0,0,0)"
         flood-opacity="0.498039" />
      <feComposite
         id="feComposite219"
         result="composite1"
         operator="in"
         in2="SourceGraphic"
         in="flood" />
      <feGaussianBlur
         id="feGaussianBlur221"
         result="blur"
         stdDeviation="1"
         in="composite1" />
      <feOffset
         id="feOffset223"
         result="offset"
         dy="0.8"
         dx="0.8" />
      <feComposite
         id="feComposite225"
         result="composite2"
         operator="over"
         in2="offset"
         in="SourceGraphic" />
    </filter>
  </defs>
  <title
     id="title45">Artboard 1</title>
  <g
     style="filter:url(#filter227)"
     data-name="Layer 1-2"
     id="Layer_1-2">
    <g
       data-name="Group 10898"
       id="Group_10898">
      <g
         data-name="Group 1"
         id="Group_1">
        <circle
           fill="#fff"
           r="19"
           cy="19"
           cx="25"
           data-name="Ellipse 366-2"
           id="Ellipse_366-2" />
      </g>
      <g
         data-name="Group 10362"
         id="Group_10362">
        <g
           data-name="Group 10361"
           id="Group_10361">
          <path
             fill="url(#linear-gradient)"
             d="M20.66,4.32a7.46,7.46,0,0,1,4.47,3.5l9.8,17h0a7.41,7.41,0,0,0,5.27-2.13,8.57,8.57,0,0,0,2.09-6h0A17.33,17.33,0,0,0,14.44,5.5h0A8.61,8.61,0,0,1,20.66,4.32Z"
             data-name="Path 19696"
             id="Path_19696" />
          <path
             fill="url(#linear-gradient-2)"
             d="M14.54,30.42a7.45,7.45,0,0,1,.8-5.63h0l9.79-17a7.46,7.46,0,0,0-4.47-3.5A8.61,8.61,0,0,0,14.44,5.5h0a17.34,17.34,0,0,0,4.23,29.71h0A8.59,8.59,0,0,1,14.54,30.42Z"
             data-name="Path 19697"
             id="Path_19697" />
          <path
             fill="url(#linear-gradient-3)"
             d="M42.29,16.69a8.57,8.57,0,0,1-2.09,6,7.41,7.41,0,0,1-5.27,2.13H15.34a7.45,7.45,0,0,0-.8,5.63,8.57,8.57,0,0,0,4.14,4.79h0A17.32,17.32,0,0,0,42.46,19.13,18.08,18.08,0,0,0,42.29,16.69Z"
             data-name="Path 19698"
             id="Path_19698" />
        </g>
      </g>
    </g>
  </g>
</svg>
