<svg xmlns="http://www.w3.org/2000/svg" viewBox="0 0 50 50" data-name="Layer 1">
  <defs>
    <linearGradient gradientUnits="userSpaceOnUse" gradientTransform="matrix(46.18 0 0 38.1 -4104.38 20833.91)" y2="-546.74" x2="89.37" y1="-546.23" x1="89.8" id="b">
      <stop offset="0"/>
      <stop stop-color="#261f26" offset=".15"/>
      <stop stop-color="#473a46" offset=".3"/>
      <stop stop-color="#614f60" offset=".47"/>
      <stop stop-color="#735f72" offset=".63"/>
      <stop stop-color="#7e687d" offset=".81"/>
      <stop stop-color="#826b81" offset="1"/>
    </linearGradient>
    <linearGradient gradientUnits="userSpaceOnUse" gradientTransform="matrix(28.72 0 0 51.48 -2519.81 28214.16)" y2="-547.5" x2="88.18" y1="-548.04" x1="88.42" id="c">
      <stop offset="0"/>
      <stop stop-color="#121a1b" offset=".08"/>
      <stop stop-color="#32484d" offset=".25"/>
      <stop stop-color="#4d6e76" offset=".41"/>
      <stop stop-color="#628c95" offset=".57"/>
      <stop stop-color="#71a1ac" offset=".73"/>
      <stop stop-color="#7aaeba" offset=".87"/>
      <stop stop-color="#7eb3bf" offset="1"/>
    </linearGradient>
    <linearGradient gradientUnits="userSpaceOnUse" gradientTransform="matrix(46.74 0 0 32.79 -4155.23 17922.57)" y2="-545.86" x2="89.87" y1="-545.64" x1="89.28" id="d">
      <stop offset="0"/>
      <stop stop-color="#58403a" offset=".45"/>
      <stop stop-color="#9c7167" offset=".82"/>
      <stop stop-color="#b78579" offset="1"/>
    </linearGradient>
    <filter id="a" color-interpolation-filters="sRGB">
      <feFlood result="flood" flood-color="#000" flood-opacity=".498"/>
      <feComposite result="composite1" operator="in" in2="SourceGraphic" in="flood"/>
      <feGaussianBlur result="blur" stdDeviation="1" in="composite1"/>
      <feOffset result="offset" dy=".8" dx=".8"/>
      <feComposite result="composite2" in2="offset" in="SourceGraphic"/>
    </filter>
  </defs>
  <g data-name="Layer 1-2" filter="url(#a)">
    <g data-name="Group 10898">
      <g data-name="Group 1">
        <circle fill="#fff" r="19" cy="19" cx="25" data-name="Ellipse 366-2"/>
      </g>
      <g data-name="Group 10362">
        <g data-name="Group 10361">
          <path fill="url(#b)" d="M20.66 4.32a7.46 7.46 0 014.47 3.5l9.8 17a7.41 7.41 0 005.27-2.13 8.57 8.57 0 002.09-6A17.33 17.33 0 0014.44 5.5a8.61 8.61 0 016.22-1.18z" data-name="Path 19696"/>
          <path fill="url(#c)" d="M14.54 30.42a7.45 7.45 0 01.8-5.63l9.79-17a7.46 7.46 0 00-4.47-3.5 8.61 8.61 0 00-6.22 1.21 17.34 17.34 0 004.23 29.71 8.59 8.59 0 01-4.13-4.79z" data-name="Path 19697"/>
          <path fill="url(#d)" d="M42.29 16.69a8.57 8.57 0 01-2.09 6 7.41 7.41 0 01-5.27 2.13H15.34a7.45 7.45 0 00-.8 5.63 8.57 8.57 0 004.14 4.79 17.32 17.32 0 0023.78-16.11 18.08 18.08 0 00-.17-2.44z" data-name="Path 19698"/>
        </g>
      </g>
    </g>
  </g>
</svg>