<svg id="Plan" xmlns="http://www.w3.org/2000/svg" viewBox="0 0 127 127"><defs><style>.cls-1,.cls-15,.cls-16,.cls-5{fill:#fff;}.cls-11,.cls-12,.cls-17,.cls-18,.cls-2,.cls-4,.cls-6,.cls-8{fill:none;}.cls-2{stroke:#707070;stroke-width:0.94px;}.cls-3{fill:#9f9386;}.cls-14,.cls-15,.cls-4{stroke:#9f9386;}.cls-11,.cls-12,.cls-13,.cls-14,.cls-15,.cls-16,.cls-17,.cls-18,.cls-4,.cls-8,.cls-9{stroke-linecap:round;}.cls-4{stroke-width:1.92px;stroke-dasharray:11.53;}.cls-16,.cls-17,.cls-5,.cls-6,.cls-8{stroke:#f4aa42;}.cls-14,.cls-15,.cls-16,.cls-5,.cls-8{stroke-width:0.48px;}.cls-6{stroke-miterlimit:10;}.cls-13,.cls-17,.cls-18,.cls-6{stroke-width:0.96px;}.cls-7,.cls-9{fill:#f4aa42;}.cls-11,.cls-12,.cls-14,.cls-15,.cls-16,.cls-17,.cls-18,.cls-8,.cls-9{stroke-linejoin:round;}.cls-9{stroke:#caf4ff;}.cls-11,.cls-9{stroke-width:0.1px;}.cls-10,.cls-13{fill:#f2a333;}.cls-11{stroke:#f2b975;}.cls-12,.cls-13,.cls-18{stroke:#fff;}.cls-12{stroke-width:2.02px;}.cls-14{fill:#f2b975;}</style></defs><title>plan-icon</title><g id="Plan-2" data-name="Plan"><g id="Ellipse_166" data-name="Ellipse 166"><circle class="cls-1" cx="63.16" cy="61.75" r="60"/><circle class="cls-2" cx="63.16" cy="61.75" r="59.53"/></g><g id="Group_1382" data-name="Group 1382"><g id="Group_1381" data-name="Group 1381"><g id="Group_1380" data-name="Group 1380"><g id="Group_1379" data-name="Group 1379"><g id="Group_1378" data-name="Group 1378"><g id="Group_1377" data-name="Group 1377"><g id="Group_1376" data-name="Group 1376"><g id="Group_1375" data-name="Group 1375"><g id="Group_1374" data-name="Group 1374"><g id="Group_1373" data-name="Group 1373"><g id="Group_1372" data-name="Group 1372"><g id="Group_1371" data-name="Group 1371"><g id="Group_1370" data-name="Group 1370"><g id="Group_1369" data-name="Group 1369"><g id="Group_1368" data-name="Group 1368"><g id="Group_1367" data-name="Group 1367"><g id="Group_1366" data-name="Group 1366"><g id="Group_1365" data-name="Group 1365"><g id="Group_1364" data-name="Group 1364"><circle id="Ellipse_116" data-name="Ellipse 116" class="cls-3" cx="63.17" cy="62.62" r="39.51"/></g></g></g></g></g></g></g></g></g></g></g></g></g></g></g></g></g></g></g><g id="Group_1435" data-name="Group 1435"><g id="Group_1382-2" data-name="Group 1382-2"><g id="Group_1381-2" data-name="Group 1381-2"><g id="Group_1380-2" data-name="Group 1380-2"><g id="Group_1379-2" data-name="Group 1379-2"><g id="Group_1378-2" data-name="Group 1378-2"><g id="Group_1377-2" data-name="Group 1377-2"><g id="Group_1376-2" data-name="Group 1376-2"><g id="Group_1375-2" data-name="Group 1375-2"><g id="Group_1374-2" data-name="Group 1374-2"><g id="Group_1373-2" data-name="Group 1373-2"><g id="Group_1372-2" data-name="Group 1372-2"><g id="Group_1371-2" data-name="Group 1371-2"><g id="Group_1370-2" data-name="Group 1370-2"><g id="Group_1369-2" data-name="Group 1369-2"><g id="Group_1368-2" data-name="Group 1368-2"><g id="Group_1367-2" data-name="Group 1367-2"><g id="Group_1366-2" data-name="Group 1366-2"><g id="Group_1365-2" data-name="Group 1365-2"><g id="Group_1364-2" data-name="Group 1364-2"><circle id="Ellipse_116-2" data-name="Ellipse 116-2" class="cls-4" cx="63.16" cy="62.62" r="51.43"/></g></g></g></g></g></g></g></g></g></g></g></g></g></g></g></g></g></g></g></g><g id="Group_1361" data-name="Group 1361"><g id="Group_1360" data-name="Group 1360"><g id="Group_1359" data-name="Group 1359"><g id="Group_1358" data-name="Group 1358"><g id="Group_1355" data-name="Group 1355"><ellipse id="Ellipse_114" data-name="Ellipse 114" class="cls-1" cx="50.49" cy="77.14" rx="2.67" ry="2.77"/><path id="Path_6549" data-name="Path 6549" class="cls-1" d="M55.61,87.63s-.25-5.37-3.42-5.47c-1.3,0-2.42,0-3.36,0-3.31.07-3.28,5.52-3.28,5.52h0c0,.49,2.25.88,5,.88s5-.39,5-.88a.06.06,0,0,0,0,0Z"/></g><g id="Group_1356" data-name="Group 1356"><ellipse id="Ellipse_115" data-name="Ellipse 115" class="cls-1" cx="73.05" cy="77.14" rx="2.67" ry="2.77"/><path id="Path_6550" data-name="Path 6550" class="cls-1" d="M78.17,87.63s-.25-5.37-3.42-5.47c-1.29,0-2.42,0-3.36,0-3.31.07-3.28,5.52-3.28,5.52h0c0,.49,2.25.88,5,.88s5-.39,5-.88a.06.06,0,0,1,0,0Z"/></g><g id="Group_1357" data-name="Group 1357"><path id="Path_6556" data-name="Path 6556" class="cls-1" d="M61.83,88.71a2.77,2.77,0,1,1-2.67,2.77A2.74,2.74,0,0,1,61.83,88.71Z"/><path id="Path_6551" data-name="Path 6551" class="cls-1" d="M67,102s-.24-5.37-3.42-5.47c-1.29,0-2.42,0-3.36,0-3.3.07-3.27,5.51-3.27,5.51h0c0,.49,2.24.88,5,.88s5-.39,5-.88a0,0,0,0,0,0,0Z"/></g></g></g><path id="Path_6555" data-name="Path 6555" class="cls-5" d="M66.68,81V79.79a.33.33,0,0,0-.33-.33h-.67a.15.15,0,0,1-.16-.13,3.35,3.35,0,0,0-.23-.55.18.18,0,0,1,0-.2l.48-.49a.32.32,0,0,0,0-.46l-.89-.89a.34.34,0,0,0-.46,0h0l-.48.48a.16.16,0,0,1-.2,0A3.31,3.31,0,0,0,63.2,77a.16.16,0,0,1-.12-.16v-.68a.32.32,0,0,0-.33-.32H61.49a.32.32,0,0,0-.33.32h0v.68A.16.16,0,0,1,61,77a2.75,2.75,0,0,0-.56.23.17.17,0,0,1-.2,0l-.48-.48a.34.34,0,0,0-.46,0h0l-.9.89a.34.34,0,0,0,0,.46l.48.49a.15.15,0,0,1,0,.2,3.76,3.76,0,0,0-.23.55.16.16,0,0,1-.16.13h-.67a.32.32,0,0,0-.33.33h0V81a.32.32,0,0,0,.33.33h.67a.16.16,0,0,1,.16.13,3.35,3.35,0,0,0,.23.55.18.18,0,0,1,0,.21l-.48.48a.34.34,0,0,0,0,.46l.9.89a.32.32,0,0,0,.46,0h0l.48-.48a.15.15,0,0,1,.2,0,3,3,0,0,0,.56.23.16.16,0,0,1,.12.16v.68a.32.32,0,0,0,.33.32h1.26a.32.32,0,0,0,.33-.32h0V84a.16.16,0,0,1,.12-.16,3,3,0,0,0,.56-.23.17.17,0,0,1,.2,0l.48.48a.32.32,0,0,0,.46,0l.89-.89a.32.32,0,0,0,0-.46l-.48-.48a.18.18,0,0,1,0-.21,3.76,3.76,0,0,0,.23-.55.15.15,0,0,1,.16-.13h.67A.33.33,0,0,0,66.68,81ZM62.1,82.2a1.79,1.79,0,1,1,1.78-1.79A1.79,1.79,0,0,1,62.1,82.2Z"/></g><g id="Group_1437" data-name="Group 1437"><g id="Group_1341" data-name="Group 1341"><g id="Path_6531" data-name="Path 6531"><path class="cls-1" d="M95.17,57.41H78.41a3.69,3.69,0,0,1-3.64-3.74V29.58a3.7,3.7,0,0,1,3.64-3.73H95.17a3.68,3.68,0,0,1,3.63,3.73V53.67A3.69,3.69,0,0,1,95.17,57.41Z"/><path class="cls-6" d="M95.66,57.33a2.89,2.89,0,0,0,2.84-2.94V28.87a2.89,2.89,0,0,0-2.84-2.94H77.9a2.89,2.89,0,0,0-2.84,2.94V54.39a2.89,2.89,0,0,0,2.84,2.94H95.66"/></g><g id="Group_1340" data-name="Group 1340"><path id="Path_6532" data-name="Path 6532" class="cls-7" d="M79.84,29.47h0a.74.74,0,0,1-.74-.74V26.1a.74.74,0,0,1,.74-.74h0a.74.74,0,0,1,.74.74h0v2.63A.73.73,0,0,1,79.84,29.47Z"/><path id="Rectangle_2094" data-name="Rectangle 2094" class="cls-7" d="M84.47,25.36h0a.74.74,0,0,1,.74.74v2.63a.74.74,0,0,1-.74.74h0a.74.74,0,0,1-.74-.74V26.1A.74.74,0,0,1,84.47,25.36Z"/><path id="Path_6533" data-name="Path 6533" class="cls-7" d="M89.1,29.47h0a.74.74,0,0,1-.74-.74V26.1a.74.74,0,0,1,.74-.74h0a.74.74,0,0,1,.74.74v2.63A.74.74,0,0,1,89.1,29.47Z"/><path id="Path_6534" data-name="Path 6534" class="cls-7" d="M93.72,29.47h0a.74.74,0,0,1-.74-.74h0V26.1a.74.74,0,0,1,.74-.74h0a.73.73,0,0,1,.74.74v2.63A.73.73,0,0,1,93.72,29.47Z"/></g></g><line id="Line_4" data-name="Line 4" class="cls-8" x1="78.24" y1="31.95" x2="94.95" y2="31.9"/><line id="Line_5" data-name="Line 5" class="cls-8" x1="78.24" y1="34.22" x2="94.85" y2="34.22"/><rect id="Rectangle_2095" data-name="Rectangle 2095" class="cls-9" x="79.21" y="37.57" width="13.94" height="7.23"/><line id="Line_17" data-name="Line 17" class="cls-8" x1="78.29" y1="36.34" x2="94.81" y2="36.34"/><g id="Group_1344" data-name="Group 1344"><path id="Path_6535" data-name="Path 6535" class="cls-10" d="M100.24,35.06a1.18,1.18,0,0,0-1.58.43l-3,6.33-3.24,6.83-.06.18-.47,3.72c0,.07,0,.09.08,0l2.6-2.7a1,1,0,0,0,.1-.17l6.26-13.17A1.15,1.15,0,0,0,100.24,35.06Z"/><line id="Line_18" data-name="Line 18" class="cls-11" x1="98.12" y1="37.09" x2="99.98" y2="37.97"/><line id="Line_19" data-name="Line 19" class="cls-11" x1="92.25" y1="50.6" x2="93.28" y2="51.08"/><line id="Line_20" data-name="Line 20" class="cls-12" x1="98.5" y1="35.83" x2="100.76" y2="36.88"/><path id="Path_6557" data-name="Path 6557" class="cls-13" d="M92.56,48.8l1.9.89"/></g><line id="Line_32" data-name="Line 32" class="cls-8" x1="78.24" y1="47.04" x2="94.95" y2="47"/><line id="Line_33" data-name="Line 33" class="cls-8" x1="78.24" y1="49.3" x2="92.3" y2="49.29"/><line id="Line_34" data-name="Line 34" class="cls-8" x1="78.29" y1="51.43" x2="94.81" y2="51.43"/><line id="Line_35" data-name="Line 35" class="cls-8" x1="78.29" y1="53.69" x2="94.81" y2="53.69"/></g><g id="Group_1354" data-name="Group 1354"><g id="Group_1345" data-name="Group 1345"><ellipse id="Ellipse_110" data-name="Ellipse 110" class="cls-14" cx="34.2" cy="57.42" rx="4.53" ry="4.55"/><path id="Path_6536" data-name="Path 6536" class="cls-15" d="M32.51,60.18V55.3a.58.58,0,0,1,.37-.55,1.87,1.87,0,0,1,.85-.07c.63,0,1.55.91,2.73.62v2.61c-1.33.47-2.05-.29-2.72-.49a1.31,1.31,0,0,0-1.23.26"/></g><ellipse id="Ellipse_111" data-name="Ellipse 111" class="cls-16" cx="57.83" cy="34.37" rx="4.52" ry="4.53"/><g id="Group_1346" data-name="Group 1346"><path id="Path_6537" data-name="Path 6537" class="cls-17" d="M49.93,51.15H33.75V49.36"/><path id="Path_6538" data-name="Path 6538" class="cls-17" d="M40.82,57.43h9.11V46h2.72"/><line id="Line_22" data-name="Line 22" class="cls-17" x1="49.93" y1="57.43" x2="52.47" y2="57.43"/><path id="Path_6539" data-name="Path 6539" class="cls-17" d="M44.13,50.7V34.64h7.38"/><line id="Line_23" data-name="Line 23" class="cls-17" x1="44.58" y1="34.64" x2="38.92" y2="34.64"/></g><g id="Group_1347" data-name="Group 1347"><path id="Path_6540" data-name="Path 6540" class="cls-16" d="M56.29,35.56a1.55,1.55,0,0,0,1.23,1.84,1.57,1.57,0,0,0,1.84-1.23,1.55,1.55,0,0,0-1.23-1.84l-.3,0a1.34,1.34,0,0,1-1.44-1.17,1.45,1.45,0,0,1,2.83,0"/><line id="Line_24" data-name="Line 24" class="cls-8" x1="57.83" y1="37.21" x2="57.83" y2="31.54"/></g><g id="Group_1348" data-name="Group 1348"><ellipse id="Ellipse_112" data-name="Ellipse 112" class="cls-16" cx="33.7" cy="41.59" rx="1.49" ry="1.55"/><path id="Path_6541" data-name="Path 6541" class="cls-16" d="M30.86,47.42s.13-3,1.9-3.06c.72,0,1.35,0,1.87,0,1.85,0,1.83,3.08,1.83,3.08h0c0,.27-1.25.49-2.8.49s-2.79-.22-2.79-.49c0,0,0,0,0,0Z"/></g><g id="Group_1349" data-name="Group 1349"><rect id="Rectangle_2096" data-name="Rectangle 2096" class="cls-16" x="53.83" y="44.11" width="2.45" height="3.28"/><path id="Path_6542" data-name="Path 6542" class="cls-16" d="M58.72,48.91l-2.45-1.54V44.1l2.45-1.54Z"/><path id="Path_6543" data-name="Path 6543" class="cls-8" d="M59.82,43.49a3.6,3.6,0,0,1,0,4.51"/><path id="Path_6544" data-name="Path 6544" class="cls-8" d="M60.87,42.6a5,5,0,0,1,0,6.27"/></g><g id="Group_1350" data-name="Group 1350"><ellipse id="Ellipse_113" data-name="Ellipse 113" class="cls-1" cx="57.77" cy="57.4" rx="1.65" ry="1.66" transform="translate(-19.08 84.37) rotate(-64.15)"/><path id="Path_6545" data-name="Path 6545" class="cls-7" d="M60.75,60.37l.78-1.16a.2.2,0,0,0,0-.24l-.61-.42a.16.16,0,0,1-.06-.18,5.23,5.23,0,0,0,.12-.54.16.16,0,0,1,.12-.14l.6-.1a.3.3,0,0,0,.24-.35h0L61.68,56a.17.17,0,0,0-.19-.13l-.72.13a.18.18,0,0,1-.18-.08,2,2,0,0,0-.3-.46.2.2,0,0,1,0-.2l.42-.61a.19.19,0,0,0,0-.24l-1.15-.81a.16.16,0,0,0-.23,0h0l-.42.62a.16.16,0,0,1-.17,0,3.23,3.23,0,0,0-.54-.11A.15.15,0,0,1,58,54l-.14-.73a.17.17,0,0,0-.19-.13l-1.37.25a.18.18,0,0,0-.14.19l.14.73a.15.15,0,0,1-.09.17,3.64,3.64,0,0,0-.46.3.15.15,0,0,1-.19,0L55,54.41a.16.16,0,0,0-.23,0h0L54,55.61a.18.18,0,0,0,0,.23l.62.42a.18.18,0,0,1,0,.19c0,.17-.08.35-.11.53a.16.16,0,0,1-.13.14l-.72.13a.17.17,0,0,0-.13.19l.26,1.4A.17.17,0,0,0,54,59l.73-.13a.16.16,0,0,1,.17.08,3.76,3.76,0,0,0,.3.47.15.15,0,0,1,0,.19l-.41.61a.19.19,0,0,0,0,.24l1.15.81a.17.17,0,0,0,.23,0h0l.41-.61a.17.17,0,0,1,.19-.06,2.38,2.38,0,0,0,.53.11.16.16,0,0,1,.14.14l.13.73a.16.16,0,0,0,.19.13l1.38-.25a.17.17,0,0,0,.13-.19l-.13-.73a.16.16,0,0,1,.09-.17,3.29,3.29,0,0,0,.46-.3A.15.15,0,0,1,60,60l.61.42C60.6,60.47,60.7,60.45,60.75,60.37Zm-3.94-1.59a1.69,1.69,0,0,1-.44-2.31A1.63,1.63,0,0,1,58.63,56l0,0a1.68,1.68,0,0,1,.43,2.31,1.62,1.62,0,0,1-2.25.43l0,0Z"/></g><g id="Group_1353" data-name="Group 1353"><g id="Group_1351" data-name="Group 1351"><path id="Path_6546" data-name="Path 6546" class="cls-7" d="M37.24,38.48H30.08a.09.09,0,0,1-.1-.1h0l.58-7.13a.15.15,0,0,1,.14-.13h5.9a.15.15,0,0,1,.15.13l.57,7.13a.09.09,0,0,1-.08.11Z"/><path id="Path_6547" data-name="Path 6547" class="cls-17" d="M32.17,32c0-1.37.65-2.48,1.48-2.48s1.41,1.12,1.41,2.48"/></g><g id="Group_1352" data-name="Group 1352"><path id="Path_6548" data-name="Path 6548" class="cls-18" d="M32.81,34.83l.7.67a.09.09,0,0,0,.13,0h0L35,34.07"/></g></g></g></g></g></svg>