<?xml version="1.0" encoding="utf-8"?>
<!-- Generator: Adobe Illustrator 24.0.1, SVG Export Plug-In . SVG Version: 6.00 Build 0)  -->
<svg version="1.1" id="Layer_1" xmlns="http://www.w3.org/2000/svg" xmlns:xlink="http://www.w3.org/1999/xlink" x="0px" y="0px"
	 viewBox="0 0 50.8 50.2" style="enable-background:new 0 0 50.8 50.2;" xml:space="preserve">
<style type="text/css">
	.st0{display:none;}
	.st1{display:inline;}
	.st2{fill:#C3D0D7;}
	.st3{fill:none;stroke:#666666;stroke-width:2;stroke-miterlimit:10;}
	.st4{fill:#FFFFFF;stroke:#666666;stroke-width:2;stroke-miterlimit:10;}
	.st5{fill:#E6CFC4;}
	.st6{opacity:0.6;}
	.st7{fill:none;stroke:#666666;stroke-miterlimit:10;}
	.st8{clip-path:url(#SVGID_2_);}
	.st9{fill:#666666;}
</style>
<g id="Layer_1_1_" class="st0">
	<title>VideoIcon</title>
	<g id="Layer_2_1_" class="st1">
		<g id="Layer_1-2">
			<path class="st2" d="M46.4,27C46.4,14.2,36,3.8,23.2,3.8S0,14.2,0,27s10.4,23.2,23.2,23.2l0,0C36,50.2,46.4,39.8,46.4,27z"/>
			<path class="st3" d="M49.8,24.2C49.8,11.4,39.5,1,26.6,1C13.8,1,3.4,11.4,3.4,24.2s10.4,23.2,23.2,23.2l0,0
				C39.5,47.4,49.8,37,49.8,24.2C49.9,24.2,49.8,24.2,49.8,24.2z"/>
			<polygon class="st4" points="36.9,25.1 20.8,36.2 20.8,14 			"/>
		</g>
	</g>
</g>
<g id="Layer_2_3_">
	<g id="Layer_2_2_">
		<g id="Layer_1-2_1_">
			<path class="st5" d="M40,43.4L40,43.4c9.1-9.1,9.1-23.7,0-32.8s-23.7-9.1-32.8,0s-9.1,23.7,0,32.8S31,52.5,40,43.4z"/>
			<g class="st6">
				<path class="st7" d="M43.1,41L43.1,41c9.1-9.1,9.1-23.7,0-32.8s-23.8-9.1-32.8,0s-9,23.8,0,32.8C19.4,50.1,34.1,50.1,43.1,41z"
					/>
			</g>
			<g>
				<g>
					<defs>
						<path id="SVGID_1_" d="M43.1,41L43.1,41c9.1-9.1,9.1-23.7,0-32.8s-23.8-9.1-32.8,0s-9,23.8,0,32.8
							C19.4,50.1,34.1,50.1,43.1,41z"/>
					</defs>
					<clipPath id="SVGID_2_">
						<use xlink:href="#SVGID_1_"  style="overflow:visible;"/>
					</clipPath>
					<g class="st8">
						<polygon class="st4" points="28.5,15.9 7.6,-4.9 3.3,-0.6 1.3,1.4 -3,5.7 17.9,26.6 39.4,37 						"/>
						<path id="Path_20153" class="st9" d="M34.5,29.8l-2.8,2.8l5.9,2.9L34.5,29.8z"/>
						<line class="st3" x1="23.2" y1="21.2" x2="2.7" y2="0.7"/>
						<line class="st3" x1="17.9" y1="26.6" x2="28.5" y2="15.9"/>
					</g>
				</g>
			</g>
			<path class="st3" d="M43.1,41L43.1,41c9.1-9.1,9.1-23.7,0-32.8s-23.8-9.1-32.8,0s-9,23.8,0,32.8C19.4,50.1,34.1,50.1,43.1,41z"/>
		</g>
	</g>
</g>
</svg>
