<?xml version="1.0" encoding="utf-8"?>
<!-- Generator: Adobe Illustrator 22.0.1, SVG Export Plug-In . SVG Version: 6.00 Build 0)  -->
<svg version="1.1" xmlns="http://www.w3.org/2000/svg" xmlns:xlink="http://www.w3.org/1999/xlink" x="0px" y="0px"
	 viewBox="0 0 50.8 50.2" style="enable-background:new 0 0 50.8 50.2;" xml:space="preserve">
<style type="text/css">
	.st0{display:none;}
	.st1{display:inline;}
	.st2{fill:#C3D0D7;}
	.st3{fill:none;stroke:#666666;stroke-width:2;stroke-miterlimit:10;}
	.st4{fill:#FFFFFF;stroke:#666666;stroke-width:2;stroke-miterlimit:10;}
	.st5{fill:#E6CFC4;}
	.st6{opacity:0.6;}
	.st7{fill:none;stroke:#666666;stroke-miterlimit:10;}
	.st8{clip-path:url(#SVGID_2_);}
	.st9{fill:#666666;}
</style>
<g id="Layer_1" class="st0">
	<title>VideoIcon</title>
	<g id="Layer_2_1_" class="st1">
		<g id="Layer_1-2">
			<path class="st2" d="M46.4,27C46.4,14.2,36,3.8,23.2,3.8C10.4,3.8,0,14.2,0,27s10.4,23.2,23.2,23.2c0,0,0,0,0,0
				C36,50.2,46.4,39.8,46.4,27z"/>
			<path class="st3" d="M49.8,24.2C49.8,11.4,39.5,1,26.6,1C13.8,1,3.4,11.4,3.4,24.2c0,12.8,10.4,23.2,23.2,23.2c0,0,0,0,0,0
				C39.5,47.4,49.8,37,49.8,24.2C49.9,24.2,49.8,24.2,49.8,24.2z"/>
			<polygon class="st4" points="36.9,25.1 20.8,36.2 20.8,14 			"/>
		</g>
	</g>
</g>
<g id="Layer_2">
	<g id="Layer_2_2_">
		<g id="Layer_1-2_1_">
			<path class="st5" d="M44.1,43.4c9.1-9.1,9.1-23.7,0-32.8s-23.7-9.1-32.8,0s-9.1,23.7,0,32.8l0,0C20.3,52.5,35,52.5,44.1,43.4z"/>
			<g class="st6">
				<path class="st7" d="M41,41C50,32,50,17.3,41,8.2s-23.7-9.1-32.8,0s-9.1,23.7,0,32.8c0,0,0,0,0,0C17.2,50.1,31.9,50.1,41,41z"/>
			</g>
			<g>
				<defs>
					<path id="SVGID_1_" d="M41,41C50,32,50,17.3,41,8.2s-23.7-9.1-32.8,0s-9.1,23.7,0,32.8c0,0,0,0,0,0C17.2,50.1,31.9,50.1,41,41z
						"/>
				</defs>
				<clipPath id="SVGID_2_">
					<use xlink:href="#SVGID_1_"  style="overflow:visible;"/>
				</clipPath>
				<g class="st8">
					<polygon class="st4" points="11.9,37 33.4,26.6 54.3,5.7 50,1.4 48,-0.6 43.7,-4.9 22.8,15.9 					"/>
					<path id="Path_20153" class="st9" d="M13.7,35.5l5.9-2.9l-2.8-2.8L13.7,35.5z"/>
					<line class="st3" x1="48.6" y1="0.7" x2="28.1" y2="21.2"/>
					<line class="st3" x1="22.8" y1="15.9" x2="33.4" y2="26.6"/>
				</g>
			</g>
			<path class="st3" d="M41,41C50,32,50,17.3,41,8.2s-23.7-9.1-32.8,0s-9.1,23.7,0,32.8c0,0,0,0,0,0C17.2,50.1,31.9,50.1,41,41z"/>
		</g>
	</g>
</g>
</svg>
