<svg xmlns="http://www.w3.org/2000/svg" xmlns:xlink="http://www.w3.org/1999/xlink" viewBox="0 0 65 65"><defs><clipPath id="clip-path"><path d="M62,1l-.76,0A60.24,60.24,0,0,0,1,61.24c0,.25,0,.51,0,.76H62Z" style="fill:none"/></clipPath></defs><title>Activity2</title><g id="Layer_2" data-name="Layer 2"><g id="Layer_1-2" data-name="Layer 1"><path d="M65,4l-.76,0A60.24,60.24,0,0,0,4,64.24c0,.25,0,.51,0,.76H65Z" style="fill:#e6cfc4"/><g style="clip-path:url(#clip-path)"><polygon points="34.67 56.6 42.5 34 42.5 4.5 36.38 4.5 33.62 4.5 27.5 4.5 27.5 34 34.67 56.6" style="fill:#fff;stroke:#666;stroke-miterlimit:10;stroke-width:2px"/><path id="Path_20153" data-name="Path 20153" d="M34.89,54.22,37,48H33Z" style="fill:#666"/><line x1="35" y1="5" x2="35" y2="34" style="fill:none;stroke:#666;stroke-miterlimit:10;stroke-width:2px"/><line x1="27.5" y1="34" x2="42.5" y2="34" style="fill:none;stroke:#666;stroke-miterlimit:10;stroke-width:2px"/></g><path d="M62,1l-.76,0A60.24,60.24,0,0,0,1,61.24c0,.25,0,.51,0,.76H62Z" style="fill:none;stroke:#666;stroke-miterlimit:10;stroke-width:2px"/></g></g></svg>