<svg id="Boss" xmlns="http://www.w3.org/2000/svg" width="180.597" height="624.323" viewBox="0 0 180.597 624.323">
  <path id="Path_7100" data-name="Path 7100" d="M7844.917-6927.5h50.868l.284-4.862c.541-9.335-14.635-7.013-23.256-11.159-3.566-1.72-9.876-12.369-9.876-12.369h-16.379Z" transform="translate(-7753.203 7551.82)" fill="#19325c"/>
  <path id="Path_7101" data-name="Path 7101" d="M7858.771-6947.748h-13.363l-.49,6.242h50.872l.271-2.552h-27.308Z" transform="translate(-7753.204 7565.828)" fill="#fff"/>
  <path id="Path_7102" data-name="Path 7102" d="M7814.826-6927.5H7849.8l.509-4.862c.7-6.617-4.248-7.473-10.58-11.713-2.711-1.816-5.541-11.815-5.541-11.815h-16.378Z" transform="translate(-7805.009 7551.82)" fill="#19325c"/>
  <path id="Path_7103" data-name="Path 7103" d="M7824.384-6947.748h-9.221l-.34,6.242h35.1l.188-2.552h-18.843Z" transform="translate(-7805.005 7565.828)" fill="#fff"/>
  <path id="Path_7104" data-name="Path 7104" d="M7855.525-6946.84l2.346.813,1.493-4.277-2.343-.817Zm4.458.875,2.344.818,1.494-4.279-2.342-.816Zm5.952-3.4-1.5,4.279,2.343.813,1.5-4.277Z" transform="translate(-7734.934 7560.023)" fill="#fff"/>
  <rect id="Rectangle_2215" data-name="Rectangle 2215" width="12.568" height="2.484" transform="translate(28.007 608.817)" fill="#fff"/>
  <rect id="Rectangle_2216" data-name="Rectangle 2216" width="12.568" height="2.484" transform="translate(32.117 612.611)" fill="#fff"/>
  <path id="Path_7105" data-name="Path 7105" d="M7888.218-7058.609l-1.072,35.324-.909,35.3-.91,35.293c-.328,11.759-.517,23.519-1.1,35.272l-3.008,70.517-1.488,35.239-1.359,35.231-21.449.047-1.5-35.145-1.637-35.133-3.307-70.238c-.339-11.709-1.637-23.391-2.6-35.082l-3.069-35.053-3.067-35.038-3.229-35.016Z" transform="translate(-7764.229 7374.964)" fill="#ec5665"/>
  <path id="Path_7106" data-name="Path 7106" d="M7885.93-7052.751l-6.74,34.84-6.58,34.867-6.582,34.876c-2.163,11.629-4.513,23.238-6.325,34.913l-11.593,69.979-5.78,35-5.649,35.017-21.3-2.562,2.809-35.388,2.682-35.409,5.333-70.831,5.291-70.861,2.641-35.441,2.485-35.466Z" transform="translate(-7804.05 7373.912)" fill="#ec5665"/>
  <path id="Path_7107" data-name="Path 7107" d="M7835.779-7025.453h66.282c7.167,0,13.007-6.11,13.044-13.65l.116-24.238h-92.236l-.117,24.238C7822.834-7031.563,7828.612-7025.453,7835.779-7025.453Z" transform="translate(-7791.155 7366.815)" fill="#ec5665"/>
  <g id="Group_1577" data-name="Group 1577" transform="translate(101.119 129.21)">
    <path id="Path_7108" data-name="Path 7108" d="M7873.54-7115.577c1.7,9.074,3.137,18.185,4.59,27.291,1.391,9.119,2.761,18.234,4.012,27.371,1.326,9.126,2.439,18.281,3.657,27.424l3.329,27.471-.27-1.357,5.826,25.988c1.838,8.69,3.778,17.353,5.509,26.071,1.8,8.7,3.494,17.427,5.162,26.162,1.606,8.752,3.229,17.5,4.6,26.308a6.724,6.724,0,0,1-5.615,7.677,6.722,6.722,0,0,1-7.343-4.329c-3.071-8.37-5.892-16.809-8.727-25.239-2.771-8.449-5.521-16.9-8.155-25.389-2.708-8.465-5.211-16.983-7.81-25.478l-7.5-25.56a6.6,6.6,0,0,1-.168-.731l-.1-.627-4.461-27.306c-1.382-9.117-2.866-18.222-4.139-27.356-1.347-9.123-2.575-18.262-3.784-27.4-1.144-9.149-2.3-18.3-3.2-27.486a12.429,12.429,0,0,1,11.157-13.583A12.478,12.478,0,0,1,7873.54-7115.577Z" transform="translate(-7847.479 7130.216)" fill="#a46c35"/>
    <path id="Path_7109" data-name="Path 7109" d="M7848.452-7108.3a17.427,17.427,0,0,1,13.63-18.664,17.421,17.421,0,0,1,20.73,13.308c3.387,15.514,5.617,28.518,5.617,28.518l-33.34,26.818C7852.426-7074.912,7850.041-7091.546,7848.452-7108.3Z" transform="translate(-7848.373 7127.37)" fill="#5bc5c9"/>
    <path id="Path_7110" data-name="Path 7110" d="M7893.176-7037.154l3.755,13.994a6.834,6.834,0,0,1-.683,5.19l-5.5,9.531a6.841,6.841,0,0,1-11.807.075l-10.819-18.229a13.722,13.722,0,0,1,8.241-20.259h0A13.724,13.724,0,0,1,7893.176-7037.154Z" transform="translate(-7817.687 7265.188)" fill="#a46c35"/>
  </g>
  <path id="Path_7111" data-name="Path 7111" d="M7864.047-7085.881c.161.729.312,1.464.471,2.191.014.258.031.509.04.767Z" transform="translate(-7720.262 7328.01)" fill="#f4a982"/>
  <path id="Path_7112" data-name="Path 7112" d="M7928.078-6944.905l4.965-165.383a19.6,19.6,0,0,0-19.6-19.6h-78.395a19.6,19.6,0,0,0-19.6,19.6l19.87,165.383-3.786,21.158h97.454Z" transform="translate(-7803.934 7252.242)" fill="#5bc5c9"/>
  <path id="Path_7113" data-name="Path 7113" d="M7826.628-7129.889a29.809,29.809,0,0,0,29.807,29.808,29.81,29.81,0,0,0,29.809-29.808Z" transform="translate(-7784.688 7252.242)" fill="#a46c35"/>
  <path id="Path_7114" data-name="Path 7114" d="M7836.948-7113.639h17.965l0-22.829-21.879-2.86Z" transform="translate(-7773.658 7235.992)" fill="#8e572a"/>
  <path id="Path_7115" data-name="Path 7115" d="M7851.322-7111.368h6.993c3.814-13.3,10.365-36.861,5-46.911-4.171-7.814-20.738-8.786-20.738-8.786Z" transform="translate(-7757.237 7188.241)" fill="#2b1607"/>
  <path id="Path_7116" data-name="Path 7116" d="M7883.344-7145.686c0-12.258-8.532-19.465-26.706-19.465s-26.705,7.207-26.705,19.465c0,9.684-1.937,27.595-1.316,37.257.692,10.733,4.22,17.638,12.1,24.35a25.348,25.348,0,0,0,15.922,6.279,25.351,25.351,0,0,0,15.926-6.279c7.878-6.712,11.405-13.616,12.1-24.35C7885.281-7118.091,7883.344-7136,7883.344-7145.686Z" transform="translate(-7781.472 7191.533)" fill="#a46c35"/>
  <path id="Path_7117" data-name="Path 7117" d="M7832.8-7120.274a110.491,110.491,0,0,0,3.277,16.785h6.579v-20.861c0-9.36,3.323-16.327,15.31-14.212v-32.05C7846.059-7175.148,7806.844-7165.8,7832.8-7120.274Z" transform="translate(-7789.052 7180.36)" fill="#42210b"/>
  <path id="Path_7118" data-name="Path 7118" d="M7834.789-7120.657v-20.861c0-9.36,3.324-16.327,15.311-14.212-3.388-3.98-16.693-8.635-19.045-4.016C7826.317-7150.432,7829.159-7133.969,7834.789-7120.657Z" transform="translate(-7781.188 7197.529)" fill="#2b1607"/>
  <path id="Path_7119" data-name="Path 7119" d="M7837.578-7142.109c0,11.333,17.481,11.333,17.481,0A41.437,41.437,0,0,1,7837.578-7142.109Z" transform="translate(-7765.829 7231.205)" fill="#fff"/>
  <path id="Path_7120" data-name="Path 7120" d="M7825.958-7141.456c1.332,5.479,4.54,9.921,7.164,9.921s3.67-4.441,2.341-9.921-4.54-9.92-7.162-9.92S7824.626-7146.934,7825.958-7141.456Z" transform="translate(-7786.842 7215.251)" fill="#8e572a"/>
  <path id="Path_7121" data-name="Path 7121" d="M7839.851-7146.6c0,2.634-1.1,4.771-2.457,4.771s-2.456-2.137-2.456-4.771,1.1-4.771,2.456-4.771S7839.851-7149.239,7839.851-7146.6Z" transform="translate(-7770.386 7215.251)" fill="#49341f"/>
  <path id="Path_7122" data-name="Path 7122" d="M7849.493-7146.6c0,2.634-1.1,4.771-2.459,4.771s-2.454-2.137-2.454-4.771,1.1-4.771,2.454-4.771S7849.493-7149.239,7849.493-7146.6Z" transform="translate(-7753.774 7215.251)" fill="#49341f"/>
  <g id="Group_1578" data-name="Group 1578" transform="translate(0 128.183)">
    <path id="Path_7123" data-name="Path 7123" d="M7855.93-7074.918h0a13.919,13.919,0,0,0,13.916-13.921v-19.7H7842.01v19.7A13.922,13.922,0,0,0,7855.93-7074.918Z" transform="translate(-7758.199 7160.82)" fill="#fff"/>
    <path id="Path_7124" data-name="Path 7124" d="M7846.748-7087.189h7.306v-4.966h-7.306a4.83,4.83,0,0,1-4.824-4.822,4.834,4.834,0,0,1,4.824-4.83h7.306v-4.966h-7.306a9.806,9.806,0,0,0-9.792,9.8A9.8,9.8,0,0,0,7846.748-7087.189Z" transform="translate(-7766.9 7163.858)" fill="#fff"/>
    <path id="Path_7125" data-name="Path 7125" d="M7844.635-7112.481l-8.509,103.4-22.676-7.965,34.861-41.432a6.732,6.732,0,0,1,9.483-.814,6.738,6.738,0,0,1,1.613,8.3l-25.367,47.837a12.115,12.115,0,0,1-16.38,5.027,12.108,12.108,0,0,1-6.4-11.686l.107-1.31,8.51-103.4a12.417,12.417,0,0,1,13.4-11.357A12.418,12.418,0,0,1,7844.635-7112.481Z" transform="translate(-7811.22 7130.893)" fill="#a46c35"/>
    <path id="Path_7126" data-name="Path 7126" d="M7813.857-7111.781a17.389,17.389,0,0,1,18.757-15.905,17.387,17.387,0,0,1,15.9,18.755l-4.151,50.424-32.526-18.965Z" transform="translate(-7810.148 7127.746)" fill="#5bc5c9"/>
    <path id="Path_7127" data-name="Path 7127" d="M7843.549-7078.073l13.9-4.083a6.852,6.852,0,0,0,4.075-3.285l5.271-9.659a6.839,6.839,0,0,0-6.085-10.115l-21.2.255a13.72,13.72,0,0,0-13,17.588h0A13.722,13.722,0,0,0,7843.549-7078.073Z" transform="translate(-7785.854 7166.544)" fill="#a46c35"/>
  </g>
  <path id="Path_7128" data-name="Path 7128" d="M7864.636-6943.5h-5.025a6.688,6.688,0,0,1-4.55-2.6l-5.192-6.9c-1.077-1.437-.794-2.6.641-2.6h5.026a6.671,6.671,0,0,1,4.551,2.6l5.191,6.9C7866.358-6944.657,7866.073-6943.5,7864.636-6943.5Z" transform="translate(-7745.799 7552.331)" fill="#fff"/>
  <path id="Path_7129" data-name="Path 7129" d="M7831.345-6943.5h-7.261a3.394,3.394,0,0,1-3.156-2.6l-1.478-6.9a2.036,2.036,0,0,1,2.041-2.6h7.261a3.389,3.389,0,0,1,3.154,2.6l1.477,6.9A2.033,2.033,0,0,1,7831.345-6943.5Z" transform="translate(-7797.142 7552.331)" fill="#fff"/>
  <path id="Path_7130" data-name="Path 7130" d="M7915.856-7054.437l-92.558.782-.863,14.241Z" transform="translate(-7791.907 7382.15)" fill="#19325c"/>
  <path id="Path_7131" data-name="Path 7131" d="M7846.261-7150.523l4.062,16.277a1.579,1.579,0,0,1-1.148,1.913,1.787,1.787,0,0,1-.21.037l-.369.04-7.079.74a2.5,2.5,0,0,1-2.745-2.228,2.5,2.5,0,0,1,2.225-2.743,2.726,2.726,0,0,1,.521,0l7.079.741-1.727,1.989Z" transform="translate(-7763.801 7216.718)" fill="#7d4921"/>
  <g id="Group_1579" data-name="Group 1579" transform="translate(43.846 59.622)">
    <path id="Path_7132" data-name="Path 7132" d="M7861.772-7135.518h-15.512a4.349,4.349,0,0,1-4.347-4.343v-8.731a4.351,4.351,0,0,1,4.347-4.346h15.512a4.352,4.352,0,0,1,4.345,4.346v8.731A4.349,4.349,0,0,1,7861.772-7135.518Zm-15.512-14.935a1.863,1.863,0,0,0-1.863,1.86v8.731a1.864,1.864,0,0,0,1.863,1.86h15.512a1.863,1.863,0,0,0,1.86-1.86v-8.731a1.862,1.862,0,0,0-1.86-1.86Z" transform="translate(-7802.208 7152.938)" fill="#fff"/>
    <path id="Path_7133" data-name="Path 7133" d="M7851.521-7135.518H7836.01a4.349,4.349,0,0,1-4.348-4.343v-8.731a4.352,4.352,0,0,1,4.348-4.346h15.511a4.351,4.351,0,0,1,4.345,4.346v8.731A4.349,4.349,0,0,1,7851.521-7135.518Zm-15.511-14.935a1.859,1.859,0,0,0-1.86,1.86v8.731a1.859,1.859,0,0,0,1.86,1.86h15.511a1.864,1.864,0,0,0,1.861-1.86v-8.731a1.863,1.863,0,0,0-1.861-1.86Z" transform="translate(-7819.863 7152.938)" fill="#fff"/>
    <path id="Path_7134" data-name="Path 7134" d="M7847.073-7148.615h-6.188a1.243,1.243,0,0,1-1.244-1.243,1.241,1.241,0,0,1,1.244-1.239h6.188a1.241,1.241,0,0,1,1.24,1.239A1.243,1.243,0,0,1,7847.073-7148.615Z" transform="translate(-7806.124 7156.105)" fill="#fff"/>
    <path id="Path_7135" data-name="Path 7135" d="M7840.368-7148.615h-11.8a1.246,1.246,0,0,1-1.247-1.243,1.244,1.244,0,0,1,1.247-1.239h11.8a1.243,1.243,0,0,1,1.243,1.239A1.245,1.245,0,0,1,7840.368-7148.615Z" transform="translate(-7827.325 7156.105)" fill="#fff"/>
  </g>
  <path id="Path_7136" data-name="Path 7136" d="M7883.6-7172.647c-1.952,14.421-15.393,10.183-18.621,5.887,3.238-.318,5.651-.911,7.139-1.841-11.728-2.444-26.778-14.566-35.579,3.5v32.05c6.369-6.631,15.74-3.5,23.107,1.877C7880.242-7116.135,7908.548-7144.618,7883.6-7172.647Z" transform="translate(-7767.625 7174.846)" fill="#42210b"/>
  <path id="Path_7137" data-name="Path 7137" d="M7859.653-7147.762a26.579,26.579,0,0,0-2.939-1.674,25.324,25.324,0,0,0-6.506-2.164,21.684,21.684,0,0,0-7.036-.154,20.637,20.637,0,0,0-6.858,2.283l-.037.019a1.92,1.92,0,0,0-.228.147,1.9,1.9,0,0,0-.375,2.661,1.9,1.9,0,0,0,2.661.376,17.011,17.011,0,0,1,5.433-2.705,18.953,18.953,0,0,1,6.224-.746,23.925,23.925,0,0,1,6.363,1.162,27.088,27.088,0,0,1,5.993,2.794A28.665,28.665,0,0,0,7859.653-7147.762Zm-23.038-11.23.052.014a11.649,11.649,0,0,0-1.161,2.025l-.013.023c-.024.058-.044.117-.064.182a1.619,1.619,0,0,0,.872,1.872,1.967,1.967,0,0,0,.5.157,6.012,6.012,0,0,0-1.392,2.5l0,.02c-.008.038-.017.078-.024.122a1.417,1.417,0,0,0,.6,1.318,1.9,1.9,0,0,0,2.589-.132,15.843,15.843,0,0,1,4.688-3.537,17.775,17.775,0,0,1,5.871-1.724,22.488,22.488,0,0,1,6.35.177,25.517,25.517,0,0,1,6.238,1.911,26.381,26.381,0,0,0-2.9-1.592,25.751,25.751,0,0,0-3.117-1.22,23.706,23.706,0,0,0-6.65-1.118,19.5,19.5,0,0,0-5.766.328,18.513,18.513,0,0,0-3.912,1.313,15.215,15.215,0,0,1,3.382-3.528,16.983,16.983,0,0,1,5.517-2.7,21.218,21.218,0,0,1,6.335-.806,24.1,24.1,0,0,1,6.487,1.025,24.68,24.68,0,0,0-3.112-1.187,23.839,23.839,0,0,0-3.288-.763,22.767,22.767,0,0,0-6.8-.076,18.36,18.36,0,0,0-4.491.813,17.536,17.536,0,0,0-3.5,1.563,14.888,14.888,0,0,1,2.35-3.32,16.856,16.856,0,0,1,5.161-3.682,21,21,0,0,1,6.322-1.791,23.643,23.643,0,0,1,6.729.143,24.228,24.228,0,0,0-6.778-1.089,22.547,22.547,0,0,0-6.949.967,19.279,19.279,0,0,0-6.4,3.354,18.451,18.451,0,0,0-4.74,5.738l-.017.034c-.038.072-.072.153-.1.23A1.9,1.9,0,0,0,7836.615-7158.992Z" transform="translate(-7769.769 7180.173)" fill="#684d3c"/>
</svg>
