<svg xmlns="http://www.w3.org/2000/svg" viewBox="0 0 141.82 171.61"><defs><style>.cls-1{fill:#7d677d;opacity:0.4;}.cls-2{fill:none;stroke:#666;stroke-linecap:round;stroke-linejoin:round;stroke-width:4px;}</style></defs><title>Budget</title><g id="Layer_2" data-name="Layer 2"><g id="LY_Budget"><rect id="Rectangle_5194" data-name="Rectangle 5194" class="cls-1" y="12.72" width="133.24" height="158.89"/><polyline class="cls-2" points="97.41 2 97.41 51.03 139.77 51.03"/><polygon class="cls-2" points="97.84 2 5.8 2 5.8 163.57 139.82 163.57 139.82 49.94 97.84 2"/><path d="M20.45,101.38h5.91v2.24H17.67V90.11h2.78Z"/><path d="M33.6,103.62a3.2,3.2,0,0,1-.27-.9,3.22,3.22,0,0,1-2.53,1.09,3.57,3.57,0,0,1-2.45-.86,2.76,2.76,0,0,1-1-2.15,2.85,2.85,0,0,1,1.19-2.45A5.85,5.85,0,0,1,32,97.49h1.23v-.58a1.65,1.65,0,0,0-.36-1.11,1.4,1.4,0,0,0-1.13-.42,1.58,1.58,0,0,0-1.06.33,1.11,1.11,0,0,0-.38.89H27.61A2.78,2.78,0,0,1,28.14,95a3.58,3.58,0,0,1,1.53-1.16,5.53,5.53,0,0,1,2.2-.42,4.4,4.4,0,0,1,2.95.93A3.26,3.26,0,0,1,35.91,97v4.35a4.85,4.85,0,0,0,.4,2.16v.16Zm-2.22-1.86a2.3,2.3,0,0,0,1.1-.27,1.7,1.7,0,0,0,.74-.71V99.06h-1c-1.34,0-2.06.46-2.15,1.39v.16a1.05,1.05,0,0,0,.35.82A1.33,1.33,0,0,0,31.38,101.76Z"/><path d="M43.41,100.85a.88.88,0,0,0-.49-.78,5.36,5.36,0,0,0-1.56-.5q-3.59-.75-3.59-3a2.76,2.76,0,0,1,1.11-2.23,4.52,4.52,0,0,1,2.9-.89,4.8,4.8,0,0,1,3.06.9A2.84,2.84,0,0,1,46,96.63H43.3a1.29,1.29,0,0,0-.37-.95,1.55,1.55,0,0,0-1.16-.37,1.58,1.58,0,0,0-1.05.31,1,1,0,0,0-.37.77.81.81,0,0,0,.43.72,4.25,4.25,0,0,0,1.42.48,10.94,10.94,0,0,1,1.69.45,2.78,2.78,0,0,1,2.12,2.7A2.62,2.62,0,0,1,44.83,103a5.09,5.09,0,0,1-3,.85,5.3,5.3,0,0,1-2.24-.45A3.71,3.71,0,0,1,38,102.12a2.79,2.79,0,0,1-.56-1.69H40a1.39,1.39,0,0,0,.53,1.09,2.07,2.07,0,0,0,1.32.38,1.89,1.89,0,0,0,1.16-.29A.91.91,0,0,0,43.41,100.85Z"/><path d="M51,91.12v2.46h1.72v2H51v5a1.22,1.22,0,0,0,.21.8,1.08,1.08,0,0,0,.82.24,3.74,3.74,0,0,0,.79-.07v2a5.59,5.59,0,0,1-1.63.24A2.55,2.55,0,0,1,48.27,101V95.55H46.8v-2h1.47V91.12Z"/><path d="M21.24,122.63l1.86-6.25H26l-4,11.6-.22.53a3.07,3.07,0,0,1-3,2,4.14,4.14,0,0,1-1.19-.18v-2H18A2.13,2.13,0,0,0,19.1,128a1.49,1.49,0,0,0,.59-.77l.32-.82-3.52-10.07h2.89Z"/><path d="M31.53,126.61a4.89,4.89,0,0,1-3.59-1.36,4.78,4.78,0,0,1-1.39-3.61v-.26a6,6,0,0,1,.58-2.7,4.31,4.31,0,0,1,1.66-1.84,4.63,4.63,0,0,1,2.44-.64,4.16,4.16,0,0,1,3.25,1.3,5.3,5.3,0,0,1,1.18,3.68v1.09H29.27a2.47,2.47,0,0,0,.78,1.58,2.36,2.36,0,0,0,1.66.59,2.89,2.89,0,0,0,2.42-1.12l1.32,1.48a4.08,4.08,0,0,1-1.64,1.33A5.29,5.29,0,0,1,31.53,126.61Zm-.31-8.25a1.67,1.67,0,0,0-1.29.54,2.8,2.8,0,0,0-.63,1.55H33v-.22a2,2,0,0,0-.48-1.38A1.72,1.72,0,0,0,31.22,118.36Z"/><path d="M43,126.42a2.66,2.66,0,0,1-.27-.9,3.24,3.24,0,0,1-2.53,1.09,3.57,3.57,0,0,1-2.45-.86,2.76,2.76,0,0,1-1-2.15A2.86,2.86,0,0,1,38,121.15a5.79,5.79,0,0,1,3.42-.86h1.24v-.58a1.65,1.65,0,0,0-.36-1.11,1.4,1.4,0,0,0-1.13-.42,1.58,1.58,0,0,0-1.06.33,1.08,1.08,0,0,0-.38.89H37a2.72,2.72,0,0,1,.54-1.62,3.61,3.61,0,0,1,1.52-1.16,5.62,5.62,0,0,1,2.21-.42,4.4,4.4,0,0,1,2.95.93,3.29,3.29,0,0,1,1.09,2.62v4.35a4.71,4.71,0,0,0,.4,2.16v.16Zm-2.22-1.86a2.3,2.3,0,0,0,1.1-.27,1.7,1.7,0,0,0,.74-.71v-1.72h-1c-1.35,0-2.06.46-2.15,1.39v.16a1.09,1.09,0,0,0,.35.82A1.37,1.37,0,0,0,40.78,124.56Z"/><path d="M53,118.9a7.41,7.41,0,0,0-1-.08,2,2,0,0,0-2,1v6.57H47.37v-10H49.9l.07,1.2a2.5,2.5,0,0,1,2.24-1.38,2.84,2.84,0,0,1,.84.12Z"/><path d="M55.22,117.06,54,116.33a4.92,4.92,0,0,0,.83-2.59v-1.57h2.13v1.44a4.21,4.21,0,0,1-.46,1.81A5.05,5.05,0,0,1,55.22,117.06Z"/><path d="M62.09,123.65a.86.86,0,0,0-.49-.78,5.16,5.16,0,0,0-1.56-.5q-3.59-.75-3.58-3.05a2.76,2.76,0,0,1,1.11-2.23,4.5,4.5,0,0,1,2.9-.89,4.79,4.79,0,0,1,3.05.9,2.82,2.82,0,0,1,1.15,2.33H62a1.29,1.29,0,0,0-.37-1,2,2,0,0,0-2.21-.06.94.94,0,0,0-.37.77.82.82,0,0,0,.42.72,4.33,4.33,0,0,0,1.42.48,10.64,10.64,0,0,1,1.69.45,2.77,2.77,0,0,1,2.13,2.7,2.62,2.62,0,0,1-1.18,2.22,5.13,5.13,0,0,1-3,.85,5.3,5.3,0,0,1-2.24-.45,3.67,3.67,0,0,1-1.54-1.24,2.85,2.85,0,0,1-.56-1.69h2.55a1.38,1.38,0,0,0,.52,1.09,2.07,2.07,0,0,0,1.32.38,1.93,1.93,0,0,0,1.17-.29A.9.9,0,0,0,62.09,123.65Z"/><path d="M17.67,149.22V135.71H22.4a6.27,6.27,0,0,1,3.73.94,3.22,3.22,0,0,1,1.27,2.76,3,3,0,0,1-.51,1.75,2.87,2.87,0,0,1-1.42,1.11,2.85,2.85,0,0,1,1.64,1,3.1,3.1,0,0,1,.6,1.93,3.59,3.59,0,0,1-1.24,2.95,5.58,5.58,0,0,1-3.55,1Zm2.78-7.85h2.06c1.41,0,2.11-.58,2.11-1.68a1.57,1.57,0,0,0-.53-1.32,2.83,2.83,0,0,0-1.69-.4H20.45Zm0,2V147h2.39a2.29,2.29,0,0,0,1.53-.46,1.63,1.63,0,0,0,.56-1.3A1.7,1.7,0,0,0,23,143.34Z"/><path d="M35.63,148.2a3.37,3.37,0,0,1-2.74,1.21,3.18,3.18,0,0,1-2.47-.93,4,4,0,0,1-.87-2.72v-6.58h2.69v6.49c0,1.05.47,1.57,1.42,1.57a1.94,1.94,0,0,0,1.88-.94v-7.12h2.69v10H35.71Z"/><path d="M39.83,144.13a6,6,0,0,1,1.06-3.74A3.4,3.4,0,0,1,43.77,139a3.07,3.07,0,0,1,2.42,1.09V135h2.69v14.25H46.46l-.13-1.07a3.15,3.15,0,0,1-2.58,1.26,3.4,3.4,0,0,1-2.84-1.4A6.19,6.19,0,0,1,39.83,144.13Zm2.68.2a3.92,3.92,0,0,0,.5,2.16,1.6,1.6,0,0,0,1.43.75,1.8,1.8,0,0,0,1.75-1.05v-4a1.77,1.77,0,0,0-1.74-1C43.16,141.18,42.51,142.23,42.51,144.33Z"/><path d="M50.57,144.13a5.84,5.84,0,0,1,1.1-3.72,3.55,3.55,0,0,1,3-1.41,3.11,3.11,0,0,1,2.57,1.13l.11-.95h2.43v9.71a4.3,4.3,0,0,1-.6,2.29,3.79,3.79,0,0,1-1.68,1.48,5.9,5.9,0,0,1-2.54.51,5.37,5.37,0,0,1-2.15-.44,3.83,3.83,0,0,1-1.59-1.13L52.37,150a3.15,3.15,0,0,0,2.43,1.13,2.27,2.27,0,0,0,1.66-.58,2.15,2.15,0,0,0,.59-1.61v-.54a3.1,3.1,0,0,1-2.44,1A3.55,3.55,0,0,1,51.69,148a5.84,5.84,0,0,1-1.12-3.75Zm2.68.2a3.63,3.63,0,0,0,.55,2.14,1.72,1.72,0,0,0,1.5.77,1.85,1.85,0,0,0,1.75-.91V142.1a1.84,1.84,0,0,0-1.73-.92,1.74,1.74,0,0,0-1.52.79A4.09,4.09,0,0,0,53.25,144.33Z"/><path d="M66.42,149.41a4.89,4.89,0,0,1-3.59-1.36,4.78,4.78,0,0,1-1.39-3.61v-.26a6,6,0,0,1,.59-2.7,4.29,4.29,0,0,1,1.65-1.84,4.67,4.67,0,0,1,2.45-.64,4.15,4.15,0,0,1,3.24,1.3A5.25,5.25,0,0,1,70.55,144v1.09H64.16a2.54,2.54,0,0,0,.78,1.58,2.36,2.36,0,0,0,1.66.59A2.89,2.89,0,0,0,69,146.12l1.32,1.48a4,4,0,0,1-1.63,1.33A5.37,5.37,0,0,1,66.42,149.41Zm-.3-8.25a1.69,1.69,0,0,0-1.3.54,2.8,2.8,0,0,0-.63,1.55h3.73V143a2,2,0,0,0-.49-1.38A1.68,1.68,0,0,0,66.12,141.16Z"/><path d="M75.28,136.71v2.47H77v2H75.28v5a1.16,1.16,0,0,0,.22.8,1.06,1.06,0,0,0,.81.24,3.74,3.74,0,0,0,.79-.07v2a5.58,5.58,0,0,1-1.62.24,2.56,2.56,0,0,1-2.88-2.85v-5.41H71.14v-2H72.6v-2.47Z"/></g></g></svg>