<svg xmlns="http://www.w3.org/2000/svg" viewBox="0 0 141.82 171.61"><defs><style>.cls-1{fill:#7d677d;opacity:0.4;}.cls-2{fill:none;stroke:#666;stroke-linecap:round;stroke-linejoin:round;stroke-width:4px;}</style></defs><title>Budget_FR</title><g id="Layer_2" data-name="Layer 2"><g id="LanDernierB"><rect id="Rectangle_5194" data-name="Rectangle 5194" class="cls-1" y="12.72" width="133.24" height="158.89"/><polyline class="cls-2" points="97.41 2 97.41 51.03 139.77 51.03"/><polygon class="cls-2" points="97.84 2 5.8 2 5.8 163.57 139.82 163.57 139.82 49.94 97.84 2"/><path d="M17.65,104.34V90.84h4.73a6.2,6.2,0,0,1,3.73.94,3.24,3.24,0,0,1,1.27,2.76,3.07,3.07,0,0,1-.51,1.75,3,3,0,0,1-1.42,1.11,2.87,2.87,0,0,1,1.64,1,3.1,3.1,0,0,1,.59,1.93,3.55,3.55,0,0,1-1.24,2.95,5.57,5.57,0,0,1-3.54,1Zm2.78-7.84h2.06c1.4,0,2.11-.59,2.11-1.68a1.53,1.53,0,0,0-.54-1.32,2.78,2.78,0,0,0-1.68-.41H20.43Zm0,2v3.65h2.38a2.32,2.32,0,0,0,1.54-.47,1.59,1.59,0,0,0,.55-1.29A1.7,1.7,0,0,0,23,98.46Z"/><path d="M35.61,103.32a3.35,3.35,0,0,1-2.75,1.21,3.16,3.16,0,0,1-2.46-.93,3.93,3.93,0,0,1-.87-2.72V94.31h2.68v6.49c0,1,.48,1.57,1.43,1.57a1.93,1.93,0,0,0,1.87-1V94.31h2.7v10H35.68Z"/><path d="M39.81,99.25a6.08,6.08,0,0,1,1-3.74,3.43,3.43,0,0,1,2.88-1.39,3.1,3.1,0,0,1,2.43,1.1V90.09h2.69v14.25H46.43l-.13-1.06a3.14,3.14,0,0,1-2.57,1.25,3.4,3.4,0,0,1-2.85-1.4A6.26,6.26,0,0,1,39.81,99.25Zm2.68.2a4,4,0,0,0,.49,2.17,1.61,1.61,0,0,0,1.43.75,1.81,1.81,0,0,0,1.76-1.05v-4a1.78,1.78,0,0,0-1.74-1C43.14,96.3,42.49,97.35,42.49,99.45Z"/><path d="M50.54,99.25a5.9,5.9,0,0,1,1.1-3.72,3.57,3.57,0,0,1,3-1.41,3.13,3.13,0,0,1,2.57,1.13l.11-.94h2.43V104a4.27,4.27,0,0,1-.6,2.29,3.87,3.87,0,0,1-1.68,1.49,5.94,5.94,0,0,1-2.54.51,5.6,5.6,0,0,1-2.16-.44,3.83,3.83,0,0,1-1.58-1.14l1.18-1.63a3.17,3.17,0,0,0,2.43,1.12,2.32,2.32,0,0,0,1.67-.57A2.16,2.16,0,0,0,57,104v-.54a3.1,3.1,0,0,1-2.44,1,3.56,3.56,0,0,1-2.93-1.41,6,6,0,0,1-1.12-3.76Zm2.69.2a3.68,3.68,0,0,0,.54,2.14,1.75,1.75,0,0,0,1.51.78,1.87,1.87,0,0,0,1.75-.92V97.22a1.87,1.87,0,0,0-1.74-.92,1.74,1.74,0,0,0-1.51.79A4.11,4.11,0,0,0,53.23,99.45Z"/><path d="M66.4,104.53a5,5,0,0,1-3.6-1.35,4.85,4.85,0,0,1-1.38-3.61v-.26A6.09,6.09,0,0,1,62,96.6a4.27,4.27,0,0,1,1.66-1.83,4.64,4.64,0,0,1,2.44-.65,4.16,4.16,0,0,1,3.25,1.3,5.32,5.32,0,0,1,1.18,3.68v1.1H64.14a2.47,2.47,0,0,0,.78,1.58,2.41,2.41,0,0,0,1.66.59A2.89,2.89,0,0,0,69,101.25l1.31,1.47a4,4,0,0,1-1.63,1.33A5.35,5.35,0,0,1,66.4,104.53Zm-.31-8.25a1.67,1.67,0,0,0-1.29.54,2.87,2.87,0,0,0-.64,1.55h3.73v-.21a2,2,0,0,0-.48-1.39A1.76,1.76,0,0,0,66.09,96.28Z"/><path d="M75.26,91.84v2.47H77v2H75.26v5a1.22,1.22,0,0,0,.21.8,1.08,1.08,0,0,0,.82.24,4.62,4.62,0,0,0,.79-.06v2a5.59,5.59,0,0,1-1.63.24,2.55,2.55,0,0,1-2.87-2.85V96.27H71.11v-2h1.47V91.84Z"/><path d="M17.05,122.05a6,6,0,0,1,1.06-3.74A3.4,3.4,0,0,1,21,116.92a3.09,3.09,0,0,1,2.42,1.1v-5.13H26.1v14.25H23.68l-.13-1.06A3.17,3.17,0,0,1,21,127.33a3.41,3.41,0,0,1-2.85-1.4A6.26,6.26,0,0,1,17.05,122.05Zm2.68.2a4,4,0,0,0,.5,2.17,1.59,1.59,0,0,0,1.42.75,1.8,1.8,0,0,0,1.76-1v-4a1.77,1.77,0,0,0-1.74-1.05C20.38,119.1,19.73,120.15,19.73,122.25Z"/><path d="M32.8,127.33A4.94,4.94,0,0,1,29.2,126a4.85,4.85,0,0,1-1.39-3.61v-.26a6.1,6.1,0,0,1,.59-2.71,4.32,4.32,0,0,1,1.65-1.83,4.67,4.67,0,0,1,2.45-.65,4.15,4.15,0,0,1,3.24,1.3,5.27,5.27,0,0,1,1.18,3.68V123H30.53a2.53,2.53,0,0,0,.79,1.58,2.37,2.37,0,0,0,1.65.59,2.9,2.9,0,0,0,2.42-1.12l1.32,1.47a4,4,0,0,1-1.63,1.33A5.35,5.35,0,0,1,32.8,127.33Zm-.31-8.25a1.67,1.67,0,0,0-1.29.54,2.8,2.8,0,0,0-.64,1.55h3.73V121a2,2,0,0,0-.48-1.39A1.76,1.76,0,0,0,32.49,119.08Z"/><path d="M46,127.14H43.32V112.89H46Z"/><path d="M49,117.78l-1.27-.73a4.89,4.89,0,0,0,.83-2.59v-1.57h2.13v1.44a4.21,4.21,0,0,1-.46,1.81A5,5,0,0,1,49,117.78Z"/><path d="M57.93,127.14a2.92,2.92,0,0,1-.27-.89,3.25,3.25,0,0,1-2.53,1.08,3.57,3.57,0,0,1-2.45-.85,2.78,2.78,0,0,1-1-2.16,2.82,2.82,0,0,1,1.19-2.44,5.81,5.81,0,0,1,3.41-.87h1.24v-.57a1.66,1.66,0,0,0-.36-1.12,1.43,1.43,0,0,0-1.13-.41,1.58,1.58,0,0,0-1.06.32,1.13,1.13,0,0,0-.38.89H51.94a2.66,2.66,0,0,1,.53-1.61A3.6,3.6,0,0,1,54,117.34a5.53,5.53,0,0,1,2.2-.42,4.4,4.4,0,0,1,2.95.93,3.26,3.26,0,0,1,1.09,2.62v4.36a4.71,4.71,0,0,0,.4,2.16v.15Zm-2.22-1.86a2.41,2.41,0,0,0,1.1-.26,1.81,1.81,0,0,0,.74-.71v-1.73h-1c-1.35,0-2.06.46-2.15,1.39v.16a1.08,1.08,0,0,0,.36.83A1.37,1.37,0,0,0,55.71,125.28Z"/><path d="M64.77,117.11l.08,1.16a3.5,3.5,0,0,1,2.88-1.35,2.9,2.9,0,0,1,2.38.94,4.35,4.35,0,0,1,.8,2.8v6.48H68.23v-6.42a1.75,1.75,0,0,0-.37-1.23,1.66,1.66,0,0,0-1.24-.39,1.85,1.85,0,0,0-1.7,1v7.07H62.24v-10Z"/><path d="M17.05,144.85a6,6,0,0,1,1.06-3.74A3.43,3.43,0,0,1,21,139.72a3.09,3.09,0,0,1,2.42,1.1V135.7H26.1V150H23.68l-.13-1.07A3.17,3.17,0,0,1,21,150.13a3.41,3.41,0,0,1-2.85-1.4A6.26,6.26,0,0,1,17.05,144.85Zm2.68.2a4,4,0,0,0,.5,2.17,1.59,1.59,0,0,0,1.42.75,1.8,1.8,0,0,0,1.76-1.05v-4a1.77,1.77,0,0,0-1.74-1C20.38,141.9,19.73,143,19.73,145.05Z"/><path d="M32.8,150.13a4.94,4.94,0,0,1-3.6-1.35,4.85,4.85,0,0,1-1.39-3.61v-.26a6.1,6.1,0,0,1,.59-2.71,4.32,4.32,0,0,1,1.65-1.83,4.67,4.67,0,0,1,2.45-.65,4.15,4.15,0,0,1,3.24,1.3,5.27,5.27,0,0,1,1.18,3.68v1.1H30.53a2.53,2.53,0,0,0,.79,1.58A2.37,2.37,0,0,0,33,148a2.9,2.9,0,0,0,2.42-1.12l1.32,1.47a4,4,0,0,1-1.63,1.33A5.35,5.35,0,0,1,32.8,150.13Zm-.31-8.25a1.67,1.67,0,0,0-1.29.54,2.8,2.8,0,0,0-.64,1.55h3.73v-.21a2,2,0,0,0-.48-1.39A1.76,1.76,0,0,0,32.49,141.88Z"/><path d="M44.09,142.42a7.24,7.24,0,0,0-1-.07,2,2,0,0,0-2,1V150H38.45v-10H41l.07,1.19a2.5,2.5,0,0,1,2.24-1.38,2.78,2.78,0,0,1,.83.12Z"/><path d="M47.84,139.91l.09,1.16a3.5,3.5,0,0,1,2.88-1.35,2.9,2.9,0,0,1,2.38.94,4.41,4.41,0,0,1,.8,2.8V150H51.3v-6.42a1.72,1.72,0,0,0-.37-1.24,1.62,1.62,0,0,0-1.23-.39,1.84,1.84,0,0,0-1.7,1V150H45.32v-10Z"/><path d="M56,137.31a1.31,1.31,0,0,1,.4-1,1.52,1.52,0,0,1,1.1-.39,1.54,1.54,0,0,1,1.1.39,1.32,1.32,0,0,1,.41,1,1.3,1.3,0,0,1-.42,1,1.52,1.52,0,0,1-1.09.39,1.53,1.53,0,0,1-1.09-.39A1.33,1.33,0,0,1,56,137.31ZM58.85,150H56.16v-10h2.69Z"/><path d="M65.68,150.13a4.94,4.94,0,0,1-3.6-1.35,4.85,4.85,0,0,1-1.39-3.61v-.26a6.1,6.1,0,0,1,.59-2.71,4.32,4.32,0,0,1,1.65-1.83,4.67,4.67,0,0,1,2.45-.65,4.15,4.15,0,0,1,3.24,1.3,5.27,5.27,0,0,1,1.18,3.68v1.1H63.41a2.53,2.53,0,0,0,.79,1.58,2.37,2.37,0,0,0,1.65.59,2.91,2.91,0,0,0,2.42-1.12l1.32,1.47A4,4,0,0,1,68,149.65,5.35,5.35,0,0,1,65.68,150.13Zm-.31-8.25a1.67,1.67,0,0,0-1.29.54,2.73,2.73,0,0,0-.64,1.55h3.73v-.21a2,2,0,0,0-.48-1.39A1.76,1.76,0,0,0,65.37,141.88Z"/><path d="M77,142.42a7.24,7.24,0,0,0-1-.07,2,2,0,0,0-2,1V150H71.33v-10h2.53l.07,1.19a2.5,2.5,0,0,1,2.24-1.38,2.82,2.82,0,0,1,.83.12Z"/></g></g></svg>