<svg xmlns="http://www.w3.org/2000/svg" viewBox="0 0 279.58 168.01"><g id="Layer_2" data-name="Layer 2"><g id="Plan"><path d="M104.17,28.47c1.75,1.46,2.81,3.58,4.52,5.09a12.47,12.47,0,0,0,18.74-2.84c2.07-3.43,3-8,3.41-11.76a21.15,21.15,0,0,0-.1-5.48,9,9,0,0,0-1.4-3.39,33.68,33.68,0,0,1-4.74,1.22,39,39,0,0,0-5.13,1.22c-.26.08-.52.18-.78.28l-.1,0-.53.25-.44.21c-.77.4-1.52.84-2.25,1.31-.36.24-.72.48-1.07.74l-.38.28c-.58.46-1.15.94-1.7,1.43-1.17,1-2.29,2.14-3.38,3.27-2.21,2.28-4.33,4.65-6.61,6.87l0,0A8.44,8.44,0,0,1,104.17,28.47Z" fill="none"/><path d="M83.1,60.79c.14-.11.29-.24.29-.23l.52-.46c.3-.28.59-.57.87-.86a10.42,10.42,0,0,0,1.46-1.78,14.44,14.44,0,0,0,2.55-10,13.75,13.75,0,0,0-.48-2.5q-.18-.69-.42-1.38c-.08-.23-.16-.45-.25-.68l0-.1,0-.09a19.37,19.37,0,0,0-3-4.55,4.25,4.25,0,0,1-.48-.74c-6.44,1.67-13.23,2.71-18,7.35-2.32,2.23-4.28,4.8-6.61,7l-.57.54A31.39,31.39,0,0,0,65.48,61l1.71,0Z" fill="none"/><path d="M114,15.59l-.06,0C114,15.56,114.28,15.36,114,15.59Z" fill="none"/><path d="M124.78,52.1c.65-2.31,1.25-5.7,4-6.26a3.74,3.74,0,0,1,2,.13,4.26,4.26,0,0,1-.76-3.73c.85-2.84,1.71-5.69,2.56-8.54-.07.12-.15.24-.23.36a18.43,18.43,0,0,1-11.55,7.83,18,18,0,0,1-13.44-2.62A18.78,18.78,0,0,1,103.7,36c-1.18-.62-2.16-1.61-3.44-2.17a5.64,5.64,0,0,0-4.34-.2,4,4,0,0,0-2.36,2.66,17.52,17.52,0,0,0-.5,2.08,23.92,23.92,0,0,1,2.47,10.47,21.53,21.53,0,0,1-3.62,11.86l6,0q2.8-2.8,5.64-5.58c3-2.91,7.57,1.72,4.55,4.55l-1,1,15.4-.07.66-2.47Q123.95,55.1,124.78,52.1Z" fill="none"/><path d="M133.07,47.47l-.12,0-.4-.11a3.48,3.48,0,0,1,.36.66C133,47.82,133,47.65,133.07,47.47Z" fill="none"/><path d="M125,76.28l.3-1.15a4.24,4.24,0,0,1-1,.21A4.34,4.34,0,0,1,125,76.28Z" fill="#f5dc72"/><path d="M276,64.56A12.69,12.69,0,0,0,267.36,61c-8.84,0-17.68-.09-26.53-.18-.9,3.75-1.84,7.48-2.74,11.21q-2.58,10.58-5.31,21.09c-3.65,14-7.48,28-11.64,41.9-1,3.48-2.09,6.94-3.16,10.41s-2,7.12-3.61,10.38A11.56,11.56,0,0,1,204,162.2a31.71,31.71,0,0,1-6-.84l-5.09-1q-21.27-4.19-42.31-9.44c-7-1.75-14-3.57-21-5.52-6.55-1.84-14.22-3.82-16.58-11.1-1.23-3.82-.27-7.81.6-11.58q1.23-5.34,2.5-10.67,2-8.25,4-16.47a4.69,4.69,0,0,1-3.45.56,4.35,4.35,0,0,1-3-5.28l2.08-7.68c.35-1.28.69-2.56,1.06-3.83a13.39,13.39,0,0,1,1.31-3.62A3.64,3.64,0,0,1,120.87,74a4.41,4.41,0,0,1-.91-3.87q1.28-4.78,2.53-9.56l-15.4.07q-5.4,5.06-10.69,10.23C83,84.08,69.81,97.63,57.17,111.61a2.54,2.54,0,0,1-3.55,0,2.58,2.58,0,0,1,0-3.56c3.55-4.08,7.16-8.11,10.79-12.13,6.34-7,12.66-14,19.23-20.76Q90.72,67.86,98,60.69l-6,0A21.57,21.57,0,0,1,78.5,70a19.94,19.94,0,0,1-8.14.11,16.77,16.77,0,0,1-7.3-3.84A30.66,30.66,0,0,1,58.13,61q-9.56.1-19.1.24c-9.37.13-18.8,0-28.15.64A11.54,11.54,0,0,0,3.19,65.1,11.08,11.08,0,0,0,0,72.79,13.29,13.29,0,0,0,.24,74.7c0,.2,0,.4,0,.61.26,3.84.58,7.68.91,11.51C1.06,88.35,1,89.87.9,91.4.7,96.58.4,101.8.49,107Q.78,122.47,2,137.91c.37,4.63.77,9.26,1.26,13.87,0,1.5-.11,3-.18,4.51a11.75,11.75,0,0,0,3.43,8.28A12.19,12.19,0,0,0,14.8,168q48.94,0,97.9,0t97.91-.1c18.26,0,36.52-.07,54.78.06a12.49,12.49,0,0,0,8.57-3.55,12.34,12.34,0,0,0,3.55-8.57,13.26,13.26,0,0,0-.57-3.28s0-.08,0-.12c-.13-20.61.16-41.18,1.44-61.76.36-5.83.8-11.66,1.18-17.5A12.24,12.24,0,0,0,276,64.56Z" fill="#d5dee2"/><path d="M78.52,63.47A17.91,17.91,0,0,0,82.87,61l.23-.19-15.91.14-1.71,0a19.44,19.44,0,0,0,2,1.53C71,64.9,74.78,64.82,78.52,63.47Z" fill="#dad8d8"/><path d="M63.06,66.22a16.77,16.77,0,0,0,7.3,3.84A19.94,19.94,0,0,0,78.5,70a21.76,21.76,0,0,0,17-21.08A23.92,23.92,0,0,0,93.06,38.4a17.52,17.52,0,0,1,.5-2.08,4,4,0,0,1,2.36-2.66,5.64,5.64,0,0,1,4.34.2c1.28.56,2.26,1.55,3.44,2.17a18.78,18.78,0,0,0,3.63,3.24,18,18,0,0,0,13.44,2.62,18.43,18.43,0,0,0,11.55-7.83c.08-.12.16-.24.23-.36l.76-2.51A89.74,89.74,0,0,1,136.6,21l.15-1.09c.53-4.22.32-9.43-2-13.22.1-.1.19-.21.28-.32,1.4-1.72,1.53-4.1-.38-5.57s-4.14-.74-5.49,1.05c.4-.53-.23.18-.38.33a1.9,1.9,0,0,1-.21.19l0,0c-.32.2-.63.4-1,.57l-.43.22-.06,0-.12,0a35.46,35.46,0,0,1-4.43,1.12,31.46,31.46,0,0,0-9.23,3.12c-5.61,3.14-9.79,8.17-14.18,12.74C98,21.32,97,22.41,95.83,23.44c-.58.54-1.17,1-1.78,1.56l-.65.52s-.64.47-.75.55a27,27,0,0,1-4.27,2.46l-.62.28-1.1.43c-.82.31-1.65.58-2.47.86-6.53,2.2-13.58,3.61-19.25,7.76-3.07,2.24-5.36,5.11-7.82,8a30.64,30.64,0,0,1-3.66,3.72c-1.23,1-3,1.57-4.19,2.84A2.17,2.17,0,0,0,50.22,56a6.18,6.18,0,0,0,4.51-.65A29.94,29.94,0,0,0,58.13,61,30.66,30.66,0,0,0,63.06,66.22Zm50.87-50.59.06,0C114.28,15.36,114,15.56,113.93,15.63Zm-5.09,4.71c1.09-1.13,2.21-2.23,3.38-3.27.55-.49,1.12-1,1.7-1.43l.38-.28c.35-.26.71-.5,1.07-.74.73-.47,1.48-.91,2.25-1.31l.44-.21.53-.25.1,0c.26-.1.52-.2.78-.28a39,39,0,0,1,5.13-1.22,33.68,33.68,0,0,0,4.74-1.22,9,9,0,0,1,1.4,3.39,21.15,21.15,0,0,1,.1,5.48c-.36,3.79-1.34,8.33-3.41,11.76a12.47,12.47,0,0,1-18.74,2.84c-1.71-1.51-2.77-3.63-4.52-5.09a8.44,8.44,0,0,0-2-1.23l0,0C104.51,25,106.63,22.62,108.84,20.34Zm-50,32,.57-.54c2.33-2.23,4.29-4.8,6.61-7,4.82-4.64,11.61-5.68,18-7.35a4.25,4.25,0,0,0,.48.74,19.37,19.37,0,0,1,3,4.55l0,.09,0,.1c.09.23.17.45.25.68q.24.69.42,1.38a13.75,13.75,0,0,1,.48,2.5,14.44,14.44,0,0,1-2.55,10,10.42,10.42,0,0,1-1.46,1.78c-.28.29-.57.58-.87.86l-.52.46s-.15.12-.29.23l-.23.19a17.91,17.91,0,0,1-4.35,2.49c-3.74,1.35-7.55,1.43-11.08-1a19.44,19.44,0,0,1-2-1.53A31.39,31.39,0,0,1,58.87,52.31Z" fill="#3fbec4"/><path d="M103.59,55.11q-2.84,2.78-5.64,5.58-7.22,7.17-14.31,14.47c-6.57,6.78-12.89,13.76-19.23,20.76-3.63,4-7.24,8-10.79,12.13a2.58,2.58,0,0,0,0,3.56,2.54,2.54,0,0,0,3.55,0C69.81,97.63,83,84.08,96.4,70.87q5.28-5.19,10.69-10.23l1-1C111.16,56.83,106.55,52.2,103.59,55.11Z" fill="#3495bd"/><path d="M144.39,21.72c-.47,4-1.84,7.88-3,11.71s-2.17,7.38-3.26,11.06a4.31,4.31,0,0,1-5.09,3c0,.18-.11.35-.16.53a3.57,3.57,0,0,1,.16.46c.38,1.37-.14,2.95-.4,4.33-.42,2.19-1,4.36-1.5,6.53-1,4.34-2.11,8.68-3.17,13a3.94,3.94,0,0,1-2.66,2.79l-.3,1.15a3.78,3.78,0,0,1,.36.82c.56,1.73-.47,4.35-.91,6.08q-1.24,5-2.53,10a3.94,3.94,0,0,1-1.83,2.44q-2,8.24-4,16.47-1.26,5.33-2.5,10.67c-.87,3.77-1.83,7.76-.6,11.58,2.36,7.28,10,9.26,16.58,11.1,7,2,14,3.77,21,5.52q21,5.26,42.31,9.44l5.09,1a31.71,31.71,0,0,0,6,.84,11.56,11.56,0,0,0,10.36-6.4c1.65-3.26,2.54-6.9,3.61-10.38s2.12-6.93,3.16-10.41c4.16-13.88,8-27.87,11.64-41.9Q235.53,82.6,238.09,72c.9-3.73,1.84-7.46,2.74-11.21.79-3.27,1.54-6.54,2.22-9.83a14.72,14.72,0,0,0,0-6.92A10.55,10.55,0,0,0,238.33,38c-3-1.83-6.82-2.49-10.14-3.39Q217.59,31.73,207,29q-21.24-5.52-42.62-10.58l-8.1-1.9a4.12,4.12,0,0,0-2.58-1.23c-4.17-.51-7.46,1.42-9.93,4.29A3.17,3.17,0,0,1,144.39,21.72Z" fill="#e6cfc4"/><path d="M124.34,75.34a4.24,4.24,0,0,0,1-.21A3.94,3.94,0,0,0,128,72.34c1.06-4.34,2.13-8.68,3.17-13,.52-2.17,1.08-4.34,1.5-6.53.26-1.38.78-3,.4-4.33a3.57,3.57,0,0,0-.16-.46,3.48,3.48,0,0,0-.36-.66,4,4,0,0,1-1.8-1.37,3.74,3.74,0,0,0-2-.13c-2.75.56-3.35,3.95-4,6.26q-.84,3-1.63,6l-.66,2.47q-1.26,4.78-2.53,9.56a4.41,4.41,0,0,0,.91,3.87A4.36,4.36,0,0,1,124.34,75.34Z" fill="#8f7b8f"/><path d="M122,93.16q1.28-5,2.53-10c.44-1.73,1.47-4.35.91-6.08a3.78,3.78,0,0,0-.36-.82A4.46,4.46,0,0,0,120.87,74a3.64,3.64,0,0,0-2.73,1.75,13.39,13.39,0,0,0-1.31,3.62c-.37,1.27-.71,2.55-1.06,3.83l-2.08,7.68a4.35,4.35,0,0,0,3,5.28,4.69,4.69,0,0,0,3.45-.56A3.94,3.94,0,0,0,122,93.16Z" fill="#6a8d95"/><path d="M132.55,33.7c-.85,2.85-1.71,5.7-2.56,8.54a4.26,4.26,0,0,0,.76,3.73,4,4,0,0,0,1.8,1.37l.4.11.12,0a4.31,4.31,0,0,0,5.09-3q1.64-5.52,3.26-11.06c1.13-3.83,2.5-7.73,3-11.71a3.17,3.17,0,0,0-.66-2.17,3.87,3.87,0,0,0-6.56.21q-.3.61-.57,1.23a89.74,89.74,0,0,0-3.29,10.2Z" fill="#987369"/><path d="M232.7,68.89l-22,86.8a4.14,4.14,0,0,1-2.13,2.6A7.77,7.77,0,0,1,205,159a19.41,19.41,0,0,1-5.48-.91L123,139.4a9.67,9.67,0,0,1-6.35-4.48,11.63,11.63,0,0,1-.82-1.66,8.76,8.76,0,0,1-3.3-3.46c-2.06-3.92-.6-8.4-.47-8.78l6.39-24.26-2.85-.85-.07,0a6.06,6.06,0,0,1-3.16-4.3H75.47l-18.94,19a.39.39,0,0,1-.1.08,4.4,4.4,0,0,1-4.48-.59l-.07-.06a3.28,3.28,0,0,1-.43-4.21l0-.06L102.13,55a.27.27,0,0,1,.08-.07l10-6.24a.48.48,0,0,1,.6.07.5.5,0,0,1,.06.6L106.66,59a.48.48,0,0,1-.62.17,13,13,0,0,1-2-1.26,3.15,3.15,0,0,0,1.19,1.56.5.5,0,0,1,.21.35.49.49,0,0,1-.13.39l-7.47,7.73h20.58l6-21.2a3.7,3.7,0,0,1,1.9-2.31,4.91,4.91,0,0,1,3.44-.1l2.39.69,4.45-16.92a11.54,11.54,0,0,1-1.91-.11,19.59,19.59,0,0,1-1.35,4.2,12.91,12.91,0,0,1-4.62,5.69c-5.76,4.08-11.59,4.93-17.3,2.53-4.67-2-8.11-5.56-10.17-7.72-.54-.57-1-1-1.28-1.28-2.41-2.07-5.16-.68-6.64.06-1.32.66-3.46,4-2.06,6.93A31.13,31.13,0,0,1,93.5,50.79c-.18,7.09-3.21,12.43-8.76,15.45-6.6,3.59-11,4.23-13.77,4-.32,1.21-.64,1.83-1,2-1.2.58-3.46-.76-4.39-2.22a3.48,3.48,0,0,1-.48-1.12H4.18a.49.49,0,0,1,0-1H65a2.76,2.76,0,0,1,1-1.6,6.37,6.37,0,0,0,1.2-2.18A22.43,22.43,0,0,1,59.12,57a13.23,13.23,0,0,0,.51,3.34.48.48,0,0,1-.8.5,9.83,9.83,0,0,1-1.2-1.72,7.74,7.74,0,0,0-2.26-2.73c-1.12-.56-3.3-.29-4-.15a.48.48,0,0,1-.48-.17L49,53.63a.53.53,0,0,1-.08-.44.5.5,0,0,1,.31-.31,39.42,39.42,0,0,0,5.19-2.23,53.25,53.25,0,0,0,5-5.69c2.37-2.88,4.62-5.6,5.54-6.21,1.39-.93,8.69-5.56,16-5.75,6.84-.19,16.74-8.07,17.77-9.45a10.62,10.62,0,0,0,.83-1.61,23.47,23.47,0,0,1,9.72-11.38c6.81-3.91,15.2-5.39,18.36-5.94l.88-.16a14,14,0,0,0,4.33-2.37.52.52,0,0,1,.48-.07.49.49,0,0,1,.3.38l.57,4a.52.52,0,0,1-.15.43,3.59,3.59,0,0,0-.84,4.15l0,.08a50.35,50.35,0,0,1,1.35,5.78,13.93,13.93,0,0,1,4.67,4.27.44.44,0,0,1,0,.37l-.5,1.93a4,4,0,0,1,1,1.16,2,2,0,0,1-.07,2.43,3.57,3.57,0,0,1-2.15,1L133,45.27l2.31.66,7.29-26.33-3-.83a.51.51,0,0,1-.29-.23.47.47,0,0,1,0-.37,8.5,8.5,0,0,1,4.07-5.59,8.73,8.73,0,0,1,6.36-.41l84.88,21.55a3.51,3.51,0,0,1,2.81,4.15L237.11,39a6,6,0,0,1,1.59,2.3,7,7,0,0,1-.37,5.34l-5.39,21.27M117.22,134l.25.44a8.75,8.75,0,0,0,5.74,4l76.58,18.72h0s5.4,1.77,8.32.24a3.17,3.17,0,0,0,1.65-2l21.9-86.54h-2.09L208.47,153l0,.08a4.43,4.43,0,0,1-5.49,2.54l-83.74-21A14.09,14.09,0,0,1,117.22,134Zm-.62-1.38a12.29,12.29,0,0,0,2.85,1.14l83.75,21h0a3.43,3.43,0,0,0,4.3-2l21.07-83.87H129.94l-1.54,5.57,2.8.93a.47.47,0,0,1,.31.58L125.65,98.4a.48.48,0,0,1-.6.34l-3-.88-5.7,22.47C116.37,120.41,114.64,127.28,116.6,132.6ZM119.37,97,113,121.28a.06.06,0,0,1,0,0s-1.5,4.41.41,8a7.58,7.58,0,0,0,1.92,2.35c-1.44-5.32.07-11.31.15-11.62l5.71-22.51Zm-66.84,12.3a3.54,3.54,0,0,0,3.38.54l19-19.12a.45.45,0,0,1,.34-.15h37a6.5,6.5,0,0,1,.11-.93s0,0,0,0l4.91-17.2h0a.48.48,0,0,1,.59-.33.49.49,0,0,1,.34.6h0a46.06,46.06,0,0,0-1.47,9.91,17.63,17.63,0,0,0,1.34,8h1.92l4.33-16.46-4-1.31,0,0c-1.88-.82-2.12-2.93-2.13-3.93H96.88L76.94,89.54a.52.52,0,0,1-.46.14,6.33,6.33,0,0,1-3.3-2.08.49.49,0,0,1,0-.63L92.34,68.06a.47.47,0,0,1,.33-.14h3.8l7.74-8a5.07,5.07,0,0,1-1.47-3.46.48.48,0,0,1,.89-.26,8.27,8.27,0,0,0,2.46,1.9l4.82-7.46-8.14,5.07L52.22,106.43A2.35,2.35,0,0,0,52.53,109.34Zm69.8-12.42,2.51.75,5.62-21.51-2.32-.77-4.38,15.84a.5.5,0,0,1-.47.35H120.8l-.46,1.76a6.67,6.67,0,0,0,2.15,1.07.51.51,0,0,1,.33.59Zm-2.72-.82,1.79.54.37-1.45a7.27,7.27,0,0,1-1.69-.86ZM115.91,95l2.78.84.56-2.15a8.29,8.29,0,0,1-1.66-2.1h-4.25A5,5,0,0,0,115.91,95Zm2.78-3.41a7.89,7.89,0,0,0,.84,1l.27-1Zm2.37-1h1.87l4.29-15.52-1.91-.63Zm-7.78,0h3.83a19,19,0,0,1-1.27-8c0-.55,0-1.08.07-1.61l-2.54,8.91A5,5,0,0,0,113.28,90.61ZM74.22,87.35a5.6,5.6,0,0,0,2.23,1.31L95.53,68.89H92.87Zm51.34-13.83,1.92.64,1.46-5.27h-2.16Zm-4.81-1.59,3.89,1.28,1.14-4.32h-6.56C119.23,69.68,119.41,71.32,120.75,71.93Zm-54.7-3a2.73,2.73,0,0,0,.29.6c.83,1.29,2.62,2.13,3.16,1.87A3,3,0,0,0,70,70.07a6.21,6.21,0,0,1-2.8-1.18Zm5.14.36h.11c2.36.17,6.53-.36,13-3.87,5.3-2.89,8.08-7.81,8.26-14.62a30.36,30.36,0,0,0-2.23-12,6.79,6.79,0,0,1,1-6.82l-7.44,4.61a8.41,8.41,0,0,1,6.43,6.62,26.24,26.24,0,0,1,.35,11.08,14.19,14.19,0,0,1-6.82,9.87,16.72,16.72,0,0,1-12,1.62C71.58,67.19,71.38,68.34,71.19,69.25ZM66,67.92H67.4a.51.51,0,0,1,.35.15,5,5,0,0,0,2.48,1.05c.21-1,.42-2.25.63-3.59l-.59-.17a20.61,20.61,0,0,1-2.15-.81,7.09,7.09,0,0,1-1.44,2.52A1.85,1.85,0,0,0,66,67.92Zm163.81,0H232l5.45-21.56a.61.61,0,0,1,0-.12,6.09,6.09,0,0,0,.34-4.59,4.87,4.87,0,0,0-.95-1.54Zm-99.64,0h98.64L236,39.36a10.1,10.1,0,0,0-2.84-1.5l-82.6-21.74h-.05s-3-1.09-5-.17a2.65,2.65,0,0,0-1.39,1.56l-.39,1.43,3.93,1.1a.48.48,0,0,1,.29.23.46.46,0,0,1,0,.38l-8.21,27.11a.48.48,0,0,1-.6.32L136,47.13Zm-3.18,0h2.18L135,46.87l-2.29-.67Zm-7.64,0H126l5.79-22-2.42-.7h0a3.93,3.93,0,0,0-2.72.05A2.78,2.78,0,0,0,125.26,47ZM72,64.81a15.67,15.67,0,0,0,11.37-1.5c7-4.06,7.7-12.93,6-19.88a7.35,7.35,0,0,0-6.42-6,26.58,26.58,0,0,0-6,5.26c-2.19,2.4-3.47,11.46-4.5,18.74C72.26,62.68,72.1,63.81,72,64.81Zm-3.48-1.16a19.49,19.49,0,0,0,2.09.79l.45.13c.16-1.1.32-2.22.47-3.28,1.1-7.8,2.35-16.63,4.73-19.25.62-.68,1.2-1.28,1.74-1.81l-3.48,2.15c-.32.88-1,3.39-1.7,6.25C71.19,54.76,69.73,60.25,68.47,63.65Zm-9.31-8.31a21.78,21.78,0,0,0,8.44,7.89c1.41-3.87,3.09-10.41,4.23-14.84.57-2.21,1-4,1.39-5.23L60,51.35a16.1,16.1,0,0,0-.54,1.92A16.67,16.67,0,0,0,59.16,55.34Zm-5.77-.24a5.63,5.63,0,0,1,2.41.45,7.34,7.34,0,0,1,2.44,2.75,16.61,16.61,0,0,1-.07-2.71,30,30,0,0,1-1.51-2.81.47.47,0,0,1,.18-.61l2.36-1.46c2.15-5.84,7.19-9.69,11.27-12,.24-.12,5.47-2.71,8.68-2.52a.48.48,0,0,1,.43.34.47.47,0,0,1-.16.52,35.6,35.6,0,0,0-3.6,3.34L106,21.73a.09.09,0,0,1,.06,0c.17-.08,4.32-1.95,7.81-1.56,1,.11,2.56.33,4.39.58,4.44.61,10.51,1.44,12.35,1.31.4,0,.89-.06,1.45-.08a27.23,27.23,0,0,0-.72-5.64c-5.69-2.23-12.09-1.56-16.66-.51-3.11.71-11.28,6.48-11.36,6.54a.47.47,0,0,1-.59,0,.47.47,0,0,1-.12-.58c3.64-7.18,10.13-10.49,14.94-12a31,31,0,0,1,11-1.51c1,.16,2.63,3.55,3.58,7.37.44.18.87.39,1.29.6a47.25,47.25,0,0,0-1.18-4.85,4.53,4.53,0,0,1,.89-5.08l-.42-2.93a12.62,12.62,0,0,1-4.08,2.06c-.21,0-.51.1-.9.17-3.11.55-11.39,2-18.05,5.83a22.62,22.62,0,0,0-9.32,11,10.94,10.94,0,0,1-.93,1.78C98.34,25.62,88.21,33.77,80.93,34c-7,.19-14.08,4.69-15.44,5.59a57.9,57.9,0,0,0-5.33,6c-2.77,3.35-4.51,5.42-5.27,5.89a31.65,31.65,0,0,1-4.76,2.09l1.31,1.7A13.36,13.36,0,0,1,53.39,55.1Zm4.33-2.34c.2.41.41.81.63,1.21,0-.3.1-.6.16-.9s.15-.64.23-.94Zm20-15.51a28.07,28.07,0,0,0-6.77,2.33c-5,2.78-8.48,6.28-10.32,10.25l13.09-8.1A18.16,18.16,0,0,1,77.7,37.25Zm58.53,9L139,47,147,20.83l-3.46-1ZM97,29.33a5.19,5.19,0,0,1,3.48,1.33c.34.29.79.76,1.35,1.35,4,4.22,13.45,14.1,26.23,5.05l0,0a12,12,0,0,0,4.27-5.33,18.47,18.47,0,0,0,1.25-3.9c-.4-.09-.8-.2-1.21-.32a14.93,14.93,0,0,1-7.62,9.89,14.27,14.27,0,0,1-11.34,1.44C106,36.5,101.84,28.37,101.66,28a.49.49,0,0,1,.13-.6c.22-.18,5.42-4.43,8.34-5,3.1-.62,16.77,1.95,21.59,3.79a20.38,20.38,0,0,0,.33-3.3l-1.37.09c-1.94.13-7.82-.67-12.55-1.32-1.82-.25-3.4-.47-4.37-.58-3.09-.34-6.92,1.31-7.28,1.46L95,29.65A6.76,6.76,0,0,1,97,29.33Zm5.67-1.4c.89,1.57,4.85,8,11.07,10a13.27,13.27,0,0,0,10.58-1.37,14.08,14.08,0,0,0,7.16-9.36l-.1,0c-5-1.91-18.38-4.3-21.1-3.75C108,23.83,103.88,27,102.71,27.93Zm48.14-12.74,82.61,21.74h0a12.11,12.11,0,0,1,2.79,1.4l.16-.67a2.55,2.55,0,0,0-2.1-3L149.46,13.1h-.05a7.88,7.88,0,0,0-5.62.35A7.33,7.33,0,0,0,140.35,18l2.5.7.4-1.44v0a3.55,3.55,0,0,1,1.89-2.14C147.39,14,150.53,15.08,150.85,15.19ZM134.78,27a9.31,9.31,0,0,0,2,.09l.87-3.31a7.17,7.17,0,0,0-2.56-.78A26.74,26.74,0,0,1,134.78,27Zm3.7-2.59L137.82,27a2.23,2.23,0,0,0,1.13-.61c.11-.13.44-.51,0-1.32A3.12,3.12,0,0,0,138.48,24.43Zm-5.82,2.1c.4.13.79.23,1.17.32a25.67,25.67,0,0,0,.29-3.92c-.37,0-.74,0-1.1,0A21.89,21.89,0,0,1,132.66,26.53Zm2.42-4.48a8.56,8.56,0,0,1,2.82.79l.37-1.43a13.59,13.59,0,0,0-3.53-3.33A37.06,37.06,0,0,1,135.08,22.05ZM133,21.93l1.09,0a37.33,37.33,0,0,0-.44-4.54l-.46-.25-.78-.39c.06.28.11.55.16.83A27.9,27.9,0,0,1,133,21.93ZM127.33,9.14a33.11,33.11,0,0,0-9.49,1.52c-4.2,1.32-9.74,4.05-13.33,9.69,2.63-1.77,7.56-4.94,10-5.49,4.54-1,10.84-1.72,16.59.31-.92-3.37-2.2-5.71-2.66-6A7.47,7.47,0,0,0,127.33,9.14Zm1.06,0Z" fill="#2f292b"/></g></g></svg>