<svg xmlns="http://www.w3.org/2000/svg" viewBox="0 0 285.1 192.71"><g id="Layer_2" data-name="Layer 2"><g id="Plan"><path d="M243.4,65.59c.35-.41.15-.19,0,0Z" fill="none"/><path d="M244.25,138.65l-.33,0a3.73,3.73,0,0,1-.82,0l-.2.37q.73-.09,1.47-.21Z" fill="none"/><path d="M250,72.69l.39-.38-.11-.06-.5.58A1.18,1.18,0,0,0,250,72.69Z" fill="none"/><path d="M205.39,93.63l.05,0c.24.1.46.2-.05,0Z" fill="none"/><path d="M205.44,93.87h0Z" fill="none"/><path d="M165.53,93.26a7.48,7.48,0,0,1-2.22-1.12l-.16-.12v0c.17.14.17.15,0,0v0l-.09-.07c-.33-.26-.3-.24.08,0-.11-.33-.89-.61-1.22-.91a10.72,10.72,0,0,1-3.24-5.62,12.51,12.51,0,0,1-.24-3.77A4.4,4.4,0,0,1,155,80.57c-1.91-1.66-2.64-4.61-3.52-6.89l-2.28-5.93c-.39-1-.76-2-1.13-3a3.8,3.8,0,0,1-1.71-.69c-2.29-1.65-5-3.17-5.78-6.08a6.42,6.42,0,0,1,.65-4.64c.13-.26.26-.89.44-1.27a1.23,1.23,0,0,1,0-.16v0A30,30,0,0,0,138,50.14L133.43,48c-2.25-1.09-.28-4.4,2-3.35l6.25,2.94a14.55,14.55,0,0,0,2.23,1,5.17,5.17,0,0,1,1.73.43,3.75,3.75,0,0,1,1,.84c-.07-.17-.13-.34-.19-.51-.63-1.82,1.81-3.86,3.42-2.63a10.37,10.37,0,0,1,3.86,7.67c1.86,2.94,2.93,6.38,4.16,9.62.81,2.14,1.58,4.3,2.37,6.45.48,1.3,1.17,2.78,1.57,4.26a9.12,9.12,0,0,1,1.85-1.22A4.06,4.06,0,0,1,169,74.92a3.7,3.7,0,0,1,.41,1,5.54,5.54,0,0,1,1.6,1l.52.43.28.21c.5.32,1,.65,1.5,1l.24.13q-.48-13.33-1.21-26.65-.87-15.89-2.17-31.72c-.25-3-1.09-6-3.39-8.16a14.28,14.28,0,0,0-2.26-1.71c-7.27-.36-14.55-.56-21.83-.68-21.3-.37-42.6,0-63.9.29-14.67.18-29.35.39-44,.35l-1.8.09a11.2,11.2,0,0,0-11.2,11.2A40.53,40.53,0,0,0,22,26.34c.39,8.69.86,17.37.75,26.07q-.16,13.5-.44,27-.56,27-1.56,54c-.37,10.15-.72,20.31-1.13,30.46a9.1,9.1,0,0,0,2,5.84c9.52-.33,19.08-.28,28.59-.4,22-.3,44-.5,65.95-.32q28.46.23,56.92.83a12,12,0,0,0,1.16-4.94q.59-28.15.18-56.33c-.05-3.55-.12-7.1-.19-10.65A15.33,15.33,0,0,1,165.53,93.26Zm-48.34,72.06a4.16,4.16,0,0,1-3-4l.33-25.39q.28-22.57.63-45.17c.11-6.68.21-13.36.34-20q-2.64,5.73-5.3,11.45c-.28.59-.55,1.2-.81,1.81a3.61,3.61,0,0,1,.63,2c0,.1,0,.2,0,.3a11.42,11.42,0,0,1,.18,3.56c0,1.33-.1,2.66-.16,4-.11,2.66-.25,5.32-.38,8-.15,3.2-.28,6.41-.41,9.61q.06,24.75.15,49.51a4.15,4.15,0,0,1-4.11,4.11h-4.53A4.19,4.19,0,0,1,96.6,161q-.12-8.28-.21-16.56c-.18-15-.48-30.06-.5-45.09l-6,3.72q1.52,29.73.8,59.5c0,1.75-1.32,4-3.23,4.24l-3.15.43c-2.45.34-4.59-.55-5.41-3.06a4.65,4.65,0,0,1,.86-4c-.58-4.43-.72-8.92-.9-13.37q-.31-7.47-.53-14.93-.21-7.16-.32-14.31-2.46,4.52-4.91,9-3.42,6.3-6.83,12.59a4,4,0,0,1,2.84,3.72c.57,6.51.79,13.31,1.07,19.94A4.32,4.32,0,0,1,64.73,167a19.39,19.39,0,0,0-6.46-.63,4.44,4.44,0,0,1-4.38-4.38,3.86,3.86,0,0,1,.48-2c-.11-2.5,0-5-.14-7.5l-.09-1.94c-9.33,4.15-18.56,8.55-27.83,12.84a2.89,2.89,0,0,1-3.87-1,2.86,2.86,0,0,1,1-3.88Q31.6,154.7,39.73,151c4.69-2.14,9.49-4.16,14.08-6.52-.06-.85-.11-1.71-.17-2.56-.13-1.92,1.88-4.12,3.88-3.88l2.25.26c1-1.84,1.94-3.67,2.92-5.5l7.52-14.05c2.36-4.4,4.53-9,7.1-13.22.16-.26.32-.52.49-.76l0-3.07c0-2.06,1.92-4.34,4.13-4.13l3.75.36.17,0,3-1.84,6.38-4,.71-.44c0-1.83,0-3.66,0-5.49a3.92,3.92,0,0,1,3.86-3.85h2.81l.2-.44,3.33-7.28Q111,64,115.94,53.49q.14-3.8.3-7.59a3.69,3.69,0,0,1,2.67-3.51c1.63-.29,3.23-.58,4.84-1,3.21-.79,4.89,2.72,3.56,4.9a3.85,3.85,0,0,1,.17,1.17c-.09,8.38-.09,16.77-.11,25.16-.09,29.62,0,59.24.13,88.86a4.12,4.12,0,0,1-3,4A17.16,17.16,0,0,1,117.19,165.32Z" fill="#ebf0f2"/><path d="M46.1,177.18H46c3,.25,6.09.41,9.13.61q25.23,1.64,50.52,1.46,18.39-.12,36.75-1.22-31.63-.67-63.27-.84C68.09,177.13,57.1,177.08,46.1,177.18Z" fill="#d8d7d6"/><path d="M78.83,10c21.3-.26,42.6-.66,63.9-.29,7.28.12,14.56.32,21.83.68,4.74.23,9.48.52,14.22.91,2.14.18,4-2,4-4a4.05,4.05,0,0,0-4-4Q146.73,1.88,114.67,2c-21.31.14-42.61.7-63.92,1q-18,.27-36.1.1c-4.51,0-4.5,6.9,0,7q10.06.21,20.15.23C49.48,10.4,64.16,10.19,78.83,10Z" fill="#969697"/><path d="M116.08,169c-22-.18-44,0-65.95.32-9.51.12-19.07.07-28.59.4q-4.21.15-8.41.42a3.65,3.65,0,1,0,0,7.3c10.93.26,21.89-.17,32.82-.26h.15c11-.1,22-.05,33,0q31.64.21,63.27.84l2.68.06c12.33.28,24.67.75,37,1.23a4.68,4.68,0,0,0,4.64-4.65A4.73,4.73,0,0,0,182,170l-9-.2Q144.55,169.23,116.08,169Z" fill="#969697"/><path d="M61.64,146.23c-1.74,1.78-4,2.7-6.22,3.68l-1.28.58.09,1.94c.09,2.48,0,5,.14,7.5a3.86,3.86,0,0,0-.48,2,4.44,4.44,0,0,0,4.38,4.38,19.39,19.39,0,0,1,6.46.63,4.32,4.32,0,0,0,5.42-4.13c-.28-6.63-.5-13.43-1.07-19.94a4,4,0,0,0-2.84-3.72l-.77,1.42A25.22,25.22,0,0,1,61.64,146.23Z" fill="#6a8d95"/><path d="M59.21,139.36l.56-1.06L57.52,138c-2-.24-4,2-3.88,3.88.06.85.11,1.71.17,2.56l1.64-.86A9.07,9.07,0,0,0,59.21,139.36Z" fill="#6a8d95"/><path d="M84.06,107.05c-1.48,1.53-2.38,3.66-3.38,5.51l-2.7,5q.12,7.16.32,14.31.21,7.47.53,14.93c.18,4.45.32,8.94.9,13.37a4.65,4.65,0,0,0-.86,4c.82,2.51,3,3.4,5.41,3.06l3.15-.43c1.91-.26,3.19-2.49,3.23-4.24q.7-29.76-.8-59.5l-.22.14A27,27,0,0,0,84.06,107.05Z" fill="#6a8d95"/><path d="M85.82,98l-.17,0-3.75-.36c-2.21-.21-4.16,2.07-4.13,4.13l0,3.07C79.85,101.8,82.78,99.82,85.82,98Z" fill="#6a8d95"/><path d="M99.81,88.31a57.09,57.09,0,0,0,2.81-6H99.81A3.92,3.92,0,0,0,96,86.2c0,1.83,0,3.66,0,5.49A10.54,10.54,0,0,0,99.81,88.31Z" fill="#6a8d95"/><path d="M124.5,165.46a4.12,4.12,0,0,0,3-4c-.09-29.62-.22-59.24-.13-88.86,0-8.39,0-16.78.11-25.16a3.85,3.85,0,0,0-.17-1.17c1.33-2.18-.35-5.69-3.56-4.9-1.61.39-3.21.68-4.84,1a3.69,3.69,0,0,0-2.67,3.51q-.17,3.8-.3,7.59l3.49-7.42a3.38,3.38,0,0,1,4.58-1.2,3.45,3.45,0,0,1,1.2,4.58q-4.81,10.67-9.73,21.3c-.13,6.69-.23,13.37-.34,20q-.37,22.59-.63,45.17l-.33,25.39a4.16,4.16,0,0,0,3,4A17.16,17.16,0,0,0,124.5,165.46Z" fill="#6a8d95"/><path d="M102.6,94.92a59.08,59.08,0,0,1-6.33,4.17l-.38.24c0,15,.32,30.07.5,45.09q.09,8.28.21,16.56a4.19,4.19,0,0,0,4.12,4.12h4.53a4.15,4.15,0,0,0,4.11-4.11q-.12-24.75-.15-49.51c.13-3.2.26-6.41.41-9.61.13-2.66.27-5.32.38-8,.06-1.33.13-2.66.16-4a11.42,11.42,0,0,0-.18-3.56c0-.1,0-.2,0-.3a3.61,3.61,0,0,0-.63-2C107.65,87.94,105.94,92.23,102.6,94.92Z" fill="#6a8d95"/><path d="M217.46,151.71l-.12.54a3.58,3.58,0,0,1-3.56,2.6c-.11.45-.2.91-.28,1.38q-1.19,7.28-1.69,14.63a107.1,107.1,0,0,0,.24,16.22,4,4,0,0,0,.14.78,4.67,4.67,0,0,0,4.68,4.85l30.11-.42a63.93,63.93,0,0,0,7.71-.19,5.84,5.84,0,0,0,4.51-2.93,10.72,10.72,0,0,0,1-3.74,120,120,0,0,0,1.22-15.61,99.49,99.49,0,0,0-1.42-17.4c-.44-2.59-3.42-3.63-5.66-3.21l-1.8.32-.77.13c.11,0,.44,0-.09,0-1.21.18-2.43.3-3.64.42q-3.64.39-7.31.58-7,.36-14.12.05c-2.3-.11-4.62-.43-6.93-.44a6.22,6.22,0,0,0-1.56.18l-.27.64A2.66,2.66,0,0,1,217.46,151.71Z" fill="#6b6b6b"/><path d="M163.07,92l.09.07v0C162.77,91.73,162.74,91.71,163.07,92Z" fill="#b3d4e9"/><path d="M163.16,92v0C163.33,92.19,163.33,92.18,163.16,92Z" fill="#b3d4e9"/><path d="M280,121.56c-.21-2.92-.53-5.84-.86-8.75-.73-6.25-1.68-12.47-2.9-18.64q-.9-4.56-2-9.08c-.69-2.75-1.23-5.8-2.91-8.15A12.09,12.09,0,0,0,265,72.63c-3-5.06-8.5-8.19-13.93-10.55-2.37-1-5.12-.73-6.56,1.72-.26.44-.53.88-.82,1.3-.12.19-.26.37-.39.56h0a26.13,26.13,0,0,1-2.11,2.23c-.3.27-.6.53-.91.78.15-.14-.45.33-.69.49a22.22,22.22,0,0,1-2.83,1.65c-.23.12-.46.22-.69.33l-.08,0-.38.13-.73.26c-.57.19-1.15.34-1.73.48a7.14,7.14,0,0,1-.93,3.18,9.22,9.22,0,0,1-1.56,2.59c-1.29,1.32-4,.83-4.38-1.15a11.52,11.52,0,0,1,.21-3.7c0-.21.07-.41.11-.61l-.83-.17c-.57-.12-1.14-.26-1.71-.4-1.37-.34-2.74-.71-4.14-1a17.63,17.63,0,0,0-8.95.32A34.16,34.16,0,0,0,203.92,75a56.21,56.21,0,0,1-6.55,3.59l-.85.38-.24.11-.12,0c-.65.25-1.3.51-2,.75-1.32.48-2.65.91-4,1.29s-2.57.66-3.87.93l-1.51.28a4.71,4.71,0,0,0-3.7-1.83c-.59,0-1.18,0-1.77-.07l-.34,0-.59-.11a28,28,0,0,1-3-.83l-.4-.15c-.18-.08-.35-.15-.52-.24-.32-.15-.63-.32-.93-.49l-.24-.13c-.52-.3-1-.63-1.5-1l-.28-.21-.52-.43a5.54,5.54,0,0,0-1.6-1,3.7,3.7,0,0,0-.41-1,4.06,4.06,0,0,0-5.43-1.43,9.12,9.12,0,0,0-1.85,1.22,7.2,7.2,0,0,1,.3,2.92,4.17,4.17,0,0,1-3.61,4.09,12.51,12.51,0,0,0,.24,3.77,10.72,10.72,0,0,0,3.24,5.62c.33.3,1.11.58,1.22.91l.16.12a7.48,7.48,0,0,0,2.22,1.12,15.33,15.33,0,0,0,8.62,4.65,33,33,0,0,0,11.47-.17c3.43-.55,6.79-1.43,10.19-2.11,2-.42,4.07-.8,6.12-1.16l2.55-.44,1-.15a.16.16,0,0,0,0,.07l0,0h0c.08.3.2.58.28.88a22.26,22.26,0,0,1,.53,2.58c0-.08.11,1,.11,1,.06.67.1,1.34.12,2a100.21,100.21,0,0,1-.57,11.74c-.62,7.57-.66,15.29,2.58,22.34a21.74,21.74,0,0,0,3.68,5.54V140c.42-3.15.54-6.56,1.72-9.53a3.1,3.1,0,0,1,2.32-2.07c2.11-1.44,5.81-.15,5.79,3a48,48,0,0,1-2.28,14.37,30.3,30.3,0,0,0,5.36,2.07c8.08,2.25,16.57,1.11,24.68-.39a20.93,20.93,0,0,0,5.35-1.62,13.22,13.22,0,0,0,5.18-4.72,29.71,29.71,0,0,0,3.9-9.21l1.53-.12c2.9-.25,6.3-.16,9-1.15C278.79,129.18,280.27,125.47,280,121.56ZM250.4,72.31l-.39.38a1.18,1.18,0,0,1-.22.14l.5-.58Zm-7.3,66.31a3.73,3.73,0,0,0,.82,0l.33,0,.12.13q-.74.12-1.47.21Zm.3-73c.15-.19.35-.41,0,0Zm-13.17,16.1c.15,2.48-.64,5.22-1.12,7.64s-.92,4.83-1.43,7.23c-.82,3.76-1.6,7.53-2.38,11.29a19.43,19.43,0,0,1-.54,4.54,4.17,4.17,0,0,1-6.06,2.46,4,4,0,0,1-1.83-4.66h-.07a17.12,17.12,0,0,1,1.44-3.12c1.31-4,2.54-8,3.66-12.1.68-2.45,1.4-4.88,2.08-7.33s1.12-4.91,2.28-7C227.34,78.67,230.1,79.69,230.23,81.69Zm-24.79,12-.05,0h0C205.9,93.86,205.68,93.76,205.44,93.66Zm0,.21h0Zm10.8,32.39c-3.55.12-9-.48-9.37-5a2.74,2.74,0,0,1,2.71-2.71,6.51,6.51,0,0,1,2.13.42c.31.09.61.19.93.26.08,0,.59.11.56.12a21,21,0,0,0,4-.11c.7-.06,1.41-.14,2.11-.23,0-.14,0-.29-.07-.44-.19-2,2.06-3.33,3.78-3.27a10.25,10.25,0,0,1,4.12,1.33,14.23,14.23,0,0,1,1.41.81,3.91,3.91,0,0,1,1.69,1.26,15,15,0,0,1,1.55,1.54,3.51,3.51,0,0,1,.53-.36,6.4,6.4,0,0,1,6.28.3,6.74,6.74,0,0,1,3.22,5.43c.2,1.85-1.46,3.45-3.05,4,.84-.28-.92.35-1.23.43a13.37,13.37,0,0,1-1.78.25,10.6,10.6,0,0,1-2,.06,9,9,0,0,1-3.39-.88,4.23,4.23,0,0,1-2.12-2.31,3.37,3.37,0,0,1-1.32-.93c-.33-.36-.63-.73-1-1.09-1.22.22-2.46.37-3.69.55A57.45,57.45,0,0,1,216.24,126.26Z" fill="#ccd7db"/><path d="M157.82,64c-1.23-3.24-2.3-6.68-4.16-9.62a10.37,10.37,0,0,0-3.86-7.67c-1.61-1.23-4.05.81-3.42,2.63.06.17.12.34.19.51a3.75,3.75,0,0,0-1-.84,5.17,5.17,0,0,0-1.73-.43,14.55,14.55,0,0,1-2.23-1l-6.25-2.94c-2.24-1.05-4.21,2.26-2,3.35L138,50.14a30,30,0,0,1,3.63,1.72v0a1.23,1.23,0,0,0,0,.16c-.18.38-.31,1-.44,1.27a6.42,6.42,0,0,0-.65,4.64c.81,2.91,3.49,4.43,5.78,6.08a3.8,3.8,0,0,0,1.71.69c.37,1,.74,2,1.13,3l2.28,5.93c.88,2.28,1.61,5.23,3.52,6.89a4.4,4.4,0,0,0,3.48,1.15,4.17,4.17,0,0,0,3.61-4.09,7.2,7.2,0,0,0-.3-2.92c-.4-1.48-1.09-3-1.57-4.26C159.4,68.3,158.63,66.14,157.82,64Z" fill="#f2b991"/><path d="M222.38,125.67c1.23-.18,2.47-.33,3.69-.55.32.36.62.73,1,1.09a3.37,3.37,0,0,0,1.32.93,4.23,4.23,0,0,0,2.12,2.31,9,9,0,0,0,3.39.88,10.6,10.6,0,0,0,2-.06,13.37,13.37,0,0,0,1.78-.25c.31-.08,2.07-.71,1.23-.43,1.59-.54,3.25-2.14,3.05-4a6.74,6.74,0,0,0-3.22-5.43,6.4,6.4,0,0,0-6.28-.3,3.51,3.51,0,0,0-.53.36,15,15,0,0,0-1.55-1.54,3.91,3.91,0,0,0-1.69-1.26,14.23,14.23,0,0,0-1.41-.81,10.25,10.25,0,0,0-4.12-1.33c-1.72-.06-4,1.26-3.78,3.27,0,.15,0,.3.07.44-.7.09-1.41.17-2.11.23a21,21,0,0,1-4,.11s-.48-.1-.56-.12c-.32-.07-.62-.17-.93-.26a6.51,6.51,0,0,0-2.13-.42,2.74,2.74,0,0,0-2.71,2.71c.33,4.53,5.82,5.13,9.37,5A57.45,57.45,0,0,0,222.38,125.67Z" fill="#f2b991"/><path d="M230.78,19.49a3.53,3.53,0,0,0-1.38,1.17c.23-.13.47-.25.71-.36A4.89,4.89,0,0,1,230.78,19.49Z" fill="#f4bb92"/><path d="M252.91,41c-1.27,1.27-3.93.4-3.76-1.56s.55-3.84.56-5.79c0-1.05,0-2.09,0-3.14V29.9a20,20,0,0,1-4.64-.67l-4.88-1c-3.06-.6-6.87-.83-9.27-2.94a2.91,2.91,0,0,0-1.39.74,1.89,1.89,0,0,1-2.08.41,31.54,31.54,0,0,0,0,10.66c0,1.71-.09,3.41-.1,5.12,0,3,0,6.1.22,9.14s.84,6.14,3.11,8.49a2,2,0,0,0,.26.24,10.83,10.83,0,0,1-1.56,3.63,3.7,3.7,0,0,0,6.39,3.73q.24-.35.45-.69a3.79,3.79,0,0,0,1.85-.63,52.09,52.09,0,0,0,7.9-6.37,10.8,10.8,0,0,0,2.71-3,4.33,4.33,0,0,0,.54-3.05q1.38-2.25,2.67-4.57a5.55,5.55,0,0,0,1.21-2c.11-.27.2-.55.3-.83,1.3-2.59,2.31-5.35,1.56-8A16.81,16.81,0,0,1,252.91,41Z" fill="#f2b991"/><path d="M226.31,76.68c.36,2,3.09,2.47,4.38,1.15a9.22,9.22,0,0,0,1.56-2.59,7.14,7.14,0,0,0,.93-3.18,2.81,2.81,0,0,0-.19-.94,3.19,3.19,0,0,0-1.75-2,2.9,2.9,0,0,0-2.67.15,4.46,4.46,0,0,0-1.94,3.05c0,.2-.08.4-.11.61A11.52,11.52,0,0,0,226.31,76.68Z" fill="#3e4268"/><path d="M226.26,80.62c-1.16,2.11-1.65,4.71-2.28,7s-1.4,4.88-2.08,7.33c-1.12,4.07-2.35,8.09-3.66,12.1a17.12,17.12,0,0,0-1.44,3.12h.07a4,4,0,0,0,1.83,4.66,4.17,4.17,0,0,0,6.06-2.46,19.43,19.43,0,0,0,.54-4.54c.78-3.76,1.56-7.53,2.38-11.29.51-2.4,1-4.82,1.43-7.23s1.27-5.16,1.12-7.64C230.1,79.69,227.34,78.67,226.26,80.62Z" fill="#3e4268"/><path d="M222.12,131.37c0-3.11-3.68-4.4-5.79-3a3.1,3.1,0,0,0-2.32,2.07c-1.18,3-1.3,6.38-1.72,9.53v.09c-.22,1.73-.45,3.46-.67,5.19l-1.14,5.06a3.63,3.63,0,0,0,2.49,4.38,3.25,3.25,0,0,0,.82.12,3.58,3.58,0,0,0,3.56-2.6l.12-.54a2.66,2.66,0,0,0,.36-.59l.27-.64c.66-1.56,1.25-3.14,1.75-4.74A48,48,0,0,0,222.12,131.37Z" fill="#3e4268"/><path d="M227.44,26.47a1.89,1.89,0,0,0,2.08-.41,2.91,2.91,0,0,1,1.39-.74c2.4,2.11,6.21,2.34,9.27,2.94l4.88,1a20,20,0,0,0,4.64.67v.59c0,1.05,0,2.09,0,3.14,0,1.95-.39,3.86-.56,5.79s2.49,2.83,3.76,1.56A16.81,16.81,0,0,0,255,38.41a23.15,23.15,0,0,0,3.67-10.87c.14-1.9-1.13-3.08-2.52-4.1a9.77,9.77,0,0,1-3.1-3.19,11.88,11.88,0,0,0-7.84-4.91,31.71,31.71,0,0,0-9.48,0,13.62,13.62,0,0,0-3.7.77,6.41,6.41,0,0,0-3.45,3.68c-.63,1.47-1.4,2.44-2.13,3.92A2,2,0,0,0,227.44,26.47Z" fill="#969696"/><path d="M125.21,49.45a3.45,3.45,0,0,0-1.2-4.58,3.38,3.38,0,0,0-4.58,1.2l-3.49,7.42Q111,64,106.15,74.62l-3.33,7.28-.2.44a57.09,57.09,0,0,1-2.81,6,10.54,10.54,0,0,1-3.9,3.38l-.71.44-6.38,4-3,1.84c-3,1.87-6,3.85-8,6.82-.17.24-.33.5-.49.76-2.57,4.26-4.74,8.82-7.1,13.22L62.69,132.8c-1,1.83-2,3.66-2.92,5.5l-.56,1.06a9.07,9.07,0,0,1-3.76,4.26l-1.64.86c-4.59,2.36-9.39,4.38-14.08,6.52q-8.14,3.7-16.28,7.44a2.86,2.86,0,0,0-1,3.88,2.89,2.89,0,0,0,3.87,1c9.27-4.29,18.5-8.69,27.83-12.84l1.28-.58c2.23-1,4.48-1.9,6.22-3.68a25.22,25.22,0,0,0,3.83-5.65l.77-1.42q3.41-6.3,6.83-12.59,2.45-4.53,4.91-9l2.7-5c1-1.85,1.9-4,3.38-5.51a27,27,0,0,1,5.58-3.86l.22-.14,6-3.72.38-.24a59.08,59.08,0,0,0,6.33-4.17c3.34-2.69,5.05-7,6.77-10.91.26-.61.53-1.22.81-1.81q2.66-5.72,5.3-11.45Q120.39,60.11,125.21,49.45Z" fill="#ee6e7a"/><path d="M284.56,188.44H262.68a.53.53,0,0,1-.43-.22.5.5,0,0,1-.09-.47c4.58-14.93-2-35.08-3.17-38.49-1.84.6-6.05,1.66-6.25,1.71a.56.56,0,0,1-.47-.1.57.57,0,0,1-.2-.44s0-.13,0-.3c-15,4-30.06-.19-30.24-.24a.54.54,0,0,1-.38-.61l.54-3.09a.59.59,0,0,1,.25-.37.55.55,0,0,1,.45,0c6.07,2.07,15-.65,15.11-.68a.5.5,0,0,1,.27,0c9.46,2.09,21.18-4.08,22.58-4.83a46.14,46.14,0,0,0,4.14-10.83c-.65-.09-1.26-.2-1.82-.29-1.68-.28-3.12-.52-3.7-.23-2.34,1.17-6.7-.58-6.88-.65a.54.54,0,0,1-.32-.37,19.11,19.11,0,0,0-.9-2.71,19.75,19.75,0,0,1,.47,2.76c0,.55,0,1.09-.36,1.34a15.27,15.27,0,0,1-4.07.84c-3.55.39-3.77.06-3.93-.18-.34-.52-2.79-9.06-2.13-11.4a1.18,1.18,0,0,1,.61-.8,6.35,6.35,0,0,1,4.74.59,9.75,9.75,0,0,1,1.85,1.16A6.58,6.58,0,0,0,247,117c-.91-.45-6.11-.19-8.36.74-.65.26-.73.46-.73.46s0,.06.13.14c2.24,2.1,4.14,9.42,4.22,9.73a.56.56,0,0,1-.07.42.54.54,0,0,1-.35.24,24.11,24.11,0,0,1-6.09.6,1.78,1.78,0,0,1-1.12.61,6.7,6.7,0,0,1-5.27-1.37,2.1,2.1,0,0,1-.92-1.44c0-.13-.25-.34-.6-.57-.72.13-1.53.19-2.45.26-.6,0-1.27.09-2,.17-1.82,12.23-3.12,22.7-3.15,22.89a.54.54,0,0,1-.21.37l-7.25,5.37a.5.5,0,0,1-.46.08.53.53,0,0,1-.36-.31L208.51,147c-4.09,13.89-1.14,40.54-1.1,40.81a.58.58,0,0,1-.14.42.54.54,0,0,1-.4.18H118a.54.54,0,0,1-.46-.26l-4.7-7.71H99.52L93,188.25a.53.53,0,0,1-.41.19H.54a.54.54,0,1,1,0-1.07H92.31l6.55-7.79a.53.53,0,0,1,.41-.19h12.9l-1-1.69H15.33a6.09,6.09,0,0,1-4-1.58,5.28,5.28,0,0,1-1.45-3.89,6.21,6.21,0,0,1,4.73-6.33h3.41V10.33H14.6s-4.14-.3-4.14-5A5,5,0,0,1,14.57,0H177s5.17.43,5.17,5.49S177,11,177,11H173V76.12a4.68,4.68,0,0,1,1.09,1.58l.09.18a1.48,1.48,0,0,0,.56.47l.31-.53a.55.55,0,0,1,.64-.24.54.54,0,0,1,.35.59c0,.26-.08.52-.13.78,1.87.82,4.69,1.63,5.81,1.07,2.2-1.1,5.24-1.55,6.84,0,1.5-.35,9.65-5.9,14.08-8.93,2.82-1.92,5.26-3.58,6.3-4.18,2.65-1.55,6.41-1.54,9.43-1.53.81,0,1.57,0,2.23,0a8.42,8.42,0,0,0,3.48-1.25A15.72,15.72,0,0,1,228,58.23a.55.55,0,0,1,.32-.14,5.22,5.22,0,0,0-.45-1.93c-2.35-5.36-2.34-13-2.33-13.86a21.68,21.68,0,0,1-.37-6.6,5,5,0,0,1-.43-1.64v-.24c-.05-5,.52-11.49,3.49-13.95.25-1.13,1.86-5.81,11.83-5.68,9,.11,13,4.85,14,6.23A5.75,5.75,0,0,1,257.51,23c1.61,2.52,1.63,6.35,0,11.38a15.32,15.32,0,0,1-3.21,5.18.55.55,0,0,1-.45.16.53.53,0,0,1-.4-.26,23.52,23.52,0,0,1-2.22-14.08c-2.46.87-9.51,3.09-15.11,2.09l.73.19c5.05,1.16,12.83-.65,12.91-.67a.5.5,0,0,1,.41.07.53.53,0,0,1,.24.34c.69,3.21-.73,7.26-1.3,8.67a2,2,0,0,1,.69.72c.88,1.52.22,4.47-.15,5.81l.62,0,.9-1.46a.81.81,0,0,1,.12-.14c.7-.56,2.31-1.41,3.4-.65s1.05,2.38.13,5.13-2.08,4.45-3.44,5a2.23,2.23,0,0,1-1.19.11c-3.59,8.61-11,10.89-15.22,10.89h-.41a5.51,5.51,0,0,1-4.52-2.65,39.75,39.75,0,0,0-.16,6,.53.53,0,0,1-.37.53.55.55,0,0,1-.62-.22,8.83,8.83,0,0,1-.87-3.1A11.16,11.16,0,0,1,225,64.82a25.25,25.25,0,0,0-1,3.45,6.31,6.31,0,0,1,1-1,7.93,7.93,0,0,1,5.4-1.53.57.57,0,0,1,.41.28.55.55,0,0,1,0,.5,5.16,5.16,0,0,0-.24,4.14,1,1,0,0,0,.36.49,1.54,1.54,0,0,0,.26-.4c1.11-2.39,7.67-6,8.42-6.42l.1,0c2.41-.74,8-6.82,10-9.1a.53.53,0,0,1,.67-.12c1,.57,3.35,4,3.81,4.73a.58.58,0,0,1,.09.34c-.28,4.28-10.77,17.09-11.21,17.63a.53.53,0,0,1-.56.18.55.55,0,0,1-.39-.44c-.54-3.55-1.91-9.47-3.29-10.2a.29.29,0,0,0-.3,0l-.1,0a1.19,1.19,0,0,1,.22.08,2.35,2.35,0,0,1,1,1.73.53.53,0,0,1-.13.48c-.09.1-2.31,2.47-4.17,3a.54.54,0,0,1-.5-.11.52.52,0,0,1-.19-.47,5.34,5.34,0,0,1,.1-.61c-.32.26-.64.49-.94.71l.14,0a.55.55,0,0,1,.58.23.54.54,0,0,1,0,.62c-1,1.22-3.27,4.07-4.13,4.36l-.09,0a3.14,3.14,0,0,1-2.93-.21,1.09,1.09,0,0,1-.17-.13c0,.43,0,.8,0,1.06a6.26,6.26,0,0,0,2.51-.28.53.53,0,0,1,.46,0c.47.26,2.58,2.36-1.35,18.58-1.19,4.92-2.43,11.63-3.58,18.64,1.74.8,3.57,1.76,3.93,2.39a2.53,2.53,0,0,0,.71.6,3.35,3.35,0,0,1,1.77,3.57c0,.16,0,.34-.07.52a4.38,4.38,0,0,1-2.06,3.76,4.71,4.71,0,0,1-.45.22,1.35,1.35,0,0,1,.44.92s.14.35.69.75a5.83,5.83,0,0,0,4,1,1.43,1.43,0,0,1-.65-1.78,2.71,2.71,0,0,0-2.08-.32.53.53,0,0,1-.57-.14.56.56,0,0,1-.1-.59c.62-1.36,2-5.3,1.21-7.22a.53.53,0,0,1,.55-.74l2.55.27a.52.52,0,0,1,.45.36c.19.57,1.77,5.58-.12,7.53l0,0a4.43,4.43,0,0,0-.45.49l.21.18a2.7,2.7,0,0,1,.83,1.27,21.37,21.37,0,0,0,5.09-.48c-.48-1.74-2.07-7.08-3.75-8.65a1.16,1.16,0,0,1-.27-1.57c1.22-1.74,9-2.22,10.44-1.52.84.42,1.83,2.71,2.63,5.23a16.13,16.13,0,0,1,2.95,6.13c1.31.49,4.27,1.33,5.75.59.89-.44,2.34-.2,4.35.13l1.87.3c1-5.11.37-9.3-1.88-12a7.83,7.83,0,0,0-4-2.55c-.7.58-2.19.76-4.4,1-.89.09-1.82.19-2.69.32A7.37,7.37,0,0,0,252,117a18.23,18.23,0,0,0,.61,3.5l.2.21c2.58,2.72,4,4.31,3.69,5.39s-.95,1.2-1.29,1.17c-1.36-.13-2.73-3.24-3.55-6.21-2.26-2.39-3.6-4-3.52-5a1,1,0,0,1,.41-.78,6.55,6.55,0,0,1,2.74-1,1.88,1.88,0,0,1,1.16-1.1,12.86,12.86,0,0,1,6.28-.47,50.85,50.85,0,0,0,1.76-5.4A75.56,75.56,0,0,1,259.63,97c-.08-4.32.17-11.43,2.23-16.81,0-.7.07-1.4.1-2.08.19-4.3.36-8,.32-9.22-.11-2.52-5.18-6.06-7.13-7.21a.54.54,0,0,1-.23-.63.52.52,0,0,1,.55-.37c2.19.18,7.51,3.45,8.71,4.25l.54.36a61.9,61.9,0,0,0,5.46,3.37c2.46,1.31,7,8.92,7.26,14.41.27,5.13,4.07,25.36,5,29.74.8,3.89-.74,14.08-3.95,15.38a24.61,24.61,0,0,1-12.57,1.43,47.24,47.24,0,0,1-4.36,11.32.63.63,0,0,1-.21.22c-.45.25-9.77,5.48-19,5.48a20.92,20.92,0,0,1-4.33-.43c-1.18.35-9.05,2.54-15,.81l-.35,2c2.66.67,16.24,3.72,29.66,0,.28-1.29,1-3.06,2.55-3.72a19.92,19.92,0,0,0,3.91-2.21.54.54,0,0,1,.55-.06.56.56,0,0,1,.31.47l.13,3.49a.53.53,0,0,1-.3.5,39.8,39.8,0,0,1-4.84,1.95c1.65-.43,3.78-1,4.54-1.32a.55.55,0,0,1,.42,0,.55.55,0,0,1,.28.3c.09.23,8.24,22.42,3.57,39h21.17a.54.54,0,1,1,0,1.07Zm-166.28-1.07h88c-.45-4.31-2.83-29.34,1.67-42.07a.53.53,0,0,1,.49-.36.54.54,0,0,1,.51.33l3.76,9,6.51-4.83c.2-1.59,1.43-11.23,3.08-22.39-.62.09-1.29.2-2,.35-3.31.7-5.72.47-7.17-.66a3.18,3.18,0,0,1-1.27-2.24.62.62,0,0,1,0-.13c.07-.3.47-2.14,1.12-4.94a6.83,6.83,0,0,1-1.43-.49,1.87,1.87,0,0,0-2.54.35.52.52,0,0,1-.37.24.56.56,0,0,1-.43-.13,3.85,3.85,0,0,0-3.12-1.17c-.25,1.63,3.78,5.34,6.88,7.58a.53.53,0,0,1,.21.52l-2.55,15.71a.53.53,0,0,1-.53.45h0a.54.54,0,0,1-.53-.46c-.07-.49-1-1.35-1.65-1.79h0c-7.44-5.84-4.82-23.6-4.22-27.1,1.85-10.81,2.3-16.57,1.93-17.7-2.31.51-14,2.49-16,2.07a23.61,23.61,0,0,0-5.24.51,40.71,40.71,0,0,1-7.71.71,10.29,10.29,0,0,1-2.61-.68v67.81h5.64c.06,0,6,.72,6,6.75a8.3,8.3,0,0,1-5.26,7.8.47.47,0,0,1-.17,0h-65.2Zm-4.86-8h65.76a7.09,7.09,0,0,0,4.46-6.75c0-4.92-4.61-5.62-5-5.68H173v10.2a.54.54,0,0,1-.53.54H112.39ZM14.81,167A5.09,5.09,0,0,0,11,172.23a4.2,4.2,0,0,0,1.13,3.12,5,5,0,0,0,3.2,1.28h95.15l-.86-1.41H20.79a.47.47,0,0,1-.17,0c-2.3-.76-2.55-3.65-2.56-3.77V167Zm96.93,9.67H172V167H120.46v3.64a.54.54,0,0,1-.54.54H60.33a.54.54,0,0,1-.54-.54v-4.18a.54.54,0,0,1,.54-.53h59.05v-3H53.8v3.51a.54.54,0,0,1-.53.54H19.13v4.4c0,.2.28,2.23,1.75,2.79h89.05a.52.52,0,0,1,.45.26Zm-50.87-6.56h58.51V167H60.87Zm59.59-4.18H172V97.65c-3.59-1.54-7.94-4.22-8.5-5.4a.75.75,0,0,1,0-.78,1.12,1.12,0,0,1,1-.33c.85.07,2.41-1.46,4.17-3.7a12.88,12.88,0,0,1-4,.19,10.68,10.68,0,0,1-1.43,1.87l-.11.08a2.75,2.75,0,0,1-2.15.19c-1.65-.45-3.21-2.08-4.64-4.82a.54.54,0,0,1,.09-.63.53.53,0,0,1,.63-.1,24.57,24.57,0,0,0,7,2.24c2.56-5.19-.28-11.8-1.31-14.19-.13-.3-.22-.52-.28-.68a4,4,0,0,0-.38-.69c-.18.86-.36,1.93-.52,2.88-.69,4.15-1.48,8.87-3.53,9.72a2.1,2.1,0,0,1-2.09-.38.49.49,0,0,1-.19-.26c-.05-.13-4.29-12.57-6.32-17.41a17.56,17.56,0,0,1-8.31-3.85c-3.13-2.88-2.18-7.47-1.84-8.71-.55-.62-1.89-2.31-1.48-3.75A40.43,40.43,0,0,0,133,47.5c-1.2-.22-2.64-1.15-2.79-2.15a1.21,1.21,0,0,1,.77-1.27c1.65-.83,9.36,1.55,11,2.42a24.84,24.84,0,0,0,4.89,2.18l-.28-.35c-1-1.24-2.75-3.32-1.23-4.94a.53.53,0,0,1,.65-.11,14.33,14.33,0,0,1,2.8,2.11c.38.37.89.8,1.43,1.26,1.3,1.09,2.52,2.12,2.74,3,.07.29.28,1,.55,2,.94,3.39,1.79,6.5,1.88,7.35.12.61,2.57,4,4.35,6.52.85,1.19,1.57,2.2,2.15,3a.86.86,0,0,1,.29-.22.78.78,0,0,1,.75.06,19.52,19.52,0,0,1,3,3.08c1.32,1.52,4.08,4.68,4.82,4.39a2.71,2.71,0,0,1,1.25-.2V10.45a.54.54,0,0,1,.54-.54h4.39c.33,0,4.16-.44,4.16-4.42s-3.83-4.39-4.16-4.42H14.67c-.33.06-3.14.61-3.14,4.22s2.87,3.94,3.12,4h3.41V6.49A.54.54,0,0,1,18.6,6H171.18a.52.52,0,0,1,.44.23.51.51,0,0,1,.07.49,6.35,6.35,0,0,1-4.36,3.64l-.11,0H19.13V165.89h33.6v-3h-29a.54.54,0,0,1-.52-.41.53.53,0,0,1,.28-.6L52.73,147V136.8a.54.54,0,0,1,.54-.54h11.1l11-20.31V96.53A.54.54,0,0,1,76,96h13a.54.54,0,0,1,.54.53v1l3.79-3V81a.54.54,0,0,1,.54-.53h10.59l6.7-15.16V40.16a.54.54,0,0,1,.53-.54H126.2a.54.54,0,0,1,.54.54v115.4h42.77a.54.54,0,0,1,.54.53v6.28a.54.54,0,0,1-.54.54h-49Zm0-4H169v-5.21H126.2a.54.54,0,0,1-.54-.54V40.7H112.15V62.91l7.28-16.49a.52.52,0,0,1,.6-.3.53.53,0,0,1,.43.52Zm-66.66,0h65.58V49.19l-7.23,16.38V156.7a.54.54,0,0,1-.54.54H108a.54.54,0,0,1-.54-.54V81.57h-2.35l-3.31,7.5a.45.45,0,0,1-.16.2L94.32,95V156.9a.54.54,0,0,1-.53.54H88.92a.54.54,0,0,1-.53-.54V99.73l-5.12,4-6.78,12.45v41.29a.54.54,0,0,1-.53.54h-7.9a.54.54,0,0,1-.54-.54V137.34H65l-3.37,6.2a.49.49,0,0,1-.23.22l-7.61,3.88Zm-27.83,0H52.73V148.19ZM68.59,157h6.83V118.2L65.6,136.26h2.46a.54.54,0,0,1,.53.54Zm20.87-.6h3.79V95.88l-3.79,3Zm19-.21h2.58V68l-5.52,12.5H108a.53.53,0,0,1,.53.53Zm150.05-11.69a20.5,20.5,0,0,1-3.32,1.78,3.47,3.47,0,0,0-1.76,2.37,39.91,39.91,0,0,0,5.17-2ZM53.8,137.34v9.1l7-3.56,3-5.54Zm153.75,2.07a8.18,8.18,0,0,1,1.26,1.08l2.27-14c-1.85-1.36-8-6.14-6.92-8.83h0a.53.53,0,0,1-.41-.19,1.65,1.65,0,0,1-.43-1C202.6,122.49,201.93,135,207.55,139.41Zm36.6-10.2a26,26,0,0,0,6.44-.77,22.55,22.55,0,0,0-1.19-5.92l-.24-.76a9.28,9.28,0,0,0-3.1-2.46,5.46,5.46,0,0,0-3.81-.59C241.55,119.65,243.55,127.67,244.15,129.21Zm22-.69a23.62,23.62,0,0,0,11.95-1.37c2.31-.94,4.14-10.08,3.3-14.16-.66-3.17-4.72-24.46-5-29.91-.25-5-4.54-12.37-6.69-13.51a63,63,0,0,1-5.56-3.43l-.53-.36c-1-.64-2.56-1.6-4.13-2.43,1.9,1.56,3.81,3.59,3.89,5.46,0,1.2-.1,4.55-.3,8.82a14,14,0,0,1,.89-1.33c.44-.58,1.62-2.13,2.67-1.4.53.37,2.16,1.5-1.73,19.19-.52,2.33-1.07,4.68-1.62,6.9.05.23.1.45.15.69,1.1,4.86,2.35,10.38-.3,11.5a.84.84,0,0,1-1-.36,9.82,9.82,0,0,1-1.15-3.29c-.45,1.46-.84,2.62-1.15,3.34a8.85,8.85,0,0,1,4.19,2.81c1.94,2.33,2.82,5.72,2.54,9.79A28.3,28.3,0,0,1,266.12,128.52Zm-53.18-4a2.17,2.17,0,0,0,.87,1.39c.82.63,2.58,1.22,6.26.44.86-.18,1.65-.31,2.39-.41.17-1.14.34-2.3.52-3.46a14,14,0,0,1-1.16-3.37c-.34,1.59-2.17,2.11-3.15,2.17a.56.56,0,0,1-.35-.11l-1.72-1.28c-.8-.05-1.69-.12-2.54-.26C213.42,122.36,213,124.16,212.94,124.56Zm19.18,1.06a4.38,4.38,0,0,1,1.92.55,5.2,5.2,0,0,1,.61-.67c1.12-1.18.43-4.54,0-6.1l-1.41-.15C233.59,121.34,232.66,124.19,232.12,125.62Zm21.27-2.76c.69,1.81,1.47,3.15,1.89,3.29a1.08,1.08,0,0,0,.19-.4C255.55,125.33,254.49,124.06,253.39,122.86Zm-29.54,1c-.09.65-.19,1.3-.29,2,.63-.07,1.22-.11,1.75-.15l.83-.07-.17-.06h0A5.53,5.53,0,0,1,223.85,123.91Zm2.52.67a12.5,12.5,0,0,1,1.68.79,3.42,3.42,0,0,0,1-.36c1.23-.68,1.37-1.84,1.51-3,0-.19,0-.37.08-.55.23-1.43-.53-2-1.33-2.52a3.23,3.23,0,0,1-1-1,12.72,12.72,0,0,0-3.19-1.81c-.33,2-.65,4.09-1,6.13A5.08,5.08,0,0,0,226.37,124.58ZM222.29,115a24,24,0,0,0,1,5.5c.25-1.59.5-3.18.76-4.75-.58-.26-1.17-.51-1.74-.75Zm-3.82,5,.33.24c.51-.06,1.91-.36,2-1.49,0-.3-1.17-.64-1.89-.85-.43-.12-.88-.25-1.31-.41l1.93,1.55a.55.55,0,0,1,.17.59.53.53,0,0,1-.49.36Zm32.5-4.64a4.81,4.81,0,0,0-1.76.73c-.13.39.88,1.64,2,2.84-.09-.49-.15-1-.2-1.36A9.5,9.5,0,0,1,251,115.34Zm-34,3.53.67,0-2.78-2.22-.08,0-.12.52Zm-2.67-.24.67.09-.58-.44Zm-2.79-.84a4.73,4.73,0,0,1,.53.23,6,6,0,0,0,1.2.41c0-.2.09-.4.14-.61Zm-3.86-.05a6.32,6.32,0,0,1,.87.56,2.85,2.85,0,0,1,.89-.54Zm8.86-3.42a1.46,1.46,0,0,0-.1,1.08c.31.74,1.63,1.12,2.79,1.45a5.28,5.28,0,0,1,2.37,1.08c-.15-.88-.27-1.85-.35-2.88-.63,0-1.33,0-1.62,0A16,16,0,0,1,216.51,114.32Zm-12.08,2.3,9.21.13c0-.15.07-.3.11-.45a8.39,8.39,0,0,0-1.95-.22h-6.16a2.14,2.14,0,0,0-1.27.39A.34.34,0,0,0,204.43,116.62Zm.33-22.27a.76.76,0,0,1,.53.21c.36.33,1.44,1.34-1.55,18.79-.07.41-.24,1.43-.41,2.86a.76.76,0,0,1,.06-.18c.39-.89,1.91-1,2.21-1h6.2a9.88,9.88,0,0,1,2.2.24c2.59-10.6,7.13-27.54,11.42-35.27a.54.54,0,0,1,1,.38,189,189,0,0,0-3.63,20.7,79.75,79.75,0,0,0-.57,12.88h.16a.59.59,0,0,1,.23,0l1.62.69c1.15-6.94,2.38-13.57,3.56-18.44C231,83.15,230.1,79.75,229.72,79a7.63,7.63,0,0,1-3.1.18.55.55,0,0,1-.46-.51c0-.11-.07-1.51-.13-3.08A15.86,15.86,0,0,1,225,69.51a.57.57,0,0,1,0-.18,5.57,5.57,0,0,1,.46-1,6.94,6.94,0,0,0-2.1,4.61.54.54,0,0,1-.57.48.53.53,0,0,1-.5-.55,29,29,0,0,1,1.3-7.23,8.05,8.05,0,0,1-2.89.8c-.68,0-1.45,0-2.27,0-2.9,0-6.49,0-8.89,1.38-1,.59-3.43,2.24-6.23,4.15C190,81,188.6,81.58,188,80.87c-1.27-1.38-4.11-.69-5.71.11-1.36.68-4-.06-5-.41a14,14,0,0,1-1.48-.56A11,11,0,0,1,173,85.1V97a10,10,0,0,0,2.68.74A39.71,39.71,0,0,0,183.2,97a22.11,22.11,0,0,1,5.62-.49c1.73.38,14.1-1.7,15.75-2.11A.63.63,0,0,1,204.76,94.35ZM215,115.57l.35.16a2.78,2.78,0,0,1,.37-2.32.52.52,0,0,1,.64-.25,18.72,18.72,0,0,0,3.26.83c.25,0,.88,0,1.49,0a81.49,81.49,0,0,1,.57-13c.69-6.2,1.82-12.25,2.64-16.22C220.78,93.25,217.22,106.68,215,115.57ZM76.49,97.07V114l5.88-10.82a.73.73,0,0,1,.14-.16l5.88-4.64V97.07Zm180.13,16.42a12.79,12.79,0,0,0-2.81.33l.86-.08c.67-.07,1.45-.15,2.13-.25Zm5-6.22a16.57,16.57,0,0,0,1.28,4.82c1.37-.94.58-5.28-.2-8.8C262.3,104.71,261.94,106.05,261.59,107.27Zm.08-22.61a58.18,58.18,0,0,0-1,12.77c.07,2.65.25,5.08.5,7.17.31-1.14.62-2.35.94-3.62-.22-1-.42-2-.55-2.74C261.29,96.21,261.43,90.57,261.67,84.66Zm1.26-4.31c-.31,7-.64,15.31-.27,17.72l.09.49c.36-1.53.73-3.1,1.08-4.7,2.93-13.33,2.71-17.64,2.18-18.07-.07,0-.43.13-1.22,1.16A14.74,14.74,0,0,0,262.93,80.35ZM164.79,92.21A34.67,34.67,0,0,0,172,96.49V86a8.36,8.36,0,0,1-1.08.65l-.4.19C167.32,91.16,165.73,92.09,164.79,92.21ZM94.32,81.57v12.1l6.52-5.16,3.07-6.94Zm63.82,4.32c1.24,1.93,2.34,2.61,3.09,2.83a1.91,1.91,0,0,0,1.31,0,9.88,9.88,0,0,0,1-1.22A24,24,0,0,1,158.14,85.89Zm7.08.69a10.39,10.39,0,0,0,4.57-.59c.72-1,1.46-2,2.18-3.13V76.75a1.49,1.49,0,0,0-.86.13c-1.35.51-3.26-1.52-6-4.69a25.89,25.89,0,0,0-2.58-2.73.17.17,0,0,1,0,.05,10.34,10.34,0,0,1,1,1.71c.05.13.14.35.26.63C164.82,74.32,167.71,81,165.22,86.58ZM173,83.16v.27a9.11,9.11,0,0,0,1-1.88C173.76,82.06,173.41,82.6,173,83.16Zm-16.31-.82a1,1,0,0,0,.92.16c1.5-.62,2.33-5.6,2.88-8.9a38.18,38.18,0,0,1,.78-3.92c-.71-1-1.63-2.33-2.49-3.53-3-4.24-4.47-6.32-4.55-7s-1.19-4.81-1.85-7.18c-.26-1-.47-1.71-.55-2-.14-.56-1.44-1.65-2.39-2.45-.56-.47-1.09-.92-1.5-1.32a11.7,11.7,0,0,0-2.14-1.67c-.33.84.52,2,1.51,3.17.63.77,1,1.19.84,1.67a.7.7,0,0,1-.48.45c-.87.25-3-.53-6.31-2.32-1.87-1-8.93-2.94-10-2.41,0,0-.19.1-.18.16,0,.36.95,1.07,1.92,1.25a46,46,0,0,1,5.6,1.91.54.54,0,0,1,.32.34.52.52,0,0,1-.08.47c-.66.9.74,2.65,1.29,3.2a.54.54,0,0,1,.13.54c0,.05-1.6,5.09,1.46,7.9a16.93,16.93,0,0,0,8,3.62.54.54,0,0,1,.42.32C152.21,69.12,156.2,80.78,156.73,82.34ZM173,77.93V81.2c.41-.66.82-1.3,1.2-1.94a2.56,2.56,0,0,1-1-.9l-.1-.19Zm54.06-2.64a2.78,2.78,0,0,0,.85,1,2.1,2.1,0,0,0,2,.08l.1,0a18.34,18.34,0,0,0,2.82-3,6.55,6.55,0,0,1-.88,0,3.89,3.89,0,0,1-3,.47,2.07,2.07,0,0,1-1.3-1.5l-.63-.24C227,72.88,227.06,74.12,227.1,75.29Zm11.51-9.1a1.48,1.48,0,0,1,.67.17c1.9,1,3.15,7,3.65,9.8,3.3-4.11,9.78-12.74,10.2-15.92a34.68,34.68,0,0,0-3-4c-1.47,1.69-7.2,8.09-10.05,9-.41.22-1,.53-1.57.89Zm-7.35,6,.47.07a19.84,19.84,0,0,0,3.56-2.58,7.24,7.24,0,0,1,1.39-2.32c-2,1.29-4,2.82-4.53,3.87A1.68,1.68,0,0,1,231.26,72.16Zm-2.69-.69c.48.16,1,.32,1.6.46a2.06,2.06,0,0,1-.36-.4,4.84,4.84,0,0,1-.64-2.67A2.53,2.53,0,0,0,228.57,71.47Zm7.63-1.18c-.12.34-.22.67-.29.95a13.91,13.91,0,0,0,2.6-2.12,1.59,1.59,0,0,0-.33-.68C237.49,69.12,236.83,69.73,236.2,70.29Zm-9.67.44a.54.54,0,0,1,.22,0l.67.27a3.43,3.43,0,0,1,1-3,1.16,1.16,0,0,0-.93-.35c-.71.14-1.27,1.33-1.46,1.85,0,.49,0,.94.07,1.37a.52.52,0,0,1,.16-.14A.56.56,0,0,1,226.53,70.73Zm2-3.85a3.79,3.79,0,0,1,.77.58,5.61,5.61,0,0,1,.19-.67C229.26,66.8,228.93,66.83,228.57,66.88Zm-.73-7a13.9,13.9,0,0,0-2,2.92A8.39,8.39,0,0,0,227.42,61a6.77,6.77,0,0,0,.44-.84C227.85,60.07,227.84,60,227.84,59.88Zm2.08-3.14H230a.53.53,0,0,1,.45.37,4.73,4.73,0,0,0,4.21,3.25c3.88.14,11.37-1.94,14.78-10.67a.53.53,0,0,1,.33-.31.54.54,0,0,1,.45,0,1.13,1.13,0,0,0,.89,0c.57-.22,1.69-1.07,2.75-4.26s.47-3.78.28-3.91c-.42-.29-1.37,0-2,.55l-1,1.67a.53.53,0,0,1-.5.25l-1.61-.13a.55.55,0,0,1-.4-.24.54.54,0,0,1-.07-.46c.37-1.13,1.17-4.34.44-5.6a.85.85,0,0,0-.57-.43.51.51,0,0,1-.37-.28.53.53,0,0,1,0-.46s2-4.51,1.53-8c-1.92.4-8.29,1.59-12.84.54-3.78-.87-5.64-2.5-6.43-3.44-.85,1.44-2.68,5-2.18,8.48v.15c0,.13-.41,3.13-.69,4.22a.53.53,0,0,1-1,.14c-.06-.1-.15-.26-.26-.47a19.73,19.73,0,0,0,.44,4.38.5.5,0,0,1,0,.12c0,.09-.11,8.14,2.23,13.47a6.24,6.24,0,0,1,.49,1.69,2.42,2.42,0,0,1,.16-.39A.54.54,0,0,1,229.92,56.74Zm22-32.75a.54.54,0,0,1,.53.63,23.65,23.65,0,0,0,1.61,13.59A13.54,13.54,0,0,0,256.53,34c1.46-4.65,1.49-8.27.07-10.49a4.66,4.66,0,0,0-3-2.11.51.51,0,0,1-.37-.23c-.65-1-4.34-5.83-13.26-5.94h-.38c-9.69,0-10.38,4.76-10.4,5a.61.61,0,0,1-.21.37c-1.93,1.44-3.05,5.33-3.21,11.06a36.91,36.91,0,0,1,3.68-9.55.53.53,0,0,1,.95.05c3.78,8.69,21.16,1.94,21.33,1.87A.45.45,0,0,1,251.94,24ZM226.23,35.56q.17.39.36.78c.17-1.06.33-2.25.37-2.55a10.53,10.53,0,0,1-.05-2.17A30.24,30.24,0,0,0,226.23,35.56Zm3.68-12q-.15.29-.33.66l.17-.25a.56.56,0,0,1,.29-.21ZM19.13,9.25h148A5.6,5.6,0,0,0,170.32,7H19.13Z" fill="#2f292b"/></g></g></svg>