<svg xmlns="http://www.w3.org/2000/svg" viewBox="0 0 283.87 193.19"><g id="Layer_2" data-name="Layer 2"><g id="Spend"><path d="M226.22,132c0-.6,0-.24,0,0Z" fill="none"/><path d="M234,126.83c0-.13.05-.26.08-.39l-.23.07Z" fill="none"/><path d="M212.44,121.38c.58-.19.22-.08,0,0Z" fill="none"/><path d="M48.67,131.67h0C48.91,131.45,48.9,131.46,48.67,131.67Z" fill="none"/><path d="M47.67,131.84c-.12.31.07.29.31.18l0,0Z" fill="none"/><path d="M262.83,26.67l-.05,0h0l.08.05Z" fill="none"/><path d="M262.65,26.41c-.06-.27,0-.16,0,0Z" fill="none"/><path d="M262.74,30.34H263l.16,0A.72.72,0,0,0,262.74,30.34Z" fill="none"/><path d="M262.59,26.52l.1.07h0Z" fill="none"/><path d="M181.86,131.42a186.13,186.13,0,0,1-8.77-18.91,175,175,0,0,1-6.33-18.92c-1.89-.79-2.85-2.34-3.6-4.21a18.53,18.53,0,0,1-1-6.82c0-.64,0-1.28,0-1.92,0-.3,0-.6,0-.9a.66.66,0,0,1,0-.15.43.43,0,0,1,0,0c-.06-.27-.13-.53-.19-.8a2.19,2.19,0,0,0-.07-.23c-.14-.25-.3-.48-.44-.73l0,0,0,0c-1.4-1.75-2.45-3.62-1.84-5.94a6.59,6.59,0,0,1,1.24-2.53,3,3,0,0,1,.11-.72,7.36,7.36,0,0,1,5.08-4.74A4.37,4.37,0,0,1,171.3,63c6.18,3.66,6.85,11.22,5.61,17.6-.32,1.6-.73,3.18-1,4.78l-.21,1.14,0,.19a18.73,18.73,0,0,0-.11,2.25c0,.13.06.68.06.82.18.69.36,1.38.55,2.07,0,.11.09.23.12.32s.3.64.28.62l.4.74c.34.62.71,1.22,1.1,1.81s1,1.4,1.49,2.09c0,0,.13.16.2.25s.35.45.53.68c1,1.21,1.92,2.43,2.89,3.64,1.94,2.46,3.86,4.92,5.83,7.35,1.35,1.66,2.73,3.29,4.21,4.84.06-15.37.28-30.74.53-46.11.08-5.27.15-10.54.24-15.81.06-2.72.11-5.44.17-8.16s-.09-5.44,0-8.15a9.08,9.08,0,0,0-.37-2.75Q181.82,30.5,169.88,28q-23.24-4.83-46.64-8.74-11.83-2-23.69-3.72l-3.41-.48-2.31-.12c-5-.3-9.77,4.64-9.59,9.59C85,44.91,85,65.32,85.35,85.71q.23,15.06.48,30.13c4.68-5.62,9.38-11.22,14-16.88,1.76-2.15,4.06-3.46,6.94-2.66,1.72.48,3.22,1.65,4.79,2.47a28.27,28.27,0,0,0,4.76,2.07c.85.29,1.71.56,2.58.79l.7.15c.25-.29.54-.57.8-.85.66-.73,1.34-1.45,2-2.17q1.85-2,3.66-4,4.06-4.46,8-9c5.24-6,10.38-12,15.34-18.25,1.43-1.8,4.33-1.37,5.82,0,1.76,1.62,1.34,4.14,0,5.82-5.52,6.93-11.12,13.79-16.91,20.5q-3.85,4.47-7.8,8.87c-1.42,1.58-2.84,3.18-4.31,4.72a9.26,9.26,0,0,1-4.72,2.91c-2.4.5-4.83-.32-7.07-1.11a50.9,50.9,0,0,1-5.18-2.15c-1-.45-1.87-.94-2.78-1.46-.36-.2-.71-.42-1.06-.63L104,106.74q-8.94,10.77-17.87,21.55c.21,6.2.46,12.4.64,18.61.35,11.57.84,23.11,1.61,34.67a8.27,8.27,0,0,0,1,3.29,8.17,8.17,0,0,0,2,3.68c3.13,3.34,8.38,3,12.61,3.21,2.9.18,5.76.53,8.66.59,5.69.12,11.37.13,17.06.11,11.45,0,22.91-.2,34.36-.13,5.07,0,10.13.11,15.19.19a9.54,9.54,0,0,0,3.74.68,10.84,10.84,0,0,0,10.83-10.83q-.44-19.76-.58-39.52a9.24,9.24,0,0,1-6-2.7C184.93,137.76,183.42,134.33,181.86,131.42Z" fill="#dad8d8"/><path d="M104.36,104.41l-.06-.06Z" fill="#dad8d8"/><path d="M106.51,103.85s-.06.1-.14.2A.31.31,0,0,0,106.51,103.85Z" fill="#dad8d8"/><path d="M162.11,79.59a.76.76,0,0,0,0,.15C162.14,80,162.17,79.89,162.11,79.59Z" fill="#dad8d8"/><polygon points="162.11 79.59 162.11 79.59 162.11 79.59 162.11 79.59" fill="#dad8d8"/><path d="M175.62,86.75c-.1.57,0,.2,0,0Z" fill="#dad8d8"/><path d="M123.24,19.26q23.4,3.91,46.64,8.74,11.94,2.49,23.83,5.23l2.52.58A4.57,4.57,0,0,0,198.66,25Q151.91,14.21,104.39,7.33q-7-1-14-1.94C86,4.82,81.34,4,77,4.55c-1.75.23-3.25,1.17-3.48,3.07A3.6,3.6,0,0,0,76,11.5c3.67,1.46,7.77,1.79,11.66,2.37,2.82.41,5.64.79,8.46,1.19l3.41.48Q111.42,17.28,123.24,19.26Z" fill="#969697"/><path d="M256.47,157.78c0-.3.07-.61.1-.91,0,0,.12-.86.14-1a87.63,87.63,0,0,1,1.93-8.9c3.15-12,8.07-24,7.26-36.6-.52-7.93-3.33-15.29-7.15-22.2a4.19,4.19,0,0,0-1.67-1.67,3.24,3.24,0,0,0-4.27-1,127.25,127.25,0,0,0-23.38,18.88q-2.55,2.66-5,5.44c-1.85,2.14-4.13,4.3-4.53,7.23s1.28,5.67,2.83,8.13c.6,1,1.22,1.88,1.78,2.85.28.48.54,1,.79,1.46.12.24.23.49.36.73-.41-.82.09.29.13.41.16.47.27,1,.39,1.44h0c0,.25,0,.51,0,.77a.46.46,0,0,1,0,.1c0,.14-.06.35-.08.43s-.05.19-.08.28c.43,2.19-1.16,4.89-3.32,5.3l-.62.12a21.06,21.06,0,0,0-3.52,5.85,40.34,40.34,0,0,0-1.66,7.53q-1.41,8.19-2.83,16.38l-1.46,8.43a14.74,14.74,0,0,0-.38,4.53,5.24,5.24,0,0,0,.54,1.72v.1a7.11,7.11,0,0,0,1.09,3.55,5.12,5.12,0,0,0,5,2.36l13.17-.49,5.79-.21q8.19.58,16.38.79a4.59,4.59,0,0,0,4.54-4.54,79.49,79.49,0,0,0-1.29-11.29c-.28-1.67-.56-3.34-.8-5,0-.11,0-.18,0-.21s0-.16,0-.26c-.06-.48-.12-1-.16-1.44-.09-.94-.16-1.88-.19-2.83-.05-1.4,0-2.8.06-4.19C256.34,159.17,256.4,158.47,256.47,157.78ZM226.22,132c0-.24,0-.6,0,0Zm7.76-5.2-.15-.32.23-.07C234,126.57,234,126.7,234,126.83Z" fill="#8f7b8f"/><path d="M226.07,133.69a3.34,3.34,0,0,0-.61-1.36,46,46,0,0,1-5.8-9.84c-1-2.28-4.29-2.72-6.23-1.63q-.5.28-1,.54l-.06,0a16,16,0,0,1-1.91.54l-.36.07c.06,0-.67.09-.79.09a19.25,19.25,0,0,1-2,0l-1-.09-.17,0c-.67-.14-1.33-.28-2-.46s-1.17-.36-1.75-.58c-.15,0-.6-.25-.57-.24l-.77-.37a29.21,29.21,0,0,1-3.57-2.23l-.25-.19-.67-.56c-.6-.51-1.19-1-1.76-1.58s-1.07-1-1.58-1.59c-1.48-1.55-2.86-3.18-4.21-4.84-2-2.43-3.89-4.89-5.83-7.35-1-1.21-1.93-2.43-2.89-3.64-.18-.23-.36-.45-.53-.68s-.16-.21-.2-.25c-.5-.69-1-1.38-1.49-2.09s-.76-1.19-1.1-1.81l-.4-.74s-.17-.39-.28-.62-.08-.21-.12-.32c-.19-.69-.37-1.38-.55-2.07,0-.14,0-.69-.06-.82a18.73,18.73,0,0,1,.11-2.25l0-.19.21-1.14c.32-1.6.73-3.18,1-4.78,1.24-6.38.57-13.94-5.61-17.6a4.37,4.37,0,0,0-5.38.73,7.36,7.36,0,0,0-5.08,4.74,3,3,0,0,0-.11.72,6.59,6.59,0,0,0-1.24,2.53c-.61,2.32.44,4.19,1.84,5.94l0,0,0,0c.14.25.3.48.44.73a2.19,2.19,0,0,1,.07.23c.06.27.13.53.19.8a.43.43,0,0,0,0,0h0c.06.3,0,.39,0,.15,0,.3,0,.6,0,.9,0,.64,0,1.28,0,1.92a18.53,18.53,0,0,0,1,6.82c.75,1.87,1.71,3.42,3.6,4.21a175,175,0,0,0,6.33,18.92,186.13,186.13,0,0,0,8.77,18.91c1.56,2.91,3.07,6.34,5.4,8.72a9.24,9.24,0,0,0,6,2.7,22.07,22.07,0,0,0,4.59-.08c8.17-.8,16.26-2.1,24.32-3.65l.62-.12C224.91,138.58,226.5,135.88,226.07,133.69ZM175.62,86.75c0,.2-.1.57,0,0Zm36.82,34.63Z" fill="#9c704b"/><path d="M162.11,79.59h0a.66.66,0,0,0,0,.15A.76.76,0,0,1,162.11,79.59Z" fill="#9c704b"/><path d="M260.48,58.82a15.83,15.83,0,0,1-1.74.44c-2.15.41-4.37.26-6-1.4a15.6,15.6,0,0,1-1.83-2.79,1,1,0,0,0-.08-.11l-.07-.06c-.2-.17-.36-.4-.55-.58s-.51-.48-.77-.72c0,0-.05,0-.26-.23,0,0-.05,0-.06,0l-.67-.46c-.46-.3-.92-.59-1.39-.87-1.88-1.11-3.86-2.06-5.66-3.31-3.41-2.38-6.5-5.87-7.09-10-1.44,3.59-2.76,7.22-3.87,10.93q-1.08,3.63-1.91,7.34a37.58,37.58,0,0,0-1.32,7.49c-.06,2.77,1.57,4.76,3.56,6.43a12.3,12.3,0,0,1,1.06,1c.11.12.22.24.32.37l.11.15c.24.41.5.8.72,1.22l.24.48,0,.12.13.4c.14.77.29,1.54.41,2.31,0,.28.09.57.14.85,0,0,0,.07,0,.1s0,.14,0,.23c.06.57.11,1.14.14,1.71s0,1.26,0,1.9c0,.28,0,.55-.05.83s0,.48-.06.55a19.54,19.54,0,0,0-.47,4,4.27,4.27,0,0,0,.41,1.65c-1.55,1.89-3.1,3.79-4.58,5.74s1.63,4.11,3.18,2.46,3.06-3.38,4.55-5.1c.34-.39.67-.8,1-1.2a4.26,4.26,0,0,0,1.84-.89,5.89,5.89,0,0,0,.62-.6,3.74,3.74,0,0,0,.69.24,4.23,4.23,0,0,0,5.07-2.89l.33-1,.11,0c1.07-.5,1.91-.79,3.21-1.34a6.76,6.76,0,0,0,3.69-3.2,12.5,12.5,0,0,0,.77-5.19c.05-1.49.14-3,.28-4.47.1-1.08.22-2.1.36-3.11a10.17,10.17,0,0,0,8-6.52A3.32,3.32,0,0,1,260.48,58.82Z" fill="#9c704b"/><path d="M249.18,53.37l.26.23Z" fill="#9c704b"/><polygon points="249.17 53.36 249.18 53.37 249.18 53.37 249.17 53.36" fill="#9c704b"/><path d="M249.18,53.37h0c.21.19.27.25.26.23Z" fill="#6d6453"/><path d="M274.39,38.55a13.43,13.43,0,0,0-2-4.77,9.13,9.13,0,0,0-1-8.83c-3.4-4.81-13.07-7.69-16.79-1.68a6.48,6.48,0,0,0-.92,2.61c-.76-.06-1.54-.08-2.35-.09a31.37,31.37,0,0,0-7.24.42c-4.87,1.06-9.14,4.57-9.82,9.69a10.13,10.13,0,0,0,0,2.75c.59,4.16,3.68,7.65,7.09,10,1.8,1.25,3.78,2.2,5.66,3.31.47.28.93.57,1.39.87l.67.46s0,0,.06,0h0l.26.23c.26.24.52.47.77.72s.35.41.55.58l.07.06a1,1,0,0,1,.08.11,15.6,15.6,0,0,0,1.83,2.79c1.63,1.66,3.85,1.81,6,1.4a15.83,15.83,0,0,0,1.74-.44,3.32,3.32,0,0,0,2.61,2.83,2.92,2.92,0,0,0,2.13-.37c2.5-1.53,4.16-4.53,5.78-6.91a21.61,21.61,0,0,0,3.36-7.71A19.61,19.61,0,0,0,274.39,38.55ZM262.78,26.64l.05,0,0,0-.08-.05Zm-.13-.23c0-.16-.06-.27,0,0Zm-.06.11.1.07h0Zm.39,3.82h-.24a.72.72,0,0,1,.4,0Z" fill="#4c2f1a"/><path d="M105.45,105c.35.21.7.43,1.06.63.91.52,1.83,1,2.78,1.46a50.9,50.9,0,0,0,5.18,2.15c2.24.79,4.67,1.61,7.07,1.11a9.26,9.26,0,0,0,4.72-2.91c1.47-1.54,2.89-3.14,4.31-4.72q3.94-4.4,7.8-8.87c5.79-6.71,11.39-13.57,16.91-20.5,1.34-1.68,1.76-4.2,0-5.82-1.49-1.37-4.39-1.8-5.82,0-5,6.22-10.1,12.28-15.34,18.25q-4,4.53-8,9-1.81,2-3.66,4c-.67.72-1.35,1.44-2,2.17-.26.28-.55.56-.8.85l-.7-.15c-.87-.23-1.73-.5-2.58-.79a28.27,28.27,0,0,1-4.76-2.07c-1.57-.82-3.07-2-4.79-2.47-2.88-.8-5.18.51-6.94,2.66-4.63,5.66-9.33,11.26-14,16.88l-1.6,1.92C79.07,124,73.9,130.17,68.79,136.42c-4.53-3-9.13-6-13.81-8.8-3-1.77-6.45-4.31-9.93-2.18a11.11,11.11,0,0,0-2.87,2.85c-1.22,1.55-2.45,3.1-3.65,4.66-8.07,10.47-16.33,20.8-24.39,31.28q-6.88,9-13.69,18c-1.82,2.41,2.32,5.63,4.21,3.25q11.72-14.75,23.65-29.32c4-4.92,8-9.93,12.08-14.79,2-2.43,4.13-4.84,6.17-7.27.44-.51.86-1,1.3-1.53l.34-.39,2,1.26c5.89,3.81,11.7,7.75,17.37,11.88a4,4,0,0,0,4.89-.63q6.93-8.14,13.74-16.38,9-10.75,17.87-21.55Zm.92-1c.08-.1.14-.17.14-.2A.31.31,0,0,1,106.37,104.05Zm-2,.36-.06-.06ZM47.67,131.84l.27.15,0,0C47.74,132.13,47.55,132.15,47.67,131.84Zm1-.17h0C48.9,131.46,48.91,131.45,48.69,131.67Z" fill="#ee6e7a"/><line x1="152.01" y1="69" x2="128.55" y2="71.79" fill="none" stroke="#ee6e7a" stroke-linecap="round" stroke-linejoin="round" stroke-width="8"/><line x1="154.99" y1="92.98" x2="153.01" y2="68.85" fill="none" stroke="#ee6e7a" stroke-linecap="round" stroke-linejoin="round" stroke-width="8"/><text transform="translate(98.8 66.37)" font-size="38.43" fill="#ee6e7a" font-family="Roboto-Bold, Roboto" font-weight="700">$</text><text transform="translate(97.28 67.24)" font-size="38.43" fill="none" stroke="#000" stroke-miterlimit="10" font-family="Roboto-Bold, Roboto" font-weight="700">$</text><path d="M283.35,185.19H262.17a.51.51,0,0,1-.51-.49c-.44-8.31-4.12-16.28-6.18-20.15-12.31,3.94-36.28.45-39.45,0-3.32,4.73-4.81,20.06-4.83,20.22a.5.5,0,0,1-.5.46H193a.51.51,0,0,1-.51-.51V143.14c-1.82-1.43-4.64-5.53-9.41-12.6l-3.34-4.92c-5.81-8.49-10-22.65-11.57-28L167.63,96a12.44,12.44,0,0,0-2.18-3.48,19.68,19.68,0,0,1-1.88-2.69c-1.24-2.35-.93-7.4-.56-10a2.56,2.56,0,0,0-.26-1.87,1,1,0,0,0-.42-.32,1.45,1.45,0,0,1-1.12.09c-1.46-.47-2.62-3.07-2.77-3.53a6.32,6.32,0,0,1,.69-3.89,2.07,2.07,0,0,1,.43-.49h-5.62a.57.57,0,0,1-.18,0l-2.72-1-27.59,33.92a.49.49,0,0,1-.52.17l-19.59-5L82.22,124.24v60.44a.51.51,0,0,1-.52.51H1.55a.51.51,0,0,1-.39-.84l47.48-57.3a.51.51,0,0,1,.68-.1l19,13,12.86-16.08V12.51a.49.49,0,0,1,.19-.39A.49.49,0,0,1,81.8,12L192.44,32V30.16L81.55,9.93a6.53,6.53,0,0,1-1.9,1.6,5.11,5.11,0,0,1-5,.15A6,6,0,0,1,71.53,6.3a5.68,5.68,0,0,1,2.91-5.09.52.52,0,0,1,.64.12L76.87,3.5a.53.53,0,0,1,0,.66c-.39.46-1.32,1.89-1,2.87.2.57.83,1,1.88,1.18l3.33.6a4.65,4.65,0,0,0,.74-2.21c.23-3.32-4-5.62-4.07-5.64a.52.52,0,0,1-.24-.62A.51.51,0,0,1,78.1,0L197.31,23.37h0c1.64.45,4.61,2.24,4.16,5.79a4.93,4.93,0,0,1-1.94,3.6,5.79,5.79,0,0,1-4.16.79l-1.94-.35v80.16c4.4,4.8,8.66,9,9.58,9.08,1.93,0,8.89-4.18,10.72-5.83.94-.85,2.41-3.59,4-6.5,1.12-2.09,2.28-4.26,3.43-6.11A88.27,88.27,0,0,1,233,89.33c1.93-7.46.25-11.42-1.77-15.36A16.18,16.18,0,0,1,227,72.49c-3.49-1.92-2.07-8.73-1.39-12,0-.23.09-.43.12-.6.15-.76.29-1.85.45-3.11.36-3,.82-6.62,1.81-8.59a20.72,20.72,0,0,0,1.43-4.26,13.12,13.12,0,0,1,1-2.9c1-2,2-2.11,2.62-1.9,1.36.44,2,3.15,1.57,6.3-.65,4.36-5.67,10.32-6.55,11.35a3.43,3.43,0,0,0,1.8,2.77c1.32.82,1.07,2.59.78,4.64s-.68,4.76.51,7.14l.71,1.38.18.35a30.33,30.33,0,0,0,12-.13c3-.68,11.47-5.92,18.65-11.79a1.73,1.73,0,0,0-.34-.66c-.91-1.15-3.15-1.45-5.08-.7s-3.21.8-4.2.25c-1.26-.69-1.55-2.19-1.77-3.28,0-.26-.1-.51-.15-.71-.6-2.18-2.3-2.83-4.45-3.66a16.82,16.82,0,0,1-5.09-2.72c-3-2.54-8.55-9.52-8.18-14.89.2-2.9,2.14-6.32,4.93-8.73a16.35,16.35,0,0,1,12.3-3.83c.76.06,1.48.16,2.16.28.52-2,2.26-3.4,5-3.87a17.1,17.1,0,0,1,9.45,1.44c3.45,1.54,5.8,3.84,6.62,6.46.65,2.06.44,3.66-.63,4.74a3.94,3.94,0,0,1-1.32.87c2.75,3.31,5.58,9,2.67,17.14-1.26,3.51-5.66,8.06-10.78,12.3a5,5,0,0,1-1,3,8.26,8.26,0,0,1-6.8,4h-.07c-1.63,5.08-.55,12.37-.53,12.45a.53.53,0,0,1-.29.54c-13.26,6.27-22.61,16.75-27,22.38,4.45-3.28,11.56-7.14,17.59-10.41l1.17-.63-1.89-3.12a.5.5,0,0,1,0-.56.52.52,0,0,1,.53-.2l5.21,1.16a24.57,24.57,0,0,0,6.41-5.2.5.5,0,0,1,.39-.18h0a.51.51,0,0,1,.39.19,108.53,108.53,0,0,1,11.68,18.9c3.33,7-.21,18.26-3.32,28.19-1.68,5.35-3.27,10.41-3.27,13.55a47.21,47.21,0,0,1-3.79,17.23.45.45,0,0,1-.2.23,15.63,15.63,0,0,1-2.5,1.17c2.08,3.93,5.64,11.73,6.2,20h20.7a.51.51,0,1,1,0,1Zm-89.89-1h16.77c.29-2.73,1.85-16.25,5.17-20.52a.5.5,0,0,1,.48-.19c.29,0,26.35,4.13,39.1.18-.54-1-.88-1.51-.89-1.53a.51.51,0,0,1,0-.52c.07-.13,6.9-13,1.48-18.54-5.6-5.73-4.23-14.41-3.3-17,0-.08.08-.18.14-.31a55.65,55.65,0,0,1-11.53,4.56,19.22,19.22,0,0,0-5.12,2l.24.65a.5.5,0,0,1-.06.46,9.24,9.24,0,0,1-4.64,3.39.49.49,0,0,1-.49-.14.52.52,0,0,1-.12-.5c0-.14.76-2.28,3.82-4.3-5.11-13.24-12.36-17.74-13.68-18.46a11.27,11.27,0,0,0-3.73,3.7c5,3,11.34,17.85,11.61,18.5a.49.49,0,0,1-.22.64c-2.15,1.2-8.92,2.67-10.26,2.95a20.28,20.28,0,0,0-2.29,5.68c1.35,5.9,1.67,15.29,1.71,16.7a.51.51,0,0,1-1,.23c0-.1-3.78-8.17-1.78-17-.43-1.9-1-3.27-1.57-3.72a.44.44,0,0,0-.39-.1c-3.5,1-17.25,3-19.35,2.7l-.11,0Zm-190.82,0H81.19V125.51L68.83,141a.51.51,0,0,1-.69.1l-19-13ZM255.1,161.81c.17.29.48.79.86,1.49a15.18,15.18,0,0,0,2.33-1.06,46.13,46.13,0,0,0,3.63-16.66c0-3.3,1.53-8.19,3.31-13.85,3.06-9.76,6.53-20.81,3.37-27.45a107.19,107.19,0,0,0-11.17-18.22A25.1,25.1,0,0,1,251,91.12a.5.5,0,0,1-.34,0l-4.23-.94,1.55,2.55a.47.47,0,0,1,.06.4.55.55,0,0,1-.25.31l-1.64.89c-8.13,4.41-18.25,9.9-20.87,13.39a.51.51,0,0,1-.84-.58c.11-.17,11.06-17.42,29.82-26.44-.21-1.61-.89-7.9.65-12.6-4.61,3.09-8.74,5.33-10.7,5.78a31.1,31.1,0,0,1-11.62.28C234.42,78,236,82.28,234,89.73a.49.49,0,0,1-.14.24A86.38,86.38,0,0,0,222,104.54c-1.14,1.83-2.29,4-3.4,6-1.66,3.12-3.1,5.81-4.18,6.78-1.61,1.45-8.9,6.09-11.4,6.09-1.12,0-4.34-2.89-9.58-8.58v27.74a1,1,0,0,0,.24.08c1.82.24,15.27-1.66,18.94-2.67a1.44,1.44,0,0,1,1.27.26A5.42,5.42,0,0,1,215.4,143a21.06,21.06,0,0,1,2-4.48.51.51,0,0,1,.33-.24c.08,0,7.15-1.48,9.78-2.67-1.13-2.61-7.12-15.93-11.41-17.8a.54.54,0,0,1-.28-.31.49.49,0,0,1,0-.41c.08-.14,2-3.48,4.7-4.68a.54.54,0,0,1,.43,0c.36.17,8.59,4.2,14.33,19a21.17,21.17,0,0,1,5.24-2A57.12,57.12,0,0,0,253.52,124c2.46-3.5,7.75-9.83,10-10.2a1.08,1.08,0,0,1,1.11.38,1.77,1.77,0,0,1,.38,1.43c-.27,2-3.19,4.27-5.71,6.06a56.39,56.39,0,0,1-5.12,3.14,8.73,8.73,0,0,0-.95,1.6c-.87,2.43-2.17,10.58,3.07,15.93C261.84,148,256.12,159.84,255.1,161.81Zm-39.66-14.07a28,28,0,0,0,1,10.48C216.28,154.76,215.94,150.92,215.44,147.74Zm-53.2-71.16h0a1.89,1.89,0,0,1,1.25.71A3.42,3.42,0,0,1,164,80c-.46,3.23-.52,7.55.46,9.39a17.5,17.5,0,0,0,1.77,2.53,13.27,13.27,0,0,1,2.34,3.8c.11.31.28.88.51,1.66,1.56,5.29,5.71,19.34,11.43,27.69,1.17,1.71,2.28,3.36,3.34,4.93,3.41,5,6.66,9.85,8.57,11.81v-28a139.83,139.83,0,0,1-10.08-12.14c-.47-.73-1-1.53-1.6-2.39-3.11-4.55-7-10.21-6.82-14.08.1-2.69,1.63-6.44,2.85-9.44a18.7,18.7,0,0,0,1.41-4.1c-.16-1.37-6.79-9-7.83-9.35s-4.61.07-5.06.61a.62.62,0,0,1-.18.14c-.84.37-2.14,1.16-2.27,1.69a.48.48,0,0,1-.33.36,21.81,21.81,0,0,0-3.07,1.31,13.73,13.73,0,0,0,2.29.25.51.51,0,0,1,0,1h-7.58l-1.71.55,1.6.6h10.62a.52.52,0,0,1,.29.09c.36.24,2.14,1.49,2.14,2.72A1.52,1.52,0,0,1,166.2,73a2.52,2.52,0,0,1-2.62-.48l-.1-.08c-1.09-.87-2.44-2-3.22-1.85,0,0-.13,0-.26.27a5.43,5.43,0,0,0-.59,3c.23.72,1.27,2.62,2.11,2.88a.4.4,0,0,0,.42-.06A.47.47,0,0,1,162.24,76.58Zm72.62,56.28a10.34,10.34,0,0,0-2.57,2.45,9.07,9.07,0,0,0,2.63-2.28Zm28.89-18.07h-.08c-1.47.25-5.4,4.61-8,8,1.36-.81,2.42-1.5,3-1.94,1.25-.89,5.05-3.61,5.29-5.37a.8.8,0,0,0-.16-.66ZM82.22,13.12V122.6l20.53-25.66a.5.5,0,0,1,.52-.18l19.6,5,27.61-33.95h0a.51.51,0,0,1,.24-.15l3.19-1a.4.4,0,0,1,.15,0h4.07a.7.7,0,0,1,.09-.52c.4-.67,2.6-1.52,3.74-1.92a6.09,6.09,0,0,1,2.65-2.07c1-1,4.95-1.2,6.08-.82,1.35.45,8.31,8.43,8.51,10.21.08.73-.45,2.07-1.47,4.59-1.2,2.94-2.68,6.58-2.78,9.1-.14,3.53,3.78,9.27,6.64,13.47.58.86,1.14,1.67,1.61,2.4a123,123,0,0,0,9.23,11.18V33ZM227.06,57.56c-.13,1-.25,1.87-.38,2.53,0,.18-.08.38-.12.61-.59,2.79-1.95,9.33.89,10.89a13.31,13.31,0,0,0,3.2,1.18c-.17-.32-.33-.65-.5-1-1.33-2.67-.93-5.48-.61-7.74.28-2,.41-3.19-.31-3.63A4.57,4.57,0,0,1,227.06,57.56Zm-65.6,12.25a13.57,13.57,0,0,1,2.66,1.82l.1.08a1.49,1.49,0,0,0,1.53.36.51.51,0,0,0,.32-.47c0-.48-.89-1.31-1.56-1.79Zm94.36-2.31a7.23,7.23,0,0,0,6-3.55,5.18,5.18,0,0,0,.71-1.44C260.35,64.28,258,66,255.82,67.5Zm3.53-9.15a4.66,4.66,0,0,1,3.7,1.5,3.28,3.28,0,0,1,.38.6c4.83-4,8.93-8.3,10.09-11.53,2.84-7.89-.12-13.41-2.77-16.46a9.48,9.48,0,0,1-4.38-.23c-1.05-.31-2-1.27-3.17-2.48l-.3-.31-.57,0c-3.08.17-6.27.34-8.18-1.4a5.42,5.42,0,0,1-1.59-4q0-.3,0-.6c-.65-.12-1.35-.21-2.08-.27a15.3,15.3,0,0,0-11.55,3.59c-2.6,2.23-4.4,5.38-4.58,8-.32,4.56,4.42,11.19,7.82,14A15.82,15.82,0,0,0,247,51.43c2.24.85,4.34,1.66,5.07,4.34a7.57,7.57,0,0,1,.17.78c.2,1,.42,2.13,1.26,2.59s1.83.28,3.34-.31A6.94,6.94,0,0,1,259.35,58.35Zm-26.8-18.26c-.28,0-.76.36-1.32,1.42a13.06,13.06,0,0,0-.87,2.67,20.6,20.6,0,0,1-1.51,4.46c-.82,1.65-1.26,4.71-1.6,7.41,1-1.13,5.67-6.81,6.26-10.77.42-2.89-.22-5-.88-5.18Zm-39.09-7.92,2.13.38a4.8,4.8,0,0,0,3.38-.62,4,4,0,0,0,1.52-2.9c.44-3.47-3.09-4.58-3.4-4.67L80.25,1.47c1.31,1.15,2.76,2.94,2.6,5.2A5.71,5.71,0,0,1,82.16,9L193,29.23a.51.51,0,0,1,.42.5Zm70.81-2.79a6.91,6.91,0,0,0,2.39,1.87,8.73,8.73,0,0,0,3.24.3,17.66,17.66,0,0,0-1.65-1.45C267.39,29.45,265.94,29.34,264.27,29.38Zm.55-1a6.65,6.65,0,0,1,4,.94,17.39,17.39,0,0,1,2.22,2,3.23,3.23,0,0,0,1.32-.76c.78-.8.91-2.05.39-3.72-1.31-4.18-8.45-8.33-14.92-7.21-1.4.25-3.57,1-4.15,3.08a19.3,19.3,0,0,1,9.58,5.7C263.82,28.37,264.33,28.35,264.82,28.35Zm-11.24-4.63a1.93,1.93,0,0,0,0,.34,4.42,4.42,0,0,0,1.25,3.25c1.54,1.4,4.33,1.3,7.09,1.16A17.47,17.47,0,0,0,253.58,23.72Zm-179-21.4a4.65,4.65,0,0,0-2,4,5,5,0,0,0,2.63,4.48,4.1,4.1,0,0,0,4-.15,5.48,5.48,0,0,0,1.21-.91l-2.81-.51a3.21,3.21,0,0,1-2.65-1.85c-.46-1.33.44-2.85.91-3.52Z" fill="#2f292b"/></g></g></svg>