<svg xmlns="http://www.w3.org/2000/svg" viewBox="0 0 71.03 71.03"><title>GlossaryIcon</title><g id="Layer_2" data-name="Layer 2"><g id="Layer_1-2" data-name="Layer 1"><g style="opacity:0.48;isolation:isolate"><path d="M29.9,8.46A28.15,28.15,0,1,0,58,36.61,28.15,28.15,0,0,0,29.9,8.46ZM34.72,49.8A14.55,14.55,0,1,1,49.27,35.25,14.55,14.55,0,0,1,34.72,49.8Z" style="fill:#775f75"/></g><path d="M48.42,35.47a13,13,0,1,1-13.05-13A13,13,0,0,1,48.42,35.47Z" style="fill:none;stroke:#666;stroke-linecap:round;stroke-linejoin:round;stroke-width:4.329582594767771px"/><path d="M60,41.12l8.88-1.37,0-8.69L60,29.9a24.91,24.91,0,0,0-3.27-7.77l5.41-7.2L55.92,8.79l-7.21,5.5a25.25,25.25,0,0,0-7.65-3.14l-1.31-9-8.7,0-1.15,9a25.17,25.17,0,0,0-7.79,3.23L14.93,8.93,8.8,15.1l5.5,7A25,25,0,0,0,11,29.94L2.16,31.28,2.2,40,11,41.06a24.75,24.75,0,0,0,3.23,7.8L8.93,56.1l6.18,6.13,7.14-5.39A24.79,24.79,0,0,0,29.92,60l1.36,8.87,8.69,0L41.14,60a25.17,25.17,0,0,0,7.72-3.2l7.24,5.32,6.13-6.17L56.8,48.81A24.72,24.72,0,0,0,60,41.12Z" style="fill:none;stroke:#666;stroke-linecap:round;stroke-linejoin:round;stroke-width:4.329582594767771px"/></g></g></svg>