<svg xmlns="http://www.w3.org/2000/svg" viewBox="0 0 83.18 83.01"><title>HelpIcon</title><g id="Layer_2" data-name="Layer 2"><g id="Layer_1-2" data-name="Layer 1"><path d="M73.72,46.23a39.78,39.78,0,0,0-.66-7A36.86,36.86,0,1,0,36.77,83C48.85,83,60.93,83,73,83h.74v-.87C73.75,70.16,73.78,58.2,73.72,46.23Z" style="fill:#dae08d;opacity:0.85"/><path d="M81,39.16a39.6,39.6,0,0,0-.66-7A36.85,36.85,0,1,0,44,75.92c12.08,0,24.16,0,36.24,0H81v-.87C81,63.09,81,51.12,81,39.16Z" style="fill:none;stroke:#666;stroke-linecap:round;stroke-linejoin:round;stroke-width:4.329582594767771px"/><line x1="45" y1="27.85" x2="45" y2="53.23" style="fill:none;stroke:#666;stroke-linecap:round;stroke-linejoin:round;stroke-width:5px"/><line x1="45" y1="18.92" x2="45" y2="18.92" style="fill:none;stroke:#666;stroke-linecap:round;stroke-linejoin:round;stroke-width:5px"/></g></g></svg>