<?xml version="1.0" encoding="utf-8"?>
<!-- Generator: Adobe Illustrator 24.2.0, SVG Export Plug-In . SVG Version: 6.00 Build 0)  -->
<svg version="1.1" id="Layer_1" xmlns="http://www.w3.org/2000/svg" xmlns:xlink="http://www.w3.org/1999/xlink" x="0px" y="0px"
	 viewBox="0 0 50.5 49.8" style="enable-background:new 0 0 50.5 49.8;" xml:space="preserve">
<style type="text/css">
	.st0{opacity:0.6;}
	.st1{fill:none;stroke:#666666;stroke-miterlimit:10;}
	.st2{fill:#E6CFC4;}
	.st3{fill:none;stroke:#666666;stroke-width:2;stroke-miterlimit:10;}
	.st4{fill:#606060;}
</style>
<g class="st0">
	<path class="st1" d="M42.7,40.6L42.7,40.6c9.1-9.1,9.1-23.7,0-32.8S19-1.2,9.9,7.8c-9.1,9.1-9.1,23.7,0,32.8
		c9,9.1,23.6,9.1,32.7,0.1C42.7,40.7,42.7,40.7,42.7,40.6z"/>
</g>
<path class="st2" d="M39.6,43L39.6,43c9.1-9.1,9.1-23.7,0-32.8s-23.7-9.1-32.8,0C-2.2,19.3-2.2,34,6.8,43c9,9.1,23.6,9.1,32.7,0.1
	C39.6,43.1,39.6,43.1,39.6,43z"/>
<path class="st3" d="M42.7,40.6L42.7,40.6c9.1-9.1,9.1-23.7,0-32.8S19-1.2,9.9,7.8c-9.1,9.1-9.1,23.7,0,32.8
	c9,9.1,23.6,9.1,32.7,0.1C42.7,40.7,42.7,40.7,42.7,40.6z"/>
<g>
	<path class="st4" d="M29.6,20L28,34.4c-0.1,0.5-0.1,1.1,0,1.6c0,0.1,0.1,0.3,0.2,0.4c0.1,0.1,0.3,0.2,0.4,0.1
		c0.2,0,0.5-0.2,0.6-0.4c0.7-0.9,1.2-1.9,1.6-3l0.7,0.3c-1.4,3.7-3.2,5.8-5.4,6.2c-0.7,0.2-1.5,0-2.1-0.4c-0.6-0.4-0.9-1-1-1.7
		c-0.1-0.6-0.1-1.3,0-1.9l1.1-9.7c0.1-0.7,0.1-1.4,0-2.1c-0.1-0.3-0.2-0.6-0.5-0.7c-0.3-0.2-0.7-0.2-1.1-0.1l-0.7,0.1l0.1-0.8
		l6.4-2.2L29.6,20z M26.9,11.2c1.6-0.3,3.1,0.8,3.3,2.4c0,0,0,0,0,0c0.1,0.8,0,1.5-0.5,2.2c-0.4,0.6-1.1,1.1-1.9,1.2
		c-1.6,0.2-3-0.8-3.3-2.4C24.3,13,25.4,11.5,26.9,11.2C27,11.2,27,11.2,26.9,11.2L26.9,11.2z"/>
</g>
</svg>
