<svg xmlns="http://www.w3.org/2000/svg" viewBox="0 0 300.22 163.26"><g id="Layer_2" data-name="Layer 2"><g id="Spend"><path d="M245.61,123l-.58.17a15.46,15.46,0,0,1,1.35,1.07C246.13,123.8,245.87,123.39,245.61,123Z" fill="none"/><path d="M225.54,133.51l-1.32.7a7.43,7.43,0,0,1,1.35-.35A2.07,2.07,0,0,1,225.54,133.51Z" fill="none"/><path d="M248.42,135.88c.28-.91.53-1.82.73-2.75q.15-.63.27-1.26s.18-1.08.17-1a31.09,31.09,0,0,0,.26-4.09,5.25,5.25,0,0,1-1.7-.69,4.79,4.79,0,0,1-3.83,7.61c-.45,0-.9,0-1.36,0a8.61,8.61,0,0,1-3.93,6.9l10.8.13A5.1,5.1,0,0,1,248.42,135.88Z" fill="none"/><path d="M216.76,134.79l.47-.07,0-.06Z" fill="none"/><path d="M212.69,134.24a4.75,4.75,0,0,1-.37,1.12c1.11-.13,2.21-.27,3.31-.42A5.79,5.79,0,0,1,212.69,134.24Z" fill="none"/><path d="M227.15,68.79a27.26,27.26,0,0,1,1.39,2.88c-.16-1.29-.32-2.58-.47-3.87A3.14,3.14,0,0,1,227.15,68.79Z" fill="none"/><path d="M201.19,93.61a4.26,4.26,0,0,0,1,.88,4.58,4.58,0,0,1,1.47-.06,4.84,4.84,0,0,1,3.11,1.81c.64.18,1.29.34,1.93.5a29.63,29.63,0,0,0,5.54,1c1,0,2.05,0,3.08,0l.51,0c-.4.07-.35.07.14,0,.33-.06.65-.12,1-.2s.77-.21,1.15-.34l.8-.3.68-.34c.35-.18.7-.38,1-.59s.56-.36.83-.55.46-.35.57-.43c.55-.46,1.1-.94,1.61-1.45s1.13-1.2,1.66-1.83l.16-.19.14-.18c.24-.34.48-.68.71-1a32.14,32.14,0,0,0,2.07-3.66L229,75.07a2.1,2.1,0,0,1-3.38,0c.08.2.15.41.22.61a20.54,20.54,0,0,1,1.08,10.58c-1.37,7.54-9.34,11.43-16.41,9.41-5.3-1.52-9.19-5.63-11.9-10.32a57.54,57.54,0,0,1,.2,6.7A3.81,3.81,0,0,1,201.19,93.61Z" fill="none"/><path d="M222.65,129.15l.37-.22-.19,0Z" fill="none"/><path d="M21.85,125.24v-.11C21.8,125.77,21.8,125.81,21.85,125.24Z" fill="none"/><path d="M101.81,19.74a.14.14,0,0,0,0-.11.13.13,0,0,1,0,.09Z" fill="none"/><path d="M103.39,60.46s0,.06,0,0Z" fill="none"/><path d="M225.11,40.83a3.51,3.51,0,0,1,.5-.45l-.29-.17c.53.16.37.07-.49-.25.07.31.14.63.2.95Z" fill="none"/><path d="M257.4,140.87a13.72,13.72,0,0,1-4.31,1.14,4,4,0,0,1-3.26-1.24l-10.8-.13a8,8,0,0,1-2.56,1,36.37,36.37,0,0,1-5.62.4l-.92.05a2.9,2.9,0,0,1-.34.36,25.75,25.75,0,0,1,6.35,3.9c2.66,2.22.38,6.5-2.71,6.54l-18.76.27-33.38.54c-2.76.05-5.52.08-8.28.11s-5.77.08-8.39-1.36a12.68,12.68,0,0,1-5-5.36,12.72,12.72,0,0,1-5-1.5,4.57,4.57,0,0,1-1.52.06,4.41,4.41,0,0,1-3.6-3.1l-.08-.23v0c-.15-.3-.3-.59-.46-.87s-.19-.32-.29-.47l-.08,0-1-.4-.93-.35q-24.07,0-48.15.15c-11.59.57-23.25,1-34.84.77l-8.12-.2-21.91.34c-5.87.09-27.31.19-33.18.3v19.63c2.83.1,10.78.07,13.61.05l15.66-.09c10.66-.05,21.31-.09,32,0,21.32.1,42.63.06,64,.2,42.63.28,132.19,1,174.81,1.95V141l-44-1" fill="#e4cdc2"/><path d="M197.55,137.59Z" fill="#f6ede3"/><path d="M184.87,143.29c1.54,2.28-2.17,4.43-3.68,2.15a16.07,16.07,0,0,0-3.36-3.76,2.39,2.39,0,0,1-1.57.36,5.7,5.7,0,0,1-2.89-.35,8.4,8.4,0,0,1-2.71,1.65h0c-1.84,2.87-6.29,3.79-9.57,3.83-.51,0-1.06,0-1.61-.07a12.68,12.68,0,0,0,5,5.36c2.62,1.44,5.5,1.39,8.39,1.36s5.52-.06,8.28-.11l33.38-.54,18.76-.27c3.09,0,5.37-4.32,2.71-6.54a25.75,25.75,0,0,0-6.35-3.9,4.92,4.92,0,0,1-5.85.68,5.18,5.18,0,0,1-1.6-7.39,3.91,3.91,0,0,1,.79-.83c-.74.41-1.47.81-2.22,1.17a2.47,2.47,0,0,1-3.48-1.38l-.47.07a5.39,5.39,0,0,1-1.13.15c-1.1.15-2.2.29-3.31.42a4.68,4.68,0,0,1-7.6,1.28l0,0a4.35,4.35,0,0,1-3.58,1.68,13.72,13.72,0,0,1-3.27-.63l-.41-.07-.31,0-1-.08-1.16,0a11.31,11.31,0,0,1-3.29.17h-.1l-1.26-.15-.07,0q-4.87.3-9.77.46A38.19,38.19,0,0,1,184.87,143.29Z" fill="#fff"/><path d="M21.93,122.5s0,0,0,0Z" fill="#b3d4e9"/><path d="M98.27,140.35l2.32-.12q10.59-.54,21.16-1.4c3.11-.25,6-2,6.84-5.21.74-2.86,1.56-5.7,2.39-8.54a7.41,7.41,0,0,0-1-6,70.29,70.29,0,0,0-1-29.65,57.21,57.21,0,0,0-2.25-7.09,31.21,31.21,0,0,0-3.41-6.9c-3.64-5.09-9-8.42-15.34-7.87a8.9,8.9,0,0,1-3.8.74C99,70,94.79,73.74,91.5,78.22a6.7,6.7,0,0,0-1,3.66c-.44.62-.88,1.25-1.31,1.88v-.08c-.78-8.21-3-16.53-8-23.24-3.42-4.58-7.61-9-13.85-8.58a64.35,64.35,0,0,0-12.69,2.35c-7.72,2.19-14.78,6-19.8,12.41A55.07,55.07,0,0,0,25.18,87,47.94,47.94,0,0,0,23.7,94.5a14,14,0,0,0,1.79,8v0l-.21.44a30.45,30.45,0,0,0-2.61,7,38.6,38.6,0,0,0-.8,8.16c0,1,0,2,0,3l-.05.49c.27,1.88.3,2.19.11.93,0,.24,0,1.43,0,1.54,0,.33,0,.64-.05,1-.25,1.62-.27,1.89-.05.79.21.43-.41,1.92-.53,2.33-.05.17-.39.89-.25.67-.14.23-.27.45-.42.66.06-.1-.44.49-.52.57s-.33.32-.51.47l-.11.08a4.41,4.41,0,0,0-1.54,5.89,4.3,4.3,0,0,0,5,1.88,6.85,6.85,0,0,0,3,1l4.41.37,1.1.09c-.05,0,1.74.08.85,0-1,0,1.1.14,1.62.17l1.38.07q4.68.25,9.36.47c3.54.15,7.08.26,10.62.36l8.12.2C75,141.37,86.68,140.92,98.27,140.35ZM21.85,125.24c-.05.57-.05.53,0-.11Z" fill="#c8eaff"/><path d="M108,67.6a6.81,6.81,0,0,0,3.11-3c1.25-2.29,1.51-5.06,2-7.59l1.56-8.29c1-5.38,2.56-10.9,2.17-16.42A34.79,34.79,0,0,0,112,16.93a8.76,8.76,0,0,1-1.34.05c-3.42,2-7.91,1.29-11.66.75-1-.14-1.91-.3-2.86-.45l-.31-.06-.29,0c-.44,0-.88-.09-1.32-.11s-1,0-1.49,0a15.56,15.56,0,0,1-1.18,3.83c-.13.29-.28.58-.43.87a5.25,5.25,0,0,1,1.51,1.73,3.84,3.84,0,0,1-1.36,5.16A37.27,37.27,0,0,1,87.23,31a6.32,6.32,0,0,1-.61.22,7.66,7.66,0,0,1,.21,1.18,3,3,0,0,1-.18,1.38c0,.62,0,1.23,0,1.84-.13,2.48-4.11,3.31-4.55.62,0,0,0-.07,0-.1a3.08,3.08,0,0,1-1-.42,14.38,14.38,0,0,1-2.46-2.27c-.28-.28-.59-.53-.88-.81l-.27-.23-.32-.22a3.82,3.82,0,0,0-1.8-.77,10.39,10.39,0,0,1-2-.66c-3,5.47-1.21,13,3.33,17.18A4.31,4.31,0,0,0,78.84,49c1.16,3.53,2.36,7,3.65,10.56a4.86,4.86,0,0,0,4,3.28c.15.28.3.57.47.85a6.46,6.46,0,0,0,3,2.79,29.78,29.78,0,0,1,.56,5.44c0,2.82,4.08,2.73,4.32,0,.16-1.76.27-3.53.31-5.29h0c2.72.67,6.06,1.7,9.1,1.7A8.9,8.9,0,0,0,108,67.6Zm-6.24-48a.14.14,0,0,1,0,.11v0A.13.13,0,0,0,101.8,19.63Zm1.59,40.83c0,.06,0,0,0,0Z" fill="#664c38"/><path d="M148.37,141l.08,0c.1.15.2.31.29.47s.31.57.46.87v0l.08.23a4.41,4.41,0,0,0,3.6,3.1,4.57,4.57,0,0,0,1.52-.06,12.72,12.72,0,0,0,5,1.5c.55,0,1.1.07,1.61.07,3.28,0,7.73-1,9.57-3.83h0a8.4,8.4,0,0,0,2.71-1.65,5.7,5.7,0,0,0,2.89.35,2.39,2.39,0,0,0,1.57-.36,16.07,16.07,0,0,1,3.36,3.76c1.51,2.28,5.22.13,3.68-2.15a38.19,38.19,0,0,0-4.42-5.42l-.63-.61a20.11,20.11,0,0,0-3.87-3.14,26,26,0,0,0-6.18-3.33,28.62,28.62,0,0,0-5.52-1.61c-2.33-.42-4-.44-6.17-1a25.84,25.84,0,0,1-2.59-.8l-.82-.31-1.06-.48c-1.8-.83-3.55-1.77-5.34-2.61-3.7-1.73-9.42-4.93-13.07-1.74A3.48,3.48,0,0,0,134,124.9a4.8,4.8,0,0,0-2,2.33,5.76,5.76,0,0,0,1.37,6c2.06,2.28,5.14,3.75,7.93,4.93,1.39.59,2.8,1.12,4.21,1.65l.92.34.93.35Z" fill="#664c38"/><path d="M75.33,31.39a3.82,3.82,0,0,1,1.8.77l.32.22.27.23c.29.28.6.53.88.81a14.38,14.38,0,0,0,2.46,2.27,3.08,3.08,0,0,0,1,.42s0,.07,0,.1c.44,2.69,4.42,1.86,4.55-.62,0-.61,0-1.22,0-1.84a3,3,0,0,0,.18-1.38,7.66,7.66,0,0,0-.21-1.18,6.32,6.32,0,0,0,.61-.22,37.27,37.27,0,0,0,4.08-2.32,3.84,3.84,0,0,0,1.36-5.16,5.25,5.25,0,0,0-1.51-1.73c.15-.29.3-.58.43-.87a15.56,15.56,0,0,0,1.18-3.83c.49,0,1,0,1.49,0s.88.07,1.32.11l.29,0,.31.06c.95.15,1.9.31,2.86.45,3.75.54,8.24,1.21,11.66-.75a8.76,8.76,0,0,0,1.34-.05l.57-.09c3.63-.68,4.07-5.27,2-7.63-1.43-1.66-3.74-2.14-5.73-2.83-1.49-.51-3-1-4.47-1.52A34,34,0,0,0,94.29,3a40.27,40.27,0,0,0-4.66.37,15.72,15.72,0,0,0-5.52,1.36,8.26,8.26,0,0,0-.74.43,8.33,8.33,0,0,0-4.76,1.49,17.28,17.28,0,0,0-9,16.2,10.94,10.94,0,0,0,1.44,5A2.84,2.84,0,0,0,72,29.87a6.71,6.71,0,0,0,1.34.86A10.39,10.39,0,0,0,75.33,31.39Z" fill="#261d16"/><path d="M218.25,131.9c1.43-.92,2.9-1.86,4.4-2.75l.18-.26.19,0,.26-.15a4.26,4.26,0,0,1,2.17-4.32l1.09-.46h0a19.75,19.75,0,0,1,5.83-1.54,3.92,3.92,0,0,1-.1-1.15c.3-5.28.44-10.59.43-15.9q-1.2-9.42-2.35-18.83a32.14,32.14,0,0,1-2.07,3.66c-.23.35-.47.69-.71,1l-.14.18-.16.19c-.53.63-1.07,1.25-1.66,1.83s-1.06,1-1.61,1.45c-.11.08-.43.34-.57.43s-.55.37-.83.55-.69.41-1,.59l-.68.34-.8.3c-.38.13-.76.24-1.15.34s-.65.14-1,.2c-.49.09-.54.09-.14,0l-.51,0c-1,0-2.06,0-3.08,0a29.63,29.63,0,0,1-5.54-1c-.64-.16-1.29-.32-1.93-.5a4.84,4.84,0,0,0-3.11-1.81,4.58,4.58,0,0,0-1.47.06,4.26,4.26,0,0,1-1-.88,3.81,3.81,0,0,0-2.43-1.53c0,1.85-.12,3.69-.21,5.52-.32,6.66-.46,13.37-1,20a13.59,13.59,0,0,1-.47,2.63,41.64,41.64,0,0,1,6.22.23,20.74,20.74,0,0,1,4.1.54,6,6,0,0,1,3.93,4,53.57,53.57,0,0,1,1.36,7,5.86,5.86,0,0,1,0,2.25,5.79,5.79,0,0,0,2.94.7,5.39,5.39,0,0,0,1.13-.15l.45-.13A2.28,2.28,0,0,1,218.25,131.9Z" fill="#54222b"/><path d="M188.52,122.44a19.7,19.7,0,0,1,8.57-2.19,13.59,13.59,0,0,0,.47-2.63c.53-6.65.67-13.36,1-20,.09-1.83.18-3.67.21-5.52a57.54,57.54,0,0,0-.2-6.7,38.2,38.2,0,0,1-2.33-4.83,30.5,30.5,0,0,1-1.78-6.63c-.19.29-.37.6-.54.91-1.11,2-1.81,4.2-4,4.85a5,5,0,0,1-.22,3.74,2.27,2.27,0,0,1-2.56,1c-1.48-.52-2.1-1.66-2.94-2.9-.73-1.07-1.39-2.2-2.11-3.27-1.36-2-2.63-4.1-3.88-6.2a29.18,29.18,0,0,1-3.53-11c-.7.21-1.45.4-2.24.64a11.08,11.08,0,0,0-5.23,3c-1.77,2-2.26,4.52-2.53,7.08-.22,2.15-.39,3.84-.8,5.94-1.71,8.9-5.13,16.49-9.14,24.41-2.33,4.62-4.87,9.13-7.41,13.63-1.37,2.42-.26,6.31,2.79,6.86,3.48.62,7,1.25,10.44,1.94,2.33.47,4.58.61,6.7-.67,1.78-1.08,2.87-3.05,4-4.71q3.33-4.71,6.63-9.45a3.66,3.66,0,0,0,.46-.18L180,113c.59,1.44,1.21,2.88,1.93,4.26l1.31,2.9a13.39,13.39,0,0,0,2.4,4.18,7.44,7.44,0,0,0,1,.81A3.91,3.91,0,0,1,188.52,122.44Z" fill="#3fbcc2"/><path d="M237.94,121.69a.84.84,0,0,0-.31,0v0A2.84,2.84,0,0,1,237.94,121.69Z" fill="#78519c"/><path d="M238.5,121.86a1.7,1.7,0,0,0-.54-.17,5.52,5.52,0,0,1,.53.18Z" fill="#78519c"/><path d="M228.35,67.21a3.22,3.22,0,0,1-.28.59c.15,1.29.31,2.58.47,3.87.23.56.46,1.14.67,1.73a1.71,1.71,0,0,1-.26,1.67l1.41,11.51q1.15,9.42,2.35,18.83c0,5.31-.13,10.62-.43,15.9a3.92,3.92,0,0,0,.1,1.15l.82,0a5.12,5.12,0,0,1,4.75-.73c.31-.06.63-.1,1-.14a2.57,2.57,0,0,1,.48,0A5.25,5.25,0,0,1,243,122a13.51,13.51,0,0,1,2.08,1.2l.58-.17c.26.41.52.82.77,1.24a15.29,15.29,0,0,1,1.33,1.34c.16.19.3.38.44.57a5.25,5.25,0,0,0,1.7.69,31.09,31.09,0,0,1-.26,4.09c0-.12-.18,1-.17,1q-.12.63-.27,1.26c-.2.93-.45,1.84-.73,2.75a5.1,5.1,0,0,0,1.41,4.89,4,4,0,0,0,3.26,1.24,13.72,13.72,0,0,0,4.31-1.14,11.69,11.69,0,0,0,4.32-3.35,14.48,14.48,0,0,0,1.22-1.75c4-1.39,6.34-5.76,5.75-10.15a18.18,18.18,0,0,0-2.54-6.49c-.26-.47-.53-.93-.78-1.4,0-.06-.14-.28-.24-.48-.21-3.06-.49-6.13-.84-9.18a198.39,198.39,0,0,0-3.33-20,120.37,120.37,0,0,0-5.35-19A10.23,10.23,0,0,0,251.67,64a16.3,16.3,0,0,0-5.23-1.87,63.93,63.93,0,0,0-11.77-1.49,4.52,4.52,0,0,0-3.61,1.83,4.33,4.33,0,0,0-1.56,1.19C229.14,64.84,228.8,66,228.35,67.21Z" fill="#3fbcc2"/><path d="M210.46,95.7c7.07,2,15-1.87,16.41-9.41a20.54,20.54,0,0,0-1.08-10.58c-.07-.2-.14-.41-.22-.61L225.5,75c-.53-1-1.46-1.36-2.41-2a17.43,17.43,0,0,1-3.19-2.55c-2.64-2.74-3.23-6.23-2.48-9.86.64-3.16,2.06-6.24,3.14-9.27.59-1.64,1.13-3.29,1.74-4.92.72-1.95,1.29-3.95,2.73-5.5-.06-.32-.13-.64-.2-.95l-.14-.05c-.38-.18-.42-.21-.14-.1q.8.28-.84-.36c-.4-.29-.78-.6-1.16-.92.32.26.35.32.09.16a10.74,10.74,0,0,1-1.21-.64c-.79-.5-1.59-1-2.42-1.41-.17-.08-.85-.36-.74-.33l-.73-.26a23.93,23.93,0,0,0-2.77-.71c-.4-.08-.82-.15-1.23-.21.06,0-1.29-.12-1.44-.14-2.24-.2-4.48-.34-6.71-.6-4.5-.53-9-1.44-12.73-4.18A19.25,19.25,0,0,1,189.24,27a2.67,2.67,0,0,1,0,.4,12.36,12.36,0,0,1-.85,5.35c0,.16,0,.31-.07.46s0,.31-.08.47,0,.15,0,.17c-.12,1.11-.24,2.22-.32,3.33a43.06,43.06,0,0,0,0,5.68c0,.48.07,1,.12,1.46,0,.21.06.42.07.63v0c.14.88.28,1.76.46,2.64A43.36,43.36,0,0,0,190,53.09c.16.46.33.92.5,1.38l.25.63c.39.82.76,1.65,1.18,2.45a38.26,38.26,0,0,0,3,4.81s.2.27.29.4l.14.17a12.28,12.28,0,0,1,1.31,1.75,7,7,0,0,1,.86,4.66,6.29,6.29,0,0,1-2.16,3.37,6.35,6.35,0,0,0-1,1.21,30.5,30.5,0,0,0,1.78,6.63,38.2,38.2,0,0,0,2.33,4.83C201.27,90.07,205.16,94.18,210.46,95.7Z" fill="#f9ddbe"/><path d="M191.55,137.58h.1a11.31,11.31,0,0,0,3.29-.17l1.16,0,1,.08.31,0,.41.07a13.72,13.72,0,0,0,3.27.63,4.35,4.35,0,0,0,3.58-1.68l0,0a4.71,4.71,0,0,0,8-2.4,5.86,5.86,0,0,0,0-2.25,53.57,53.57,0,0,0-1.36-7,6,6,0,0,0-3.93-4,20.74,20.74,0,0,0-4.1-.54,41.64,41.64,0,0,0-6.22-.23,19.7,19.7,0,0,0-8.57,2.19,3.91,3.91,0,0,0-2,2.7,5.91,5.91,0,0,0,0,2.18c-.07-.44-.13.86-.13.86,0,.42-.06.84-.08,1.26a8.94,8.94,0,0,0,.49,3.12c0,.1,0,.2,0,.29.09,1.9,1.37,4.2,3.42,4.56l.07,0Zm6,0Z" fill="#f9ddbe"/><path d="M243,133.74c.46,0,.91,0,1.36,0a4.79,4.79,0,0,0,3.83-7.61c-.14-.19-.28-.38-.44-.57a15.29,15.29,0,0,0-1.33-1.34,15.46,15.46,0,0,0-1.35-1.07A13.51,13.51,0,0,0,243,122a5.25,5.25,0,0,0-3.57-.42,2.57,2.57,0,0,0-.48,0c-.32,0-.64.08-1,.14a5.12,5.12,0,0,0-4.75.73l-.82,0a19.75,19.75,0,0,0-5.83,1.54h0l-1.09.46a4.26,4.26,0,0,0-2.17,4.32l-.26.15-.37.22c-1.5.89-3,1.83-4.4,2.75a2.28,2.28,0,0,0-1,2.76l0,.06a2.47,2.47,0,0,0,3.48,1.38c.75-.36,1.48-.76,2.22-1.17a3.91,3.91,0,0,0-.79.83,5.18,5.18,0,0,0,1.6,7.39,4.92,4.92,0,0,0,5.85-.68,2.9,2.9,0,0,0,.34-.36l.92-.05a36.37,36.37,0,0,0,5.62-.4,8,8,0,0,0,2.56-1A8.61,8.61,0,0,0,243,133.74Zm-17.42-.23a2.07,2.07,0,0,0,0,.35,7.43,7.43,0,0,0-1.35.35Zm13-11.65h0a5.52,5.52,0,0,0-.53-.18A1.7,1.7,0,0,1,238.5,121.86Zm-.56-.17a2.84,2.84,0,0,0-.31.06v0A.84.84,0,0,1,237.94,121.69Z" fill="#f9ddbe"/><path d="M178.24,72.09c1.25,2.1,2.52,4.17,3.88,6.2.72,1.07,1.38,2.2,2.11,3.27.84,1.24,1.46,2.38,2.94,2.9a2.27,2.27,0,0,0,2.56-1,5,5,0,0,0,.22-3.74c2.15-.65,2.85-2.9,4-4.85.17-.31.35-.62.54-.91a6.35,6.35,0,0,1,1-1.21,6.29,6.29,0,0,0,2.16-3.37,7,7,0,0,0-.86-4.66,12.28,12.28,0,0,0-1.31-1.75l-.14-.17c-.09-.13-.27-.36-.29-.4a38.26,38.26,0,0,1-3-4.81c-.42-.8-.79-1.63-1.18-2.45l-.25-.63c-.17-.46-.34-.92-.5-1.38a43.36,43.36,0,0,1-1.49-5.47c-.18-.88-.32-1.76-.46-2.64v0c0-.21,0-.42-.07-.63,0-.49-.09-1-.12-1.46a43.06,43.06,0,0,1,0-5.68c.08-1.11.2-2.22.32-3.33,0,0,0-.09,0-.17s.07-.42.08-.47.05-.3.07-.46a12.36,12.36,0,0,0,.85-5.35,2.67,2.67,0,0,0,0-.4,19.25,19.25,0,0,0,3.42,3.22c3.73,2.74,8.23,3.65,12.73,4.18,2.23.26,4.47.4,6.71.6.15,0,1.5.16,1.44.14.41.06.83.13,1.23.21a23.93,23.93,0,0,1,2.77.71l.73.26c-.11,0,.57.25.74.33.83.42,1.63.91,2.42,1.41a10.74,10.74,0,0,0,1.21.64c.26.16.23.1-.09-.16.38.32.76.63,1.16.92q1.64.64.84.36c-.28-.11-.24-.08.14.1l.14.05c.86.32,1,.41.49.25l.29.17a3.51,3.51,0,0,0-.5.45l-.08.08c-1.44,1.55-2,3.55-2.73,5.5-.61,1.63-1.15,3.28-1.74,4.92-1.08,3-2.5,6.11-3.14,9.27-.75,3.63-.16,7.12,2.48,9.86A17.43,17.43,0,0,0,223.09,73c.95.6,1.88.92,2.41,2l.07.13a2.1,2.1,0,0,0,3.38,0,1.71,1.71,0,0,0,.26-1.67c-.21-.59-.44-1.17-.67-1.73a27.26,27.26,0,0,0-1.39-2.88,3.14,3.14,0,0,0,.92-1,3.22,3.22,0,0,0,.28-.59c.45-1.17.79-2.37,1.15-3.57.25-.8.51-1.59.81-2.37.78-2,1.79-3.87,2.53-5.86A23.69,23.69,0,0,0,234.32,49a10.53,10.53,0,0,0-.21-3.54,6,6,0,0,0-1.23-2.41,4.87,4.87,0,0,0-3.2-3.35,2.14,2.14,0,0,0,.34-.87q.09-.55.15-1.11c.08-.45.06-.47,0,0a10.82,10.82,0,0,0,0-2.34c.06.6,0,.55,0-.15a3.14,3.14,0,0,0-.5-1.59c-.21-.39-.47-.76-.7-1.14a9.26,9.26,0,0,0-1.21-1.64,24.36,24.36,0,0,0-1.65-4.5,21.58,21.58,0,0,0-3.39-6.8,34.35,34.35,0,0,0-5-5.75c-2.23-2.75-4.84-5.14-8.3-5.86a17.11,17.11,0,0,0-7.19.09,15.88,15.88,0,0,0-4.8-.63,12.9,12.9,0,0,0-4.65,1c-.35.16-1.46.64-1.65.75a11.61,11.61,0,0,0-1.33.86,18.32,18.32,0,0,0-5,5.9,22.48,22.48,0,0,0-2.52,7.46c-.1.57-.2,1.16-.28,1.77-.16.23-.31.47-.45.71-1.5,2-2.24,4.72-3,7-.8,2.51-1.54,5-2.17,7.62a61.12,61.12,0,0,0-1.92,16,46.57,46.57,0,0,0,.36,4.66A29.18,29.18,0,0,0,178.24,72.09Z" fill="#cc6f53"/><path d="M192.4,8.46l.23-.09Z" fill="#6d6453"/><path d="M239.64,152.78H165.18a.56.56,0,0,1-.45-.22l-5.15-6.87a5,5,0,0,1-1.25,1.12c-1.35.83-5.6,1.1-8.87-1.36-1.17-.87-1.69-1.73-1.55-2.55a1.67,1.67,0,0,1,.42-.85l-4.35-.87c-4.19-.83-6.82-3.56-8.55-5.36a9.43,9.43,0,0,0-1.68-1.53c-1.2-.67-3.75.2-4.63.59a.56.56,0,0,1-.52,0,.54.54,0,0,1-.26-.46c-.16-6.8,3.34-13.1,4.7-15.29a21.46,21.46,0,0,1-6.36-1.64,13.21,13.21,0,0,1-4.84-3.47l-7.64-2.12c-1,2.15-5.1,11.8-5.27,17.21a.55.55,0,0,1-.53.54.57.57,0,0,1-.57-.5c-.06-.48-1.24-11.68,3.35-18.15a7.15,7.15,0,0,0-4.24-1.11c-2.6.39-9.18-.94-12.38-3.34a.56.56,0,0,1-.16-.71.55.55,0,0,1,.68-.25,42.24,42.24,0,0,0,11.51,2.08c5.51.14,9.79-1.12,12.79-3.76.72-6,3.74-11.31,5.35-12a.89.89,0,0,1,1,.18c.26.28,1.06,1.12-2,7.74a14.39,14.39,0,0,1-3.27,4.54c-.06.68-.1,1.36-.1,2.07a10.22,10.22,0,0,0,2.12,6.55l8.22,2.28c2.75-6.64.77-26,0-33.33-.13-1.27-.22-2.19-.25-2.63-.18-2.84-3.93-7.54-6.12-9.87-.56-.6-1.13-1.28-1.73-2-1.74-2.09-3.72-4.45-6-5.12a3.89,3.89,0,0,0-2.48.49l0,.25c-.19,1.8-.4,3.83-3,4.76a13.52,13.52,0,0,1-5.37,1,.55.55,0,0,1-.46-.37.54.54,0,0,1,.14-.59,39,39,0,0,1,7.73-5.77,8.94,8.94,0,0,1,.29-1.4c.36-1.16,1-2.67,1.62-4.26.73-1.83,1.57-3.89,2.18-5.81.86-2.74.7-6.51.6-9,0-.72-.06-1.34-.06-1.84a12.48,12.48,0,0,1,1.06-4.25,10.8,10.8,0,0,0,.66-2.09,2.62,2.62,0,0,0-.19-1.34,31.09,31.09,0,0,1-1.14-5.93c-.48-4-2.89-7.74-4.48-9.87a15,15,0,0,1-3.41,1c-6.14,1.23-16-.52-18-.89-1.71,2.22-.36,8.65.33,11a.56.56,0,0,1-.58.71,3.64,3.64,0,0,0-3,1c-2.66,2.61-2.26,9.15-2.25,9.22a.58.58,0,0,1-.22.48A.56.56,0,0,1,86,39,16.44,16.44,0,0,1,82,36.79a.6.6,0,0,1-.21-.38c-.16-1.5-2.64-5.62-5.22-6a4.3,4.3,0,0,0-1.37.06c.24.91.44,1.45.45,1.48a.65.65,0,0,1,0,.39,14.6,14.6,0,0,0-.86,5.68l.07.14a.59.59,0,0,1,.06.32s0,.22-.08.51a26.26,26.26,0,0,0,.66,4.13C78.1,46,80.28,45,80.4,45A.56.56,0,0,1,81,45a.55.55,0,0,1,.24.5c-.36,4,1.84,9.61,1.86,9.67,4.57,11.19,20.29,13.31,20.45,13.33a.56.56,0,0,1,.39.24.55.55,0,0,1,.08.45l-2.66,10.21a.55.55,0,0,1-.54.42h0a.55.55,0,0,1-.53-.41c-1.1-4.05-2.93-8.57-4-8.82,0,0-.1,0-.23.12-.85.93-3.23,6.32-5.72,12.29,0,.32,0,.65-.08,1-.76,10.16-1.5,18.72-2.81,20.54a.55.55,0,0,1-.75.15c-.23-.15-5.55-3.61-7.76-5.37A14.16,14.16,0,0,1,71,97.59a8.5,8.5,0,0,1-3.87-5.91,16.63,16.63,0,0,0-.82-2.54A32.87,32.87,0,0,1,59,83.58C56.48,81,53.55,77,53.9,72.7c.12-1.61.81-2,1.36-2,1.92-.1,5.1,4.65,7.44,8.67a75.26,75.26,0,0,1,4.51,9,24.25,24.25,0,0,0,2.73,1.27c3.79,1.45,6,4.33,7.58,6.43a15.87,15.87,0,0,0,1.79,2.13,23.53,23.53,0,0,0,4-.55c.59-1.51,3.26-8.34,6-14.86.22-2.8.39-5,.55-5.85.43-2.44-.52-7.27-1-9.2C84.42,71.36,81,80,81,80.06a.56.56,0,0,1-.94.15c-6.8-8.24-15.1-28.08-16.29-31-12.81-.7-23.06,3-30.49,10.85-6.19,6.58-9,14.5-10.65,19.23l-.13.35a34.74,34.74,0,0,0-1,7.15c-.36,4.34-.74,8.82-2.29,10.86-1.43,1.87-3.3,6.64-1.75,9.09a3.07,3.07,0,0,0,1.15,1,4.76,4.76,0,0,1,1.76-3.2c1-.65,2.26-.58,3.78.2a19.67,19.67,0,0,1,3.53,2.59c4.22-.37,7.1.42,8,2.27.57,1.22.16,2.73-1.17,4.38,1.46,1.53,2.93,3.1,4.35,4.62,3.63,3.88,7,7.54,9,9,4.64,3.53,13.81,5.05,24.43,6.54s35.89-1.3,36.15-1.33a.5.5,0,0,1,.21,0l20.33,5.89a.54.54,0,0,1,.39.61.55.55,0,0,1-.54.48H.56a.56.56,0,0,1-.56-.56.55.55,0,0,1,.56-.55H124.79L108.33,134c-2.06.22-25.79,2.79-36.31,1.31-10.78-1.51-20.1-3.06-24.95-6.76-2-1.5-5.44-5.2-9.1-9.11-1.4-1.5-2.85-3-4.28-4.54a20,20,0,0,1-2.09,1.87C23.78,122.9,15.09,135.88,15,136a.55.55,0,0,1-.65.21.56.56,0,0,1-.36-.59,43.82,43.82,0,0,1,3.09-11.37A15.88,15.88,0,0,0,18.47,115c0-.44-.09-.87-.11-1.29a26.26,26.26,0,0,1,0-4.74,4.1,4.1,0,0,1-1.92-1.61c-1.93-3.06.26-8.34,1.81-10.36,1.35-1.77,1.73-6.29,2.07-10.27a34.56,34.56,0,0,1,1.08-7.43l.12-.35c1.7-4.81,4.54-12.87,10.89-19.62,7.73-8.23,18.4-12,31.71-11.17a.53.53,0,0,1,.48.34c.09.22,8.69,21.25,15.67,30.28,1.08-2.5,4.39-9.58,8.58-12.48a.56.56,0,0,1,.85.32c.07.3,1.73,7.18,1.15,10.49-.08.45-.17,1.3-.26,2.4,2-4.69,3.83-8.65,4.62-9.52a1.34,1.34,0,0,1,1.31-.45c1.68.41,3.3,4.77,4.2,7.67l2-7.67a38.44,38.44,0,0,1-8.19-2.42C88.36,64.48,84,60.5,82,55.61c-.09-.23-2.06-5.25-2-9.39A4.83,4.83,0,0,1,77.73,46,6,6,0,0,1,76,45.12c3,10,10.26,19.82,10.37,20a.56.56,0,0,1,0,.67.56.56,0,0,1-.64.19C77,62.66,72.31,49.88,71.65,48a24.52,24.52,0,0,0-5.84-.79.57.57,0,0,1-.51-.38.55.55,0,0,1,.17-.6c1.8-1.55,3.45-2.28,4.9-2.16a3.21,3.21,0,0,1,1.44.46,11.12,11.12,0,0,0,1.27-2.8A17.37,17.37,0,0,1,72.17,40c-1.84-3.77-1.64-6.22-.93-7.75-1.78-5.3-3.4-13-1.1-19.61A16.91,16.91,0,0,1,79.66,2.6C89.86-2,99.15.35,105.15,3.13a39.4,39.4,0,0,1,10.65,7.19.49.49,0,0,1,.14.24v0a4.74,4.74,0,0,1-.12,3.91,4.18,4.18,0,0,1-1.24,1.24c1.67,2.24,4.09,6.11,4.6,10.29a30,30,0,0,0,1.1,5.73,3.72,3.72,0,0,1,.23,1.81,11.11,11.11,0,0,1-.72,2.34,11.7,11.7,0,0,0-1,3.86c0,.48,0,1.09.06,1.8.11,2.57.27,6.46-.65,9.39-.62,1.95-1.47,4-2.22,5.88-.63,1.58-1.24,3.06-1.58,4.18,0,.18-.1.35-.14.54a4.33,4.33,0,0,1,2.61-.29c2.61.77,4.7,3.27,6.54,5.48.59.7,1.15,1.36,1.69,1.94,1,1.1,6.18,6.75,6.42,10.56,0,.42.12,1.33.25,2.58.78,7.62,2.86,27.87-.31,34.36a.55.55,0,0,1-.64.29l-6.8-1.89a13.78,13.78,0,0,0,3.06,1.83,20.63,20.63,0,0,0,6.94,1.63.56.56,0,0,1,.48.31.54.54,0,0,1,0,.56c0,.08-4.87,7-5,14.64,1.19-.43,3.42-1,4.84-.24a9.63,9.63,0,0,1,1.94,1.73c1.74,1.8,4.12,4.27,8,5l5.7,1.14a.53.53,0,0,1,.44.51.55.55,0,0,1-.38.56c-.29.09-.9.4-1,.78s.35.89,1.12,1.47c2.84,2.13,6.53,2,7.64,1.3a4,4,0,0,0,1.13-1.09l-3.27-4.37a.55.55,0,0,1-.06-.58.57.57,0,0,1,.5-.31H175.6a.52.52,0,0,0,.06-.16.56.56,0,0,1,1-.13,2.19,2.19,0,0,0,.17.29h5.48c-2.69-2.57-6.39-6.13-7.67-7.41a20,20,0,0,0-4.92-2.94A18.35,18.35,0,0,1,166,127c-.79-.7-4.34-1.22-7.48-1.67a43.47,43.47,0,0,1-8.13-1.65l-2-.8c-2-.79-4.49-1.82-6.58-2.56a57.75,57.75,0,0,0-7.31,3.52.56.56,0,0,1-.65-.08.55.55,0,0,1-.13-.64c.37-.81,2.35-4.88,4.49-4.88a13.78,13.78,0,0,1,3.6.9,11.18,11.18,0,0,1,1.85-.49,13.73,13.73,0,0,1,3.56-11.78,6.25,6.25,0,0,0,1.29-1.93,8.42,8.42,0,0,0,.24-2.29c0-1.47.07-3.15,1-4.33.27-.35.55-.68.82-1a9.83,9.83,0,0,0,2.5-4.48c.56-2.61,9-28.62,12-33.24,2.93-4.41,6.72-4.74,7.39-4.76-.06-.6-.11-1.19-.14-1.78a30.73,30.73,0,0,1,3.56-16.5c.29-.6.55-1.13.72-1.55a57.49,57.49,0,0,0,2-7.1,74,74,0,0,1,4.45-14,13.75,13.75,0,0,1,11.71-8.11.55.55,0,0,1,.52.36.58.58,0,0,1-.14.61C191.6,10,186.27,17,186.48,29.37a45.45,45.45,0,0,0,2.05-7c0-.18,0-.29,0-.31a.56.56,0,0,1,1.11.11s0,.11,0,.27a9.17,9.17,0,0,0,1.85,6.21c2.1,2.74,5.79,4.39,11,4.91,4.77.48,8.77.66,12,.8,7,.31,10.92.49,12.22,3.52a.54.54,0,0,1,.05.28c-.06.54-.58,5.31-2.65,6.25a1.85,1.85,0,0,1-1.4.07c-.14,2-.61,7-1.72,9.08-1.2,2.23-9.12,13.42-12,14.86s-7.74,1-9.93-1a44.3,44.3,0,0,1-5.14-6.76c-.74-1.09-1.44-2.11-2-2.82L191,56.65c-2-2.56-5-6.42-5.14-8.86a23.45,23.45,0,0,1,.18-3.77,27.41,27.41,0,0,0,0-7.19c-.13-.76-.25-1.52-.34-2.26-1.36,3.55-3.18,8.07-5.64,13.78a40.26,40.26,0,0,0-2.92,19.77,86.75,86.75,0,0,0,7.4,13.74c-1.7-9.55-2.79-18.19-2.11-22.23a.53.53,0,0,1,.48-.46.56.56,0,0,1,.58.34,138.93,138.93,0,0,0,8.35,16.35c1.95-2.92,4.36-5.52,7.11-6.41a.53.53,0,0,1,.49.07.55.55,0,0,1,.23.44c0,.76.17,8.33.34,17.29,4.77,5.31,10.09,8.82,15.29,7.27,4.73-1.41,8-3.85,9.71-7.24,2.4-4.75,1-10,.64-11.18-1.52-.59-8.84-3.87-8.66-12,.1-4.57,3.25-8.59,6.31-12.48,2.79-3.57,5.44-7,5.8-10.59-2.18-2.35-3.56-6.09-5.09-10.26-1.64-4.45-3.49-9.5-6.73-14-6.88-9.6-24.42-2.54-24.6-2.47a.54.54,0,0,1-.57-.09.55.55,0,0,1-.18-.55c1.18-4.9,7-9.08,7.25-9.25a.46.46,0,0,1,.25-.1c15.9-1.87,21.37,10.07,24.31,16.48a19.54,19.54,0,0,0,1.83,3.47c2.89,3.47,4.69,7.35,4.69,15.93,0,.14,0,.29,0,.43a6.76,6.76,0,0,0,1.61,1.17,5.52,5.52,0,0,1,3.17,4.3c.55,4-2.83,9.05-4.76,10.85a6.35,6.35,0,0,0-1.39,3.8,12.12,12.12,0,0,1,1.35-1.25A21.23,21.23,0,0,1,234.2,54a.54.54,0,0,1,.6-.14c.08,0,8.25,3.2,13.41,3.38,4.9.18,7.94,1.09,7.94,5.12A13.38,13.38,0,0,0,258.88,71c2.12,2.7,5.65,12.94,5.44,15-.18,1.8.92,12.45,1.51,15.41l.36,1.88c.46,2.46,1.1,5.84,1.65,6.66a4.38,4.38,0,0,0,1,1,2.82,2.82,0,0,1,1.4,2.21,9.82,9.82,0,0,1-.47,2.25c-.36,1.3-.81,2.93-.51,3.84.15.44.41,1,.72,1.69.84,1.86,1.88,4.17,1.58,6-.4,2.41-4.27,8.6-5.64,10.16-.74.84-2.47,1.45-4.3,2.09-.74.26-1.56.55-2.26.85a8,8,0,0,0,4.76-1.13.53.53,0,0,1,.28-.07H291.3a.55.55,0,0,1,.56.55.56.56,0,0,1-.56.56H264.51a9.54,9.54,0,0,1-5.53,1.2h-1.3c-1.4,1.82-7.64,3.68-10.79,2.75a.55.55,0,0,1-.15-1,8.9,8.9,0,0,0,1.22-1.05,3.83,3.83,0,0,1-1-.64c-2.05-1.89-1.89-5.78-1.72-7.34a17.45,17.45,0,0,0-2.86.34c-.68.15-1.29,1.89-1.74,3.15s-.85,2.43-1.49,2.85c-1.3.87-8.68,2-10.76,2a2.4,2.4,0,0,1-2.55-1.51h-3l17.05,11.13a.56.56,0,0,1,.23.63A.55.55,0,0,1,239.64,152.78Zm-74.19-1.11h72.33l-16.92-11H185.09l1,.94.07.08c.15.21,1.43,2.12.72,3.55a2.84,2.84,0,0,1-2.67,1.31c-3.54.16-6.7-4-7.94-5.86a13.41,13.41,0,0,1-3.76,3.69,2.34,2.34,0,0,1-3-.53,7.8,7.8,0,0,1-5.83,3.6,3.33,3.33,0,0,1-1.62-.22Zm-5.21-9.5a.55.55,0,0,1,.55.54,5.12,5.12,0,0,0,1.24,3.14,2,2,0,0,0,1.57.45c3-.3,5.05-2.53,5.21-3.65a.54.54,0,0,1,.43-.46.55.55,0,0,1,.58.24c.05.07,1.06,1.61,2.09,1a13.07,13.07,0,0,0,3-2.77H157.17l2.3,3.07a2.74,2.74,0,0,0,.21-1,.56.56,0,0,1,.55-.56Zm17.35-1.54c1.33,1.86,3.91,4.9,6.56,4.77.64,0,1.47-.17,1.73-.69.34-.7-.32-1.94-.61-2.38l-1.79-1.7ZM248.33,143a15.31,15.31,0,0,0,7.43-1.77,28,28,0,0,0-4,.75,6.73,6.73,0,0,1-2.62.2C248.84,142.46,248.57,142.73,248.33,143Zm-.44-21.4c2.5,1.08,2.81,3,3.49,7.18.16,1,.34,2.14.58,3.44a11.3,11.3,0,0,1-2,8.9,6.47,6.47,0,0,0,1.49-.22,26.8,26.8,0,0,1,5.66-.88,12.51,12.51,0,0,1,4.09-1.91c1.54-.54,3.29-1.16,3.84-1.78,1.23-1.42,5-7.46,5.38-9.61.24-1.48-.77-3.71-1.51-5.34-.31-.7-.59-1.3-.75-1.8-.41-1.23.07-3,.49-4.49a9.63,9.63,0,0,0,.43-2c0-.53-.36-.84-1-1.34a5.14,5.14,0,0,1-1.21-1.21c-.62-.93-1.14-3.52-1.81-7.07-.13-.66-.25-1.3-.36-1.86-.56-2.79-1.73-13.69-1.53-15.74.17-1.64-3.14-11.61-5.2-14.23a14.41,14.41,0,0,1-3-9.27c0-2.44-1.09-3.8-6.87-4-4.79-.17-11.77-2.7-13.42-3.32a24.42,24.42,0,0,0-2.39,3,15.6,15.6,0,0,1,2.94-1.32.55.55,0,0,1,.67.3c.24.55,5.91,13.36,6.49,15.47a.55.55,0,0,1-.24.61l-4.51,3,5.7,1.74a.55.55,0,0,1,.39.56c-.06,1.24-1.6,28.88-7.65,41.6a37,37,0,0,1,8,1.1c.59-.29,2.1-1,3.8-1.74.55-.95,1.19-2.12,1.78-3.32-1.36-4.66-2.68-11.85-.54-18.28q.39-1.17.69-2.4c-.51-5.2-.83-10.59-.33-14.4.33-2.57.7-2.9,1.08-3a.7.7,0,0,1,.73.18c1.1,1.1,1.36,10-.36,17.31.26,2.56.55,5.08.82,7.32a69.74,69.74,0,0,1,.73,8.14,15.69,15.69,0,0,1-1.62,5.22c.2.68.4,1.3.59,1.85a8.31,8.31,0,0,1,2.81-.62,14.05,14.05,0,0,1,3,1.06c2.88-.56,6.21-.52,8.22,1.79.58.67,1.12,1.43.69,2-.61.84-2.3.27-7.8-2.11l-1.21-.53a25.27,25.27,0,0,0-5,1.68.54.54,0,0,1-.43,0,.56.56,0,0,1-.32-.3c0-.1-.3-.66-.65-1.59-.67.26-1.39.55-2.11.86C248.39,120.75,248.1,121.22,247.89,121.56Zm-26.7,17.95h5.15a.56.56,0,0,1,.56.56c0,.15.11,1,1.53,1,2.22,0,9.18-1.16,10.14-1.8a6.77,6.77,0,0,0,1.07-2.3c.62-1.76,1.26-3.58,2.54-3.86a19.4,19.4,0,0,1,3.73-.39.55.55,0,0,1,.42.19.57.57,0,0,1,.13.45c0,.05-.82,5.07,1.3,7a2.59,2.59,0,0,0,1,.58,10.22,10.22,0,0,0,2.12-8.53c-.24-1.32-.43-2.46-.59-3.46-.73-4.52-.93-5.73-3.41-6.56a.54.54,0,0,1-.28-.83s.13-.21.35-.56c-.9.41-1.76.82-2.5,1.17a.55.55,0,0,1-.38,0,37.29,37.29,0,0,0-8.47-1.12c-.19.37-.4.73-.61,1.07a.52.52,0,0,1-.4.25c-2.2.29-6,1.07-6.89,1.94s-3.2,2.63-5.28,4.21c-1.24.95-2.42,1.84-2.92,2.27a10.66,10.66,0,0,0-1.53,2,11.94,11.94,0,0,1-1.87,2.45c1,.43,2.33.86,3.19.47a9.58,9.58,0,0,0,2.7-2.64,7.79,7.79,0,0,1,1.61-1.69s4-2.33,5.24-1.06a.88.88,0,0,1,.23.79c-.24,1.49-4.31,4.44-5.13,4.85a41,41,0,0,1-5.83,1.49Zm-37.26,0h35.22l-2.8-1.82a.57.57,0,0,1-.24-.58.54.54,0,0,1,.44-.43h0a11.42,11.42,0,0,1-1.91-.87.56.56,0,0,1,.15-1c.69-.17,1.5-1.43,2.22-2.54a10.83,10.83,0,0,1,1.73-2.28c.53-.45,1.67-1.32,3-2.31,1.95-1.49,4.37-3.33,5.16-4.12s2.92-1.39,4.71-1.77l-.05,0a.55.55,0,0,1-.26-.49c0-.39.89-39.31-3.75-49.53a9.86,9.86,0,0,1-.41-8.35,8.92,8.92,0,0,1,.62-1.14c0-2.47.53-5,1.82-6.15,1.72-1.6,4.9-6.3,4.41-9.88a4.46,4.46,0,0,0-2.58-3.46,7.57,7.57,0,0,1-1.26-.82c-.68,3.67-3.34,7.06-5.92,10.35-2.94,3.75-6,7.63-6.07,11.83C218,72.31,226,75,226.33,75.15a.55.55,0,0,1,.35.33c.09.27,2.3,6.51-.61,12.29-1.85,3.68-5.35,6.31-10.4,7.81-4.81,1.44-10-.79-15.57-6.64.25,13.16.5,28.51.39,29.71a.53.53,0,0,1-.21.39.5.5,0,0,1-.42.11c-1.23-.19-4.53-.52-6,0l.24,1,1.32,0c5.91-.14,12.32-.26,13.58.06,1.52.37,2.09,1.91,2.54,3.14.11.28.2.54.31.78.65,1.53.59,6,.42,7.87-.24,2.64-.8,4.18-1.66,4.58a1.26,1.26,0,0,1-1.31-.19c-.92-.66-1.13-2.26-1.12-3.59-.58.77-1.22,1.64-1.5,2.1a5.41,5.41,0,0,1-1.22,1.48,1.7,1.7,0,0,1-2,.23c-.74-.45-1-1.85-1-3.08a14.55,14.55,0,0,1-4.17,3.12A2.85,2.85,0,0,1,195,136a2.28,2.28,0,0,1-2.4-.77c-2.87,2-9.93,1.15-10.78,1a.55.55,0,0,1-.48-.6.56.56,0,0,1,.58-.5s2.87.11,3.92-1.84c.54-1,.7-2.74-.55-5.7a2.32,2.32,0,0,1-1.82,1.43c-2.22.21-12.64-3.39-14.31-4a15.52,15.52,0,0,1-2.84-1.74l-.6-.42c-5-.52-11.68-2.18-12.55-3.4a.78.78,0,0,1-.1-.81c.2-.45.78-.67,2-.78,4.41-.39,8.31,2,11.1,3.94a18.87,18.87,0,0,0,3.14.07c.8-.78,4.82-4.75,5.63-6.53.23-.51-.31-2.25-.84-3.94-1.26-4.09-3.15-10.2-1-15.91a5.29,5.29,0,0,1,.3-.7.55.55,0,0,1,.73-.24.56.56,0,0,1,.26.73l-.18.42a13.48,13.48,0,0,0-.55,5.73c.34,3.73,2,9.9,8.08,18.18a47,47,0,0,1,3.45,5.33,4,4,0,0,1,1.3-1.67c.72-.48,1.69-1.27,2.71-2.12,1.18-1,2.38-2,3.34-2.57-1.37-5.58-4.92-20.32-7.47-33.95a98.44,98.44,0,0,1-7.38-12.69,50.87,50.87,0,0,0,1.3,5.59,53.7,53.7,0,0,0,5.81,13.22.57.57,0,0,1-.08.71.56.56,0,0,1-.72.05C179.19,88,175.7,80.79,173.65,70.2a96.85,96.85,0,0,1-1.6-14.2,8.9,8.9,0,0,0-6,4.22c-3,4.54-11.33,30.27-11.89,32.86a10.82,10.82,0,0,1-2.73,5c-.26.32-.53.64-.79,1-.7.9-.73,2.31-.76,3.68a9.11,9.11,0,0,1-.29,2.61,7.22,7.22,0,0,1-1.5,2.3,14.59,14.59,0,0,0-2.51,3.83c-1.44,3.23-.73,7.62-.72,7.66a.55.55,0,0,1-.14.47.55.55,0,0,1-.45.18,2.37,2.37,0,0,0-.67,0c1.71.64,3.55,1.39,5.23,2.08l2,.79a42.88,42.88,0,0,0,7.87,1.58c3.77.54,7,1,8.06,1.94a18.09,18.09,0,0,0,3.53,2,20,20,0,0,1,5.23,3.16C176.85,132.73,181.25,137,183.93,139.51Zm11.26-4.74a.54.54,0,0,1,.47.26,1.71,1.71,0,0,0,2.17.54,13.74,13.74,0,0,0,4.65-3.92.56.56,0,0,1,.64-.28.54.54,0,0,1,.41.56c-.09,1.72.15,3.47.49,3.67.62.38,1.47-.92,1.71-1.32.58-1,2.61-3.56,2.7-3.67a.56.56,0,0,1,1,.42c-.22,1.52-.2,3.89.53,4.41,0,0,.15.1.2.08.29-.13.79-1.22,1-3.67.2-2.15.16-6.17-.33-7.33-.12-.26-.22-.55-.33-.83-.4-1.09-.82-2.22-1.77-2.46-1.22-.3-9.37-.11-13.28,0l-1.77,0h0a.56.56,0,0,1-.54-.42c0-.14-.13-.52-.27-1.1-.85.58-1.9,1.44-2.92,2.28s-2,1.68-2.8,2.19a4.2,4.2,0,0,0-1.26,2c1.57,3.29,1.88,5.84.93,7.6a4.06,4.06,0,0,1-1.48,1.56c2.68.06,5.85-.18,7-1.41a.59.59,0,0,1,.5-.17.57.57,0,0,1,.42.33,1.25,1.25,0,0,0,1.73.66A.62.62,0,0,1,195.19,134.77Zm32.54-3.7a9.25,9.25,0,0,0-3.57,1.31,8.29,8.29,0,0,0-1.31,1.44,21.51,21.51,0,0,1-1.6,1.84,13.49,13.49,0,0,0,2.19-.65c1.1-.55,4.14-3.06,4.49-3.91A.56.56,0,0,0,227.73,131.07ZM19.47,109.28a26.9,26.9,0,0,0,0,4.35c0,.41.07.83.11,1.25a16.77,16.77,0,0,1-1.49,9.85,39.68,39.68,0,0,0-2.6,8.64c2.81-4,9.37-12.71,15.43-17.48a18.76,18.76,0,0,0,2-1.8c-2-2.08-3.95-4-5.66-5.54a31.67,31.67,0,0,0-3.31.53A11.52,11.52,0,0,1,19.47,109.28ZM167.89,123a9.47,9.47,0,0,0,1.67,1c2.83,1.08,12.11,4.12,13.8,4,.59-.06.91-.66,1.31-1.65a44.11,44.11,0,0,0-3.79-6,51.68,51.68,0,0,1-6.13-10.52c.14.46.27.91.41,1.33.71,2.31,1.18,3.84.78,4.73-1,2.16-5.8,6.81-6,7a.57.57,0,0,1-.33.16A13.23,13.23,0,0,1,167.89,123Zm-59.65-14.26a10,10,0,0,1,4.07,1.62.55.55,0,0,1,.23.38.54.54,0,0,1-.12.42c-2.58,3.29-3.39,8.27-3.59,12.13A92.67,92.67,0,0,1,113.38,111a.57.57,0,0,1,.66-.3l6.76,1.88a11.73,11.73,0,0,1-1.58-6.09q0-.54,0-1.08A19,19,0,0,1,108.24,108.74Zm30,10.61c-.76,0-1.8,1.27-2.63,2.64,1.23-.65,3-1.52,4.6-2.22A8.18,8.18,0,0,0,138.2,119.35Zm96.07,1.8a7.32,7.32,0,0,0-1.83.45c.75-.14,1.38-.23,1.73-.28A1,1,0,0,0,234.27,121.15Zm-79.84-2.08a39.82,39.82,0,0,0,9.22,2.41c-2.43-1.49-5.32-2.79-8.49-2.51A5.58,5.58,0,0,0,154.43,119.07Zm104.83.13a37.85,37.85,0,0,0,5.83,2.19c-.09-.12-.22-.29-.41-.52C263.38,119.38,261.33,119,259.26,119.2ZM227.91,64.44a9.12,9.12,0,0,0,.65,6.83c4.41,9.71,4,43.21,3.87,49.16a9.7,9.7,0,0,1,2.47-.44c5.75-11.45,7.54-37.57,7.77-41.25l-6.42-2a.56.56,0,0,1-.14-1l5.16-3.38c-.89-2.58-5.11-12.2-6.11-14.45a16.52,16.52,0,0,0-4,2.23,10.28,10.28,0,0,0-1,4.79,8.63,8.63,0,0,0,2.61,5.72.55.55,0,0,1-.58.93c-2.11-.93-3.65-3.4-4.23-6.79Zm24,54.51c.16.41.29.75.4,1a26.1,26.1,0,0,1,3.18-1.15,6,6,0,0,0-1.25-.4A7.36,7.36,0,0,0,251.88,119Zm-1.69-1.42c-.19.37-.39.74-.58,1.09.28-.12.57-.23.84-.33ZM186.68,86.9c2.46,12.68,5.6,25.82,6.91,31.17a16.62,16.62,0,0,1,5.82-.1c0-3.12-.19-17-.44-30.27a69.32,69.32,0,0,1-6.14-8.23l-1-1.48a55.07,55.07,0,0,0-4.14,8.88.56.56,0,0,1-.45.37.55.55,0,0,1-.53-.23Zm63.5,11.35c-1.77,5.49-.88,11.68.27,16.13a11.87,11.87,0,0,0,1-3.59,72,72,0,0,0-.72-8C250.54,101.39,250.35,99.85,250.18,98.25ZM28.79,108.44c1.52,1.4,3.18,3.06,4.87,4.81,1-1.24,1.31-2.31.93-3.11C34.1,109.08,32.16,108.31,28.79,108.44Zm73.47-.07a14.81,14.81,0,0,0,4.52.38h-.24A37.49,37.49,0,0,1,102.26,108.37Zm-82.64-.19a10,10,0,0,0,4.11-.19c.83-.17,1.63-.31,2.39-.42a15.25,15.25,0,0,0-2.53-1.77c-1.13-.59-2-.68-2.66-.26A3.82,3.82,0,0,0,19.62,108.18Zm61-9c2,1.45,5,3.44,6.17,4.22,1-2.44,1.69-10.77,2.18-17.08-1.89,4.63-3.69,9.19-4.77,12a.55.55,0,0,1-.37.34A25.24,25.24,0,0,1,80.62,99.19Zm44.29-6.1c-1,.76-3.33,4.48-4.22,9.44a14,14,0,0,0,2-3.16C124.6,95.28,124.89,93.66,124.91,93.09ZM67.8,89.89a13.5,13.5,0,0,1,.45,1.58,7.48,7.48,0,0,0,3.37,5.18,12.15,12.15,0,0,0,6.19,1.55c-.38-.44-.76-.94-1.18-1.49C75,94.61,73,92,69.55,90.64,69,90.42,68.39,90.17,67.8,89.89Zm183-10c-.06.31-.12.7-.19,1.21a53.89,53.89,0,0,0,0,10.19A44.56,44.56,0,0,0,250.83,79.85ZM173.42,60.13c.61,7.18,2.54,20.76,8.62,28A59.41,59.41,0,0,1,178,77.87a52.12,52.12,0,0,1-1.87-9.55A55.32,55.32,0,0,1,173.42,60.13ZM55.34,71.79h0c-.1,0-.27.29-.33,1C54.57,78.25,60.1,84,65.62,87.42a80,80,0,0,0-3.88-7.5C58,73.48,55.93,71.79,55.34,71.79Zm137.2,5.13a77.78,77.78,0,0,0,6.4,9c-.11-5.48-.21-10.8-.3-15.15C196.33,71.84,194.25,74.26,192.54,76.92Zm-6.37,7.31.88,1.28a53.2,53.2,0,0,1,4.17-8.59,142.58,142.58,0,0,1-7.82-15C183.27,66.84,184.5,75.27,186.17,84.23Zm.46-52c.11,1.4.3,2.86.56,4.39a28,28,0,0,1,0,7.49,23.6,23.6,0,0,0-.17,3.58c.15,2.11,3.13,6,4.9,8.26l.88,1.13c.54.73,1.24,1.77,2,2.87a45.18,45.18,0,0,0,5,6.56c1.87,1.69,6.17,2.12,8.69.86S218.66,55.42,220,53s1.64-9.39,1.64-9.46a.56.56,0,0,1,.31-.47.54.54,0,0,1,.56,0c.66.46,1,.3,1.12.24,1.1-.5,1.79-3.39,2-5.21-1.1-2.27-4.51-2.42-11.2-2.72-3.23-.14-7.24-.32-12-.8-5.51-.56-9.46-2.36-11.76-5.36a10,10,0,0,1-1.75-3.58C188.39,27.22,187.69,29.34,186.63,32.25ZM112.91,63.44a37.66,37.66,0,0,0-5.68,4.2,16.76,16.76,0,0,0,3.43-.85C112.46,66.16,112.74,65,112.91,63.44ZM193.27,7.07a12.44,12.44,0,0,0-9.16,7.29,73.86,73.86,0,0,0-4.39,13.81,56.34,56.34,0,0,1-2.06,7.25c-.18.46-.45,1-.75,1.63-2.1,4.32-6.21,12.75-1,27.67a40.39,40.39,0,0,1,3.2-16.81c3-6.91,5-12,6.41-15.84a42.63,42.63,0,0,1,.19-8.33A28.5,28.5,0,0,1,193.27,7.07Zm35.6,55.49a14.28,14.28,0,0,0,.18,1.94,10.43,10.43,0,0,1,.34-2.63C229.21,62.09,229,62.32,228.87,62.56ZM67.34,46.14c1.63.12,4.07.39,5,.94a.61.61,0,0,1,.26.31c0,.13,4.1,12.21,11.65,16.61a85.81,85.81,0,0,1-6-10.26,50,50,0,0,1-3.8-10.1c-.21-.24-.42-.5-.62-.78a9.57,9.57,0,0,1-1.52,2.78.58.58,0,0,1-.85,0C71.43,45.58,70.18,44.23,67.34,46.14Zm4.54-12.06a10.11,10.11,0,0,0,1.29,5.45c.1.22.21.43.32.64.1-.45.18-.84.23-1.15s0-.48,0-.72C73.35,37.61,72.64,36.11,71.88,34.08ZM205.6,10.57c5.7,0,10,1.88,12.65,5.51,3.32,4.64,5.2,9.76,6.86,14.28,1.3,3.52,2.47,6.72,4.09,8.94-.11-7.66-1.78-11.2-4.42-14.37a18.94,18.94,0,0,1-2-3.72c-3-6.57-8-17.54-23-15.86-.74.55-4.9,3.77-6.36,7.48a41.62,41.62,0,0,1,9-2.08A29.7,29.7,0,0,1,205.6,10.57ZM82.87,36a15.51,15.51,0,0,0,2.7,1.57c0-2,.2-6.84,2.62-9.21A4.63,4.63,0,0,1,91.31,27c-.61-2.35-2.11-9.15.34-11.6a.57.57,0,0,1,.5-.15c.11,0,11.37,2.24,17.83.95a15.08,15.08,0,0,0,2.93-.85l-.45-.54c-1.37.78-3.61,1.09-6.29,1.09-9.43,0-24.39-3.82-26.72-4.43C73.16,16.71,74,25.19,75,29.42a5.42,5.42,0,0,1,1.78-.08C79.77,29.75,82.46,34.05,82.87,36Zm-10.41-3.7c.45,1.32.91,2.48,1.3,3.41a14.5,14.5,0,0,1,.79-3.58c-.09-.24-.23-.7-.4-1.32a3.89,3.89,0,0,0-1.53,1.25A2,2,0,0,0,72.46,32.34ZM91.62,1.07A27.72,27.72,0,0,0,80.11,3.62,15.8,15.8,0,0,0,71.19,13c-2.06,5.93-.75,12.92.85,18a5,5,0,0,1,1.84-1.3,27.8,27.8,0,0,1-.7-5.42C73,18.4,75,13.61,79,10.46a.57.57,0,0,1,.49-.1c7.64,2,28.42,6.62,32.76,3.33a.54.54,0,0,1,.74.06c.06.06.42.45,1,1.11a3,3,0,0,0,1-.95,3.59,3.59,0,0,0,0-2.91,39.59,39.59,0,0,0-10.26-6.88A31,31,0,0,0,91.62,1.07Z" fill="#2f292b"/></g></g></svg>