<?xml version="1.0" encoding="utf-8"?>
<!-- Generator: Adobe Illustrator 24.2.0, SVG Export Plug-In . SVG Version: 6.00 Build 0)  -->
<svg version="1.1" id="Layer_1" xmlns="http://www.w3.org/2000/svg" xmlns:xlink="http://www.w3.org/1999/xlink" x="0px" y="0px"
	 viewBox="0 0 50.5 49.8" style="enable-background:new 0 0 50.5 49.8;" xml:space="preserve">
<style type="text/css">
	.st0{opacity:0.6;}
	.st1{fill:none;stroke:#666666;stroke-miterlimit:10;}
	.st2{fill:#DCDCDC;}
	.st3{fill:none;stroke:#666666;stroke-width:2;stroke-miterlimit:10;}
	.st4{fill:#FFFFFF;}
	.st5{fill:#666666;}
</style>
<g class="st0">
	<path class="st1" d="M42.7,40.6L42.7,40.6c9.1-9.1,9.1-23.7,0-32.8s-23.7-9-32.8,0c-9.1,9.1-9.1,23.7,0,32.8
		c9,9.1,23.6,9.1,32.7,0.1C42.7,40.7,42.7,40.7,42.7,40.6z"/>
</g>
<path class="st2" d="M39.6,43L39.6,43c9.1-9.1,9.1-23.7,0-32.8s-23.7-9.1-32.8,0c-9,9.1-9,23.8,0,32.8C15.8,52.1,30.4,52.1,39.6,43
	C39.6,43.1,39.6,43.1,39.6,43z"/>
<path class="st3" d="M42.7,40.6L42.7,40.6c9.1-9.1,9.1-23.7,0-32.8s-23.7-9-32.8,0c-9.1,9.1-9.1,23.7,0,32.8
	c9,9.1,23.6,9.1,32.7,0.1C42.7,40.7,42.7,40.7,42.7,40.6z"/>
<g>
	<path class="st4" d="M35.9,38.1H17.6c-0.4,0-0.8-0.4-0.8-0.8V14.9c0-0.4,0.4-0.8,0.8-0.8h18.3c0.4,0,0.8,0.4,0.8,0.8v22.5
		C36.7,37.8,36.4,38.1,35.9,38.1z"/>
	<path class="st5" d="M37.5,13.4h-5c-0.6-1.1-1.9-1.9-3.5-2.3c0-1-0.9-1.8-2.1-1.9c-1.2-0.1-2.2,0.7-2.3,1.8
		c-1.8,0.4-3.2,1.3-3.8,2.4H16v26.4h21.5c0,0,0,0,0,0L37.5,13.4C37.5,13.4,37.5,13.4,37.5,13.4z M35.9,38H17.7v-23h18.1V38z"/>
	<g>
		<path class="st5" d="M18,15.4l17.5,0v22.4l-17.5,0V15.4 M16,13.4v26.4l21.5,0V13.4L16,13.4L16,13.4z"/>
	</g>
	<rect x="19.9" y="17.4" class="st5" width="2.7" height="2"/>
	<rect x="24.5" y="17.4" class="st5" width="9.1" height="2"/>
	<rect x="19.9" y="22.8" class="st5" width="2.7" height="2"/>
	<rect x="24.5" y="22.8" class="st5" width="9.1" height="2"/>
	<rect x="19.9" y="28.3" class="st5" width="2.7" height="2"/>
	<rect x="24.5" y="28.3" class="st5" width="9.1" height="2"/>
	<rect x="19.9" y="33.7" class="st5" width="2.7" height="2"/>
	<rect x="24.5" y="33.7" class="st5" width="9.1" height="2"/>
</g>
</svg>
