<svg xmlns="http://www.w3.org/2000/svg" xmlns:xlink="http://www.w3.org/1999/xlink" viewBox="0 0 272.84 183.83"><defs><linearGradient id="linear-gradient" x1="29.79" y1="217.22" x2="29.64" y2="217.53" gradientTransform="matrix(415.57, 0, 0, -298.75, -12253.11, 65053.35)" gradientUnits="userSpaceOnUse"><stop offset="0" stop-color="#608a93"/><stop offset="0.08" stop-color="#7d9fa7"/><stop offset="0.2" stop-color="#a0b9bf"/><stop offset="0.33" stop-color="#bdced3"/><stop offset="0.46" stop-color="#d4dee2"/><stop offset="0.61" stop-color="#e4eaed"/><stop offset="0.77" stop-color="#edf1f3"/><stop offset="1" stop-color="#f0f3f5"/></linearGradient><linearGradient id="linear-gradient-2" x1="30.84" y1="195.06" x2="30.1" y2="194.7" gradientTransform="matrix(21.84, 0, 0, -11.47, -517.06, 2274.4)" gradientUnits="userSpaceOnUse"><stop offset="0" stop-color="#fff"/><stop offset="1"/></linearGradient><linearGradient id="linear-gradient-3" x1="31" y1="208.54" x2="30.55" y2="207.78" gradientTransform="matrix(23.09, 0, 0, -25.93, -565.16, 5458.99)" xlink:href="#linear-gradient-2"/><linearGradient id="linear-gradient-4" x1="31.47" y1="206.4" x2="28.7" y2="202.56" gradientTransform="matrix(27.41, 0, 0, -19.08, -667.87, 3958.49)" xlink:href="#linear-gradient-2"/><linearGradient id="linear-gradient-5" x1="29.08" y1="188.57" x2="36.27" y2="189.26" gradientTransform="matrix(9.17, 0, 0, -9.19, -129.87, 1766.95)" gradientUnits="userSpaceOnUse"><stop offset="0" stop-color="#fff"/><stop offset="0.66" stop-color="#6e6b6c"/><stop offset="1" stop-color="#231f20"/></linearGradient><linearGradient id="linear-gradient-6" x1="29.87" y1="207.52" x2="30.67" y2="206.56" gradientTransform="matrix(30.69, 0, 0, -22.47, -769.14, 4708.51)" xlink:href="#linear-gradient-2"/><linearGradient id="linear-gradient-7" x1="21.27" y1="215.58" x2="22.53" y2="215.99" gradientTransform="matrix(7.74, 0, 0, -67.66, 95.01, 14726.74)" xlink:href="#linear-gradient-2"/><linearGradient id="linear-gradient-8" x1="16.76" y1="208.62" x2="15.72" y2="208.62" gradientTransform="matrix(7.51, 0, 0, -21.44, 73.29, 4581.64)" xlink:href="#linear-gradient-2"/><linearGradient id="linear-gradient-9" x1="25.76" y1="212.91" x2="25.22" y2="212.91" gradientTransform="matrix(15.03, 0, 0, -38.18, -117.03, 8244.39)" xlink:href="#linear-gradient-2"/><linearGradient id="linear-gradient-10" x1="23.75" y1="195.27" x2="23.9" y2="195.91" gradientTransform="matrix(10.26, 0, 0, -9.61, 9.01, 1967.02)" xlink:href="#linear-gradient-2"/><linearGradient id="linear-gradient-11" x1="24.33" y1="174.03" x2="24.45" y2="174.76" gradientTransform="matrix(11.29, 0, 0, -5.15, -23, 979.24)" xlink:href="#linear-gradient-2"/><linearGradient id="linear-gradient-12" x1="36.63" y1="212.18" x2="36.09" y2="212.18" gradientTransform="matrix(12.52, 0, 0, -35.33, -370.8, 7599.35)" xlink:href="#linear-gradient-2"/><linearGradient id="linear-gradient-13" x1="33.43" y1="192.2" x2="32.84" y2="192.2" gradientTransform="matrix(7.82, 0, 0, -8.68, -225.38, 1752.13)" xlink:href="#linear-gradient-2"/></defs><title>KM Plan</title><g id="Layer_2" data-name="Layer 2"><g id="Plan"><ellipse id="Ellipse_367" data-name="Ellipse 367" cx="245.58" cy="181.47" rx="17.89" ry="2.36" style="fill:#9faad4;opacity:0.219999998807907;isolation:isolate"/><path id="Path_19696" data-name="Path 19696" d="M186,92.3c37.43,38.13,57.88,68.78,28.55,79.58-23,8.47-78-5.38-108.59,3.8-13.85,4.14-50.6,18.39-77.47-4.66-23.91-20.51-50.33-86.92.93-77.46C50,97.37,33.25,32.89,72.17,29.68,99.77,27.4,154.52,60.23,186,92.3Z" style="fill:#d1dfe1;opacity:0.75;isolation:isolate"/><path id="Path_19697" data-name="Path 19697" d="M12.87,144.08c6.07,9.95,13.59,19,20.72,24.66,29.45,23.5,61.21,12.51,75.77,7.58,32.22-10.91,79.94,8.17,104.26-1.34,14.78-5.78,13.2-21.3-.36-44.86-5.87-10.19-14-21.87-24-34.93-29.05-38-78.46-72.64-99-72.69C48.8,22.38,52.77,93.33,30.73,90.07-9.19,84.15-3.36,117.45,12.87,144.08Z" style="opacity:0.5;isolation:isolate;fill:url(#linear-gradient)"/><path id="Path_19705" data-name="Path 19705" d="M112.56,63.23H63.13A2.76,2.76,0,0,0,60.38,66v89.63a2.75,2.75,0,0,0,2.75,2.75H168.91a2.75,2.75,0,0,0,2.75-2.75,2.82,2.82,0,0,0-.42-1.47L114.89,64.52A2.75,2.75,0,0,0,112.56,63.23Z" style="fill:#40575b"/><path id="Path_19706" data-name="Path 19706" d="M57.34,121.74l2.28-2.45a18.91,18.91,0,0,1,2.79,1.53l-.86,3.25a15.75,15.75,0,0,1,2.39,2.3l3.21-1a18.81,18.81,0,0,1,1.64,2.73l-2.37,2.37a14.83,14.83,0,0,1,.92,3.2l3.28.75a18.77,18.77,0,0,1,0,3.18l-3.23.87a15.42,15.42,0,0,1-.8,3.23L69.09,144a18.32,18.32,0,0,1-1.53,2.78l-3.25-.86a15,15,0,0,1-2.31,2.4l1,3.2a18.42,18.42,0,0,1-2.72,1.65l-2.37-2.37a15.6,15.6,0,0,1-3.2.92L53.94,155a19.87,19.87,0,0,1-3.18.05l-.88-3.24a15.1,15.1,0,0,1-1.63-.31,14.77,14.77,0,0,1-1.6-.49l-2.28,2.46a19,19,0,0,1-2.79-1.54l.86-3.24a15.37,15.37,0,0,1-2.39-2.31l-3.21,1a19.26,19.26,0,0,1-1.64-2.72l2.37-2.38a15.51,15.51,0,0,1-.92-3.19l-3.28-.76a17.77,17.77,0,0,1,0-3.18l3.23-.87a15.73,15.73,0,0,1,.8-3.23l-2.45-2.28A18.42,18.42,0,0,1,36.43,126l3.25.86A14.92,14.92,0,0,1,42,124.44l-1-3.21a19.36,19.36,0,0,1,2.73-1.64L46.11,122A15.53,15.53,0,0,1,49.3,121l.75-3.27a17.78,17.78,0,0,1,3.18-.05l.88,3.23a15.73,15.73,0,0,1,3.23.8Zm-3.4,6.82a8.06,8.06,0,1,0,5.88,9.76h0a8.06,8.06,0,0,0-5.88-9.76Z" style="fill:#a9e1f2"/><path id="Path_19707" data-name="Path 19707" d="M55,124.28a12.47,12.47,0,1,1-15.11,9.1A12.46,12.46,0,0,1,55,124.28Zm-1.07,4.28a8.06,8.06,0,1,0,5.89,9.76A8.06,8.06,0,0,0,53.93,128.56Z" style="fill:#5574d8;opacity:0.310000002384186;isolation:isolate"/><path id="Path_19708" data-name="Path 19708" d="M30,105.13l1.14-1.65a10.64,10.64,0,0,1,1.78.67l-.23,2a9.13,9.13,0,0,1,1.61,1.16l1.81-.86a10.06,10.06,0,0,1,1.21,1.47l-1.2,1.61a9.26,9.26,0,0,1,.83,1.81l2,.16a11.89,11.89,0,0,1,.31,1.88l-1.84.79c0,.34,0,.67,0,1a8,8,0,0,1-.15,1l1.65,1.14a11.18,11.18,0,0,1-.66,1.78l-2-.23a9.21,9.21,0,0,1-1.16,1.62l.86,1.81a10.68,10.68,0,0,1-1.47,1.2l-1.61-1.19a9.22,9.22,0,0,1-1.81.82l-.16,2a10.85,10.85,0,0,1-1.88.31l-.79-1.84a8.36,8.36,0,0,1-1,0,8,8,0,0,1-1-.15L25.09,125a12.74,12.74,0,0,1-1.78-.67l.23-2a9.28,9.28,0,0,1-1.61-1.16l-1.81.86a11.25,11.25,0,0,1-1.21-1.47L20.1,119a9.22,9.22,0,0,1-.82-1.81l-2-.16a11,11,0,0,1-.31-1.88l1.84-.8c0-.33,0-.66,0-1s.09-.66.15-1l-1.64-1.14a11.18,11.18,0,0,1,.66-1.78l2,.23a9.76,9.76,0,0,1,1.16-1.62l-.86-1.81A12.11,12.11,0,0,1,21.78,105l1.61,1.2a9.26,9.26,0,0,1,1.81-.83l.17-2a11.77,11.77,0,0,1,1.87-.31l.8,1.84a9.44,9.44,0,0,1,2,.2Zm-1.49,5a4.14,4.14,0,1,0,3.71,4.53,4.13,4.13,0,0,0-3.71-4.53Z" style="fill:#a9e1f2"/><path id="Path_19709" data-name="Path 19709" d="M28.72,106.7a7.55,7.55,0,1,1-8.25,6.78,7.55,7.55,0,0,1,8.25-6.78Zm-.33,3.4a4.13,4.13,0,1,0,3.72,4.52,4.13,4.13,0,0,0-3.72-4.52Z" style="fill:#5574d8;opacity:0.310000002384186;isolation:isolate"/><path id="Path_19710" data-name="Path 19710" d="M20.51,160.43a4.27,4.27,0,0,0,.1.79h89.7a5.14,5.14,0,0,0-3.17-2.39c-1.7-.48-4.58-1.34-4.32-2.52.94-4.4,3.11-7.57-2.48-12.78-1.76-1.64-7-3.12-12-.49-4,2.11-6.64-5.72-15-10l-.76-.36c-4.8-2.22-10.84-2-14.8,2.07a14.32,14.32,0,0,0-3.58,6.92C51.74,152.1,46,145.19,45.06,144c-2.79-3.41-11.1-1.58-12.4,3.18-2.44,9-5,7.57-7.16,8.11S20.46,157.74,20.51,160.43Z" style="fill:#8d9294;opacity:0.119999997317791;isolation:isolate"/><path id="Path_19711" data-name="Path 19711" d="M21.86,161.87a3.56,3.56,0,0,0,.1.79h86.21a1.21,1.21,0,0,0,.36-2.37h0c-1.7-.49-4.57-1.35-4.32-2.53.94-4.4,3.11-7.57-2.48-12.78-1.75-1.63-7-3.12-12-.48-4,2.1-6.64-5.73-15-10l-.75-.36c-4.81-2.21-10.85-2-14.81,2.07a14.41,14.41,0,0,0-3.58,6.92c-2.43,10.39-8.14,3.48-9.11,2.31-2.79-3.4-11.1-1.58-12.4,3.19-2.44,9-5,7.57-7.16,8.11S21.8,159.18,21.86,161.87Z" style="fill:#f7f9ff"/><path id="Path_19712" data-name="Path 19712" d="M81.14,167.29H233.83a2.59,2.59,0,0,0,2.6-2.6,2.28,2.28,0,0,0,0-.45L219,65.38a2.61,2.61,0,0,0-2.56-2.15H63.71a2.61,2.61,0,0,0-2.6,2.6,2.22,2.22,0,0,0,0,.45l17.43,98.86A2.6,2.6,0,0,0,81.14,167.29Z" style="fill:#6a8d95"/><path id="Path_19713" data-name="Path 19713" d="M84.6,158.37H91l-13.78-84-3.76-4.58Z" style="fill:#6ecedb"/><path id="Path_19714" data-name="Path 19714" d="M114.09,160.29H87L73.43,69.82,97,89.3Z" style="fill:#6ecedb"/><path id="Path_19715" data-name="Path 19715" d="M208.33,69.82H73.43l16.22,92" style="fill:#fff"/><path id="Path_19716" data-name="Path 19716" d="M89.65,161.77H221.54a2.52,2.52,0,0,0,2.52-2.52,2.12,2.12,0,0,0,0-.44l-15.69-89H73.43Z" style="fill:#fff"/><path id="Path_19717" data-name="Path 19717" d="M89.65,161.77H221.79a2.32,2.32,0,0,0,2.31-2.31,1.75,1.75,0,0,0,0-.4L208.33,69.82H73.43Z" style="fill:#6ecedb;opacity:0.159999996423721;isolation:isolate"/><path id="Path_19718" data-name="Path 19718" d="M91.36,161.77H222.1a2,2,0,0,0,2.05-2,2.1,2.1,0,0,0,0-.36L208.63,71.51a2.06,2.06,0,0,0-2-1.69H75.87a2,2,0,0,0-2,2,2.19,2.19,0,0,0,0,.36l15.49,87.86A2,2,0,0,0,91.36,161.77Z" style="fill:#6ecedb;opacity:0.159999996423721;isolation:isolate"/><path id="Path_19719" data-name="Path 19719" d="M197.2,75.84a3.29,3.29,0,0,0,3.11,2.64,2.17,2.17,0,0,0,2.24-2.08,2.6,2.6,0,0,0-.06-.56,3.29,3.29,0,0,0-3.11-2.65,2.16,2.16,0,0,0-2.23,2.08A2.2,2.2,0,0,0,197.2,75.84Z" style="fill:#698ca0"/><path id="Path_19720" data-name="Path 19720" d="M80,75.84a3.29,3.29,0,0,0,3.11,2.64,2.17,2.17,0,0,0,2.24-2.08,2.6,2.6,0,0,0-.06-.56,3.3,3.3,0,0,0-3.11-2.65A2.16,2.16,0,0,0,80,75.27,2.2,2.2,0,0,0,80,75.84Z" style="fill:#698ca0"/><g id="Group_10443" data-name="Group 10443"><path id="Path_19721" data-name="Path 19721" d="M184.21,98.55h21.61a.56.56,0,0,0,.57-.53.76.76,0,0,0,0-.15l-1.8-10.18a.84.84,0,0,0-.8-.68h-21.6a.56.56,0,0,0-.58.54.36.36,0,0,0,0,.14l1.79,10.18A.84.84,0,0,0,184.21,98.55Z" style="fill:#fff"/><path id="Path_19722" data-name="Path 19722" d="M159.27,98.47h21.6a.55.55,0,0,0,.58-.53.39.39,0,0,0,0-.15l-1.79-10.18a.86.86,0,0,0-.8-.68H157.23a.56.56,0,0,0-.57.54.61.61,0,0,0,0,.14l1.8,10.18A.84.84,0,0,0,159.27,98.47Z" style="fill:#fff"/><path id="Path_19723" data-name="Path 19723" d="M134.2,98.55h21.6a.56.56,0,0,0,.58-.53.77.77,0,0,0,0-.15l-1.79-10.18a.85.85,0,0,0-.8-.68H132.16a.56.56,0,0,0-.57.54.66.66,0,0,0,0,.14l1.8,10.18A.83.83,0,0,0,134.2,98.55Z" style="fill:#fff"/><path id="Path_19724" data-name="Path 19724" d="M109.5,98.55h21.61a.56.56,0,0,0,.57-.53.76.76,0,0,0,0-.15l-1.8-10.18a.83.83,0,0,0-.8-.68h-21.6a.56.56,0,0,0-.58.54.78.78,0,0,0,0,.14l1.79,10.18A.84.84,0,0,0,109.5,98.55Z" style="fill:#fff"/><path id="Path_19725" data-name="Path 19725" d="M84.81,98.55h21.6A.55.55,0,0,0,107,98a.38.38,0,0,0,0-.15l-1.79-10.18a.85.85,0,0,0-.81-.68H82.77a.55.55,0,0,0-.57.53.38.38,0,0,0,0,.15L84,97.87A.84.84,0,0,0,84.81,98.55Z" style="fill:#fff"/></g><g id="Group_10444" data-name="Group 10444"><path id="Path_19726" data-name="Path 19726" d="M186.61,112.17h21.61a.56.56,0,0,0,.57-.53.76.76,0,0,0,0-.15L207,101.31a.85.85,0,0,0-.8-.68h-21.6a.56.56,0,0,0-.58.54.59.59,0,0,0,0,.14l1.79,10.18A.84.84,0,0,0,186.61,112.17Z" style="fill:#fff"/><path id="Path_19727" data-name="Path 19727" d="M161.67,112.1h21.6a.56.56,0,0,0,.58-.54.76.76,0,0,0,0-.15L182,101.24a.86.86,0,0,0-.8-.69h-21.6a.56.56,0,0,0-.58.54.76.76,0,0,0,0,.15l1.8,10.17A.86.86,0,0,0,161.67,112.1Z" style="fill:#fff"/><path id="Path_19728" data-name="Path 19728" d="M136.6,112.17h21.61a.56.56,0,0,0,.57-.53.76.76,0,0,0,0-.15L157,101.31a.85.85,0,0,0-.8-.68h-21.6a.56.56,0,0,0-.58.54.59.59,0,0,0,0,.14l1.79,10.18A.84.84,0,0,0,136.6,112.17Z" style="fill:#fff"/><path id="Path_19729" data-name="Path 19729" d="M111.9,112.17h21.61a.55.55,0,0,0,.57-.53.38.38,0,0,0,0-.15l-1.79-10.18a.86.86,0,0,0-.81-.68h-21.6a.56.56,0,0,0-.58.54.59.59,0,0,0,0,.14l1.79,10.18A.84.84,0,0,0,111.9,112.17Z" style="fill:#fff"/><path id="Path_19730" data-name="Path 19730" d="M87.21,112.17h21.6a.56.56,0,0,0,.58-.53.77.77,0,0,0,0-.15l-1.79-10.18a.86.86,0,0,0-.8-.68H85.17a.56.56,0,0,0-.57.54.66.66,0,0,0,0,.14l1.8,10.18A.83.83,0,0,0,87.21,112.17Z" style="fill:#fff"/></g><g id="Group_10445" data-name="Group 10445"><path id="Path_19731" data-name="Path 19731" d="M189,125.7h21.6a.56.56,0,0,0,.58-.54.59.59,0,0,0,0-.14l-1.79-10.18a.84.84,0,0,0-.8-.68H187a.56.56,0,0,0-.57.53.76.76,0,0,0,0,.15L188.2,125A.85.85,0,0,0,189,125.7Z" style="fill:#fff"/><path id="Path_19732" data-name="Path 19732" d="M164.06,125.62h21.6a.55.55,0,0,0,.57-.53.38.38,0,0,0,0-.15l-1.79-10.18a.85.85,0,0,0-.81-.68H162a.55.55,0,0,0-.57.54.33.33,0,0,0,0,.14l1.79,10.18A.84.84,0,0,0,164.06,125.62Z" style="fill:#fff"/><path id="Path_19733" data-name="Path 19733" d="M139,125.7h21.6a.56.56,0,0,0,.58-.54.59.59,0,0,0,0-.14l-1.79-10.18a.84.84,0,0,0-.8-.68H137a.56.56,0,0,0-.57.53.76.76,0,0,0,0,.15l1.8,10.18A.84.84,0,0,0,139,125.7Z" style="fill:#fff"/><path id="Path_19734" data-name="Path 19734" d="M114.29,125.7h21.6a.56.56,0,0,0,.58-.54.61.61,0,0,0,0-.14l-1.8-10.18a.84.84,0,0,0-.8-.68h-21.6a.56.56,0,0,0-.58.53.76.76,0,0,0,0,.15l1.8,10.18A.86.86,0,0,0,114.29,125.7Z" style="fill:#fff"/><path id="Path_19735" data-name="Path 19735" d="M89.59,125.7H111.2a.56.56,0,0,0,.57-.54.61.61,0,0,0,0-.14L110,114.84a.83.83,0,0,0-.8-.68H87.56a.56.56,0,0,0-.58.53.77.77,0,0,0,0,.15L88.79,125A.86.86,0,0,0,89.59,125.7Z" style="fill:#fff"/></g><g id="Group_10446" data-name="Group 10446"><path id="Path_19736" data-name="Path 19736" d="M191.4,139.32H213a.56.56,0,0,0,.58-.54.78.78,0,0,0,0-.14l-1.79-10.18a.84.84,0,0,0-.8-.68H189.36a.56.56,0,0,0-.57.53.76.76,0,0,0,0,.15l1.8,10.18A.84.84,0,0,0,191.4,139.32Z" style="fill:#fff"/><path id="Path_19737" data-name="Path 19737" d="M166.46,139.24h21.6a.56.56,0,0,0,.58-.53.77.77,0,0,0,0-.15l-1.79-10.18a.86.86,0,0,0-.8-.68H164.42a.56.56,0,0,0-.57.54.61.61,0,0,0,0,.14l1.8,10.18A.83.83,0,0,0,166.46,139.24Z" style="fill:#fff"/><path id="Path_19738" data-name="Path 19738" d="M141.39,139.32H163a.56.56,0,0,0,.58-.54.34.34,0,0,0,0-.14l-1.79-10.18a.84.84,0,0,0-.8-.68H139.35a.56.56,0,0,0-.57.53.76.76,0,0,0,0,.15l1.8,10.18A.84.84,0,0,0,141.39,139.32Z" style="fill:#fff"/><path id="Path_19739" data-name="Path 19739" d="M116.69,139.32H138.3a.56.56,0,0,0,.57-.54.66.66,0,0,0,0-.14l-1.8-10.18a.84.84,0,0,0-.8-.68h-21.6a.56.56,0,0,0-.58.53.76.76,0,0,0,0,.15l1.8,10.18A.85.85,0,0,0,116.69,139.32Z" style="fill:#fff"/><path id="Path_19740" data-name="Path 19740" d="M92,139.32H113.6a.56.56,0,0,0,.57-.53.37.37,0,0,0,0-.15l-1.8-10.18a.82.82,0,0,0-.8-.68H90a.55.55,0,0,0-.58.53.77.77,0,0,0,0,.15l1.79,10.18A.86.86,0,0,0,92,139.32Z" style="fill:#fff"/></g><g id="Group_10447" data-name="Group 10447"><path id="Path_19741" data-name="Path 19741" d="M193.77,152.78h21.6a.56.56,0,0,0,.58-.54.71.71,0,0,0,0-.14l-1.8-10.18a.84.84,0,0,0-.8-.68h-21.6a.56.56,0,0,0-.58.53.76.76,0,0,0,0,.15L193,152.1A.85.85,0,0,0,193.77,152.78Z" style="fill:#fff"/><path id="Path_19742" data-name="Path 19742" d="M168.83,152.7h21.61a.56.56,0,0,0,.57-.53.76.76,0,0,0,0-.15l-1.8-10.18a.85.85,0,0,0-.8-.68H166.8a.56.56,0,0,0-.58.54.59.59,0,0,0,0,.14L168,152A.84.84,0,0,0,168.83,152.7Z" style="fill:#fff"/><path id="Path_19743" data-name="Path 19743" d="M143.76,152.78h21.61a.56.56,0,0,0,.57-.54.71.71,0,0,0,0-.14l-1.8-10.18a.82.82,0,0,0-.8-.68h-21.6a.56.56,0,0,0-.58.53.77.77,0,0,0,0,.15L143,152.1A.85.85,0,0,0,143.76,152.78Z" style="fill:#fff"/><path id="Path_19744" data-name="Path 19744" d="M119.07,152.78h21.6a.55.55,0,0,0,.57-.54.34.34,0,0,0,0-.14l-1.79-10.18a.84.84,0,0,0-.81-.68H117a.55.55,0,0,0-.57.53.38.38,0,0,0,0,.15l1.79,10.18A.85.85,0,0,0,119.07,152.78Z" style="fill:#fff"/><path id="Path_19745" data-name="Path 19745" d="M94.37,152.78H116a.56.56,0,0,0,.58-.54.68.68,0,0,0,0-.14l-1.79-10.18a.84.84,0,0,0-.8-.68H92.33a.56.56,0,0,0-.57.54.71.71,0,0,0,0,.14l1.8,10.18A.83.83,0,0,0,94.37,152.78Z" style="fill:#fff"/></g><g id="Group_10448" data-name="Group 10448"><path id="Path_19746" data-name="Path 19746" d="M187.21,90.74h14.55a.59.59,0,0,0,.6-.57.76.76,0,0,0,0-.15h0a.89.89,0,0,0-.85-.72H187a.59.59,0,0,0-.61.57.76.76,0,0,0,0,.15h0A.91.91,0,0,0,187.21,90.74Z" style="fill:#091d7b"/><path id="Path_19747" data-name="Path 19747" d="M187.7,93.5h14.54a.59.59,0,0,0,.61-.57.77.77,0,0,0,0-.15h0a.89.89,0,0,0-.85-.72H187.44a.58.58,0,0,0-.6.57.38.38,0,0,0,0,.15h0A.89.89,0,0,0,187.7,93.5Z" style="fill:#091d7b"/><path id="Path_19748" data-name="Path 19748" d="M196.19,96.31h6.55a.59.59,0,0,0,.6-.57.76.76,0,0,0,0-.15h0a.89.89,0,0,0-.85-.72h-6.55a.59.59,0,0,0-.61.56.78.78,0,0,0,0,.16h0A.91.91,0,0,0,196.19,96.31Z" style="fill:#c95d4b"/></g><g id="Group_10449" data-name="Group 10449"><path id="Path_19749" data-name="Path 19749" d="M145.91,145h14.54a.59.59,0,0,0,.61-.57.76.76,0,0,0,0-.15h0a.9.9,0,0,0-.85-.72H145.65a.58.58,0,0,0-.6.57.76.76,0,0,0,0,.15h0A.91.91,0,0,0,145.91,145Z" style="fill:#091d7b"/><path id="Path_19750" data-name="Path 19750" d="M146.4,147.71h14.54a.57.57,0,0,0,.59-.72h0a.89.89,0,0,0-.85-.72H146.14a.58.58,0,0,0-.6.57.38.38,0,0,0,0,.15h0A.9.9,0,0,0,146.4,147.71Z" style="fill:#091d7b"/><path id="Path_19751" data-name="Path 19751" d="M154.89,150.51h6.55a.58.58,0,0,0,.6-.57.38.38,0,0,0,0-.15h0a.91.91,0,0,0-.85-.72h-6.55a.6.6,0,0,0-.61.57.77.77,0,0,0,0,.15h0A.89.89,0,0,0,154.89,150.51Z" style="fill:#c95d4b"/></g><g id="Group_10450" data-name="Group 10450"><path id="Path_19752" data-name="Path 19752" d="M94.18,131.68h14.54a.6.6,0,0,0,.61-.57.88.88,0,0,0,0-.16h0a.91.91,0,0,0-.85-.72H93.92a.6.6,0,0,0-.61.57.68.68,0,0,0,0,.15h0A.91.91,0,0,0,94.18,131.68Z" style="fill:#091d7b"/><path id="Path_19753" data-name="Path 19753" d="M94.66,134.44h14.55a.59.59,0,0,0,.6-.57.38.38,0,0,0,0-.15h0A.89.89,0,0,0,109,133H94.41a.59.59,0,0,0-.61.57.39.39,0,0,0,0,.15h0A.89.89,0,0,0,94.66,134.44Z" style="fill:#091d7b"/><path id="Path_19754" data-name="Path 19754" d="M103.15,137.24h6.55a.58.58,0,0,0,.61-.56.41.41,0,0,0,0-.16h0a.91.91,0,0,0-.84-.72H102.9a.59.59,0,0,0-.61.57.39.39,0,0,0,0,.15h0A.88.88,0,0,0,103.15,137.24Z" style="fill:#c95d4b"/></g><path id="Path_19755" data-name="Path 19755" d="M126.94,136.59l-2.4,1.39a.19.19,0,0,1-.24-.1.19.19,0,0,1,0-.07v-2.94a.21.21,0,0,0-.07-.14l-2.5-2.08c-.11-.09-.09-.25,0-.27l2.87-.43a.14.14,0,0,0,.11-.09l.85-2.67c0-.12.2-.12.28,0l1.79,2.67a.19.19,0,0,0,.14.09l3,.43c.14,0,.22.18.14.27l-1.77,2.08a.14.14,0,0,0,0,.14l1,2.94a.14.14,0,0,1-.07.18.15.15,0,0,1-.13,0l-2.88-1.39A.19.19,0,0,0,126.94,136.59Z" style="fill:#ffb600"/><path id="Path_19756" data-name="Path 19756" d="M200.09,123l-2.39,1.38a.19.19,0,0,1-.25-.1s0,0,0-.06v-2.94a.21.21,0,0,0-.07-.14l-2.51-2.08c-.11-.1-.08-.26,0-.27l2.88-.43a.12.12,0,0,0,.1-.09l.85-2.67c0-.12.21-.12.29,0l1.79,2.67a.2.2,0,0,0,.13.09l3,.43a.18.18,0,0,1,.13.27l-1.76,2.08a.14.14,0,0,0,0,.14l1,2.94a.14.14,0,0,1-.08.18.13.13,0,0,1-.12,0L200.24,123A.14.14,0,0,0,200.09,123Z" style="fill:#ffb600"/><g id="Group_10451" data-name="Group 10451"><path id="Path_19757" data-name="Path 19757" d="M145.76,106.32l-3.13-2.63a.42.42,0,0,1-.11-.6.43.43,0,0,1,.61,0l3.14,2.64,2.21-2.64a.44.44,0,0,1,.61,0h0a.43.43,0,0,1,.1.6L147,106.32l3.14,2.63a.45.45,0,0,1,.11.61.33.33,0,0,1-.29.13.47.47,0,0,1-.32-.12l-3.14-2.64-2.21,2.64a.33.33,0,0,1-.28.12.51.51,0,0,1-.33-.13.44.44,0,0,1-.1-.61Z" style="fill:#c95d4b"/><path id="Path_19758" data-name="Path 19758" d="M144,110a.65.65,0,0,0,.53-.24l2-2.38,2.89,2.42a.73.73,0,0,0,1,0,.74.74,0,0,0,0-1l-.12-.09-2.88-2.42,2-2.37a.8.8,0,0,0-.21-1.12.81.81,0,0,0-1,.08l-2,2.38-2.89-2.42a.73.73,0,0,0-1,0,.74.74,0,0,0,0,1l.11.09,2.88,2.42-2,2.37a.79.79,0,0,0,.14,1.08A.85.85,0,0,0,144,110Zm2.45-3.56L144,109.35h0a.21.21,0,0,1-.18-.19l2.42-2.89-3.39-2.84a.15.15,0,0,1-.06-.15.18.18,0,0,1,.13,0l3.4,2.86,2.42-2.9a.15.15,0,0,1,.14,0c.07.06.08.13.07.14l-2.42,2.89,3.39,2.84a.13.13,0,0,1,.06.14.12.12,0,0,1-.13,0Z" style="fill:#c95d4b"/></g><g id="Group_10452" data-name="Group 10452"><ellipse id="Ellipse_368" data-name="Ellipse 368" cx="173.84" cy="119.85" rx="4.81" ry="4.04" transform="translate(-35.31 148.86) rotate(-42.48)" style="fill:#c95d4b"/><path id="Path_19759" data-name="Path 19759" d="M172.94,122.27a.42.42,0,0,1-.33-.16l-1.75-2.32a.5.5,0,0,1,.14-.68.47.47,0,0,1,.67,0h0l1.43,1.89,2.87-3.21a.51.51,0,0,1,.69-.11.47.47,0,0,1,0,.66h0l-3.3,3.69a.64.64,0,0,1-.39.2Z" style="fill:#fff"/></g><g id="Group_10453" data-name="Group 10453"><ellipse id="Ellipse_369" data-name="Ellipse 369" cx="203.54" cy="146.93" rx="4.04" ry="4.81" transform="translate(-42.25 197.96) rotate(-47.55)" style="fill:#698ca0"/><path id="Path_19760" data-name="Path 19760" d="M202.64,149.35a.42.42,0,0,1-.32-.15l-1.76-2.33a.51.51,0,0,1,.15-.68.47.47,0,0,1,.67,0h0l1.43,1.89,2.87-3.21a.52.52,0,0,1,.69-.11.47.47,0,0,1,0,.66h0l-3.29,3.69a.6.6,0,0,1-.4.2Z" style="fill:#fff"/></g><path id="Path_19761" data-name="Path 19761" d="M169.75,96.63a3.21,3.21,0,0,0,3.31-3.1,3.34,3.34,0,0,0-.08-.83,4.9,4.9,0,0,0-4.62-3.92,3.2,3.2,0,0,0-3.31,3.09,3.29,3.29,0,0,0,.08.83A4.89,4.89,0,0,0,169.75,96.63ZM168.57,90a3.39,3.39,0,0,1,3.2,2.72,2.23,2.23,0,0,1-1.66,2.67,2.78,2.78,0,0,1-.58.06,3.4,3.4,0,0,1-3.2-2.73A2.21,2.21,0,0,1,168,90,1.81,1.81,0,0,1,168.57,90Z" style="fill:#28b5c8"/><path id="Path_19762" data-name="Path 19762" d="M124.77,123.87a3.21,3.21,0,0,0,3.31-3.1,3.34,3.34,0,0,0-.08-.83,4.88,4.88,0,0,0-4.61-3.92,3.21,3.21,0,0,0-3.32,3.09,3.29,3.29,0,0,0,.08.83A4.9,4.9,0,0,0,124.77,123.87Zm-1.17-6.65a3.39,3.39,0,0,1,3.2,2.72,2.22,2.22,0,0,1-1.67,2.67,2.76,2.76,0,0,1-.57.06,3.41,3.41,0,0,1-3.21-2.73,2.23,2.23,0,0,1,1.67-2.66,1.88,1.88,0,0,1,.58-.06Z" style="fill:#28b5c8"/><path id="Path_19763" data-name="Path 19763" d="M121,95.59h20.75a1.72,1.72,0,0,0,1.72-2.09h0A2.59,2.59,0,0,0,141,91.42H120.23a1.69,1.69,0,0,0-1.76,1.64,1.6,1.6,0,0,0,0,.44h0A2.61,2.61,0,0,0,121,95.59Z" style="fill:#c95d4b"/><path id="Path_19764" data-name="Path 19764" d="M199.88,76.78h0a.81.81,0,0,0,.83-.78.75.75,0,0,0,0-.21L197,54.93a1.23,1.23,0,0,0-1.16-1h0a.81.81,0,0,0-.83.78.75.75,0,0,0,0,.21l3.68,20.86A1.23,1.23,0,0,0,199.88,76.78Z" style="fill:#091d7b"/><path id="Path_19765" data-name="Path 19765" d="M82.71,76.78h0a.82.82,0,0,0,.83-.78,1.49,1.49,0,0,0,0-.21L79.87,54.93a1.23,1.23,0,0,0-1.16-1h0a.81.81,0,0,0-.83.78.75.75,0,0,0,0,.21l3.68,20.86A1.23,1.23,0,0,0,82.71,76.78Z" style="fill:#091d7b"/><g id="Group_10454" data-name="Group 10454"><path id="Path_19766" data-name="Path 19766" d="M142,52.69c.38,2.41,8.69,7.43,10.44,8.46l.33.19.44-.27.78-.48,1.6-1-8.16-7a.49.49,0,0,1-.07-.64l3.76-6.13a.47.47,0,0,1,.65-.2.45.45,0,0,1,.25.32l1.59,7.44.79.32,6.18,2.51,7-2.83,1.59-7.44a.48.48,0,0,1,.9-.12l3.76,6.13a.5.5,0,0,1-.06.64l-8.17,7,2.82,1.73s10.36-6,10.77-8.65-6.73-14.56-10.89-16.3A27.67,27.67,0,0,0,164.16,35a14.61,14.61,0,0,0-2.53-.46l-.29.86-.74,2.15L160,35.66l-.39-1.14a22,22,0,0,0-6.68,1.87c-1.36.57-3,2.23-4.68,4.31A46.61,46.61,0,0,0,144,47.2C142.67,49.61,141.87,51.72,142,52.69Z" style="fill:#c6d0ad"/><path id="Path_19767" data-name="Path 19767" d="M161.63,34.52l-.29.85a26.58,26.58,0,0,1,2.82-.4h0A15.6,15.6,0,0,0,161.63,34.52Z" style="fill:#d0ebf5"/><path id="Path_19768" data-name="Path 19768" d="M148.22,40.69a35.73,35.73,0,0,1,11.75-5l-.39-1.14a22.07,22.07,0,0,0-6.68,1.86C151.54,37,149.86,38.62,148.22,40.69Z" style="opacity:0.150000005960464;isolation:isolate;fill:url(#linear-gradient-2)"/><path id="Path_19769" data-name="Path 19769" d="M142,52.69c.38,2.41,8.69,7.43,10.44,8.46l.77-.08,1.2-.12-.42-.36-2-1.74s-8.79-5.14-8-11.65C142.67,49.61,141.87,51.72,142,52.69Z" style="opacity:0.150000005960464;isolation:isolate;fill:url(#linear-gradient-3)"/><path id="Path_19770" data-name="Path 19770" d="M154.43,53.67l6.17,2.51,7-2.83,1.59-7.44A19.26,19.26,0,0,1,156,53.41,11.68,11.68,0,0,0,154.43,53.67Z" style="opacity:0.150000005960464;isolation:isolate;fill:url(#linear-gradient-4)"/><path id="Path_19771" data-name="Path 19771" d="M158.14,30.25v5a2.47,2.47,0,0,0,2.46,2.47h0a2.47,2.47,0,0,0,2.46-2.47h0v-5Z" style="fill:#fdd1b1"/><path id="Path_19772" data-name="Path 19772" d="M163.07,30.6l-.14-.35h-4.79v4.94a8.4,8.4,0,0,0,4.93-2.46Z" style="opacity:0.209999993443489;isolation:isolate;fill:url(#linear-gradient-5)"/><path id="Path_19773" data-name="Path 19773" d="M155.82,23.4a7.13,7.13,0,0,0,1.36,4,3.72,3.72,0,0,0,3.43,1.83c1.64,0,2.32,0,3.28-1.27a9.34,9.34,0,0,0,1.55-4.53c0-3.2-1.93-5.79-4.83-5.79S155.82,20.2,155.82,23.4Z" style="fill:#3f2a01"/><path id="Path_19774" data-name="Path 19774" d="M156.66,23.93v5a4,4,0,0,0,7.9,0v-5Z" style="fill:#fdd1b1"/><path id="Path_19775" data-name="Path 19775" d="M151.22,51.58V61.74a1,1,0,0,0,1,1H169a1,1,0,0,0,1-1h0V51.58a1,1,0,0,0-1-1H152.18a1,1,0,0,0-1,1Z" style="fill:#698ca0"/><path id="Path_19776" data-name="Path 19776" d="M151.22,57.09v4.65a1,1,0,0,0,1,1h10.47l5.08-12.09h-13.3Z" style="opacity:0.300000011920929;isolation:isolate;fill:url(#linear-gradient-6)"/><rect id="Rectangle_4990" data-name="Rectangle 4990" x="151.64" y="62.65" width="17.68" height="0.65" style="fill:#8ed2e8"/><path id="Path_19777" data-name="Path 19777" d="M158.41,56.66a2.2,2.2,0,1,0,2.2-2.2,2.19,2.19,0,0,0-2.2,2.2Z" style="fill:#dcf4fe"/><path id="Path_19778" data-name="Path 19778" d="M149.84,72.73c0,1.67.6,8.11,2,8.35.6.1,1.11-4.68,1.81-7.16a2.69,2.69,0,0,1,.16-.45,4.35,4.35,0,0,1,3.44-2.18h.18l-.16-.06-3.94-1.53a11.87,11.87,0,0,0-1.93,1C150.58,71.25,149.84,72,149.84,72.73Z" style="fill:#2e2e2e"/><path id="Path_19779" data-name="Path 19779" d="M152.11,74.53c.2-1.37,1-1.6,1.68-1.06a4.33,4.33,0,0,1,3.44-2.18l0-.08-3.94-1.52a11.56,11.56,0,0,0-1.94,1C151.07,73.15,151.88,76.15,152.11,74.53Z" style="fill:#fdd1b1"/><path id="Path_19780" data-name="Path 19780" d="M153.1,69.31,155.19,73l19.1-9.65h0L176.93,62a2.73,2.73,0,0,0,.54-.27,3.46,3.46,0,0,0-3.64-5.89,4.37,4.37,0,0,0-.48.37l-16.52,10.7Z" style="fill:#24415e"/><path id="Path_19781" data-name="Path 19781" d="M163.37,71.28a5.76,5.76,0,0,1,1.1.2,3.69,3.69,0,0,1,2.69,2.44h0c.7,2.48,1.22,7.26,1.81,7.16,1.38-.24,2-6.68,2-8.35,0-.91-1-1.73-2-2.29a10.5,10.5,0,0,0-1.5-.75L164.16,71Z" style="fill:#2e2e2e"/><path id="Path_19782" data-name="Path 19782" d="M164.16,71l.31.51a3.69,3.69,0,0,1,2.69,2.44,1.5,1.5,0,0,1,1.54.5c1.18,1.22.21-1.84.28-4a11.79,11.79,0,0,0-1.51-.75Z" style="fill:#fdd1b1"/><path id="Path_19783" data-name="Path 19783" d="M143.5,61.71a3.46,3.46,0,0,1,3.6-5.91,5.17,5.17,0,0,1,.53.39l20.24,13.12L165.78,73,144,62A4.53,4.53,0,0,1,143.5,61.71Z" style="fill:#24415e"/><line id="Line_1" data-name="Line 1" x1="151.08" y1="62.24" x2="151.08" y2="62.6" style="fill:none"/><path id="Path_19784" data-name="Path 19784" d="M151.08,60.52V47.12" style="fill:none"/><path id="Path_19785" data-name="Path 19785" d="M156.66,23.93v.92a1.43,1.43,0,0,1,1.48,0,4.45,4.45,0,0,0,4.29-.08c1-.54,1.58-.66,2.13-.2v-.66Z" style="fill:#e8af95"/><path id="Path_19786" data-name="Path 19786" d="M164.56,25s.17-1.27-1-1.06-3.15,1.45-4.87.73-2,0-2,0-1.11.18-.66-.88A2.68,2.68,0,0,1,158.8,22c1.33.21,4.18,1,4.84,1a5,5,0,0,1,1.66.46Z" style="fill:#2d1e03"/><rect id="Rectangle_4991" data-name="Rectangle 4991" x="164.56" y="24.99" width="1.31" height="3.84" rx="0.45" style="fill:#333147"/><rect id="Rectangle_4992" data-name="Rectangle 4992" x="155.34" y="24.99" width="1.31" height="3.84" rx="0.45" style="fill:#333147"/><path id="Path_19787" data-name="Path 19787" d="M157.92,30.59h2v-.12h-2a1.87,1.87,0,0,1-1.86-1.87v-.27h-.12v.27A2,2,0,0,0,157.92,30.59Z" style="fill:#333147"/><rect id="Rectangle_4993" data-name="Rectangle 4993" x="159.5" y="30.19" width="0.84" height="0.68" rx="0.24" style="fill:#333147"/></g><path id="Path_19788" data-name="Path 19788" d="M176.45,168.19a4.17,4.17,0,0,0,.1.79h89.7a5.11,5.11,0,0,0-3.17-2.38c-1.7-.49-4.58-1.35-4.33-2.53.95-4.4,3.11-7.57-2.47-12.78-1.76-1.63-7-3.12-12-.48-4,2.1-6.64-5.73-15-10l-.76-.36c-4.8-2.21-10.84-2-14.8,2.07a14.32,14.32,0,0,0-3.58,6.92c-2.43,10.39-8.15,3.48-9.11,2.31-2.8-3.4-11.1-1.58-12.4,3.19-2.44,9-5,7.57-7.16,8.11S176.4,165.5,176.45,168.19Z" style="fill:#8d9294;opacity:0.119999997317791;isolation:isolate"/><ellipse id="Ellipse_370" data-name="Ellipse 370" cx="222.13" cy="168.86" rx="43.54" ry="3.41" style="fill:#9faad4;opacity:0.219999998807907;isolation:isolate"/><ellipse id="Ellipse_371" data-name="Ellipse 371" cx="156.02" cy="166.66" rx="77.45" ry="3.41" style="fill:#9faad4;opacity:0.219999998807907;isolation:isolate"/><path id="Path_19789" data-name="Path 19789" d="M178.59,168.87a3,3,0,0,0,.1.79H264.9a1.21,1.21,0,0,0,.36-2.36l-.05,0c-1.7-.48-4.57-1.34-4.32-2.52.94-4.41,3.11-7.57-2.48-12.78-1.75-1.64-7-3.12-12-.49-4,2.11-6.64-5.72-15-10l-.75-.36c-4.81-2.22-10.85-2-14.81,2.07a14.36,14.36,0,0,0-3.58,6.92c-2.43,10.39-8.14,3.48-9.11,2.3-2.79-3.4-11.1-1.57-12.4,3.19-2.43,9-5,7.57-7.16,8.11S178.53,166.19,178.59,168.87Z" style="fill:#f7f9ff"/><g id="Group_10465" data-name="Group 10465"><g id="Group_10455" data-name="Group 10455"><path id="Path_19790" data-name="Path 19790" d="M238.25,181.21c-.45.17-6.26.07-8.68,0a.54.54,0,0,1-.54-.56.52.52,0,0,1,.17-.39,5.54,5.54,0,0,1,3.49-1.41,2,2,0,0,0,1.56-.76,9.73,9.73,0,0,0,1.19-4.1c0-.25.53-.61.5-.89-.2-2.48,3.52.37,3.52.37a3.22,3.22,0,0,0-.27,1.14c0,.73-1,2.58-.84,3.42,0,.13.07.25.1.36C238.91,179.83,238.82,181,238.25,181.21Z" style="fill:#76503f"/><path id="Path_19791" data-name="Path 19791" d="M238.25,181.21c-.49.19-7.27,0-9.21,0-.25,0-.35-.27-.24-.49a4.52,4.52,0,0,1,3.82-2.23,2.65,2.65,0,0,0,1.83-.81c.82.05,1.47.41,1.45,1.15,0,.44,1.38.57,2.46-.79,0,.12.06.24.1.36C238.91,179.83,238.82,181,238.25,181.21Z" style="fill:#202952"/></g><g id="Group_10456" data-name="Group 10456"><path id="Path_19792" data-name="Path 19792" d="M260.86,179.36a1.1,1.1,0,0,1-.7,1.95H255.9c-.76,0-1.8-.61-1.61-2.55,0-.12,0-.24,0-.37.07-.95.07-2.06,0-3,0-1.09-.09-1.92-.09-1.92l3.25-2,.64-.39s0,.13-.05.37a25.29,25.29,0,0,0-.2,3.89,5.09,5.09,0,0,0,.58,2.48,1,1,0,0,0,.44.36A7.94,7.94,0,0,1,260.86,179.36Z" style="fill:#76503f"/><path id="Path_19793" data-name="Path 19793" d="M262,180.72a.42.42,0,0,1-.22.55.33.33,0,0,1-.17,0H255.9c-.76,0-1.8-.61-1.61-2.55,0-.12,0-.24,0-.37.57.37.91.59,1.4.11a2.9,2.9,0,0,1,2.4-1c.35.05.43.45.57.57a.75.75,0,0,0,.24.15A5.21,5.21,0,0,1,262,180.72Z" style="fill:#202952"/></g><path id="Path_19794" data-name="Path 19794" d="M259.78,161.47v0q-.48,6.77-1.22,14.72h-4.45L250.94,136l-11.48,40.24h-5.28s6.27-39.29,9.84-51.47,16.73-.78,16.73-.78,0,.36.06,1.08A353.33,353.33,0,0,1,259.78,161.47Z" style="fill:#822b0e"/><path id="Path_19795" data-name="Path 19795" d="M259.78,161.47c1-24.27-3-35.07-3-35.07l4-1.34C260.94,128.62,261.23,140.89,259.78,161.47Z" style="opacity:0.150000005960464;isolation:isolate;fill:url(#linear-gradient-7)"/><path id="Path_19796" data-name="Path 19796" d="M229.76,109.07l0,.34.18,1.66a6,6,0,0,0-.7-.16,5.83,5.83,0,0,0-1.56-.1l-.17,0a8.14,8.14,0,0,1-4.48-.41c-.72-.35-.42-.62-.42-.62-1.62-.36-1.46-1-1.11-1s1.12.06,1.22.07c-.69-.11-1.34-.42-1.33-.68s.34-.29,1-.16a19,19,0,0,0,3.61.17c.84-.09.48-.32.1-.83s-1-1.25-.64-1.47,1.59,1.25,2.06,1.58l1,.67Z" style="fill:#76503f"/><path id="Path_19797" data-name="Path 19797" d="M244.27,103.79c.72,2,1.31,4.07,1.31,4.07s-2.3,6-4,7.4a2,2,0,0,1-.26.18c-1.3.7-12.38-3.5-12.38-3.5l.81-3.52,8.69,1.93a.35.35,0,0,0,.43-.27h0c.39-1.73,2.46-9.82,3.4-10.79C242.79,98.72,243.46,101.53,244.27,103.79Z" style="fill:#698ca0"/><path id="Path_19798" data-name="Path 19798" d="M244.27,103.79c.72,2,1.31,4.07,1.31,4.07s-2.3,6-4.05,7.4c2.18-4.12,2.51-11.53,2.51-11.53Z" style="opacity:0.150000005960464;isolation:isolate;fill:url(#linear-gradient-8)"/><path id="Path_19799" data-name="Path 19799" d="M264.85,106.58a28.39,28.39,0,0,1-1.14,3.6,48.29,48.29,0,0,0-2.92,14.6,24.63,24.63,0,0,1-3.8.78,39.82,39.82,0,0,1-13-.79c0-9.7-3.22-25-1.24-26.28s5.89-3.61,9.3-3.91l3.66-.11c7.83,1.68,9.31,4.3,9.31,4.3S266,101.65,264.85,106.58Z" style="fill:#1d2039"/><path id="Path_19800" data-name="Path 19800" d="M259.66,84.38c-.45,3.5-4.9,6.13-4.9,6.13a25.92,25.92,0,0,0-1.62-4.86c-.84-1.8-2-3.49-3.51-3.81-3.44-.74-2.58-3.84-1.33-4.39a12.37,12.37,0,0,1,7.89.2,3.67,3.67,0,0,1,2.07,3.44S260.12,80.88,259.66,84.38Z" style="fill:#002b3b"/><path id="Path_19801" data-name="Path 19801" d="M255.74,94.47s-2,1.71-3.67,1.67a2.58,2.58,0,0,1-2.27-1l.1-2.24.09-2.07,5.3-3.1h0v1.18c0,.74,0,1.62,0,2C255.41,91.8,255.74,94.47,255.74,94.47Z" style="fill:#895d4a"/><path id="Path_19802" data-name="Path 19802" d="M251,97.07s.65,1,1.09,1,1.36-1,1.36-1l-1.36-.93Z" style="fill:#e34862"/><path id="Path_19804" data-name="Path 19804" d="M252.06,96.14l1.33,1.74,3.67-3.11-1.32-1.23Z" style="fill:#fff"/><path id="Path_19805" data-name="Path 19805" d="M249.8,94.14l2.27,2-1.13,1.74-2-2.56Z" style="fill:#fff"/><path id="Path_19806" data-name="Path 19806" d="M264.84,106.58a26.82,26.82,0,0,1-1.13,3.6,48,48,0,0,0-2.92,14.6,24.88,24.88,0,0,1-3.8.78,2,2,0,0,1-.19-.57c-.56-3.27,5-20,5-20S263.5,105.86,264.84,106.58Z" style="opacity:0.150000005960464;isolation:isolate;fill:url(#linear-gradient-9)"/><path id="Path_19807" data-name="Path 19807" d="M255.36,88.64c0,.08,0,.15-.05.22-.79,3-3.63,3.89-5.41,4l.09-2.07,5.3-3.1,0,0A1.42,1.42,0,0,1,255.36,88.64Z" style="opacity:0.150000005960464;isolation:isolate;fill:url(#linear-gradient-10)"/><path id="Path_19808" data-name="Path 19808" d="M256.91,87c-.11.88-1.6,1.75-1.6,1.75-1.15,1.72-3.78,4.1-5.91,2.35-1.78-1.46-.94-7-.61-8.86.07-.38.12-.6.12-.6a11.16,11.16,0,0,0,3.19.53c1.62,0,2.84.44,2.76,2.24v.14c-.14,1.91-.19,2.1.07,2.13s.55-.41.65-.53C256,85.59,257,86.09,256.91,87Z" style="fill:#76503f"/><path id="Path_19809" data-name="Path 19809" d="M254.86,84.38A2.12,2.12,0,0,0,253,82.55a25.15,25.15,0,0,1-4.2-.34c.07-.38.12-.6.12-.6a11.16,11.16,0,0,0,3.19.53C253.72,82.14,254.94,82.58,254.86,84.38Z" style="opacity:0.150000005960464;isolation:isolate;fill:url(#linear-gradient-11)"/><g id="Group_10464" data-name="Group 10464"><g id="Group_10457" data-name="Group 10457"><rect id="Rectangle_4994" data-name="Rectangle 4994" x="237.82" y="82.5" width="6.22" height="61.84" transform="translate(48.21 297.19) rotate(-68.85)" style="fill:#fad382"/></g><g id="Group_10458" data-name="Group 10458"><rect id="Rectangle_4995" data-name="Rectangle 4995" x="238.31" y="83.23" width="4.67" height="61.84" transform="translate(47.35 297.39) rotate(-68.85)" style="fill:#ffb600"/></g><g id="Group_10459" data-name="Group 10459"><rect id="Rectangle_4996" data-name="Rectangle 4996" x="239.31" y="84.68" width="1.56" height="61.84" transform="translate(45.64 297.8) rotate(-68.85)" style="fill:#fad382"/></g><g id="Group_10460" data-name="Group 10460"><rect id="Rectangle_4997" data-name="Rectangle 4997" x="265.16" y="122.41" width="6.22" height="3.2" transform="translate(55.82 329.46) rotate(-68.85)" style="fill:#202952"/></g><g id="Group_10461" data-name="Group 10461"><path id="Path_19810" data-name="Path 19810" d="M272.12,126.33l.56-1.45a2.33,2.33,0,0,0-1.33-3h0l-.46-.18-2.25,5.8.46.18a2.33,2.33,0,0,0,3-1.33Z" style="fill:#c95d4b"/></g><g id="Group_10462" data-name="Group 10462"><path id="Path_19811" data-name="Path 19811" d="M211,105.16l2.24-5.8-9.94-.52Z" style="fill:#fad382"/></g><g id="Group_10463" data-name="Group 10463"><path id="Path_19812" data-name="Path 19812" d="M207.15,102l1.12-2.9-5-.26Z" style="fill:#202952"/></g></g><path id="Path_19813" data-name="Path 19813" d="M252.61,116.47l.12.3.56,1.42a6.4,6.4,0,0,0-.66,0,5.54,5.54,0,0,0-1.4.29l-.14.06a7.45,7.45,0,0,1-4.05.72c-.73-.14-.52-.45-.52-.45-1.13-.19-1.42-.77-1.12-.86a4.68,4.68,0,0,1,1,0c-.64.07-1.28-.06-1.34-.28s.23-.34.83-.39a20.79,20.79,0,0,0,3.22-.71c.73-.23.3-.27-.15-.6s-1.25-.53-1-.8,1.83.23,2.32.4l1,.37Z" style="fill:#76503f"/><path id="Path_19814" data-name="Path 19814" d="M265,98.38c1.77,1.06,2.39,5.74,2,12.41-.13,2.11-.65,6.41-2,8.21a1.43,1.43,0,0,1-.2.23c-1.07,1-12.86-.13-12.86-.13l-.14-3.61,8.89-.41a.36.36,0,0,0,.35-.37h0c-.07-1.77-.21-9.28-.11-10.62C261.22,100.11,262.55,96.93,265,98.38Z" style="fill:#698ca0"/></g><ellipse id="Ellipse_372" data-name="Ellipse 372" cx="93.76" cy="175.64" rx="17.89" ry="2.36" style="fill:#9faad4;opacity:0.219999998807907;isolation:isolate"/><g id="Group_10466" data-name="Group 10466"><path id="Path_19815" data-name="Path 19815" d="M94.47,91.51c-.21-1.84,1.92-4.43.24-7.22s.22-7-1.22-9.55c-1.1-2-3.57-3.19-5.78-1.78s-5.42-.75-6.74,2.81c-1.62,4.41-4.48,3.56-4.18,8.07s-3.23,6.12-1.11,9,7.34,2.91,10.8,1.7S95,96.08,94.47,91.51Z" style="fill:#ffb600"/><path id="Path_19816" data-name="Path 19816" d="M110,97.55a11.44,11.44,0,0,1,1.45-1.24,15.58,15.58,0,0,1,1.49-.7c.9-.4,1.21,0,.61.34s-1,.9-.78.87a12,12,0,0,0,2.38-.44c.62-.28,1.5-.53,1.75-.33.51.4-.42,1.1-.78,1.6s-2.14.95-3.11,1.09a5.2,5.2,0,0,0-1.8.66Z" style="fill:#fdd1b1"/><path id="Path_19817" data-name="Path 19817" d="M91.82,88.75a8.71,8.71,0,0,1,4.88,5c1.6,3.94,4.35,7.89,4.68,7.76s8.76-4.56,8.76-4.56l1.35,2.29s-8.89,6.23-11.12,6.55c-3.24.46-7-7.89-7-7.89Z" style="fill:#d47d6f"/><path id="Path_19818" data-name="Path 19818" d="M100.38,166.19v9.42H102V173s1.21,2.46,2,2.57c.48.08,2.4.06,4,0a.39.39,0,0,0,.39-.4.4.4,0,0,0-.2-.34c-1.44-.81-3.53-1.63-4-4-.27-1.59-.47-3.19-.58-4.8Z"/><path id="Path_19819" data-name="Path 19819" d="M81.7,166l-.92,9.25a.39.39,0,0,0,.36.43h4.5a.38.38,0,0,0,.39-.39v-.05c-.07-.55-1-1.55-1.28-2.59-.57-2.27-.22-7-.22-7Z"/><path id="Path_19820" data-name="Path 19820" d="M81.32,109.63s-3.11,4.76-2.12,17.82,1,13.72,1,13.72L81,166.85a7.63,7.63,0,0,0,3.66,0l4.53-41.07s5.65,13.51,6.86,16.5,0,10.89,4.1,24.81a8.46,8.46,0,0,0,4,0s.22-24.53-.88-28.6-7.7-25.24-8.83-27.66S81.32,109.63,81.32,109.63Z" style="fill:#1d2039"/><path id="Path_19821" data-name="Path 19821" d="M81,110.44a7.54,7.54,0,0,0,1.61,1.37,13.3,13.3,0,0,0,7.06,1.66,7.6,7.6,0,0,0,4.85-1.85s-.9-7.15-1-9.07,2.14-4.41,1.91-5.9a19.16,19.16,0,0,0-3.61-7.9,15.81,15.81,0,0,0-10.85,0s.13,2,.36,4.43A68.18,68.18,0,0,0,82.52,102C83.41,105.2,81,110.44,81,110.44Z" style="fill:#c95d4b"/><path id="Path_19822" data-name="Path 19822" d="M81,110.44a7.54,7.54,0,0,0,1.61,1.37l1.79.38s5.53-8.91,2.36-10.53-4.68-5.23-5.32-8.48h-.08A68.18,68.18,0,0,0,82.52,102C83.41,105.2,81,110.44,81,110.44Z" style="opacity:0.150000005960464;isolation:isolate;fill:url(#linear-gradient-12)"/><path id="Path_19823" data-name="Path 19823" d="M84.76,112.19h8.41l6.29-10.9H91.05Z"/><path id="Path_19824" data-name="Path 19824" d="M91.13,106.78s1.58-.38,2.35-.55c.61-.14,1.44-.33,1.38,0s-1.06.5-1,.69,1.57,0,2.73-.58.28,2.1-1.88,2.27a13.48,13.48,0,0,1-4.1-.39Z" style="fill:#fdd1b1"/><path id="Path_19825" data-name="Path 19825" d="M81,88.75c3.84.81-1,14.46,0,15.35s10.59,2.43,10.59,2.43l-.33,2.22s-11.88,0-14.09-2.73C75.22,103.66,78.45,88.22,81,88.75Z" style="fill:#d47d6f"/><path id="Path_19826" data-name="Path 19826" d="M84.63,88.24c1,2.27,4.87,2.83,5.11.9a27.07,27.07,0,0,0,.08-3.49c0-1.18-.09-2.13-.09-2.13s-4-3.84-4.12-2.07S84.63,88.24,84.63,88.24Z" style="fill:#fdd1b1"/><path id="Path_19827" data-name="Path 19827" d="M85.61,82.76c.5,2.54,3.14,3.79,4.21,4.2,0-1.18-.09-2.13-.09-2.13S85.7,81,85.61,82.76Z" style="opacity:0.150000005960464;isolation:isolate;fill:url(#linear-gradient-13)"/><path id="Path_19828" data-name="Path 19828" d="M91.67,76.64a.61.61,0,0,1,.81.28.83.83,0,0,1,.06.21c.22,2.24.6,8-1,8.44-3.41,1-4.81-2.29-5.27-2.78s-2.19-.42-2.39-1.51.72-1.21,1.2-1,1.33.41.78-1.24,2.33-1.09,3.73-1.54A16.21,16.21,0,0,0,91.67,76.64Z" style="fill:#fdd1b1"/></g><g id="Group_10827" data-name="Group 10827"><g id="Group_10825" data-name="Group 10825"><path id="Path_20127" data-name="Path 20127" d="M208.6,37.27H189s-3.73,0-4.46-2.41c-.46-1.49.67-3.21,3.07-3.66,2.7-.5,3.07-.53,3.62-2.89s1.62-3.16,3.08-3.36,3.07.78,4.45,2.52c.67.84,2.91-.78,3.9-1.69A3.46,3.46,0,0,1,208,27.06c1.3,2.79-.7,4,1.69,5.15,1.7.8,2.4,1.78,2.36,2.89S210.19,37.27,208.6,37.27Z" style="fill:#a9e1f2"/><path id="Path_20128" data-name="Path 20128" d="M205.57,37.27A1.44,1.44,0,0,0,206.7,35c-1.18-2.08-4.1.62-5-2.36s-4.34-3.94-5.54-1.23c-1,2.24-2.23,2.75-5.38,2.21s-3.14,3.4-1.4,3.7S205.57,37.27,205.57,37.27Z" style="fill:#fff;opacity:0.479999989271164;isolation:isolate"/></g><g id="Group_10826" data-name="Group 10826"><path id="Path_20129" data-name="Path 20129" d="M125,13.51c.18,1.68,3.18,1.68,3.18,1.68h25c2.69-.57-1.37-1.19-1.33-2.65s1.68-5.6-.7-6.35-2.39.53-4.24.57S144.65.63,141.65.1s-4.5,1.14-5.3,4.54-3.66,2.3-4.59,1.77-3.71-.13-2.82,2.78-1.81,1.94-2.52,2.12S124.79,11.84,125,13.51Z" style="fill:#a9e1f2"/><path id="Path_20130" data-name="Path 20130" d="M144.94,15.19c5.11-.26,4.38-3.59,1.68-2.82s-2.69-1.2-4-3.84-4.6-.62-4.77,2.25-3-.8-5.67.47,0,3.94,0,3.94Z" style="fill:#fff;opacity:0.479999989271164;isolation:isolate"/></g></g></g></g></svg>