<svg xmlns="http://www.w3.org/2000/svg" viewBox="0 0 279.12 218.44"><g id="Layer_2" data-name="Layer 2"><g id="Plan"><path d="M180.37,198.87c-4.4-1.77-6.67,5-6.47,8.07a2.78,2.78,0,0,0,.54,1.67c1.55,1.8,5.94,0,7.68-.62l3.88-1.44a4.94,4.94,0,0,0,1.68-.89,3.38,3.38,0,0,0,.93-2.86,10.1,10.1,0,0,0-.93-3,6.66,6.66,0,0,0-1.52-2.45,2.26,2.26,0,0,0-2.67-.39" fill="#563e37"/><path d="M144.22,196.66a17,17,0,0,0-2.46,1.21,3,3,0,0,0-1.55,1.69,2.18,2.18,0,0,0,.93,2.11c5.39,4.06,13.18.09,19-.48,1.83-.18,3.76-.14,5.36-1s2.67-3.24,1.28-4.69c-1.25-1.29-3.57-.69-5.12-1a30.53,30.53,0,0,1-6.11-2.18c-1-.43-2.37-.8-3.15,0a6.44,6.44,0,0,0-.76,1.42c-.85,1.5-2.85,1.75-4.54,2.08A17.44,17.44,0,0,0,144.22,196.66Z" fill="#563e37"/><path d="M52,195.13a6.6,6.6,0,0,0,3.68.82,3.47,3.47,0,0,0,2.69-.7c.11-.12.22-.26.37-.28a.67.67,0,0,1,.47.19c3,2.39,7,3.11,10.84,3.16,1.16,0,2.6-.22,3-1.33a2,2,0,0,0-.76-2.05,7.26,7.26,0,0,0-2.06-1,20.32,20.32,0,0,1-5.56-3.31,2,2,0,0,0-.81-.5,1.94,1.94,0,0,0-1,.09,48.58,48.58,0,0,1-8.65,1.39c-1,.07-2.52-.27-3.1.68S51.18,194.59,52,195.13Z" fill="#47403f"/><path d="M30,199c-.5.52-1.12,1.2-.83,1.86.09.19.24.34.34.52a5,5,0,0,1,.36,1.29,3.22,3.22,0,0,0,1.76,1.93,9.65,9.65,0,0,0,2.59.7l2.3.4a4.49,4.49,0,0,0,2.67-.08,3.64,3.64,0,0,0,1.72-2.26,5.49,5.49,0,0,0-.44-5,1.19,1.19,0,0,0-.52-.45,1.63,1.63,0,0,0-.82,0,8.38,8.38,0,0,1-5.11-.54c-.6-.27-2-1.42-2.71-.93C30.82,196.76,30.88,199,30,199Z" fill="#47403f"/><path d="M31.15,189.34h.16c-.12,2-.25,4-.37,6.08a3.85,3.85,0,0,0,.42,1.94,3.41,3.41,0,0,0-.9,5.36,8.45,8.45,0,0,0,7.34,3,3.86,3.86,0,0,0,2.6-1.37,5.56,5.56,0,0,0,.75-3.47,4.57,4.57,0,0,0-.11-1.05c-.23-.89-1.33-1.31-1.55-2s.44-1.66.54-2.35q.4-3.09.84-6.21l10.46-.11a5.25,5.25,0,0,0,1.06,2.59,3.53,3.53,0,0,0-.28.62,3.48,3.48,0,0,0,2.42,4.49,3,3,0,0,0,3.14-1.31l.91-.23c.33-.07.67-.13,1-.21a8.45,8.45,0,0,0,6.59,3.84,19.26,19.26,0,0,0,2.14-.32l.33-.06a9.62,9.62,0,0,0,2.53-.37,2.46,2.46,0,0,0,1.79-1,1.6,1.6,0,0,0-.1-1.41,4.35,4.35,0,0,0-.94-1.12,19.35,19.35,0,0,0-4.12-2.34A16.28,16.28,0,0,1,65,190.71s-2.61-1.76-2.5-1c-.16-1.16,2.36-.72,3.15-.72l4.1,0,8.48-.06,16.68-.11,18.17-.13a6.39,6.39,0,0,0-.46,1.38,4.08,4.08,0,0,0,.22,2.41,6.91,6.91,0,0,0-.59.84,4.26,4.26,0,0,0-.49,3,2.88,2.88,0,0,0-.22,5c-.38-.23-.22-.09.49.41a2.58,2.58,0,0,0,1.07.37,5.92,5.92,0,0,0,1.83.11,4.31,4.31,0,0,0,3.57-1.9c.09-.15.15-.28.2-.37l.31-.24a7.63,7.63,0,0,0,.73-.66,7.38,7.38,0,0,0,.89-1.19c.36-.49.68-1,1-1.45l.42-.68c.06.62.14,1.25.25,1.88.4,2.27,3.68,1.55,3.82-.51.13-1.89.09-3.78.17-5.68,0-.9.2-1.87.29-2.84l7,0,11.19,0,5.73,0h2.72c1.33,0,1.05,0,1.81.85a2.49,2.49,0,0,1,.68.88c.17.61-.41,1.2-.4,1.84a7.53,7.53,0,0,0-2-1,.6.6,0,0,0-.35,0,.53.53,0,0,0-.25.26c-.43.78-.49,1.77-1.11,2.42a3.56,3.56,0,0,1-1.27.76c-1.69.71-3.39,1.39-5.12,2a15.8,15.8,0,0,1-2.4.82c-.54.09-1-.1-1.5.19a2.4,2.4,0,0,0,.44,4.31,23,23,0,0,0,7.78.94,12.2,12.2,0,0,0,3.89-.64,26,26,0,0,1,2.85-.88,15.57,15.57,0,0,0,4-.1c2.4-.2,4.67-.1,6.1-2.41a3.68,3.68,0,0,0-.56-4.35,3.62,3.62,0,0,0-1.25-1,37.53,37.53,0,0,0,1.51-4.9h7.13c.44,0,1.06,4.26,1.16,4.67.46,1.86,2.37,3.6,2.14,5.62a2.57,2.57,0,0,1-.29.86c-1.08,2.21-2.76,4.6-2.61,7.17s2,2.87,4.28,2.64c4.3-.44,9.31-2.64,10-7.42.34-2.26-.37-4.39-2.62-5.34a3.54,3.54,0,0,0-.39-.14c-.19-2.7-.38-5.39-.56-8.09l27.48-.05,34.26-.07c9.23,0,1.45-.05,10.67-.07,6.17,0-5.66,0,.51,0,2.25,0,4.51,0,6.77,0a15.73,15.73,0,0,1,10.69,4.43c3,2.73,4.26,6.79,4.43,10.7A15.37,15.37,0,0,1,274.68,214,15.6,15.6,0,0,1,264,218.44h-.43c-3.28,0-6.56,0-9.84,0-7,0,21,0,14-.05l-29.5-.07-35.48-.07-39-.08c-13.25,0-26.5,0-39.74-.09-12.67,0-25.34-.17-38-.25l-33.72-.23c-9-.06-17.91-.22-26.87-.35-5.77-.07-12.81.73-18.11-2.05A14,14,0,0,1,0,203.32,13.67,13.67,0,0,1,4,193.81a12.84,12.84,0,0,1,4.5-2.89c5.4-2.11,11.87-1.39,17.55-1.39C27.68,189.53,29.46,189.36,31.15,189.34ZM108,196.75a2.9,2.9,0,0,1-2-.82,2.81,2.81,0,0,1,0-4,3.58,3.58,0,0,1,2.78-.8,3,3,0,0,1,1.27.47,2.66,2.66,0,0,1,1.26,1.93,2.51,2.51,0,0,1-.72,2.22,4.4,4.4,0,0,1-1.43.87A4.18,4.18,0,0,1,108,196.75Z" fill="#c6c4c3"/><path d="M126.32,46.78c0,.51-.11,1-.19,1.53l.34-.15a9.19,9.19,0,0,1,1.13-.42l-.32-.23A11,11,0,0,1,126.32,46.78Z" fill="none"/><path d="M116.17,49.81a1.37,1.37,0,0,0-.32.16,2,2,0,0,1,.25-.09A.46.46,0,0,1,116.17,49.81Z" fill="none"/><path d="M185.46,109.32a4.63,4.63,0,0,1,1.29-.33l.13,0a4.81,4.81,0,0,1-3.18-2.25c-.07,1.13-.13,2.26-.2,3.39,0,.27,0,.54,0,.81A4.44,4.44,0,0,1,185.46,109.32Z" fill="none"/><path d="M126.57,83c0-.19,0-.34,0,0Z" fill="none"/><path d="M50.45,173.06Q49.74,159,49,145q-.21-4.23-.38-8.46c-1.58,9.22-2.77,18.5-4.16,27.75C43.23,172.65,42,181,40.87,189.21l10.46-.11a1.5,1.5,0,0,1,0-.2C51,183.62,50.71,178.34,50.45,173.06Z" fill="none"/><path d="M169.09,172.6c-.05.31-.09.62-.14.93-.58,3.51-1.2,7-1.93,10.49-.31,1.49-.62,3-1,4.48h7.13q-1.47-6.13-3.1-12.24C169.75,175,169.42,173.82,169.09,172.6Z" fill="none"/><path d="M41.79,119.23c0,.17,0,.34,0,.52.05-.23.1-.46.16-.68Z" fill="none"/><path d="M185.71,121.34c2.27-.48,4.55-.89,6.84-1.18,0-.13,0-.27,0-.39-.05-.66-.24-1.42-.37-2.19a6.33,6.33,0,0,1-1.81,1.9,5.5,5.5,0,0,1-2.35.64,4.23,4.23,0,0,1-2.47-.75A16,16,0,0,0,185.71,121.34Z" fill="none"/><path d="M29.66,100.71a2.65,2.65,0,0,1,.34,1.05,3.53,3.53,0,0,1,1.62,1.14c.3.38.59.76.87,1.16a19.12,19.12,0,0,1-.84-5.69c.09-4,.68-8,.89-12,.29-5.75.44-11.5.5-17.26-.21.56-.41,1.13-.62,1.69A57.46,57.46,0,0,0,30.5,76.5a6,6,0,0,1,.85,2.56c.25,2.26-.09,4.67,0,7,0,2.13.15,4.25.27,6.38s.58,4.54-.9,6.43a5.19,5.19,0,0,1-1.51,1.27A2.27,2.27,0,0,1,29.66,100.71Z" fill="none"/><path d="M53.05,33.26a10.45,10.45,0,0,0,1.53,1.07,3,3,0,0,1,.62-.16,2.66,2.66,0,0,1,2.32.76,3.34,3.34,0,0,1,.4.55,4.62,4.62,0,0,1,2,1,3.89,3.89,0,0,1,.48.52c1.55-8,3.39-15.86,5.59-23.68a2.58,2.58,0,0,1-1.36-.13c-1-.38-1.93-.88-3-1.2s-1.78-.38-2.68-.57a4.39,4.39,0,0,1-2.68-1.5L56,10a4.36,4.36,0,0,0-2.36,1.64c-1.38,1.89-1.25,4.54-1.11,6.75A1.15,1.15,0,0,1,52,19.54c.11.51.23,1,.35,1.52a3.31,3.31,0,0,1,0,2.64,32.82,32.82,0,0,0-1.83,7.43A14.77,14.77,0,0,1,53.05,33.26Z" fill="#f2b991"/><path d="M35.43,112.66c-.41-1-.72-2-1.06-3-.63-1.86-1.34-3.71-1.88-5.6-.28-.4-.57-.78-.87-1.16A3.53,3.53,0,0,0,30,101.76a2.66,2.66,0,0,1-1.34,2.77A13.94,13.94,0,0,1,23.49,106a4.39,4.39,0,0,0-.21,4.58,26.91,26.91,0,0,0,2.71,3.6c.87,1.09,1.72,2.19,2.61,3.27a4.51,4.51,0,0,0,4.72,1.07c0-.75,0-1.51,0-2.27A4.07,4.07,0,0,1,35.43,112.66Z" fill="#f2b991"/><path d="M75.38,111.29l.08,0h0Z" fill="#f2b991"/><path d="M76,111.31h0Z" fill="#f2b991"/><path d="M76.21,111.58l-.3-.07-.14-.05a2.75,2.75,0,0,1-3.47-.76,2.78,2.78,0,0,1-.4-.74,4.35,4.35,0,0,0-.4,1.8,17.52,17.52,0,0,0,.66,4.43,17.91,17.91,0,0,0,1.08,3.74,2.81,2.81,0,0,0,4.39.57,11.54,11.54,0,0,0,2.06-4.31,12.12,12.12,0,0,0,.34-5.58,3,3,0,0,0-.4-1.11,3,3,0,0,1-.76,1.37A2.83,2.83,0,0,1,76.21,111.58Z" fill="#f2b991"/><path d="M117.49,52.2l8.64-3.89c.08-.51.14-1,.19-1.53A17.09,17.09,0,0,1,124.44,45c-2-2.25-3.49-5.9-2.07-8.77a2.38,2.38,0,0,1,3.15-1.08c-.07-.89-.16-1.79-.28-2.67a21.33,21.33,0,0,0-.43-2.14A3.2,3.2,0,0,1,120.66,29c-1.78-2.86-6-1.44-9.22-2.22a7,7,0,0,0-.18.69,25.85,25.85,0,0,0-.59,5,12.3,12.3,0,0,0,.71,5A6.39,6.39,0,0,0,113,39.77l.45.37a5.14,5.14,0,0,1,.35.47v0l0,.13c.08.27.17.54.24.81a14.81,14.81,0,0,1,.37,1.63c0-.07,0,.94,0,1.16s0,.57,0,.85c0,0,0,.48-.07.7s-.06.37-.07.41c-.06.28-.12.55-.2.83a13.33,13.33,0,0,1-.53,1.62c.08-.22-.41.8-.53,1s-.37.6-.56.89a.55.55,0,0,0-.08.13l-.11.12A5.42,5.42,0,0,0,111.11,54a3.27,3.27,0,0,1,1.47.31C114.17,53.51,115.93,52.9,117.49,52.2Zm-1.32-2.39a.46.46,0,0,0-.07.07,2,2,0,0,0-.25.09A1.37,1.37,0,0,1,116.17,49.81Z" fill="#9c704b"/><path d="M98.12,71.82a2.43,2.43,0,0,1-1.27-1.07,3.94,3.94,0,0,0-3.24,2c-1.92,3.61-1.55,10.1,2.71,11.9,3.11,1.31,6.22-.79,7.24-3.77a7.8,7.8,0,0,0-.58-6.3,3.48,3.48,0,0,1-4.86-2.73Z" fill="#9c704b"/><path d="M112.82,192.45a6.91,6.91,0,0,0-.59.84,4.26,4.26,0,0,0-.49,3,1.9,1.9,0,0,1,.46-.15c-.42.29-.23.24.56-.17l.84-.11c.27,0,.54,0,.82,0h.16l.12,0a4.47,4.47,0,0,1,1.71,0l.27-.27.39-.43c.23-.32.46-.64.67-1a26.76,26.76,0,0,0,2.08-3.83,25.56,25.56,0,0,0,1.29-3.72,3.28,3.28,0,0,0-.19-.66c.18-1.65.32-3.3.58-4.93.35-2.25,1.25-4.37,1.67-6.6a29.69,29.69,0,0,0,.54-5.64c.17-.42.32-.85.5-1.3a19.66,19.66,0,0,0,1.26-4.17,24.78,24.78,0,0,0,.34-2.59,5.94,5.94,0,0,1,.09-.8,24.41,24.41,0,0,0,.1-4.68,48.6,48.6,0,0,0-3.58-15.73,6.08,6.08,0,0,0-2.37-2.9l-3.88-.32-.25.1c-2.85,1.2-3.46,4.19-2.3,6.83l.15.33c.09.22.17.44.26.67-.06,1.1-.11,2.2-.21,3.29-.19,2.1-.49,4.19-.65,6.29a32.52,32.52,0,0,0,.26,6.9c.17,1.26.38,2.5.59,3.75s.22,1.43.32,2.44c.2,2.12.16,4.25.31,6.37.15,2.29.64,4.53.64,6.92a44.41,44.41,0,0,1-.31,4.94,9.13,9.13,0,0,0-1,1.68c-.29.61-.63,1.22-.91,1.85a6.39,6.39,0,0,0-.46,1.38A4.08,4.08,0,0,0,112.82,192.45Z" fill="#9c704b"/><path d="M156.45,31.22c.36-.24.72-.48,1.07-.69a11,11,0,0,1,3.66-1.43,4,4,0,0,1,.87-1.18,3.83,3.83,0,0,1,1.24-.89,3.71,3.71,0,0,1,1.24-.62l.49-.07a17.46,17.46,0,0,0-1.79-6.89c0-.35,0-.7.07-1s.07-1,.12-1.49l.11-.06a3.36,3.36,0,0,0,1.07-1,2.08,2.08,0,0,0,.54-.93,2.12,2.12,0,0,0,.29-1.07,3.2,3.2,0,0,0-.08-1.68l-.42-1-.66-.86a5.08,5.08,0,0,0-.43-.38,10.83,10.83,0,0,0-1.19-4.55C159.82.21,152.1,0,149.54,5.52c-.1.22-.2.44-.28.67a5.87,5.87,0,0,0-.57,2.49,10.53,10.53,0,0,0,.52,4.17,20.83,20.83,0,0,0,.85,2.23l0,.22a9.54,9.54,0,0,0,.25,5,25.25,25.25,0,0,0,2.24,9.75,3.18,3.18,0,0,0,.9,1.17A4.5,4.5,0,0,1,156.45,31.22Z" fill="#9c704b"/><path d="M187.85,109a4.39,4.39,0,0,1-1-.07l-.13,0a4.63,4.63,0,0,0-1.29.33,4.44,4.44,0,0,0-2,1.58l-.15,2.84a4.34,4.34,0,0,1,1.42-1.15,1.3,1.3,0,0,1,1.94,1.11c-.09,1.62-.9,3.13-1.09,4.76a7,7,0,0,0-.05.91,4.23,4.23,0,0,0,2.47.75,5.5,5.5,0,0,0,2.35-.64,6.33,6.33,0,0,0,1.81-1.9,3.4,3.4,0,0,1,.55-3.09,1.27,1.27,0,0,1,.42-.29,6.64,6.64,0,0,0,.05-.77,4.74,4.74,0,0,0-1-2.87,4.45,4.45,0,0,0-2.46-1.7,3.86,3.86,0,0,0-.49-.09A5.72,5.72,0,0,1,187.85,109Z" fill="#9c704b"/><path d="M53.34,51.82c0-.37,0-.74,0-1.11a57.52,57.52,0,0,1,.41-7.06c.1-.93.13-2.18.33-3.35a3.48,3.48,0,0,1-.46-.8c-.05-.11-.14-.25-.19-.39s-.09-.19-.13-.3a6.18,6.18,0,0,1-.37-1.2,2.81,2.81,0,0,1,1.67-3.28,10.45,10.45,0,0,1-1.53-1.07,14.77,14.77,0,0,0-2.61-2.13A3.37,3.37,0,0,0,49,30.79,2.44,2.44,0,0,0,46.81,32a4.09,4.09,0,0,0,.06,3.49,3.75,3.75,0,0,0,0,1.57c0,.23.09.45.15.68a26.56,26.56,0,0,1,1.24,2.37C50.1,43.94,51.81,47.84,53.34,51.82Z" fill="#dad9d8"/><path d="M59.91,36.5a4.62,4.62,0,0,0-2-1,3.69,3.69,0,0,1,.41,1.4,5.3,5.3,0,0,1,0,1.26c0,.08,0,.17,0,.25s0,.34-.05.49a3,3,0,0,1-.46,1.32c.14,1.19.07,2.46.15,3.45l.06.75c.39,1.13.59,2.39.84,3.39a45.13,45.13,0,0,1,.94,5.89c.1.84.18,1.67.24,2.5.53-1.65,1-3.3,1.5-5a71.82,71.82,0,0,0,.07-10A7.22,7.22,0,0,0,60.39,37,3.89,3.89,0,0,0,59.91,36.5Z" fill="#dad9d8"/><path d="M28.66,104.53a2.85,2.85,0,0,0,1-3.82,2.27,2.27,0,0,0-.49-.61,8.6,8.6,0,0,1-4.06,1,3,3,0,0,1-1.44-.4c-.83.35-1.67.7-2.46,1.12-1.54.83-1.39,3.74.52,4a9.55,9.55,0,0,0,1.76.08A13.94,13.94,0,0,0,28.66,104.53Z" fill="#dad9d8"/><path d="M74.79,107.69a3.07,3.07,0,0,1-2.09-.77l-.18.16A2.68,2.68,0,0,0,71.9,110a2.78,2.78,0,0,0,.4.74,2.75,2.75,0,0,0,3.47.76l.14.05.3.07a2.83,2.83,0,0,0,2.66-.71,3,3,0,0,0,.76-1.37,2.14,2.14,0,0,0-.06-1.28,3.58,3.58,0,0,0-1.9-2.14A3.59,3.59,0,0,1,74.79,107.69Zm.67,3.64-.08,0,.09,0Zm.54,0h0Z" fill="#dad9d8"/><path d="M58.81,47.79c-.25-1-.45-2.26-.84-3.39l-.06-.75c-.08-1,0-2.26-.15-3.45a3,3,0,0,0,.46-1.32c0-.15.05-.33.05-.49s0-.17,0-.25a5.3,5.3,0,0,0,0-1.26,3.69,3.69,0,0,0-.41-1.4,3.34,3.34,0,0,0-.4-.55,2.66,2.66,0,0,0-2.32-.76,3,3,0,0,0-.62.16,2.81,2.81,0,0,0-1.67,3.28,6.18,6.18,0,0,0,.37,1.2c0,.11.09.2.13.3s.14.28.19.39a3.48,3.48,0,0,0,.46.8c-.2,1.17-.23,2.42-.33,3.35a57.52,57.52,0,0,0-.41,7.06c0,.37,0,.74,0,1.11,1.33,3.46,2.51,7,3.51,10.53.2.7.38,1.4.57,2.1.29-1.09.61-2.19.95-3.27.52-1.67,1.08-3.33,1.62-5-.06-.83-.14-1.66-.24-2.5A45.13,45.13,0,0,0,58.81,47.79Z" fill="#745477"/><path d="M32.08,196.21l.75.46a5.76,5.76,0,0,0,1.52.73,5.42,5.42,0,0,0,1.21.16c.83.05,3.07.59,3.77.1.54-.37.61-1.62.7-2.24q.4-3.09.84-6.21c1.14-8.24,2.36-16.56,3.61-24.92,1.39-9.25,2.58-18.53,4.16-27.75q.16,4.23.38,8.46.73,14,1.43,28.06c.26,5.28.57,10.56.86,15.84a1.5,1.5,0,0,0,0,.2c.32,3.1,2.58,2.58,5.05,2.2,2-.31,4.66-.26,6.43-1.16.29-.15.59-.37.62-.69s-.38-.64-.51-1a5.37,5.37,0,0,1-.27-1.64c-.1-1.54-.18-3.08-.26-4.62-.17-3.08-.32-6.17-.45-9.25-.26-6.17-.43-12.34-.41-18.52,0-2.83.08-5.67.25-8.5.08-1.37.18-2.73.31-4.09.06-.63.12-1.26.19-1.89,0-.27.07-.54.1-.81,0,0,.14-1.07.13-1,.75-5.59,1.66-11.16,2.17-16.78a83.48,83.48,0,0,0,.38-8.64,5.08,5.08,0,0,0,1.06-1.84C67.51,106.62,67.63,102,68,97.6q.48-6.18.94-12.37c1,6.36,1.82,12.72,2.55,19.12a4,4,0,0,0,1.25,2.57,3.07,3.07,0,0,0,2.09.77,3.59,3.59,0,0,0,2.88-1.61,2.77,2.77,0,0,0,.47-1.73Q76.88,89.11,74.77,74c-.69-4.91-1.14-9.84-2.18-14.69-.53-2.49-1.08-5-1.83-7.43A25.76,25.76,0,0,0,68.56,46,2.94,2.94,0,0,0,66,43.37c-1.32-.16-3.06.65-3.28,2.14a47.8,47.8,0,0,1-1.24,5.7c-.45,1.67-1,3.32-1.5,5s-1.1,3.33-1.62,5c-.34,1.08-.66,2.18-.95,3.27-.19-.7-.37-1.4-.57-2.1-1-3.55-2.18-7.07-3.51-10.53-1.53-4-3.24-7.88-5.1-11.69A26.56,26.56,0,0,0,47,37.76a7.49,7.49,0,0,0-2.38-2.54c-2.8-1.77-5.65-.37-8.15,1.07-1.66,1-3.41,1.82-5,2.87C28.74,41,29,44.35,28.64,47.28c0,.09-.16,1.06-.15,1,0,.34-.11.69-.16,1-.17,1-.35,2.07-.53,3.11-.38,2.06-.81,4.12-1.31,6.16-.93,3.81-2.09,7.55-3.26,11.29a41.27,41.27,0,0,0-1.88,13.65c.06,2.39.14,4.77.21,7.16,0,1.12.1,2.23.16,3.34a10.86,10.86,0,0,0,.2,2.14,3.93,3.93,0,0,0,.28.7,3.06,3.06,0,0,0,1.47,3.85,3,3,0,0,0,1.44.4,8.6,8.6,0,0,0,4.06-1,5.19,5.19,0,0,0,1.51-1.27c1.48-1.89,1-4.22.9-6.43s-.23-4.25-.27-6.38c0-2.29.29-4.7,0-7a6,6,0,0,0-.85-2.56,57.46,57.46,0,0,1,1.92-5.68c.21-.56.41-1.13.62-1.69-.06,5.76-.21,11.51-.5,17.26-.21,4-.8,8-.89,12a19.12,19.12,0,0,0,.84,5.69c.54,1.89,1.25,3.74,1.88,5.6.34,1,.65,2,1.06,3a4.07,4.07,0,0,0-2.13,3.55c0,.76,0,1.52,0,2.27.07,9.5.21,19,0,28.48q-.4,15.53-1.3,31-.33,5.67-.68,11.35L31,193.81C31,195.33,31.15,195.63,32.08,196.21Zm9.71-77,.2-.16c-.06.22-.11.45-.16.68C41.81,119.57,41.8,119.4,41.79,119.23Z" fill="#566f7d"/><path d="M125.62,137.08c2.82.23,5-3,4.23-5.55-1.58-5.16-3.23-10.41-3.46-15.48a29.71,29.71,0,0,1,.59-7.53c.48-2.58,1.08-5.15,1.45-7.76a32.06,32.06,0,0,0,.14-9.33,48,48,0,0,0-2-7.33s0,0,0-.06v0c0-.23,0-.48,0-.71a1.48,1.48,0,0,1,0-.2c.06-.27.12-.53.2-.8a15.4,15.4,0,0,1,.55-1.57l.05-.1c.17-.37.33-.75.49-1.12a80.19,80.19,0,0,0,3-8.22,74.17,74.17,0,0,0,2.56-12.1A1.57,1.57,0,0,1,132,57.41a18.16,18.16,0,0,0-.76-7.71,2,2,0,0,1-1.51-.32c-.81-.56-1.41-1.1-2.14-1.64a9.19,9.19,0,0,0-1.13.42l-.34.15-8.64,3.89c-1.56.7-3.32,1.31-4.91,2.14a3.27,3.27,0,0,0-1.47-.31,2.21,2.21,0,0,0-1.33.46c-3.69,2.82-4.83,6.9-4.94,11.4,0,.7,0,1.41,0,2.11l.36,3.27a2.68,2.68,0,0,1-.28,1.51c0,2.57.09,5.14-.09,7.73-.36,5.37-1.15,10.76-1.73,16-.6,5.36-1.21,10.72-1.92,16.07-.73,5.55-1.7,11.58-2.75,17.28a4.37,4.37,0,0,0,4.15,5.44c4.53.32,9.07.68,13.61,1l3.88.32ZM126.57,83c0-.34,0-.19,0,0Z" fill="#503751"/><path d="M144.67,88.93l.19-.17a3.84,3.84,0,0,1,2.8-3.18l2-.46a15,15,0,0,1-1.56-6.45c-.12-4.63.93-9.43,1.63-14,.15-1,.28-2,.44-3,.16-1.91.34-3.83.58-5.73.41-3.35,1.05-6.62,1.64-9.94.36-2,.58-4.1,1-6.11,0-.19,0-.38.05-.58s0-.45,0-.68a5.49,5.49,0,0,1-1.06-5.11,3.11,3.11,0,0,1,5.15-1.36,3.32,3.32,0,0,1,.9,2.18,4,4,0,0,1,0,.77c0,.24-.1,1.68-.11,1v.47a4.34,4.34,0,0,1-.47,1.6,2.14,2.14,0,0,1-.66.77l0,.68c.08,1.74.21,3.49.34,5.23.26,3.3.34,6.59.3,9.9,0,.26,0,.52,0,.78a20.51,20.51,0,0,1,1,6.39c.12,2.76.14,5.54.13,8.3,0,4.35-.16,8.71-.38,13.06,1.83-.33,3.68-.62,5.52-.84,2.6-.32,5.21-.57,7.81-.75s6.07-.73,8.64.36c5.61,2.36,4.2,8.83,3.84,13.65-.28,3.65-.54,7.31-.76,11a4.81,4.81,0,0,0,3.18,2.25,4.39,4.39,0,0,0,1,.07,5.72,5.72,0,0,0,1.36-.25,4.91,4.91,0,0,0,3.65-4.77c-.66-13.26-1.31-26.54-2.29-39.78-.51-6.74-1.25-13.64-3.94-19.9C184.12,38.49,179,34.88,173.5,32c-1-.5-2-1-3-1.45l-.06-.45a5.09,5.09,0,0,0-1.29-2.22l-1-.78a5.15,5.15,0,0,0-1.16-.5,3.06,3.06,0,0,0-1.51-.36l-.45.06-.49.07a3.71,3.71,0,0,0-1.24.62,3.83,3.83,0,0,0-1.24.89,4,4,0,0,0-.87,1.18,11,11,0,0,0-3.66,1.43c-.35.21-.71.45-1.07.69a4.5,4.5,0,0,0-3,0,3.91,3.91,0,0,0-1.12.61,4.23,4.23,0,0,0-1.55,2.56C148,38,145.42,41.81,143,45.61a17.8,17.8,0,0,0-2.77,6.88,77.75,77.75,0,0,0-.6,8.22q-.78,15.57-.52,31.16a4.46,4.46,0,0,0,.91,2.61,4.79,4.79,0,0,1,1.32-2.4Z" fill="#cdf7e6"/><path d="M157.09,193c1.89.78,4.22.69,6.23,1.19a1.69,1.69,0,0,0,1.38-.05,1.63,1.63,0,0,0,.54-1.28A72.83,72.83,0,0,1,167,184c.73-3.49,1.35-7,1.93-10.49.05-.31.09-.62.14-.93.33,1.22.66,2.43,1,3.65q1.62,6.1,3.1,12.24c1.17,4.86.59,10.44,6.08,11.65a7.63,7.63,0,0,0,3.08.17c5.14-1,2.21-8.21,2-11.85q-.87-13-1.34-26a6.3,6.3,0,0,1-5.71-6.18c0-4.62,0-9.23.1-13.84,0-1.35.05-2.71.08-4.07-.09-1.18-.18-2.37-.28-3.56l-.05-.68a5.26,5.26,0,0,1-.38-.65c-1.59-3.37-1.45-7,1.34-9.7a8,8,0,0,1,3.05-1.83,13.26,13.26,0,0,1,.35-4.13,10.36,10.36,0,0,1,1.85-4.1l.15-2.84c0-.27,0-.54,0-.81.07-1.13.13-2.26.2-3.39.22-3.66.48-7.32.76-11,.36-4.82,1.77-11.29-3.84-13.65-2.57-1.09-5.91-.56-8.64-.36s-5.21.43-7.81.75c-1.84.22-3.69.51-5.52.84-.07,1.18-.13,2.36-.21,3.55-.14,2.26-2.59,4-4.72,2.71a11.35,11.35,0,0,1-4-4.45l-2,.46a3.84,3.84,0,0,0-2.8,3.18l-.19.17-3.36,3.15a4.79,4.79,0,0,0-1.32,2.4,3.61,3.61,0,0,0,.1,2.19,266.79,266.79,0,0,1,12.43,35.69c3.14,12.22,4.94,23.84,4.58,36.48a106.84,106.84,0,0,1-2.33,19.69A3.58,3.58,0,0,0,157.09,193Z" fill="#575757"/><path d="M159,70.25c0-2.76,0-5.54-.13-8.3a20.51,20.51,0,0,0-1-6.39c0-.26,0-.52,0-.78,0-3.31,0-6.6-.3-9.9-.13-1.74-.26-3.49-.34-5.23l0-.68a2.14,2.14,0,0,0,.66-.77,4.34,4.34,0,0,0,.47-1.6v-.47c0,.72.09-.72.11-1a4,4,0,0,0,0-.77,3.32,3.32,0,0,0-.9-2.18,3.11,3.11,0,0,0-5.15,1.36,5.49,5.49,0,0,0,1.06,5.11c0,.23,0,.46,0,.68s0,.39-.05.58c-.47,2-.69,4.1-1,6.11-.59,3.32-1.23,6.59-1.64,9.94-.24,1.9-.42,3.82-.58,5.73-.16,1-.29,2-.44,3-.7,4.56-1.75,9.36-1.63,14a15,15,0,0,0,1.56,6.45,11.35,11.35,0,0,0,4,4.45c2.13,1.34,4.58-.45,4.72-2.71.08-1.19.14-2.37.21-3.55C158.87,79,159,74.6,159,70.25Z" fill="#3e4268"/><path d="M192.16,117.58c.13.77.32,1.53.37,2.19,0,.12,0,.26,0,.39-2.29.29-4.57.7-6.84,1.18a16,16,0,0,1-.18-2,7,7,0,0,1,.05-.91c.19-1.63,1-3.14,1.09-4.76a1.3,1.3,0,0,0-1.94-1.11,4.34,4.34,0,0,0-1.42,1.15,10.36,10.36,0,0,0-1.85,4.1,13.26,13.26,0,0,0-.35,4.13,8,8,0,0,0-3.05,1.83c-2.79,2.7-2.93,6.33-1.34,9.7a5.26,5.26,0,0,0,.38.65l.05.68c.1,1.19.19,2.38.28,3.56,0,1.36,0,2.72-.08,4.07-.1,4.61-.08,9.22-.1,13.84a6.3,6.3,0,0,0,5.71,6.18c.17,0,.35,0,.53.06a34.23,34.23,0,0,0,11.66-1.17,9.84,9.84,0,0,0,6-4.74,19.49,19.49,0,0,0,1.75-5.87,196,196,0,0,0,2.4-23.57,7.57,7.57,0,0,0-7.51-7.51l-.59,0c-.1-.47-.21-.91-.31-1.3a9.56,9.56,0,0,0-1.53-3.43,2.06,2.06,0,0,0-2.28-.79,1.27,1.27,0,0,0-.42.29A3.4,3.4,0,0,0,192.16,117.58Z" fill="#825748"/><path d="M52.56,18.38c-.14-2.21-.27-4.86,1.11-6.75A4.36,4.36,0,0,1,56,10l.28-.05A4.39,4.39,0,0,0,59,11.44c.9.19,1.8.3,2.68.57s1.95.82,3,1.2a2.58,2.58,0,0,0,1.36.13c2.28-.41,3.87-3.85,1.76-5.48a12.23,12.23,0,0,0-8.33-2.57,5.6,5.6,0,0,0-2.16.62h0c-.35.08-.7.16-1,.26-1.4.39-3.65,1.56-3.82,3.2l0,0c-2.42,2.28-2.65,5.89-2.55,9A1.43,1.43,0,0,0,52,19.54,1.15,1.15,0,0,0,52.56,18.38Z" fill="#603d33"/><path d="M120.66,29a3.2,3.2,0,0,0,4.15,1.28,21.33,21.33,0,0,1,.43,2.14c.12.88.21,1.78.28,2.67a2.38,2.38,0,0,0-3.15,1.08c-1.42,2.87.1,6.52,2.07,8.77a17.09,17.09,0,0,0,1.88,1.82,11,11,0,0,0,1,.73l.32.23c.73.54,1.33,1.08,2.14,1.64a2,2,0,0,0,1.51.32,18.16,18.16,0,0,1,.76,7.71,1.57,1.57,0,0,0,1.45,1.77,1.13,1.13,0,0,0,1.28-1,22.62,22.62,0,0,0-1.34-11.71,6.44,6.44,0,0,0-1.17-2.92c-.49-1.11-1-2.21-1.48-3.31-.42-.94-.79-1.9-1.23-2.83-.14-.31-.31-.61-.48-.91,0-.14,0-.28,0-.41A35.21,35.21,0,0,0,128.6,32c-.35-2.28-.74-5.73-2.71-7.25l-.15-.1a10.59,10.59,0,0,0-6.25-3.81c-3.06-.6-7.51-.57-9.79,1.94a2.3,2.3,0,0,0,.46,3.57,5.6,5.6,0,0,0,1.28.47C114.63,27.58,118.88,26.16,120.66,29Z" fill="#654335"/><path d="M105.18,71.27,104.82,68,104,60.92c-.38-3.4-1.05-6.43-4-8.53-2.18-1.55-5.74.5-5.5,3.15.22,2.43.47,4.86.72,7.29.13,1.28.25,2.55.45,3.82s.73,2.35,1,3.58a1.89,1.89,0,0,0,.18.52,2.43,2.43,0,0,0,1.27,1.07A3.48,3.48,0,0,0,103,74.55a3.94,3.94,0,0,0,1.92-1.77A2.68,2.68,0,0,0,105.18,71.27Z" fill="#6a8d95"/><path d="M119.82,190.34a26.76,26.76,0,0,1-2.08,3.83c-.21.32-.44.64-.67,1l-.39.43-.27.27a4.47,4.47,0,0,0-1.71,0l-.12,0h-.16c-.28,0-.55,0-.82,0l-.84.11c-.79.41-1,.46-.56.17a1.9,1.9,0,0,0-.46.15,2.88,2.88,0,0,0-.22,5c-.38-.23-.22-.09.49.41a2.58,2.58,0,0,0,1.07.37,5.92,5.92,0,0,0,1.83.11,4.31,4.31,0,0,0,3.57-1.9c.09-.15.15-.28.2-.37l.31-.24a7.63,7.63,0,0,0,.73-.66,7.38,7.38,0,0,0,.89-1.19c.36-.49.68-1,1-1.45l.42-.68c.06.62.14,1.25.25,1.88.4,2.27,3.68,1.55,3.82-.51.13-1.89.09-3.78.17-5.68,0-.9.2-1.87.29-2.84a8.27,8.27,0,0,0-.12-2.82,1.8,1.8,0,0,0-.47-.83c.15-1,.26-2,.32-3,.15-2.82-4.14-2.77-4.36,0a26,26,0,0,1-.81,4.69A25.56,25.56,0,0,1,119.82,190.34Z" fill="#5f0a66"/><path d="M111.32,193.56a2.66,2.66,0,0,0-1.26-1.93,3.28,3.28,0,0,0-2.06-.49,3,3,0,0,0-2,.82,2.81,2.81,0,0,0,0,4,2.9,2.9,0,0,0,2,.82,4.18,4.18,0,0,0,1.17-.1,4.4,4.4,0,0,0,1.43-.87A2.51,2.51,0,0,0,111.32,193.56Z" fill="#5f0a66"/><path d="M260.25,111.7a6.05,6.05,0,0,0,.82,3.72,6,6,0,0,0,2.28,1.57c1.41.68,3.34,1.25,4.32,0a3.25,3.25,0,0,0,.41-2.44,37.08,37.08,0,0,0-2.3-8.17,5.63,5.63,0,0,0-1.88-3C259,100.21,260.24,109.66,260.25,111.7Z" fill="#f9ddbe"/><path d="M240.27,31.52a1.88,1.88,0,0,0-.1-.19A1.74,1.74,0,0,1,240.27,31.52Z" fill="none"/><path d="M240.81,48.89c.24.75.46,1.51.65,2.28l0,.12c.11-.34.22-.68.34-1l-.44-.58C241.19,49.43,241,49.16,240.81,48.89Z" fill="none"/><path d="M220.54,24.73l0-.06-.08.12Z" fill="none"/><path d="M220.5,24.79l0,0,0,.05Z" fill="none"/><path d="M233.86,162c-1.15,3.19-2.3,6.37-3.43,9.57-1,2.68-1.89,5.36-2.85,8l5.07.31,7.08.4c-1.69-7.21-3-14.5-4.52-21.75C234.74,159.73,234.28,160.87,233.86,162Z" fill="none"/><path d="M246.93,200.09a3.37,3.37,0,0,1,1.18-1.86,3.37,3.37,0,0,1-2.33-.34,9.93,9.93,0,0,1,1,1.7A2.24,2.24,0,0,1,246.93,200.09Z" fill="#c2c0bf"/><path d="M224.93,26.86l-.12.12Z" fill="#f2b991"/><path d="M224.51,27.21l-.08,0C224.06,27.34,224.2,27.39,224.51,27.21Z" fill="#f2b991"/><path d="M226.61,48.32q1.71,2.7,3.41,5.4c2.69,4.32,5.35,8.66,8,13a86.24,86.24,0,0,1,3.43-15.41l0-.12c-.19-.77-.41-1.53-.65-2.28a36.67,36.67,0,0,1-3.54-7c-.52-1.29-.92-2.65-1.32-4-.21-.69-.44-1.37-.6-2.07a15.32,15.32,0,0,1-.34-2.42,18,18,0,0,0-.78-2.39c-.28-.78-.58-1.55-.89-2.32a22.09,22.09,0,0,0-1.68-3l.23.3c-.3-.4-.57-.8-.84-1.21l-.88.1a13.49,13.49,0,0,0-2.65.72c-.45.2-.88.42-1.31.66-.27.16-.52.34-.79.5a4.05,4.05,0,0,1-.83.35c-.12.11-.24.21-.34.32a3.07,3.07,0,0,0-.25.26l-.07.09A10.54,10.54,0,0,0,223,29.4c-.07.13-.12.29-.2.42l0-.06c.09-.19.25-.43,0,0l0,.06a7.81,7.81,0,0,0-.26.82c-.08.3-.15.61-.21.92a.77.77,0,0,1,0,.15v0c0,.17,0,.33-.05.49,0,.37,0,.76,0,1.13,0,.17,0,.33,0,.49s0,.11,0,.17a1.78,1.78,0,0,1,.07.47c0,.22.06.43.1.64s.06.32.08.48a.69.69,0,0,1,0,.16c.12.21.22.43.32.65,1.11,1.63,1,3.73.66,5.62a9.76,9.76,0,0,1-.36,1.51q.52,1.55,1.14,3.06A4.16,4.16,0,0,1,226.61,48.32Z" fill="#f9ddbe"/><path d="M207.64,112.71a1.54,1.54,0,0,1-.43-.17,2.55,2.55,0,0,0-.59.46,3.5,3.5,0,0,0-1,2.44,9,9,0,0,0,.31,1.69c.16.73.4,1.44.59,2.16s.42,1.43.64,2.15a9.46,9.46,0,0,0,1,2.39,2,2,0,0,0,2,1,2,2,0,0,0,1.67-1.44,10.48,10.48,0,0,0,.21-1.46,6.88,6.88,0,0,0,0-1.11c-.05-.73-.07-1.47-.14-2.21-.09-.94-.14-1.86-.27-2.8-.05-.34-.07-.69-.14-1a3.33,3.33,0,0,0-1.61-2.17,3.38,3.38,0,0,0-.44-.18A2.29,2.29,0,0,1,207.64,112.71Z" fill="#f9ddbe"/><path d="M243.55,103.93q1.55-.29,3.06-.63a4.18,4.18,0,0,0,2.47-1.9,4.61,4.61,0,0,0,.42-3.18c-.15-.76-.28-1.53-.39-2.29a83.24,83.24,0,0,1,.06-17.43c.08-.9.17-1.8.26-2.7h0c1.25,2.61,2.51,5.23,3.76,7.85a4,4,0,0,0,2.2,1.77c.56,2.16,1.13,4.32,1.69,6.48.45,1.76,1,3.49,1.45,5.25s.94,3.59,1.55,5.33a2.45,2.45,0,0,0,2.67,1.75,2.4,2.4,0,0,0,2.12-2.4c-.24-2-.61-3.91-1-5.86-.18-.86-.37-1.72-.54-2.58s-.29-1.8-.47-2.7q-1.11-5.3-2.2-10.61t-2.17-10.61c-.67-3.27-1.28-6.54-2.14-9.76a52.79,52.79,0,0,0-4.22-11.14,4,4,0,0,0-2.37-1.82,4.85,4.85,0,0,0-1.06-.12,4.47,4.47,0,0,0-2.71-.75l.46.77c.19.32.4.63.62.93l.17.24.11.13a11.57,11.57,0,0,1,1.05,1.37,4.21,4.21,0,0,1,.55,1.44,2.42,2.42,0,0,1-.61,2.29,2.46,2.46,0,0,1-2.29.6c-1.85-.29-3.12-1.93-4.22-3.39-.12.34-.23.68-.34,1a86.24,86.24,0,0,0-3.43,15.41c-2.69-4.32-5.35-8.66-8-13q-1.7-2.7-3.41-5.4a4.16,4.16,0,0,0-2.28-1.72,3.59,3.59,0,0,0-2.93.36c-2.18,1.33-4.36,2.66-6.56,4a6.64,6.64,0,0,0-1.4.95,4.34,4.34,0,0,0-1.11,3c0,.67-.08,1.35-.13,2-.09,1.23-.18,2.45-.28,3.68-.39,5-.87,10-1.43,15-.31,2.8-.66,5.6-1,8.4l.13-.93c-.29,2.08-.46,4.17-.69,6.25,0,.29-.08.59-.11.88l.11-.86c-.21,1.54-.41,3.09-.62,4.64-.3,1.92-.46,3.88-.7,5.81-.12.92-.19,1.84-.31,2.75.07-.55,0-.43-.05.36.05-.37.06-.42,0-.13s-.05.37-.08.55c-.06.46-.13.92-.2,1.38-.12.88-.25,1.77-.39,2.65,0,.24-.08.47-.11.71v0c0,.18-.05.36-.08.55-.08.48-.15,1-.23,1.46a2.33,2.33,0,0,0,.22,1.64,2.18,2.18,0,0,0,.84.81,1.54,1.54,0,0,0,.43.17,2.29,2.29,0,0,0,1.78-.31,2.06,2.06,0,0,0,.84-1.18c1-3.57,1.93-7.16,2.82-10.75.44-1.79.9-3.57,1.27-5.36s.7-3.61,1.06-5.41.75-3.6,1-5.41.55-3.71.8-5.56q.26-1.78.48-3.57a25.79,25.79,0,0,1,1.63,3.13s0,.11.08.17a29.24,29.24,0,0,1,1.74,6.36,29.43,29.43,0,0,1,0,6.7,27.61,27.61,0,0,1-1.61,5.94c-.23.51-.47,1-.73,1.51a4.18,4.18,0,0,0,0,4.15,4.07,4.07,0,0,0,2.92,1.95,4.71,4.71,0,0,1,1.8-.43Q233.53,104.25,243.55,103.93Z" fill="#373d60"/><path d="M217.79,182.37c-.15,1.07-.29,2.13-.43,3.2l-.15,1.15a5.79,5.79,0,0,0,.22,1.9l.23.23a3,3,0,0,1,1.79,0,5.77,5.77,0,0,1,3.09,2.81,1.29,1.29,0,0,0,.16-.17,6.56,6.56,0,0,0,1-1.38c.27-.57.51-1.14.73-1.73.31-.79.61-1.58.9-2.38l1.74-4.78c.18-.52.37-1,.55-1.55,1-2.67,1.9-5.35,2.85-8,1.13-3.2,2.28-6.38,3.43-9.57.42-1.16.88-2.3,1.35-3.44,1.51,7.25,2.83,14.54,4.52,21.75.12.53.25,1.06.37,1.59a133.57,133.57,0,0,0,4.14,14,4,4,0,0,0,.66,1.22,2.29,2.29,0,0,1,.87.72v0a3.37,3.37,0,0,0,2.33.34l.32-.23a2.72,2.72,0,0,1,.9-.37,3.28,3.28,0,0,0,1.19-3.44q-1.64-6.67-3-13.42-1.09-5.58-2-11.2c-.33-2.14-.65-4.28-.94-6.43-.15-1.12-.29-2.25-.41-3.37,0-.37,0-.73-.07-1.1-.11-1.39-.27-2.77-.44-4.16q-.22-2.83-.37-5.68a142.14,142.14,0,0,1-.07-14.45c.14-2.66.37-5.3.71-7.94.05-.3.09-.61.13-.91l-.13,1a82.06,82.06,0,0,1,1.9-8.88A73.69,73.69,0,0,1,248.7,109a3.77,3.77,0,0,0-.72-3.49,3.84,3.84,0,0,0-3.14-1.58l-1.29,0q-10,.31-20,.71a4.71,4.71,0,0,0-1.8.43l-.33.18a2.44,2.44,0,0,0-1-.19,2.79,2.79,0,0,0-2.73,2.73,17.15,17.15,0,0,0,.17,2.87,14.71,14.71,0,0,0,.95,3.91c.41,1.19.92,2.37,1.45,3.52a31.77,31.77,0,0,0,2.08,3.8c.69,1.19,1.38,2.37,2,3.57q1.84,3.41,3.37,7,1.26,3.06,2.31,6.18c-1.11,4.67-2.77,9.22-4.3,13.77q-3.18,9.44-5.59,19.11c-.63,2.53-1.28,5.09-1.8,7.67-.23,1.14-.43,2.28-.59,3.43Z" fill="#54222b"/><path d="M221.19,197.85l-.15-.12A.32.32,0,0,0,221.19,197.85Z" fill="#f2b991"/><path d="M219.45,188.81a3,3,0,0,0-1.79,0,2.47,2.47,0,0,1,.44.75,10.66,10.66,0,0,1,.26,1.48l0-.24c0,.09,0,.19,0,.28s.07.37.11.56a16,16,0,0,0,.51,1.92c.1.32.22.63.32.94l.12.41a2.92,2.92,0,0,1,.13.39,12.58,12.58,0,0,0,.87,1.57c.17.28.4.55.54.84-.13-.28-.06-.16.05,0l.21.11a4.25,4.25,0,0,1,.46.27,4.06,4.06,0,0,0,.39.32l-.07,0c.42.33.28.22.07,0l1.07.89c.13.11.69.55,0,0l.75.59.06,0,.07.05a2.55,2.55,0,0,0,.13-.29,3.33,3.33,0,0,0,.25-2.29,1.85,1.85,0,0,0,0-.23c-.05-.28,0-.21.06.2l0-.29c0-.29-.07-.57-.12-.85a9.22,9.22,0,0,0-.58-2.07,19.3,19.3,0,0,0-1.19-2.59A5.77,5.77,0,0,0,219.45,188.81Z" fill="#f9ddbe"/><path d="M251.79,204.43h0Z" fill="#f2b991"/><path d="M251.72,204.4h0Z" fill="#f2b991"/><path d="M248.11,198.23a3.37,3.37,0,0,0-1.18,1.86,1.6,1.6,0,0,1-.09.87,3.6,3.6,0,0,0,.42,1.49q.23.42.48.84A1.59,1.59,0,0,1,248,203a1.48,1.48,0,0,1,2,.11,6.55,6.55,0,0,0,.75.74l.1.07.21.13q.25.15.51.27l.16.08.05,0,.25.09.11,0h.33l.5,0a10.76,10.76,0,0,0,1.14,0l.5,0,.08,0a1.88,1.88,0,0,0-.07-.91s0-.06,0-.08a2.41,2.41,0,0,0-.09-.64c0-.14-.11-.28-.15-.42-.11-.31-.2-.63-.31-.94a12.68,12.68,0,0,0-1.17-2.4,3.39,3.39,0,0,0-3.54-1.54,2.72,2.72,0,0,0-.9.37Z" fill="#f9ddbe"/><path d="M223.93,199.93l-.75-.59c.66.51.1.07,0,0l-1.07-.89a4.06,4.06,0,0,1-.39-.32,4.25,4.25,0,0,0-.46-.27l-.21-.11c-.11-.12-.18-.24-.05,0-.14-.29-.37-.56-.54-.84a12.58,12.58,0,0,1-.87-1.57,2.92,2.92,0,0,0-.13-.39l-.12-.41c-.1-.31-.22-.62-.32-.94a16,16,0,0,1-.51-1.92c0-.19-.08-.37-.11-.56s0-.19,0-.28l0,.24a10.66,10.66,0,0,0-.26-1.48,2.47,2.47,0,0,0-.44-.75l-.23-.23a1.61,1.61,0,0,0-1.12-.39,1.89,1.89,0,0,0-1.78,1.37,4.23,4.23,0,0,0-.1,1.42,1.72,1.72,0,0,0-.59,1.21c-.08.92,0,1.86,0,2.79l0,2.78a1.56,1.56,0,0,0,3,.54c.1.16.19.32.29.47.2.32.45.62.63.95a1.83,1.83,0,0,1,.14.32l.06.22a7.05,7.05,0,0,0,1.58,2.55,12.58,12.58,0,0,0,1.54,1.47,5.52,5.52,0,0,0,1.86,1.15,3.73,3.73,0,0,0,2,0,2.23,2.23,0,0,0,1.51-2.66,4.18,4.18,0,0,0-.93-1.67,5.46,5.46,0,0,0-1.2-.92l-.3-.22L224,200Zm-2.74-2.08a.32.32,0,0,1-.15-.12Z" fill="#745477"/><path d="M222,198.36l.07,0C222.29,198.58,222.43,198.69,222,198.36Z" fill="#745477"/><path d="M246.93,200.09a2.24,2.24,0,0,0-.16-.5,9.93,9.93,0,0,0-1-1.7v0a2.29,2.29,0,0,0-.87-.72,1.67,1.67,0,0,0-1.35,0,1.76,1.76,0,0,0-1,2.09c.33,1,.55,1.44.92,2.42a1.73,1.73,0,0,0,2.08,1.18,1.77,1.77,0,0,0,1.24-1.72,1,1,0,0,0,.07-.15A1.6,1.6,0,0,0,246.93,200.09Z" fill="#745477"/><path d="M251.77,204.42l-.05,0h.05Z" fill="#745477"/><path d="M254.1,204.6a10.76,10.76,0,0,1-1.14,0l-.5,0h-.33l-.11,0-.25-.09h0l0,0h0l-.16-.08q-.26-.12-.51-.27l-.21-.13-.1-.07a6.55,6.55,0,0,1-.75-.74,1.48,1.48,0,0,0-2-.11,1.59,1.59,0,0,0-.29.29,1.47,1.47,0,0,0-.09,1.63,7.4,7.4,0,0,0,1.75,2,8.06,8.06,0,0,0,1.26.83c.35.18.65.43,1,.59a7.51,7.51,0,0,0,6.31-.42,2.14,2.14,0,0,0,1.07-1.85V206a2,2,0,0,0-1-1.76,2.18,2.18,0,0,0-2-.14l-.43.19-.07,0-.06,0-.24.08-.55.14h0l-.08,0Z" fill="#745477"/><path d="M220.58,24.67c.07-.1.1-.18-.12.16l0,0Z" fill="#ce6f53"/><path d="M222.85,29.76c.25-.43.09-.19,0,0Z" fill="#ce6f53"/><path d="M222.89,36.41c-.1-.22-.2-.44-.32-.65a.69.69,0,0,0,0-.16c0-.16-.06-.32-.08-.48s-.07-.42-.1-.64a1.78,1.78,0,0,0-.07-.47c0-.06,0-.11,0-.17s0-.32,0-.49c0-.37,0-.76,0-1.13,0-.16,0-.32.05-.49v0a.77.77,0,0,0,0-.15c.06-.31.13-.62.21-.92a7.81,7.81,0,0,1,.26-.82l0-.06,0,.06c.08-.13.13-.29.2-.42a10.54,10.54,0,0,1,.92-1.55l.07-.09a3.07,3.07,0,0,1,.25-.26c.1-.11.22-.21.34-.32a4.05,4.05,0,0,0,.83-.35c.27-.16.52-.34.79-.5.43-.24.86-.46,1.31-.66a13.49,13.49,0,0,1,2.65-.72l.88-.1c.27.41.54.81.84,1.21l-.23-.3a22.09,22.09,0,0,1,1.68,3c.31.77.61,1.54.89,2.32a18,18,0,0,1,.78,2.39,15.32,15.32,0,0,0,.34,2.42c.16.7.39,1.38.6,2.07.4,1.33.8,2.69,1.32,4a36.67,36.67,0,0,0,3.54,7c.19.27.38.54.58.8l.44.58c1.1,1.46,2.37,3.1,4.22,3.39a2.46,2.46,0,0,0,2.29-.6,2.42,2.42,0,0,0,.61-2.29,4.21,4.21,0,0,0-.55-1.44A11.57,11.57,0,0,0,247.35,48l-.11-.13-.17-.24c-.22-.3-.43-.61-.62-.93l-.46-.77c-.52-.9-1-1.82-1.41-2.76-1.07-2.71-2-5.51-2.82-8.29a11.07,11.07,0,0,0-1.15-2.72c-.12-.19-.22-.38-.32-.57.13.26,0-.12-.1-.32s-.13-.44-.2-.66c-.44-1.46-.92-2.9-1.47-4.32a36,36,0,0,0-2.22-5.41,3.43,3.43,0,0,0-3.89-1.48,3.24,3.24,0,0,0-1.24-.41,5.49,5.49,0,0,0-1.46,0,11.48,11.48,0,0,0-2.68.54,13.78,13.78,0,0,0-4.64,2.77,3.43,3.43,0,0,0-.91,1.16c0,.08-.08.17-.13.26l-.19.28c-.2.24-.39.48-.58.73h0l0,.06,0,.06-.07.09,0-.05c-.29.36-.57.74-.83,1.13a12.15,12.15,0,0,0-1.77,4.29,24,24,0,0,0-.32,3.27c0,.86-.12,1.71-.16,2.57l0,.11c-.07.17-.14.35-.2.52a4.62,4.62,0,0,0-.46,1.08,11,11,0,0,0-.24,1.83c-.06.5-.07,1-.1,1.51s-.21,1-.29,1.52l.06-.48a10.93,10.93,0,0,0-.22,1.61v.15l-.21.4-.21.35a.9.9,0,0,0-.07.11c-.37.43-.73.87-1.13,1.27-.21.21-.44.4-.66.59l-.12.07c-.12.08-.25.14-.38.21-.29.15-.59.29-.88.42l0,0-.07,0-.52.19a1.7,1.7,0,1,0,.9,3.28,27.39,27.39,0,0,0,4.13-1.28,9.78,9.78,0,0,0,2.23-1.14c.71-.51,1.34-1.08,2-1.65.22-.16.43-.33.64-.51l-.3.23a5.4,5.4,0,0,0,1.25-1.35,5.8,5.8,0,0,0,.66-1.4,2.25,2.25,0,0,0,.08-.24,9.76,9.76,0,0,0,.36-1.51C223.85,40.14,224,38,222.89,36.41Zm1.54-9.18.08,0C224.2,27.39,224.06,27.34,224.43,27.23Zm.38-.25.12-.12Zm15.46,4.54a1.74,1.74,0,0,0-.1-.19A1.88,1.88,0,0,1,240.27,31.52Z" fill="#ce6f53"/><path d="M204.67,116.49l0,.24a8.72,8.72,0,0,0,1.05,3.78,6.83,6.83,0,0,1,.45,1.27,6.24,6.24,0,0,0,1.7,2.76,2.87,2.87,0,0,0,2.95.54.44.44,0,0,0,.3-.39,5.7,5.7,0,0,0-.75-2.79,8.1,8.1,0,0,1-.59-1.49l.19.13a3.17,3.17,0,0,1,.55.42.45.45,0,0,0,.35.13.43.43,0,0,0,.33-.17c1.07-1.41.7-7.85-.86-9.13-.81-.66-2-.52-3.24-.38a15.09,15.09,0,0,1-1.61.12,65.37,65.37,0,0,1,.37-10.34c.51-3,1.12-6,1.72-9,1.88-9.33,3.81-19,3-28.3-.08-.91-.28-2-.49-3.12-.58-3.08-1.29-6.91.14-9.08,1.22-1.85,3.23-2.27,5.37-2.71a12.66,12.66,0,0,0,4.35-1.47c2.36-1.51,3.25-4.11,2.7-7.94a11.52,11.52,0,0,0,3,4.53.44.44,0,0,0-.33.11A7.84,7.84,0,0,0,224,45.63a3.61,3.61,0,0,1-1.81,1.44.45.45,0,0,0-.24.57c.61,1.53,0,3.82-.57,5.84a23.18,23.18,0,0,0-.62,2.58.45.45,0,0,0,.21.45c1.1.66,2.55,0,3.83-.65l.49-.23a20.73,20.73,0,0,1-1.51,1.91,20.24,20.24,0,0,0-1.59,2,.45.45,0,0,0-.07.34.5.5,0,0,0,.2.29,61.12,61.12,0,0,0,6.7,3.3,52.83,52.83,0,0,1,7.25,3.64c2.71,1.74,2.59,3,2.29,6.21,0,.35-.07.72-.1,1.11-.16,1.8-.35,3.59-.54,5.33a85.58,85.58,0,0,0-.72,14.68c.09,1.52.23,3.06.36,4.56.1,1.21.21,2.45.29,3.68a73.41,73.41,0,0,1-13.54-.61L223,102c-2.38-.19-6.82-.54-7.48-2.46-.34-1,.39-2.33,1-3.42.2-.38.4-.74.53-1.06a28.33,28.33,0,0,0,1.8-18c-.09-.39-.4-1.22-.82-2.37-.26-.7-.58-1.59-.93-2.58a51.79,51.79,0,0,0-1.25-11.35.45.45,0,0,0-.48-.34,1.44,1.44,0,0,0-1.1.69c-1.06,1.69.27,6.34,1.95,11.15a140.62,140.62,0,0,1-1.1,17,31.3,31.3,0,0,1-2.75,10.19c-.24.5-.52,1-.82,1.59-1.27,2.38-2.71,5.08-1.68,7.57a.43.43,0,0,0,.35.27.46.46,0,0,0,.41-.17,9,9,0,0,0,1.44-3.84,8.26,8.26,0,0,0,1.12.58c-.63,7.86,3.55,15.34,8.22,22.29a51.39,51.39,0,0,1,4.68,8.5c.85,2.09.35,4.41-.12,6.65-.06.28-.12.55-.17.82a78.48,78.48,0,0,1-3.86,12.12,97.09,97.09,0,0,0-3.35,9.92,33.7,33.7,0,0,0-.84,6.59c-.08,1.39-.17,2.82-.37,4.23a18.78,18.78,0,0,1-1,3.53,15.84,15.84,0,0,0-1.12,4.28c-.16,2.67,1.44,3.33,3.14,4a13.24,13.24,0,0,1,1.9.92,8.72,8.72,0,0,1,2.76,2.78c-1.16.29-2.68-1-4.16-2.18s-2.75-2.26-3.87-2a1.76,1.76,0,0,0-1.19,1.06c-.57,1.16-.21,3.12.15,5a13.27,13.27,0,0,1,.38,3.45,16.61,16.61,0,0,1-.37,1.95,8.85,8.85,0,0,0-.19,4.76.45.45,0,0,0,.23.26.43.43,0,0,0,.35,0c1.79-.67,2.13-2.78,2.46-4.81a12.3,12.3,0,0,1,.64-2.7,7.05,7.05,0,0,1,.08,3.12c-.17,1.51-.34,3.08.65,4.34.83,1.07,2.75,1.63,4.29,1.72a4.74,4.74,0,0,0,3.62-1,2.85,2.85,0,0,0,1-2.46c-.25-1.53-2.19-2.5-3.9-3.36l-.78-.39a4.39,4.39,0,0,0,2.27-.69.5.5,0,0,0,.18-.27,8.38,8.38,0,0,0-.71-5.44c.51-.61.63-1.88.73-3.57a11.64,11.64,0,0,1,.12-1.29,58.33,58.33,0,0,1,2.34-7.33c.51-1.39,1-2.83,1.49-4.25.24-.76.49-1.52.74-2.29a68.53,68.53,0,0,0,3.2-12.49c.88,3.31,1.7,6.68,2.31,10.05A74.88,74.88,0,0,0,240,187.71a23.37,23.37,0,0,1,1.17,4.37,18.76,18.76,0,0,0,1.59,5.3,8.93,8.93,0,0,0,.24,4.1c.5,1.61,1.4,2.55,2.47,2.58a.48.48,0,0,0,.32-.13.44.44,0,0,0,.13-.31,3.44,3.44,0,0,1,.16-.8l.06-.21a8,8,0,0,1,1,2.47c.49,1.68,1,3.42,3.31,3.91,3.29.7,6.41-.35,7.26-2.43.3-.74.67-2.63-2.07-4.57-.28-2.37-1.5-5-2.79-5.86l-.61-1.71a.44.44,0,0,0-.45-.3.45.45,0,0,0-.4.36,2.06,2.06,0,0,1-.28.7c-.05-.85,0-1.78,0-2.82,0-.43,0-.89,0-1.36v0l-.24-2.88s0,0,0-.07c-.93-3.79-2.07-7.42-3.34-11.43a46.71,46.71,0,0,1-2.36-15c0-.95.08-1.93.14-2.88a23.46,23.46,0,0,0-.43-8.09c-1-3.39-4-16.94-6-26.79.25.88.5,1.75.73,2.59,2.38,8.4,2.4,8.42,2.47,8.53a.41.41,0,0,0,.4.2.44.44,0,0,0,.38-.26,24,24,0,0,0,1.1-3.27,17.48,17.48,0,0,1,1.32-3.58c2.26-4.62,4.61-10.13,4.88-16,0-1,0-1.93,0-2.86a32.88,32.88,0,0,1,.17-4.43.47.47,0,0,0-.15-.39.45.45,0,0,0-.4-.1c-.88.23-1.76.5-2.69.79-2.72.84-5.52,1.71-8.17,1.39,0-1-.06-2-.12-2.92,5.09-.41,9.12-1.6,12.17-3.59a.46.46,0,0,0,.2-.43c-.25-1.87-.58-3.78-.9-5.62A92.33,92.33,0,0,1,249,84.65c-.33-5,.94-8.94,2.64-13.58a38.8,38.8,0,0,0,2-7.57c.08.39.17.78.26,1.17,1.1,4.64,2.42,9.3,3.7,13.81,1.34,4.77,2.74,9.7,3.87,14.61a84.84,84.84,0,0,0,3.24,10.09c.09.26.19.51.28.77-2.32.4-3.73-.31-4.71-1.64-.11-10.67-3.06-18.34-9.18-24a.42.42,0,0,0-.38-.11.45.45,0,0,0-.32.22c-1.22,2.31,1.59,7.43,3.84,11.54.8,1.45,1.48,2.71,1.85,3.58a34.28,34.28,0,0,1,1.23,3.75,19.74,19.74,0,0,0,2.08,5.32c0,.71,0,1.44,0,2.18,0,.51-.05,1.13-.1,1.84-.23,3.78-.57,9.51,1.89,11.44a.41.41,0,0,0,.4.07.42.42,0,0,0,.29-.29,14.91,14.91,0,0,0,.46-2,9,9,0,0,1,1.08-3.38c.51.76.27,1.86,0,3-.32,1.49-.69,3.19,1.08,3.78a2.61,2.61,0,0,0,2.79-.46c1.68-1.57,1.59-5.4,1.17-7-.69-2.67-1.62-5.29-2.55-7.85.61-3.66-.46-8.3-1.4-12.43-.41-1.77-.79-3.45-1-4.93-.11-.7-.21-1.4-.31-2.11a46.34,46.34,0,0,0-1.93-9.14A137.94,137.94,0,0,1,256,54.42c-.68-3.57-1.62-5.47-3.32-6.75a2.56,2.56,0,0,1,.07-.36l-.51-.14A.71.71,0,0,1,252,47l0,.13a24.8,24.8,0,0,0-5-2,.44.44,0,0,0-.43.75,18.85,18.85,0,0,1,6,9.38c.15,1.7.33,3.29.57,4.82a32.28,32.28,0,0,1-2.21,10.66c-1.73,4.75-3,8.78-2.69,13.95a90.12,90.12,0,0,0,1.27,9.3c.3,1.74.61,3.54.85,5.31-2.9,1.82-6.71,2.92-11.51,3.3-.08-1.24-.19-2.48-.29-3.7-.13-1.49-.27-3-.36-4.53a86.2,86.2,0,0,1,.72-14.54c.19-1.74.38-3.54.54-5.35,0-.39.06-.75.1-1.1.3-3.22.47-5-2.7-7a54,54,0,0,0-7.36-3.71,64.19,64.19,0,0,1-6.19-3c.39-.54.83-1,1.25-1.54A14,14,0,0,0,226.68,55a.41.41,0,0,0-.05-.46.43.43,0,0,0-.44-.16,9.15,9.15,0,0,0-1.78.7,5,5,0,0,1-2.72.8c.13-.65.33-1.38.54-2.14.55-2,1.17-4.26.68-6a4.47,4.47,0,0,0,1.8-1.56,7.4,7.4,0,0,1,.84-1,16.49,16.49,0,0,1,2,3.95A22.38,22.38,0,0,0,229,52.26c4,6.84,7.49,11.57,10.27,14.06a.44.44,0,0,0,.52.05.44.44,0,0,0,.21-.48c-.86-3.65-.29-8,.26-12.22.21-1.67.44-3.38.57-5.05,2.2,2.58,5,4.67,8,4.88a.45.45,0,0,0,.43-.26.43.43,0,0,0-.08-.49c-1.47-1.55-2.33-3.88-3.17-6.13-.29-.8-.58-1.56-.88-2.27s-.59-1.37-.89-2.06a96.55,96.55,0,0,1-3.9-10c-.38-1.22-.66-2.52-.94-3.77a29.41,29.41,0,0,0-1.91-6.35c-.92-1.95-2-3.86-3.84-4.59a3.48,3.48,0,0,0-2.28-.09,3.35,3.35,0,0,1-1.1.11,8.28,8.28,0,0,1-1.42-.29,5.35,5.35,0,0,0-3.5,0c-3.72,1.22-5.85,5.13-7.55,8.71-1,2.16-1.4,5.07-1.8,8.15-.68,5.3-1.38,10.77-5.48,12.69a.43.43,0,0,0-.24.49.45.45,0,0,0,.43.35c5.66-.05,9.64-2.36,11.24-6.43.1,2.63-.7,4.4-2.44,5.52a12.23,12.23,0,0,1-4.06,1.35c-2.22.46-4.51.93-5.93,3.08-1.63,2.47-.88,6.5-.27,9.73.21,1.12.4,2.18.48,3,.84,9.2-1.08,18.78-2.95,28-.59,3-1.21,6.06-1.72,9a66.21,66.21,0,0,0-.4,9c0,1.94,0,3.91.08,5.85m43.71-69.36a15,15,0,0,1,3.4,1.52,21.24,21.24,0,0,0,.27,2.91c.06.37.1.71.13,1A20.36,20.36,0,0,0,248.41,46.58Zm-41.18,65.71c1.06-.13,2.06-.24,2.58.19,1,.81,1.51,5.72.92,7.48l-.25-.16a2.27,2.27,0,0,1-.82-.74.44.44,0,0,0-.83.17,5.66,5.66,0,0,0,.77,3,5.79,5.79,0,0,1,.67,2.06,2,2,0,0,1-1.8-.46c-1.89-1.62-2.68-6.55-2.92-11.46A15.09,15.09,0,0,0,207.23,112.29Zm32.15-58.73c-.49,3.78-1,7.68-.5,11.16-2.53-2.61-5.6-6.94-9.12-12.91a21.36,21.36,0,0,1-1.38-3,16.2,16.2,0,0,0-2.29-4.36,4.49,4.49,0,0,0,3.65.69c3.15-.74,5.11-4.61,6-8,.06.29.13.58.19.87a38.13,38.13,0,0,0,1.16,4.4A20.16,20.16,0,0,0,240,47.6C239.9,49.55,239.64,51.58,239.38,53.56Zm-8-28.53a12.17,12.17,0,0,1,1.23,1.33c1.65,2.23,2.73,3.9,2.79,6.5-.18-.46-.38-.91-.61-1.36a21.76,21.76,0,0,0-2.17-3.2c-1.27-1.66-2.57-3.36-2.91-5.18A12.84,12.84,0,0,0,231.42,25Zm-1.52-4a38.65,38.65,0,0,1,4.82,6.77c-.4-.63-.86-1.28-1.36-2a14.07,14.07,0,0,0-1.31-1.43C231,23.37,229.94,22.31,229.9,21Zm10.17,25.16a18.41,18.41,0,0,1-2.14-4.1,38.74,38.74,0,0,1-1.13-4.29c-.19-.89-.39-1.79-.63-2.69,0-.24.07-.47.09-.7a9.5,9.5,0,0,0-.73-5.1,42.17,42.17,0,0,1,4.39,13.88A22.58,22.58,0,0,1,240.07,46.18Zm-18-7.7a.43.43,0,0,0-.43.37c-.75,4.52-4.11,7.32-9.3,7.84,3.22-2.58,3.86-7.58,4.48-12.43.38-3,.75-5.86,1.72-7.89,1.62-3.41,3.63-7.14,7-8.25a4.51,4.51,0,0,1,3,0,8.36,8.36,0,0,0,1.57.32,4.17,4.17,0,0,0,1.37-.13,2.67,2.67,0,0,1,1.76.05c1.54.62,2.53,2.36,3.37,4.14a29.5,29.5,0,0,1,1.85,6.17c.28,1.27.57,2.58.95,3.84a98.83,98.83,0,0,0,3.94,10.1l.89,2.06c.29.69.57,1.44.87,2.23a22.88,22.88,0,0,0,2.59,5.51c-2.54-.63-5-2.7-6.83-5.09a24.31,24.31,0,0,0-.12-4.29,43.17,43.17,0,0,0-10.86-23.32.42.42,0,0,0-.42-.13.44.44,0,0,0-.33.3,3.28,3.28,0,0,0,.09,2.3.5.5,0,0,0-.29.09c-.57.41-1.14.8-1.7,1.17-3.25,2.21-6.31,4.3-6.17,9.18a21.76,21.76,0,0,0,1.14,5.86A.41.41,0,0,0,222.09,38.48Zm-.1-5.86c-.13-4.39,2.62-6.26,5.79-8.42.37-.25.75-.5,1.13-.77a14.42,14.42,0,0,0,3.05,5.4,21.73,21.73,0,0,1,2.09,3.07,17.29,17.29,0,0,1,1.22,3.25c-.58,3.6-2.58,8.37-5.73,9.11a3.68,3.68,0,0,1-3.2-.74C223.43,41.28,222.07,35.32,222,32.62Zm-7,29,.09-.12a46.76,46.76,0,0,1,1,7.7C215.09,66,214.31,62.66,215,61.57Zm9.08,135.92a4.87,4.87,0,0,1-3.15.33.44.44,0,0,0-.42.72,8,8,0,0,0,2.33,1.45c1.45.73,3.25,1.63,3.43,2.71a2.06,2.06,0,0,1-.8,1.7,3.92,3.92,0,0,1-2.94.76,5.46,5.46,0,0,1-3.65-1.37c-.76-1-.62-2.3-.46-3.7s.34-3.07-.58-4.39a.48.48,0,0,0-.35-.19h0a.43.43,0,0,0-.35.17,8.51,8.51,0,0,0-1.18,3.74c-.27,1.64-.52,3.21-1.46,3.9a9.21,9.21,0,0,1,.35-3.78c.15-.67.3-1.36.38-2a13.87,13.87,0,0,0-.39-3.72c-.32-1.66-.67-3.55-.23-4.45.25-.51.5-.57.58-.58.71-.16,1.94.85,3.13,1.83,1.66,1.37,3.52,2.91,5.15,2.3A7.6,7.6,0,0,1,224.06,197.49Zm22.05,3.79a.44.44,0,0,0-.73.37,2.62,2.62,0,0,1-.15.93c0,.16-.1.33-.14.51a3.22,3.22,0,0,1-1.26-1.87,8,8,0,0,1-.28-3.19l1.22-.1h.13l.59,1.33c.36.84.75,1.74,1.18,2.61A4.38,4.38,0,0,0,246.11,201.28Zm-2.38-4.15a2.62,2.62,0,0,1,.36-.79,7.75,7.75,0,0,1,.4.73Zm12,6c1.16,1,1.59,2.1,1.19,3.08-.59,1.46-3.09,2.57-6.25,1.9-1.81-.38-2.18-1.67-2.65-3.29-.11-.4-.23-.82-.38-1.23.95,1.58,2.08,2.87,3.49,3.23a4,4,0,0,0,3.47-1A3.39,3.39,0,0,0,255.7,203.15Zm-3.92-7.39.29.81a.42.42,0,0,0,.18.23c1,.59,2,2.58,2.39,4.52-2.28-1.57-3.12-3.07-3.42-5A2.84,2.84,0,0,0,251.78,195.76Zm2.95,6.69.07,0v.08a3,3,0,0,1-.77,2.61,3.09,3.09,0,0,1-2.71.8c-2.19-.56-3.76-4.17-5-7.08l-.46-1.05a13.07,13.07,0,0,0,4.58-1C250.83,198.92,251.92,200.66,254.73,202.45Zm-7.39-96.57c.7-.22,1.37-.43,2-.61-.12,1.31-.11,2.62-.1,3.9,0,.92,0,1.87,0,2.81-.26,5.7-2.57,11.11-4.8,15.65a18,18,0,0,0-1.37,3.73c-.16.61-.33,1.23-.6,2-.45-1.55-1.26-4.4-2.05-7.18-3.47-12.24-3.5-12.28-3.62-12.42a.44.44,0,0,0-.52-.11.45.45,0,0,0-.25.47c.83,5.23,6.56,31.8,8,36.75a22.6,22.6,0,0,1,.39,7.79c-.06,1-.12,1.94-.14,2.91a48.18,48.18,0,0,0,2.4,15.3c1.27,4,2.4,7.59,3.32,11.34l.23,2.83c0,.46,0,.9,0,1.33a31.79,31.79,0,0,0,.07,3.58,12,12,0,0,1-4.83,1.07,7.15,7.15,0,0,0-1-1.63.41.41,0,0,0-.33-.15.46.46,0,0,0-.25.08,2.25,2.25,0,0,0-.72.88,22.74,22.74,0,0,1-1.14-4.27,23.11,23.11,0,0,0-1.22-4.55A74.4,74.4,0,0,1,236,171.08c-.77-4.21-1.85-8.4-3-12.49,0-.19,0-.38,0-.56.11-5.13-.48-11.84-3.95-14.63a.45.45,0,0,0-.51,0,.45.45,0,0,0-.2.46c.88,4.29,2.05,8.58,3.18,12.74l.57,2.11c-.23,5.08-1.83,10-3.37,14.73-.25.76-.5,1.53-.74,2.29-.45,1.4-1,2.83-1.48,4.21a58.64,58.64,0,0,0-2.37,7.45,11.6,11.6,0,0,0-.14,1.42,13.69,13.69,0,0,1-.35,2.73,9.34,9.34,0,0,0-3-2.94,13,13,0,0,0-2-1c-1.64-.69-2.72-1.14-2.59-3.18a15,15,0,0,1,1.06-4,19.91,19.91,0,0,0,1.06-3.7c.21-1.45.3-2.9.38-4.3a34,34,0,0,1,.81-6.43,96.85,96.85,0,0,1,3.33-9.82,79.22,79.22,0,0,0,3.89-12.26c.06-.27.11-.54.17-.81.48-2.27,1-4.83.08-7.17a51.71,51.71,0,0,0-4.77-8.66c-4.52-6.73-8.57-14-8.09-21.44,6.09,2.29,19.18,3.68,22.08,1.34a1.79,1.79,0,0,0,.38-2.47.44.44,0,0,0-.28-.22.41.41,0,0,0-.34.06c-1.53,1-8.24.21-13.63-.39a69.14,69.14,0,0,0-8.46-.67.47.47,0,0,0-.42.37c0,.24-.07.47-.1.7a5.17,5.17,0,0,1-1.22-.76.47.47,0,0,0-.44-.09.46.46,0,0,0-.29.34l-.07.35a12.29,12.29,0,0,1-.82,3c-.24-1.88.88-4,1.89-5.86.31-.57.6-1.12.84-1.64A32.14,32.14,0,0,0,216,89.33c.55-4.87,1-9.85,1.09-14.64l.11.29c.4,1.09.71,1.94.79,2.28a27.43,27.43,0,0,1-1.75,17.4c-.12.28-.31.63-.5,1-.67,1.24-1.5,2.79-1,4.13.86,2.47,5.49,2.83,8.25,3l1.28.12a74.25,74.25,0,0,0,13.71.61c.07,1.09.11,2.17.13,3.25a.44.44,0,0,0,.37.43C241.36,107.73,244.4,106.79,247.34,105.88Zm-15.19,49.48c-.91-3.35-1.83-6.78-2.59-10.2C231.4,147.57,232,151.61,232.15,155.36ZM214.1,104.87c0-.19,0-.38.07-.57,1.72,0,4.76.32,8,.67,5.66.63,11.5,1.28,13.74.48a.82.82,0,0,1-.33,1c-1.37,1.11-6,1.35-11.73.64A43.62,43.62,0,0,1,214.1,104.87ZM258.17,97a35.36,35.36,0,0,0-1.26-3.85c-.39-.92-1.09-2.19-1.9-3.66-1.74-3.19-4.3-7.86-4-10.1,5.27,5.15,8,12,8.36,21.21A31,31,0,0,1,258.17,97Zm4.16-4.14C261.19,88,259.8,83,258.44,78.24c-1.27-4.5-2.58-9.15-3.68-13.78-.33-1.4-.61-2.83-.84-4.34a19.72,19.72,0,0,0-.61-5.11c-.07-.9-.14-1.84-.19-2.81,0-.32-.09-.78-.16-1.32s-.2-1.35-.24-2.05c1.2,1.16,1.89,2.85,2.44,5.75a138.78,138.78,0,0,0,5.26,21,47,47,0,0,1,1.89,9c.1.71.2,1.41.31,2.12.23,1.51.62,3.2,1,5,.77,3.38,1.63,7.13,1.55,10.31A77.13,77.13,0,0,1,262.33,92.89Zm4.35,25.2a1.74,1.74,0,0,1-1.89.27c-.93-.31-.87-1.08-.51-2.76.32-1.46.68-3.12-.62-4.22a.43.43,0,0,0-.28-.11.44.44,0,0,0-.33.15,8.19,8.19,0,0,0-1.6,4.21c-.07.41-.15.82-.23,1.2-1.54-2.1-1.24-7.08-1.06-10.17,0-.72.09-1.34.1-1.86s0-.77,0-1.15a5.39,5.39,0,0,0,5,1.15c.85,2.34,1.68,4.73,2.3,7.15C268,113.4,268,116.87,266.68,118.09Z" fill="#231f20"/><path d="M176.84,210.12a3.89,3.89,0,0,1-.51,0,2.87,2.87,0,0,1-2.35-1.56c-1.14-2.39,1.16-6.49,1.63-7.29a9.34,9.34,0,0,1,1.12-1.54c-1.8-1.38-2.4-3.93-3-6.4a24.78,24.78,0,0,0-1.3-4.31,43.57,43.57,0,0,1-4-18.36c0-.64,0-1.27,0-1.9q-.33,2.63-.84,5.2A75.4,75.4,0,0,0,166,185.28c0,.83,0,1.77.06,2.76.11,2.19.22,4.45-.52,6.11.23,0,.45,0,.66-.05a.43.43,0,0,1,.44.26,12.35,12.35,0,0,1,.32,4.87l0,.65a.42.42,0,0,1-.17.31.44.44,0,0,1-.35.07,20.82,20.82,0,0,0-4.84-.2c-.91,0-1.78.05-2.53,0a5.5,5.5,0,0,0-3.88,1.22,21,21,0,0,1-2.34,1.34c-4.7,2.27-10.58,1-13.49-3H123.26a.46.46,0,0,1-.3.07c-.37-.05-.48-.06-.74-3.12-.12-1.39-.22-3-.23-3.5a10.72,10.72,0,0,1,1.1-5,11.8,11.8,0,0,1,1.16-1.75c.85-1.12,1.46-1.93,1-3.49a4.85,4.85,0,0,0-1.91-2.25,11.19,11.19,0,0,1-1.27-1.12c.07.74.16,1.49.25,2.25.31,2.59.63,5.26-.12,7.88a12,12,0,0,1-3.51,5.64,2.9,2.9,0,0,1,1,1.57,4.09,4.09,0,0,1-1.14,3.4,6.9,6.9,0,0,1-4.79,2.58c-2.92-.1-3.13-1.6-3.33-3a4.53,4.53,0,0,0-.9-2.52,3,3,0,0,0-.44-.43,11.49,11.49,0,0,1-4.36-.13l-26.82.34a.29.29,0,0,1-.16,0,14.25,14.25,0,0,0-4.08-.62,1.28,1.28,0,0,1,0,.56c-.37,1.44-2.88,2.06-5.17,1.93-4.2-.23-7-.53-9.53-3.4a3,3,0,0,1-2.38,1.32c-2.14.3-5.34-.47-5.7-2.42a3.88,3.88,0,0,1,.09-2.13A5.19,5.19,0,0,1,50,192a.44.44,0,0,1-.24-.37,72.62,72.62,0,0,1,.29-7.45c.15-2,.3-4.09.31-6.2a46.9,46.9,0,0,0-.82-7.52,41.16,41.16,0,0,1-.81-8.81c.52-10.73.73-21.58.67-33.95a69.1,69.1,0,0,0-2.75,14.75c-.14,2.71-.11,5.57-.08,8.35A107.56,107.56,0,0,1,46.33,162c-.15,1.65-.2,3.47-.26,5.4-.1,3.63-.2,7.39-1,10.34-.46,1.6-.93,3.12-1.39,4.58a74.73,74.73,0,0,0-2.84,11c-.09.56-.23,1.09-.36,1.6a13.66,13.66,0,0,0-.36,1.62.47.47,0,0,1-.24.32.43.43,0,0,1-.4,0c-3.73-2.35-4.53-8.45-5.11-12.9-.08-.61-.15-1.19-.23-1.72-.24-1.64-.54-3.33-.83-5a75.83,75.83,0,0,1-1.47-12.05c-.06-5.33,1.28-10.27,2.59-15.05,1.75-6.43,3.4-12.5,1.75-19.19a33.55,33.55,0,0,1,0-16.09.42.42,0,0,1,.66-.23c2.42,1.78,6.13,2.17,11.36,1.2a27.56,27.56,0,0,0,5.44-1.62,10.15,10.15,0,0,0,2.23-1.48,8.14,8.14,0,0,1,3-1.75.43.43,0,0,1,.48.27A16.47,16.47,0,0,0,62,115.77c1.68,2.18,3.26,4.24,2.27,8.14-.59,2.34-1.38,4.71-2.14,7A57.43,57.43,0,0,0,59,143.09a36.32,36.32,0,0,0,.79,9.73,57.27,57.27,0,0,1,.84,6.21,42.76,42.76,0,0,1-.79,9.71,60.83,60.83,0,0,0-.82,6.64c-.23,4.4,1.33,7.56,3.15,11.21a16,16,0,0,0,1.16,2c0-.09.06-.2.09-.31a8.11,8.11,0,0,0-.14-3.38c-.08-.48-.16-.93-.2-1.36a67.09,67.09,0,0,0-1.7-9.65,10,10,0,0,1,.71-6.79,20.31,20.31,0,0,0,1-3.24c.39-1.92-.24-3.8-.86-5.62a24.19,24.19,0,0,1-.72-2.38,20.66,20.66,0,0,1,.18-8.74c.7-3.62,1.54-7.19,2.36-10.64.44-1.83.89-3.72,1.31-5.6.14-.62.3-1.26.47-1.94,1-4,2.17-8.61-.61-11.46A20.06,20.06,0,0,0,63.65,116a8.56,8.56,0,0,1-2.86-3.48,11.74,11.74,0,0,1-.89-4.48,5.76,5.76,0,0,1-.09-3.66.42.42,0,0,1,.45-.26.43.43,0,0,1,.36.39c.05.74.07,1.48.08,2.19l0,1.16a11.16,11.16,0,0,0,1.7,3.3c1.42,1.91,3.09,2.93,4.58,2.8,2.34-.2,2.5-7.31,2.58-10.72,0-.66,0-1.23,0-1.68.15-3,.16-6,.16-9v-.47c-.34-1.85-.64-3.71-.81-5.52-.72-7.75-1.21-16.47.68-22.4a.42.42,0,0,1,.79,0c1.41,4,1,10.25.58,15.74-.09,1.3-.18,2.52-.23,3.64-.14,2.84-.16,5.69-.17,8.47.19,1,.4,2,.6,3a60.48,60.48,0,0,1,1.59,12.08,5.5,5.5,0,0,1,4.62.26,4.3,4.3,0,0,1,1.39,1.45c.37-3.07-.27-6.63-.89-10.08-.34-1.89-.65-3.67-.81-5.33-.57-6.39-2.44-23.69-2.6-24.38a72.43,72.43,0,0,1-2.63-15.75A19.22,19.22,0,0,1,72,51.12c.11-1.86.22-3.78-.69-5-.58-.76-2-1.32-3.33-1.81-.44-.17-.86-.33-1.24-.5a9.17,9.17,0,0,1,1.1,3.2.44.44,0,0,1-.16.39.42.42,0,0,1-.42,0,10.51,10.51,0,0,0-1.07-.33c-.22,0-.45-.11-.67-.18a12.55,12.55,0,0,0,1.81,2.82.39.39,0,0,1,0,.47c-.84,1.57-1.6,3.35-2.41,5.24-1.76,4.13-3.59,8.41-6.6,11.15a.43.43,0,0,1-.35.1,56,56,0,0,1,1.08,13.76L59,82.23A92.24,92.24,0,0,0,59,97.65c.73,6.41-.09,11.11-2.44,14a10.58,10.58,0,0,1-7.53,3.68c-4.16.38-8.92-.91-12.86-2.81a4.22,4.22,0,0,1-.75,2.84.42.42,0,0,1-.3.13.38.38,0,0,1-.3-.11,5.7,5.7,0,0,1-1.42-2.67l-.12-.38c.09.34.19.69.3,1a12.88,12.88,0,0,1,.64,2.94,14.79,14.79,0,0,1-.34,3.55c-.12.68-.25,1.38-.31,2.07-.27,2.74-.36,5.38-.45,8.17,0,1.67-.11,3.39-.2,5.19-.43,7.82-1.28,15.52-2.1,23-.37,3.37-.75,6.86-1.09,10.31a86.58,86.58,0,0,0-.16,11.15c0,1.69.09,3.43.09,5.14,0,.88,0,1.81-.09,2.71a29.12,29.12,0,0,0,.08,5.38c.31,2.07.84,2.3,1.82,2.71a6.91,6.91,0,0,1,2.54,1.72,5,5,0,0,1,2.67.14,4.17,4.17,0,0,0,2.77.05.44.44,0,0,1,.44.07,5.09,5.09,0,0,1,1.72,5.17,4.56,4.56,0,0,1-3.48,3.34c-2,.43-6.64-.64-8.11-2.65a2.18,2.18,0,0,1-.41-1.91H4.72a.42.42,0,0,1-.42-.42.42.42,0,0,1,.42-.42H30.28a.42.42,0,0,1,.37.62,1.38,1.38,0,0,0,.09,1.64c1.23,1.68,5.49,2.69,7.26,2.32a3.69,3.69,0,0,0,2.84-2.73,4.25,4.25,0,0,0-1.28-4.16,5.26,5.26,0,0,1-3-.1,3.87,3.87,0,0,0-2.44-.09.42.42,0,0,1-.47-.11,6,6,0,0,0-2.44-1.71c-1.2-.51-2-.95-2.31-3.35a28.49,28.49,0,0,1-.08-5.55c0-.93.08-1.81.08-2.67,0-1.69-.05-3.43-.09-5.12a88.21,88.21,0,0,1,.16-11.25c.34-3.46.72-6.95,1.1-10.32.82-7.44,1.66-15.13,2.09-22.93.1-1.78.15-3.5.21-5.16.09-2.81.17-5.46.44-8.23.07-.72.2-1.44.32-2.13a14.19,14.19,0,0,0,.33-3.35,12.43,12.43,0,0,0-.6-2.76,10.88,10.88,0,0,1-.64-3.43c-.27-.19-.54-.38-.79-.58a18.74,18.74,0,0,0,.16,3.5,13.87,13.87,0,0,1,.05,4.26.43.43,0,0,1-.41.33c-4,0-8.68-3.71-9.64-7.73a5,5,0,0,1,3-6c3.22-1.58,7.43-1.86,9.58,1.1a16,16,0,0,1,2,6.5c3.89,2,8.68,3.3,12.84,2.93a9.78,9.78,0,0,0,7-3.39c2.2-2.66,3-7.15,2.25-13.32a93.93,93.93,0,0,1-.06-15.56l.09-1.72a56,56,0,0,0-1.56-15.92,31.46,31.46,0,0,0-3-3.71,38,38,0,0,1-2.52-3,93.32,93.32,0,0,0-7.83-9.41.41.41,0,0,1,0-.51A11.44,11.44,0,0,1,45,46a10,10,0,0,0,1.67-2c-.48-.05-1-.07-1.47-.09a11.15,11.15,0,0,1-2.92-.38.42.42,0,0,1-.29-.46c.14-.85.26-1.73.38-2.65a41.41,41.41,0,0,1,1-5.82,35.35,35.35,0,0,1-7,3.51c-.65.25-1.48.5-2.37.76a17.46,17.46,0,0,0-4.46,1.72c-1.41,1-1.69,3.17-2,5.26-.05.34-.1.67-.14,1-.27,1.75-.48,3.52-.68,5.24a74.43,74.43,0,0,1-1.87,11.12,32.43,32.43,0,0,0-.75,10.33c.06,1.78.13,3.61.05,5.56a34.47,34.47,0,0,1-.78,5.26c-.65,3.2-1.26,6.21,0,9.66.81,2.19,3.27,5.38,5.45,5.61a2.09,2.09,0,0,0,1.35-.31c-.16-1.56-.37-3.11-.57-4.63-.83-6.2-1.69-12.61.21-19.33.42-1.49.91-3,1.38-4.43.3-.93.61-1.87.9-2.82v-.77c0-.7,0-1.61-.08-2.66-.19-4.71-.47-11.83,2.2-14a.41.41,0,0,1,.54,0c2.23,1.91.94,6.84,0,10.43-.21.82-.4,1.53-.51,2.08a49.81,49.81,0,0,1-1.3,5c0,1.61,0,3.24,0,4.81,0,3.59.09,7.3,0,11,0,1-.08,2-.11,3-.06,1.73-.11,3.37-.2,5.18,0,.3,0,.75,0,1.27,0,2.36-.08,4.38-.54,5.11a4.78,4.78,0,0,1-1,1.17c.07.71.13,1.42.18,2.14a.41.41,0,0,1-.38.44,41.72,41.72,0,0,0-10.61,2.84.43.43,0,0,1-.35,0,.42.42,0,0,1-.21-.26c-1-3.81-.74-8.74-.31-13.07a34.92,34.92,0,0,0-.28-7.51,51.58,51.58,0,0,1-.39-5.51,20.44,20.44,0,0,1,1.71-7.21A22.33,22.33,0,0,0,22,66c.15-1.47.23-2.85.3-4.19a39.22,39.22,0,0,1,1.28-9.27,30.66,30.66,0,0,0,.64-4.44c.44-4.24.94-9,3.25-10.71,1.08-.78,3.34-1,5.34-1.18.87-.08,1.69-.16,2.25-.27s1.28-.24,1.9-.34A17.34,17.34,0,0,0,42.47,34a7,7,0,0,0,1.45-1.09,12.76,12.76,0,0,1,.76-1.58.56.56,0,0,1,0-.12.41.41,0,0,1,.41-.21.4.4,0,0,1,.26.12.45.45,0,0,1,.11.17,8.77,8.77,0,0,1,1.73-1.41,9.32,9.32,0,0,0,1.51-7.29,4.55,4.55,0,0,1-1.16-5c.37-1.18,1.05-1.92,1.74-1.94a1,1,0,0,1,.43.09c.06-3.35.62-6.21,1.6-7.8C54,3.65,60.91,2.81,65,5c2.33,1.23,3.5,4.48,3.64,7.17s-.71,4.91-2.26,5.94a.44.44,0,0,1-.49,0,.43.43,0,0,1-.15-.46c.74-2.47.66-4.32-.24-5.66s-3.06-2.36-6.3-2.67c-1.35-.13-4.66-.24-6.24,1.5a7.35,7.35,0,0,0-1.39,3.51,8.09,8.09,0,0,1-1,3c0,.85.08,1.73.17,2.62.53,5.22,2.06,9.43,4.1,11.28,1.46,1.33,3.17,1.42,5.08.28.55-3.67,2.47-7.93,5.79-12.9a.42.42,0,0,1,.53-.15.43.43,0,0,1,.22.51c-.23.74-.47,1.57-.73,2.45-1.18,4.08-2.52,8.71-4.49,10.21l-.54.38a11.53,11.53,0,0,0,.18,4.18c.07.27.14.53.23.79.39.45.82.92,1.27,1.41a41,41,0,0,1,3.42,4.1l.59.34a13.21,13.21,0,0,0,1.83.78c1.4.54,3,1.14,3.7,2.09,1.1,1.44,1,3.61.85,5.53a20,20,0,0,0,0,2.15,72.81,72.81,0,0,0,2.6,15.57c.18.64,2.11,18.79,2.63,24.52.15,1.63.46,3.39.8,5.26.68,3.81,1.39,7.75.77,11.14a.48.48,0,0,1-.16.26,10.73,10.73,0,0,1,.55,2.58c.26,2.55.38,7.06-1.75,8.58-.94.67-2.18.66-3.68,0a.41.41,0,0,1-.24-.42,6.28,6.28,0,0,1,1-2.42c.75-1.29,1.3-2.26.18-3.36a11.79,11.79,0,0,0-.19,1.64c-.11,1.44-.2,2.8-1.16,3a1.24,1.24,0,0,1-1.09-.22c-.92-.72-1.06-2.71-1.06-4.56v-.22c0-2.15.54-3.72,1.7-4.66A5.63,5.63,0,0,1,78,109.1a3.42,3.42,0,0,0-1-.94c-1.07-.67-2.58-.67-4.47,0a.4.4,0,0,1-.39-.06.43.43,0,0,1-.17-.35,51.91,51.91,0,0,0-1.36-11.43c0,1.76-.05,3.54-.14,5.31,0,.44,0,1,0,1.66-.13,5.7-.5,11.29-3.35,11.54-1.79.15-3.73-1-5.33-3.13a10.56,10.56,0,0,1-.71-1.08,8.31,8.31,0,0,0,.51,1.58,7.86,7.86,0,0,0,2.63,3.19,18.88,18.88,0,0,1,1.69,1.5c3.11,3.19,1.84,8.22.82,12.26-.17.67-.33,1.31-.46,1.91-.43,1.89-.87,3.78-1.31,5.61-.82,3.45-1.66,7-2.35,10.61a19.69,19.69,0,0,0-.19,8.39,22.17,22.17,0,0,0,.7,2.3c.65,1.93,1.32,3.91.88,6.06a19.6,19.6,0,0,1-1.05,3.36,9.22,9.22,0,0,0-.68,6.29A66.17,66.17,0,0,1,64,183.47c0,.4.12.83.2,1.3a8.63,8.63,0,0,1,.11,3.75c-.09.35-.19.64-.28.9,1.53,1.86,3.3,2.72,5.9,4l1,.5a6.39,6.39,0,0,1,2.31,1.68,16.15,16.15,0,0,1,4.71.68l26.76-.34h.07a17.33,17.33,0,0,0,3.18.3l-.51-.25c-1.59-.78-3.4-1.67-3.1-4.77a.44.44,0,0,1,.26-.35,10.46,10.46,0,0,1,4.15-.45,10.94,10.94,0,0,0,3.2-.22.43.43,0,0,1,.42.11.45.45,0,0,1,.1.42c-.19.61-.34,1.16-.49,1.67-.61,2.16-1,3.49-2.09,4.15l.23.24a5.3,5.3,0,0,1,1.09,2.95c.2,1.4.31,2.24,2.53,2.32a6.11,6.11,0,0,0,4.12-2.28,3.35,3.35,0,0,0,1-2.68,2.15,2.15,0,0,0-.82-1.23,6.3,6.3,0,0,1-1.5.78,5.52,5.52,0,0,1-5.15-.83.43.43,0,0,1,0-.68,6.94,6.94,0,0,1,6-.58,3.69,3.69,0,0,1,.67.3,11.3,11.3,0,0,0,3.43-5.38,19,19,0,0,0,.08-7.55c-.15-1.27-.3-2.56-.33-3.84v0c-.85-2.63.16-6.07,1.14-9.4a24.78,24.78,0,0,0,1.34-6.44,63.11,63.11,0,0,0-1.25-10.74c-.23-1.32-.47-2.69-.67-4-.07-.46-.11-1-.16-1.64-.12-1.79-.3-4.25-1.37-5.12-.66-.53-2.23-.68-3.61-.81-.66-.06-1.3-.12-1.85-.22,3,10.41,1.62,21.93.25,33.08l-.06.49a15.9,15.9,0,0,1,.15,2.19c0,4.57-.19,10.24-1.59,13.58a.41.41,0,0,1-.47.24.4.4,0,0,1-.33-.42c.11-5,.73-10.16,1.39-15.58a36,36,0,0,0-1.16-5,34.59,34.59,0,0,1-1.25-5.61,50.17,50.17,0,0,1,.64-13.39c.58-3.94-.12-6.43-1.08-9.89-.15-.54-.31-1.11-.47-1.7a.45.45,0,0,1,.05-.34.4.4,0,0,1,.29-.18l1-.14c-1.28-.2-2.47-.38-3.48-.48s-2.39-.08-4-.07c-4.41,0-9.91.07-11.75-2a.42.42,0,0,1,0-.48c3.93-7.38,4.72-15,5.55-23.1.1-.94.2-1.88.3-2.84,1-9.46,2.42-18.91,4.13-28.09a.42.42,0,0,1,.31-.33.4.4,0,0,1,.42.13c1.28,1.5,2.24,5.25,2.38,7.91,6,.24,15-1.11,20.21-5.23a18.6,18.6,0,0,1,.59-4.3l-.06,0a.42.42,0,0,1-.39.07,7.29,7.29,0,0,1-4.49-3.89,16.59,16.59,0,0,0-5.1,1.38c-.48.19-.94.37-1.4.53l-1,.38c-3.42,1.26-8.77,3.23-11.79,2.06a14.48,14.48,0,0,1-.1,3.36,3.49,3.49,0,0,1-2.34,3c-1.71.56-4.07-.19-5.72-1.82a4.57,4.57,0,0,1-1.47-4.61,3,3,0,0,1,.9-1.64,1.12,1.12,0,0,1-.9.07c-.93-.33-1.31-2-.88-3.81a5.89,5.89,0,0,1,2.41-3.94,3.46,3.46,0,0,1,1.44-.44A47.28,47.28,0,0,0,95,60.16l-.08-.55c-.58-4-1-7.57.67-8.47.95-.53,2.32,0,4.19,1.6l.59.5c2,1.69,3.57,3,3.6,5.33.83-.54,1.64-2.15,2.37-3.59a19.05,19.05,0,0,1,1.41-2.5,33.47,33.47,0,0,1,5.19-6.26c.85-.88,1.67-1.72,2.36-2.51a.43.43,0,0,0,0-.17c-.09-.24-.43-.39-1-.63a8.33,8.33,0,0,1-4-3.07c-2-2.68-1.57-10.77-.35-14.19a2.67,2.67,0,0,1-.48-3.24c1.42-2.53,7.18-4.08,10.29-3.35,5.49,1.3,7.82,5.58,6.73,12.39l-.09.62,0,.1a3.31,3.31,0,0,1-.12,1.9c.13,1.94,1,3,2.56,4.89.74.89,1.66,2,2.69,3.46,3.41,4.84,3.53,7.19,3,12.22a29.41,29.41,0,0,1-2,7.08c0,.1,0,.19,0,.28a41.29,41.29,0,0,1-2,15.59,11.36,11.36,0,0,1-3.62,5.24c0,.32,0,.64.08,1a15.33,15.33,0,0,0,2.19,5.42c1.2,2.16,2.44,4.39,2.44,7.28a35.12,35.12,0,0,1-1.33,8.17,38.44,38.44,0,0,0-1.29,7.32c-.22,4.63,1.22,9.83,2.57,14.34.39,1.29.87,2.62,1.33,3.92a56.91,56.91,0,0,1,1.77,5.46.41.41,0,0,1-.29.5,42.85,42.85,0,0,1-11.08,1.22,13.8,13.8,0,0,1,.4,4.72,19,19,0,0,0,.08,3c.33,2.08.84,4.12,1.34,6.08a48,48,0,0,1,1.64,8.71c.27,4-1,6.89-2.41,9.92a38.84,38.84,0,0,0-1.88,4.65,11.3,11.3,0,0,0-.44,3.43,5.37,5.37,0,0,0,1.87,2.11,5.66,5.66,0,0,1,2.2,2.66c.6,2-.24,3.08-1.13,4.25a10,10,0,0,0-1.06,1.61,9.81,9.81,0,0,0-1,4.57c0,1,.29,4.62.47,5.72h16.24a.44.44,0,0,1,.35.18c2.63,3.74,8.16,5,12.57,2.87a18,18,0,0,0,2.24-1.29,6.38,6.38,0,0,1,4.38-1.35c.72,0,1.57,0,2.46,0a24.21,24.21,0,0,1,4.57.13v-.17A13.93,13.93,0,0,0,166,195a26.17,26.17,0,0,1-10.56-2.22c0,.08-.07.16-.11.25-1.41,2.92-5.63,7.15-9.28,7.4a4.52,4.52,0,0,1-4.24-2.22.42.42,0,0,1,.08-.56,11.61,11.61,0,0,1,4.59-1.93c2.61-.69,5.08-1.33,6-4.89a.42.42,0,0,1,.27-.28.4.4,0,0,1,.38,0,12.7,12.7,0,0,0,1.86,1.06c.29-.8.28-1.16.19-1.33s-.57-.3-1.08-.38a3.22,3.22,0,0,1-2.63-1.43c-.6-1,.19-3.3,1.28-6.14a18.76,18.76,0,0,0,.73-2.06c2-8.63,1.7-20-1-31.08-1.14-4.75-1.85-9.7-2.53-14.48-.72-5-1.46-10.12-2.69-15.11a42.59,42.59,0,0,0-3.58-8.67c-.81-1.61-1.65-3.28-2.33-5s-1.25-3.3-1.81-4.93l-.66-1.91a7.2,7.2,0,0,1-.63-3.31c-2.3-2.92-1.49-7.42-.84-11,.2-1.12.39-2.17.48-3.07,0-.38.09-.78.15-1.19a10.74,10.74,0,0,0,.17-2.56,7.62,7.62,0,0,0-.42-1.54,7.43,7.43,0,0,1-.4-1.45,11.07,11.07,0,0,1,.38-3.6,10.62,10.62,0,0,0,.37-3.89c-.12-.86-.29-1.68-.47-2.48a15.69,15.69,0,0,1-.52-5.1c.09-.85.2-1.68.31-2.48a28.71,28.71,0,0,0,.41-5.29c-.21-5.34.05-7.43,3.87-11.75l1.95-2.19c2.45-2.75,4.76-5.35,7.05-8.1.05-1.65.16-3.23.33-4.68-3.94-2.16-4.26-6.27-4.64-11-.11-1.33-.22-2.7-.41-4.11-.33-2.5.71-6.25,2.8-7.87C151.18.6,155.35-.66,158.25.37c6.37,2.29,6.17,6.87,5.9,9.78a1.81,1.81,0,0,1,2.12.74c1,1.5.43,4.74-1,6a1.74,1.74,0,0,1-1.82.38,9.78,9.78,0,0,1-4,8.51,7,7,0,0,1-6.89.61c.71,2.28,1.84,3.65,3.28,4,1.72.38,4-.79,5.7-3a9.08,9.08,0,0,0,2.07-5,11.74,11.74,0,0,1-.39-1.95.42.42,0,0,1,.8-.23,4.79,4.79,0,0,1,.43,2.07c0,.12.08.25.11.37a4.32,4.32,0,0,1-.54,4.43c-1.28,1.93-3.45,3.16-5.37,4.24-.52.3-1,.58-1.49.87.19.19.43.4.68.61s.41.34.6.52l.05,0a22.84,22.84,0,0,1,2.69,3.09,40.9,40.9,0,0,1,4.8-9.85.43.43,0,0,1,.49-.17c5.69,2,19.24,7.32,22.3,14.18,3.52,7.88,4.07,16.68,4.6,25.18.17,2.79.35,5.66.63,8.47.15,1.54.36,3.13.56,4.67.3,2.32.61,4.73.76,7.06a32.61,32.61,0,0,1-.5,6.86,43.08,43.08,0,0,0-.53,5.17.42.42,0,0,1-.36.41A30.31,30.31,0,0,1,186,98c-.18,2.38-.44,4.28-.56,4.93,0,.25-.15.61-.27,1-.29,1-.89,3.18-.49,3.66s4,.64,5.56.41h.06c.59-.09,1.05-.16,1.39-.23-.47-2.81-.89-5.68.26-8a.46.46,0,0,1,.29-.22.45.45,0,0,1,.35.09c1.62,1.3,1.35,3.35,1.11,5.17l-.05.4c0,.29-.07.56-.09.79-.16,1.37-.29,2-.93,2.29a19,19,0,0,1,.37,5,9,9,0,0,1-.23,1.15,1.68,1.68,0,0,1,.59.08c1,.32,1.47,1.5,1.93,2.65a4.46,4.46,0,0,0,1.1,1.9,3.77,3.77,0,0,0,2.43.28c1.32-.12,2.83-.25,4.06,1.21a.43.43,0,0,1,.07.41l0,0c3.46,2.11,2.82,8.29,2.34,12.81-.1,1-.19,1.84-.22,2.54-.36,7.39-5.71,9.09-11.44,9.82a4,4,0,0,1-3.31-.82c-1.74-1.59-1.62-5-1.5-8.28a20.7,20.7,0,0,0-.2-5.2c-.44-1.76-1.29-3-2.11-3a1.07,1.07,0,0,0-.48.12,24.11,24.11,0,0,1,.78,4.71l0,.32c.72,7.6.18,15.34-.35,22.83l-.12,1.58a29.84,29.84,0,0,1,5-1.53c2.28-.56,4.64-1.13,6.08-2.14,2.13-1.5,2.32-3.59,2.51-5.81s.37-4.27,2.37-5.77a.41.41,0,0,1,.63.17c2.13,4.88,1.07,12.83-3.44,15.39-3.14,1.8-9,3.77-13.5,3.49a.44.44,0,0,1-.35.17c-.49,0-1.07-.05-1.68-.11-.43,2.18.1,5.42.57,8.37a28.68,28.68,0,0,1,.61,6.05c-.09,1-.24,2-.39,2.88a18.27,18.27,0,0,0-.33,5.1,35.4,35.4,0,0,0,1,4.77c.21.81.43,1.66.61,2.49.82,3.68.49,6.26-1,7.69s-3.56,1.56-6.6.79a4.76,4.76,0,0,1-1.06-.4,7.67,7.67,0,0,0-1.11,1.51c-1,1.64-2.39,4.85-1.6,6.51a2,2,0,0,0,1.71,1.09c2,.29,8.78-2.15,11.13-4.32.64-.59.71-.94.7-1.1-.09-1.29-1.13-2.51-1.58-2.54a.43.43,0,0,1-.39-.43.43.43,0,0,1,.42-.41h85.32a.42.42,0,1,1,0,.84h-84a4.64,4.64,0,0,1,1.05,2.48,2.34,2.34,0,0,1-1,1.78C185.89,207.65,179.64,210.12,176.84,210.12Zm1.38-10.55a3.26,3.26,0,0,0,.5.16c2.74.7,4.69.5,5.8-.58s1.5-3.52.75-6.89c-.18-.82-.39-1.66-.6-2.47a35.5,35.5,0,0,1-1-4.89,19,19,0,0,1,.33-5.32c.15-.9.3-1.83.38-2.82a29.13,29.13,0,0,0-.59-5.85c-.51-3.11-1-6.3-.59-8.61a16.41,16.41,0,0,1-3.1-.73c-.43-.16-.77-.26-1-.35-1.27-.4-1.35-.6-1.39-2,0-.32,0-.71-.05-1.21a56.29,56.29,0,0,1,.1-6.35c.07-1.48.15-3,.15-4.49,0-3.31.12-6.18.25-9.22,0-.61.05-1.23.08-1.86a32.44,32.44,0,0,0-.49-5.95,29.19,29.19,0,0,1-.43-6.71.41.41,0,0,1,.25-.34l1.45-.67a36.1,36.1,0,0,1,5.59-2.25c.06-.63.15-1.31.25-2,.07-.49.14-1,.2-1.49H185a2.29,2.29,0,0,1-2-1c-1.1-1.72-.25-4.91.52-6.14a.42.42,0,0,1,.28-.19.39.39,0,0,1,.33.09,4.6,4.6,0,0,1,1.19,1.39.37.37,0,0,1,.18-.08,4.49,4.49,0,0,1,1.68,0,.43.43,0,0,1,.22.12c.24.26.36.37.62.62a.44.44,0,0,1,.14.4v0c-.49,2.36-.78,4.5,1,4.87a1.92,1.92,0,0,0,1.63-.3,2.68,2.68,0,0,0,.67-.71l-.06-.3a.4.4,0,0,1,.18-.45,3.42,3.42,0,0,1,.36-.2,6.14,6.14,0,0,0,.37-1.51,17.58,17.58,0,0,0-.34-4.67c-.37.08-.83.15-1.4.24h-.06c-.64.09-5.37.48-6.34-.71-.61-.75-.21-2.45.34-4.42.11-.4.21-.75.25-1a47.73,47.73,0,0,0,.57-4.89l-.28,0h-.07a.44.44,0,0,1-.36-.47,44.45,44.45,0,0,0-.65-12.74,3.17,3.17,0,0,0-.44-.51,1.8,1.8,0,0,0-1.65-.41,4.43,4.43,0,0,1-.26.87,2.4,2.4,0,0,0-.24,1,.39.39,0,0,1-.1.31.4.4,0,0,1-.29.15,210.1,210.1,0,0,0-23.62,2.46c-.06.13-.12.26-.19.38-.32.65-.62,1.26-.94,1.84a.41.41,0,0,1-.52.18,8.15,8.15,0,0,1-2.41-1.59l-1.17.27c-2.71.64-4.48.62-5.67-.09a43.44,43.44,0,0,1-3.1,5.28l-.16.24c-1,1.5-1.61,2.41-2.52,2.45a2,2,0,0,1-1.46-.69,11.19,11.19,0,0,0,.59,2.12l.67,1.92c.55,1.61,1.13,3.28,1.79,4.88s1.5,3.29,2.3,4.89a42.39,42.39,0,0,1,3.65,8.85c1.24,5,2,10.2,2.7,15.19.68,4.76,1.39,9.69,2.52,14.41,2.7,11.24,3.05,22.71,1,31.46a22.87,22.87,0,0,1-.76,2.18c-.67,1.73-1.79,4.63-1.34,5.41a2.46,2.46,0,0,0,2,1c.67.11,1.38.22,1.69.82a2.51,2.51,0,0,1-.17,2.07,28.84,28.84,0,0,0,8.31,2.13c-3.39-3.88-2.55-10-1.86-14.92l0-.25A57.78,57.78,0,0,1,166,166.28c.57-1.48,1.16-3,1.69-4.53-.28-1.9-.61-3.8-.95-5.74-.2-1.18-.41-2.36-.6-3.55a101.87,101.87,0,0,1-1-10.64c0-.72-.08-1.44-.13-2.17-.8-2.68-1.92-5.39-3.1-8.25-3.1-7.48-6.31-15.22-3.62-23v0c0-.16,0-.58.43-.58h0c.37,0,.43.35.44.53a39.2,39.2,0,0,1,3.16,8.87c.34,1.52.58,3,.84,4.58.3,1.86.62,3.79,1.11,5.75a67.17,67.17,0,0,1,1.58,12c0,.13.07.27.11.4a75,75,0,0,1,2.91,20.55v0c2.43,5.76,3.33,12.2,4.19,18.43.24,1.73.47,3.36.72,5,.58,3.59,1.29,5.74,3.79,8.23.59.59,1.31,1.19,2.06,1.84,1.74,1.47,3.54,3,4.3,4.67a.41.41,0,0,1-.09.48.42.42,0,0,1-.5.06.86.86,0,0,1-.34-.46h0a16.89,16.89,0,0,1-2.54.37A5.74,5.74,0,0,0,178.22,199.57ZM142.7,198a3.62,3.62,0,0,0,3.25,1.53c3.31-.23,7.29-4.26,8.58-6.94,0-.08.08-.15.11-.22-.56-.27-1.07-.55-1.53-.83-1.17,3.54-3.86,4.24-6.46,4.92A11.64,11.64,0,0,0,142.7,198Zm26.1-34.29a57.88,57.88,0,0,1,.45,6.88,42.31,42.31,0,0,0,4,18,24,24,0,0,1,1.35,4.46c.61,2.57,1.15,4.87,2.8,6a5.38,5.38,0,0,1,3-.89,17.16,17.16,0,0,0,2.17-.3,22.49,22.49,0,0,0-3.45-3.34c-.77-.66-1.5-1.27-2.11-1.88-2.65-2.64-3.44-5-4-8.7-.25-1.63-.48-3.26-.72-5-.77-5.51-1.55-11.18-3.4-16.36C168.83,163,168.82,163.39,168.8,163.75ZM58.64,194.15a.4.4,0,0,1,.33.17c2.46,3.24,5.07,3.53,9.49,3.77,2.34.13,4.12-.57,4.31-1.3a.64.64,0,0,0,0-.4,26.42,26.42,0,0,1-4-.41c-.67-.15-1.31-.28-1.94-.4a40.12,40.12,0,0,1-7.68-2.13l-.41-.17a28.08,28.08,0,0,0-3.1-1.14,12.42,12.42,0,0,1-3.8.31,2.84,2.84,0,0,0-.13,1.83c.24,1.27,2.81,2,4.76,1.74.59-.09,1.94-.39,1.84-1.4a.42.42,0,0,1,.27-.44A.4.4,0,0,1,58.64,194.15Zm53.74,1.31a4.5,4.5,0,0,0,3.82.38,5.5,5.5,0,0,0,1-.45l-.16-.06A6.55,6.55,0,0,0,112.38,195.46Zm-7.23-3.92c-.13,2.3,1.16,2.94,2.66,3.68a10.62,10.62,0,0,1,1.36.75c1-.48,1.38-1.66,2-3.82l.29-1a16.43,16.43,0,0,1-2.73.09A10.71,10.71,0,0,0,105.15,191.54ZM36.78,115.71a32.8,32.8,0,0,0,.16,15.1c1.71,6.9,0,13.07-1.75,19.61-1.29,4.73-2.62,9.61-2.56,14.82a75.81,75.81,0,0,0,1.46,11.91c.29,1.65.59,3.35.83,5,.08.54.15,1.12.23,1.73.54,4.06,1.25,9.54,4.21,11.93.08-.37.17-.71.26-1.06.13-.51.26-1,.34-1.51a74.62,74.62,0,0,1,2.87-11.16c.45-1.45.93-3,1.39-4.55.82-2.85.92-6.55,1-10.13.06-2,.11-3.79.27-5.46a108.42,108.42,0,0,0,.26-11.14c0-2.79-.06-5.67.08-8.4a72.27,72.27,0,0,1,3.59-17.48.42.42,0,0,1,.47-.27.41.41,0,0,1,.35.41c.11,13.49-.1,25.13-.65,36.62a40.36,40.36,0,0,0,.8,8.63,47,47,0,0,1,.83,7.66c0,2.14-.16,4.24-.31,6.26-.17,2.31-.35,4.68-.29,7.1a3.81,3.81,0,0,0,.77.22l.1-.09c.94-.75,2.54-.6,4.09-.18.71-.15,1.41-.33,2.06-.5s1.55-.39,2.21-.51a12.81,12.81,0,0,1,1.85-.18c.72,0,1,0,1.31-.54A16.67,16.67,0,0,1,61.45,187c-1.86-3.76-3.47-7-3.23-11.63a61.69,61.69,0,0,1,.83-6.72,42,42,0,0,0,.79-9.52A58.69,58.69,0,0,0,59,153a36.55,36.55,0,0,1-.79-10,58.38,58.38,0,0,1,3.11-12.35c.76-2.28,1.54-4.64,2.12-7,.89-3.5-.43-5.23-2.11-7.41A18.34,18.34,0,0,1,58.65,112a9.3,9.3,0,0,0-2.33,1.5,11.47,11.47,0,0,1-2.42,1.59,29.4,29.4,0,0,1-5.62,1.67C43.16,117.67,39.39,117.34,36.78,115.71Zm20.37,76.07c.7.25,1.33.52,1.83.73l.4.17a39.13,39.13,0,0,0,7.53,2.07l2,.41a23.07,23.07,0,0,0,3.1.35,8,8,0,0,0-1.42-.85l-1-.5c-2.52-1.22-4.35-2.11-5.95-3.92-.42.6-1,.67-1.83.69a10.79,10.79,0,0,0-1.73.17c-.63.11-1.37.3-2.15.5Zm110.78-28.23c-.37,1-.76,2-1.15,3a57.76,57.76,0,0,0-3.73,12.47l0,.25c-.7,5.1-1.5,10.84,1.8,14.41.62-1.47.51-3.58.41-5.62-.05-1-.1-2-.06-2.85a76.52,76.52,0,0,1,1.55-11.47,67.29,67.29,0,0,0,1.25-10ZM114.1,179.86c-.17,1.63-.32,3.24-.43,4.84A45.84,45.84,0,0,0,114.1,179.86Zm0-41.23.14,0a13,13,0,0,0,2.4.37c1.57.14,3.21.3,4.06,1,1.35,1.09,1.53,3.66,1.68,5.71,0,.59.08,1.15.15,1.58.2,1.32.43,2.68.66,4a62.53,62.53,0,0,1,1.27,10.89,24.87,24.87,0,0,1-1.38,6.68c-.44,1.51-.89,3-1.17,4.51.49-1.4,1.07-2.67,1.63-3.9,1.34-2.93,2.59-5.69,2.34-9.51a47.84,47.84,0,0,0-1.61-8.56c-.51-2-1-4-1.36-6.16a19.77,19.77,0,0,1-.09-3.14,12.55,12.55,0,0,0-.39-4.5,21,21,0,0,1-6.79-.09c-1.34.06-2.67.18-4,.36.12.43.24.84.35,1.24,1,3.56,1.71,6.13,1.1,10.24a50,50,0,0,0-.64,13.18,34.93,34.93,0,0,0,1.23,5.47c.23.83.47,1.68.68,2.53,1.3-10.66,2.38-21.58-.68-31.36a.41.41,0,0,1,.11-.43A.38.38,0,0,1,114.08,138.63Zm72.09,22.88c4.2.24,9.82-1.59,13-3.38,3.87-2.2,5-9.23,3.29-13.8-1.3,1.26-1.45,3-1.61,4.81-.19,2.2-.4,4.7-2.85,6.42-1.57,1.11-4,1.7-6.37,2.27a26,26,0,0,0-5.3,1.68C186.25,160.18,186.21,160.85,186.17,161.51Zm-8.09-37.75a28.87,28.87,0,0,0,.44,6.27,33,33,0,0,1,.5,6.1c0,.64-.06,1.26-.08,1.87-.13,3-.25,5.89-.25,9.18,0,1.51-.08,3-.16,4.54a54.88,54.88,0,0,0-.09,6.25c0,.51,0,.91.05,1.24a3.1,3.1,0,0,0,.09.92,2.37,2.37,0,0,0,.71.29l1.08.36a15.61,15.61,0,0,0,2.73.66,123,123,0,0,1-.37-18.5c.06-1.08.07-2.2.08-3.29a28,28,0,0,1,.93-8.47,5.87,5.87,0,0,1,1.3-2.37,6.24,6.24,0,0,0-1.52-2.4l-.1-.09c-.36.19-.75.45-1.16.72-1.21.8-2.46,1.63-3.64,1.27a.43.43,0,0,1-.3-.39,3.16,3.16,0,0,1,1.58-3.23,3.66,3.66,0,0,1,3.63.65,23.75,23.75,0,0,1,4.41-1.25c.64-.13,1.3-.27,1.94-.43,1.4-.35,2.8-.74,4.16-1.12l3.72-1a7.21,7.21,0,0,1-3.4-.31c-2.2-.94-2.48-2.51-2.81-4.34l0-.07a2.5,2.5,0,0,1-.39.34,2.79,2.79,0,0,1-2.3.43c-2.62-.56-2.05-3.69-1.64-5.68-.14-.13-.26-.24-.41-.4a3.38,3.38,0,0,0-.91,0c0,.38,0,.75,0,1.13a18.88,18.88,0,0,1-.22,5.66c-.12.83-.23,1.61-.27,2.28a.44.44,0,0,1-.33.39,32.37,32.37,0,0,0-5.73,2.26Zm6.3,37.5a8.92,8.92,0,0,0,1,.17q0-.68.09-1.38a3.8,3.8,0,0,0-.73.71A2.8,2.8,0,0,0,184.38,161.26Zm1-31.5a6.44,6.44,0,0,0-.79,1.68,27.1,27.1,0,0,0-.89,8.22c0,1.1,0,2.23-.08,3.33a121.62,121.62,0,0,0,.29,17.49l.17-.24a5.1,5.1,0,0,1,1.46-1.24l.15-2.09c.53-7.45,1.07-15.16.35-22.69l0-.32A24.43,24.43,0,0,0,185.33,129.76Zm-19.21,14a84.45,84.45,0,0,0,.85,8.52c.19,1.19.4,2.37.6,3.54l.45,2.62A73.66,73.66,0,0,0,166.12,143.8Zm20.35-15.65h.06c1.25,0,2.33,1.4,2.9,3.62a21.74,21.74,0,0,1,.22,5.44c-.11,3.1-.23,6.3,1.22,7.63a3.14,3.14,0,0,0,2.65.6c6.2-.78,10.39-2.62,10.7-9,0-.72.13-1.63.23-2.58.42-4.07,1.06-10.21-2-12a3,3,0,0,0-.78-.31c-2.5.48-5,1.18-7.43,1.85-1.37.38-2.78.77-4.18,1.12-.66.17-1.33.31-2,.45a24.92,24.92,0,0,0-3.86,1,6.88,6.88,0,0,1,1.5,2.36A1.78,1.78,0,0,1,186.47,128.15ZM106,135.59c1,0,1.92,0,2.62.09,1.11.11,2.42.31,3.81.52,1.06.17,2.16.34,3.24.48,1.83-.09,3.66-.1,5.46-.1,4.17,0,8.49,0,12.58-1.09-.44-1.65-1.05-3.34-1.64-5-.46-1.3-1-2.65-1.34-4-1.38-4.58-2.83-9.86-2.61-14.62a39.56,39.56,0,0,1,1.32-7.48,34.91,34.91,0,0,0,1.3-8c0-2.68-1.13-4.71-2.34-6.87a16.24,16.24,0,0,1-2.28-5.72c0-.14,0-.28,0-.43-5.51,4.07-14.46,5.32-20.68,5a.42.42,0,0,1-.4-.41,18.47,18.47,0,0,0-1.65-7c-1.63,8.84-2.95,17.93-3.93,27-.11,1-.2,1.9-.3,2.83-.84,8.07-1.63,15.7-5.51,23.14,1.81,1.58,7,1.55,10.92,1.52Zm52.87-26.09c-2.11,7.19.92,14.5,3.85,21.58.74,1.79,1.46,3.52,2.09,5.23a53.88,53.88,0,0,0-1.32-8.55c-.5-2-.81-4-1.12-5.82-.26-1.56-.5-3-.83-4.53A42.36,42.36,0,0,0,158.85,109.5Zm20.31,18a5.54,5.54,0,0,0,2.64-1.21l.88-.57a2.68,2.68,0,0,0-2.42-.32A2.18,2.18,0,0,0,179.16,127.55Zm-104-7a2.6,2.6,0,0,0,2.56,0c1.89-1.35,1.54-6.31,1.39-7.8a9.49,9.49,0,0,0-.63-2.71c-1.92-.35-3.37-.14-4.32.63s-1.41,2.11-1.39,4v.23c0,2.21.25,3.52.73,3.89a.39.39,0,0,0,.38.07c.36-.09.46-1.46.52-2.28A5.25,5.25,0,0,1,75,114a.42.42,0,0,1,.59-.07c2.23,1.7,1.23,3.42.44,4.8A7,7,0,0,0,75.15,120.56Zm117.06-4.66c.06.29.11.56.16.83.32,1.78.54,3,2.32,3.72a8.21,8.21,0,0,0,3.71.19,12.26,12.26,0,0,1,3.2,0,4.19,4.19,0,0,0-2.7-.35,4.44,4.44,0,0,1-3-.4,4.74,4.74,0,0,1-1.43-2.3c-.39-1-.79-2-1.41-2.16a1.08,1.08,0,0,0-.66,0A4,4,0,0,1,192.21,115.9ZM29.29,103.61a10.59,10.59,0,0,0-4.39,1.07,4.16,4.16,0,0,0-2.53,5c.77,3.21,4.58,6.9,8.46,7.07a14.65,14.65,0,0,0-.11-3.65,15.5,15.5,0,0,1-.06-4.46.42.42,0,0,1,.27-.32.43.43,0,0,1,.41.07,23.81,23.81,0,0,0,3.9,2.61,14.88,14.88,0,0,0-1.81-5.53A4.85,4.85,0,0,0,29.29,103.61Zm154.61,6.77c-.62,1.34-1,3.68-.28,4.78a1.47,1.47,0,0,0,1.36.66c0-.71,0-1.45,0-2.16,0-.34,0-.68,0-1A4.4,4.4,0,0,0,183.9,110.38Zm-150.09.82c.17.4.3.81.43,1.22a6.51,6.51,0,0,0,.85,1.93,5.11,5.11,0,0,0,.25-2.3C34.81,111.78,34.3,111.49,33.81,111.2Zm158.67-10.44c-.7,1.89-.39,4.26,0,6.61a5.06,5.06,0,0,0,.25-1.4c0-.24.06-.51.1-.81l0-.4C193.07,103.29,193.27,101.79,192.48,100.76ZM39.06,36.08c-.65.13-1.3.24-2,.35s-1.24.21-1.88.34-1.44.2-2.33.29c-1.8.16-4,.37-4.93,1-2,1.45-2.5,6.26-2.9,10.12a31.33,31.33,0,0,1-.67,4.58,38.36,38.36,0,0,0-1.25,9.08c-.07,1.35-.15,2.75-.3,4.23a23.07,23.07,0,0,1-1.6,5.77,19.73,19.73,0,0,0-1.66,6.92A50.44,50.44,0,0,0,20,84.2a36.85,36.85,0,0,1,.28,7.69c-.41,4.07-.7,8.69.16,12.3a43.32,43.32,0,0,1,10-2.67c0-.43-.07-.85-.11-1.28a3,3,0,0,1-1.54.24c-2.6-.27-5.29-3.81-6.15-6.15-1.36-3.67-.72-6.8-.05-10.11a33.65,33.65,0,0,0,.76-5.14c.08-1.92,0-3.73-.05-5.48A33.29,33.29,0,0,1,24.05,63,74.76,74.76,0,0,0,25.9,52c.2-1.72.41-3.51.68-5.26,0-.32.09-.65.13-1,.29-2.16.62-4.61,2.32-5.83a18.27,18.27,0,0,1,4.71-1.85c.87-.25,1.69-.5,2.31-.73C37.12,36.94,38.12,36.52,39.06,36.08ZM32.14,70.84l-.12.37c-.47,1.43-1,2.92-1.37,4.4-1.86,6.55-1,12.87-.19,19,.18,1.33.36,2.69.51,4.06a4.88,4.88,0,0,0,.4-.55c.37-.59.4-3.24.41-4.67,0-.53,0-1,0-1.31.09-1.79.14-3.43.2-5.16,0-1,.07-2,.11-3,.14-3.64.09-7.33.05-10.91C32.16,72.34,32.15,71.59,32.14,70.84ZM186.07,97.16a31.41,31.41,0,0,0,7.36.46,44.72,44.72,0,0,1,.53-4.91,32.55,32.55,0,0,0,.49-6.69c-.14-2.3-.45-4.69-.75-7-.2-1.55-.41-3.14-.57-4.7-.28-2.82-.46-5.7-.63-8.49-.53-8.43-1.07-17.15-4.52-24.9-2.87-6.44-15.75-11.59-21.5-13.62-1.32,2.1-4,6.73-4.71,10.16a.43.43,0,0,1-.32.33.42.42,0,0,1-.43-.15l-.25-.34c-.53-.69-1.06-1.38-1.62-2a15,15,0,0,1-1.36,3.26c-.15.3-.28.55-.36.74a.45.45,0,0,1-.24.23.47.47,0,0,1-.33,0l-.2-.1c-.58,4,.05,8.31.67,12.56a77.8,77.8,0,0,1,.86,7.75c.09,2.33.28,4.68.46,7,.26,3.24.53,6.6.51,9.93,0,.63,0,1.25.05,1.86a13,13,0,0,1-.31,4.49,10.1,10.1,0,0,1-1.39,2.57,9.87,9.87,0,0,0-1.29,2.32l.45-.08A18.32,18.32,0,0,1,159,84l1.91-2.2a.45.45,0,0,1,.42-.14,53.2,53.2,0,0,0,19.73.36,26.56,26.56,0,0,1,.65-4.54c.12-.58.24-1.18.35-1.78-.35-1.73-.69-3.49-1-5.26a119.32,119.32,0,0,0-2.57-13.3c-.28-1-.63-2.07-1-3.17-1-3.09-2.08-6.28-1.64-9.24a.41.41,0,0,1,.21-.3.39.39,0,0,1,.38,0c4.76,2.2,5.3,10.17,5.67,15.44,0,.61.08,1.18.12,1.69.1,1.13.23,2.33.35,3.48a66.94,66.94,0,0,1,.55,8,17.52,17.52,0,0,1-.27,2.71c.17.85.35,1.7.52,2.53.42,2,.85,4,1.2,6.08C186.3,87,186.36,92.71,186.07,97.16Zm-46.9-1.53c.59.68,1,1,1.34,1,.48,0,1.06-.88,1.86-2.08l.16-.23A40.5,40.5,0,0,0,145.65,89l-.19-.21-.63.69c-1,1.1-2,2.23-3.12,3.29l-.67.65A6.94,6.94,0,0,0,139.17,95.63Zm11.54-64.17c-2.09,2.49-4.27,4.94-6.38,7.31l-2,2.19c-3.54,4-3.87,5.79-3.66,11.16a30,30,0,0,1-.41,5.43c-.11.8-.23,1.62-.31,2.45a14.65,14.65,0,0,0,.5,4.85c.18.81.36,1.64.48,2.54a11.46,11.46,0,0,1-.38,4.19,9.93,9.93,0,0,0-.36,3.31,6.71,6.71,0,0,0,.36,1.28,8.31,8.31,0,0,1,.46,1.72,11.81,11.81,0,0,1-.18,2.77c-.06.4-.12.78-.15,1.14-.08.94-.28,2-.48,3.15-.59,3.27-1.31,7.28.35,9.93a10.36,10.36,0,0,1,1.86-2.11l.66-.64c1.06-1,2.09-2.18,3.09-3.27L145,88a16.89,16.89,0,0,1-1.12-5c-.08-.58-.16-1.19-.26-1.82a136.06,136.06,0,0,1-1.21-13.72c-.05-.85-.21-1.92-.38-3-.49-3.24-1-6.9.43-9a.38.38,0,0,1,.37-.17.41.41,0,0,1,.34.22c3.11,6,3.25,19.05,3.31,24.64,0,.31,0,.66,0,1-.06,1.31-.13,3.09.57,3.92a2.69,2.69,0,0,0,1.79.67,6.23,6.23,0,0,1,1.66.42,10.8,10.8,0,0,1,2.67,2l.27.24c.58-.13,1.16-.25,1.75-.36-2.72-1.75-5.66-3.78-6.27-7.5a39.5,39.5,0,0,1,.07-9.59c.1-1.24.2-2.41.26-3.54.2-4.12.69-8.14,1.15-12,.17-1.38.33-2.76.49-4.16.19-1.74.56-3.59.92-5.37a36.82,36.82,0,0,0,1.07-8.92.41.41,0,0,1,.55-.42,9.2,9.2,0,0,1,2.3,1.27l.35.24a15.32,15.32,0,0,1,1.59-4.27l-.37-.32a4.5,4.5,0,0,1-1.12-1.16.42.42,0,0,1,.14-.56l.76-.47a4.24,4.24,0,0,1-1.42-.06c-1.23-.27-2.83-1.27-3.84-4.37-.09,1-.15,2-.19,3,.44.17.87.38,1.3.58a9.09,9.09,0,0,0,2.23.86.42.42,0,0,1,.27.65,44.1,44.1,0,0,0-3.68,6.69.43.43,0,0,1-.46.25.42.42,0,0,1-.35-.38C150.74,36.16,150.68,33.76,150.71,31.46Zm3.49,57.62a7.27,7.27,0,0,0,1.35.88c.21-.4.43-.83.65-1.28Zm-7.52-.37c1,.62,2.61.64,5.13,0l.59-.14a9.46,9.46,0,0,0-2.28-1.67,5.16,5.16,0,0,0-1.43-.34,7.07,7.07,0,0,1-1.23-.26.38.38,0,0,1,0,.21A17.58,17.58,0,0,1,146.68,88.71Zm14.69-6.17-1.75,2a15.88,15.88,0,0,0-1.91,3,215.65,215.65,0,0,1,22.71-2.34,4,4,0,0,1,.27-.95,2.65,2.65,0,0,0,.25-.9.41.41,0,0,1,.29-.39,2.7,2.7,0,0,1,2.34.23c-.3-1.59-.63-3.18-1-4.8,0-.19-.07-.37-.11-.56a23.36,23.36,0,0,0-.6,4.53.43.43,0,0,1-.35.42A54.82,54.82,0,0,1,161.37,82.54Zm-18.6-25.93c-.79,1.94-.31,5.09.08,7.68.17,1.16.34,2.25.38,3.14a136.57,136.57,0,0,0,1.21,13.63c.1.64.18,1.25.26,1.83a18.69,18.69,0,0,0,.91,4.45l1.14-1.2.12-.08a2,2,0,0,1-.49-.43c-.91-1.07-.83-3-.77-4.49,0-.37,0-.72,0-1C145.57,74.83,145.44,62.7,142.77,56.61Zm10.94-19.08A40.35,40.35,0,0,1,152.6,46c-.35,1.77-.72,3.59-.91,5.3-.15,1.4-.32,2.79-.48,4.17-.49,4.05-1,7.88-1.15,12-.06,1.15-.16,2.33-.27,3.57a39.4,39.4,0,0,0-.07,9.39c.55,3.32,3.16,5.16,5.81,6.87A11.73,11.73,0,0,1,156.81,85a9.07,9.07,0,0,0,1.29-2.35,12.26,12.26,0,0,0,.27-4.2c0-.62-.05-1.26-.05-1.91,0-3.29-.25-6.63-.51-9.86-.18-2.28-.37-4.64-.46-7a76.85,76.85,0,0,0-.85-7.67c-.65-4.44-1.31-9-.62-13.15l-.65-.44A11.8,11.8,0,0,0,153.71,37.53ZM70.07,66c-1.55,6.58-.68,15.94-.25,20.62l0,.3c0-1.1.06-2.19.12-3.29s.14-2.36.23-3.66C70.52,75.37,70.92,69.84,70.07,66Zm29.59,7.83c0,.13,0,.33,0,.48a2.15,2.15,0,0,1-.45,1.58c-.9.82-1.07.88-1.73,1a12.56,12.56,0,0,0-1.32.36,5.69,5.69,0,0,1-1.37.27c-.71.08-.88.1-1.27,1.39a3.77,3.77,0,0,0,1.26,3.76c1.42,1.4,3.46,2.08,4.87,1.62a2.69,2.69,0,0,0,1.77-2.36,14.26,14.26,0,0,0,0-3.72,3.79,3.79,0,0,1-.53-.53,4.06,4.06,0,0,1-.44-2.07,4.24,4.24,0,0,0-.21-1.36A3.1,3.1,0,0,0,99.66,73.78Zm32-10a32.85,32.85,0,0,0-1.45,4.77,47.08,47.08,0,0,1-1.47,5.18,34,34,0,0,0-1.92,8,10.1,10.1,0,0,0,2.81-4.32A40,40,0,0,0,131.7,63.76ZM102.23,77.7c2.56,1.46,8.56-.75,11.59-1.87l1-.38,1.39-.52a18.41,18.41,0,0,1,5.06-1.42c-1-3-.73-6.68-.44-9.93.06-.66.12-1.31.16-1.93s.91-12.11,5.27-14.28a3.87,3.87,0,0,1,4,.5c3.1,2,2.69,6.71,2.36,10.5,0,.15,0,.3,0,.45a20.4,20.4,0,0,0,1-4.27c.51-4.9.39-7-2.87-11.64-1-1.43-1.87-2.49-2.64-3.42-1.28-1.55-2.19-2.64-2.57-4.16a3.24,3.24,0,0,1-1.1,1,1.84,1.84,0,0,1-2.08-.24c-1.08,4,.45,7.16,4.78,9.8a.42.42,0,0,1,.2.35.41.41,0,0,1-.2.36c-1,.6-2,1.36-3.13,2.17-4.44,3.2-9.89,7.14-14.84,4.62a5,5,0,0,1-1.4.58c-.23.42-.47.9-.72,1.39-.93,1.85-1.9,3.76-3.17,4.16h0a9.4,9.4,0,0,1-.28,1.24c-.34,1.13,0,3.47.24,5.73.43,3.44.81,6.4-.53,7.08-.58.29-1.31.12-2.29-.56A17.35,17.35,0,0,1,102.23,77.7Zm20.38-3.34a6.47,6.47,0,0,0,3.59,3q.58-.51.45-1C126.37,75.43,124,74.54,122.61,74.36ZM96.45,69.75a14.86,14.86,0,0,1-1.35,5.32,4.53,4.53,0,0,1-1.32,1.8,2.65,2.65,0,0,1,.89-.21,5.86,5.86,0,0,0,1.2-.24,12.81,12.81,0,0,1,1.4-.38c.52-.11.58-.13,1.34-.82.16-.14.17-.65.18-1,0-.54,0-1.09.49-1.29a.9.9,0,0,1,.8.11,5.48,5.48,0,0,0-3-3.16A4.75,4.75,0,0,0,96.45,69.75Zm-.84,0a2.53,2.53,0,0,0-1,.32,5.3,5.3,0,0,0-2,3.4c-.38,1.65,0,2.72.34,2.83s.7-.18,1.38-1.57A14.06,14.06,0,0,0,95.61,69.72Zm26.58,3.77h.26c1.11.09,3.93.86,4.8,2.22.24-.76.48-1.52.73-2.27a48.46,48.46,0,0,0,1.45-5.09,40.84,40.84,0,0,1,2-6.25c.06-.18.13-.36.2-.53,0-1,.09-2.1.19-3.29.33-3.74.7-8-2-9.72a3.08,3.08,0,0,0-3.18-.45c-3.14,1.57-4.52,9.58-4.8,13.59-.05.63-.1,1.28-.16,1.94C121.41,67,121.09,70.71,122.19,73.49Zm-22.08-2.31c1.91,1.79,2.59,1.75,2.8,1.65.81-.42.39-3.78.08-6.23s-.61-4.78-.22-6.08a8.38,8.38,0,0,0,.22-.86h0c-1.71,0-3.39-1.53-4.87-4.42.18,2.95.62,5.78,1,8.54C99.51,66.17,99.89,68.64,100.11,71.18Zm76.54-25.72c-.19,2.6.75,5.47,1.67,8.24.36,1.07.72,2.17,1,3.22a117.77,117.77,0,0,1,2.59,13.39q.2,1.23.42,2.46a71.17,71.17,0,0,0-.55-7.65c-.13-1.16-.26-2.35-.36-3.5q-.06-.78-.12-1.71C181,55.35,180.48,47.84,176.65,45.46ZM96.5,68.9a5.2,5.2,0,0,1,.83.19,4.49,4.49,0,0,1,1.84,1.13c-.22-2.16-.54-4.26-.86-6.31A79.59,79.59,0,0,1,97.17,53.1a.43.43,0,0,1,.34-.42.41.41,0,0,1,.47.26c.76,1.88,2.69,6,5.11,5.87.07-2.06-1.25-3.18-3.31-4.93l-.59-.5c-1.51-1.29-2.67-1.83-3.25-1.51-1.26.7-.6,5.2-.24,7.62l.08.55A47.75,47.75,0,0,1,96.5,68.9ZM57.44,64.19a13,13,0,0,1,.77,1.42c2.62-2.63,4.32-6.6,6-10.44.77-1.81,1.5-3.51,2.31-5.05a12.36,12.36,0,0,1-2.09-3.65c-.21-.28-.21-.51,0-.68s.38-.2.67.12a7,7,0,0,0,1.32.43l.48.13A10.31,10.31,0,0,0,65.23,43a12.5,12.5,0,0,1-3.44-3.1c1.52,6.83.52,14.48-3,22.8-.12.28-.24.56-.37.84a.41.41,0,0,1-.55.2.42.42,0,0,1-.21-.55c.12-.28.25-.57.36-.85,2.4-6,.71-12.55-.94-18.88-.28-1.08-.54-2.1-.79-3.12l-1.86-.25c-.25,1-.42,2.16-.59,3.27-.11.73-.21,1.41-.33,2.08a.43.43,0,0,1-.43.34.42.42,0,0,1-.4-.38,15.78,15.78,0,0,1,.56-5.32l0-.18a.35.35,0,0,1-.17-.15.37.37,0,0,1,0-.34,13.14,13.14,0,0,1,.66-1.87,5.75,5.75,0,0,0-1.66-5.09l-.4-.41c-1.69-1.75-2.26-2.35-3.85-1.53l-.08,0a14.26,14.26,0,0,1-1.82,2c1.21,3.61,2.79,7.23,4.32,10.74a118.89,118.89,0,0,1,4.66,11.77C55.82,58.13,56.71,61.12,57.44,64.19ZM34.49,51.59c-2.05,2.25-1.78,9-1.61,13.08q0,.36,0,.69c.2-.77.38-1.54.53-2.33.11-.56.3-1.29.52-2.12C34.75,57.88,35.93,53.39,34.49,51.59Zm9.72-3.52a93,93,0,0,1,7.67,9.24,35.51,35.51,0,0,0,2.46,3c.6.69,1.21,1.38,1.79,2.09-.61-2.31-1.31-4.62-2-7A116.29,116.29,0,0,0,49.46,43.7c-1.49-3.42-3-6.93-4.23-10.47l-.74.59a34.1,34.1,0,0,0-1.34,6.74c-.1.79-.2,1.56-.32,2.3a11.87,11.87,0,0,0,2.36.24,17.16,17.16,0,0,1,2.13.18.42.42,0,0,1,.29.21.43.43,0,0,1,0,.35,8.38,8.38,0,0,1-2.1,2.77A13.63,13.63,0,0,0,44.21,48.07Zm10.43-8.76,2,.27a.41.41,0,0,1,.35.32c.26,1.11.55,2.22.86,3.39,1.12,4.31,2.33,9,2.11,13.58,2.17-7.34,2.17-14,0-20a.42.42,0,0,1,.1-.45l0-.08a12.22,12.22,0,0,1-.26-3.86,4.61,4.61,0,0,1-5.53-.67c-2.19-2-3.82-6.41-4.36-11.82-.11-1-.16-2-.18-3-.14-.28-.29-.46-.42-.46h0c-.21,0-.67.44-1,1.35a3.7,3.7,0,0,0,1,4.14.38.38,0,0,1,.16.25,10.06,10.06,0,0,1-1,7.11c1.47-.31,2.4.66,3.78,2.09l.39.41a6.35,6.35,0,0,1,2,4.25,2.17,2.17,0,0,1,.73-.53,1.58,1.58,0,0,1,.56-.13,5.11,5.11,0,0,1,3-1.15.43.43,0,0,1,.34.13.4.4,0,0,1,.11.34,16.16,16.16,0,0,0,0,2.6,11.46,11.46,0,0,1-.31,4.5.43.43,0,0,1-.4.27h0a.42.42,0,0,1-.4-.28c-.05-.16-.15-.48-.28-.93a28.78,28.78,0,0,0-1.58-4.52l-.17-.08A6.83,6.83,0,0,0,54.64,39.31ZM110,52.84c4.42,1.83,9.43-1.79,13.53-4.75.92-.67,1.79-1.3,2.62-1.84-3.81-2.5-5.4-5.52-4.84-9.19a29,29,0,0,1-3.66,5.09l-1.1,1.34-.45.55a9.39,9.39,0,0,1-1,2.73A19.9,19.9,0,0,1,110,52.84Zm-1.15-.61.3.18a18.69,18.69,0,0,0,5.15-6c.13-.27.27-.55.4-.83-.38.41-.78.82-1.18,1.23A39.8,39.8,0,0,0,108.83,52.23Zm1.65-26c-1,3.17-1.44,10.6.36,13.08a7.43,7.43,0,0,0,3.67,2.78,2.84,2.84,0,0,1,1.36.85h0q.54-.67,1.11-1.35c2.57-3.09,5.23-6.28,4.71-10.67a3.32,3.32,0,0,1-1-.8,4.53,4.53,0,0,1-1-2.83v-.09a5.49,5.49,0,0,0-1.9-.91,9.23,9.23,0,0,0-3.09.12C113.13,26.65,111.49,26.86,110.48,26.27ZM56.92,35.82c.38.34.81,1.45,1.64,4.22a20.13,20.13,0,0,0,0-2.57,21.13,21.13,0,0,1-.06-2.22A4.11,4.11,0,0,0,56.92,35.82Zm99.89,2.68.05,0c0-.11.12-.23.18-.37.51-1,1.45-2.86,1.32-3.5a.76.76,0,0,0-.12-.26A14.65,14.65,0,0,0,156.81,38.5Zm-5.24-7.77c0,2,0,4,.08,6A45.41,45.41,0,0,1,154.38,32a12.67,12.67,0,0,1-1.85-.78Zm-29.38,4.14a.43.43,0,0,1,.3.16c.5.65,1,.83,1.55.55a3.07,3.07,0,0,0,1.29-1.64,11.11,11.11,0,0,1,.08-1.77c-.34-.89-.84-.88-1.68-.87a5.82,5.82,0,0,1-1.16-.06A9.83,9.83,0,0,1,122.19,34.87ZM124,30.46a2.19,2.19,0,0,1,1.58.47c.88-6.16-1.19-9.88-6.15-11-2.82-.67-8.14.74-9.37,2.94a1.78,1.78,0,0,0,.13,2,2.5,2.5,0,0,1,.33-.45c1.34-1.31,6.21-1.24,7.91-.41a3.27,3.27,0,0,1,2.08,2.87,6,6,0,0,1,1.95,3.56,3.77,3.77,0,0,0,1.25.11ZM64.83,21.54a30.5,30.5,0,0,0-3.91,9.22C62.53,29.34,63.8,25.11,64.83,21.54Zm55.85,6.67a3,3,0,0,0,.68,1.39l.07.08A5.37,5.37,0,0,0,120.68,28.21Zm43.38-3.78a10.9,10.9,0,0,1-1.9,3.46l-.06.09a7.42,7.42,0,0,0,1.19-1.38A3.59,3.59,0,0,0,164.06,24.43ZM152,25.16l.14.05a6.21,6.21,0,0,0,6.86-.14,8.94,8.94,0,0,0,3.59-8.54.41.41,0,0,1,.69-.37,1,1,0,0,0,1.49.09c1.1-1,1.58-3.76.84-4.9-.12-.19-.5-.76-1.71-.2a.43.43,0,0,1-.42,0,.4.4,0,0,1-.17-.38l0-.36c.26-2.81.66-7.06-5.32-9.21-2.6-.92-6.5.28-8.62,1.93-1.84,1.42-2.78,4.88-2.48,7.1.19,1.43.3,2.82.41,4.15.38,4.79.68,8.57,4.44,10.48A.43.43,0,0,1,152,25.16Zm-35,.23a4.19,4.19,0,0,1,1.09.12,6.42,6.42,0,0,1,1.48.58,2.51,2.51,0,0,0-1.44-1.42c-1.5-.73-6-.69-7,.26a1.87,1.87,0,0,0-.33.53c.7.56,2.36.34,3.83.14A18.31,18.31,0,0,1,116.93,25.39Zm-59.09-17a13.13,13.13,0,0,1,1.49.08c3.49.33,5.75,1.33,6.9,3A6.3,6.3,0,0,1,67,16.34a7.14,7.14,0,0,0,.89-4.14c-.15-2.9-1.46-5.56-3.19-6.47-3.81-2-10.14-1.26-12.59,2.72a14.83,14.83,0,0,0-1.43,6.45c0-.25.11-.51.16-.77a8,8,0,0,1,1.58-3.9C53.73,8.73,56,8.38,57.84,8.38Z" fill="#231f20"/></g></g></svg>