<svg xmlns="http://www.w3.org/2000/svg" viewBox="0 0 278 207.48"><g id="Layer_2" data-name="Layer 2"><g id="Spend"><path d="M58.2,145.61a3,3,0,0,1,4,1l.09.12a12.63,12.63,0,0,1,1.28-7.61,18.9,18.9,0,0,1,5.54-5.44A33.68,33.68,0,0,1,75.69,130a3.41,3.41,0,0,1,.68-.23c-.07-2.18-.12-4.36-.13-6.55,0-1.77-.1-3.62,0-5.43a12,12,0,0,1-5.16,2.6,4.79,4.79,0,0,1,1,2.73,4.58,4.58,0,0,1-4.53,4.53l-.51,0-.68.19-.44.23a6.93,6.93,0,0,1-1.67.52,2.62,2.62,0,0,1-1.56.33l-3.41,4.2-1,1.27s-.59.79-.59.77c-.23.33-.46.67-.67,1a7.16,7.16,0,0,1-.39.84c0,.18-.1.35-.14.53s0,.22,0,.42c0,.5,0,1,0,1.5.07,1,.21,2,.33,3.07s.32,2.4.54,3.82A2.93,2.93,0,0,1,58.2,145.61Z" fill="none"/><path d="M166.43,63.49l.1.06Z" fill="none"/><path d="M63.69,154.88c.17.65.36,1.29.58,1.89a.36.36,0,0,1,0,.09c-.15-.63-.29-1.25-.43-1.88l0-.09Z" fill="none"/><path d="M66.53,165.09s0,.09,0,.14a2.72,2.72,0,0,1-3.3,1.87,5,5,0,0,1-1.32-.48,154.64,154.64,0,0,0,6.52,18.1,6,6,0,0,1,.32,3.89l6-2.58a2.86,2.86,0,0,1-.53-.8A164.23,164.23,0,0,1,66.53,165.09Z" fill="none"/><path d="M131.55,171.56l-1.56.59v0l1.87-.51Z" fill="none"/><path d="M130.07,119.53c-.07-.71-.15-1.42-.22-2.13,0-.33-.07-.51-.07-.54l-.12-.78c-.11-.71-.24-1.41-.36-2.12l-.12-.75a3.36,3.36,0,0,1-1.49-4.75,6.45,6.45,0,0,1,3.67-2.67c.59-.2,1.2-.35,1.8-.49a4.81,4.81,0,0,1,1-.12h.05a4.58,4.58,0,0,1,.87-.71,4.35,4.35,0,0,1,1.89-.67c-.56-.16-1.12-.31-1.65-.44-1.35-.32-3-.54-4.52-1a3.76,3.76,0,0,1-3.82,1.16,4,4,0,0,1-2.81-3.3l-.12.32c-1,2.5-2,4.83-4.25,6.41a2.65,2.65,0,0,1-3-.21,2.72,2.72,0,0,1-1-2.8,8.33,8.33,0,0,1,.41-1.58,10.46,10.46,0,0,1-1.93,1.89c-.19.37-.4.74-.62,1.1,0,.47,0,.94,0,1.41,0,1.15-.07,2.42-.19,3.72a4.66,4.66,0,0,1,5.17-2,13.28,13.28,0,0,1,8.58,6.65c2,3.59,2.48,7.71,2.5,11.77,0,2,0,3.89.07,5.83.05.93.14,1.86.24,2.79l0,.25,0,.24c.08.51.16,1,.26,1.51a48.51,48.51,0,0,0,1.34,5.44c0,.1.07.2.1.3-.67-5-1-10.06-1.24-15.12C130.5,125.26,130.35,122.39,130.07,119.53Z" fill="none"/><path d="M131,159.09a4.22,4.22,0,0,1,.43-4.86,4.9,4.9,0,0,1-2,.47,20.07,20.07,0,0,1-4.78,10.62q4.83-1.92,9.67-3.82A5.86,5.86,0,0,1,131,159.09Z" fill="none"/><path d="M136.25,152.71c.14,0,1.38.23,1.23.23a27.21,27.21,0,0,0,2.85.15c1,0,2.08-.07,3.11-.14l.29,0,.45-.08c.51-.09,1-.19,1.53-.31a27.62,27.62,0,0,0,3-.89l.7-.27.23-.1,1.2-.59c1-.51,1.94-1.09,2.93-1.59a7.23,7.23,0,0,1,1.1-.49l.32-.16a4.41,4.41,0,0,1,3.5-.34,4,4,0,0,1,2.67,2.91c1.08-.41,2.15-.8,3.24-1.17a5.09,5.09,0,0,1-2.93-.75,8.65,8.65,0,0,1-3-3.94,46.33,46.33,0,0,1-3.92-17.79c-.15-3.23-.05-6.46,0-9.68l.09-5c0-.74,0-1.48,0-2.22,0-.36,0-.72,0-1.07-.06-.12-.12-.24-.17-.36a2.79,2.79,0,0,1-.13-1.73,3.57,3.57,0,0,1-.3-1,2.86,2.86,0,0,1,1.31-2.91,7,7,0,0,1-1.78-2.26,4.15,4.15,0,0,1-.52,1.26,10.81,10.81,0,0,1-3.71,3.17c-1.55,1-3.46,1.91-5.35,1.23a4.55,4.55,0,0,1-2.48-2,13.7,13.7,0,0,1-1.4-.17,5.26,5.26,0,0,1,1.67,1.65c1.81,2.9,1.74,6.24,1.58,9.52s-.29,6.37-.44,9.56q-.45,9.71-.89,19.4a5.11,5.11,0,0,1-4.4,5,5.56,5.56,0,0,1-4-1.14,4.73,4.73,0,0,1-1,4.52A5.23,5.23,0,0,1,136.25,152.71Z" fill="none"/><path d="M187.4,138.25h.08l.07-.08C187.47,138.22,187.41,138.26,187.4,138.25Z" fill="none"/><path d="M186.34,139l.07-.16a.5.5,0,0,0-.1.19Z" fill="none"/><path d="M187.66,138.12l.05,0,0,0Z" fill="none"/><path d="M172.37,113l.32-.78-.58,0C172.2,112.44,172.29,112.69,172.37,113Z" fill="none"/><path d="M187.79,138c.09-.11.09-.17-.12,0Z" fill="none"/><path d="M165.56,63.06l-.28-.29h0C165.36,62.87,165.47,63,165.56,63.06Z" fill="none"/><path d="M149.51,38l.32.32a15.48,15.48,0,0,1-1-2.35c0,.1-.09.2-.14.3A2.81,2.81,0,0,0,149.51,38Z" fill="none"/><path d="M173.53,54.81a3.8,3.8,0,0,1-1.47-.76c-.11.09-.22.18-.34.26-.16.86-.36,1.71-.6,2.54a4.73,4.73,0,0,1-2.19,2.8,3.2,3.2,0,0,1-2,2.89,3.25,3.25,0,0,1-1.65.23,4.5,4.5,0,0,0,.54.41c.12.08.25.14.37.21l.43.14.71.17h.1l.34,0c1.13-1.42,2.35-2.77,3.6-4.1a49,49,0,0,1,5.05-5l0-.05A4.38,4.38,0,0,1,173.53,54.81Z" fill="none"/><path d="M187.59,138.14l0,0,.11-.06Z" fill="none"/><path d="M186.45,138.76l0,.11c.43-.42.22-.33,0-.14Z" fill="none"/><path d="M116.68,160l-.29.14-.06.06.32-.18Z" fill="none"/><path d="M62.14,84.36h0C61.94,84.1,61.55,83.67,62.14,84.36Z" fill="none"/><path d="M119.18,155.57v.31a3.67,3.67,0,0,1-.08.75q.21-.63.39-1.26Z" fill="none"/><path d="M184.8,107.64c0,1,.07,2,.09,2.93q.78-4.18,1.43-8.37a19.88,19.88,0,0,1-3.18,2A4.69,4.69,0,0,1,184.8,107.64Z" fill="none"/><path d="M45.34,128.82a0,0,0,0,0,0,0h-.06Z" fill="none"/><path d="M55.53,98.25a3.73,3.73,0,0,1-2.33-1.2c.32,1.29.59,2.59.83,3.89.2.42.39.85.58,1.28a11.06,11.06,0,0,1-.18-1.52A2.91,2.91,0,0,1,55.53,98.25Z" fill="none"/><path d="M93.09,117.83h0a1.54,1.54,0,0,0,.12-.13Z" fill="none"/><path d="M93.24,117.66c.06-.06.07-.08,0,0Z" fill="none"/><path d="M131.42,171.52a3.77,3.77,0,0,0-.75-.2h0s0,0-.2,0l-.42.06a3.07,3.07,0,0,1,0,.74l1.56-.59Z" fill="#c4c2c1"/><path d="M164.58,149.84c-1.09.37-2.16.76-3.24,1.17a6.45,6.45,0,0,1,.16.81,3.54,3.54,0,0,1-.53,2.28l.84-.34q7.42-3,14.88-5.91a29.41,29.41,0,0,0-5.46.29c-1.26.44-2.53.84-3.82,1.2A12.2,12.2,0,0,1,164.58,149.84Z" fill="#c4c2c1"/><path d="M121.51,169.44h.31c1.53-2.87,4.6-4.1,7.69-4.87a15,15,0,0,1,4.74-.75,17.2,17.2,0,0,1,5.75,1.4c2.39,1.09,2.78,4.38,1.69,6.44a4.74,4.74,0,0,1-6.45,1.69c-.47-.33-.89-.73-1.35-1.06h0c.19.09-.61-.11-.08,0h.08l-.15-.06-.77-.25-1.08-.33-1.87.51a4,4,0,0,1-.16.64,5,5,0,0,1-1.29,2.23,25.79,25.79,0,0,1,3.29-.88,7.84,7.84,0,0,1,6.8,1.78,15.23,15.23,0,0,1,3.93-3.77c-.6.46-.17.12.13-.19a5.15,5.15,0,0,1,1.35-1.21,4.69,4.69,0,0,1,1.56-.55c.24-.75.49-1.5.73-2.25a41.64,41.64,0,0,1,2.28-6.49l-.62.15a29.07,29.07,0,0,1-8.1.74,34.79,34.79,0,0,1-4.31-.55,12.33,12.33,0,0,1-1.33-.32q-4.83,1.89-9.67,3.82c-.21.24-.43.47-.67.7a14.6,14.6,0,0,1-4.79,3.1c.64.06,1.28.14,1.91.24Z" fill="#c4c2c1"/><path d="M274.76,185.26c-2.23-1.36-5.16-1.72-7.66-2.34l-8-2c-22.29-5.56-41.6-20.79-63.38-28.12l-1-.34c-.34,1.24-.69,2.48-1.06,3.71-.83,2.83-1.69,5.64-2.63,8.43-1.68,5-2.89,11-7.77,13.78-4.57,2.63-9.48,4.8-14.19,7.18s-9.54,4.81-14.33,7.19-9.52,4.93-14.43,7c-2.29,1-4.58.35-5.59-1.94a41,41,0,0,1-4.56-1.84c-2.32-1-4.64-1.93-7-2.93-4.3-1.87-8.72-3.64-12.83-5.9-3.6-2-1.09-7.46,2.72-6.47l.34.09a2.41,2.41,0,0,1,1-.88c.75-.32,1.49-.61,2.24-.89l-.91-.08c-3.16-.35-6.3-.88-9.44-1.34-1.54-.23-3.07-.43-4.57-.72a3.36,3.36,0,0,1-1,1.76c-1.73,1.64-4.22,2.16-6.4,3-1.65.63-3.28,1.23-4.89,2q-2.72,1.26-5.36,2.65c-1.84,1-3.56,2.2-5.68,2.39a3.13,3.13,0,0,1-3.06-2,3.05,3.05,0,0,1-.78-.61l-6,2.58a3.44,3.44,0,0,1-1.94,2.3,111.6,111.6,0,0,1-16.21,5.76l-2,.92c-1.94.88-2,3.18-1.08,4.79a3.39,3.39,0,0,0,3.5,3.43c17.51.25,35,.05,52.53-.06s35-.1,52.53-.11c35,0,34,.24,69.06.8,19.77.31,27.54.6,47.3,1a5.24,5.24,0,0,0,4.71-3.14,5.32,5.32,0,0,0,.67-2.44c.08-2.61.15-5.22.23-7.84C278.08,190.74,278,187.22,274.76,185.26Z" fill="#e6cfc4"/><path d="M124.66,184.26l-.39.11.48.17Z" fill="#c4c2c1"/><path d="M96.79,175.37a3,3,0,0,1-.36-.19,13.59,13.59,0,0,1-11-2.77c-5-3.93-6.07-10.63-6.87-16.51q-1.48-11-2-22.09c-.07-1.37-.12-2.73-.17-4.09a3.41,3.41,0,0,0-.68.23,33.68,33.68,0,0,0-6.59,3.78,18.9,18.9,0,0,0-5.54,5.44,12.63,12.63,0,0,0-1.28,7.61c.25.39.49.79.73,1.18.13.22.28.43.42.64l.07.09,0,.07a17.5,17.5,0,0,0,1.83,2.29,2.28,2.28,0,0,1,.17,3,2.11,2.11,0,0,1-1.69.86l0,.09c.14.63.28,1.25.43,1.88,1,2.55,2.68,5.29,2.22,8.23a164.23,164.23,0,0,0,7.62,20.14,2.86,2.86,0,0,0,.53.8,3.05,3.05,0,0,0,.78.61,3.13,3.13,0,0,0,3.06,2c2.12-.19,3.84-1.42,5.68-2.39s3.55-1.81,5.36-2.65c1.61-.74,3.24-1.34,4.89-2,2.18-.84,4.67-1.36,6.4-3a3.36,3.36,0,0,0,1-1.76A23.54,23.54,0,0,1,96.79,175.37Z" fill="#575757"/><path d="M64.5,117.67a4.32,4.32,0,0,1,0,1.43,7.54,7.54,0,0,1,3-.57,4.61,4.61,0,0,1,3.57,1.81,12,12,0,0,0,5.16-2.6,12.92,12.92,0,0,1,1.31-5.1,11.07,11.07,0,0,1,7.09-5.45,22,22,0,0,0,0-6c-.44-3.69-1.07-7.36-1.62-11A17.76,17.76,0,0,0,81.7,84.9a12.28,12.28,0,0,0-4.55-4.53l-5-3.36a10.55,10.55,0,0,0-5.75-3.55,5,5,0,0,0-5.88,2.88,4.84,4.84,0,0,0,.25,4.32,2.44,2.44,0,0,0,0,.27c.12,6.14.2,12.34,0,18.51,1.37,2.65,1.87,6.07,2.42,9C63.77,111.46,63.91,114.62,64.5,117.67ZM62.14,84.36h0C61.55,83.67,61.94,84.1,62.14,84.36Z" fill="#607988"/><path d="M68.73,188.61a6,6,0,0,0-.32-3.89,154.64,154.64,0,0,1-6.52-18.1c-2.69-1.38-4.16-4.9-5.12-7.53-1.09-3-2.5-7.24-.73-10.19a3.15,3.15,0,0,1,.77-.85,2.8,2.8,0,0,1,.54-1.7c-.22-1.42-.4-2.69-.54-3.82s-.26-2-.33-3.07c0-.5,0-1,0-1.5q0-.3,0-.42c0-.18.09-.35.14-.53a7.16,7.16,0,0,0,.39-.84c.21-.35.44-.69.67-1,0,0,.6-.78.59-.77l1-1.27,3.41-4.2a2.68,2.68,0,0,1-2.3-2.2,4.73,4.73,0,0,1,.25-4.3,3.72,3.72,0,0,1-3.56-3.73,40.19,40.19,0,0,0-.85-8.66c-.25-1.5-.54-3-.86-4.49-.24-1.1-.56-2.2-.76-3.31-.19-.43-.38-.86-.58-1.28-.24-1.3-.51-2.6-.83-3.89a4.51,4.51,0,0,1-.91-1.55c-1-2.93-2.18-5.84-3.21-8.77a76,76,0,0,0-2.63-7.17,20.79,20.79,0,0,0-1.77-3.07L44.29,76a4.37,4.37,0,0,0-1.18-.5,2.67,2.67,0,0,0-1.28-1.68,2.92,2.92,0,0,0-3.95,1,40.58,40.58,0,0,1-7,8.63,26.86,26.86,0,0,1-4.14,3.26c-1.81,1.19-3.59,2-5.19,2.85a9.08,9.08,0,0,0-4.78,5.21c-.73,2.3-.28,4.87-.1,7.22.36,4.85.72,9.7,1.17,14.54q1.36,14.68,2.7,29.37c.22,2.37.25,4.92,1.05,7.18a12,12,0,0,0,4,5.52c.85.67,1.72,1.29,2.61,1.91l.52.36.41.3.2.17c.22.2.44.39.66.6s.61.64.91,1a2,2,0,0,0,.21.23l.17.26a25,25,0,0,1,1.61,2.68c.24.47.46.94.68,1.42l.08.16.33.86c.38,1,.72,2,1,3,.81,2.45,1.54,4.91,2.22,7.4a158.09,158.09,0,0,1,3.42,15.68c.41,2.49,3.37,3.62,5.54,3.15q2.18-.48,4.32-1.05a111.6,111.6,0,0,0,16.21-5.76A3.44,3.44,0,0,0,68.73,188.61Z" fill="#607988"/><path d="M55.53,98.25a2.91,2.91,0,0,0-1.1,2.45,11.06,11.06,0,0,0,.18,1.52c.2,1.11.52,2.21.76,3.31.32,1.49.61,3,.86,4.49a40.19,40.19,0,0,1,.85,8.66,3.72,3.72,0,0,0,3.56,3.73,8,8,0,0,1,3.91-3.31,4.32,4.32,0,0,0,0-1.43c-.59-3-.73-6.21-1.32-9.28-.55-2.88-1-6.3-2.42-9l-.21-.4a3.05,3.05,0,0,0-2.22-1.51A4,4,0,0,1,55.53,98.25Z" fill="#3fbec4"/><path d="M66.51,165.23s0-.1,0-.14c.46-2.94-1.23-5.68-2.22-8.23a.36.36,0,0,0,0-.09c-.22-.6-.41-1.24-.58-1.89h.17a2.11,2.11,0,0,0,1.69-.86,2.28,2.28,0,0,0-.17-3,17.5,17.5,0,0,1-1.83-2.29l0-.07-.07-.09c-.14-.21-.29-.42-.42-.64-.24-.39-.48-.79-.73-1.18l-.09-.12a3,3,0,0,0-4-1,2.93,2.93,0,0,0-.85.74,2.8,2.8,0,0,0-.54,1.7,3.15,3.15,0,0,0-.77.85c-1.77,2.95-.36,7.19.73,10.19,1,2.63,2.43,6.15,5.12,7.53a5,5,0,0,0,1.32.48A2.72,2.72,0,0,0,66.51,165.23Z" fill="#9c704b"/><path d="M64.25,128.58a6.93,6.93,0,0,0,1.67-.52l.44-.23.68-.19.51,0a4.58,4.58,0,0,0,4.53-4.53,4.79,4.79,0,0,0-1-2.73,4.61,4.61,0,0,0-3.57-1.81,7.54,7.54,0,0,0-3,.57,8,8,0,0,0-3.91,3.31,4.73,4.73,0,0,0-.25,4.3,2.68,2.68,0,0,0,2.3,2.2A2.62,2.62,0,0,0,64.25,128.58Z" fill="#9c704b"/><path d="M46.45,79.56a76,76,0,0,1,2.63,7.17c1,2.93,2.16,5.84,3.21,8.77a4.51,4.51,0,0,0,.91,1.55,3.73,3.73,0,0,0,2.33,1.2,4,4,0,0,0,2.8-.72A4.2,4.2,0,0,0,60,94.46c.6-6.49-1.32-12.72-2.69-18.94a8.15,8.15,0,0,0,5.78-2.76c2.1-2.45,2.66-5.47,2.53-8.62-.2-5.21-.53-10.57-2-15.59-.17-.56-.35-1.13-.54-1.69,0,0,0,.07,0,.11.14,2.64-1.59,4.58-3.39,6.25a17.55,17.55,0,0,1-5.59,3.69,11.44,11.44,0,0,1-6.78.28l-.51-.12a31.78,31.78,0,0,1-3.13,2.19A5,5,0,0,1,36.14,55c0-.28,0-.56,0-.83a9.53,9.53,0,0,1-.74-1.85c-3.07,3.36-1.53,8,1.38,11,.51.52,1,1,1.55,1.55l.22.24.14.2c.21.31.42.63.62,1s.38.66.56,1l.33.75.21.59c.14.44.26.88.37,1.33a4.81,4.81,0,0,0,1.6,2.48A7.78,7.78,0,0,0,44.29,76l.39.53A20.79,20.79,0,0,1,46.45,79.56Z" fill="#9c704b"/><path d="M36.14,55a5,5,0,0,0,7.51,4.3,31.78,31.78,0,0,0,3.13-2.19l.51.12a11.44,11.44,0,0,0,6.78-.28,17.55,17.55,0,0,0,5.59-3.69c1.8-1.67,3.53-3.61,3.39-6.25,0,0,0-.08,0-.11a11,11,0,0,0-2.64-5.68,12.66,12.66,0,0,0-5.67-4.56A9,9,0,0,0,51,36.07c-.17-.35-.35-.69-.55-1A4.6,4.6,0,0,0,45.42,33c-2.67.61-5.17,1.53-6.82,3.85a7.06,7.06,0,0,0-1.39,3.88,8,8,0,0,0,.16,1.77,9.88,9.88,0,0,0-1.21,1.9A11.63,11.63,0,0,0,35,49.19a10.87,10.87,0,0,0,.4,3.09,9.53,9.53,0,0,0,.74,1.85C36.15,54.4,36.14,54.68,36.14,55Z" fill="#4c2f1a"/><path d="M77.59,112.64a12.92,12.92,0,0,0-1.31,5.1c-.14,1.81,0,3.66,0,5.43,0,2.19.06,4.37.13,6.55,0,1.36.1,2.72.17,4.09q.55,11.08,2,22.09c.8,5.88,1.92,12.58,6.87,16.51a13.59,13.59,0,0,0,11,2.77c-1.58-1-2.1-3.24-1.72-4.91.48-2.09,2.43-3.07,4.35-3.31,3-.39,6.23.36,9.24.77l4.08.57,2.18.3.3,0,.37.05c1.07.13,2.14.25,3.22.36l.67.07a14.6,14.6,0,0,0,4.79-3.1c.24-.23.46-.46.67-.7a20.07,20.07,0,0,0,4.78-10.62,4.9,4.9,0,0,0,2-.47,3.57,3.57,0,0,1,1.09-.92l.41-.2a4.73,4.73,0,0,0,1-4.52,4,4,0,0,1-1.57-2.5c-.16-1-.3-1.9-.43-2.85,0-.1-.06-.2-.1-.3a48.51,48.51,0,0,1-1.34-5.44c-.1-.5-.18-1-.26-1.51l0-.24,0-.25c-.1-.93-.19-1.86-.24-2.79-.11-1.94,0-3.88-.07-5.83,0-4.06-.47-8.18-2.5-11.77a13.28,13.28,0,0,0-8.58-6.65,4.66,4.66,0,0,0-5.17,2c-.34,3.68-1.32,7.6-4.45,9.49-4.72,2.85-10.06-2.9-12.44-6.52a19.87,19.87,0,0,1-2.76-6.74l-.72-.08a14.77,14.77,0,0,1-2.46-.31,24.57,24.57,0,0,0-6.06.88A11.07,11.07,0,0,0,77.59,112.64Zm15.5,5.19.12-.13a1.54,1.54,0,0,1-.12.13Z" fill="#8f7b8f"/><path d="M113.78,105.34c.22-.36.43-.73.62-1.1a10.46,10.46,0,0,0,1.93-1.89c.51-1.42,1.3-2.75,1.79-4.18a28.4,28.4,0,0,0,1.32-5.44,27.22,27.22,0,0,0,.07-6.25c-.05-.5-.14-1-.24-1.5a4.33,4.33,0,0,1-.74-.27,7.31,7.31,0,0,1-3.35-4l-.25-.54-.56.24-.12,0a24.46,24.46,0,0,0-2.55,1.43c-.1.07-.84.59-1,.66l-.57.45c.26-.21.2-.15-.18.15-.81.69-1.59,1.4-2.34,2.17s-1.49,1.55-2.18,2.37c-.28.34-.56.67-.83,1s-.36.45-.53.68c.22-.29.17-.23-.14.18-.8,1.07-1.26,1.61-1.88,2.43-.93,1.24-2,2.77-3.63,3.06h0a21.4,21.4,0,0,0,.38,4c.28,1.56,1,3,1.2,4.58.35,2.53-1.93,4.85-4.47,3.44a4.83,4.83,0,0,0-1.59-.44,19.87,19.87,0,0,0,2.76,6.74c2.38,3.62,7.72,9.37,12.44,6.52,3.13-1.89,4.11-5.81,4.45-9.49.12-1.3.16-2.57.19-3.72C113.77,106.28,113.78,105.81,113.78,105.34Z" fill="#de986b"/><path d="M123.63,176.74c1.63-.51,3.26-1.16,4.91-1.7a5,5,0,0,0,1.29-2.23,4,4,0,0,0,.16-.64v0a3.07,3.07,0,0,0,0-.74l.42-.06c.2,0,.23,0,.2,0h0a3.77,3.77,0,0,1,.75.2l.13,0,.31.1,1.08.33.77.25.15.06h0c.46.33.88.73,1.35,1.06a4.74,4.74,0,0,0,6.45-1.69c1.09-2.06.7-5.35-1.69-6.44a17.2,17.2,0,0,0-5.75-1.4,15,15,0,0,0-4.74.75c-3.09.77-6.16,2-7.69,4.87h-.31l-.48-.08c-.63-.1-1.27-.18-1.91-.24l-.67-.07c-1.08-.11-2.15-.23-3.22-.36l-.37-.05-.3,0-2.18-.3-4.08-.57c-3-.41-6.2-1.16-9.24-.77-1.92.24-3.87,1.22-4.35,3.31-.38,1.67.14,3.95,1.72,4.91a3,3,0,0,0,.36.19,23.54,23.54,0,0,0,5.07,1.49c1.5.29,3,.49,4.57.72,3.14.46,6.28,1,9.44,1.34l.91.08C119,178.17,121.33,177.47,123.63,176.74Z" fill="#de986b"/><path d="M133.86,172.3h-.08C133.25,172.19,134.05,172.39,133.86,172.3Z" fill="#de986b"/><path d="M131,159.09a5.86,5.86,0,0,0,3.28,2.41,12.33,12.33,0,0,0,1.33.32,34.79,34.79,0,0,0,4.31.55,29.07,29.07,0,0,0,8.1-.74l.62-.15c.09-.17.18-.35.28-.52,1.41-2.39,3.71-3.38,6.15-4.41q3-1.25,5.93-2.45a3.54,3.54,0,0,0,.53-2.28,6.45,6.45,0,0,0-.16-.81,4,4,0,0,0-2.67-2.91,4.41,4.41,0,0,0-3.5.34l-.32.16a7.23,7.23,0,0,0-1.1.49c-1,.5-1.94,1.08-2.93,1.59l-1.2.59-.23.1-.7.27a27.62,27.62,0,0,1-3,.89c-.51.12-1,.22-1.53.31l-.45.08-.29,0c-1,.07-2.06.14-3.11.14a27.21,27.21,0,0,1-2.85-.15c.15,0-1.09-.21-1.23-.23a5.23,5.23,0,0,0-3.35.4l-.41.2a3.57,3.57,0,0,0-1.09.92A4.22,4.22,0,0,0,131,159.09Z" fill="#de986b"/><path d="M161,154.1q-3,1.2-5.93,2.45c-2.44,1-4.74,2-6.15,4.41-.1.17-.19.35-.28.52a41.64,41.64,0,0,0-2.28,6.49c-.24.75-.49,1.5-.73,2.25a4.69,4.69,0,0,0-1.56.55,5.15,5.15,0,0,0-1.35,1.21c-.3.31-.73.65-.13.19a15.23,15.23,0,0,0-3.93,3.77,7.84,7.84,0,0,0-6.8-1.78,25.79,25.79,0,0,0-3.29.88c-1.65.54-3.28,1.19-4.91,1.7-2.3.73-4.59,1.43-6.85,2.26-.75.28-1.49.57-2.24.89a2.41,2.41,0,0,0-1,.88l-.34-.09c-3.81-1-6.32,4.5-2.72,6.47,4.11,2.26,8.53,4,12.83,5.9,2.31,1,4.63,2,7,2.93a41,41,0,0,0,4.56,1.84c1,2.29,3.3,2.91,5.59,1.94,4.91-2.07,9.66-4.64,14.43-7s9.57-4.77,14.33-7.19,9.62-4.55,14.19-7.18c4.88-2.81,6.09-8.8,7.77-13.78.94-2.79,1.8-5.6,2.63-8.43.37-1.23.72-2.47,1.06-3.71l.15-.54c.53-1.89,1.35-3.92.63-5.85a4.42,4.42,0,0,0-4.29-3.11A3.52,3.52,0,0,0,189,143l-12.29,4.83q-7.45,2.94-14.88,5.91Zm-36.31,30.16.09.28-.48-.17Z" fill="#969697"/><path d="M92.16,84.08c.18-.53.39-1,.6-1.57a4.63,4.63,0,0,1,.09-.49c2-7.39,8.86-12.89,16-15.14a10.79,10.79,0,0,1,7.5.39,4.3,4.3,0,0,1-.53-1,4.4,4.4,0,0,1-.18-.51,3.87,3.87,0,0,1-.73-.13,3.82,3.82,0,0,1-2.6-4.57c.21-1.07.74-2,1-3.08s.49-1.92.72-2.89c.44-1.94.58-4.52,2.25-5.85.89-.71,2.42-1,3.27,0,1.61,2,1.23,4.35.93,6.73-.14,1.19-.37,2.38-.52,3.57a6.89,6.89,0,0,1,1.27,2.62,14.55,14.55,0,0,1,.72,3.28,3.13,3.13,0,0,1-2.73,3.09,3.27,3.27,0,0,1-.62,0,12,12,0,0,1,2.26,2.18,14.71,14.71,0,0,1,3.21,8.11c1.51,2.17,1.82,4.76,2.06,7.38.08.84.11,1.68.11,2.51a3.52,3.52,0,0,1,2.07-.43,15.64,15.64,0,0,1,5.2-.12c1.55.09,3.08.19,4.63.2a52.47,52.47,0,0,0,8.47-.6,15.74,15.74,0,0,0,0-3.76c-.12-1.69-.23-3.39-.35-5.08l-.7-10.15c-.23-3.39-.47-6.77-.7-10.16-.25-3.61-.59-7.08-2.09-10.41-2.34-5.24-7.7-8.84-13.08-10.37a24.5,24.5,0,0,0-5-.87,4.81,4.81,0,0,1-3.38,1.51h-.42a3.09,3.09,0,0,1,1.22,1.7,6.25,6.25,0,0,1-1.5,5.74A2.72,2.72,0,0,1,116,44a27.28,27.28,0,0,0,0-3A3.11,3.11,0,0,1,118.74,38l.39,0a4.25,4.25,0,0,1-.89-.69H118a53.28,53.28,0,0,0-5.84,1.14,5.24,5.24,0,0,0-6.9-2q-3.41,1.86-6.79,3.74a70,70,0,0,0-6.18,3.55c-4.58,3.19-6.19,8.31-7.63,13.47A76.6,76.6,0,0,0,82,72.36c-.31,4.46-1.16,11.53,3.68,14a7.36,7.36,0,0,0,2.1.74,3.91,3.91,0,0,0,2.41,1.93,4,4,0,0,0,.74.13A24.89,24.89,0,0,1,92.16,84.08Z" fill="#c8eaff"/><path d="M137.88,149.73a5.11,5.11,0,0,0,4.4-5q.45-9.7.89-19.4c.15-3.19.3-6.37.44-9.56s.23-6.62-1.58-9.52a5.26,5.26,0,0,0-1.67-1.65c-1.13-.2-2.27-.53-3.36-.83a4.35,4.35,0,0,0-1.89.67,4.58,4.58,0,0,0-.87.71h-.05a4.81,4.81,0,0,0-1,.12c-.6.14-1.21.29-1.8.49a6.45,6.45,0,0,0-3.67,2.67,3.36,3.36,0,0,0,1.49,4.75l.12.75c.12.71.25,1.41.36,2.12l.12.78s0,.21.07.54c.07.71.15,1.42.22,2.13.28,2.86.43,5.73.58,8.59.28,5.06.57,10.11,1.24,15.12.13.95.27,1.9.43,2.85a4,4,0,0,0,1.57,2.5A5.56,5.56,0,0,0,137.88,149.73Z" fill="#394a51"/><path d="M93.92,106.7a4.83,4.83,0,0,1,1.59.44c2.54,1.41,4.82-.91,4.47-3.44-.21-1.55-.92-3-1.2-4.58a21.4,21.4,0,0,1-.38-4h0c1.62-.29,2.7-1.82,3.63-3.06.62-.82,1.08-1.36,1.88-2.43.31-.41.36-.47.14-.18.17-.23.35-.46.53-.68s.55-.67.83-1c.69-.82,1.42-1.61,2.18-2.37s1.53-1.48,2.34-2.17c.38-.3.44-.36.18-.15l.57-.45c.13-.07.87-.59,1-.66a24.46,24.46,0,0,1,2.55-1.43l.12,0,.56-.24.25.54a7.31,7.31,0,0,0,3.35,4,4.33,4.33,0,0,0,.74.27c.1.5.19,1,.24,1.5a27.22,27.22,0,0,1-.07,6.25,28.4,28.4,0,0,1-1.32,5.44c-.49,1.43-1.28,2.76-1.79,4.18a8.33,8.33,0,0,0-.41,1.58,2.72,2.72,0,0,0,1,2.8,2.65,2.65,0,0,0,3,.21c2.27-1.58,3.26-3.91,4.25-6.41l.12-.32a3.16,3.16,0,0,1,.15-1.39,8.34,8.34,0,0,0,.66-3.4c0-1.31-.37-2.54-.44-3.89a3,3,0,0,1,1.67-2.77c0-.83,0-1.67-.11-2.51-.24-2.62-.55-5.21-2.06-7.38a14.71,14.71,0,0,0-3.21-8.11,12,12,0,0,0-2.26-2.18,3,3,0,0,1-2.3-1.31,10.79,10.79,0,0,0-7.5-.39c-7.09,2.25-14,7.75-16,15.14a4.63,4.63,0,0,0-.09.49c-.21.52-.42,1-.6,1.57A24.89,24.89,0,0,0,91,89.2a27.69,27.69,0,0,0-.08,6.17,23.83,23.83,0,0,0,1,5.49,4.79,4.79,0,0,0-2,.66c-1.5.92-1.89,3.7,0,4.51a5.68,5.68,0,0,0,.82.28,14.77,14.77,0,0,0,2.46.31Z" fill="#f5dc72"/><path d="M133.51,88.21a15.64,15.64,0,0,0-5.2.12,3.52,3.52,0,0,0-2.07.43,3,3,0,0,0-1.67,2.77c.07,1.35.4,2.58.44,3.89a8.34,8.34,0,0,1-.66,3.4,3.16,3.16,0,0,0-.15,1.39,4,4,0,0,0,2.81,3.3,3.76,3.76,0,0,0,3.82-1.16c1.51.46,3.17.68,4.52,1,.53.13,1.09.28,1.65.44,1.09.3,2.23.63,3.36.83a13.7,13.7,0,0,0,1.4.17,4.69,4.69,0,0,1-.61-2.09c-.14-2.41,1.67-4.08,3.48-5.31a8.74,8.74,0,0,1,4.75-1.87,4.14,4.14,0,0,1,1.86.39c.4-1,.76-1.91,1.08-2.89a4.3,4.3,0,0,0-1.11-4.17,4.46,4.46,0,0,0-4.17-1.1l-.43.06a52.47,52.47,0,0,1-8.47.6C136.59,88.4,135.06,88.3,133.51,88.21Z" fill="#dad8d8"/><path d="M118.74,38A3.11,3.11,0,0,0,116.05,41a27.28,27.28,0,0,1,0,3A2.72,2.72,0,0,0,120.65,46a6.25,6.25,0,0,0,1.5-5.74,3.09,3.09,0,0,0-1.22-1.7,4,4,0,0,1-1.8-.55Z" fill="#2c2e72"/><path d="M119.22,68.56A3.13,3.13,0,0,0,122,65.47a14.55,14.55,0,0,0-.72-3.28A6.89,6.89,0,0,0,120,59.57c.15-1.19.38-2.38.52-3.57.3-2.38.68-4.74-.93-6.73-.85-1-2.38-.71-3.27,0-1.67,1.33-1.81,3.91-2.25,5.85-.23,1-.44,1.94-.72,2.89s-.84,2-1,3.08a3.82,3.82,0,0,0,2.6,4.57,3.87,3.87,0,0,0,.73.13,4.4,4.4,0,0,0,.18.51,4.3,4.3,0,0,0,.53,1,3,3,0,0,0,2.3,1.31A3.27,3.27,0,0,0,119.22,68.56Z" fill="#2c2e72"/><path d="M119.13,38a4,4,0,0,0,1.8.55h.42A4.81,4.81,0,0,0,124.73,37,6,6,0,0,0,126,35a46.66,46.66,0,0,0,2.91-10.19,26.45,26.45,0,0,0,1.73-6.76,2.31,2.31,0,0,1-3.36-1.92,11.76,11.76,0,0,0-.8-3.19,7.93,7.93,0,0,1-3.4,0c-.91-.16-1.81-.36-2.71-.55A15.1,15.1,0,0,1,115,10.58l-.52.45-.56.52a2.25,2.25,0,0,1-.41.34c.1-.06.06,0-.14.32l-.15.31s-.14.39-.13.35a10.69,10.69,0,0,0-.44,1.66c-.16.89-.38,2-.58,3-.43,2.05-3,1.87-4,.53a6.15,6.15,0,0,1-.74-1.24c-1.6,3.35.31,7.37,3.12,9.57.16.69.32,1.39.5,2.07.88,3.32,2.4,6.57,5.53,8.28a4.45,4.45,0,0,0,1.6.51h.21A4.25,4.25,0,0,0,119.13,38Z" fill="#664c38"/><path d="M144.63,97.39c-1.81,1.23-3.62,2.9-3.48,5.31a4.69,4.69,0,0,0,.61,2.09,4.55,4.55,0,0,0,2.48,2c1.89.68,3.8-.22,5.35-1.23a10.81,10.81,0,0,0,3.71-3.17,4.15,4.15,0,0,0,.52-1.26,8.13,8.13,0,0,1-.82-3.73,4.7,4.7,0,0,0-1.76-1.46,4.14,4.14,0,0,0-1.86-.39A8.74,8.74,0,0,0,144.63,97.39Z" fill="#664c38"/><path d="M153.82,101.1a7,7,0,0,0,1.78,2.26,4.12,4.12,0,0,1,.66-.35,6.26,6.26,0,0,1,3.66.07,56.44,56.44,0,0,0,5.6.83,36.2,36.2,0,0,0,6.16,0c.48,0,.95-.09,1.42-.15l1.16-.16c1-.15,1.93-.34,2.89-.56a4.77,4.77,0,0,1,2.16,0,5,5,0,0,1,3.83,1.16,19.88,19.88,0,0,0,3.18-2q-.65,4.18-1.43,8.37a148.84,148.84,0,0,1-.51,17.16,4.19,4.19,0,0,0,1.47.66c2.31.53,5.34-.7,5.81-3.3,2-11.21,4-22.48,4.68-33.86.58-9.5.38-19.29-2.19-28.49-.07-.88-.15-1.75-.26-2.63-.37-3.12-.61-6.72-2.31-9.47a8,8,0,0,0-10.31-3.29,6.72,6.72,0,0,0-2.47,2.07c-.08.85-.17,1.71-.29,2.57a3.36,3.36,0,0,1-2,2.49l0,.05a49,49,0,0,0-5.05,5c-1.25,1.33-2.47,2.68-3.6,4.1l-.34,0h-.1l-.71-.17-.43-.14c-.12-.07-.25-.13-.37-.21a4.5,4.5,0,0,1-.54-.41h0l.28.29c-.09-.1-.2-.19-.3-.29a3,3,0,0,1-2.43-1.58c-1.08-2.32-2.42-4.94-3.32-7-.14-.33-.29-.65-.43-1a3.12,3.12,0,0,0-2.27,1,23.59,23.59,0,0,0-6,14.93c-.21,6.21,1.54,12.28,2.49,18.37a27.53,27.53,0,0,1,.32,3.64,15.08,15.08,0,0,1-.41,4.08,10.94,10.94,0,0,0-.22,2.17A8.13,8.13,0,0,0,153.82,101.1Zm12.71-37.55-.1-.06Z" fill="#373d60"/><path d="M184.89,110.57c0-1,0-1.95-.09-2.93a4.69,4.69,0,0,0-1.66-3.42,5,5,0,0,0-3.83-1.16,4.77,4.77,0,0,0-2.16,0c-1,.22-1.92.41-2.89.56l-1.16.16c-.47.06-.94.11-1.42.15a36.2,36.2,0,0,1-6.16,0,56.44,56.44,0,0,1-5.6-.83,6.26,6.26,0,0,0-3.66-.07,4.12,4.12,0,0,0-.66.35,2.86,2.86,0,0,0-1.31,2.91,3.57,3.57,0,0,0,.3,1,2.79,2.79,0,0,0,.13,1.73c.05.12.11.24.17.36,0,.35,0,.71,0,1.07,0,.74,0,1.48,0,2.22l-.09,5c-.05,3.22-.15,6.45,0,9.68a46.33,46.33,0,0,0,3.92,17.79,8.65,8.65,0,0,0,3,3.94,5.09,5.09,0,0,0,2.93.75,12.2,12.2,0,0,0,2.83-.5c1.29-.36,2.56-.76,3.82-1.2q2.66-.93,5.22-2.06a11.09,11.09,0,0,0,5.55-4.44,3.62,3.62,0,0,1-2.48-2.48,10.25,10.25,0,0,1-.27-2.69,5,5,0,0,1,.72-3.69,8.37,8.37,0,0,1,2.57-2.56,7.94,7.94,0,0,1,1.69-.87l0-.19c.05-.47.09-.95.13-1.43A148.84,148.84,0,0,0,184.89,110.57Z" fill="#54222b"/><path d="M187.55,138.18l-.07.08a.64.64,0,0,0,.23-.16l-.05,0Z" fill="#f4bb92"/><path d="M180,132.78a5,5,0,0,0-.72,3.69,10.25,10.25,0,0,0,.27,2.69,3.62,3.62,0,0,0,2.48,2.48,2.76,2.76,0,0,0,.94.12,3.62,3.62,0,0,0,3.41-2.51,5.85,5.85,0,0,0,.75-.62l.38-.37h-.08s.07,0,.15-.07l0,0,.07,0,.08-.05,0,0,.39-.17a5.63,5.63,0,0,0,2.72-2.27,4.42,4.42,0,0,0-.68-5.23c-1.53-1.72-3.89-1.81-5.91-1.08a7.94,7.94,0,0,0-1.69.87A8.37,8.37,0,0,0,180,132.78Zm7.82,5.24-.12,0C187.88,137.85,187.88,137.91,187.79,138Zm-1.37.85,0-.11v0C186.64,138.54,186.85,138.45,186.42,138.87Zm0-.08-.07.16,0,0A.5.5,0,0,1,186.41,138.79Z" fill="#f9ddbe"/><path d="M162.83,61.19a3,3,0,0,0,2.43,1.58h0a3.25,3.25,0,0,0,1.65-.23,3.2,3.2,0,0,0,2-2.89,4.73,4.73,0,0,0,2.19-2.8c.24-.83.44-1.68.6-2.54.12-.08.23-.17.34-.26a4.47,4.47,0,0,1-1.35-4.21,53.23,53.23,0,0,0,.76-8.73c0-1.54-.05-3.09-.13-4.63a15.93,15.93,0,0,1,.07-4.2c-.06-.15-.12-.3-.19-.45a22.76,22.76,0,0,0-2.16-3.52,3.56,3.56,0,0,1-2,1.36c-1.93.52-3.35-.17-5.11-.74a23.27,23.27,0,0,0-3.78-.87c-.11,0-.91-.08-1.51-.11s-1.3,0-1.94,0c-1.19.06-2.33.2-3.52.17L150.68,30a33.14,33.14,0,0,1-1.88,6,15.48,15.48,0,0,0,1,2.35c.82.81,1.71,1.56,2.56,2.34,2.2,2,4.27,4.14,6.37,6.26a2.15,2.15,0,0,1-1,3.47c.48.94.92,1.9,1.36,2.85.14.33.29.65.43,1C160.41,56.25,161.75,58.87,162.83,61.19Z" fill="#f9ddbe"/><path d="M158.76,46.91c-2.1-2.12-4.17-4.24-6.37-6.26-.85-.78-1.74-1.53-2.56-2.34l-.32-.32a2.81,2.81,0,0,1-.85-1.73c.05-.1.1-.2.14-.3a33.14,33.14,0,0,0,1.88-6l.48-1.86c1.19,0,2.33-.11,3.52-.17.64,0,1.29,0,1.94,0s1.4.09,1.51.11a23.27,23.27,0,0,1,3.78.87c1.76.57,3.18,1.26,5.11.74a3.56,3.56,0,0,0,2-1.36,22.76,22.76,0,0,1,2.16,3.52c.07.15.13.3.19.45a15.93,15.93,0,0,0-.07,4.2c.08,1.54.12,3.09.13,4.63a53.23,53.23,0,0,1-.76,8.73,4.47,4.47,0,0,0,1.35,4.21,3.8,3.8,0,0,0,1.47.76,4.38,4.38,0,0,0,2.93-.33,3.36,3.36,0,0,0,2-2.49c.12-.86.21-1.72.29-2.57a54.84,54.84,0,0,0,.09-8.31c0-.42,0-.84-.08-1.27,0-.15.07-.31.11-.47a11.8,11.8,0,0,0,.46-3.51,17.27,17.27,0,0,0-1.55-6.3,22.36,22.36,0,0,0-6.78-8.69,12.42,12.42,0,0,0-6-7.59,14.05,14.05,0,0,0-8-1.48c-2.87.28-6.53,1-8.5,3.29a5.24,5.24,0,0,0-.8,1.22c-3.1,2.33-4.43,6.57-5.23,10.35-.57,2.64-1.17,5.42-.63,8.1a12.36,12.36,0,0,0,2.93,6c3.25,3.67,7.54,6.43,11.46,9.32a1.62,1.62,0,0,0,1.4.3A2.15,2.15,0,0,0,158.76,46.91Z" fill="#ce6f53"/><path d="M56.21,200.65h-8a.57.57,0,0,1-.55-.46.56.56,0,0,1,.34-.63l27.44-10.93c-5.77-8.89-9.3-22-10.56-27.33a14.7,14.7,0,0,0-.85-2.41,12.77,12.77,0,0,1,.08,1.33,29.61,29.61,0,0,0,.92,6.23.57.57,0,0,1-.14.54.55.55,0,0,1-.53.15c-.14,0-3.37-.83-5.58-6a23.38,23.38,0,0,0-4.82-7.36.56.56,0,0,1-.16-.55,35,35,0,0,1,1.3-4.23,1.4,1.4,0,0,0-.62.31c-3,2.6-2.41,7.7-2.4,7.76a.56.56,0,0,1-.74.61,118.9,118.9,0,0,1-11.17-5.13c-3.54-1.75-7.19-3.55-10.1-4.8-3.79-1.62-6.34-5.81-7.81-9-1.75-3.83-2.56-7.6-2.44-9.21.24-3.11-1.43-15.89-4-21.17-2.66-5.55,1-20,1.14-20.67a.53.53,0,0,1,.27-.35.56.56,0,0,1,.44,0c9.59,3,14.15,20.7,16.6,30.24a33.28,33.28,0,0,0,1.58,5.31c1.21,1.38,1.2,3.42,1.18,5.59a23,23,0,0,0,.14,3.42c.4,2.81,5.27,4.42,9.18,5.72l.58.2c4.32,1.44,10.57,7.65,10.83,7.91a.63.63,0,0,1,.17.43.57.57,0,0,1-.2.4,5.14,5.14,0,0,0-1.06,1.62,13.26,13.26,0,0,1,4.87,4.38.55.55,0,0,1,.23-.29.56.56,0,0,1,.67,0c2.25,1.86,4.69,3.34,5.28,3.22.38-.84-.53-1.66-1.76-2.63l-.23-.18A14.19,14.19,0,0,1,62.31,148c-.84-1.67-3.46-2.79-3.49-2.8a.57.57,0,0,1-.34-.46,16,16,0,0,1,5.23-13.95,4.41,4.41,0,0,1-1.45-.6,1.76,1.76,0,0,1-1-.39s0,0,0,0a2.24,2.24,0,0,1-1.57,1.33,1.12,1.12,0,0,1-1-.36c-1.09-1.23-.37-5.5-.09-6.49a.57.57,0,0,1,.54-.41.56.56,0,0,1,.54.4A14.07,14.07,0,0,0,61,127.15a.59.59,0,0,1,.23,0,.58.58,0,0,1,.54.57,5.06,5.06,0,0,0,0,.55,5.54,5.54,0,0,0,.87.81l.35,0c.74-.11,1.16-1.69,1.3-2.21.08-.29.21-.78.72-.71s.51.58.51.88a1.72,1.72,0,0,0,.31,1.23,1.2,1.2,0,0,0,.92.1c.74-.12,1.12-1.81,1.18-2.55a.57.57,0,0,1,1.06-.23,4.87,4.87,0,0,0,.88,1.11c.43-.21.84-.4,1.22-.56a6.79,6.79,0,0,0,.2-.66c.53-2,.59-4.67.26-5.22s-1.78-.55-2.22-.45a.56.56,0,0,1-.34,0,8,8,0,0,0-3.21-.68c-.4.08-1,.77-1.43,1.33-.67.81-1.25,1.51-2,1.51a6.88,6.88,0,0,0-2.49,1.3.56.56,0,0,1-.89-.56c.24-1.28-.26-3.84-1.16-6.94.42,3.54.62,5.78.63,5.82a.56.56,0,0,1-.46.6.57.57,0,0,1-.65-.38c-.08-.26-8.3-25.84-17.48-32.49a.56.56,0,0,1-.16-.73l2.42-4.44-4.33-.39a.57.57,0,0,1-.52-.54c0-.48-.28-9.45,1.17-16.1l-3.9,4.36C32.33,76.14,25.7,80,20.36,83c-2.91,1.68-5.42,3.14-6.13,4.16-1.12,1.62-.75,7.12-.4,12.44a79.79,79.79,0,0,1,.26,11.58c-.65,6.91,2.79,17.64,3.23,19,3,2.73,2.61,5.47,2.08,9.59a54.22,54.22,0,0,0-.59,8.88c.22,9.92,10.1,15,10.2,15.07a.51.51,0,0,1,.25.25c.32.63,7.92,15.66,9.33,20.13s.08,15.57,0,16a.56.56,0,0,1-.56.5H.57a.57.57,0,0,1-.57-.57.56.56,0,0,1,.57-.56h37c.25-2.22,1.16-11.28,0-15.07-1.31-4.15-8.35-18.15-9.18-19.8-1.36-.75-10.43-6.12-10.65-16a56,56,0,0,1,.59-9c.53-4.09.83-6.34-1.82-8.71a.56.56,0,0,1-.16-.24c-.16-.48-4-12-3.33-19.57a80.31,80.31,0,0,0-.26-11.4c-.4-6-.75-11.22.6-13.16.85-1.24,3.34-2.68,6.5-4.5,5.22-3,11.72-6.76,13.73-11.21a.38.38,0,0,1,.09-.15l4.64-5.19a.58.58,0,0,1,.49-.18l.09,0c.15-.5.3-1,.47-1.43C38,64,36.4,63,34.58,61.09c-3-3.17-2.48-5.46-2.12-6.3a3.26,3.26,0,0,1,3-2,.57.57,0,0,1,.55.42c.3,1.16,1.43,4.29,2.93,4.79a7.36,7.36,0,0,1,1.51.77,4.43,4.43,0,0,0,1.09.55,20.33,20.33,0,0,1-.28-5.07,33.12,33.12,0,0,1,2.28-8.55,19.71,19.71,0,0,0,1.24-4.13c0-.17,0-.27,0-.3a.57.57,0,0,1,1.13.07c0,.08,0,.16,0,.25a11.72,11.72,0,0,0,4.95,9.88,26.33,26.33,0,0,0,5,2.46c.61.25,1.22.5,1.82.77A14.21,14.21,0,0,0,63.32,47a18.63,18.63,0,0,0-3.52-5.25c-4.57-5-12.3-3.29-17.07-1.52C37.81,43.92,35.07,50.45,35,50.54a.6.6,0,0,1-.16.22.83.83,0,0,1-1,.09c-.49-.32-.9-1.1.54-6.33a10.61,10.61,0,0,1,1.86-3.69A5.23,5.23,0,0,1,35,37.22c.06-1.67,1-4.77,6.89-6.77,4.56-1.56,8-.36,9.56,1.15a3.45,3.45,0,0,1,1.17,2.65c5.11.57,10.08,4.69,11.67,8.55a6.81,6.81,0,0,1,.23,4.13A15,15,0,0,1,65,56a9.94,9.94,0,0,0-.27,1.87,25.76,25.76,0,0,1-.21,3.37,16.83,16.83,0,0,1,1,5.59v.09a21.93,21.93,0,0,1-1.16,4.51,3.3,3.3,0,0,1,2,.24,2.06,2.06,0,0,1,1,1.42c.44,2,1.67,11.59,1.42,15.25a26.29,26.29,0,0,0,.48,5.74,28.43,28.43,0,0,1,.47,4.35c0,2.93-2.44,14.51-5.17,20a2.19,2.19,0,0,1,1-.5,8.58,8.58,0,0,1,3.71.67c.59-.09,2.48-.29,3.26,1,.59,1,.38,3.92-.09,5.89A7.64,7.64,0,0,1,74,125a.59.59,0,0,1,.23,0A42.82,42.82,0,0,1,75,115c1.25-4.56,7.4-8,11.74-10-.23-.16-.47-.33-.7-.51a.56.56,0,0,1-.2-.57.57.57,0,0,1,.43-.43c.17,0,4.07-1,4.51-7.5a38.63,38.63,0,0,0-.14-5.36l-.06-.92a16.78,16.78,0,0,1-3.8-2.18C79.51,83.26,82.33,68,84.2,57.9c.27-1.42.51-2.76.7-3.89,1.5-9.26,4.16-12.57,6.76-15.17,2.88-2.88,15.24-7.48,15.77-7.68a.57.57,0,0,1,.74.38,5.59,5.59,0,0,0,1.53-1.49.57.57,0,0,1,.52-.33h0a.57.57,0,0,1,.52.34c.75,1.69,3.24,6.15,5.69,6.5a12,12,0,0,0,3.16.16c.33-5.34.88-5.84,1.14-6.08a.83.83,0,0,1,.63-.22,2.16,2.16,0,0,0,2-1c0-.16-.08-.35-.13-.55-.39-1.63-1-4.08-.3-5.44.43-.85,1.48-1,2.51-1.19,1.48-.23,2.49-.47,2.89-1.58.68-1.89.44-6.44.28-8.45-1,.4-2.77.72-6.12.72-5.12,0-7.91-1.91-8.93-2.81a9.85,9.85,0,0,0-1.85,3.13,13.62,13.62,0,0,0,0,4.51,19.35,19.35,0,0,1,0,4.61c-.36,2,1.9,8.63,2.8,11a.56.56,0,0,1-.17.64.57.57,0,0,1-.66,0c-1.79-1.12-4-6.54-4.57-8.15-1.19-.09-2.62-1.36-3.47-6.14-.31-1.76-.11-2.89.6-3.47A1.64,1.64,0,0,1,107,16c-1-3-.41-8.26,2.2-11.81C111,1.64,114.56-1.06,121,.42c4.44,1,7.57,3,9.32,5.94a11.56,11.56,0,0,1,1.27,8.16c.08.83.41,5.95-3.12,14.56a24.52,24.52,0,0,1-2.22,4.29c1.79,1.25,7.54,4,12.54,6.3,5.55,2.52,7.41,9.83,7.41,12.78s.72,14.79,2.32,18.9a23.39,23.39,0,0,1,1,7.76c1.4.8,2.89,2.26,4.09,5.37a27.68,27.68,0,0,0-1.67-7c-2.36-5-2-10.29,1-16.29,2.52-5,2.69-9,.51-12.16-.2-.3-.47-.67-.77-1.1l-1.2-1.69c-1.26-.62-2.64-1.32-4.06-2.17-2.86-1.7-4.7-5.41-4.93-9.93a19.79,19.79,0,0,1,1.29-8c.44-6.1,2-13.55,11-15.35a13.6,13.6,0,0,1,12.68,3.46,20.19,20.19,0,0,1,4.94,7.85l0,.09c3.34,3.75,5.4,7.53,6.12,11.3,1.37,7.14,6.83,9.8,9.77,11.22.54.27,1,.48,1.29.67,2.1,1.32,6.62,6.9,7.1,10.55s2.85,26.35,3.07,29c.15,1.8-2,12.12-4.69,24.41-1,4.52-1.82,8.43-1.91,9.17l-.23,5.85c0,1.25.16,7.86,0,13.62a2.71,2.71,0,0,1,1.31.59l.27-.11h0c1.61-.59,2.71-.56,3.37.11,1,1,.31,2.88.2,3.19l-1.59,5.5,77.71,32.45a.57.57,0,0,1,.41.69.56.56,0,0,1-.69.41l-77.74-32.46-7.53,26.17a.55.55,0,0,1-.3.35l-50.47,24.53a.53.53,0,0,1-.49,0L108.09,185.5a.57.57,0,0,1-.32-.58L108,183a.55.55,0,0,1,.28-.42.54.54,0,0,1,.51,0L137,195.52l5.42-18.05-18.48,9.44a.58.58,0,0,1-.5,0l-11.79-5.43a.56.56,0,0,1-.33-.51.57.57,0,0,1,.34-.52l4.18-1.87a109.71,109.71,0,0,1-11.36-.82c-.57,0-2.16-.16-4.23-.37a12.49,12.49,0,0,0,2.46.42.56.56,0,0,1,.19,1.09l-25.7,10.23a19.11,19.11,0,0,0,1.6,1.81.59.59,0,0,1,.16.52.56.56,0,0,1-.35.41l-22.17,8.73A.78.78,0,0,1,56.21,200.65Zm-5.06-1.13h5l21.28-8.38a20.06,20.06,0,0,1-1.3-1.56Zm57.79-14.87,28.63,13.62,50-24.29,7.45-25.9-.89-.23-7.43,25a.53.53,0,0,1-.3.35L140.65,195.4a.55.55,0,0,1-.61-.08.57.57,0,0,1-.18-.59L145.39,176l-1.6.81-5.91,19.71a.52.52,0,0,1-.31.35.55.55,0,0,1-.47,0L109,183.94Zm37.36-10.37a.53.53,0,0,1,.36.13.55.55,0,0,1,.18.6l-5.53,18.82,44.38-21.51L193,147.57l-1.83-.48a.56.56,0,0,1-.32-.86c.35-.52.58-2.56.72-5.31l-25.18,10.76a2.09,2.09,0,0,1,.62,1.64c-.11.68-.67,1.2-1.67,1.54L153.17,160a8.92,8.92,0,0,0-3.26,4.38.57.57,0,0,1-.31.35l-2.54,1.14-2.82,9.37,1.8-.92A.62.62,0,0,1,146.3,174.28Zm-83-19.15A23.11,23.11,0,0,1,66,161c1.25,5.25,4.78,18.42,10.53,27.16l24-9.56a12,12,0,0,1-4-1.67c-5.17-.68-11.16-1.83-12.81-3.63-2.76-3-7.21-12.57-7.7-19.68-.07-1-.18-2.35-.3-3.93-.49-6.24-1.25-15.83-1.36-23.62a17,17,0,0,0-1.8.62,6.45,6.45,0,0,0-.58.31A1.71,1.71,0,0,1,71,128a1.53,1.53,0,0,1-.66.11l-.41.31a10.72,10.72,0,0,1-4.53,2.37c-4.41,3.61-6.38,8.15-5.87,13.52a8.42,8.42,0,0,1,3.75,3.19,13.35,13.35,0,0,0,3.15,4.29l.22.18c1.17.92,2.93,2.32,2.06,4.06a1.06,1.06,0,0,1-.74.56c-1.13.24-3.36-1.22-4.9-2.38ZM113.24,181l10.41,4.78,19.2-9.8,2.84-9.48-3.48,1.56a15.36,15.36,0,0,0,.95,1.21,1.35,1.35,0,0,1,.43,1.53,2.07,2.07,0,0,1-1.64,1.06c-.31.58-1.07,1.69-2.15,1.42a21.72,21.72,0,0,1-2.46-1c-.75-.33-1.6-.7-2.35-1l-.43.2a10.33,10.33,0,0,1,2.36.77,1.69,1.69,0,0,1,1,1.83c-.19.69-.93,1.11-2,1.11a18.82,18.82,0,0,1-2.71-.36,14.88,14.88,0,0,0-4.69-.37c-.61.15-1,.84-1.45,1.64-.62,1.1-1.39,2.47-3.12,2.62-.8.07-3,0-5.55,0Zm7.54-3.37c1.41,0,2.51,0,3.07,0,1.13-.1,1.67-1.05,2.23-2.05.07-.12.14-.25.22-.37Zm-23.91-1.76c3,.4,5.94.66,7.73.78l.14,0c.86.29,8,.71,13.41.88l12.79-5.71c-.87-.17-1.71-.32-2.42-.44a.57.57,0,0,1-.47-.53.56.56,0,0,1,.41-.58c.35-.1,3.47-1,5-.72a8.51,8.51,0,0,1,1.54.48l5.53-2.47A18.54,18.54,0,0,0,138,164.5a30.77,30.77,0,0,0-8.17-.88c-.72.09-2.44,1.48-4,2.71-2,1.66-4.16,3.37-5.67,3.65-2.85.52-12-1.49-14.93-2.62a11.35,11.35,0,0,1-2.22-1.32.54.54,0,0,1-.45.17c-1.69-.14-5.92.84-7.67,3.12a3.38,3.38,0,0,0-.48,3.44A6.49,6.49,0,0,0,96.87,175.86ZM88,105.77C83.8,107.56,77.3,111,76.1,115.33c-1.59,5.77-.07,25,.66,34.31.12,1.59.23,3,.3,3.94.47,6.89,4.75,16.13,7.4,19,1.21,1.31,5.75,2.32,10.4,3a7.63,7.63,0,0,1-1.45-2.44,4.56,4.56,0,0,1,.65-4.51c1.47-1.92,4.25-3,6.44-3.4-2.6-1.24-6.9-3.33-7.6-3.85A3.71,3.71,0,0,1,91.84,159a4.08,4.08,0,0,0-.47-1.5c-.45-.6-.3-1.51-.12-2.67,0-.28.09-.56.13-.84-1.89-2.9-3-5.78-2.47-8.05a28.73,28.73,0,0,0,.4-8.88l0-.06c-1.46-1.74-2.56-5.37-2.86-6.45-.6-2.13-1.17-4.81-.44-5.52.09-.09.58-.51,1.27.1,1.32,1.15,2.69,6.2,3.17,11.53,1.24,2,1.24,5.71,1.25,9.06,0,2.14,0,4.36.41,5a4.71,4.71,0,0,1,.48,3c3.91,5.76,11,11.77,13.16,12.6,3.09,1.19,11.92,3,14.31,2.57,1.23-.23,3.32-1.92,5.17-3.42s3.48-2.83,4.53-3a30.55,30.55,0,0,1,8.82,1c.64.32,1.55,1.56,3,3.56l0,.06,4.58-2.05,1.28-4.27c.54-2.3,4.34-4.37,4.77-4.6a.2.2,0,0,1,.08,0c4.3-1.46,9-3.31,9.93-4-.2-.1-.92-.3-3.5.17a37.24,37.24,0,0,0-5.11,1.39.56.56,0,0,1-.53-1c2-1.51,5.1-4.57,5-5.35-.06-.32-.18-.36-.23-.37-.36-.1-1.17.3-1.85,1.11-1.23,1.48-8.21,6.07-10.27,6.33a11.51,11.51,0,0,1-5.69-1,13,13,0,0,0-4.91-.2H135a5.45,5.45,0,0,1-2.66-.57,5.11,5.11,0,0,0-2.94,3c-.84,3.58,1.14,5.25,1.22,5.32a.57.57,0,0,1-.42,1,20,20,0,0,1-6.59-2,.57.57,0,0,1-.18-.8,25.73,25.73,0,0,0,3.45-8,34.61,34.61,0,0,0,.4-6.68,54.24,54.24,0,0,1-1.35-12.8.56.56,0,0,1,.53-.56.58.58,0,0,1,.59.49l.71,5.19a71.39,71.39,0,0,1,.65,7.5,14.14,14.14,0,0,0,3.09,6.37,5.11,5.11,0,0,0,.87.71,22.66,22.66,0,0,1,4.79-1.48,21.11,21.11,0,0,0-1.91-2,17.72,17.72,0,0,1-2.64-2.92c-1.31-2.1-1.73-10.25-.78-15,.83-4.14-.6-10-1.75-14.77l-.37-1.5c-.89-3.76-10-6.18-13.46-6.8a.55.55,0,0,1-.46-.51.56.56,0,0,1,.37-.58,13.51,13.51,0,0,1,6.57-.3,4.38,4.38,0,0,1-.39-2.29c-.54,0-1,0-1.45.06a.56.56,0,0,1-.58-.78c0-.09,3.92-9.56,2.57-15A.55.55,0,0,1,123,87a.57.57,0,0,1,.51-.18l1.26.19c-1-6.59-3.47-14.42-5.14-17.26a4.82,4.82,0,0,0-5.48-2.58.58.58,0,0,1-.39,0c-4.9-2.06-10.72.43-17.29,7.41l-.16.17A10.53,10.53,0,0,0,98.21,76a.56.56,0,0,1,.31.43.6.6,0,0,1-.18.49C93,81.85,93.56,89.58,93.57,89.66a.56.56,0,0,1-.15.43.57.57,0,0,1-.42.19,5.42,5.42,0,0,1-1.25-.16l0,.48a40.38,40.38,0,0,1,.14,5.52c-.36,5.3-2.86,7.36-4.34,8.12l.44.27c1.74-.73,3-1.13,3.16-1.19a.57.57,0,0,1,.7.34s.39,1,1.05,2.42a19.53,19.53,0,0,0,5.62-.14c-3.38-4.42-2.38-11.51-2.33-11.83a.54.54,0,0,1,.45-.47c2.14-.43,3.45-2.78,5-5.5a35.62,35.62,0,0,1,2.46-4c2.88-3.85,12.1-7.8,12.49-8a.57.57,0,0,1,.74.28c.15.35,3.82,8.48,3.35,16.31-.43,7.16-6,12.54-7.25,13.7.28,1.44,1.17,7.08-1.31,10.87a7.48,7.48,0,0,1-5.11,3.31,6.69,6.69,0,0,1-1.25.12c-6.28,0-11.32-8.84-13.62-13.68A14.19,14.19,0,0,1,88,105.77Zm42.53,67.51c.94.08,2,.26,2.91.43a18.88,18.88,0,0,0,2.51.33c.59,0,.85-.17.88-.28s-.1-.33-.46-.55a18.33,18.33,0,0,0-3.5-1Zm5.91-2.64,1.39.6a24.06,24.06,0,0,0,2.27.93c.29.08.78-.58,1-1.08a.55.55,0,0,1,.51-.35,1.2,1.2,0,0,0,1-.38c0-.05,0-.18-.18-.3a14.81,14.81,0,0,1-1.2-1.54Zm-5,.15,1.28.26.71-.32-.19,0A6.52,6.52,0,0,0,131.44,170.79ZM55,153.21a24.67,24.67,0,0,1,4.85,7.5,10,10,0,0,0,3.85,4.89,26.75,26.75,0,0,1-.69-5.38,23.15,23.15,0,0,0-.68-4.62c-1.78-2.93-4.11-5.71-6-6.44A35.17,35.17,0,0,0,55,153.21Zm97.71,4c-1.08.58-3.82,2.33-4.15,3.85l0,0-1,3.35,1.42-.63A9.93,9.93,0,0,1,152.6,159l.08,0L165,153.81l0,0c.56-.18.9-.42.93-.64s-.46-.91-.85-1.19a.59.59,0,0,1-.23-.53.57.57,0,0,1,.34-.45l26.48-11.32c0-.43,0-.88.05-1.34-.05-.71-.2-2.81-.4-4.85-2.77,7.28-7.94,9.57-8,9.59A1.41,1.41,0,0,1,182,143a1.6,1.6,0,0,1-.43-.39,1.45,1.45,0,0,1-.47.3,1.72,1.72,0,0,1-1.4-.13.6.6,0,0,1-.27-.49,26.57,26.57,0,0,0-.39-3.83,16.88,16.88,0,0,1-.31-4.24c.25-2.5,2.39-5.15,2.48-5.26a.58.58,0,0,1,.69-.15c1.8.9,7.34.27,9.33,0a.48.48,0,0,1,.17,0q.12-.66.21-1.35c-2,.32-7.53,1-10-.18a.55.55,0,0,1-.3-.61c0-.11,2.13-11.39,3.3-16.76A62.81,62.81,0,0,0,186.06,97v-.14a29.56,29.56,0,0,1-2.72,5.86.53.53,0,0,1-.34.25c-.73.19-17.6,4.36-28.32-1.47-.64.82-2.27,3.35-3,8.4-.9,5.87-.78,16.43,4.87,33.38a.58.58,0,0,1-.07.5c-.07.1-6.8,9.56-15.88,3.45a.58.58,0,0,1-.25-.5c0-.32,1.81-32-.82-41.22a131.65,131.65,0,0,0-16-2.32,3.63,3.63,0,0,0,.88,2.75.56.56,0,0,1,0,.66.57.57,0,0,1-.62.23,16.51,16.51,0,0,0-4.56-.5c3.92,1,10.73,3.25,11.64,7.05.11.48.23,1,.36,1.49,1.17,4.85,2.64,10.88,1.76,15.26-.94,4.73-.43,12.51.63,14.21a18.21,18.21,0,0,0,2.46,2.71,10,10,0,0,1,2.55,3.07.54.54,0,0,1-.05.48.57.57,0,0,1-.4.26,21.39,21.39,0,0,0-4.3,1.13,4.5,4.5,0,0,0,1.11.1,13.89,13.89,0,0,1,5.43.27,10.54,10.54,0,0,0,5.15.92c1.62-.21,8.38-4.54,9.54-5.94.95-1.13,2.13-1.71,3-1.47a1.45,1.45,0,0,1,1,1.27c.2,1.19-1.65,3.17-3.24,4.62.79-.22,1.69-.44,2.59-.6,2.5-.46,3.84-.42,4.48.11a1.16,1.16,0,0,1,.43.92C163.38,152.64,163.38,153.55,152.66,157.21Zm-60.34-1.87a3.09,3.09,0,0,0,0,1.48,4.9,4.9,0,0,1,.67,2c.14.7.28,1.43.63,1.69.51.38,3.82,2,6.86,3.48A52.94,52.94,0,0,1,92.32,155.34Zm32.38,4a17.55,17.55,0,0,0,4.21,1.3,6.88,6.88,0,0,1-.61-5.23,5.75,5.75,0,0,1,2.95-3.42,6.23,6.23,0,0,1-.55-.49,11.61,11.61,0,0,1-2.33-3.67,27.78,27.78,0,0,1-.38,3.56A25.23,25.23,0,0,1,124.7,159.31ZM17.94,88.56c-.66,2.81-3.26,14.73-1.07,19.3,2.59,5.42,4.31,18.55,4.06,21.75-.23,3,3.4,14.48,9.56,17.12,2.94,1.26,6.61,3.07,10.16,4.82,4,2,7.79,3.85,10.22,4.78-.06-1.73.16-5.55,2.85-7.85a2.52,2.52,0,0,1,1.85-.63,9,9,0,0,1,1-1.76c-1.44-1.38-6.52-6.1-10-7.26l-.58-.19c-4.43-1.47-9.44-3.14-9.94-6.64a22.9,22.9,0,0,1-.15-3.59c0-2,0-3.78-.9-4.84-.47-.54-.9-2.16-1.83-5.77C30.86,108.68,26.54,91.87,17.94,88.56ZM90.5,143a21.61,21.61,0,0,1-.48,3.22,7.28,7.28,0,0,0,.89,4.69,18.33,18.33,0,0,1-.38-5.18C90.53,144.85,90.52,143.92,90.5,143Zm51,3.5c7.37,4.71,12.86-1.76,13.88-3.11-5.67-17.12-5.74-27.83-4.79-33.8,1-6.62,3.51-9.09,3.61-9.19a.57.57,0,0,1,.68-.09c9.65,5.58,25.58,2.13,27.65,1.65a29.35,29.35,0,0,0,3.33-8.34c-.33-3.84-.95-10.06-1.48-15.39s-1-10.15-1.11-11.58c0-.19,0-.74.42-.93a.67.67,0,0,1,.78.25c1.12,1.31,5.58,14.81,2.54,27.75.14,1.64.23,2.83.23,3.31a64.4,64.4,0,0,1-1.43,13.09c-1,4.75-2.81,14.13-3.22,16.28,2.26.79,7,.24,9.21-.13,0-.65,0-1.28,0-1.87v0l.24-5.9v0c.09-.75.86-4.33,1.93-9.29,1.92-8.88,4.82-22.3,4.67-24.09-.22-2.69-2.58-25.42-3.06-29-.43-3.23-4.73-8.58-6.58-9.74-.26-.16-.69-.37-1.19-.61-2.89-1.4-8.91-4.33-10.38-12A21.2,21.2,0,0,0,173.18,25c1.19,4.09,3,10.19,5.89,14.19,3.24,4.47-1.54,11.84-3.63,14.66a10.09,10.09,0,0,1-.9,1.16.56.56,0,0,1-.84-.75s.38-.47.92-1.21a11.28,11.28,0,0,0,1.85-6.88,19.33,19.33,0,0,1-2.76,6.33,19.38,19.38,0,0,1-8,12,.57.57,0,0,1-.71,0,21.75,21.75,0,0,1-6.56-12.62c-.24-2.05-2.17-3.21-4.94-4.57h0l.78,1.1c2.44,3.52,2.29,7.87-.43,13.31-2.83,5.67-3.14,10.68-.94,15.31,2.39,5,2.87,20.77,2.89,21.44a.57.57,0,0,1-.55.58.55.55,0,0,1-.58-.54c-.5-12.15-2.91-16.31-5.22-18-.06,2.24-.24,4-.26,4.11a.56.56,0,0,1-.59.51.58.58,0,0,1-.54-.57s0-3-1.78-3.73c-1.95-.86-5.91-.62-7.13.8-.75.87-.8,2.72-.71,4a7.87,7.87,0,0,1,5.68-1.92c2.35.14,3.77,2.11,4.58,3.94a10.25,10.25,0,0,0,3-1,.58.58,0,0,1,.63,0,.56.56,0,0,1,.2.59l-1.32,5a9.3,9.3,0,0,1,1.39,6.39c-.39,3.35-2.18,6.34-3.2,6.85-.73.36-5,2.2-6.4,1.53a.93.93,0,0,1-.53-.66c-.12-.54.32-1.1,1.06-1.63a4.16,4.16,0,0,1-2.5-.24,1.34,1.34,0,0,1-.55-1,2.07,2.07,0,0,1,.33-1.17,1.78,1.78,0,0,1-.39-.24,1.69,1.69,0,0,1-.56-1.37c0-2.11,3.21-2.77,4.19-2.92a48.22,48.22,0,0,0,4.87-1.3l1-4a8,8,0,0,0-1.18-1.23.54.54,0,0,1-.2-.34,12.79,12.79,0,0,0-.56-2c-6.68,1.13-17,0-21.92-.63a23.06,23.06,0,0,1,0,6.22,29.62,29.62,0,0,1-1.75,5.84c-.26.64-.48,1.21-.64,1.72a137.67,137.67,0,0,1,16.33,2.39.57.57,0,0,1,.42.39C143.18,113.45,141.66,142.85,141.46,146.49Zm53,.27.89.23,1.59-5.55s0,0,0-.05c.19-.49.45-1.62.06-2s-1.08-.24-2.15.16c1,2,.14,5.35.1,5.51Zm-2.35-.6,1.25.32.52-1.75c.23-.9.65-3.42-.05-4.76l-1.06.45A30.91,30.91,0,0,1,192.1,146.16Zm-10.42-5.37h0a.57.57,0,0,1,.52.49,1.24,1.24,0,0,0,.36.75s.1.06.28,0,5.86-2.59,8.13-11.29q-.06-.41-.12-.75c-1.72.25-6.65.86-9,.05a10.29,10.29,0,0,0-2,4.32,16.37,16.37,0,0,0,.31,4,29,29,0,0,1,.39,3.59.32.32,0,0,0,.14,0c.16-.06.31-.3.41-.66A.58.58,0,0,1,181.68,140.79Zm11.13-1.64v0h0ZM86.74,126.27a26.59,26.59,0,0,0,2.26,8.1C88.44,130.59,87.49,127.37,86.74,126.27Zm-27.5.12c-.18,1.59-.13,3.27.19,3.56.51-.1.85-.85,1-1.53A12.4,12.4,0,0,1,59.24,126.39Zm4.83,3.29a3,3,0,0,0,.6,0l.3,0,.49-.38a1.52,1.52,0,0,1-.38-.24,1.87,1.87,0,0,1-.3-.33A3.15,3.15,0,0,1,64.07,129.68ZM57,109.6c1.63,4.61,3,9.31,3.14,12a5,5,0,0,1,2.2-.87c.21,0,.7-.61,1-1a.56.56,0,0,1-.42-.52c0-.18-.79-14.66-2.07-23.06a8,8,0,0,1-2.25,2.74,4.69,4.69,0,0,1-3.61.65,27,27,0,0,1,1,4C56.42,105.66,56.73,107.7,57,109.6Zm36.51-2.3c2.48,5,7.52,13.37,13.3,12.28a6.44,6.44,0,0,0,4.37-2.81c2.54-3.9,1.1-10.27,1.08-10.34a.58.58,0,0,1,.19-.56c.07-.05,6.66-5.69,7.11-13.13.39-6.46-2.24-13.35-3-15.25-2,.89-9.18,4.26-11.52,7.37a34.11,34.11,0,0,0-2.37,3.84c-1.51,2.69-2.94,5.24-5.35,6-.16,1.58-.56,7.85,2.72,11.26a.56.56,0,0,1-.26.94A20,20,0,0,1,93.51,107.3ZM61.76,94.46c1.14,6.46,1.92,17.89,2.21,22.6,2.45-5.57,4.65-16,4.65-18.64a26.94,26.94,0,0,0-.46-4.18,26.85,26.85,0,0,1-.48-6c.23-3.58-1-13-1.41-14.94a.91.91,0,0,0-.46-.66,3.46,3.46,0,0,0-2.32.13.57.57,0,0,1-.7-.81,17.75,17.75,0,0,0,1.55-5.18,21.51,21.51,0,0,0-.26-2.86c-.79,4-2.37,8.59-5.26,10.11a7,7,0,0,1-3.33.78c-4.36,0-9.05-3.27-10.37-5.33a30.63,30.63,0,0,1-3.36-9,4,4,0,0,1-1.9-.77,6.42,6.42,0,0,0-1.28-.65c-2-.67-3.15-3.87-3.54-5.12a2.11,2.11,0,0,0-1.54,1.24c-.57,1.34.12,3.19,1.9,5.07,2.1,2.23,3.33,2.51,3.88,2.48A.92.92,0,0,0,40,62.5a.56.56,0,0,1,.75-.17.57.57,0,0,1,.21.76,15.93,15.93,0,0,0-1.22,3.47C42,70.79,50.9,87.65,54.6,98.26A3.67,3.67,0,0,0,58,98a9.28,9.28,0,0,0,2.55-3.64,22,22,0,0,0-.66-2.77c-1.87-5.61-4.39-15.06-4.42-15.16a.57.57,0,0,1,.67-.7s3.49.71,4-1.2a.58.58,0,0,1,.46-.42.56.56,0,0,1,.56.24l2.36,3.54a.56.56,0,0,1-.07.71l-1.76,1.77,3.7,1.56a.55.55,0,0,1,.33.65A73.88,73.88,0,0,1,61.76,94.46ZM40.91,88.61C47.83,94,54,109,56.78,116.67c-.23-1.89-.52-4.23-.89-6.85-1.68-4.73-3.69-9.69-5.15-13a.57.57,0,0,1,.95-.59,8.58,8.58,0,0,0,1.41,1.27C49.54,87.8,42.16,73.61,39.32,68.29a81.88,81.88,0,0,0-1,14.3l4.69.42a.57.57,0,0,1,.45.3.6.6,0,0,1,0,.54Zm102.74,17.5a15.38,15.38,0,0,0,5.23-1.58c.49-.24,2.2-2.76,2.58-6a8.49,8.49,0,0,0-.69-4.69l-.86,3.28a.55.55,0,0,1-.37.4A53.38,53.38,0,0,1,144.21,99c-1.61.25-3.24.91-3.24,1.81a.66.66,0,0,0,.16.5.83.83,0,0,0,.6.12.58.58,0,0,1,.59.31.56.56,0,0,1-.1.65,2.06,2.06,0,0,0-.63,1.12s0,.09.1.15c.45.28,3.14-.08,5.88-.8a.57.57,0,0,1,.69.38.56.56,0,0,1-.35.7A15,15,0,0,0,143.65,106.11Zm-54.24-.93a13.39,13.39,0,0,0,2.16.66c-.24-.53-.42-1-.55-1.27C90.65,104.7,90.09,104.91,89.41,105.18ZM52.72,98.56c.61,1.45,1.44,3.49,2.33,5.78,0-.2-.07-.41-.1-.62a31.44,31.44,0,0,0-1.26-4.63A10,10,0,0,1,52.72,98.56ZM124.14,88c.77,4.84-1.56,11.66-2.46,14h.88c.18-.66.45-1.35.74-2.1A27.93,27.93,0,0,0,125,94.33a22.15,22.15,0,0,0-.06-6.18ZM56.82,76.91c.65,2.43,2.64,9.66,4.17,14.27.13.38.26.84.38,1.35a78.23,78.23,0,0,0,3.14-9.8l-4-1.7a.54.54,0,0,1-.33-.41.57.57,0,0,1,.15-.51l2-2-1.55-2.33C59.82,77,57.93,77,56.82,76.91Zm92.83,13.68a6.48,6.48,0,0,1,.65.63l.81-3.08a13.53,13.53,0,0,1-2,.58A14.41,14.41,0,0,1,149.65,90.59ZM184.58,69c.2,2.21.53,5.48.89,9.07.38,3.82.78,7.88,1.11,11.27A50.65,50.65,0,0,0,184.58,69ZM91.67,88.93a6.58,6.58,0,0,0,.74.17c0-2,.23-8,4.61-12.48a12.27,12.27,0,0,1-1.45-1.06C91.59,80.3,91.41,84.56,91.67,88.93Zm14.78-56.18c-3.34,1.29-11.82,4.72-14,6.89-2.57,2.57-5,5.62-6.45,14.55-.18,1.14-.43,2.49-.69,3.92-1.71,9.2-4.56,24.62,2.07,28.52l.07,0a16.05,16.05,0,0,0,3.05,1.83c-.21-4.33.11-8.83,4.25-13.73a5.54,5.54,0,0,1-1.62-3.69,28.79,28.79,0,0,1,.45-4c.45-2.91,1-6.21.06-8.75-1.46-4.13-2.87-12-2.38-14.68.27-1.5,3.91-3.84,9.86-7.51C103,35,104.88,33.8,106.45,32.75ZM126,87.14c4.67.62,15,1.77,21.63.73-.7-1.46-1.81-2.92-3.49-3a6.74,6.74,0,0,0-5.59,2.37.58.58,0,0,1-.59.21.57.57,0,0,1-.42-.45c0-.18-.74-4.3.84-6.13s6-2.16,8.44-1.09a3.57,3.57,0,0,1,1.55,1.39c0-.42,0-.87,0-1.33a10.6,10.6,0,0,0-1.48-.52A3.28,3.28,0,0,1,144.63,78c-.47-.85-1.56-.89-3.16-.86-1.21,0-2.36.06-3-.65a2.13,2.13,0,0,1-.48-1.63c.09-1.21.67-4.23,1.4-8,1.23-6.39,2.91-15.14,2.62-17.79-.35-3.07-8.57-7.77-12.35-9.66a10.41,10.41,0,0,1-2.27,3,9.45,9.45,0,0,1-.57,2.52.55.55,0,0,1-.49.36.6.6,0,0,1-.54-.3c-.14-.28-.3-.57-.47-.88a33,33,0,0,1-4.82,2.83c0,.56,0,1.15,0,1.75v.28c0,2.09.7,18,.71,18.13a.57.57,0,0,1-.9.49s-4.13-2.94-8.57-2.49a.57.57,0,0,1-.49-.2.55.55,0,0,1-.11-.51c.43-1.58,4.26-15.4,5.53-17a.51.51,0,0,1,.24-.17s.45-.16,1.12-.45a7.24,7.24,0,0,1-1.37-.38.58.58,0,0,1-.32-.33,15.71,15.71,0,0,1-.71-4.13,13.36,13.36,0,0,0-3.25,3.32.59.59,0,0,1-.49.24.57.57,0,0,1-.46-.29c-.17-.28-3.61-6.32-4.23-11.54-1.43,1-3.25,2.1-5.42,3.43-3.64,2.25-9.15,5.64-9.35,6.75-.45,2.5,1,10.19,2.34,14.1,1,2.81.46,6.26,0,9.31a28,28,0,0,0-.43,3.85,4.39,4.39,0,0,0,1.23,2.83l.15-.15c6.85-7.29,13-9.89,18.38-7.75a6,6,0,0,1,6.57,3.13C122.4,72.18,125,80.31,126,87.14ZM142.15,76c1.32,0,2.76.17,3.47,1.46.21.39.71.55,1.56.8.37.11.76.23,1.18.38a21.21,21.21,0,0,0-.94-6.83C145.75,67.45,145,55.62,145,52.45c0-2.72-1.7-9.46-6.75-11.75-2.19-1-8.66-4-11.75-5.79a25.35,25.35,0,0,1,.88,5.73,7.41,7.41,0,0,0,1.38-2.29.58.58,0,0,1,.31-.34.59.59,0,0,1,.47,0c1.33.65,13,6.4,13.52,10.83.31,2.81-1.32,11.3-2.62,18.12-.7,3.64-1.3,6.78-1.39,7.92a1,1,0,0,0,.17.76c.34.35,1.28.33,2.2.31Zm-99.3-15.7a29.37,29.37,0,0,0,3.23,8.64c1.5,2.36,8.07,6.34,12.22,4.16,3-1.6,4.5-7.63,5-11.73-1.16-2.8-3.21-4.19-5.62-5.31C54,58,46.49,58,44.76,58A5.65,5.65,0,0,1,42.85,60.25Zm69.79,3.61A15.23,15.23,0,0,1,120,66c-.16-3.66-.66-15.29-.66-17.1v-1.5c-.9.4-1.59.67-1.9.79-.89,1.42-3.44,10-5,15.66Zm39.54-18.54.72.35c3.55,1.72,6.36,3.08,6.7,6a20.88,20.88,0,0,0,5.85,11.6,18.29,18.29,0,0,0,6.61-9.06,6.7,6.7,0,0,1-1,.63.57.57,0,0,1-.55,0,.58.58,0,0,1-.28-.49c0-.07,0-4.56-.11-8.88a10,10,0,0,1-6.08,3.08c-3.79.54-8.78-3.51-10.39-5.12-.06-.06-6.06-6.12-5.1-10a24,24,0,0,0,.22-6.87.57.57,0,0,1,.92-.51c1.55,1.21,4.8.66,7.66.18.63-.11,1.23-.21,1.81-.29,2.13-.31,4.31.89,5.9,1.76a7,7,0,0,0,2,.87A5.45,5.45,0,0,0,167.4,27c.16-1.24.31-2.42,1.19-2.7s1.58.46,2.18,1.1a5.6,5.6,0,0,1,.12,7.48,21.1,21.1,0,0,0,0,5.81c.09.78.16,1.83.22,3A12.72,12.72,0,0,0,171.7,40a.56.56,0,0,1,.51-.42.57.57,0,0,1,.56.36,24,24,0,0,1,1.38,8.7c0,.26,0,.53,0,.8a26.35,26.35,0,0,0,1.82-6.31.57.57,0,0,1,1.1-.09,12.11,12.11,0,0,1,.53,5.07c1.37-2.85,2.21-6.11.59-8.34-3.06-4.21-4.89-10.5-6.1-14.67-.27-.92-.5-1.73-.72-2.4a48.56,48.56,0,0,0-6.39-5.83l-.12-.1c-.89-.69-5.83-3.82-15.12,3.08a14.84,14.84,0,0,0-4.88,6.47c-.06.88-.1,1.73-.13,2.53C144.47,33.65,149.13,40.93,152.18,45.32Zm-93.35,10a11.38,11.38,0,0,1,4.72,4c0-.59.05-1.07,0-1.41a10.32,10.32,0,0,1,.29-2.12,14.61,14.61,0,0,0,0-7A16.29,16.29,0,0,1,58.83,55.3ZM45.09,44.79c-.15.43-.32.88-.49,1.34a32.3,32.3,0,0,0-2.21,8.25A19.22,19.22,0,0,0,42.62,59a7.37,7.37,0,0,0,1.3-1.88.58.58,0,0,1,.51-.31c.09,0,7.74.17,11.89-1.43L55.4,55a27.41,27.41,0,0,1-5.17-2.58A12.31,12.31,0,0,1,45.09,44.79ZM171.24,44c.11,3.5.14,7.43.15,9.27A7,7,0,0,0,172.62,52a23,23,0,0,0-.39-10A11.57,11.57,0,0,1,171.24,44ZM37.14,41.59a9.51,9.51,0,0,0-1.61,3.23,34.7,34.7,0,0,0-.88,3.86,30.5,30.5,0,0,1,4.82-7c-.56.27-.88.45-.9.46a.55.55,0,0,1-.5,0A4.75,4.75,0,0,1,37.14,41.59ZM150,27.51a22.3,22.3,0,0,1-.34,6.21c-.6,2.38,2.63,6.72,4.8,8.89,1.76,1.76,6.37,5.24,9.43,4.8a8.59,8.59,0,0,0,6.18-3.7c-.06-2-.16-3.73-.3-4.87a21,21,0,0,1,0-6.32.55.55,0,0,1,.13-.25c.11-.13,2.69-3.2,0-6.09-.72-.78-1-.79-1-.79h0a5.15,5.15,0,0,0-.4,1.77c-.15,1.16-.28,2.17-1,2.47s-1.67-.22-3-.93c-1.53-.84-3.43-1.88-5.19-1.63l-1.78.28C155,27.8,152,28.29,150,27.51ZM117.27,45.4a4.82,4.82,0,0,0,2.06.27c0-1.86,0-3.49.08-4.91a5.5,5.5,0,0,0-1.13.05,6.6,6.6,0,0,0-1.59.48A16.44,16.44,0,0,0,117.27,45.4ZM51.44,37.3A12,12,0,0,1,60.64,41a22,22,0,0,1,2.94,4,4.84,4.84,0,0,0-.34-1.76C61.76,39.64,57,35.8,52.3,35.36a4.48,4.48,0,0,1-2.5,2C50.36,37.32,50.91,37.3,51.44,37.3Zm69.14,2.49a5.79,5.79,0,0,1,2,.89.56.56,0,0,1,.21.55A16.26,16.26,0,0,1,121.64,45a28.38,28.38,0,0,0,3.08-1.92,18,18,0,0,0-3.16-4.33,6.52,6.52,0,0,1-1,.44C120.59,39.37,120.59,39.58,120.58,39.79Zm0,1.17c0,1.14-.05,2.41-.07,3.84a13.87,13.87,0,0,0,1.14-3.4A4.8,4.8,0,0,0,120.54,41Zm23.14-10.15a19.07,19.07,0,0,0-.13,3.25c.21,4.13,1.85,7.5,4.38,9q1.11.66,2.16,1.2C147.49,40.37,144.37,35.09,143.68,30.81Zm-35.47,2.1c.3,4.07,2.75,9.07,3.74,11a12.53,12.53,0,0,1,3.58-3.24c0-1.17,0-2,0-2.11a.56.56,0,0,1,.76-.51,6,6,0,0,0,3.19.3c0-.15,0-.29,0-.42a14.55,14.55,0,0,1-3.25-.2c-2.84-.41-5.23-4.51-6.16-6.32A15,15,0,0,1,108.21,32.91Zm13.33,4.59a.54.54,0,0,1,.22,0c1.17.5,2.78,3,3.87,4.82l.62-.54a23.22,23.22,0,0,0-1-7.19,8.44,8.44,0,0,1-4.61,3.07,1.62,1.62,0,0,0,0,.22,2.38,2.38,0,0,0,.53-.31A.63.63,0,0,1,121.54,37.5ZM37.87,40.72l.4.25a33,33,0,0,1,3.9-1.75,13.13,13.13,0,0,1,5.45-2.42A6,6,0,0,0,51,35.33C47,35.53,41.21,37.13,37.87,40.72Zm78.79-1.43c0,.23,0,.49,0,.79a6.39,6.39,0,0,1,1.47-.39,6.68,6.68,0,0,1,1.32-.06,1.09,1.09,0,0,1,0-.18A6.88,6.88,0,0,1,116.66,39.29ZM46,30.85a11.67,11.67,0,0,0-3.79.67c-2.24.77-6,2.53-6.13,5.74A4,4,0,0,0,37,40c3.63-3.87,9.76-5.58,14-5.77h.47a2.34,2.34,0,0,0-.82-1.78A6.64,6.64,0,0,0,46,30.85Zm75.4.71c-.15.3-.47,1.33-.7,4.93,2.17-.65,4.5-2.62,6.64-7.84,3.66-8.92,3-14,3-14.1a.55.55,0,0,1,0-.22,10.53,10.53,0,0,0-1.13-7.4c-1.59-2.63-4.48-4.45-8.6-5.4-5.79-1.35-9,1.05-10.63,3.3-2.83,3.86-2.91,9.46-1.72,11.48a.57.57,0,0,1-.7.82h0s-.44-.16-.69.05-.5.63-.19,2.39c.6,3.43,1.59,5.37,2.65,5.2a.56.56,0,0,1,.62.36A49.86,49.86,0,0,0,112.15,30c-.89-2.76-1.83-6.25-1.54-7.84a19.12,19.12,0,0,0-.07-4.31,13.65,13.65,0,0,1,.09-5,11.51,11.51,0,0,1,2.49-4,.61.61,0,0,1,.42-.17.58.58,0,0,1,.41.2s2.54,2.87,8.53,2.87c5,0,6-.73,6.09-.85a.57.57,0,0,1,.54-.33.58.58,0,0,1,.54.51c0,.29.71,7.23-.27,9.92-.66,1.81-2.46,2.1-3.77,2.31-.74.12-1.51.24-1.68.58-.49,1,.08,3.38.39,4.66.07.32.14.59.18.8a.52.52,0,0,1,0,.37A3.37,3.37,0,0,1,121.44,31.56Zm36.48-20a14.7,14.7,0,0,0-3,.31c-6.79,1.35-9,6.35-9.74,11.29A15.09,15.09,0,0,1,149,19c9.94-7.39,15.48-3.85,16.49-3.06l.12.09a55.52,55.52,0,0,1,4.48,3.86C168.43,16.62,164.71,11.57,157.92,11.57Zm-29.39-.51h0Zm0,0Z" fill="#2f292b"/><path d="M113.27,12l.1-.08C113,12.27,112.93,12.3,113.27,12Z" fill="#f4bb92"/><path d="M112,17.54c.2-1,.42-2.12.58-3a10.69,10.69,0,0,1,.44-1.66s.12-.31.13-.35l.15-.31c.2-.27.24-.38.14-.32a2.25,2.25,0,0,0,.41-.34l.56-.52.52-.45a15.1,15.1,0,0,0,5.37,1.85c.9.19,1.8.39,2.71.55a7.93,7.93,0,0,0,3.4,0,11.76,11.76,0,0,1,.8,3.19,2.31,2.31,0,0,0,3.36,1.92,2,2,0,0,0,1-1.34c.68-2.65,1-7.38-1.55-9-.64-2.75-4.67-5.14-7.15-6.08a13.89,13.89,0,0,0-9.43-.23,7.12,7.12,0,0,0-2.63,1.51c-.81.81-.89,1.79-1.34,2.76s-1.1,1.95-1.51,3c-1,2.53-1.86,5.52-.69,8.15a6.15,6.15,0,0,0,.74,1.24C109,19.41,111.59,19.59,112,17.54Zm1.25-5.5c-.34.26-.3.23.1-.08Z" fill="#261d16"/></g></g></svg>