<?xml version="1.0" encoding="utf-8"?>
<!-- Generator: Adobe Illustrator 24.1.2, SVG Export Plug-In . SVG Version: 6.00 Build 0)  -->
<svg version="1.1" id="Layer_1" xmlns="http://www.w3.org/2000/svg" xmlns:xlink="http://www.w3.org/1999/xlink" x="0px" y="0px"
	 viewBox="0 0 279.1 278" style="enable-background:new 0 0 279.1 278;" xml:space="preserve">
<style type="text/css">
	.st0{fill:#563E37;}
	.st1{fill:#47403F;}
	.st2{fill:#C6C4C3;}
	.st3{fill:none;}
	.st4{fill:#F2B991;}
	.st5{fill:#9C704B;}
	.st6{fill:#DAD9D8;}
	.st7{fill:#745477;}
	.st8{fill:#566F7D;}
	.st9{fill:#503751;}
	.st10{fill:#CDF7E6;}
	.st11{fill:#575757;}
	.st12{fill:#3E4268;}
	.st13{fill:#825748;}
	.st14{fill:#603D33;}
	.st15{fill:#654335;}
	.st16{fill:#6A8D95;}
	.st17{fill:#5F0A66;}
	.st18{fill:#F9DDBE;}
	.st19{fill:#C2C0BF;}
	.st20{fill:#373D60;}
	.st21{fill:#54222B;}
	.st22{fill:#CE6F53;}
	.st23{fill:#231F20;}
</style>
<g id="Layer_2_1_">
	<g id="Plan">
		<path class="st0" d="M180.4,215.9c-4.4-1.8-6.7,5-6.5,8.1c0,0.6,0.2,1.2,0.5,1.7c1.6,1.8,5.9,0,7.7-0.6l3.9-1.4
			c0.6-0.2,1.2-0.5,1.7-0.9c0.7-0.8,1.1-1.8,0.9-2.9c-0.2-1-0.5-2.1-0.9-3c-0.3-0.9-0.8-1.8-1.5-2.4c-0.7-0.7-1.8-0.9-2.7-0.4"/>
		<path class="st0" d="M144.2,213.7c-0.9,0.3-1.7,0.7-2.5,1.2c-0.7,0.3-1.3,0.9-1.6,1.7c-0.1,0.8,0.2,1.6,0.9,2.1
			c5.4,4.1,13.2,0.1,19-0.5c1.8-0.2,3.8-0.1,5.4-1s2.7-3.2,1.3-4.7c-1.3-1.3-3.6-0.7-5.1-1c-2.1-0.5-4.2-1.2-6.1-2.2
			c-1-0.4-2.4-0.8-3.1,0c-0.3,0.4-0.6,0.9-0.8,1.4c-0.9,1.5-2.9,1.8-4.5,2.1C146.1,213,145.2,213.3,144.2,213.7z"/>
		<path class="st1" d="M52,212.1c1.1,0.6,2.4,0.9,3.7,0.8c1,0.2,1.9-0.1,2.7-0.7c0.1-0.1,0.2-0.3,0.4-0.3c0.2,0,0.3,0.1,0.5,0.2
			c3,2.4,7,3.1,10.8,3.2c1.2,0,2.6-0.2,3-1.3c0.2-0.8-0.1-1.6-0.8-2.1c-0.6-0.4-1.3-0.8-2.1-1c-2-0.8-3.9-1.9-5.6-3.3
			c-0.2-0.2-0.5-0.4-0.8-0.5c-0.3-0.1-0.7,0-1,0.1c-2.8,0.7-5.7,1.2-8.6,1.4c-1,0.1-2.5-0.3-3.1,0.7S51.2,211.6,52,212.1z"/>
		<path class="st1" d="M30,216c-0.5,0.5-1.1,1.2-0.8,1.9c0.1,0.2,0.2,0.3,0.3,0.5c0.2,0.4,0.3,0.8,0.4,1.3c0.3,0.9,0.9,1.6,1.8,1.9
			c0.8,0.4,1.7,0.6,2.6,0.7l2.3,0.4c0.9,0.2,1.8,0.2,2.7-0.1c0.9-0.5,1.5-1.3,1.7-2.3c0.7-1.6,0.5-3.5-0.4-5
			c-0.1-0.2-0.3-0.4-0.5-0.4c-0.3-0.1-0.6-0.1-0.8,0c-1.7,0.4-3.5,0.2-5.1-0.5c-0.6-0.3-2-1.4-2.7-0.9C30.8,213.8,30.9,216,30,216z"
			/>
		<path class="st2" d="M31.1,206.3h0.2c-0.1,2-0.3,4-0.4,6.1c0,0.7,0.1,1.3,0.4,1.9c-1.7,0.9-2.3,2.9-1.4,4.6
			c0.1,0.3,0.3,0.5,0.5,0.8c1.8,2.2,4.5,3.3,7.3,3c1-0.1,1.9-0.6,2.6-1.4c0.6-1,0.9-2.3,0.8-3.5c0-0.4,0-0.7-0.1-1.1
			c-0.2-0.9-1.3-1.3-1.5-2s0.4-1.7,0.5-2.4c0.3-2.1,0.5-4.1,0.8-6.2l10.5-0.1c0.1,0.9,0.5,1.8,1.1,2.6c-0.1,0.2-0.2,0.4-0.3,0.6
			c-0.6,1.8,0.4,3.8,2.2,4.4c0.1,0,0.2,0.1,0.2,0.1c1.2,0.3,2.5-0.3,3.1-1.3l0.9-0.2c0.3-0.1,0.7-0.1,1-0.2c1.5,2.3,3.9,3.7,6.6,3.8
			c0.7-0.1,1.4-0.2,2.1-0.3l0.3-0.1c0.9,0,1.7-0.1,2.5-0.4c0.7-0.1,1.4-0.4,1.8-1c0.2-0.5,0.2-1-0.1-1.4c-0.2-0.4-0.6-0.8-0.9-1.1
			c-1.3-0.9-2.7-1.7-4.1-2.3c-1-0.4-1.9-1-2.8-1.6c0,0-2.6-1.8-2.5-1c-0.2-1.2,2.4-0.7,3.2-0.7h4.1l8.5-0.1l16.7-0.1l18.2-0.1
			c-0.2,0.4-0.4,0.9-0.5,1.4c-0.2,0.8-0.1,1.6,0.2,2.4c-0.2,0.3-0.4,0.5-0.6,0.8c-0.5,0.9-0.7,2-0.5,3c-1.4,0.7-2,2.5-1.2,3.9
			c0.2,0.5,0.6,0.8,1,1.1c-0.4-0.2-0.2-0.1,0.5,0.4c0.3,0.2,0.7,0.3,1.1,0.4c0.6,0.1,1.2,0.2,1.8,0.1c1.4,0,2.8-0.7,3.6-1.9
			c0.1-0.1,0.2-0.3,0.2-0.4l0.3-0.2c0.3-0.2,0.5-0.4,0.7-0.7c0.3-0.4,0.6-0.8,0.9-1.2c0.4-0.5,0.7-1,1-1.4l0.4-0.7
			c0.1,0.6,0.1,1.3,0.3,1.9c0.4,2.3,3.7,1.6,3.8-0.5c0.1-1.9,0.1-3.8,0.2-5.7c0-0.9,0.2-1.9,0.3-2.8h7h11.2h5.7h2.7
			c1.3,0,1.1,0,1.8,0.9c0.3,0.2,0.5,0.5,0.7,0.9c0.2,0.6-0.4,1.2-0.4,1.8c-0.6-0.4-1.3-0.8-2-1c-0.1,0-0.2,0-0.4,0
			c-0.1,0.1-0.2,0.1-0.3,0.3c-0.4,0.8-0.5,1.8-1.1,2.4c-0.4,0.3-0.8,0.6-1.3,0.8c-1.7,0.7-3.4,1.4-5.1,2c-0.8,0.3-1.6,0.6-2.4,0.8
			c-0.5,0.1-1-0.1-1.5,0.2c-1.1,0.7-1.5,2.2-0.8,3.3c0.3,0.5,0.7,0.8,1.2,1c2.5,0.8,5.2,1.1,7.8,0.9c1.3,0,2.6-0.2,3.9-0.6
			c0.9-0.3,1.9-0.6,2.9-0.9c1.3,0.1,2.7,0.1,4-0.1c2.4-0.2,4.7-0.1,6.1-2.4c0.8-1.4,0.6-3.2-0.6-4.4c-0.3-0.4-0.8-0.8-1.3-1
			c0.6-1.6,1.1-3.2,1.5-4.9h7.1c0.4,0,1.1,4.3,1.2,4.7c0.5,1.9,2.4,3.6,2.1,5.6c0,0.3-0.1,0.6-0.3,0.9c-1.1,2.2-2.8,4.6-2.6,7.2
			s2,2.9,4.3,2.6c4.3-0.4,9.3-2.6,10-7.4c0.3-2.3-0.4-4.4-2.6-5.3c-0.1-0.1-0.3-0.1-0.4-0.1c-0.2-2.7-0.4-5.4-0.6-8.1l27.5-0.1
			l34.3-0.1c9.2,0,1.4-0.1,10.7-0.1c6.2,0-5.7,0,0.5,0c2.3,0,4.5,0,6.8,0c4,0.1,7.8,1.6,10.7,4.4c3,2.7,4.3,6.8,4.4,10.7
			c-0.1,4-1.7,7.7-4.4,10.5c-2.9,2.8-6.7,4.4-10.7,4.4h-0.4c-3.3,0-6.6,0-9.8,0c-7,0,21,0,14-0.1l-29.5-0.1l-35.5-0.1l-39-0.1
			c-13.3,0-26.5,0-39.7-0.1c-12.7,0-25.3-0.2-38-0.3l-33.7-0.2c-9-0.1-17.9-0.2-26.9-0.4c-5.8-0.1-12.8,0.7-18.1-2.1
			c-4.4-2.4-7.2-6.9-7.3-11.9c0-3.6,1.5-7,4-9.5c1.3-1.3,2.8-2.3,4.5-2.9c5.4-2.1,11.9-1.4,17.5-1.4
			C27.7,206.5,29.5,206.4,31.1,206.3z M108,213.7c-0.7,0-1.5-0.3-2-0.8c-1.1-1.1-1.1-2.9,0-4c0,0,0,0,0,0c0.8-0.6,1.8-0.9,2.8-0.8
			c0.5,0.1,0.9,0.2,1.3,0.5c0.7,0.4,1.2,1.1,1.3,1.9c0.1,0.8-0.1,1.6-0.7,2.2c-0.4,0.4-0.9,0.7-1.4,0.9
			C108.8,213.7,108.4,213.8,108,213.7z"/>
		<path class="st3" d="M126.3,63.8c0,0.5-0.1,1-0.2,1.5l0.3-0.2c0.4-0.2,0.7-0.3,1.1-0.4l-0.3-0.2C126.9,64.3,126.6,64,126.3,63.8z"
			/>
		<path class="st3" d="M116.2,66.8c-0.1,0-0.2,0.1-0.3,0.2C115.9,66.9,116,66.9,116.2,66.8C116.1,66.9,116.1,66.8,116.2,66.8z"/>
		<path class="st3" d="M185.5,126.3c0.4-0.2,0.8-0.3,1.3-0.3h0.1c-1.3-0.3-2.5-1.1-3.2-2.3c-0.1,1.1-0.1,2.3-0.2,3.4
			c0,0.3,0,0.5,0,0.8C184,127.2,184.7,126.7,185.5,126.3z"/>
		<path class="st3" d="M126.6,100C126.6,99.8,126.6,99.7,126.6,100z"/>
		<path class="st3" d="M50.5,190.1c-0.5-9.4-1-18.7-1.5-28.1c-0.1-2.8-0.3-5.6-0.4-8.5c-1.6,9.2-2.8,18.5-4.2,27.8
			c-1.2,8.4-2.5,16.7-3.6,24.9l10.5-0.1c0-0.1,0-0.1,0-0.2C51,200.6,50.7,195.3,50.5,190.1z"/>
		<path class="st3" d="M169.1,189.6c-0.1,0.3-0.1,0.6-0.1,0.9c-0.6,3.5-1.2,7-1.9,10.5c-0.3,1.5-0.6,3-1,4.5h7.1
			c-1-4.1-2-8.2-3.1-12.2C169.8,192,169.4,190.8,169.1,189.6z"/>
		<path class="st3" d="M41.8,136.2c0,0.2,0,0.3,0,0.5c0-0.2,0.1-0.5,0.2-0.7L41.8,136.2z"/>
		<path class="st3" d="M185.7,138.3c2.3-0.5,4.6-0.9,6.8-1.2c0-0.1,0-0.3,0-0.4c-0.1-0.7-0.2-1.4-0.4-2.2c-0.5,0.8-1.1,1.4-1.8,1.9
			c-0.7,0.4-1.5,0.6-2.4,0.6c-0.9,0-1.7-0.2-2.5-0.8C185.6,137,185.6,137.7,185.7,138.3z"/>
		<path class="st3" d="M29.7,117.7c0.2,0.3,0.3,0.7,0.3,1.1c0.6,0.2,1.2,0.6,1.6,1.1c0.3,0.4,0.6,0.8,0.9,1.2
			c-0.6-1.8-0.8-3.8-0.8-5.7c0.1-4,0.7-8,0.9-12c0.3-5.8,0.4-11.5,0.5-17.3c-0.2,0.6-0.4,1.1-0.6,1.7c-0.7,1.9-1.4,3.8-1.9,5.7
			c0.5,0.8,0.8,1.7,0.9,2.6c0.3,2.3-0.1,4.7,0,7c0,2.1,0.1,4.3,0.3,6.4s0.6,4.5-0.9,6.4c-0.4,0.5-0.9,0.9-1.5,1.3
			C29.4,117.3,29.5,117.5,29.7,117.7z"/>
		<path class="st4" d="M53,50.3c0.5,0.4,1,0.8,1.5,1.1c0.2-0.1,0.4-0.1,0.6-0.2c0.9-0.1,1.7,0.1,2.3,0.8c0.2,0.2,0.3,0.4,0.4,0.5
			c0.7,0.2,1.4,0.5,2,1c0.2,0.2,0.3,0.3,0.5,0.5c1.5-8,3.4-15.9,5.6-23.7c-0.5,0.1-0.9,0-1.4-0.1c-1-0.4-1.9-0.9-3-1.2
			s-1.8-0.4-2.7-0.6c-1-0.2-2-0.7-2.7-1.5L56,27c-0.9,0.3-1.8,0.8-2.4,1.6c-1.4,1.9-1.3,4.5-1.1,6.7c0.1,0.5-0.1,0.9-0.5,1.2
			c0.1,0.5,0.2,1,0.3,1.5c0.4,0.8,0.4,1.8,0,2.6c-0.9,2.4-1.5,4.9-1.8,7.4C51.4,48.7,52.3,49.5,53,50.3z"/>
		<path class="st4" d="M35.4,129.7c-0.4-1-0.7-2-1.1-3c-0.6-1.9-1.3-3.7-1.9-5.6c-0.3-0.4-0.6-0.8-0.9-1.2c-0.4-0.5-1-0.9-1.6-1.1
			c0.2,1.1-0.4,2.2-1.3,2.8c-1.6,0.8-3.4,1.3-5.2,1.5c-0.9,1.4-1,3.1-0.2,4.6c0.8,1.3,1.7,2.5,2.7,3.6c0.9,1.1,1.7,2.2,2.6,3.3
			c1.2,1.2,3.1,1.7,4.7,1.1c0-0.8,0-1.5,0-2.3C33.3,131.8,34.1,130.4,35.4,129.7z"/>
		<path class="st4" d="M75.4,128.3L75.4,128.3L75.4,128.3L75.4,128.3z"/>
		<path class="st4" d="M76,128.3L76,128.3z"/>
		<path class="st4" d="M76.2,128.6l-0.3-0.1l-0.1-0.1c-1.2,0.6-2.7,0.3-3.5-0.8c-0.2-0.2-0.3-0.5-0.4-0.7c-0.3,0.6-0.4,1.2-0.4,1.8
			c0,1.5,0.3,3,0.7,4.4c0.2,1.3,0.6,2.5,1.1,3.7c0.8,1.3,2.5,1.8,3.8,1c0.2-0.1,0.4-0.3,0.5-0.4c1-1.3,1.7-2.7,2.1-4.3
			c0.5-1.8,0.7-3.7,0.3-5.6c-0.1-0.4-0.2-0.8-0.4-1.1c-0.1,0.5-0.4,1-0.8,1.4C78.2,128.6,77.2,128.8,76.2,128.6z"/>
		<path class="st5" d="M117.5,69.2l8.6-3.9c0.1-0.5,0.1-1,0.2-1.5c-0.7-0.5-1.3-1.1-1.9-1.8c-2-2.3-3.5-5.9-2.1-8.8
			c0.6-1.2,2-1.6,3.2-1.1c-0.1-0.9-0.2-1.8-0.3-2.7c-0.1-0.7-0.3-1.4-0.4-2.1c-1.5,0.7-3.3,0.1-4.2-1.3c-1.8-2.9-6-1.4-9.2-2.2
			c-0.1,0.2-0.1,0.5-0.2,0.7c-0.4,1.6-0.6,3.3-0.6,5c-0.1,1.7,0.1,3.4,0.7,5c0.4,0.9,0.9,1.7,1.6,2.3l0.4,0.4
			c0.1,0.1,0.2,0.3,0.3,0.5l0,0v0.1c0.1,0.3,0.2,0.5,0.2,0.8c0.2,0.5,0.3,1.1,0.4,1.6c0-0.1,0,0.9,0,1.2s0,0.6,0,0.8
			c0,0,0,0.5-0.1,0.7s-0.1,0.4-0.1,0.4c-0.1,0.3-0.1,0.5-0.2,0.8c-0.1,0.6-0.3,1.1-0.5,1.6c0.1-0.2-0.4,0.8-0.5,1
			c-0.1,0.2-0.4,0.6-0.6,0.9c0,0-0.1,0.1-0.1,0.1l-0.1,0.1c-0.7,0.9-1.1,2-1.2,3.1c0.5,0,1,0.1,1.5,0.3
			C114.2,70.5,115.9,69.9,117.5,69.2z M116.2,66.8C116.1,66.8,116.1,66.9,116.2,66.8c-0.2,0.1-0.2,0.1-0.3,0.2
			C115.9,66.9,116.1,66.8,116.2,66.8z"/>
		<path class="st5" d="M98.1,88.8c-0.5-0.2-1-0.6-1.3-1.1c-1.4,0.1-2.6,0.8-3.2,2c-1.9,3.6-1.6,10.1,2.7,11.9
			c3.1,1.3,6.2-0.8,7.2-3.8c0.7-2.1,0.5-4.4-0.6-6.3c-1.8,0.8-3.8,0-4.6-1.8C98.3,89.5,98.2,89.2,98.1,88.8L98.1,88.8z"/>
		<path class="st5" d="M112.8,209.4c-0.2,0.3-0.4,0.5-0.6,0.8c-0.5,0.9-0.7,2-0.5,3c0.1-0.1,0.3-0.1,0.5-0.1
			c-0.4,0.3-0.2,0.2,0.6-0.2l0.8-0.1c0.3,0,0.5,0,0.8,0h0.2h0.1c0.6-0.1,1.1-0.1,1.7,0l0.3-0.3l0.4-0.4c0.2-0.3,0.5-0.6,0.7-1
			c0.8-1.2,1.5-2.5,2.1-3.8c0.5-1.2,1-2.4,1.3-3.7c0-0.2-0.1-0.4-0.2-0.7c0.2-1.6,0.3-3.3,0.6-4.9c0.3-2.3,1.3-4.4,1.7-6.6
			c0.4-1.9,0.5-3.7,0.5-5.6c0.2-0.4,0.3-0.9,0.5-1.3c0.6-1.3,1-2.7,1.3-4.2c0.2-0.9,0.3-1.7,0.3-2.6c0-0.3,0-0.5,0.1-0.8
			c0.2-1.6,0.2-3.1,0.1-4.7c-0.3-5.4-1.5-10.7-3.6-15.7c-0.5-1.2-1.3-2.2-2.4-2.9l-3.9-0.3l-0.3,0.1c-2.8,1.2-3.5,4.2-2.3,6.8
			l0.2,0.3c0.1,0.2,0.2,0.4,0.3,0.7c-0.1,1.1-0.1,2.2-0.2,3.3c-0.2,2.1-0.5,4.2-0.7,6.3c-0.2,2.3-0.1,4.6,0.3,6.9
			c0.2,1.3,0.4,2.5,0.6,3.8s0.2,1.4,0.3,2.4c0.2,2.1,0.2,4.3,0.3,6.4c0.2,2.3,0.6,4.5,0.6,6.9c0,1.7-0.1,3.3-0.3,4.9
			c-0.4,0.5-0.7,1.1-1,1.7c-0.3,0.6-0.6,1.2-0.9,1.9c-0.2,0.4-0.4,0.9-0.5,1.4C112.4,207.8,112.5,208.7,112.8,209.4z"/>
		<path class="st5" d="M156.4,48.2c0.4-0.2,0.7-0.5,1.1-0.7c1.1-0.7,2.4-1.2,3.7-1.4c0.2-0.4,0.5-0.8,0.9-1.2
			c0.3-0.4,0.8-0.7,1.2-0.9c0.4-0.3,0.8-0.5,1.2-0.6l0.5-0.1c-0.1-2.4-0.7-4.7-1.8-6.9c0-0.4,0-0.7,0.1-1s0.1-1,0.1-1.5l0.1-0.1
			c0.4-0.3,0.8-0.6,1.1-1c0.3-0.3,0.4-0.6,0.5-0.9c0.2-0.3,0.3-0.7,0.3-1.1c0.1-0.6,0.1-1.1-0.1-1.7l-0.4-1l-0.7-0.9
			c-0.1-0.1-0.3-0.3-0.4-0.4c-0.1-1.6-0.5-3.1-1.2-4.5c-2.8-5.2-10.6-5.4-13.1,0.1c-0.1,0.2-0.2,0.4-0.3,0.7
			c-0.4,0.8-0.6,1.6-0.6,2.5c-0.1,1.4,0.1,2.8,0.5,4.2c0.2,0.8,0.5,1.5,0.9,2.2v0.2c-0.4,1.7-0.3,3.4,0.3,5c0.1,3.4,0.9,6.7,2.2,9.8
			c0.2,0.5,0.5,0.9,0.9,1.2C154.4,47.9,155.5,47.9,156.4,48.2z"/>
		<path class="st5" d="M187.9,126c-0.3,0-0.7,0-1-0.1h-0.1c-0.4,0-0.9,0.2-1.3,0.3c-0.8,0.3-1.5,0.9-2,1.6l-0.1,2.8
			c0.4-0.5,0.9-0.9,1.4-1.1c0.6-0.4,1.4-0.1,1.8,0.5c0.1,0.2,0.2,0.4,0.2,0.6c-0.1,1.6-0.9,3.1-1.1,4.8c0,0.3-0.1,0.6-0.1,0.9
			c0.7,0.5,1.6,0.8,2.5,0.8c0.8,0,1.6-0.3,2.4-0.6c0.7-0.5,1.3-1.1,1.8-1.9c-0.3-1.1-0.1-2.2,0.6-3.1c0.1-0.1,0.3-0.2,0.4-0.3
			c0-0.3,0-0.5,0.1-0.8c0-1-0.4-2-1-2.9c-0.6-0.8-1.5-1.4-2.5-1.7c-0.2,0-0.3-0.1-0.5-0.1C188.8,125.9,188.3,126,187.9,126z"/>
		<path class="st6" d="M53.3,68.8c0-0.4,0-0.7,0-1.1c0-2.4,0.1-4.7,0.4-7.1c0.1-0.9,0.1-2.2,0.3-3.3c-0.2-0.2-0.3-0.5-0.5-0.8
			c0-0.1-0.1-0.3-0.2-0.4s-0.1-0.2-0.1-0.3c-0.2-0.4-0.3-0.8-0.4-1.2c-0.3-1.4,0.4-2.8,1.7-3.3c-0.5-0.3-1.1-0.7-1.5-1.1
			c-0.8-0.8-1.7-1.5-2.6-2.1c-0.5-0.2-1-0.3-1.5-0.3c-0.9,0-1.7,0.4-2.2,1.2c-0.5,1.1-0.5,2.4,0.1,3.5c-0.1,0.5-0.1,1.1,0,1.6
			c0,0.2,0.1,0.5,0.2,0.7c0.5,0.8,0.9,1.6,1.2,2.4C50.1,60.9,51.8,64.8,53.3,68.8z"/>
		<path class="st6" d="M59.9,53.5c-0.6-0.5-1.3-0.8-2-1c0.2,0.4,0.4,0.9,0.4,1.4c0.1,0.4,0.1,0.8,0,1.3c0,0.1,0,0.2,0,0.3
			s0,0.3,0,0.5c0,0.5-0.2,0.9-0.5,1.3c0.1,1.2,0.1,2.5,0.2,3.5l0.1,0.8c0.4,1.1,0.6,2.4,0.8,3.4c0.4,1.9,0.8,3.9,0.9,5.9
			c0.1,0.8,0.2,1.7,0.2,2.5c0.5-1.7,1-3.3,1.5-5c0.3-3.3,0.3-6.7,0.1-10c0-1.5-0.4-3-1.2-4.2C60.2,53.8,60.1,53.7,59.9,53.5z"/>
		<path class="st6" d="M28.7,121.5c1.3-0.8,1.7-2.5,1-3.8c-0.1-0.2-0.3-0.4-0.5-0.6c-1.3,0.7-2.6,1-4.1,1c-0.5,0-1-0.1-1.4-0.4
			c-0.8,0.3-1.7,0.7-2.5,1.1c-1.5,0.8-1.4,3.7,0.5,4c0.6,0.1,1.2,0.1,1.8,0.1C25.3,122.8,27,122.3,28.7,121.5z"/>
		<path class="st6" d="M74.8,124.7c-0.8,0-1.5-0.3-2.1-0.8l-0.2,0.2c-0.8,0.8-1,1.9-0.6,2.9c0.1,0.3,0.2,0.5,0.4,0.7
			c0.8,1.1,2.3,1.4,3.5,0.8l0.1,0.1l0.3,0.1c0.9,0.2,2,0,2.7-0.7c0.4-0.4,0.6-0.9,0.8-1.4c0.1-0.4,0.1-0.9-0.1-1.3
			c-0.3-0.9-1-1.7-1.9-2.1C77,124.1,75.9,124.7,74.8,124.7z M75.5,128.3L75.5,128.3L75.5,128.3L75.5,128.3z M76,128.3L76,128.3z"/>
		<path class="st7" d="M58.8,64.8c-0.3-1-0.5-2.3-0.8-3.4l-0.1-0.8c-0.1-1,0-2.3-0.2-3.5c0.3-0.4,0.4-0.8,0.5-1.3c0-0.2,0-0.3,0-0.5
			s0-0.2,0-0.3c0.1-0.4,0.1-0.8,0-1.3c0-0.5-0.2-1-0.4-1.4c-0.1-0.2-0.2-0.4-0.4-0.5c-0.6-0.6-1.5-0.9-2.3-0.8
			c-0.2,0-0.4,0.1-0.6,0.2c-1.3,0.5-2,1.9-1.7,3.3c0.1,0.4,0.2,0.8,0.4,1.2c0,0.1,0.1,0.2,0.1,0.3s0.1,0.3,0.2,0.4
			c0.1,0.3,0.3,0.6,0.5,0.8c-0.2,1.2-0.2,2.4-0.3,3.3c-0.3,2.3-0.4,4.7-0.4,7.1c0,0.4,0,0.7,0,1.1c1.3,3.5,2.5,7,3.5,10.5
			c0.2,0.7,0.4,1.4,0.6,2.1c0.3-1.1,0.6-2.2,1-3.3c0.5-1.7,1.1-3.3,1.6-5c-0.1-0.8-0.1-1.7-0.2-2.5C59.5,68.7,59.2,66.7,58.8,64.8z"
			/>
		<path class="st8" d="M32.1,213.2l0.8,0.5c0.5,0.3,1,0.6,1.5,0.7c0.4,0.1,0.8,0.2,1.2,0.2c0.8,0.1,3.1,0.6,3.8,0.1
			c0.5-0.4,0.6-1.6,0.7-2.2c0.3-2.1,0.5-4.1,0.8-6.2c1.1-8.2,2.4-16.6,3.6-24.9c1.4-9.3,2.6-18.5,4.2-27.8c0.1,2.8,0.2,5.6,0.4,8.5
			c0.5,9.3,1,18.7,1.4,28.1c0.3,5.3,0.6,10.6,0.9,15.8c0,0.1,0,0.1,0,0.2c0.3,3.1,2.6,2.6,5,2.2c2-0.3,4.7-0.3,6.4-1.2
			c0.3-0.1,0.6-0.4,0.6-0.7s-0.4-0.6-0.5-1c-0.2-0.5-0.3-1.1-0.3-1.6c-0.1-1.5-0.2-3.1-0.3-4.6c-0.2-3.1-0.3-6.2-0.5-9.3
			c-0.3-6.2-0.4-12.3-0.4-18.5c0-2.8,0.1-5.7,0.3-8.5c0.1-1.4,0.2-2.7,0.3-4.1c0.1-0.6,0.1-1.3,0.2-1.9c0-0.3,0.1-0.5,0.1-0.8
			c0,0,0.1-1.1,0.1-1c0.8-5.6,1.7-11.2,2.2-16.8c0.3-2.9,0.4-5.8,0.4-8.6c0.5-0.5,0.8-1.2,1.1-1.8c1.4-4.3,1.5-8.9,1.9-13.3
			c0.3-4.1,0.6-8.2,0.9-12.4c1,6.4,1.8,12.7,2.6,19.1c0.1,1,0.5,1.9,1.3,2.6c0.6,0.5,1.3,0.8,2.1,0.8c1.2,0,2.2-0.6,2.9-1.6
			c0.3-0.5,0.5-1.1,0.5-1.7c-0.9-10.2-2-20.3-3.4-30.3c-0.7-4.9-1.1-9.8-2.2-14.7c-0.5-2.5-1.1-5-1.8-7.4c-0.5-2-1.2-4-2.2-5.9
			c-0.1-1.4-1.2-2.5-2.6-2.6c-1.3-0.2-3.1,0.7-3.3,2.1c-0.3,1.9-0.7,3.8-1.2,5.7c-0.5,1.7-1,3.3-1.5,5s-1.1,3.3-1.6,5
			c-0.3,1.1-0.7,2.2-1,3.3c-0.2-0.7-0.4-1.4-0.6-2.1c-1-3.5-2.2-7.1-3.5-10.5c-1.5-4-3.2-7.9-5.1-11.7c-0.4-0.8-0.8-1.6-1.2-2.4
			c-0.6-1-1.4-1.9-2.4-2.5c-2.8-1.8-5.7-0.4-8.1,1.1c-1.7,1-3.4,1.8-5,2.9c-2.7,1.8-2.5,5.2-2.8,8.1c0,0.1-0.2,1.1-0.1,1
			c0,0.3-0.1,0.7-0.2,1c-0.2,1-0.4,2.1-0.5,3.1c-0.4,2.1-0.8,4.1-1.3,6.2c-0.9,3.8-2.1,7.5-3.3,11.3c-1.4,4.4-2,9-1.9,13.7
			c0.1,2.4,0.1,4.8,0.2,7.2c0,1.1,0.1,2.2,0.2,3.3c0,0.7,0.1,1.4,0.2,2.1c0.1,0.2,0.2,0.5,0.3,0.7c-0.6,1.5,0.1,3.1,1.5,3.8
			c0.4,0.3,0.9,0.4,1.4,0.4c1.4,0,2.8-0.3,4.1-1c0.6-0.3,1.1-0.8,1.5-1.3c1.5-1.9,1-4.2,0.9-6.4s-0.2-4.3-0.3-6.4c0-2.3,0.3-4.7,0-7
			c-0.1-0.9-0.4-1.8-0.9-2.6c0.5-1.9,1.2-3.8,1.9-5.7c0.2-0.6,0.4-1.1,0.6-1.7c-0.1,5.8-0.2,11.5-0.5,17.3c-0.2,4-0.8,8-0.9,12
			c0,1.9,0.3,3.8,0.8,5.7c0.5,1.9,1.3,3.7,1.9,5.6c0.3,1,0.7,2,1.1,3c-1.3,0.7-2.1,2.1-2.1,3.6c0,0.8,0,1.5,0,2.3
			c0.1,9.5,0.2,19,0,28.5c-0.3,10.4-0.7,20.7-1.3,31c-0.2,3.8-0.4,7.6-0.7,11.4l-0.3,4.5C31,212.3,31.1,212.6,32.1,213.2z
			 M41.8,136.2L42,136c-0.1,0.2-0.1,0.4-0.2,0.7C41.8,136.6,41.8,136.4,41.8,136.2L41.8,136.2z"/>
		<path class="st9" d="M125.6,154.1c2.8,0.2,5-3,4.2-5.6c-1.6-5.2-3.2-10.4-3.5-15.5c-0.1-2.5,0.1-5.1,0.6-7.5
			c0.5-2.6,1.1-5.2,1.5-7.8c0.5-3.1,0.5-6.2,0.1-9.3c-0.5-2.5-1.1-4.9-2-7.3c0,0,0,0,0-0.1l0,0c0-0.2,0-0.5,0-0.7c0-0.1,0-0.1,0-0.2
			c0.1-0.3,0.1-0.5,0.2-0.8c0.2-0.5,0.3-1.1,0.6-1.6l0.1-0.1c0.2-0.4,0.3-0.8,0.5-1.1c1.1-2.7,2.2-5.4,3-8.2c1.2-4,2-8,2.6-12.1
			c-0.9-0.1-1.5-0.8-1.4-1.7c0,0,0-0.1,0-0.1c0.3-2.6,0-5.2-0.8-7.7c-0.5,0.1-1.1,0-1.5-0.3c-0.8-0.6-1.4-1.1-2.1-1.6
			c-0.4,0.1-0.8,0.3-1.1,0.4l-0.3,0.2l-8.6,3.9c-1.6,0.7-3.3,1.3-4.9,2.1c-0.5-0.2-1-0.3-1.5-0.3c-0.5,0-0.9,0.2-1.3,0.5
			c-3.7,2.8-4.8,6.9-4.9,11.4c0,0.7,0,1.4,0,2.1l0.4,3.3c0.1,0.5,0,1-0.3,1.5c0,2.6,0.1,5.1-0.1,7.7c-0.4,5.4-1.2,10.8-1.7,16
			c-0.6,5.4-1.2,10.7-1.9,16.1c-0.7,5.6-1.7,11.6-2.8,17.3c-0.6,2.3,0.8,4.7,3.2,5.3c0.3,0.1,0.7,0.1,1,0.1c4.5,0.3,9.1,0.7,13.6,1
			l3.9,0.3L125.6,154.1z M126.6,100C126.6,99.7,126.6,99.8,126.6,100z"/>
		<path class="st10" d="M144.7,105.9l0.2-0.2c0.2-1.5,1.3-2.8,2.8-3.2l2-0.5c-1-2-1.5-4.2-1.6-6.4c-0.1-4.6,0.9-9.4,1.6-14
			c0.1-1,0.3-2,0.4-3c0.2-1.9,0.3-3.8,0.6-5.7c0.4-3.3,1.1-6.6,1.6-9.9c0.4-2,0.6-4.1,1-6.1c0-0.2,0-0.4,0.1-0.6s0-0.5,0-0.7
			c-1.2-1.4-1.6-3.3-1.1-5.1c0.5-1.6,2.2-2.6,3.9-2.1c0.5,0.1,0.9,0.4,1.3,0.8c0.6,0.6,0.9,1.4,0.9,2.2c0,0.3,0,0.5,0,0.8
			c0,0.2-0.1,1.7-0.1,1v0.5c-0.1,0.6-0.2,1.1-0.5,1.6c-0.2,0.3-0.4,0.6-0.7,0.8v0.7c0.1,1.7,0.2,3.5,0.3,5.2
			c0.3,3.3,0.3,6.6,0.3,9.9c0,0.3,0,0.5,0,0.8c0.7,2.1,1,4.2,1,6.4c0.1,2.8,0.1,5.5,0.1,8.3c0,4.3-0.2,8.7-0.4,13.1
			c1.8-0.3,3.7-0.6,5.5-0.8c2.6-0.3,5.2-0.6,7.8-0.8s6.1-0.7,8.6,0.4c5.6,2.4,4.2,8.8,3.8,13.7c-0.3,3.7-0.5,7.3-0.8,11
			c0.7,1.2,1.9,2,3.2,2.3c0.3,0.1,0.7,0.1,1,0.1c0.5,0,0.9-0.1,1.4-0.3c2.2-0.6,3.7-2.5,3.6-4.8c-0.7-13.3-1.3-26.5-2.3-39.8
			c-0.5-6.7-1.3-13.6-3.9-19.9c-2.5-5.8-7.6-9.5-13.1-12.3c-1-0.5-2-1-3-1.5l-0.1-0.5c-0.2-0.8-0.7-1.6-1.3-2.2l-1-0.8
			c-0.4-0.2-0.8-0.4-1.2-0.5c-0.5-0.2-1-0.4-1.5-0.4l-0.4,0.1l-0.5,0.1c-0.4,0.1-0.9,0.3-1.2,0.6c-0.5,0.2-0.9,0.5-1.2,0.9
			c-0.4,0.3-0.7,0.7-0.9,1.2c-1.3,0.3-2.5,0.7-3.7,1.4c-0.4,0.2-0.7,0.5-1.1,0.7c-1-0.3-2-0.3-3,0c-0.4,0.1-0.8,0.3-1.1,0.6
			c-0.8,0.6-1.4,1.5-1.6,2.6c-2.8,3.7-5.4,7.5-7.8,11.3c-1.4,2.1-2.3,4.4-2.8,6.9c-0.3,2.7-0.5,5.5-0.6,8.2
			c-0.5,10.4-0.7,20.8-0.5,31.2c0,0.9,0.3,1.9,0.9,2.6c0.2-0.9,0.7-1.7,1.3-2.4L144.7,105.9z"/>
		<path class="st11" d="M157.1,210c1.9,0.8,4.2,0.7,6.2,1.2c0.4,0.2,0.9,0.2,1.4-0.1c0.4-0.3,0.6-0.8,0.5-1.3c0.4-3,1-5.9,1.8-8.9
			c0.7-3.5,1.4-7,1.9-10.5c0.1-0.3,0.1-0.6,0.1-0.9c0.3,1.2,0.7,2.4,1,3.6c1.1,4.1,2.1,8.1,3.1,12.2c1.2,4.9,0.6,10.4,6.1,11.6
			c1,0.3,2.1,0.3,3.1,0.2c5.1-1,2.2-8.2,2-11.9c-0.6-8.7-1-17.3-1.3-26c-3.2-0.3-5.7-3-5.7-6.2c0-4.6,0-9.2,0.1-13.8
			c0-1.4,0.1-2.7,0.1-4.1c-0.1-1.2-0.2-2.4-0.3-3.6l-0.1-0.7c-0.1-0.2-0.3-0.4-0.4-0.6c-1.6-3.4-1.4-7,1.3-9.7
			c0.9-0.8,1.9-1.5,3.1-1.8c-0.1-1.4,0-2.8,0.4-4.1c0.3-1.5,0.9-2.9,1.9-4.1l0.1-2.8c0-0.3,0-0.5,0-0.8c0.1-1.1,0.1-2.3,0.2-3.4
			c0.2-3.7,0.5-7.3,0.8-11c0.4-4.8,1.8-11.3-3.8-13.7c-2.6-1.1-5.9-0.6-8.6-0.4s-5.2,0.4-7.8,0.8c-1.8,0.2-3.7,0.5-5.5,0.8
			c-0.1,1.2-0.1,2.4-0.2,3.6c-0.1,2.3-2.6,4-4.7,2.7c-1.7-1.1-3.1-2.6-4-4.4l-2,0.5c-1.5,0.4-2.6,1.7-2.8,3.2l-0.2,0.2l-3.4,3.2
			c-0.7,0.7-1.1,1.5-1.3,2.4c-0.2,0.7-0.2,1.5,0.1,2.2c5,11.6,9.1,23.5,12.4,35.7c3.1,12.2,4.9,23.8,4.6,36.5
			c-0.2,6.6-0.9,13.2-2.3,19.7C154.2,207.3,155.2,209.4,157.1,210C157.1,210,157.1,210,157.1,210z"/>
		<path class="st12" d="M159,87.2c0-2.8,0-5.5-0.1-8.3c0-2.2-0.3-4.3-1-6.4c0-0.3,0-0.5,0-0.8c0-3.3,0-6.6-0.3-9.9
			c-0.1-1.7-0.3-3.5-0.3-5.2V56c0.3-0.2,0.5-0.5,0.7-0.8c0.3-0.5,0.4-1,0.5-1.6v-0.5c0,0.7,0.1-0.7,0.1-1c0-0.3,0-0.5,0-0.8
			c0-0.8-0.3-1.6-0.9-2.2c-1.2-1.2-3.2-1.2-4.4,0.1c-0.4,0.4-0.6,0.8-0.8,1.3c-0.5,1.8-0.1,3.7,1.1,5.1c0,0.2,0,0.5,0,0.7
			s0,0.4-0.1,0.6c-0.5,2-0.7,4.1-1,6.1c-0.6,3.3-1.2,6.6-1.6,9.9c-0.2,1.9-0.4,3.8-0.6,5.7c-0.2,1-0.3,2-0.4,3
			c-0.7,4.6-1.8,9.4-1.6,14c0,2.2,0.6,4.4,1.6,6.4c0.9,1.8,2.3,3.4,4,4.4c2.1,1.3,4.6-0.4,4.7-2.7c0.1-1.2,0.1-2.4,0.2-3.6
			C158.9,96,159,91.6,159,87.2z"/>
		<path class="st13" d="M192.2,134.6c0.1,0.8,0.3,1.5,0.4,2.2c0,0.1,0,0.3,0,0.4c-2.3,0.3-4.6,0.7-6.8,1.2c-0.1-0.7-0.2-1.3-0.2-2
			c0-0.3,0-0.6,0.1-0.9c0.2-1.6,1-3.1,1.1-4.8c0-0.7-0.6-1.3-1.3-1.3c-0.2,0-0.4,0.1-0.6,0.2c-0.5,0.3-1,0.7-1.4,1.1
			c-0.9,1.2-1.5,2.6-1.9,4.1c-0.3,1.3-0.5,2.7-0.4,4.1c-1.1,0.4-2.2,1-3.1,1.8c-2.8,2.7-2.9,6.3-1.3,9.7c0.1,0.2,0.2,0.4,0.4,0.6
			l0.1,0.7c0.1,1.2,0.2,2.4,0.3,3.6c0,1.4,0,2.7-0.1,4.1c-0.1,4.6-0.1,9.2-0.1,13.8c0,3.2,2.5,5.9,5.7,6.2c0.2,0,0.4,0,0.5,0.1
			c3.9,0.3,7.9-0.1,11.7-1.2c2.6-0.7,4.7-2.4,6-4.7c0.9-1.9,1.5-3.8,1.8-5.9c1.3-7.8,2.1-15.7,2.4-23.6c0-4.1-3.4-7.5-7.5-7.5h-0.6
			c-0.1-0.5-0.2-0.9-0.3-1.3c-0.3-1.2-0.8-2.4-1.5-3.4c-0.5-0.7-1.4-1-2.3-0.8c-0.2,0.1-0.3,0.2-0.4,0.3
			C192,132.3,191.8,133.5,192.2,134.6z"/>
		<path class="st14" d="M52.6,35.4c-0.1-2.2-0.3-4.9,1.1-6.8c0.6-0.8,1.4-1.4,2.3-1.6l0.3,0c0.7,0.8,1.7,1.3,2.7,1.5
			c0.9,0.2,1.8,0.3,2.7,0.6c0.9,0.3,2,0.8,3,1.2c0.4,0.2,0.9,0.2,1.4,0.1c2.3-0.4,3.9-3.9,1.8-5.5c-2.4-1.9-5.3-2.8-8.3-2.6
			c-0.8,0.1-1.5,0.3-2.2,0.6l0,0c-0.3,0.1-0.7,0.2-1,0.3c-1.4,0.4-3.7,1.6-3.8,3.2l0,0c-2.4,2.3-2.7,5.9-2.5,9
			c0.1,0.8,0.7,1.4,1.5,1.3c0.2,0,0.4-0.1,0.5-0.1C52.4,36.3,52.6,35.8,52.6,35.4z"/>
		<path class="st15" d="M120.7,46c0.8,1.4,2.6,2,4.2,1.3c0.2,0.7,0.3,1.4,0.4,2.1c0.1,0.9,0.2,1.8,0.3,2.7c-1.2-0.6-2.6-0.1-3.2,1.1
			c-1.4,2.9,0.1,6.5,2.1,8.8c0.6,0.7,1.2,1.3,1.9,1.8c0.3,0.3,0.7,0.5,1,0.7l0.3,0.2c0.7,0.5,1.3,1.1,2.1,1.6c0.4,0.3,1,0.4,1.5,0.3
			c0.8,2.5,1.1,5.1,0.8,7.7c-0.1,0.9,0.5,1.6,1.4,1.8c0,0,0.1,0,0.1,0c0.6,0.1,1.2-0.3,1.3-1c0,0,0,0,0,0c0.6-4,0.1-8-1.3-11.7
			c-0.1-1.1-0.5-2.1-1.2-2.9c-0.5-1.1-1-2.2-1.5-3.3c-0.4-0.9-0.8-1.9-1.2-2.8c-0.1-0.3-0.3-0.6-0.5-0.9c0-0.1,0-0.3,0-0.4
			c-0.1-1.4-0.2-2.7-0.5-4.1c-0.4-2.3-0.7-5.7-2.7-7.3l-0.2-0.1c-1.6-2-3.8-3.3-6.3-3.8c-3.1-0.6-7.5-0.6-9.8,1.9
			c-0.9,0.9-0.9,2.4,0,3.3c0.1,0.1,0.3,0.2,0.4,0.3c0.4,0.2,0.8,0.4,1.3,0.5C114.6,44.6,118.9,43.2,120.7,46z"/>
		<path class="st16" d="M105.2,88.3l-0.4-3.3l-0.8-7.1c-0.4-3.4-1.1-6.4-4-8.5c-2.2-1.5-5.7,0.5-5.5,3.2c0.2,2.4,0.5,4.9,0.7,7.3
			c0.1,1.3,0.3,2.6,0.4,3.8s0.7,2.3,1,3.6c0,0.2,0.1,0.4,0.2,0.5c0.3,0.5,0.7,0.9,1.3,1.1c0.2,1.9,2,3.3,3.9,3c0.3,0,0.7-0.1,1-0.3
			c0.8-0.4,1.5-1,1.9-1.8C105.2,89.3,105.2,88.8,105.2,88.3z"/>
		<path class="st17" d="M119.8,207.3c-0.6,1.3-1.3,2.6-2.1,3.8c-0.2,0.3-0.4,0.6-0.7,1l-0.4,0.4l-0.3,0.3c-0.6-0.1-1.1-0.1-1.7,0
			h-0.1h-0.2c-0.3,0-0.6,0-0.8,0l-0.8,0.1c-0.8,0.4-1,0.5-0.6,0.2c-0.2,0-0.3,0.1-0.5,0.1c-1.4,0.7-2,2.5-1.2,3.9
			c0.2,0.5,0.6,0.8,1,1.1c-0.4-0.2-0.2-0.1,0.5,0.4c0.3,0.2,0.7,0.3,1.1,0.4c0.6,0.1,1.2,0.2,1.8,0.1c1.4,0,2.8-0.7,3.6-1.9
			c0.1-0.1,0.2-0.3,0.2-0.4l0.3-0.2c0.3-0.2,0.5-0.4,0.7-0.7c0.3-0.4,0.6-0.8,0.9-1.2c0.4-0.5,0.7-1,1-1.4l0.4-0.7
			c0.1,0.6,0.1,1.3,0.3,1.9c0.4,2.3,3.7,1.6,3.8-0.5c0.1-1.9,0.1-3.8,0.2-5.7c0-0.9,0.2-1.9,0.3-2.8c0.1-0.9,0.1-1.9-0.1-2.8
			c-0.1-0.3-0.2-0.6-0.5-0.8c0.2-1,0.3-2,0.3-3c0.2-2.8-4.1-2.8-4.4,0c-0.1,1.6-0.4,3.2-0.8,4.7
			C120.8,204.9,120.3,206.1,119.8,207.3z"/>
		<path class="st17" d="M111.3,210.6c-0.1-0.8-0.6-1.5-1.3-1.9c-0.6-0.4-1.3-0.6-2.1-0.5c-0.7,0-1.5,0.3-2,0.8c-1.1,1.1-1.1,2.9,0,4
			c0,0,0,0,0,0c0.5,0.5,1.3,0.8,2,0.8c0.4,0,0.8,0,1.2-0.1c0.5-0.2,1-0.5,1.4-0.9C111.2,212.2,111.5,211.4,111.3,210.6z"/>
		<path class="st18" d="M260.3,128.7c-0.1,1.3,0.2,2.6,0.8,3.7c0.6,0.7,1.4,1.2,2.3,1.6c1.4,0.7,3.3,1.3,4.3,0
			c0.5-0.7,0.6-1.6,0.4-2.4c-0.5-2.8-1.2-5.5-2.3-8.2c-0.3-1.2-0.9-2.2-1.9-3C259,117.2,260.2,126.7,260.3,128.7z"/>
		<path class="st3" d="M240.3,48.5c0-0.1-0.1-0.1-0.1-0.2C240.2,48.4,240.2,48.5,240.3,48.5z"/>
		<path class="st3" d="M240.8,65.9c0.2,0.8,0.5,1.5,0.6,2.3v0.1c0.1-0.3,0.2-0.7,0.3-1l-0.4-0.6C241.2,66.4,241,66.2,240.8,65.9z"/>
		<path class="st3" d="M220.5,41.7L220.5,41.7L220.5,41.7L220.5,41.7z"/>
		<path class="st3" d="M220.5,41.8L220.5,41.8L220.5,41.8L220.5,41.8z"/>
		<path class="st3" d="M233.9,179c-1.1,3.2-2.3,6.4-3.4,9.6c-1,2.7-1.9,5.4-2.9,8l5.1,0.3l7.1,0.4c-1.7-7.2-3-14.5-4.5-21.8
			C234.7,176.7,234.3,177.9,233.9,179z"/>
		<path class="st19" d="M246.9,217.1c0.2-0.7,0.6-1.4,1.2-1.9c-0.8,0.2-1.6,0-2.3-0.3c0.4,0.5,0.7,1.1,1,1.7
			C246.8,216.8,246.9,216.9,246.9,217.1z"/>
		<path class="st4" d="M224.9,43.9l-0.1,0.1L224.9,43.9z"/>
		<path class="st4" d="M224.5,44.2L224.5,44.2C224.1,44.3,224.2,44.4,224.5,44.2z"/>
		<path class="st18" d="M226.6,65.3c1.1,1.8,2.3,3.6,3.4,5.4c2.7,4.3,5.4,8.7,8,13c0.7-5.2,1.8-10.4,3.4-15.4v-0.1
			c-0.2-0.8-0.4-1.5-0.6-2.3c-1.4-2.2-2.6-4.5-3.5-7c-0.5-1.3-0.9-2.7-1.3-4c-0.2-0.7-0.4-1.4-0.6-2.1c-0.2-0.8-0.3-1.6-0.3-2.4
			c-0.2-0.8-0.5-1.6-0.8-2.4c-0.3-0.8-0.6-1.5-0.9-2.3c-0.5-1-1-2-1.7-3l0.2,0.3c-0.3-0.4-0.6-0.8-0.8-1.2l-0.9,0.1
			c-0.9,0.1-1.8,0.4-2.6,0.7c-0.4,0.2-0.9,0.4-1.3,0.7c-0.3,0.2-0.5,0.3-0.8,0.5c-0.3,0.1-0.5,0.3-0.8,0.4c-0.1,0.1-0.2,0.2-0.3,0.3
			c-0.1,0.1-0.2,0.2-0.3,0.3l-0.1,0.1c-0.4,0.5-0.7,1-0.9,1.6c-0.1,0.1-0.1,0.3-0.2,0.4v-0.1c0.1-0.2,0.3-0.4,0,0v0.1
			c-0.1,0.3-0.2,0.5-0.3,0.8c-0.1,0.3-0.1,0.6-0.2,0.9c0,0,0,0.1,0,0.1l0,0c0,0.2,0,0.3-0.1,0.5c0,0.4,0,0.8,0,1.1
			c0,0.2,0,0.3,0,0.5s0,0.1,0,0.2c0,0.2,0.1,0.3,0.1,0.5c0,0.2,0.1,0.4,0.1,0.6s0.1,0.3,0.1,0.5c0,0.1,0,0.1,0,0.2
			c0.1,0.2,0.2,0.4,0.3,0.7c1.1,1.6,1,3.7,0.7,5.6c-0.1,0.5-0.2,1-0.4,1.5c0.3,1,0.7,2.1,1.1,3.1C225.2,63.9,226.1,64.5,226.6,65.3z
			"/>
		<path class="st18" d="M207.6,129.7c-0.2,0-0.3-0.1-0.4-0.2c-0.2,0.1-0.4,0.3-0.6,0.5c-0.6,0.7-1,1.5-1,2.4c0,0.6,0.2,1.1,0.3,1.7
			c0.2,0.7,0.4,1.4,0.6,2.2s0.4,1.4,0.6,2.1c0.2,0.8,0.6,1.6,1,2.4c0.4,0.7,1.2,1.1,2,1c0.8-0.1,1.5-0.7,1.7-1.4
			c0.1-0.5,0.2-1,0.2-1.5c0-0.4,0-0.7,0-1.1c-0.1-0.7-0.1-1.5-0.1-2.2c-0.1-0.9-0.1-1.9-0.3-2.8c-0.1-0.3-0.1-0.7-0.1-1
			c-0.2-0.9-0.8-1.7-1.6-2.2c-0.1-0.1-0.3-0.1-0.4-0.2C208.9,129.8,208.2,129.9,207.6,129.7z"/>
		<path class="st20" d="M243.6,120.9c1-0.2,2.1-0.4,3.1-0.6c1-0.3,1.9-1,2.5-1.9c0.5-1,0.7-2.1,0.4-3.2c-0.1-0.8-0.3-1.5-0.4-2.3
			c-0.6-5.8-0.6-11.6,0.1-17.4c0.1-0.9,0.2-1.8,0.3-2.7l0,0c1.3,2.6,2.5,5.2,3.8,7.8c0.5,0.8,1.3,1.5,2.2,1.8
			c0.6,2.2,1.1,4.3,1.7,6.5c0.5,1.8,1,3.5,1.5,5.3s0.9,3.6,1.5,5.3c0.3,1.2,1.5,1.9,2.7,1.8c1.2-0.1,2.1-1.2,2.1-2.4
			c-0.2-2-0.6-3.9-1-5.9c-0.2-0.9-0.4-1.7-0.5-2.6s-0.3-1.8-0.5-2.7c-0.7-3.5-1.5-7.1-2.2-10.6s-1.5-7.1-2.2-10.6
			c-0.7-3.3-1.3-6.5-2.1-9.8c-1-3.9-2.4-7.6-4.2-11.1c-0.5-0.9-1.4-1.5-2.4-1.8c-0.3-0.1-0.7-0.1-1.1-0.1c-0.8-0.5-1.7-0.8-2.7-0.8
			l0.5,0.8c0.2,0.3,0.4,0.6,0.6,0.9l0.2,0.2l0.1,0.1c0.4,0.4,0.7,0.9,1.1,1.4c0.3,0.4,0.5,0.9,0.6,1.4c0.2,0.8,0,1.7-0.6,2.3
			c-0.6,0.6-1.5,0.8-2.3,0.6c-1.9-0.3-3.1-1.9-4.2-3.4c-0.1,0.3-0.2,0.7-0.3,1c-1.6,5-2.8,10.2-3.4,15.4c-2.7-4.3-5.4-8.7-8-13
			c-1.1-1.8-2.3-3.6-3.4-5.4c-0.5-0.8-1.3-1.4-2.3-1.7c-1-0.3-2.1-0.2-2.9,0.4c-2.2,1.3-4.4,2.7-6.6,4c-0.5,0.3-1,0.6-1.4,1
			c-0.7,0.8-1.1,1.9-1.1,3c0,0.7-0.1,1.3-0.1,2c-0.1,1.2-0.2,2.4-0.3,3.7c-0.4,5-0.9,10-1.4,15c-0.3,2.8-0.7,5.6-1,8.4l0.1-0.9
			c-0.3,2.1-0.5,4.2-0.7,6.3c0,0.3-0.1,0.6-0.1,0.9l0.1-0.9c-0.2,1.5-0.4,3.1-0.6,4.6c-0.3,1.9-0.5,3.9-0.7,5.8
			c-0.1,0.9-0.2,1.8-0.3,2.8c0.1-0.6,0-0.4-0.1,0.4c0.1-0.4,0.1-0.4,0-0.1s-0.1,0.4-0.1,0.6c-0.1,0.5-0.1,0.9-0.2,1.4
			c-0.1,0.9-0.3,1.8-0.4,2.7c0,0.2-0.1,0.5-0.1,0.7l0,0c0,0.2-0.1,0.4-0.1,0.6c-0.1,0.5-0.1,1-0.2,1.5c-0.1,0.6-0.1,1.1,0.2,1.6
			c0.2,0.3,0.5,0.6,0.8,0.8c0.1,0.1,0.3,0.1,0.4,0.2c0.6,0.1,1.3,0,1.8-0.3c0.4-0.3,0.7-0.7,0.8-1.2c1-3.6,1.9-7.2,2.8-10.8
			c0.4-1.8,0.9-3.6,1.3-5.4s0.7-3.6,1.1-5.4s0.8-3.6,1-5.4s0.6-3.7,0.8-5.6c0.2-1.2,0.3-2.4,0.5-3.6c0.6,1,1.2,2.1,1.6,3.1
			c0,0,0,0.1,0.1,0.2c0.8,2,1.4,4.2,1.7,6.4c0.3,2.2,0.3,4.5,0,6.7c-0.3,2-0.9,4-1.6,5.9c-0.2,0.5-0.5,1-0.7,1.5
			c-0.7,1.3-0.7,2.9,0,4.2c0.6,1.1,1.7,1.8,2.9,1.9c0.6-0.3,1.2-0.4,1.8-0.4C230.2,121.4,236.9,121.1,243.6,120.9z"/>
		<path class="st21" d="M217.8,199.4c-0.1,1.1-0.3,2.1-0.4,3.2l-0.1,1.1c0,0.6,0,1.3,0.2,1.9l0.2,0.2c0.6-0.2,1.2-0.2,1.8,0
			c1.3,0.5,2.4,1.5,3.1,2.8c0.1-0.1,0.1-0.1,0.2-0.2c0.4-0.4,0.7-0.9,1-1.4c0.3-0.6,0.5-1.1,0.7-1.7c0.3-0.8,0.6-1.6,0.9-2.4
			l1.7-4.8c0.2-0.5,0.4-1,0.6-1.6c1-2.7,1.9-5.4,2.9-8c1.1-3.2,2.3-6.4,3.4-9.6c0.4-1.2,0.9-2.3,1.4-3.4c1.5,7.3,2.8,14.5,4.5,21.8
			c0.1,0.5,0.3,1.1,0.4,1.6c1.1,4.7,2.5,9.4,4.1,14c0.1,0.4,0.4,0.9,0.7,1.2c0.3,0.2,0.6,0.4,0.9,0.7l0,0c0.7,0.4,1.5,0.5,2.3,0.3
			l0.3-0.2c0.3-0.2,0.6-0.3,0.9-0.4c1.1-0.8,1.5-2.2,1.2-3.4c-1.1-4.4-2.1-8.9-3-13.4c-0.7-3.7-1.4-7.5-2-11.2
			c-0.3-2.1-0.6-4.3-0.9-6.4c-0.1-1.1-0.3-2.3-0.4-3.4c0-0.4,0-0.7-0.1-1.1c-0.1-1.4-0.3-2.8-0.4-4.2c-0.1-1.9-0.3-3.8-0.4-5.7
			c-0.3-4.8-0.3-9.6-0.1-14.4c0.1-2.7,0.4-5.3,0.7-7.9c0.1-0.3,0.1-0.6,0.1-0.9l-0.1,1c0.5-3,1.1-6,1.9-8.9c0.8-3,1.7-5.9,2.8-8.7
			c0.4-1.2,0.1-2.5-0.7-3.5c-0.7-1-1.9-1.6-3.1-1.6h-1.3c-6.7,0.2-13.3,0.4-20,0.7c-0.6,0-1.2,0.2-1.8,0.4l-0.3,0.2
			c-0.3-0.1-0.7-0.2-1-0.2c-1.5,0-2.7,1.2-2.7,2.7c0,1,0,1.9,0.2,2.9c0.1,1.3,0.5,2.7,0.9,3.9c0.4,1.2,0.9,2.4,1.4,3.5
			c0.6,1.3,1.3,2.6,2.1,3.8c0.7,1.2,1.4,2.4,2,3.6c1.2,2.3,2.3,4.6,3.4,7c0.8,2,1.6,4.1,2.3,6.2c-1.1,4.7-2.8,9.2-4.3,13.8
			c-2.1,6.3-4,12.7-5.6,19.1c-0.6,2.5-1.3,5.1-1.8,7.7c-0.2,1.1-0.4,2.3-0.6,3.4L217.8,199.4z"/>
		<path class="st4" d="M221.2,214.8l-0.1-0.1C221.1,214.8,221.1,214.8,221.2,214.8z"/>
		<path class="st18" d="M219.4,205.8c-0.6-0.2-1.2-0.2-1.8,0c0.2,0.2,0.3,0.5,0.4,0.8c0.1,0.5,0.2,1,0.3,1.5v-0.2c0,0.1,0,0.2,0,0.3
			s0.1,0.4,0.1,0.6c0.1,0.6,0.3,1.3,0.5,1.9c0.1,0.3,0.2,0.6,0.3,0.9l0.1,0.4c0.1,0.1,0.1,0.3,0.1,0.4c0.3,0.5,0.5,1.1,0.9,1.6
			c0.2,0.3,0.4,0.6,0.5,0.8c-0.1-0.3-0.1-0.2,0.1,0l0.2,0.1c0.2,0.1,0.3,0.2,0.5,0.3c0.1,0.1,0.3,0.2,0.4,0.3H222
			c0.4,0.3,0.3,0.2,0.1,0l1.1,0.9c0.1,0.1,0.7,0.6,0,0l0.8,0.6h0.1l0.1,0.1c0-0.1,0.1-0.2,0.1-0.3c0.4-0.7,0.4-1.5,0.3-2.3
			c0-0.1,0-0.2,0-0.2c-0.1-0.3,0-0.2,0.1,0.2V214c0-0.3-0.1-0.6-0.1-0.9c-0.1-0.7-0.3-1.4-0.6-2.1c-0.3-0.9-0.7-1.8-1.2-2.6
			C221.9,207.3,220.8,206.3,219.4,205.8z"/>
		<path class="st4" d="M251.8,221.4L251.8,221.4z"/>
		<path class="st4" d="M251.7,221.4L251.7,221.4z"/>
		<path class="st18" d="M248.1,215.2c-0.6,0.5-1,1.1-1.2,1.9c0.1,0.3,0,0.6-0.1,0.9c0,0.5,0.2,1,0.4,1.5c0.2,0.3,0.3,0.6,0.5,0.8
			c0.1-0.1,0.2-0.2,0.3-0.3c0.6-0.5,1.5-0.4,2,0.1c0.2,0.3,0.5,0.5,0.8,0.7l0.1,0.1l0.2,0.1c0.2,0.1,0.3,0.2,0.5,0.3l0.2,0.1h0.1
			l0.3,0.1h0.1h0.3h0.5c0.4,0,0.8,0,1.1,0h0.5h0.1c0.1-0.3,0-0.6-0.1-0.9c0,0,0-0.1,0-0.1c0-0.2,0-0.4-0.1-0.6
			c0-0.1-0.1-0.3-0.1-0.4c-0.1-0.3-0.2-0.6-0.3-0.9c-0.3-0.8-0.7-1.6-1.2-2.4c-0.7-1.2-2.2-1.8-3.5-1.5c-0.3,0.1-0.6,0.2-0.9,0.4
			L248.1,215.2z"/>
		<path class="st7" d="M223.9,216.9l-0.8-0.6c0.7,0.5,0.1,0.1,0,0l-1.1-0.9c-0.1-0.1-0.3-0.2-0.4-0.3c-0.1-0.1-0.3-0.2-0.5-0.3
			l-0.2-0.1c-0.1-0.1-0.2-0.2-0.1,0c-0.1-0.3-0.4-0.6-0.5-0.8c-0.3-0.5-0.6-1-0.9-1.6c0-0.1-0.1-0.3-0.1-0.4l-0.1-0.4
			c-0.1-0.3-0.2-0.6-0.3-0.9c-0.2-0.6-0.4-1.3-0.5-1.9c0-0.2-0.1-0.4-0.1-0.6s0-0.2,0-0.3v0.2c-0.1-0.5-0.1-1-0.3-1.5
			c-0.1-0.3-0.3-0.5-0.4-0.8l-0.2-0.2c-0.3-0.3-0.7-0.4-1.1-0.4c-0.8,0-1.6,0.6-1.8,1.4c-0.1,0.5-0.1,0.9-0.1,1.4
			c-0.4,0.3-0.6,0.7-0.6,1.2c-0.1,0.9,0,1.9,0,2.8v2.8c0,0.9,0.8,1.5,1.6,1.5c0.6,0,1.2-0.4,1.4-1c0.1,0.2,0.2,0.3,0.3,0.5
			c0.2,0.3,0.4,0.6,0.6,0.9c0.1,0.1,0.1,0.2,0.1,0.3l0.1,0.2c0.3,1,0.9,1.8,1.6,2.6c0.5,0.5,1,1,1.5,1.5c0.5,0.5,1.2,0.9,1.9,1.1
			c0.7,0.2,1.3,0.2,2,0c1.1-0.3,1.8-1.5,1.5-2.7c-0.2-0.6-0.5-1.2-0.9-1.7c-0.4-0.4-0.8-0.7-1.2-0.9l-0.3-0.2L223.9,216.9
			L223.9,216.9z M221.2,214.8c-0.1,0-0.1-0.1-0.1-0.1L221.2,214.8z"/>
		<path class="st7" d="M222,215.4L222,215.4C222.3,215.6,222.4,215.7,222,215.4z"/>
		<path class="st7" d="M246.9,217.1c0-0.2-0.1-0.3-0.2-0.5c-0.3-0.6-0.6-1.2-1-1.7l0,0c-0.2-0.3-0.5-0.6-0.9-0.7
			c-0.4-0.2-0.9-0.2-1.4,0c-0.8,0.3-1.2,1.2-1,2.1c0.3,1,0.6,1.4,0.9,2.4c0.3,0.9,1.2,1.4,2.1,1.2c0.7-0.2,1.3-0.9,1.2-1.7
			c0,0,0.1-0.1,0.1-0.1C247,217.7,247,217.4,246.9,217.1z"/>
		<path class="st7" d="M251.8,221.4L251.8,221.4L251.8,221.4z"/>
		<path class="st7" d="M254.1,221.6c-0.4,0-0.8,0-1.1,0h-0.5h-0.3H252l-0.3-0.1l0,0l0,0l0,0l-0.2-0.1c-0.2-0.1-0.3-0.2-0.5-0.3
			l-0.2-0.1l-0.1-0.1c-0.3-0.2-0.5-0.5-0.8-0.7c-0.5-0.6-1.4-0.6-2-0.1c-0.1,0.1-0.2,0.2-0.3,0.3c-0.4,0.5-0.4,1.1-0.1,1.6
			c0.5,0.8,1.1,1.4,1.8,2c0.4,0.3,0.8,0.6,1.3,0.8c0.4,0.2,0.6,0.4,1,0.6c2.1,0.8,4.4,0.6,6.3-0.4c0.7-0.4,1.1-1.1,1.1-1.9V223
			c0-0.7-0.4-1.4-1-1.8c-0.6-0.4-1.4-0.4-2-0.1l-0.4,0.2h-0.1h-0.1l-0.2,0.1l-0.6,0.1l0,0h-0.1L254.1,221.6z"/>
		<path class="st22" d="M220.6,41.7c0.1-0.1,0.1-0.2-0.1,0.2l0,0L220.6,41.7z"/>
		<path class="st22" d="M222.9,46.8C223.1,46.3,222.9,46.6,222.9,46.8z"/>
		<path class="st22" d="M222.9,53.4c-0.1-0.2-0.2-0.4-0.3-0.7c0-0.1,0-0.1,0-0.2c0-0.2-0.1-0.3-0.1-0.5s-0.1-0.4-0.1-0.6
			c0-0.2,0-0.3-0.1-0.5c0-0.1,0-0.1,0-0.2s0-0.3,0-0.5c0-0.4,0-0.8,0-1.1c0-0.2,0-0.3,0.1-0.5l0,0c0,0,0-0.1,0-0.2
			c0.1-0.3,0.1-0.6,0.2-0.9c0.1-0.3,0.2-0.6,0.3-0.8v-0.1v0.1c0.1-0.1,0.1-0.3,0.2-0.4c0.3-0.5,0.6-1.1,0.9-1.5l0.1-0.1
			c0.1-0.1,0.2-0.2,0.3-0.3c0.1-0.1,0.2-0.2,0.3-0.3c0.3-0.1,0.6-0.2,0.8-0.4c0.3-0.2,0.5-0.3,0.8-0.5c0.4-0.2,0.9-0.5,1.3-0.7
			c0.9-0.3,1.7-0.6,2.6-0.7l0.9-0.1c0.3,0.4,0.5,0.8,0.8,1.2l-0.2-0.3c0.6,1,1.2,2,1.7,3c0.3,0.8,0.6,1.5,0.9,2.3
			c0.3,0.8,0.6,1.6,0.8,2.4c0,0.8,0.2,1.6,0.3,2.4c0.2,0.7,0.4,1.4,0.6,2.1c0.4,1.3,0.8,2.7,1.3,4c0.9,2.5,2.1,4.8,3.5,7
			c0.2,0.3,0.4,0.5,0.6,0.8l0.4,0.6c1.1,1.5,2.4,3.1,4.2,3.4c0.8,0.2,1.7,0,2.3-0.6c0.6-0.6,0.8-1.5,0.6-2.3c-0.1-0.5-0.3-1-0.6-1.4
			c-0.3-0.5-0.7-1-1.1-1.4l-0.1-0.1l-0.2-0.2c-0.2-0.3-0.4-0.6-0.6-0.9l-0.5-0.8c-0.5-0.9-1-1.8-1.4-2.8c-1.1-2.7-2-5.5-2.8-8.3
			c-0.3-1-0.6-1.9-1.1-2.7c-0.1-0.2-0.2-0.4-0.3-0.6c0.1,0.3,0-0.1-0.1-0.3c-0.1-0.2-0.1-0.4-0.2-0.7c-0.4-1.5-0.9-2.9-1.5-4.3
			c-0.6-1.9-1.3-3.7-2.2-5.4c-0.8-1.3-2.4-1.9-3.9-1.5c-0.4-0.2-0.8-0.4-1.2-0.4c-0.5-0.1-1-0.1-1.5,0c-0.9,0.1-1.8,0.3-2.7,0.5
			c-1.7,0.6-3.3,1.5-4.6,2.8c-0.4,0.3-0.7,0.7-0.9,1.2c0,0.1-0.1,0.2-0.1,0.3l-0.2,0.3c-0.2,0.2-0.4,0.5-0.6,0.7l0,0v0.1v0.1
			l-0.1,0.1v0c-0.3,0.4-0.6,0.7-0.8,1.1c-0.9,1.3-1.5,2.8-1.8,4.3c-0.2,1.1-0.3,2.2-0.3,3.3c0,0.9-0.1,1.7-0.2,2.6v0.1
			c-0.1,0.2-0.1,0.3-0.2,0.5c-0.2,0.3-0.4,0.7-0.5,1.1c-0.1,0.6-0.2,1.2-0.2,1.8c-0.1,0.5-0.1,1-0.1,1.5s-0.2,1-0.3,1.5l0.1-0.5
			c-0.1,0.5-0.2,1.1-0.2,1.6V61l-0.2,0.4l-0.2,0.3c0,0,0,0.1-0.1,0.1c-0.4,0.4-0.7,0.9-1.1,1.3c-0.2,0.2-0.4,0.4-0.7,0.6l-0.1,0.1
			c-0.1,0.1-0.3,0.1-0.4,0.2c-0.3,0.2-0.6,0.3-0.9,0.4l0,0h-0.1l-0.5,0.2c-0.9,0.2-1.4,1.2-1.2,2.1s1.2,1.4,2.1,1.2l0,0
			c1.4-0.3,2.8-0.7,4.1-1.3c0.8-0.3,1.5-0.7,2.2-1.1c0.7-0.5,1.3-1.1,2-1.7c0.2-0.2,0.4-0.3,0.6-0.5l-0.3,0.2
			c0.5-0.4,0.9-0.8,1.3-1.3c0.3-0.4,0.5-0.9,0.7-1.4c0-0.1,0.1-0.2,0.1-0.2c0.2-0.5,0.3-1,0.4-1.5C223.9,57.1,224,55,222.9,53.4z
			 M224.4,44.2L224.4,44.2C224.2,44.4,224.1,44.3,224.4,44.2z M224.8,44l0.1-0.1L224.8,44z M240.3,48.5c0-0.1-0.1-0.1-0.1-0.2
			C240.2,48.4,240.2,48.5,240.3,48.5z"/>
		<path class="st23" d="M204.7,133.5v0.2c0.1,1.3,0.4,2.6,1.1,3.8c0.2,0.4,0.3,0.8,0.4,1.3c0.3,1.1,0.9,2,1.7,2.8
			c0.8,0.7,1.9,0.9,2.9,0.5c0.2-0.1,0.3-0.2,0.3-0.4c0-1-0.3-1.9-0.8-2.8c-0.2-0.5-0.4-1-0.6-1.5l0.2,0.1c0.2,0.1,0.4,0.3,0.6,0.4
			c0.1,0.1,0.2,0.1,0.4,0.1c0.1,0,0.3-0.1,0.3-0.2c1.1-1.4,0.7-7.8-0.9-9.1c-0.8-0.7-2-0.5-3.2-0.4c-0.5,0.1-1.1,0.1-1.6,0.1
			c-0.2-3.5,0-6.9,0.4-10.3c0.5-3,1.1-6,1.7-9c1.9-9.3,3.8-19,3-28.3c-0.1-0.9-0.3-2-0.5-3.1c-0.6-3.1-1.3-6.9,0.1-9.1
			c1.2-1.8,3.2-2.3,5.4-2.7c1.5-0.2,3-0.7,4.4-1.5c2.4-1.5,3.3-4.1,2.7-7.9c0.6,1.7,1.7,3.3,3,4.5c-0.1,0-0.2,0-0.3,0.1
			c-0.5,0.4-0.9,0.9-1.3,1.4c-0.4,0.7-1.1,1.2-1.8,1.4c-0.2,0.1-0.3,0.3-0.2,0.6c0.6,1.5,0,3.8-0.6,5.8c-0.3,0.8-0.5,1.7-0.6,2.6
			c0,0.2,0.1,0.4,0.2,0.5c1.1,0.7,2.6,0,3.8-0.7l0.5-0.2c-0.5,0.7-1,1.3-1.5,1.9c-0.6,0.6-1.1,1.3-1.6,2c-0.1,0.1-0.1,0.2-0.1,0.3
			c0,0.1,0.1,0.2,0.2,0.3c2.2,1.2,4.4,2.3,6.7,3.3c2.5,1,4.9,2.2,7.3,3.6c2.7,1.7,2.6,3,2.3,6.2c0,0.3-0.1,0.7-0.1,1.1
			c-0.2,1.8-0.4,3.6-0.5,5.3c-0.7,4.9-0.9,9.8-0.7,14.7c0.1,1.5,0.2,3.1,0.4,4.6c0.1,1.2,0.2,2.4,0.3,3.7c-4.5,0.2-9.1,0-13.5-0.6
			L223,119c-2.4-0.2-6.8-0.5-7.5-2.5c-0.3-1,0.4-2.3,1-3.4c0.2-0.4,0.4-0.7,0.5-1.1c2.6-5.6,3.2-12,1.8-18c-0.1-0.4-0.4-1.2-0.8-2.4
			c-0.3-0.7-0.6-1.6-0.9-2.6c0-3.8-0.4-7.6-1.3-11.3c-0.1-0.2-0.3-0.4-0.5-0.3c-0.5,0-0.9,0.3-1.1,0.7c-1.1,1.7,0.3,6.3,1.9,11.2
			c0,5.7-0.4,11.4-1.1,17c-0.3,3.5-1.3,7-2.8,10.2c-0.2,0.5-0.5,1-0.8,1.6c-1.3,2.4-2.7,5.1-1.7,7.6c0.1,0.1,0.2,0.3,0.4,0.3
			c0.2,0,0.3,0,0.4-0.2c0.8-1.2,1.3-2.5,1.4-3.8c0.4,0.2,0.7,0.4,1.1,0.6c-0.6,7.9,3.6,15.3,8.2,22.3c1.8,2.7,3.4,5.5,4.7,8.5
			c0.9,2.1,0.4,4.4-0.1,6.6c-0.1,0.3-0.1,0.6-0.2,0.8c-1,4.1-2.2,8.2-3.9,12.1c-1.3,3.2-2.4,6.6-3.4,9.9c-0.5,2.2-0.8,4.4-0.8,6.6
			c-0.1,1.4-0.2,2.8-0.4,4.2c-0.2,1.2-0.6,2.4-1,3.5c-0.6,1.4-0.9,2.8-1.1,4.3c-0.2,2.7,1.4,3.3,3.1,4c0.7,0.3,1.3,0.6,1.9,0.9
			c1.1,0.7,2.1,1.7,2.8,2.8c-1.2,0.3-2.7-1-4.2-2.2s-2.8-2.3-3.9-2c-0.5,0.1-1,0.5-1.2,1.1c-0.6,1.2-0.2,3.1,0.1,5
			c0.3,1.1,0.4,2.3,0.4,3.4c-0.1,0.7-0.2,1.3-0.4,1.9c-0.5,1.5-0.6,3.2-0.2,4.8c0,0.1,0.1,0.2,0.2,0.3c0.1,0,0.2,0,0.4,0
			c1.8-0.7,2.1-2.8,2.5-4.8c0.1-0.9,0.3-1.8,0.6-2.7c0.3,1,0.3,2.1,0.1,3.1c-0.2,1.5-0.3,3.1,0.6,4.3c0.8,1.1,2.8,1.6,4.3,1.7
			c1.3,0.2,2.6-0.2,3.6-1c0.7-0.6,1.1-1.5,1-2.5c-0.3-1.5-2.2-2.5-3.9-3.4l-0.8-0.4c0.8,0,1.6-0.3,2.3-0.7c0.1-0.1,0.2-0.2,0.2-0.3
			c0.4-1.8,0.1-3.8-0.7-5.4c0.5-0.6,0.6-1.9,0.7-3.6c0-0.4,0.1-0.9,0.1-1.3c0.6-2.5,1.4-4.9,2.3-7.3c0.5-1.4,1-2.8,1.5-4.3
			c0.2-0.8,0.5-1.5,0.7-2.3c1.5-4.1,2.5-8.2,3.2-12.5c0.9,3.3,1.7,6.7,2.3,10.1c1,5.6,2.6,11.2,4.9,16.4c0.5,1.4,0.9,2.9,1.2,4.4
			c0.3,1.8,0.8,3.6,1.6,5.3c-0.2,1.4-0.2,2.8,0.2,4.1c0.5,1.6,1.4,2.6,2.5,2.6c0.1,0,0.2,0,0.3-0.1c0.1-0.1,0.1-0.2,0.1-0.3
			c0-0.3,0.1-0.5,0.2-0.8l0.1-0.2c0.5,0.8,0.8,1.6,1,2.5c0.5,1.7,1,3.4,3.3,3.9c3.3,0.7,6.4-0.4,7.3-2.4c0.3-0.7,0.7-2.6-2.1-4.6
			c-0.3-2.4-1.5-5-2.8-5.9l-0.6-1.7c-0.1-0.2-0.2-0.3-0.4-0.3c-0.2,0-0.4,0.2-0.4,0.4c0,0.2-0.1,0.5-0.3,0.7c-0.1-0.9,0-1.8,0-2.8
			c0-0.4,0-0.9,0-1.4l0,0l-0.2-2.9c0,0,0,0,0-0.1c-0.9-3.8-2.1-7.4-3.3-11.4c-1.6-4.8-2.4-9.9-2.4-15c0-0.9,0.1-1.9,0.1-2.9
			c0.3-2.7,0.2-5.4-0.4-8.1c-1-3.4-4-16.9-6-26.8c0.3,0.9,0.5,1.8,0.7,2.6c2.4,8.4,2.4,8.4,2.5,8.5c0.1,0.1,0.2,0.2,0.4,0.2
			c0.2,0,0.3-0.1,0.4-0.3c0.4-1.1,0.8-2.2,1.1-3.3c0.3-1.2,0.8-2.4,1.3-3.6c2.3-4.6,4.6-10.1,4.9-16c0-1,0-1.9,0-2.9
			c0-1.5,0-3,0.2-4.4c0-0.1,0-0.3-0.1-0.4c-0.1-0.1-0.3-0.1-0.4-0.1c-0.9,0.2-1.8,0.5-2.7,0.8c-2.7,0.8-5.5,1.7-8.2,1.4
			c0-1-0.1-2-0.1-2.9c5.1-0.4,9.1-1.6,12.2-3.6c0.1-0.1,0.2-0.3,0.2-0.4c-0.3-1.9-0.6-3.8-0.9-5.6c-0.6-3.1-1-6.2-1.3-9.3
			c-0.3-5,0.9-8.9,2.6-13.6c0.9-2.4,1.6-5,2-7.6c0.1,0.4,0.2,0.8,0.3,1.2c1.1,4.6,2.4,9.3,3.7,13.8c1.3,4.8,2.7,9.7,3.9,14.6
			c0.9,3.4,2,6.8,3.2,10.1c0.1,0.3,0.2,0.5,0.3,0.8c-2.3,0.4-3.7-0.3-4.7-1.6c-0.1-10.7-3.1-18.3-9.2-24c-0.1-0.1-0.2-0.1-0.4-0.1
			c-0.1,0-0.3,0.1-0.3,0.2c-1.2,2.3,1.6,7.4,3.8,11.5c0.8,1.4,1.5,2.7,1.9,3.6c0.5,1.2,0.9,2.5,1.2,3.8c0.4,1.9,1.1,3.7,2.1,5.3
			c0,0.7,0,1.4,0,2.2c0,0.5,0,1.1-0.1,1.8c-0.2,3.8-0.6,9.5,1.9,11.4c0.1,0.1,0.3,0.1,0.4,0.1c0.1,0,0.3-0.1,0.3-0.3
			c0.2-0.7,0.4-1.3,0.5-2c0.1-1.2,0.5-2.3,1.1-3.4c0.5,0.8,0.3,1.9,0,3c-0.3,1.5-0.7,3.2,1.1,3.8c0.9,0.4,2,0.2,2.8-0.5
			c1.7-1.6,1.6-5.4,1.2-7c-0.7-2.7-1.6-5.3-2.5-7.9c0.6-3.7-0.5-8.3-1.4-12.4c-0.4-1.8-0.8-3.4-1-4.9c-0.1-0.7-0.2-1.4-0.3-2.1
			c-0.3-3.1-1-6.2-1.9-9.1c-2.3-6.8-4.1-13.8-5.3-20.9c-0.7-3.6-1.6-5.5-3.3-6.8c0-0.1,0-0.2,0.1-0.4l-0.5-0.1
			c-0.1,0-0.2-0.1-0.2-0.2v0.1c-1.6-0.8-3.3-1.5-5-2c-0.2-0.1-0.5,0-0.6,0.3c-0.1,0.2,0,0.4,0.1,0.5c2.9,2.5,5,5.7,6,9.4
			c0.1,1.7,0.3,3.3,0.6,4.8c-0.1,3.7-0.9,7.3-2.2,10.7c-1.7,4.8-3,8.8-2.7,13.9c0.3,3.1,0.7,6.2,1.3,9.3c0.3,1.7,0.6,3.5,0.9,5.3
			c-2.9,1.8-6.7,2.9-11.5,3.3c-0.1-1.2-0.2-2.5-0.3-3.7c-0.1-1.5-0.3-3-0.4-4.5c-0.2-4.9,0.1-9.7,0.7-14.5c0.2-1.7,0.4-3.5,0.5-5.3
			c0-0.4,0.1-0.8,0.1-1.1c0.3-3.2,0.5-5-2.7-7c-2.4-1.4-4.8-2.7-7.4-3.7c-2.1-0.9-4.2-1.9-6.2-3c0.4-0.5,0.8-1,1.3-1.5
			c0.8-0.9,1.6-2,2.1-3.1c0.1-0.1,0.1-0.3-0.1-0.5c-0.1-0.1-0.3-0.2-0.4-0.2c-0.6,0.2-1.2,0.4-1.8,0.7c-0.8,0.5-1.8,0.8-2.7,0.8
			c0.1-0.7,0.3-1.4,0.5-2.1c0.6-2,1.2-4.3,0.7-6c0.7-0.3,1.4-0.9,1.8-1.6c0.2-0.4,0.5-0.7,0.8-1c0.8,1.2,1.5,2.5,2,4
			c0.4,1.1,0.9,2.1,1.5,3.1c4,6.8,7.5,11.6,10.3,14.1c0.1,0.1,0.4,0.1,0.5,0.1c0.2-0.1,0.3-0.3,0.2-0.5c-0.9-3.7-0.3-8,0.3-12.2
			c0.2-1.7,0.4-3.4,0.6-5c2.2,2.6,5,4.7,8,4.9c0.2,0,0.4-0.1,0.4-0.3c0.1-0.2,0-0.4-0.1-0.5c-1.5-1.5-2.3-3.9-3.2-6.1
			c-0.3-0.8-0.6-1.6-0.9-2.3s-0.6-1.4-0.9-2.1c-1.5-3.3-2.8-6.6-3.9-10c-0.4-1.2-0.7-2.5-0.9-3.8c-0.4-2.2-1-4.3-1.9-6.3
			c-0.9-2-2-3.9-3.8-4.6c-0.7-0.3-1.5-0.3-2.3-0.1c-0.4,0.1-0.7,0.1-1.1,0.1c-0.5-0.1-1-0.2-1.4-0.3c-1.1-0.4-2.4-0.4-3.5,0
			c-3.7,1.2-5.9,5.1-7.6,8.7c-1,2.2-1.4,5.1-1.8,8.2c-0.7,5.3-1.4,10.8-5.5,12.7c-0.2,0.1-0.3,0.3-0.2,0.5c0,0.2,0.2,0.3,0.4,0.3
			c5.7,0,9.6-2.4,11.2-6.4c0.1,2.6-0.7,4.4-2.4,5.5c-1.3,0.7-2.6,1.1-4.1,1.4c-2.2,0.5-4.5,0.9-5.9,3.1c-1.6,2.5-0.9,6.5-0.3,9.7
			c0.2,1.1,0.4,2.2,0.5,3c0.8,9.2-1.1,18.8-2.9,28c-0.6,3-1.2,6.1-1.7,9c-0.3,3-0.5,6-0.4,9c0,1.9,0,3.9,0.1,5.8 M248.5,63.4
			c1.2,0.4,2.3,0.9,3.4,1.5c0,1,0.1,1.9,0.3,2.9c0.1,0.4,0.1,0.7,0.1,1c-1-2-2.3-3.7-3.8-5.3L248.5,63.4z M207.3,129.1
			c1.1-0.1,2.1-0.2,2.6,0.2c1,0.8,1.5,5.7,0.9,7.5l-0.3-0.2c-0.3-0.2-0.6-0.4-0.8-0.7c-0.1-0.2-0.4-0.3-0.6-0.2
			c-0.1,0.1-0.2,0.2-0.2,0.4c0,1.1,0.2,2.1,0.8,3c0.4,0.6,0.6,1.3,0.7,2.1c-0.6,0.2-1.3,0-1.8-0.5c-1.9-1.6-2.7-6.6-2.9-11.5
			c0.5,0,1.1,0.1,1.6,0.1L207.3,129.1z M239.4,70.4c-0.5,3.8-1,7.7-0.5,11.2c-2.5-2.6-5.6-6.9-9.1-12.9c-0.5-1-1-2-1.4-3
			c-0.5-1.6-1.3-3-2.3-4.4c1.1,0.7,2.4,1,3.6,0.7c3.1-0.7,5.1-4.6,6-8c0.1,0.3,0.1,0.6,0.2,0.9c0.3,1.5,0.7,3,1.2,4.4
			c0.7,1.9,1.7,3.7,2.9,5.3c-0.1,2-0.4,4-0.6,6L239.4,70.4z M231.4,41.9c0.4,0.4,0.9,0.9,1.2,1.3c1.6,2.2,2.7,3.9,2.8,6.5
			c-0.2-0.5-0.4-0.9-0.6-1.4c-0.6-1.1-1.4-2.2-2.2-3.2c-1.3-1.7-2.6-3.4-2.9-5.2c0.5,0.7,1,1.4,1.7,2L231.4,41.9z M229.9,37.9
			c1.8,2.1,3.5,4.3,4.8,6.8c-0.4-0.6-0.9-1.3-1.4-2c-0.4-0.5-0.8-1-1.3-1.4c-1.1-0.9-2.1-1.9-2.2-3.2L229.9,37.9z M240.1,63
			c-0.9-1.3-1.6-2.6-2.1-4.1c-0.5-1.4-0.8-2.8-1.1-4.3c-0.2-0.9-0.4-1.8-0.6-2.7c0-0.2,0.1-0.5,0.1-0.7c0.2-1.7,0-3.5-0.7-5.1
			c2.3,4.3,3.7,9,4.4,13.9c0.1,1,0.2,2.1,0.2,3.1V63z M222.1,55.3c-0.2,0-0.4,0.2-0.4,0.4c-0.8,4.5-4.1,7.3-9.3,7.8
			c3.2-2.6,3.9-7.6,4.5-12.4c0.4-3,0.8-5.9,1.7-7.9c1.6-3.4,3.6-7.1,7-8.3c1-0.3,2-0.3,3,0c0.5,0.2,1,0.3,1.6,0.3
			c0.5,0,0.9,0,1.4-0.1c0.6-0.2,1.2-0.2,1.8,0c1.5,0.6,2.5,2.4,3.4,4.1c0.8,2,1.5,4.1,1.9,6.2c0.3,1.3,0.6,2.6,0.9,3.8
			c1.1,3.4,2.4,6.8,3.9,10.1l0.9,2.1c0.3,0.7,0.6,1.4,0.9,2.2c0.6,1.9,1.5,3.8,2.6,5.5c-2.5-0.6-5-2.7-6.8-5.1
			c0.1-1.4,0-2.9-0.1-4.3c-1.2-8.7-5-16.8-10.9-23.3c-0.1-0.1-0.3-0.2-0.4-0.1c-0.2,0-0.3,0.1-0.3,0.3c-0.2,0.8-0.2,1.6,0.1,2.3
			c-0.1,0-0.2,0-0.3,0.1c-0.6,0.4-1.1,0.8-1.7,1.2c-3.3,2.2-6.3,4.3-6.2,9.2c0.1,2,0.5,4,1.1,5.9c0,0-0.1,0.1-0.1,0.1L222.1,55.3z
			 M222,49.5c-0.1-4.4,2.6-6.3,5.8-8.4c0.4-0.3,0.8-0.5,1.1-0.8c0.6,2,1.7,3.8,3.1,5.4c0.8,1,1.5,2,2.1,3.1c0.5,1,0.9,2.1,1.2,3.3
			c-0.6,3.6-2.6,8.4-5.7,9.1c-1.1,0.3-2.3,0-3.2-0.7c-2.9-2.1-4.3-8.1-4.3-10.8L222,49.5z M215,78.5l0.1-0.1c0.5,2.5,0.9,5.1,1,7.7
			C215.1,83,214.3,79.7,215,78.5L215,78.5z M224.1,214.4c-1,0.5-2.1,0.6-3.1,0.3c-0.2,0-0.5,0.1-0.5,0.3c0,0.1,0,0.3,0.1,0.4
			c0.7,0.6,1.5,1.1,2.3,1.4c1.4,0.7,3.3,1.6,3.4,2.7c0,0.7-0.3,1.3-0.8,1.7c-0.8,0.6-1.9,0.9-2.9,0.8c-1.3,0-2.6-0.5-3.6-1.4
			c-0.8-1-0.6-2.3-0.5-3.7s0.3-3.1-0.6-4.4c-0.1-0.1-0.2-0.2-0.4-0.2l0,0c-0.1,0-0.3,0.1-0.4,0.2c-0.7,1.1-1.1,2.4-1.2,3.7
			c-0.3,1.6-0.5,3.2-1.5,3.9c-0.1-1.3,0-2.6,0.4-3.8c0.1-0.7,0.3-1.4,0.4-2c0-1.3-0.1-2.5-0.4-3.7c-0.3-1.7-0.7-3.6-0.2-4.4
			c0.3-0.5,0.5-0.6,0.6-0.6c0.7-0.2,1.9,0.9,3.1,1.8c1.7,1.4,3.5,2.9,5.1,2.3C224.1,211.3,224.3,212.9,224.1,214.4L224.1,214.4z
			 M246.1,218.2c-0.2-0.2-0.5-0.1-0.6,0c-0.1,0.1-0.1,0.2-0.1,0.3c0,0.3,0,0.6-0.1,0.9c0,0.2-0.1,0.3-0.1,0.5
			c-0.6-0.5-1.1-1.1-1.3-1.9c-0.3-1-0.4-2.1-0.3-3.2l1.2-0.1h0.1l0.6,1.3c0.4,0.8,0.8,1.7,1.2,2.6
			C246.5,218.6,246.3,218.4,246.1,218.2L246.1,218.2z M243.7,214c0.1-0.3,0.2-0.5,0.4-0.8c0.1,0.2,0.3,0.5,0.4,0.7L243.7,214z
			 M255.7,220c1.2,1,1.6,2.1,1.2,3.1c-0.6,1.5-3.1,2.6-6.3,1.9c-1.8-0.4-2.2-1.7-2.6-3.3c-0.1-0.4-0.2-0.8-0.4-1.2
			c0.9,1.6,2.1,2.9,3.5,3.2c1.2,0.2,2.5-0.1,3.5-1c0.7-0.7,1.1-1.6,1.1-2.6L255.7,220z M251.8,212.7l0.3,0.8c0,0.1,0.1,0.2,0.2,0.2
			c1,0.6,2,2.6,2.4,4.5c-2.3-1.6-3.1-3.1-3.4-5c0.2-0.1,0.4-0.3,0.5-0.5L251.8,212.7z M254.8,219.3L254.8,219.3L254.8,219.3
			c0.2,1,0,2-0.7,2.7c-0.7,0.7-1.7,1-2.7,0.8c-2.2-0.6-3.8-4.2-5-7.1l-0.5-1.1c1.6-0.1,3.1-0.4,4.6-1c0.4,2.2,1.5,4,4.3,5.7
			L254.8,219.3z M247.4,122.8c0.7-0.2,1.4-0.4,2-0.6c-0.1,1.3-0.1,2.6-0.1,3.9c0,0.9,0,1.9,0,2.8c-0.3,5.7-2.6,11.1-4.8,15.6
			c-0.6,1.2-1.1,2.4-1.4,3.7c-0.2,0.6-0.3,1.2-0.6,2c-0.4-1.6-1.3-4.4-2.1-7.2c-3.5-12.2-3.5-12.3-3.6-12.4
			c-0.1-0.1-0.3-0.2-0.5-0.1c-0.2,0.1-0.3,0.3-0.3,0.5c0.8,5.2,6.6,31.8,8,36.8c0.6,2.6,0.7,5.2,0.4,7.8c-0.1,1-0.1,1.9-0.1,2.9
			c0,5.2,0.8,10.4,2.4,15.3c1.3,4,2.4,7.6,3.3,11.3l0.2,2.8c0,0.5,0,0.9,0,1.3c0,1.2,0,2.4,0.1,3.6c-1.5,0.7-3.2,1.1-4.8,1.1
			c-0.3-0.6-0.6-1.1-1-1.6c-0.1-0.1-0.2-0.2-0.3-0.1c-0.1,0-0.2,0-0.3,0.1c-0.3,0.2-0.6,0.5-0.7,0.9c-0.5-1.4-0.9-2.8-1.1-4.3
			c-0.3-1.6-0.7-3.1-1.2-4.6c-2.2-5.2-3.8-10.6-4.8-16.2c-0.8-4.2-1.9-8.4-3-12.5c0-0.2,0-0.4,0-0.6c0.1-5.1-0.5-11.8-3.9-14.6
			c-0.2-0.1-0.4-0.1-0.5,0c-0.2,0.1-0.2,0.3-0.2,0.5c0.9,4.3,2.1,8.6,3.2,12.7l0.6,2.1c-0.2,5.1-1.8,10-3.4,14.7
			c-0.3,0.8-0.5,1.5-0.7,2.3c-0.4,1.4-1,2.8-1.5,4.2c-1,2.4-1.7,4.9-2.4,7.4c-0.1,0.5-0.1,0.9-0.1,1.4c0,0.9-0.1,1.8-0.4,2.7
			c-0.8-1.2-1.8-2.2-3-2.9c-0.6-0.4-1.3-0.7-2-1c-1.6-0.7-2.7-1.1-2.6-3.2c0.2-1.4,0.5-2.7,1.1-4c0.5-1.2,0.8-2.4,1.1-3.7
			c0.2-1.4,0.3-2.9,0.4-4.3c0.1-2.2,0.3-4.3,0.8-6.4c0.9-3.3,2-6.6,3.3-9.8c1.6-4,2.9-8.1,3.9-12.3c0.1-0.3,0.1-0.5,0.2-0.8
			c0.5-2.3,1-4.8,0.1-7.2c-1.3-3-2.9-5.9-4.8-8.7c-4.5-6.7-8.6-14-8.1-21.4c6.1,2.3,19.2,3.7,22.1,1.3c0.8-0.6,0.9-1.7,0.4-2.5
			c-0.1-0.1-0.2-0.2-0.3-0.2c-0.1,0-0.2,0-0.3,0.1c-1.5,1-8.2,0.2-13.6-0.4c-2.8-0.4-5.6-0.6-8.5-0.7c-0.2,0-0.4,0.2-0.4,0.4
			c0,0.2-0.1,0.5-0.1,0.7c-0.4-0.2-0.9-0.5-1.2-0.8c-0.1-0.1-0.3-0.1-0.4-0.1c-0.1,0.1-0.3,0.2-0.3,0.3l-0.1,0.3c-0.1,1-0.4,2-0.8,3
			c-0.2-1.9,0.9-4,1.9-5.9c0.3-0.6,0.6-1.1,0.8-1.6c1.6-3.3,2.6-6.9,2.9-10.6c0.6-4.9,1-9.8,1.1-14.6l0.1,0.3
			c0.4,1.1,0.7,1.9,0.8,2.3c1.3,5.8,0.7,11.9-1.8,17.4c-0.1,0.3-0.3,0.6-0.5,1c-0.7,1.2-1.5,2.8-1,4.1c0.9,2.5,5.5,2.8,8.3,3
			l1.3,0.1c4.5,0.6,9.1,0.8,13.7,0.6c0.1,1.1,0.1,2.2,0.1,3.3c0,0.2,0.2,0.4,0.4,0.4c2.9,0.5,5.9-0.4,8.9-1.3L247.4,122.8z
			 M232.2,172.3c-0.9-3.4-1.8-6.8-2.6-10.2c1.8,2.5,2.4,6.6,2.6,10.3L232.2,172.3z M214.1,121.9c0-0.2,0-0.4,0.1-0.6
			c1.7,0,4.8,0.3,8,0.7c5.7,0.6,11.5,1.3,13.7,0.5c0.1,0.4,0,0.8-0.3,1c-1.4,1.1-6,1.3-11.7,0.6C220.5,123.7,217.3,123,214.1,121.9z
			 M258.2,114c-0.3-1.3-0.8-2.6-1.3-3.8c-0.4-0.9-1.1-2.2-1.9-3.7c-1.7-3.2-4.3-7.9-4-10.1c5.3,5.2,8,12,8.4,21.2
			C258.9,116.4,258.5,115.2,258.2,114z M262.3,109.9c-1.1-4.9-2.5-9.9-3.9-14.6c-1.3-4.5-2.6-9.2-3.7-13.8c-0.3-1.4-0.6-2.8-0.8-4.3
			c0-1.7-0.2-3.4-0.6-5.1c-0.1-0.9-0.1-1.8-0.2-2.8c0-0.3-0.1-0.8-0.2-1.3s-0.2-1.3-0.2-2c1.2,1.2,1.9,2.8,2.4,5.8
			c1.2,7.1,3,14.1,5.3,21c0.9,2.9,1.6,5.9,1.9,9c0.1,0.7,0.2,1.4,0.3,2.1c0.2,1.5,0.6,3.2,1,5c0.8,3.4,1.6,7.1,1.5,10.3
			C264,116,263.1,113,262.3,109.9L262.3,109.9z M266.7,135.1c-0.5,0.5-1.3,0.6-1.9,0.3c-0.9-0.3-0.9-1.1-0.5-2.8
			c0.3-1.5,0.7-3.1-0.6-4.2c-0.1-0.1-0.2-0.1-0.3-0.1c-0.1,0-0.2,0.1-0.3,0.1c-0.9,1.2-1.5,2.7-1.6,4.2c-0.1,0.4-0.1,0.8-0.2,1.2
			c-1.5-2.1-1.2-7.1-1.1-10.2c0-0.7,0.1-1.3,0.1-1.9s0-0.8,0-1.2c1.4,1.2,3.2,1.6,5,1.2c0.9,2.3,1.7,4.7,2.3,7.2
			C268,130.4,268,133.9,266.7,135.1L266.7,135.1z"/>
		<path class="st23" d="M176.8,227.1c-0.2,0-0.3,0-0.5,0c-1-0.1-1.9-0.7-2.4-1.6c-1.1-2.4,1.2-6.5,1.6-7.3c0.3-0.6,0.7-1.1,1.1-1.5
			c-1.8-1.4-2.4-3.9-3-6.4c-0.3-1.5-0.7-2.9-1.3-4.3c-2.7-5.8-4-12-4-18.4c0-0.6,0-1.3,0-1.9c-0.2,1.8-0.5,3.5-0.8,5.2
			c-0.8,3.7-1.3,7.5-1.6,11.3c0,0.8,0,1.8,0.1,2.8c0.1,2.2,0.2,4.4-0.5,6.1c0.2,0,0.4,0,0.7-0.1c0.2,0,0.4,0.1,0.4,0.3
			c0.4,1.6,0.5,3.2,0.3,4.9v0.6c0,0.1-0.1,0.2-0.2,0.3c-0.1,0.1-0.2,0.1-0.4,0.1c-1.6-0.3-3.2-0.3-4.8-0.2c-0.9,0-1.8,0.1-2.5,0
			c-1.4-0.1-2.8,0.3-3.9,1.2c-0.8,0.5-1.5,0.9-2.3,1.3c-4.7,2.3-10.6,1-13.5-3h-16.1c-0.1,0.1-0.2,0.1-0.3,0.1
			c-0.4-0.1-0.5-0.1-0.7-3.1c-0.1-1.4-0.2-3-0.2-3.5c0-1.7,0.3-3.4,1.1-5c0.3-0.6,0.7-1.2,1.2-1.8c0.8-1.1,1.5-1.9,1-3.5
			c-0.4-0.9-1.1-1.7-1.9-2.3c-0.5-0.3-0.9-0.7-1.3-1.1c0.1,0.7,0.2,1.5,0.3,2.3c0.3,2.6,0.6,5.3-0.1,7.9c-0.6,2.2-1.8,4.1-3.5,5.6
			c0.5,0.4,0.8,1,1,1.6c0.2,1.2-0.3,2.5-1.1,3.4c-1.2,1.5-2.9,2.4-4.8,2.6c-2.9-0.1-3.1-1.6-3.3-3c0-0.9-0.4-1.8-0.9-2.5
			c-0.1-0.2-0.3-0.3-0.4-0.4c-1.4,0.2-2.9,0.2-4.4-0.1L77.9,214c-0.1,0-0.1,0-0.2,0c-1.3-0.4-2.7-0.6-4.1-0.6c0,0.2,0,0.4,0,0.6
			c-0.4,1.4-2.9,2.1-5.2,1.9c-4.2-0.2-7-0.5-9.5-3.4c-0.5,0.8-1.4,1.3-2.4,1.3c-2.1,0.3-5.3-0.5-5.7-2.4c-0.2-0.7-0.1-1.4,0.1-2.1
			c-0.3-0.1-0.7-0.2-1-0.3c-0.1-0.1-0.2-0.2-0.2-0.4c0-2.5,0.1-5,0.3-7.4c0.2-2,0.3-4.1,0.3-6.2c-0.1-2.5-0.3-5-0.8-7.5
			c-0.6-2.9-0.9-5.9-0.8-8.8c0.5-10.7,0.7-21.6,0.7-33.9c-1.4,4.8-2.4,9.7-2.8,14.8c-0.1,2.7-0.1,5.6-0.1,8.4
			c0.1,3.7,0,7.5-0.2,11.2c-0.2,1.6-0.2,3.5-0.3,5.4c-0.1,3.6-0.2,7.4-1,10.3c-0.5,1.6-0.9,3.1-1.4,4.6c-1.2,3.6-2.2,7.3-2.8,11
			c-0.1,0.6-0.2,1.1-0.4,1.6c-0.2,0.5-0.3,1.1-0.4,1.6c0,0.1-0.1,0.3-0.2,0.3c-0.1,0.1-0.3,0.1-0.4,0c-3.7-2.4-4.5-8.4-5.1-12.9
			c-0.1-0.6-0.2-1.2-0.2-1.7c-0.2-1.6-0.5-3.3-0.8-5c-0.8-4-1.3-8-1.5-12.1c-0.1-5.3,1.3-10.3,2.6-15.1c1.8-6.4,3.4-12.5,1.8-19.2
			c-1.3-5.3-1.3-10.8,0-16.1c0.1-0.2,0.3-0.4,0.5-0.3c0.1,0,0.1,0,0.1,0.1c2.4,1.8,6.1,2.2,11.4,1.2c1.9-0.4,3.7-0.9,5.4-1.6
			c0.8-0.4,1.6-0.9,2.2-1.5c0.9-0.8,1.9-1.4,3-1.8c0.2,0,0.4,0.1,0.5,0.3c0.6,1.6,1.5,3.2,2.7,4.5c1.7,2.2,3.3,4.2,2.3,8.1
			c-0.6,2.3-1.4,4.7-2.1,7c-1.5,3.9-2.5,8-3.1,12.2c-0.2,3.3,0.1,6.5,0.8,9.7c0.4,2.1,0.7,4.1,0.8,6.2c0.1,3.3-0.2,6.5-0.8,9.7
			c-0.4,2.2-0.7,4.4-0.8,6.6c-0.2,4.4,1.3,7.6,3.2,11.2c0.3,0.7,0.7,1.4,1.2,2c0-0.1,0.1-0.2,0.1-0.3c0.2-1.1,0.1-2.3-0.1-3.4
			c-0.1-0.5-0.2-0.9-0.2-1.4c-0.3-3.3-0.9-6.5-1.7-9.6c-0.6-2.3-0.3-4.7,0.7-6.8c0.4-1.1,0.8-2.1,1-3.2c0.4-1.9-0.2-3.8-0.9-5.6
			c-0.3-0.8-0.5-1.6-0.7-2.4c-0.6-2.9-0.5-5.9,0.2-8.7c0.7-3.6,1.5-7.2,2.4-10.6c0.4-1.8,0.9-3.7,1.3-5.6c0.1-0.6,0.3-1.3,0.5-1.9
			c1-4,2.2-8.6-0.6-11.5c-0.5-0.5-1-1-1.6-1.5c-1.2-0.9-2.2-2.1-2.9-3.5c-0.6-1.4-0.9-2.9-0.9-4.5c-0.4-1.2-0.5-2.5-0.1-3.7
			c0.1-0.2,0.3-0.3,0.5-0.3c0.2,0,0.3,0.2,0.4,0.4c0,0.7,0.1,1.5,0.1,2.2v1.2c0.4,1.2,1,2.3,1.7,3.3c1.4,1.9,3.1,2.9,4.6,2.8
			c2.3-0.2,2.5-7.3,2.6-10.7c0-0.7,0-1.2,0-1.7c0.2-3,0.2-6,0.2-9v-0.5c-0.3-1.8-0.6-3.7-0.8-5.5c-0.7-7.8-1.2-16.5,0.7-22.4
			c0.1-0.2,0.3-0.3,0.5-0.3c0.1,0,0.2,0.1,0.3,0.3c1.4,4,1,10.3,0.6,15.7c-0.1,1.3-0.2,2.5-0.2,3.6c-0.1,2.8-0.2,5.7-0.2,8.5
			c0.2,1,0.4,2,0.6,3c0.9,4,1.5,8,1.6,12.1c1.5-0.6,3.2-0.5,4.6,0.3c0.6,0.4,1,0.9,1.4,1.4c0.4-3.1-0.3-6.6-0.9-10.1
			c-0.3-1.9-0.7-3.7-0.8-5.3c-0.6-6.4-2.4-23.7-2.6-24.4c-1.5-5.1-2.3-10.4-2.6-15.8c0-0.7,0.1-1.4,0.2-2.1c0.1-1.9,0.2-3.8-0.7-5
			c-0.6-0.8-2-1.3-3.3-1.8c-0.4-0.2-0.9-0.3-1.2-0.5c0.6,1,0.9,2.1,1.1,3.2c0,0.1,0,0.3-0.2,0.4c-0.1,0.1-0.3,0.1-0.4,0
			c-0.4-0.1-0.7-0.2-1.1-0.3c-0.2,0-0.4-0.1-0.7-0.2c0.5,1,1.1,2,1.8,2.8c0.1,0.1,0.1,0.3,0,0.5c-0.8,1.6-1.6,3.3-2.4,5.2
			c-1.8,4.1-3.6,8.4-6.6,11.2c-0.1,0.1-0.2,0.1-0.3,0.1c0.9,4.5,1.3,9.1,1.1,13.8l0,1.8c-0.4,5.1-0.4,10.3,0,15.4
			c0.7,6.4-0.1,11.1-2.4,14c-1.9,2.2-4.6,3.5-7.5,3.7c-4.2,0.4-8.9-0.9-12.9-2.8c0.1,1-0.2,2-0.8,2.8c-0.1,0.1-0.2,0.1-0.3,0.1
			c-0.1,0-0.2,0-0.3-0.1c-0.7-0.7-1.2-1.7-1.4-2.7l-0.1-0.4c0.1,0.3,0.2,0.7,0.3,1c0.3,1,0.5,1.9,0.6,2.9c0,1.2-0.1,2.4-0.3,3.6
			c-0.1,0.7-0.3,1.4-0.3,2.1c-0.3,2.7-0.4,5.4-0.5,8.2c0,1.7-0.1,3.4-0.2,5.2c-0.4,7.8-1.3,15.5-2.1,23c-0.4,3.4-0.8,6.9-1.1,10.3
			c-0.3,3.7-0.3,7.4-0.2,11.1c0,1.7,0.1,3.4,0.1,5.1c0,0.9,0,1.8-0.1,2.7c-0.1,1.8-0.1,3.6,0.1,5.4c0.3,2.1,0.8,2.3,1.8,2.7
			c1,0.4,1.8,1,2.5,1.7c0.9-0.2,1.8-0.1,2.7,0.1c0.9,0.3,1.9,0.3,2.8,0.1c0.1-0.1,0.3,0,0.4,0.1c1.5,1.2,2.2,3.3,1.7,5.2
			c-0.4,1.7-1.8,3-3.5,3.3c-2,0.4-6.6-0.6-8.1-2.6c-0.4-0.5-0.6-1.2-0.4-1.9H4.7c-0.2,0-0.4-0.2-0.4-0.4c0-0.2,0.2-0.4,0.4-0.4h25.6
			c0.2,0,0.4,0.2,0.4,0.4c0,0.1,0,0.1-0.1,0.2c-0.3,0.5-0.3,1.2,0.1,1.6c1.2,1.7,5.5,2.7,7.3,2.3c1.4-0.3,2.5-1.3,2.8-2.7
			c0.4-1.5-0.1-3.1-1.3-4.2c-1,0.3-2,0.2-3-0.1c-0.8-0.3-1.6-0.3-2.4-0.1c-0.2,0.1-0.4,0-0.5-0.1c-0.7-0.8-1.5-1.4-2.4-1.7
			c-1.2-0.5-2-0.9-2.3-3.4c-0.2-1.8-0.2-3.7-0.1-5.6c0-0.9,0.1-1.8,0.1-2.7c0-1.7,0-3.4-0.1-5.1c-0.2-3.7-0.1-7.5,0.2-11.3
			c0.3-3.5,0.7-6.9,1.1-10.3c0.8-7.4,1.7-15.1,2.1-22.9c0.1-1.8,0.2-3.5,0.2-5.2c0.1-2.8,0.2-5.5,0.4-8.2c0.1-0.7,0.2-1.4,0.3-2.1
			c0.2-1.1,0.4-2.2,0.3-3.3c-0.1-0.9-0.3-1.9-0.6-2.8c-0.4-1.1-0.6-2.3-0.6-3.4c-0.3-0.2-0.5-0.4-0.8-0.6c-0.1,1.2,0,2.3,0.2,3.5
			c0.2,1.4,0.3,2.8,0,4.3c0,0.2-0.2,0.3-0.4,0.3c-4,0-8.7-3.7-9.6-7.7c-0.7-2.5,0.6-5.1,3-6c3.2-1.6,7.4-1.9,9.6,1.1
			c1.1,2,1.8,4.2,2,6.5c3.9,2,8.7,3.3,12.8,2.9c2.7-0.1,5.2-1.3,7-3.4c2.2-2.7,3-7.2,2.3-13.3c-0.5-5.2-0.5-10.4-0.1-15.6l0.1-1.7
			c0.2-5.4-0.3-10.7-1.6-15.9c-0.9-1.3-1.9-2.6-3-3.7c-0.9-1-1.7-2-2.5-3c-2.4-3.3-5-6.4-7.8-9.4c-0.1-0.1-0.1-0.4,0-0.5
			c0.5-0.7,1-1.4,1.6-1.9c0.6-0.6,1.2-1.3,1.7-2c-0.5,0-1-0.1-1.5-0.1c-1,0-2-0.1-2.9-0.4c-0.2-0.1-0.3-0.3-0.3-0.5
			c0.1-0.8,0.3-1.7,0.4-2.7c0.2-2,0.5-3.9,1-5.8c-2.2,1.4-4.5,2.6-7,3.5c-0.7,0.3-1.5,0.5-2.4,0.8c-1.6,0.4-3.1,0.9-4.5,1.7
			c-1.4,1-1.7,3.2-2,5.3c0,0.3-0.1,0.7-0.1,1c-0.3,1.8-0.5,3.5-0.7,5.2c-0.3,3.7-1,7.5-1.9,11.1c-0.8,3.4-1.1,6.9-0.8,10.3
			c0.1,1.8,0.1,3.6,0,5.6c-0.1,1.8-0.4,3.5-0.8,5.3c-0.6,3.2-1.3,6.2,0,9.7c0.8,2.2,3.3,5.4,5.5,5.6c0.5,0.1,0.9-0.1,1.4-0.3
			c-0.2-1.6-0.4-3.1-0.6-4.6c-0.8-6.2-1.7-12.6,0.2-19.3c0.4-1.5,0.9-3,1.4-4.4c0.3-0.9,0.6-1.9,0.9-2.8v-0.8c0-0.7,0-1.6-0.1-2.7
			c-0.2-4.7-0.5-11.8,2.2-14c0.2-0.1,0.4-0.1,0.5,0c2.2,1.9,0.9,6.8,0,10.4c-0.2,0.8-0.4,1.5-0.5,2.1c-0.3,1.7-0.8,3.4-1.3,5
			c0,1.6,0,3.2,0,4.8c0,3.6,0.1,7.3,0,11c0,1-0.1,2-0.1,3c-0.1,1.7-0.1,3.4-0.2,5.2c0,0.3,0,0.8,0,1.3c0,2.4-0.1,4.4-0.5,5.1
			c-0.3,0.4-0.6,0.8-1,1.2c0.1,0.7,0.1,1.4,0.2,2.1c0,0.2-0.2,0.4-0.4,0.4c0,0,0,0,0,0c-3.6,0.5-7.2,1.4-10.6,2.8
			c-0.1,0-0.2,0-0.4,0c-0.1-0.1-0.2-0.1-0.2-0.3c-1-3.8-0.7-8.7-0.3-13.1c0.2-2.5,0.1-5-0.3-7.5c-0.2-1.8-0.4-3.7-0.4-5.5
			c0.1-2.5,0.7-4.9,1.7-7.2c0.8-1.8,1.3-3.7,1.5-5.6c0.1-1.5,0.2-2.8,0.3-4.2c0.1-3.1,0.5-6.2,1.3-9.3c0.3-1.5,0.5-2.9,0.6-4.4
			c0.4-4.2,0.9-9,3.3-10.7c1.1-0.8,3.3-1,5.3-1.2c0.9-0.1,1.7-0.2,2.3-0.3s1.3-0.2,1.9-0.3c1.9-0.2,3.8-0.8,5.5-1.6
			c0.5-0.3,1-0.7,1.5-1.1c0.2-0.5,0.5-1.1,0.8-1.6c0,0,0-0.1,0-0.1c0.1-0.1,0.2-0.2,0.4-0.2c0.1,0,0.2,0,0.3,0.1
			c0,0,0.1,0.1,0.1,0.2c0.5-0.5,1.1-1,1.7-1.4c1.5-2.1,2-4.8,1.5-7.3c-1.4-1.3-1.8-3.3-1.2-5c0.4-1.2,1-1.9,1.7-1.9
			c0.1,0,0.3,0,0.4,0.1c0.1-3.4,0.6-6.2,1.6-7.8C54,20.6,60.9,19.8,65,22c2.3,1.2,3.5,4.5,3.6,7.2s-0.7,4.9-2.3,5.9
			c-0.1,0.1-0.3,0.1-0.5,0c-0.1-0.1-0.2-0.3-0.2-0.5c0.7-2.5,0.7-4.3-0.2-5.7s-3.1-2.4-6.3-2.7c-1.3-0.1-4.7-0.2-6.2,1.5
			c-0.8,1-1.2,2.2-1.4,3.5c-0.1,1.1-0.5,2.1-1,3c0,0.9,0.1,1.7,0.2,2.6c0.5,5.2,2.1,9.4,4.1,11.3c1.5,1.3,3.2,1.4,5.1,0.3
			c0.5-3.7,2.5-7.9,5.8-12.9c0.1-0.2,0.3-0.2,0.5-0.1c0.2,0.1,0.3,0.3,0.2,0.5c-0.2,0.7-0.5,1.6-0.7,2.5c-1.2,4.1-2.5,8.7-4.5,10.2
			L60.7,49c-0.2,1.4-0.1,2.8,0.2,4.2c0.1,0.3,0.1,0.5,0.2,0.8c0.4,0.5,0.8,0.9,1.3,1.4c1.2,1.3,2.4,2.7,3.4,4.1l0.6,0.3
			c0.6,0.3,1.2,0.6,1.8,0.8c1.4,0.5,3,1.1,3.7,2.1c1.1,1.4,1,3.6,0.8,5.5c0,0.7,0,1.4,0,2.2c0.3,5.3,1.2,10.5,2.6,15.6
			c0.2,0.6,2.1,18.8,2.6,24.5c0.2,1.6,0.5,3.4,0.8,5.3c0.7,3.8,1.4,7.8,0.8,11.1c0,0.1-0.1,0.2-0.2,0.3c0.3,0.8,0.5,1.7,0.6,2.6
			c0.3,2.6,0.4,7.1-1.8,8.6c-0.9,0.7-2.2,0.7-3.7,0c-0.2-0.1-0.3-0.2-0.2-0.4c0.2-0.9,0.5-1.7,1-2.4c0.8-1.3,1.3-2.3,0.2-3.4
			c-0.1,0.5-0.2,1.1-0.2,1.6c-0.1,1.4-0.2,2.8-1.2,3c-0.4,0.1-0.8,0-1.1-0.2c-0.9-0.7-1.1-2.7-1.1-4.6v-0.2c0-2.2,0.5-3.7,1.7-4.7
			c1.2-0.9,2.8-1.3,4.3-1c-0.3-0.4-0.6-0.7-1-0.9c-1.1-0.7-2.6-0.7-4.5,0c-0.1,0-0.3,0-0.4-0.1c-0.1-0.1-0.2-0.2-0.2-0.3
			c0-3.8-0.5-7.7-1.4-11.4c0,1.8-0.1,3.5-0.1,5.3c0,0.4,0,1,0,1.7c-0.1,5.7-0.5,11.3-3.3,11.5c-1.8,0.1-3.7-1-5.3-3.1
			c-0.3-0.3-0.5-0.7-0.7-1.1c0.1,0.5,0.3,1.1,0.5,1.6c0.6,1.3,1.5,2.4,2.6,3.2c0.6,0.5,1.2,1,1.7,1.5c3.1,3.2,1.8,8.2,0.8,12.3
			c-0.2,0.7-0.3,1.3-0.5,1.9c-0.4,1.9-0.9,3.8-1.3,5.6c-0.8,3.4-1.7,7-2.3,10.6c-0.7,2.8-0.7,5.6-0.2,8.4c0.2,0.8,0.4,1.5,0.7,2.3
			c0.7,1.9,1.3,3.9,0.9,6.1c-0.2,1.1-0.6,2.3-1,3.4c-1,2-1.2,4.2-0.7,6.3c0.8,3.2,1.4,6.5,1.7,9.8c0,0.4,0.1,0.8,0.2,1.3
			c0.3,1.2,0.3,2.5,0.1,3.8c-0.1,0.4-0.2,0.6-0.3,0.9c1.5,1.9,3.3,2.7,5.9,4l1,0.5c0.9,0.4,1.7,1,2.3,1.7c1.6,0,3.2,0.2,4.7,0.7
			l26.8-0.3h0.1c1,0.2,2.1,0.3,3.2,0.3l-0.5-0.3c-1.6-0.8-3.4-1.7-3.1-4.8c0-0.2,0.1-0.3,0.3-0.4c1.3-0.4,2.8-0.6,4.2-0.4
			c1.1,0.1,2.1,0,3.2-0.2c0.1,0,0.3,0,0.4,0.1c0.1,0.1,0.1,0.3,0.1,0.4c-0.2,0.6-0.3,1.2-0.5,1.7c-0.6,2.2-1,3.5-2.1,4.1l0.2,0.2
			c0.7,0.9,1,1.9,1.1,2.9c0.2,1.4,0.3,2.2,2.5,2.3c1.6-0.2,3.1-1,4.1-2.3c0.7-0.7,1.1-1.7,1-2.7c-0.1-0.5-0.4-0.9-0.8-1.2
			c-0.5,0.3-1,0.6-1.5,0.8c-1.7,0.6-3.7,0.3-5.2-0.8c-0.2-0.1-0.2-0.4-0.1-0.6c0,0,0-0.1,0.1-0.1c1.8-1.1,4-1.3,6-0.6
			c0.2,0.1,0.5,0.2,0.7,0.3c1.6-1.4,2.8-3.3,3.4-5.4c0.5-2.5,0.6-5.1,0.1-7.6c-0.2-1.3-0.3-2.6-0.3-3.8l0,0
			c-0.8-2.6,0.2-6.1,1.1-9.4c0.7-2.1,1.2-4.2,1.3-6.4c-0.1-3.6-0.5-7.2-1.3-10.7c-0.2-1.3-0.5-2.7-0.7-4c-0.1-0.5-0.1-1-0.2-1.6
			c-0.1-1.8-0.3-4.3-1.4-5.1c-0.7-0.5-2.2-0.7-3.6-0.8c-0.7-0.1-1.3-0.1-1.8-0.2c3,10.4,1.6,21.9,0.3,33.1l-0.1,0.5
			c0.1,0.7,0.2,1.5,0.2,2.2c0,4.6-0.2,10.2-1.6,13.6c-0.1,0.2-0.3,0.3-0.5,0.2c-0.2,0-0.3-0.2-0.3-0.4c0.1-5,0.7-10.2,1.4-15.6
			c-0.3-1.7-0.7-3.4-1.2-5c-0.6-1.8-1-3.7-1.3-5.6c-0.4-4.5-0.2-9,0.6-13.4c0.6-3.9-0.1-6.4-1.1-9.9c-0.2-0.5-0.3-1.1-0.5-1.7
			c0-0.1,0-0.2,0.1-0.3c0.1-0.1,0.2-0.2,0.3-0.2l1-0.1c-1.3-0.2-2.5-0.4-3.5-0.5s-2.4-0.1-4-0.1c-4.4,0-9.9,0.1-11.8-2
			c-0.1-0.1-0.1-0.3,0-0.5c3.9-7.4,4.7-15,5.6-23.1c0.1-0.9,0.2-1.9,0.3-2.8c1-9.5,2.4-18.9,4.1-28.1c0-0.2,0.2-0.3,0.3-0.3
			c0.2,0,0.3,0,0.4,0.1c1.3,1.5,2.2,5.3,2.4,7.9c6,0.2,15-1.1,20.2-5.2c0-1.5,0.2-2.9,0.6-4.3h-0.1c-0.1,0.1-0.3,0.1-0.4,0.1
			c-2-0.6-3.6-2-4.5-3.9c-1.8,0.2-3.5,0.7-5.1,1.4c-0.5,0.2-0.9,0.4-1.4,0.5l-1,0.4c-3.4,1.3-8.8,3.2-11.8,2.1
			c0.1,1.1,0.1,2.2-0.1,3.4c-0.1,1.4-1,2.6-2.3,3c-1.7,0.6-4.1-0.2-5.7-1.8c-1.3-1.1-1.9-2.9-1.5-4.6c0.1-0.6,0.4-1.2,0.9-1.6
			c-0.3,0.1-0.6,0.2-0.9,0.1c-0.9-0.3-1.3-2-0.9-3.8c0.2-1.6,1.1-3,2.4-3.9c0.4-0.3,0.9-0.4,1.4-0.4c0-2.9-0.4-5.8-0.9-8.7l-0.1-0.6
			c-0.6-4-1-7.6,0.7-8.5c0.9-0.5,2.3,0,4.2,1.6l0.6,0.5c2,1.7,3.6,3,3.6,5.3c0.8-0.5,1.6-2.2,2.4-3.6c0.4-0.9,0.9-1.7,1.4-2.5
			c1.5-2.3,3.2-4.4,5.2-6.3c0.8-0.9,1.7-1.7,2.4-2.5c0-0.1,0-0.1,0-0.2c-0.1-0.2-0.4-0.4-1-0.6c-1.6-0.6-3-1.7-4-3.1
			c-2-2.7-1.6-10.8-0.3-14.2c-0.9-0.8-1.1-2.2-0.5-3.2c1.4-2.5,7.2-4.1,10.3-3.4c5.5,1.3,7.8,5.6,6.7,12.4l-0.1,0.6v0.1
			c0.1,0.6,0.1,1.3-0.1,1.9c0.1,1.9,1,3,2.6,4.9c0.7,0.9,1.7,2,2.7,3.5c3.4,4.8,3.5,7.2,3,12.2c-0.4,2.4-1,4.8-2,7.1
			c0,0.1,0,0.2,0,0.3c0.3,5.3-0.3,10.6-2,15.6c-0.7,2.1-1.9,3.9-3.6,5.2c0,0.3,0,0.6,0.1,1c0.4,1.9,1.1,3.8,2.2,5.4
			c1.2,2.2,2.4,4.4,2.4,7.3c-0.1,2.8-0.6,5.5-1.3,8.2c-0.7,2.4-1.1,4.8-1.3,7.3c-0.2,4.6,1.2,9.8,2.6,14.3c0.4,1.3,0.9,2.6,1.3,3.9
			c0.7,1.8,1.3,3.6,1.8,5.5c0.1,0.2-0.1,0.4-0.3,0.5c-3.6,0.9-7.3,1.3-11.1,1.2c0.4,1.5,0.5,3.1,0.4,4.7c-0.1,1,0,2,0.1,3
			c0.3,2.1,0.8,4.1,1.3,6.1c0.8,2.8,1.4,5.8,1.6,8.7c0.3,4-1,6.9-2.4,9.9c-0.7,1.5-1.4,3.1-1.9,4.6c-0.3,1.1-0.5,2.3-0.4,3.4
			c0.4,0.9,1.1,1.6,1.9,2.1c1,0.6,1.8,1.6,2.2,2.7c0.6,2-0.2,3.1-1.1,4.3c-0.4,0.5-0.8,1-1.1,1.6c-0.7,1.4-1,3-1,4.6
			c0,1,0.3,4.6,0.5,5.7h16.2c0.1,0,0.3,0.1,0.4,0.2c2.6,3.7,8.2,5,12.6,2.9c0.8-0.4,1.5-0.8,2.2-1.3c1.2-1,2.8-1.5,4.4-1.4
			c0.7,0,1.6,0,2.5,0c1.5-0.1,3.1-0.1,4.6,0.1v-0.2c0.2-1.4,0.1-2.9-0.2-4.3c-3.6,0-7.2-0.8-10.6-2.2c0,0.1-0.1,0.2-0.1,0.3
			c-1.4,2.9-5.6,7.1-9.3,7.4c-1.7,0.1-3.4-0.7-4.2-2.2c-0.1-0.2-0.1-0.4,0.1-0.6c1.4-1,2.9-1.6,4.6-1.9c2.6-0.7,5.1-1.3,6-4.9
			c0-0.1,0.1-0.2,0.3-0.3c0.1-0.1,0.3-0.1,0.4,0c0.6,0.4,1.2,0.8,1.9,1.1c0.3-0.8,0.3-1.2,0.2-1.3s-0.6-0.3-1.1-0.4
			c-1.1,0-2-0.6-2.6-1.4c-0.6-1,0.2-3.3,1.3-6.1c0.3-0.7,0.5-1.4,0.7-2.1c2-8.6,1.7-20-1-31.1c-1.1-4.8-1.9-9.7-2.5-14.5
			c-0.7-5-1.5-10.1-2.7-15.1c-0.9-3-2.1-5.9-3.6-8.7c-0.8-1.6-1.6-3.3-2.3-5s-1.3-3.3-1.8-4.9l-0.7-1.9c-0.5-1-0.7-2.2-0.6-3.3
			c-2.3-2.9-1.5-7.4-0.8-11c0.2-1.1,0.4-2.2,0.5-3.1c0-0.4,0.1-0.8,0.1-1.2c0.2-0.8,0.2-1.7,0.2-2.6c-0.1-0.5-0.2-1-0.4-1.5
			c-0.2-0.5-0.3-1-0.4-1.4c-0.1-1.2,0.1-2.4,0.4-3.6c0.4-1.3,0.5-2.6,0.4-3.9c-0.1-0.9-0.3-1.7-0.5-2.5c-0.5-1.7-0.6-3.4-0.5-5.1
			c0.1-0.8,0.2-1.7,0.3-2.5c0.3-1.7,0.4-3.5,0.4-5.3c-0.2-5.3,0.1-7.4,3.9-11.8l1.9-2.2c2.4-2.8,4.8-5.3,7.1-8.1
			c0.1-1.7,0.2-3.2,0.3-4.7c-3.9-2.2-4.3-6.3-4.6-11c-0.1-1.3-0.2-2.7-0.4-4.1c-0.3-2.5,0.7-6.3,2.8-7.9c2.4-1.8,6.5-3.1,9.4-2.1
			c6.4,2.3,6.2,6.9,5.9,9.8c0.8-0.3,1.7,0,2.1,0.7c1,1.5,0.4,4.7-1,6c-0.5,0.5-1.2,0.6-1.8,0.4c0.2,3.3-1.3,6.5-4,8.5
			c-2,1.4-4.6,1.6-6.9,0.6c0.7,2.3,1.8,3.7,3.3,4c1.7,0.4,4-0.8,5.7-3c1.2-1.4,1.9-3.2,2.1-5c-0.2-0.6-0.3-1.3-0.4-2
			c0-0.2,0.1-0.4,0.4-0.5c0.2,0,0.4,0.1,0.4,0.2c0.3,0.6,0.4,1.4,0.4,2.1c0,0.1,0.1,0.3,0.1,0.4c0.7,1.5,0.4,3.2-0.5,4.4
			c-1.3,1.9-3.4,3.2-5.4,4.2c-0.5,0.3-1,0.6-1.5,0.9c0.2,0.2,0.4,0.4,0.7,0.6s0.4,0.3,0.6,0.5h0.1c1,0.9,1.9,2,2.7,3.1
			c1.2-3.5,2.8-6.8,4.8-9.8c0.1-0.2,0.3-0.2,0.5-0.2c5.7,2,19.2,7.3,22.3,14.2c3.5,7.9,4.1,16.7,4.6,25.2c0.2,2.8,0.4,5.7,0.6,8.5
			c0.1,1.5,0.4,3.1,0.6,4.7c0.3,2.3,0.6,4.7,0.8,7.1c0.1,2.3-0.1,4.6-0.5,6.9c-0.3,1.7-0.5,3.4-0.5,5.2c0,0.2-0.2,0.4-0.4,0.4
			c-2.6,0.2-5.3,0.1-7.9-0.4c-0.2,2.4-0.4,4.3-0.6,4.9c0,0.3-0.1,0.6-0.3,1c-0.3,1-0.9,3.2-0.5,3.7s4,0.6,5.6,0.4h0.1
			c0.6-0.1,1.1-0.2,1.4-0.2c-0.5-2.8-0.9-5.7,0.3-8c0.1-0.1,0.2-0.2,0.3-0.2c0.1,0,0.3,0,0.4,0.1c1.6,1.3,1.4,3.3,1.1,5.2l-0.1,0.4
			c0,0.3-0.1,0.6-0.1,0.8c-0.2,1.4-0.3,2-0.9,2.3c0.3,1.6,0.5,3.3,0.4,5c-0.1,0.4-0.1,0.8-0.2,1.2c0.2,0,0.4,0,0.6,0.1
			c1,0.3,1.5,1.5,1.9,2.6c0.2,0.7,0.6,1.4,1.1,1.9c0.8,0.4,1.6,0.5,2.4,0.3c1.3-0.1,2.8-0.3,4.1,1.2c0.1,0.1,0.1,0.3,0.1,0.4l0,0
			c3.5,2.1,2.8,8.3,2.3,12.8c-0.1,1-0.2,1.8-0.2,2.5c-0.4,7.4-5.7,9.1-11.4,9.8c-1.2,0.2-2.4-0.1-3.3-0.8c-1.7-1.6-1.6-5-1.5-8.3
			c0.2-1.7,0.1-3.5-0.2-5.2c-0.4-1.8-1.3-3-2.1-3c-0.2,0-0.3,0-0.5,0.1c0.4,1.5,0.7,3.1,0.8,4.7v0.3c0.7,7.6,0.2,15.3-0.4,22.8
			l-0.1,1.6c1.6-0.7,3.3-1.2,5-1.5c2.3-0.6,4.6-1.1,6.1-2.1c2.1-1.5,2.3-3.6,2.5-5.8s0.4-4.3,2.4-5.8c0.2-0.1,0.4-0.1,0.6,0.1
			c0,0,0,0.1,0.1,0.1c2.1,4.9,1.1,12.8-3.4,15.4c-3.1,1.8-9,3.8-13.5,3.5c-0.1,0.1-0.2,0.2-0.4,0.2c-0.5,0-1.1-0.1-1.7-0.1
			c-0.4,2.2,0.1,5.4,0.6,8.4c0.4,2,0.6,4,0.6,6.1c-0.1,1-0.2,2-0.4,2.9c-0.3,1.7-0.5,3.4-0.3,5.1c0.2,1.6,0.6,3.2,1,4.8
			c0.2,0.8,0.4,1.7,0.6,2.5c0.8,3.7,0.5,6.3-1,7.7s-3.6,1.6-6.6,0.8c-0.4-0.1-0.7-0.2-1.1-0.4c-0.4,0.5-0.8,1-1.1,1.5
			c-1,1.6-2.4,4.9-1.6,6.5c0.3,0.6,1,1.1,1.7,1.1c2,0.3,8.8-2.1,11.1-4.3c0.6-0.6,0.7-0.9,0.7-1.1c-0.1-1.3-1.1-2.5-1.6-2.5
			c-0.2,0-0.4-0.2-0.4-0.4c0-0.2,0.2-0.4,0.4-0.4H272c0.2,0,0.4,0.2,0.4,0.4s-0.2,0.4-0.4,0.4c0,0,0,0,0,0h-84
			c0.6,0.7,1,1.6,1.1,2.5c0,0.7-0.4,1.4-1,1.8C185.9,224.6,179.6,227.1,176.8,227.1z M178.2,216.6c0.2,0.1,0.3,0.1,0.5,0.2
			c2.7,0.7,4.7,0.5,5.8-0.6s1.5-3.5,0.8-6.9c-0.2-0.8-0.4-1.7-0.6-2.5c-0.4-1.6-0.8-3.2-1-4.9c-0.1-1.8,0-3.6,0.3-5.3
			c0.1-0.9,0.3-1.8,0.4-2.8c0-2-0.2-3.9-0.6-5.9c-0.5-3.1-1-6.3-0.6-8.6c-1.1-0.1-2.1-0.4-3.1-0.7c-0.4-0.2-0.8-0.3-1-0.4
			c-1.3-0.4-1.4-0.6-1.4-2c0-0.3,0-0.7-0.1-1.2c-0.1-2.1-0.1-4.2,0.1-6.4c0.1-1.5,0.1-3,0.1-4.5c0-3.3,0.1-6.2,0.3-9.2
			c0-0.6,0.1-1.2,0.1-1.9c0-2-0.1-4-0.5-5.9c-0.4-2.2-0.5-4.5-0.4-6.7c0-0.2,0.1-0.3,0.3-0.3l1.4-0.7c1.8-0.9,3.7-1.7,5.6-2.3
			c0.1-0.6,0.1-1.3,0.3-2c0.1-0.5,0.1-1,0.2-1.5H185c-0.8,0-1.6-0.3-2-1c-1.1-1.7-0.3-4.9,0.5-6.1c0.1-0.1,0.2-0.2,0.3-0.2
			c0.1,0,0.2,0,0.3,0.1c0.5,0.4,0.9,0.9,1.2,1.4c0.1,0,0.1-0.1,0.2-0.1c0.6-0.1,1.1-0.1,1.7,0c0.1,0,0.2,0.1,0.2,0.1
			c0.2,0.3,0.4,0.4,0.6,0.6c0.1,0.1,0.2,0.3,0.1,0.4l0,0c-0.5,2.4-0.8,4.5,1,4.9c0.6,0.2,1.2,0,1.6-0.3c0.3-0.2,0.5-0.4,0.7-0.7
			l-0.1-0.3c0-0.2,0-0.4,0.2-0.4c0.1-0.1,0.2-0.1,0.4-0.2c0.2-0.5,0.3-1,0.4-1.5c0.1-1.6,0-3.1-0.3-4.7c-0.4,0.1-0.8,0.2-1.4,0.2
			h-0.1c-0.6,0.1-5.4,0.5-6.3-0.7c-0.6-0.8-0.2-2.4,0.3-4.4c0.1-0.4,0.2-0.8,0.3-1c0.3-1.6,0.5-3.3,0.6-4.9h-0.3H185
			c-0.2,0-0.4-0.2-0.4-0.5c0.4-4.3,0.2-8.5-0.6-12.7c-0.1-0.2-0.3-0.4-0.4-0.5c-0.4-0.4-1.1-0.6-1.6-0.4c-0.1,0.3-0.1,0.6-0.3,0.9
			c-0.2,0.3-0.2,0.7-0.2,1c0,0.1,0,0.2-0.1,0.3c-0.1,0.1-0.2,0.1-0.3,0.2c-7.9,0.4-15.8,1.2-23.6,2.5c-0.1,0.1-0.1,0.3-0.2,0.4
			c-0.3,0.7-0.6,1.3-0.9,1.8c-0.1,0.2-0.3,0.3-0.5,0.2c-0.9-0.4-1.7-0.9-2.4-1.6l-1.2,0.3c-2.7,0.6-4.5,0.6-5.7-0.1
			c-0.9,1.8-1.9,3.6-3.1,5.3l-0.2,0.2c-1,1.5-1.6,2.4-2.5,2.4c-0.6,0-1.1-0.3-1.5-0.7c0.1,0.7,0.3,1.4,0.6,2.1l0.7,1.9
			c0.6,1.6,1.1,3.3,1.8,4.9s1.5,3.3,2.3,4.9c1.5,2.8,2.8,5.8,3.6,8.9c1.2,5,2,10.2,2.7,15.2c0.7,4.8,1.4,9.7,2.5,14.4
			c2.7,11.2,3.1,22.7,1,31.5c-0.2,0.7-0.5,1.5-0.8,2.2c-0.7,1.7-1.8,4.6-1.3,5.4c0.5,0.6,1.2,1,2,1c0.7,0.1,1.4,0.2,1.7,0.8
			c0.2,0.7,0.2,1.4-0.2,2.1c2.6,1.1,5.4,1.8,8.3,2.1c-3.4-3.9-2.6-10-1.9-14.9v-0.3c0.7-4.3,2-8.6,3.7-12.6c0.6-1.5,1.2-3,1.7-4.5
			c-0.3-1.9-0.6-3.8-0.9-5.7c-0.2-1.2-0.4-2.4-0.6-3.6c-0.5-3.5-0.9-7.1-1-10.6c0-0.7-0.1-1.4-0.1-2.2c-0.8-2.7-1.9-5.4-3.1-8.3
			c-3.1-7.5-6.3-15.2-3.6-23l0,0c0-0.2,0-0.6,0.4-0.6l0,0c0.4,0,0.4,0.3,0.4,0.5c1.4,2.8,2.5,5.8,3.2,8.9c0.3,1.5,0.6,3,0.8,4.6
			c0.3,1.9,0.6,3.8,1.1,5.8c0.9,3.9,1.4,8,1.6,12c0,0.1,0.1,0.3,0.1,0.4c1.9,6.7,2.9,13.6,2.9,20.6l0,0c2.4,5.8,3.3,12.2,4.2,18.4
			c0.2,1.7,0.5,3.4,0.7,5c0.6,3.6,1.3,5.7,3.8,8.2c0.6,0.6,1.3,1.2,2.1,1.8c1.7,1.5,3.5,3,4.3,4.7c0.1,0.2,0,0.4-0.1,0.5
			c-0.1,0.1-0.3,0.2-0.5,0.1c-0.2-0.1-0.3-0.3-0.3-0.5l0,0c-0.8,0.2-1.7,0.3-2.5,0.4C179.7,216.1,178.9,216.3,178.2,216.6
			L178.2,216.6z M142.7,215c0.7,1,2,1.6,3.3,1.5c3.3-0.2,7.3-4.3,8.6-6.9c0-0.1,0.1-0.1,0.1-0.2c-0.6-0.3-1.1-0.6-1.5-0.8
			c-1.2,3.5-3.9,4.2-6.5,4.9C145.3,213.7,143.9,214.2,142.7,215z M168.8,180.7c0.3,2.3,0.4,4.6,0.4,6.9c0,6.2,1.4,12.4,4,18
			c0.6,1.4,1,2.9,1.4,4.5c0.6,2.6,1.1,4.9,2.8,6c0.9-0.6,1.9-0.9,3-0.9c0.7-0.1,1.5-0.2,2.2-0.3c-1-1.2-2.2-2.4-3.4-3.3
			c-0.8-0.7-1.5-1.3-2.1-1.9c-2.6-2.6-3.4-5-4-8.7c-0.3-1.6-0.5-3.3-0.7-5c-0.8-5.5-1.6-11.2-3.4-16.4
			C168.8,180,168.8,180.4,168.8,180.7L168.8,180.7z M58.6,211.1c0.1,0,0.3,0.1,0.3,0.2c2.5,3.2,5.1,3.5,9.5,3.8
			c2.3,0.1,4.1-0.6,4.3-1.3c0-0.1,0-0.3,0-0.4c-1.3,0-2.7-0.2-4-0.4c-0.7-0.1-1.3-0.3-1.9-0.4c-2.6-0.5-5.2-1.2-7.7-2.1l-0.4-0.2
			c-1-0.4-2-0.8-3.1-1.1c-1.2,0.3-2.5,0.4-3.8,0.3c-0.2,0.6-0.3,1.2-0.1,1.8c0.2,1.3,2.8,2,4.8,1.7c0.6-0.1,1.9-0.4,1.8-1.4
			C58.3,211.4,58.4,211.2,58.6,211.1C58.6,211.2,58.6,211.2,58.6,211.1z M112.4,212.5c1.2,0.7,2.6,0.8,3.8,0.4
			c0.3-0.1,0.7-0.3,1-0.4l-0.2-0.1C115.5,211.8,113.9,211.8,112.4,212.5L112.4,212.5z M105.2,208.5c-0.1,2.3,1.2,2.9,2.7,3.7
			c0.5,0.2,0.9,0.5,1.4,0.8c1-0.5,1.4-1.7,2-3.8l0.3-1c-0.9,0.1-1.8,0.1-2.7,0.1C107.5,208.1,106.3,208.2,105.2,208.5z M36.8,132.7
			c-1.1,5-1.1,10.1,0.2,15.1c1.7,6.9,0,13.1-1.8,19.6c-1.3,4.7-2.6,9.6-2.6,14.8c0.2,4,0.7,8,1.5,11.9c0.3,1.6,0.6,3.4,0.8,5
			c0.1,0.5,0.2,1.1,0.2,1.7c0.5,4.1,1.3,9.5,4.2,11.9c0.1-0.4,0.2-0.7,0.3-1.1c0.1-0.5,0.3-1,0.3-1.5c0.7-3.8,1.6-7.5,2.9-11.2
			c0.5-1.4,0.9-3,1.4-4.6c0.8-2.9,0.9-6.6,1-10.1c0.1-2,0.1-3.8,0.3-5.5c0.3-3.7,0.4-7.4,0.3-11.1c0-2.8-0.1-5.7,0.1-8.4
			c0.5-6,1.7-11.8,3.6-17.5c0.1-0.2,0.3-0.3,0.5-0.3c0.2,0,0.4,0.2,0.3,0.4c0.1,13.5-0.1,25.1-0.7,36.6c0,2.9,0.2,5.8,0.8,8.6
			c0.5,2.5,0.8,5.1,0.8,7.7c0,2.1-0.2,4.2-0.3,6.3c-0.2,2.3-0.3,4.7-0.3,7.1c0.2,0.1,0.5,0.2,0.8,0.2l0.1-0.1
			c0.9-0.8,2.5-0.6,4.1-0.2c0.7-0.1,1.4-0.3,2.1-0.5s1.5-0.4,2.2-0.5c0.6-0.1,1.2-0.2,1.8-0.2c0.7,0,1,0,1.3-0.5
			c-0.6-0.8-1.1-1.7-1.6-2.6c-1.9-3.8-3.5-7-3.2-11.6c0.2-2.3,0.4-4.5,0.8-6.7c0.6-3.1,0.9-6.3,0.8-9.5c-0.2-2.1-0.5-4.1-0.8-6.1
			c-0.7-3.3-1-6.6-0.8-10c0.6-4.2,1.6-8.4,3.1-12.4c0.8-2.3,1.5-4.6,2.1-7c0.9-3.5-0.4-5.2-2.1-7.4c-1.1-1.3-2-2.7-2.7-4.2
			c-0.8,0.4-1.6,0.9-2.3,1.5c-0.7,0.6-1.5,1.2-2.4,1.6c-1.8,0.7-3.7,1.3-5.6,1.7C43.2,134.7,39.4,134.3,36.8,132.7z M57.2,208.8
			c0.7,0.3,1.3,0.5,1.8,0.7l0.4,0.2c2.4,0.9,5,1.6,7.5,2.1l2,0.4c1,0.2,2.1,0.3,3.1,0.4c-0.4-0.3-0.9-0.6-1.4-0.9l-1-0.5
			c-2.5-1.2-4.3-2.1-6-3.9c-0.4,0.6-1,0.7-1.8,0.7c-0.6,0-1.2,0.1-1.7,0.2c-0.6,0.1-1.4,0.3-2.2,0.5L57.2,208.8z M167.9,180.5
			c-0.4,1-0.8,2-1.1,3c-1.7,4-3,8.2-3.7,12.5v0.3c-0.7,5.1-1.5,10.8,1.8,14.4c0.6-1.5,0.5-3.6,0.4-5.6c-0.1-1-0.1-2-0.1-2.9
			c0.2-3.9,0.7-7.7,1.6-11.5c0.7-3.3,1.1-6.6,1.3-10L167.9,180.5z M114.1,196.9c-0.2,1.6-0.3,3.2-0.4,4.8
			C113.9,200.1,114,198.5,114.1,196.9z M114.1,155.6h0.1c0.8,0.2,1.6,0.3,2.4,0.4c1.6,0.1,3.2,0.3,4.1,1c1.3,1.1,1.5,3.7,1.7,5.7
			c0,0.6,0.1,1.1,0.2,1.6c0.2,1.3,0.4,2.7,0.7,4c0.7,3.6,1.2,7.2,1.3,10.9c-0.2,2.3-0.6,4.5-1.4,6.7c-0.4,1.5-0.9,3-1.2,4.5
			c0.5-1.4,1.1-2.7,1.6-3.9c1.3-2.9,2.6-5.7,2.3-9.5c-0.3-2.9-0.8-5.8-1.6-8.6c-0.5-2-1-4-1.4-6.2c-0.1-1-0.1-2.1-0.1-3.1
			c0.1-1.5,0-3-0.4-4.5c-2.3,0.3-4.5,0.3-6.8-0.1c-1.3,0.1-2.7,0.2-4,0.4c0.1,0.4,0.2,0.8,0.3,1.2c1,3.6,1.7,6.1,1.1,10.2
			c-0.8,4.3-1,8.8-0.6,13.2c0.3,1.9,0.7,3.7,1.2,5.5c0.2,0.8,0.5,1.7,0.7,2.5c1.3-10.7,2.4-21.6-0.7-31.4c-0.1-0.2,0-0.3,0.1-0.4
			C113.9,155.7,114,155.6,114.1,155.6L114.1,155.6z M186.2,178.5c4.2,0.2,9.8-1.6,13-3.4c3.9-2.2,5-9.2,3.3-13.8
			c-1.3,1.3-1.4,3-1.6,4.8c-0.2,2.2-0.4,4.7-2.9,6.4c-1.6,1.1-4,1.7-6.4,2.3c-1.8,0.4-3.6,0.9-5.3,1.7
			C186.3,177.2,186.2,177.8,186.2,178.5L186.2,178.5z M178.1,140.8c-0.1,2.1,0.1,4.2,0.4,6.3c0.4,2,0.5,4.1,0.5,6.1
			c0,0.6-0.1,1.3-0.1,1.9c-0.1,3-0.3,5.9-0.3,9.2c0,1.5-0.1,3-0.2,4.5c-0.1,2.1-0.2,4.2-0.1,6.3c0,0.5,0,0.9,0.1,1.2
			c0,0.3,0,0.6,0.1,0.9c0.2,0.1,0.5,0.2,0.7,0.3l1.1,0.4c0.9,0.3,1.8,0.5,2.7,0.7c-0.6-6.1-0.7-12.3-0.4-18.5
			c0.1-1.1,0.1-2.2,0.1-3.3c-0.1-2.9,0.2-5.7,0.9-8.5c0.2-0.9,0.7-1.7,1.3-2.4c-0.3-0.9-0.8-1.7-1.5-2.4l-0.1-0.1
			c-0.4,0.2-0.8,0.4-1.2,0.7c-1.2,0.8-2.5,1.6-3.6,1.3c-0.2-0.1-0.3-0.2-0.3-0.4c-0.2-1.3,0.4-2.6,1.6-3.2c1.2-0.5,2.6-0.2,3.6,0.7
			c1.4-0.6,2.9-1,4.4-1.3c0.6-0.1,1.3-0.3,1.9-0.4c1.4-0.3,2.8-0.7,4.2-1.1l3.7-1c-1.1,0.2-2.3,0.1-3.4-0.3
			c-2.2-0.9-2.5-2.5-2.8-4.3v-0.1c-0.1,0.1-0.2,0.2-0.4,0.3c-0.7,0.5-1.5,0.6-2.3,0.4c-2.6-0.6-2.1-3.7-1.6-5.7
			c-0.1-0.1-0.3-0.2-0.4-0.4c-0.3,0-0.6,0-0.9,0c0,0.4,0,0.8,0,1.1c0.2,1.9,0.1,3.8-0.2,5.7c-0.1,0.8-0.2,1.6-0.3,2.3
			c0,0.2-0.1,0.3-0.3,0.4c-2,0.6-3.9,1.3-5.7,2.3L178.1,140.8z M184.4,178.3c0.3,0.1,0.7,0.1,1,0.2c0-0.5,0-0.9,0.1-1.4
			c-0.3,0.2-0.5,0.4-0.7,0.7C184.6,177.9,184.5,178.1,184.4,178.3L184.4,178.3z M185.4,146.8c-0.3,0.5-0.6,1.1-0.8,1.7
			c-0.7,2.7-1,5.5-0.9,8.2c0,1.1,0,2.2-0.1,3.3c-0.3,5.8-0.2,11.7,0.3,17.5l0.2-0.2c0.4-0.5,0.9-0.9,1.5-1.2l0.1-2.1
			c0.5-7.4,1.1-15.2,0.4-22.7v-0.3C185.9,149.5,185.7,148.1,185.4,146.8L185.4,146.8z M166.2,160.8c0.1,2.9,0.4,5.7,0.9,8.5
			c0.2,1.2,0.4,2.4,0.6,3.5l0.4,2.6C167.9,170.5,167.3,165.6,166.2,160.8L166.2,160.8z M186.5,145.1L186.5,145.1
			c1.3,0,2.4,1.4,3,3.6c0.3,1.8,0.4,3.6,0.2,5.4c-0.1,3.1-0.2,6.3,1.2,7.6c0.7,0.6,1.7,0.8,2.6,0.6c6.2-0.8,10.4-2.6,10.7-9
			c0-0.7,0.1-1.6,0.2-2.6c0.4-4.1,1.1-10.2-2-12c-0.2-0.1-0.5-0.2-0.8-0.3c-2.5,0.5-5,1.2-7.4,1.8c-1.4,0.4-2.8,0.8-4.2,1.1
			c-0.7,0.2-1.3,0.3-2,0.4c-1.3,0.2-2.6,0.6-3.9,1c0.7,0.7,1.2,1.5,1.5,2.4C186,145.2,186.2,145.1,186.5,145.1L186.5,145.1z
			 M106,152.6c1,0,1.9,0,2.6,0.1c1.1,0.1,2.4,0.3,3.8,0.5c1.1,0.2,2.2,0.3,3.2,0.5c1.8-0.1,3.7-0.1,5.5-0.1c4.2,0,8.5,0,12.6-1.1
			c-0.4-1.6-1.1-3.3-1.6-5c-0.5-1.3-1-2.7-1.3-4c-1.4-4.6-2.8-9.9-2.6-14.6c0.2-2.5,0.6-5,1.3-7.5c0.7-2.6,1.2-5.3,1.3-8
			c0-2.7-1.1-4.7-2.3-6.9c-1.1-1.7-1.9-3.7-2.3-5.7c0-0.1,0-0.3,0-0.4c-5.5,4.1-14.5,5.3-20.7,5c-0.2,0-0.4-0.2-0.4-0.4
			c-0.1-2.4-0.6-4.8-1.7-7c-1.6,8.8-2.9,17.9-3.9,27c-0.1,1-0.2,1.9-0.3,2.8c-0.8,8.1-1.6,15.7-5.5,23.1c1.8,1.6,7,1.6,10.9,1.5
			L106,152.6z M158.9,126.5c-2.1,7.2,0.9,14.5,3.9,21.6c0.7,1.8,1.5,3.5,2.1,5.2c-0.2-2.9-0.7-5.7-1.3-8.6c-0.5-2-0.8-4-1.1-5.8
			c-0.3-1.6-0.5-3-0.8-4.5C160.9,131.7,160,129,158.9,126.5L158.9,126.5z M179.2,144.5c1-0.2,1.9-0.6,2.6-1.2l0.9-0.6
			c-0.7-0.5-1.6-0.6-2.4-0.3C179.5,142.8,179.1,143.7,179.2,144.5L179.2,144.5z M75.2,137.5c0.8,0.4,1.8,0.4,2.6,0
			c1.9-1.4,1.5-6.3,1.4-7.8c-0.1-0.9-0.3-1.8-0.6-2.7c-1.9-0.3-3.4-0.1-4.3,0.6s-1.4,2.1-1.4,4v0.2c0,2.2,0.3,3.5,0.7,3.9
			c0.1,0.1,0.2,0.1,0.4,0.1c0.4-0.1,0.5-1.5,0.5-2.3c0-0.9,0.2-1.7,0.6-2.5c0.1-0.2,0.4-0.2,0.6-0.1c0,0,0,0,0,0
			c2.2,1.7,1.2,3.4,0.4,4.8C75.6,136.3,75.4,136.9,75.2,137.5L75.2,137.5z M192.2,132.8c0.1,0.3,0.1,0.6,0.2,0.8
			c0.3,1.8,0.5,3,2.3,3.7c1.2,0.3,2.5,0.4,3.7,0.2c1.1-0.1,2.1-0.1,3.2,0c-0.8-0.4-1.8-0.5-2.7-0.4c-1,0.2-2.1,0.1-3-0.4
			c-0.7-0.6-1.2-1.4-1.4-2.3c-0.4-1-0.8-2-1.4-2.2c-0.2-0.1-0.4-0.1-0.7,0C192.4,132.6,192.3,132.7,192.2,132.8L192.2,132.8z
			 M29.3,120.6c-1.5,0-3,0.4-4.4,1.1c-2,0.8-3.1,2.9-2.5,5c0.8,3.2,4.6,6.9,8.5,7.1c0.1-1.2,0.1-2.4-0.1-3.7c-0.2-1.5-0.3-3-0.1-4.5
			c0-0.1,0.1-0.3,0.3-0.3c0.1,0,0.3,0,0.4,0.1c1.2,1,2.5,1.9,3.9,2.6c-0.2-1.9-0.8-3.8-1.8-5.5C32.4,121.2,30.9,120.5,29.3,120.6z
			 M183.9,127.4c-0.6,1.3-1,3.7-0.3,4.8c0.3,0.5,0.8,0.7,1.4,0.7c0-0.7,0-1.4,0-2.2c0-0.3,0-0.7,0-1
			C184.9,128.8,184.5,128,183.9,127.4z M33.8,128.2c0.2,0.4,0.3,0.8,0.4,1.2c0.2,0.7,0.5,1.3,0.8,1.9c0.3-0.7,0.3-1.5,0.3-2.3
			C34.8,128.8,34.3,128.5,33.8,128.2z M192.5,117.8c-0.7,1.9-0.4,4.3,0,6.6c0.1-0.5,0.2-0.9,0.3-1.4c0-0.2,0.1-0.5,0.1-0.8v-0.4
			C193.1,120.3,193.3,118.8,192.5,117.8z M39.1,53.1c-0.7,0.1-1.3,0.2-2,0.3s-1.2,0.2-1.9,0.3s-1.4,0.2-2.3,0.3
			c-1.8,0.2-4,0.4-4.9,1c-2,1.5-2.5,6.3-2.9,10.1c-0.1,1.5-0.3,3.1-0.7,4.6c-0.8,3-1.2,6-1.3,9.1c-0.1,1.3-0.1,2.8-0.3,4.2
			c-0.3,2-0.8,3.9-1.6,5.8c-1,2.2-1.5,4.5-1.7,6.9c0.1,1.8,0.2,3.6,0.5,5.4c0.4,2.5,0.5,5.1,0.3,7.7c-0.4,4.1-0.7,8.7,0.2,12.3
			c3.2-1.3,6.6-2.2,10-2.7c0-0.4-0.1-0.8-0.1-1.3c-0.5,0.2-1,0.3-1.5,0.2c-2.6-0.3-5.3-3.8-6.1-6.2c-1.4-3.7-0.7-6.8,0-10.1
			c0.4-1.7,0.6-3.4,0.8-5.1c0.1-1.9,0-3.7,0-5.5C23,87,23.2,83.5,24,80c0.9-3.6,1.5-7.3,1.9-11c0.2-1.7,0.4-3.5,0.7-5.3
			c0-0.3,0.1-0.7,0.1-1c0.3-2.2,0.6-4.6,2.3-5.8c1.5-0.8,3.1-1.5,4.7-1.8c0.9-0.3,1.7-0.5,2.3-0.7C37.1,53.9,38.1,53.5,39.1,53.1z
			 M32.1,87.8L32,88.2c-0.5,1.4-1,2.9-1.4,4.4c-1.9,6.6-1,12.9-0.2,19c0.2,1.3,0.4,2.7,0.5,4.1c0.1-0.2,0.3-0.4,0.4-0.6
			c0.4-0.6,0.4-3.2,0.4-4.7c0-0.5,0-1,0-1.3c0.1-1.8,0.1-3.4,0.2-5.2c0-1,0.1-2,0.1-3c0.1-3.6,0.1-7.3,0-10.9
			C32.2,89.3,32.2,88.6,32.1,87.8z M186.1,114.2c2.4,0.4,4.9,0.6,7.4,0.5c0.1-1.6,0.3-3.3,0.5-4.9c0.4-2.2,0.6-4.4,0.5-6.7
			c-0.1-2.3-0.4-4.7-0.8-7c-0.2-1.6-0.4-3.1-0.6-4.7c-0.3-2.8-0.5-5.7-0.6-8.5c-0.5-8.4-1.1-17.2-4.5-24.9
			c-2.9-6.4-15.8-11.6-21.5-13.6c-1.3,2.1-4,6.7-4.7,10.2c0,0.2-0.2,0.3-0.3,0.3c-0.2,0-0.3,0-0.4-0.2l-0.3-0.3
			c-0.5-0.7-1.1-1.4-1.6-2c-0.3,1.1-0.8,2.2-1.4,3.3c-0.1,0.3-0.3,0.5-0.4,0.7c0,0.1-0.1,0.2-0.2,0.2c-0.1,0-0.2,0-0.3,0l-0.2-0.1
			c-0.6,4,0.1,8.3,0.7,12.6c0.4,2.6,0.7,5.2,0.9,7.8c0.1,2.3,0.3,4.7,0.5,7c0.3,3.2,0.5,6.6,0.5,9.9c0,0.6,0,1.3,0.1,1.9
			c0.2,1.5,0.1,3-0.3,4.5c-0.3,0.9-0.8,1.8-1.4,2.6c-0.5,0.7-1,1.5-1.3,2.3l0.4-0.1c0.6-1.4,1.4-2.7,2.3-3.8l1.9-2.2
			c0.1-0.1,0.3-0.2,0.4-0.1c6.5,1.3,13.2,1.5,19.7,0.4c0.1-1.5,0.3-3,0.6-4.5c0.1-0.6,0.2-1.2,0.4-1.8c-0.4-1.7-0.7-3.5-1-5.3
			c-0.6-4.5-1.5-8.9-2.6-13.3c-0.3-1-0.6-2.1-1-3.2c-1-3.1-2.1-6.3-1.6-9.2c0-0.1,0.1-0.2,0.2-0.3c0.1-0.1,0.3-0.1,0.4,0
			c4.8,2.2,5.3,10.2,5.7,15.4c0,0.6,0.1,1.2,0.1,1.7c0.1,1.1,0.2,2.3,0.4,3.5c0.3,2.7,0.5,5.3,0.6,8c0,0.9-0.1,1.8-0.3,2.7
			c0.2,0.8,0.4,1.7,0.5,2.5c0.4,2,0.9,4,1.2,6.1C186.3,104,186.4,109.7,186.1,114.2z M139.2,112.6c0.6,0.7,1,1,1.3,1
			c0.5,0,1.1-0.9,1.9-2.1l0.2-0.2c1.2-1.7,2.2-3.5,3.1-5.3l-0.2-0.2l-0.6,0.7c-1,1.1-2,2.2-3.1,3.3l-0.7,0.7
			C140.3,111,139.6,111.8,139.2,112.6L139.2,112.6z M150.7,48.5c-2.1,2.5-4.3,4.9-6.4,7.3l-2,2.2c-3.5,4-3.9,5.8-3.7,11.2
			c0,1.8-0.1,3.6-0.4,5.4c-0.1,0.8-0.2,1.6-0.3,2.4c-0.1,1.6,0.1,3.3,0.5,4.8c0.2,0.8,0.4,1.6,0.5,2.5c0.1,1.4,0,2.8-0.4,4.2
			c-0.3,1.1-0.4,2.2-0.4,3.3c0.1,0.4,0.2,0.9,0.4,1.3c0.2,0.6,0.4,1.1,0.5,1.7c0,0.9,0,1.9-0.2,2.8c-0.1,0.4-0.1,0.8-0.1,1.1
			c-0.1,0.9-0.3,2-0.5,3.2c-0.6,3.3-1.3,7.3,0.4,9.9c0.5-0.8,1.1-1.5,1.9-2.1l0.7-0.6c1.1-1,2.1-2.2,3.1-3.3l0.8-0.9
			c-0.6-1.6-1-3.3-1.1-5c-0.1-0.6-0.2-1.2-0.3-1.8c-0.6-4.5-1-9.1-1.2-13.7c-0.1-0.8-0.2-1.9-0.4-3c-0.5-3.2-1-6.9,0.4-9
			c0.1-0.1,0.2-0.2,0.4-0.2c0.1,0,0.3,0.1,0.3,0.2c3.1,6,3.3,19,3.3,24.6c0,0.3,0,0.7,0,1c-0.1,1.3-0.1,3.1,0.6,3.9
			c0.5,0.4,1.1,0.7,1.8,0.7c0.6,0.1,1.1,0.2,1.7,0.4c1,0.5,1.9,1.2,2.7,2l0.3,0.2c0.6-0.1,1.2-0.3,1.8-0.4c-2.7-1.8-5.7-3.8-6.3-7.5
			c-0.4-3.2-0.3-6.4,0.1-9.6c0.1-1.2,0.2-2.4,0.3-3.5c0.2-4.1,0.7-8.1,1.1-12c0.2-1.4,0.3-2.8,0.5-4.2c0.2-1.7,0.6-3.6,0.9-5.4
			c0.7-2.9,1.1-5.9,1.1-8.9c0-0.2,0.1-0.4,0.4-0.4c0.1,0,0.1,0,0.2,0c0.8,0.3,1.6,0.7,2.3,1.3l0.4,0.2c0.3-1.5,0.9-2.9,1.6-4.3
			l-0.4-0.3c-0.4-0.3-0.8-0.7-1.1-1.2c-0.1-0.2,0-0.4,0.1-0.6l0.8-0.5c-0.5,0.1-1,0-1.4-0.1c-1.2-0.3-2.8-1.3-3.8-4.4
			c-0.1,1-0.1,2-0.2,3c0.4,0.2,0.9,0.4,1.3,0.6c0.7,0.4,1.5,0.7,2.2,0.9c0.2,0,0.4,0.3,0.3,0.5c0,0.1,0,0.1-0.1,0.2
			c-1.4,2.1-2.6,4.4-3.7,6.7c-0.1,0.2-0.3,0.3-0.5,0.3c-0.2,0-0.3-0.2-0.4-0.4C150.7,53.2,150.7,50.8,150.7,48.5z M154.2,106.1
			c0.4,0.3,0.9,0.6,1.4,0.9c0.2-0.4,0.4-0.8,0.6-1.3L154.2,106.1z M146.7,105.7c1,0.6,2.6,0.6,5.1,0l0.6-0.1
			c-0.7-0.7-1.4-1.2-2.3-1.7c-0.5-0.2-0.9-0.3-1.4-0.3c-0.4,0-0.8-0.1-1.2-0.3c0,0.1,0,0.1,0,0.2C147.2,104.3,147,105,146.7,105.7
			L146.7,105.7z M161.4,99.5l-1.8,2c-0.7,0.9-1.4,1.9-1.9,3c7.5-1.2,15.1-2,22.7-2.3c0.1-0.3,0.1-0.6,0.3-0.9
			c0.1-0.3,0.2-0.6,0.3-0.9c0-0.2,0.1-0.3,0.3-0.4c0.8-0.3,1.6-0.2,2.3,0.2c-0.3-1.6-0.6-3.2-1-4.8c0-0.2-0.1-0.4-0.1-0.6
			c-0.3,1.5-0.5,3-0.6,4.5c0,0.2-0.1,0.4-0.4,0.4C174.8,100.9,168,100.9,161.4,99.5L161.4,99.5z M142.8,73.6
			c-0.8,1.9-0.3,5.1,0.1,7.7c0.2,1.2,0.3,2.3,0.4,3.1c0.2,4.6,0.6,9.1,1.2,13.6c0.1,0.6,0.2,1.3,0.3,1.8c0.1,1.5,0.4,3,0.9,4.4
			l1.1-1.2l0.1-0.1c-0.2-0.1-0.4-0.3-0.5-0.4c-0.9-1.1-0.8-3-0.8-4.5c0-0.4,0-0.7,0-1C145.6,91.8,145.4,79.7,142.8,73.6z
			 M153.7,54.5c-0.1,2.9-0.4,5.7-1.1,8.5c-0.4,1.8-0.7,3.6-0.9,5.3c-0.1,1.4-0.3,2.8-0.5,4.2c-0.5,4.1-1,7.9-1.1,12
			c-0.1,1.2-0.2,2.3-0.3,3.6c-0.4,3.1-0.4,6.3-0.1,9.4c0.6,3.3,3.2,5.2,5.8,6.9c0.3-0.8,0.8-1.6,1.3-2.3c0.5-0.7,1-1.5,1.3-2.3
			c0.3-1.4,0.4-2.8,0.3-4.2c0-0.6-0.1-1.3-0.1-1.9c0-3.3-0.3-6.6-0.5-9.9c-0.2-2.3-0.4-4.6-0.5-7c-0.2-2.6-0.4-5.1-0.9-7.7
			c-0.6-4.4-1.3-9-0.6-13.2l-0.6-0.4C154.7,55.1,154.2,54.8,153.7,54.5z M70.1,83c-1.6,6.6-0.7,15.9-0.3,20.6v0.3
			c0-1.1,0.1-2.2,0.1-3.3s0.1-2.4,0.2-3.7C70.5,92.4,70.9,86.8,70.1,83z M99.7,90.8c0,0.1,0,0.3,0,0.5c0.1,0.6-0.1,1.1-0.4,1.6
			c-0.9,0.8-1.1,0.9-1.7,1c-0.4,0.1-0.9,0.2-1.3,0.4c-0.4,0.1-0.9,0.2-1.4,0.3c-0.7,0.1-0.9,0.1-1.3,1.4c-0.3,1.4,0.2,2.8,1.3,3.8
			c1.4,1.4,3.5,2.1,4.9,1.6c1-0.4,1.7-1.3,1.8-2.4c0.2-1.2,0.2-2.5,0-3.7c-0.2-0.2-0.4-0.3-0.5-0.5c-0.3-0.6-0.5-1.4-0.4-2.1
			c0-0.5-0.1-0.9-0.2-1.4C100.1,91.1,99.9,90.9,99.7,90.8L99.7,90.8z M131.7,80.8c-0.6,1.6-1.1,3.1-1.4,4.8
			c-0.4,1.8-0.9,3.5-1.5,5.2c-1,2.6-1.6,5.3-1.9,8c1.3-1.2,2.3-2.7,2.8-4.3C131.1,90,131.8,85.4,131.7,80.8L131.7,80.8z M102.2,94.7
			c2.6,1.5,8.6-0.8,11.6-1.9l1-0.4l1.4-0.5c1.6-0.7,3.3-1.2,5.1-1.4c-1-3-0.7-6.7-0.4-9.9c0.1-0.7,0.1-1.3,0.2-1.9
			c0-0.6,0.9-12.1,5.3-14.3c1.3-0.6,2.9-0.4,4,0.5c3.1,2,2.7,6.7,2.4,10.5c0,0.2,0,0.3,0,0.5c0.5-1.4,0.8-2.8,1-4.3
			c0.5-4.9,0.4-7-2.9-11.6c-1-1.4-1.9-2.5-2.6-3.4c-1.3-1.5-2.2-2.6-2.6-4.2c-0.3,0.4-0.7,0.8-1.1,1c-0.7,0.4-1.5,0.3-2.1-0.2
			c-1.1,4,0.4,7.2,4.8,9.8c0.1,0.1,0.2,0.2,0.2,0.3c0,0.1-0.1,0.3-0.2,0.4c-1,0.6-2,1.4-3.1,2.2c-4.4,3.2-9.9,7.1-14.8,4.6
			c-0.4,0.3-0.9,0.5-1.4,0.6c-0.2,0.4-0.5,0.9-0.7,1.4c-0.9,1.8-1.9,3.8-3.2,4.2l0,0c-0.1,0.4-0.2,0.8-0.3,1.2
			c-0.3,1.1,0,3.5,0.2,5.7c0.4,3.4,0.8,6.4-0.5,7.1c-0.6,0.3-1.3,0.1-2.3-0.6C101.6,91.5,102,93.1,102.2,94.7z M122.6,91.4
			c0.8,1.4,2.1,2.5,3.6,3c0.4-0.3,0.5-0.7,0.4-1C126.4,92.4,124,91.5,122.6,91.4z M96.4,86.7c-0.1,1.8-0.6,3.6-1.3,5.3
			c-0.3,0.7-0.7,1.3-1.3,1.8c0.3-0.1,0.6-0.2,0.9-0.2c0.4,0,0.8-0.1,1.2-0.2c0.5-0.2,0.9-0.3,1.4-0.4c0.5-0.1,0.6-0.1,1.3-0.8
			c0.2-0.1,0.2-0.7,0.2-1c0-0.5,0-1.1,0.5-1.3c0.3-0.1,0.6-0.1,0.8,0.1c-0.5-1.4-1.6-2.6-3-3.2C96.9,86.8,96.7,86.8,96.4,86.7z
			 M95.6,86.7c-0.4,0-0.7,0.1-1,0.3c-1.1,0.8-1.8,2.1-2,3.4c-0.4,1.7,0,2.7,0.3,2.8s0.7-0.2,1.4-1.6C95.1,90.2,95.5,88.5,95.6,86.7
			L95.6,86.7z M122.2,90.5h0.3c1.1,0.1,3.9,0.9,4.8,2.2c0.2-0.8,0.5-1.5,0.7-2.3c0.6-1.7,1.1-3.4,1.4-5.1c0.5-2.1,1.2-4.2,2-6.3
			c0.1-0.2,0.1-0.4,0.2-0.5c0-1,0.1-2.1,0.2-3.3c0.3-3.7,0.7-8-2-9.7c-0.9-0.7-2.1-0.9-3.2-0.4c-3.1,1.6-4.5,9.6-4.8,13.6
			c-0.1,0.6-0.1,1.3-0.2,1.9C121.4,84,121.1,87.7,122.2,90.5L122.2,90.5z M100.1,88.2c1.9,1.8,2.6,1.8,2.8,1.7
			c0.8-0.4,0.4-3.8,0.1-6.2s-0.6-4.8-0.2-6.1c0.1-0.3,0.2-0.6,0.2-0.9l0,0c-1.7,0-3.4-1.5-4.9-4.4c0.2,3,0.6,5.8,1,8.5
			C99.5,83.2,99.9,85.6,100.1,88.2L100.1,88.2z M176.6,62.5c-0.2,2.6,0.8,5.5,1.7,8.2c0.4,1.1,0.7,2.2,1,3.2c1.1,4.4,2,8.9,2.6,13.4
			c0.1,0.8,0.3,1.6,0.4,2.5c0-2.6-0.2-5.1-0.6-7.7c-0.1-1.2-0.3-2.3-0.4-3.5c0-0.5-0.1-1.1-0.1-1.7C181,72.3,180.5,64.8,176.6,62.5
			L176.6,62.5z M96.5,85.9c0.3,0,0.6,0.1,0.8,0.2c0.7,0.2,1.3,0.6,1.8,1.1c-0.2-2.2-0.5-4.3-0.9-6.3c-0.6-3.6-1-7.2-1.1-10.8
			c0-0.2,0.1-0.4,0.3-0.4c0.2,0,0.4,0.1,0.5,0.3c0.8,1.9,2.7,6,5.1,5.9c0.1-2.1-1.3-3.2-3.3-4.9l-0.6-0.5c-1.5-1.3-2.7-1.8-3.3-1.5
			c-1.3,0.7-0.6,5.2-0.2,7.6l0.1,0.6C96.3,80,96.5,82.9,96.5,85.9z M57.4,81.2c0.3,0.5,0.5,0.9,0.8,1.4c2.6-2.6,4.3-6.6,6-10.4
			c0.8-1.8,1.5-3.5,2.3-5.1c-0.9-1.1-1.6-2.3-2.1-3.7c-0.2-0.3-0.2-0.5,0-0.7s0.4-0.2,0.7,0.1c0.4,0.2,0.9,0.3,1.3,0.4l0.5,0.1
			C66.6,62.2,66,61,65.2,60c-1.3-0.8-2.5-1.9-3.4-3.1c1.5,6.8,0.5,14.5-3,22.8c-0.1,0.3-0.2,0.6-0.4,0.8c-0.1,0.2-0.3,0.3-0.5,0.2
			c0,0,0,0,0,0c-0.2-0.1-0.3-0.3-0.2-0.6c0.1-0.3,0.3-0.6,0.4-0.8c2.4-6,0.7-12.5-0.9-18.9c-0.3-1.1-0.5-2.1-0.8-3.1l-1.9-0.3
			c-0.3,1-0.4,2.2-0.6,3.3c-0.1,0.7-0.2,1.4-0.3,2.1c0,0.2-0.2,0.3-0.4,0.3c-0.2,0-0.4-0.2-0.4-0.4c-0.1-1.8,0.1-3.6,0.6-5.3v-0.2
			c-0.1,0-0.1-0.1-0.2-0.2c-0.1-0.1-0.1-0.2,0-0.3c0.2-0.6,0.4-1.3,0.7-1.9c0.3-1.9-0.3-3.8-1.7-5.1L51.7,49
			c-1.7-1.8-2.3-2.3-3.8-1.5h-0.1c-0.5,0.7-1.2,1.4-1.8,2c1.2,3.6,2.8,7.2,4.3,10.7C52,64.1,53.6,68,54.9,72
			C55.8,75.1,56.7,78.1,57.4,81.2z M34.5,68.6c-2,2.3-1.8,9-1.6,13.1c0,0.2,0,0.5,0,0.7c0.2-0.8,0.4-1.5,0.5-2.3
			c0.1-0.6,0.3-1.3,0.5-2.1C34.8,74.9,35.9,70.4,34.5,68.6z M44.2,65.1c2.8,2.9,5.3,6,7.7,9.2c0.8,1,1.6,2,2.5,3
			c0.6,0.7,1.2,1.4,1.8,2.1c-0.6-2.3-1.3-4.6-2-7c-1.3-4-2.9-7.9-4.7-11.7c-1.5-3.4-3-6.9-4.2-10.5l-0.7,0.6
			c-0.7,2.2-1.1,4.5-1.3,6.7c-0.1,0.8-0.2,1.6-0.3,2.3c0.8,0.2,1.6,0.2,2.4,0.2c0.7,0,1.4,0.1,2.1,0.2c0.1,0,0.2,0.1,0.3,0.2
			c0,0.1,0,0.2,0,0.3c-0.5,1.1-1.2,2-2.1,2.8C45,64.1,44.6,64.6,44.2,65.1z M54.6,56.3l2,0.3c0.2,0,0.3,0.1,0.3,0.3
			c0.3,1.1,0.5,2.2,0.9,3.4c1.1,4.3,2.3,9,2.1,13.6c2.2-7.3,2.2-14,0-20c-0.1-0.2,0-0.3,0.1-0.5v-0.1c-0.3-1.3-0.4-2.6-0.3-3.9
			c-1.8,1-4,0.8-5.5-0.7c-2.2-2-3.8-6.4-4.4-11.8c-0.1-1-0.2-2-0.2-3c-0.1-0.3-0.3-0.5-0.4-0.5l0,0c-0.2,0-0.7,0.4-1,1.3
			c-0.6,1.5-0.2,3.1,1,4.1c0.1,0.1,0.1,0.1,0.2,0.3c0.6,2.4,0.2,4.9-1,7.1c1.5-0.3,2.4,0.7,3.8,2.1l0.4,0.4c1.2,1.1,1.9,2.6,2,4.3
			c0.2-0.2,0.5-0.4,0.7-0.5c0.2-0.1,0.4-0.1,0.6-0.1c0.9-0.7,1.9-1.1,3-1.2c0.1,0,0.3,0,0.3,0.1c0.1,0.1,0.1,0.2,0.1,0.3
			c-0.1,0.9-0.1,1.7,0,2.6c0.2,1.5,0.1,3-0.3,4.5c-0.1,0.2-0.2,0.3-0.4,0.3l0,0c-0.2,0-0.3-0.1-0.4-0.3c0-0.2-0.2-0.5-0.3-0.9
			c-0.4-1.5-0.9-3.1-1.6-4.5l-0.2-0.1C55.5,54.2,54.9,55.2,54.6,56.3z M110,69.8c4.4,1.8,9.4-1.8,13.5-4.8c0.9-0.7,1.8-1.3,2.6-1.8
			c-3.8-2.5-5.4-5.5-4.8-9.2c-1,1.8-2.3,3.5-3.7,5.1l-1.1,1.3l-0.4,0.5c-0.2,1-0.5,1.9-1,2.7C113.8,66.1,112.1,68.2,110,69.8z
			 M108.8,69.2l0.3,0.2c2.1-1.6,3.9-3.7,5.2-6c0.1-0.3,0.3-0.5,0.4-0.8c-0.4,0.4-0.8,0.8-1.2,1.2C111.8,65.5,110.2,67.3,108.8,69.2
			L108.8,69.2z M110.5,43.2c-1,3.2-1.4,10.6,0.4,13.1c0.9,1.3,2.2,2.3,3.7,2.8c0.5,0.1,1,0.4,1.4,0.8l0,0c0.4-0.4,0.7-0.9,1.1-1.3
			c2.6-3.1,5.2-6.3,4.7-10.7c-0.4-0.2-0.7-0.5-1-0.8c-0.6-0.8-1-1.8-1-2.8v-0.1c-0.6-0.4-1.2-0.7-1.9-0.9c-1-0.1-2.1-0.1-3.1,0.1
			C113.1,43.6,111.5,43.9,110.5,43.2L110.5,43.2z M56.9,52.8c0.4,0.3,0.8,1.5,1.6,4.2c0.1-0.9,0.1-1.7,0-2.6
			c-0.1-0.7-0.1-1.5-0.1-2.2C57.9,52.3,57.4,52.5,56.9,52.8z M156.8,55.5L156.8,55.5c0.1-0.1,0.2-0.2,0.2-0.4c0.5-1,1.4-2.9,1.3-3.5
			c0-0.1-0.1-0.2-0.1-0.3C157.6,52.7,157.1,54.1,156.8,55.5z M151.6,47.7c0,2,0,4,0.1,6c0.8-1.6,1.7-3.2,2.7-4.7
			c-0.6-0.2-1.3-0.5-1.9-0.8L151.6,47.7z M122.2,51.9c0.1,0,0.2,0.1,0.3,0.2c0.5,0.7,1,0.8,1.6,0.5c0.6-0.4,1.1-1,1.3-1.6
			c0-0.6,0-1.2,0.1-1.8c-0.3-0.9-0.8-0.9-1.7-0.9c-0.4,0-0.8,0-1.2-0.1C122.7,49.5,122.5,50.7,122.2,51.9z M124,47.5
			c0.6-0.1,1.1,0.1,1.6,0.5c0.9-6.2-1.2-9.9-6.2-11c-2.8-0.7-8.1,0.7-9.4,2.9c-0.4,0.6-0.3,1.4,0.1,2c0.1-0.2,0.2-0.3,0.3-0.5
			c1.3-1.3,6.2-1.2,7.9-0.4c1.2,0.5,2,1.6,2.1,2.9c1,0.9,1.7,2.2,1.9,3.6c0.4,0.1,0.8,0.1,1.3,0.1L124,47.5z M64.8,38.5
			c-1.8,2.8-3.1,6-3.9,9.2C62.5,46.3,63.8,42.1,64.8,38.5z M120.7,45.2c0.1,0.5,0.3,1,0.7,1.4l0.1,0.1
			C121.3,46.2,121,45.7,120.7,45.2z M164.1,41.4c-0.4,1.3-1.1,2.4-1.9,3.5l-0.1,0.1c0.5-0.4,0.9-0.9,1.2-1.4
			C163.8,43,164,42.2,164.1,41.4z M152,42.2l0.1,0c2.1,1.3,4.8,1.3,6.9-0.1c2.7-2,4.1-5.2,3.6-8.5c0-0.2,0.1-0.4,0.3-0.5
			c0.1,0,0.3,0,0.4,0.1c0.3,0.4,1,0.5,1.4,0.2c0,0,0.1,0,0.1-0.1c1.1-1,1.6-3.8,0.8-4.9c-0.1-0.2-0.5-0.8-1.7-0.2
			c-0.1,0.1-0.3,0.1-0.4,0c-0.1-0.1-0.2-0.2-0.2-0.4v-0.4c0.3-2.8,0.7-7.1-5.3-9.2c-2.6-0.9-6.5,0.3-8.6,1.9
			c-1.8,1.4-2.8,4.9-2.5,7.1c0.2,1.4,0.3,2.8,0.4,4.1c0.4,4.8,0.7,8.6,4.4,10.5C151.9,41.9,152,42,152,42.2z M117,42.4
			c0.4,0,0.7,0,1.1,0.1c0.5,0.1,1,0.3,1.5,0.6c-0.3-0.7-0.8-1.2-1.4-1.4c-1.5-0.7-6-0.7-7,0.3c-0.1,0.2-0.3,0.3-0.3,0.5
			c0.7,0.6,2.4,0.3,3.8,0.1C115.4,42.5,116.2,42.4,117,42.4L117,42.4z M57.9,25.4c0.5,0,1,0,1.5,0.1c3.5,0.3,5.8,1.3,6.9,3
			c0.9,1.5,1.1,3.2,0.7,4.9c0.7-1.3,1-2.7,0.9-4.1c-0.2-2.9-1.5-5.6-3.2-6.5c-3.8-2-10.1-1.3-12.6,2.7c-1,2-1.4,4.2-1.4,6.5
			c0-0.3,0.1-0.5,0.2-0.8c0.2-1.4,0.7-2.8,1.6-3.9C53.7,25.7,56,25.4,57.9,25.4L57.9,25.4z"/>
	</g>
</g>
</svg>
