<svg xmlns="http://www.w3.org/2000/svg" xmlns:xlink="http://www.w3.org/1999/xlink" viewBox="0 0 264.3 225.99"><defs><linearGradient id="linear-gradient" x1="15.6" y1="-722.43" x2="15.93" y2="-721.8" gradientTransform="matrix(211.51, 0, 0, -163.73, -3177.28, -118134.54)" gradientUnits="userSpaceOnUse"><stop offset="0" stop-color="#986e65" stop-opacity="0.75"/><stop offset="1" stop-color="#f0f3f5"/></linearGradient><linearGradient id="linear-gradient-2" x1="17.44" y1="-776.93" x2="17.78" y2="-771.1" gradientTransform="matrix(55.8, 0, 0, -21.2, -932.71, -16365.75)" gradientUnits="userSpaceOnUse"><stop offset="0" stop-color="#9cdbf0"/><stop offset="1" stop-color="#fff"/></linearGradient><linearGradient id="linear-gradient-3" x1="-224.04" y1="-659.68" x2="-226.73" y2="-658.81" gradientTransform="matrix(3.79, 0, 0, -33.34, 31.25, -24939.19)" gradientUnits="userSpaceOnUse"><stop offset="0" stop-color="#fff"/><stop offset="1"/></linearGradient><linearGradient id="linear-gradient-4" x1="-167.29" y1="-832.27" x2="-165.08" y2="-832.27" gradientTransform="matrix(3.7, 0, 0, -10.56, 18.64, -8692.42)" xlink:href="#linear-gradient-3"/><linearGradient id="linear-gradient-5" x1="-125.54" y1="-780.73" x2="-124.39" y2="-780.73" gradientTransform="matrix(7.41, 0, 0, -18.82, -20.39, -14583.36)" xlink:href="#linear-gradient-3"/><linearGradient id="linear-gradient-6" x1="100.61" y1="-1276.45" x2="101.17" y2="-1270.84" gradientTransform="matrix(2.03, 0, 0, -2.22, -30.15, -2745.04)" xlink:href="#linear-gradient-3"/><linearGradient id="linear-gradient-7" x1="83.71" y1="-1219.29" x2="84.85" y2="-1219.29" gradientTransform="matrix(2.28, 0, 0, -2.46, -147.62, -2915.34)" xlink:href="#linear-gradient-3"/></defs><title>KM Report</title><g id="Layer_2" data-name="Layer 2"><g id="Report"><path id="Path_19983" data-name="Path 19983" d="M41.13,138C4.81,182.73-13.69,217.43,20.3,225,47,230.87,106,209.31,141.24,215c15.91,2.56,58.6,12.74,85.27-14.83,23.72-24.52,44-97.4-11.58-80.91-22.31,6.62-12.51-63-56.11-61.35C127.91,59.05,71.67,100.44,41.13,138Z" style="fill:#986e65;opacity:0.150000005960464;isolation:isolate"/><path id="Path_19984" data-name="Path 19984" d="M232.61,152c-5.38,11.85-12.51,22.86-19.65,30.14-29.51,30-66.28,22.18-83.12,18.69-37.26-7.7-87.66,19.93-116,12.69-17.21-4.39-17.58-21.79-5.72-49.74,5.12-12.08,12.52-26.13,21.84-41.95,27.09-46,77.23-91.13,100-94,46.14-5.78,51.4,73.35,75.43,66.74C248.94,82.59,247,120.27,232.61,152Z" style="opacity:0.419999986886978;isolation:isolate;fill:url(#linear-gradient)"/><g id="Group_10768" data-name="Group 10768"><g id="Group_10766" data-name="Group 10766"><path id="Path_20014" data-name="Path 20014" d="M42.26,157.43a20.59,20.59,0,0,0-17-1.89l-.13-.32a20.9,20.9,0,0,1,17.35,1.91Z" style="fill:#fff"/></g></g><g id="Group_10770" data-name="Group 10770"><path id="Path_20016" data-name="Path 20016" d="M43.8,125.16c-1,.82,2.71,3.85,2.71,3.85S45.47,123.84,43.8,125.16Z" style="fill:#091d7b"/><path id="Path_20017" data-name="Path 20017" d="M44.56,129.75c.51-.51,2.45.67,3.59,2.77a19.9,19.9,0,0,0-2.38-.75C44.86,131.57,43.78,130.53,44.56,129.75Z" style="fill:#091d7b"/><path id="Path_20019" data-name="Path 20019" d="M49.72,128.26c-.87.07-1.42,4.65-1.42,4.65a9.56,9.56,0,0,0,2.15-2.11C51.17,129.68,50.57,128.18,49.72,128.26Z" style="fill:#091d7b"/><path id="Path_20020" data-name="Path 20020" d="M49.2,136.24s-2-2.83-4-2.47S46,136.18,49.2,136.24Z" style="fill:#091d7b"/><path id="Path_20022" data-name="Path 20022" d="M49.85,141.68s3.41-2,2.8-4.26S49.5,139.64,49.85,141.68Z" style="fill:#091d7b"/><path id="Path_20023" data-name="Path 20023" d="M49,136.74s3.52-1.74,3.07-4.07S48.81,134.69,49,136.74Z" style="fill:#091d7b"/></g><g id="Group_10771" data-name="Group 10771" style="opacity:0.129999995231628"><path id="Path_20024" data-name="Path 20024" d="M162.46,22.7A35,35,0,0,0,132.94,1.61c-.86-.07-1.74-.1-2.62-.1A34.91,34.91,0,1,0,162.46,22.7Zm-22.39,32a20.68,20.68,0,1,1-9.75-38.92c.53,0,1,0,1.55.06a20.68,20.68,0,0,1,8.2,38.87Z" style="fill:#091d7b"/><path id="Path_20025" data-name="Path 20025" d="M162.46,22.7l-13.12,5.62a20.68,20.68,0,0,0-17.47-12.48l1.07-14.23A35,35,0,0,1,162.46,22.7Z" style="fill:#091d7b;opacity:0.319999992847443;isolation:isolate"/><path id="Path_20026" data-name="Path 20026" d="M146.79,67.3A35.08,35.08,0,0,1,118,69.16L123,55.81a20.73,20.73,0,0,0,17.06-1.11Z" style="fill:#091d7b;opacity:0.479999989271164;isolation:isolate"/><path id="Path_20027" data-name="Path 20027" d="M163.49,47.49a35,35,0,0,1-16.7,19.81l-6.73-12.59A20.78,20.78,0,0,0,150,43Z" style="fill:#091d7b;opacity:0.72000002861023;isolation:isolate"/><path id="Path_20028" data-name="Path 20028" d="M132.94,1.61l-1.07,14.23c-.51,0-1-.06-1.54-.06a20.68,20.68,0,0,0-17.63,9.86c-4.52-2.77-9-5.51-12.18-7.43a34.93,34.93,0,0,1,29.81-16.7C131.2,1.51,132.08,1.54,132.94,1.61Z" style="fill:#091d7b;opacity:0.5799999833107;isolation:isolate"/></g><ellipse id="Ellipse_379" data-name="Ellipse 379" cx="53.89" cy="182.65" rx="17.41" ry="2.77" style="fill:#9faad4;opacity:0.219999998807907;isolation:isolate"/><ellipse id="Ellipse_380" data-name="Ellipse 380" cx="112.89" cy="172.06" rx="96.56" ry="2.77" style="fill:#9faad4;opacity:0.219999998807907;isolation:isolate"/><ellipse id="Ellipse_381" data-name="Ellipse 381" cx="181.15" cy="187.33" rx="17.41" ry="2.77" style="fill:#9faad4;opacity:0.219999998807907;isolation:isolate"/><ellipse id="Ellipse_382" data-name="Ellipse 382" cx="138.66" cy="176.18" rx="42.95" ry="2.77" style="fill:#9faad4;opacity:0.219999998807907;isolation:isolate"/><ellipse id="Ellipse_383" data-name="Ellipse 383" cx="239.7" cy="178.62" rx="17.41" ry="2.77" style="fill:#9faad4;opacity:0.219999998807907;isolation:isolate"/><path id="Path_20029" data-name="Path 20029" d="M21.06,170.42H214.73s-9.54-16-11.88-18.9c-8-9.81-14.92-6.45-19.55-4.07-10.21,5.24-14.31-5.08-20.85-20.78-4.95-11.88-11.69-17.56-18-18.61-5.62-.94-10.2,2.45-14.49,6.91-8.31,8.61-14.51,7.06-19.81-.46-2.38-3.38-4.18-7-6.55-9.42-3.8-3.89-8.29-5.59-12-4.41s-6.91,4.64-9.62,10.7c-2.11,4.75-6.09,9.67-9.32,9.13C67,119.58,63.5,120.26,61,126c-4.19,9.51-3.07,16.7-14.11,17.43C32.81,144.34,21.06,162.82,21.06,170.42Z" style="fill:#37193b;opacity:0.45;isolation:isolate"/><path id="Path_20030" data-name="Path 20030" d="M15.93,170.42H209.6s-9.54-16-11.89-18.9c-8-9.81-14.91-6.45-19.55-4.07-10.2,5.24-14.3-5.08-20.84-20.78-4.95-11.88-11.69-17.56-18-18.61-5.62-.94-10.2,2.45-14.5,6.91-8.31,8.61-14.51,7.06-19.8-.46-2.39-3.38-4.18-7-6.55-9.42-3.81-3.89-8.29-5.59-12-4.41s-6.92,4.64-9.62,10.7c-2.12,4.75-6.09,9.67-9.32,9.13-5.59-.93-9.1-.25-11.62,5.46-4.2,9.51-3.07,16.7-14.11,17.43C27.68,144.34,15.93,162.82,15.93,170.42Z" style="fill:#d0ebf5;opacity:0.6000000000000001"/><g id="Group_10772" data-name="Group 10772"><rect id="Rectangle_5121" data-name="Rectangle 5121" x="39.83" y="139.56" width="0.56" height="1.68" style="fill:#822b0e"/><path id="Path_20031" data-name="Path 20031" d="M40.39,166.38h-.56v-3.15h.56Zm0-6.29h-.56V157h.56Zm0-6.29h-.56v-3.14h.56Zm0-6.29h-.56v-3.14h.56Z" style="fill:#822b0e"/><rect id="Rectangle_5122" data-name="Rectangle 5122" x="39.83" y="169.51" width="0.56" height="1.68" style="fill:#822b0e"/></g><g id="Group_10773" data-name="Group 10773"><rect id="Rectangle_5123" data-name="Rectangle 5123" x="64.06" y="115.45" width="0.56" height="1.68" style="fill:#606060"/><path id="Path_20032" data-name="Path 20032" d="M64.62,165.62h-.56v-3.47h.56Zm0-6.93h-.56v-3.46h.56Zm0-6.93h-.56V148.3h.56Zm0-6.92h-.56v-3.47h.56Zm0-6.93h-.56v-3.46h.56Zm0-6.93h-.56v-3.46h.56Zm0-6.92h-.56v-3.47h.56Z" style="fill:#606060"/><rect id="Rectangle_5124" data-name="Rectangle 5124" x="64.06" y="169.08" width="0.56" height="1.68" style="fill:#606060"/></g><g id="Group_10774" data-name="Group 10774"><rect id="Rectangle_5125" data-name="Rectangle 5125" x="92.39" y="94.46" width="0.56" height="1.68" style="fill:#606060"/><path id="Path_20033" data-name="Path 20033" d="M93,165.14h-.56v-3.45H93Zm0-6.9h-.56v-3.45H93Zm0-6.9h-.56v-3.45H93Zm0-6.91h-.56V141H93Zm0-6.9h-.56v-3.45H93Zm0-6.9h-.56v-3.45H93Zm0-6.9h-.56v-3.45H93Zm0-6.9h-.56v-3.45H93Zm0-6.9h-.56v-3.45H93Zm0-6.9h-.56V99.58H93Z" style="fill:#606060"/><rect id="Rectangle_5126" data-name="Rectangle 5126" x="92.39" y="168.59" width="0.56" height="1.68" style="fill:#606060"/></g><g id="Group_10775" data-name="Group 10775"><rect id="Rectangle_5127" data-name="Rectangle 5127" x="122.52" y="115.45" width="0.56" height="1.68" style="fill:#606060"/><path id="Path_20034" data-name="Path 20034" d="M123.08,165.62h-.56v-3.47h.56Zm0-6.93h-.56v-3.46h.56Zm0-6.93h-.56V148.3h.56Zm0-6.92h-.56v-3.47h.56Zm0-6.93h-.56v-3.46h.56Zm0-6.93h-.56v-3.46h.56Zm0-6.92h-.56v-3.47h.56Z" style="fill:#606060"/><rect id="Rectangle_5128" data-name="Rectangle 5128" x="122.52" y="169.08" width="0.56" height="1.68" style="fill:#606060"/></g><g id="Group_10776" data-name="Group 10776"><rect id="Rectangle_5129" data-name="Rectangle 5129" x="145.35" y="101.72" width="0.56" height="1.68" style="fill:#606060"/><path id="Path_20035" data-name="Path 20035" d="M145.9,165.33h-.55v-3.44h.55Zm0-6.88h-.55V155h.55Zm0-6.88h-.55v-3.44h.55Zm0-6.88h-.55v-3.44h.55Zm0-6.88h-.55v-3.44h.55Zm0-6.88h-.55v-3.44h.55Zm0-6.88h-.55v-3.44h.55Zm0-6.89h-.55v-3.44h.55Zm0-6.88h-.55v-3.44h.55Z" style="fill:#606060"/><rect id="Rectangle_5130" data-name="Rectangle 5130" x="145.35" y="168.77" width="0.56" height="1.68" style="fill:#606060"/></g><g id="Group_10777" data-name="Group 10777"><rect id="Rectangle_5131" data-name="Rectangle 5131" x="181.1" y="142.59" width="0.56" height="1.68" style="fill:#822b0e"/><path id="Path_20036" data-name="Path 20036" d="M181.66,166h-.56v-3.62h.56Zm0-7.23h-.56v-3.61h.56Zm0-7.23h-.56v-3.61h.56Z" style="fill:#822b0e"/><rect id="Rectangle_5132" data-name="Rectangle 5132" x="181.1" y="169.56" width="0.56" height="1.68" style="fill:#822b0e"/></g><g id="Group_10778" data-name="Group 10778"><rect id="Rectangle_5133" data-name="Rectangle 5133" x="195.95" y="139.56" width="0.56" height="1.68" style="fill:#606060"/><path id="Path_20037" data-name="Path 20037" d="M196.51,166.38H196v-3.15h.56Zm0-6.29H196V157h.56Zm0-6.29H196v-3.14h.56Zm0-6.29H196v-3.14h.56Z" style="fill:#606060"/><rect id="Rectangle_5134" data-name="Rectangle 5134" x="195.95" y="169.51" width="0.56" height="1.68" style="fill:#606060"/></g><g id="Group_10779" data-name="Group 10779"><path id="Path_20038" data-name="Path 20038" d="M37.69,134.21a1.64,1.64,0,0,0,.84.24c.67,0,.87-.42.86-.74,0-.53-.48-.76-1-.76h-.29v-.39h.29c.37,0,.85-.19.85-.64s-.19-.58-.67-.58a1.39,1.39,0,0,0-.76.26l-.14-.38a1.88,1.88,0,0,1,1-.29c.75,0,1.09.44,1.09.91a.94.94,0,0,1-.7.9h0a1,1,0,0,1,.85,1c0,.61-.48,1.14-1.39,1.14a1.9,1.9,0,0,1-1-.25Z" style="fill:#822b0e"/><path id="Path_20039" data-name="Path 20039" d="M43.11,132.86c0,1.29-.48,2-1.32,2s-1.26-.7-1.26-2,.55-2,1.32-2S43.11,131.64,43.11,132.86Zm-2.07,0c0,1,.31,1.56.78,1.56s.78-.62.78-1.59-.24-1.56-.78-1.56-.78.56-.78,1.6Z" style="fill:#822b0e"/></g><g id="Group_10780" data-name="Group 10780"><path id="Path_20040" data-name="Path 20040" d="M193.74,134.21a1.7,1.7,0,0,0,.85.24c.66,0,.87-.42.86-.74,0-.53-.49-.76-1-.76h-.28v-.39h.28c.38,0,.86-.19.86-.64s-.2-.58-.67-.58a1.42,1.42,0,0,0-.77.26l-.13-.38a1.83,1.83,0,0,1,1-.29c.75,0,1.09.44,1.09.91a1,1,0,0,1-.71.9h0a1,1,0,0,1,.86,1c0,.61-.48,1.14-1.4,1.14a1.92,1.92,0,0,1-1-.25Z" style="fill:#37193b"/><path id="Path_20041" data-name="Path 20041" d="M199.17,132.86c0,1.29-.48,2-1.33,2s-1.25-.7-1.26-2,.56-2,1.33-2S199.17,131.64,199.17,132.86Zm-2.07.06c0,1,.3,1.55.77,1.55s.78-.61.78-1.59-.24-1.56-.77-1.56S197.1,131.88,197.1,132.92Z" style="fill:#37193b"/></g><g id="Group_10781" data-name="Group 10781"><path id="Path_20042" data-name="Path 20042" d="M178.81,138.1v-.32l.4-.39c1-.93,1.42-1.42,1.42-2a.69.69,0,0,0-.62-.75h-.14a1.26,1.26,0,0,0-.8.32l-.17-.37a1.64,1.64,0,0,1,1.08-.38,1.08,1.08,0,0,1,1.17,1v.14c0,.7-.51,1.27-1.31,2l-.31.28h1.71v.43Z" style="fill:#822b0e"/><path id="Path_20043" data-name="Path 20043" d="M184.35,136.15c0,1.3-.48,2-1.32,2s-1.25-.7-1.26-2,.55-2,1.33-2S184.35,134.94,184.35,136.15Zm-2.07.06c0,1,.31,1.55.78,1.55s.78-.61.78-1.59-.24-1.55-.78-1.55-.78.54-.78,1.59Z" style="fill:#822b0e"/></g><g id="Group_10782" data-name="Group 10782"><path id="Path_20044" data-name="Path 20044" d="M63.79,106.86a1.59,1.59,0,0,0-.38,0,1.56,1.56,0,0,0-1.33,1.36h0a1.16,1.16,0,0,1,2.07.79A1.28,1.28,0,0,1,63,110.38H62.9c-.81,0-1.35-.64-1.35-1.63A2.37,2.37,0,0,1,62.2,107a2.07,2.07,0,0,1,1.22-.57,2.31,2.31,0,0,1,.37,0Zm-.14,2.2a.79.79,0,0,0-.67-.87h-.12a.84.84,0,0,0-.74.47.46.46,0,0,0-.06.23c0,.62.3,1.09.84,1.09s.75-.37.75-.92Z" style="fill:#822b0e"/><path id="Path_20045" data-name="Path 20045" d="M67.16,108.36c0,1.3-.48,2-1.32,2s-1.25-.7-1.26-2,.55-2,1.33-2S67.16,107.15,67.16,108.36Zm-2.07.06c0,1,.31,1.56.78,1.56s.78-.62.78-1.59-.24-1.56-.78-1.56-.78.55-.78,1.59Z" style="fill:#822b0e"/></g><g id="Group_10783" data-name="Group 10783"><path id="Path_20046" data-name="Path 20046" d="M122.46,106.86a1.7,1.7,0,0,0-.39,0,1.55,1.55,0,0,0-1.32,1.36h0a1.17,1.17,0,0,1,2.08.79,1.28,1.28,0,0,1-1.21,1.35h-.06c-.82,0-1.35-.64-1.35-1.63a2.37,2.37,0,0,1,.65-1.71,2.07,2.07,0,0,1,1.22-.57,2.31,2.31,0,0,1,.37,0Zm-.15,2.2a.78.78,0,0,0-.66-.87h-.12a.81.81,0,0,0-.74.47.46.46,0,0,0-.06.23c0,.62.3,1.09.84,1.09S122.31,109.61,122.31,109.06Z" style="fill:#37193b"/><path id="Path_20047" data-name="Path 20047" d="M125.83,108.36c0,1.3-.48,2-1.32,2s-1.26-.7-1.26-2,.55-2,1.32-2S125.83,107.15,125.83,108.36Zm-2.07.06c0,1,.3,1.56.77,1.56s.78-.62.78-1.59-.24-1.56-.77-1.56-.78.55-.78,1.59Z" style="fill:#37193b"/></g><g id="Group_10784" data-name="Group 10784"><path id="Path_20048" data-name="Path 20048" d="M90.37,88.39a2,2,0,0,0,.42,0,1.35,1.35,0,0,0,.8-.37,1.65,1.65,0,0,0,.5-1h0a1.09,1.09,0,0,1-.89.41,1.11,1.11,0,0,1-1.13-1.08v-.09a1.3,1.3,0,0,1,1.26-1.35h0c.78,0,1.26.64,1.26,1.61A2.37,2.37,0,0,1,92,88.27a2.33,2.33,0,0,1-1.58.54Zm.19-2.2a.73.73,0,0,0,.65.81s.06,0,.08,0a.88.88,0,0,0,.76-.39.43.43,0,0,0,0-.19c0-.65-.24-1.15-.78-1.15s-.75.38-.75.92Z" style="fill:#822b0e"/><path id="Path_20049" data-name="Path 20049" d="M95.62,86.8c0,1.3-.48,2-1.33,2s-1.25-.7-1.25-2,.55-2,1.32-2S95.62,85.59,95.62,86.8Zm-2.07.06c0,1,.3,1.56.77,1.56s.78-.62.78-1.59-.24-1.56-.77-1.56-.78.55-.78,1.59Z" style="fill:#822b0e"/></g><g id="Group_10785" data-name="Group 10785"><path id="Path_20050" data-name="Path 20050" d="M145.5,92.27v.34l-1.66,3.48h-.54L145,92.71h-1.87v-.43Z" style="fill:#822b0e"/><path id="Path_20051" data-name="Path 20051" d="M148.57,94.14c0,1.29-.48,2-1.33,2s-1.25-.7-1.26-2,.56-2,1.33-2S148.57,92.92,148.57,94.14Zm-2.07.06c0,1,.3,1.55.77,1.55s.78-.62.78-1.59-.24-1.56-.77-1.56-.78.56-.78,1.6Z" style="fill:#822b0e"/></g><path id="Path_20052" data-name="Path 20052" d="M84.41,27.47c-.08,3.65-6.88,3.63-6.88,3.63H23.35c-4.24-.91-2.91-4-.27-4.76,1.21-.34,3.24-.95,3.06-1.79-.66-3.12-2.2-5.36,1.76-9,1.24-1.16,5-2.21,8.51-.34,2.93,1.53,4.81-4.39,11.16-7.31,4.78-2.21,11.29-1,13,6.36s5.77,2.47,6.46,1.64c2-2.41,7.86-1.12,8.77,2.25,1.73,6.36,3.55,5.36,5.08,5.75S84.45,25.57,84.41,27.47Z" style="fill:url(#linear-gradient-2)"/><g id="Group_10786" data-name="Group 10786"><path id="Path_20053" data-name="Path 20053" d="M234.14,178.33c-.47.18-6.56.08-9.09,0a.58.58,0,0,1-.56-.6.55.55,0,0,1,.18-.4,5.89,5.89,0,0,1,3.65-1.49,2,2,0,0,0,1.63-.79,10.14,10.14,0,0,0,1.25-4.29c0-.27.56-.64.53-.94-.21-2.59,3.69.39,3.69.39a3.35,3.35,0,0,0-.29,1.2c0,.76-1.09,2.69-.87,3.58,0,.13.06.25.1.37C234.84,176.88,234.74,178.1,234.14,178.33Z" style="fill:#805745"/><path id="Path_20054" data-name="Path 20054" d="M234.14,178.33c-.51.2-7.6.06-9.64,0-.26,0-.37-.28-.25-.52a4.74,4.74,0,0,1,4-2.34,2.68,2.68,0,0,0,1.91-.84c.86,0,1.54.43,1.52,1.2,0,.46,1.44.59,2.58-.83a3.49,3.49,0,0,0,.1.38C234.84,176.88,234.74,178.1,234.14,178.33Z" style="fill:#202952"/></g><g id="Group_10787" data-name="Group 10787"><path id="Path_20055" data-name="Path 20055" d="M257.82,176.39A1.16,1.16,0,0,1,258,178a1.17,1.17,0,0,1-.89.41h-4.46c-.8,0-1.89-.63-1.68-2.67q0-.18,0-.39c.07-1,.07-2.15.05-3.11,0-1.15-.08-2-.08-2l3.39-2.05.68-.41s0,.14-.05.39a26.44,26.44,0,0,0-.22,4.08,5.32,5.32,0,0,0,.61,2.59,1.07,1.07,0,0,0,.46.38A7.72,7.72,0,0,1,257.82,176.39Z" style="fill:#805745"/><path id="Path_20056" data-name="Path 20056" d="M259,177.8a.44.44,0,0,1-.23.59.48.48,0,0,1-.18,0h-5.92c-.8,0-1.89-.63-1.68-2.67q0-.18,0-.39c.61.39,1,.62,1.47.12a3,3,0,0,1,2.51-1c.37,0,.45.47.6.59a.85.85,0,0,0,.25.17A5.39,5.39,0,0,1,259,177.8Z" style="fill:#202952"/></g><path id="Path_20057" data-name="Path 20057" d="M256.69,156v0q-.49,7.38-1.27,16h-4.67l-3.31-43.81-12,43.81h-5.53s6.57-42.78,10.3-56,17.53-.85,17.53-.85,0,.39.05,1.18A394.18,394.18,0,0,1,256.69,156Z" style="fill:#822b0e"/><path id="Path_20058" data-name="Path 20058" d="M256.69,156.07c1-25.41-3.16-36.71-3.16-36.71l4.23-1.41A367.32,367.32,0,0,1,256.69,156.07Z" style="opacity:0.150000005960464;isolation:isolate;fill:url(#linear-gradient-3)"/><path id="Path_20059" data-name="Path 20059" d="M225.25,99.19l0,.36.2,1.74s-.31-.09-.74-.17a6,6,0,0,0-1.63-.1l-.18,0a8.63,8.63,0,0,1-4.69-.43c-.76-.36-.44-.65-.44-.65-1.7-.37-1.53-1-1.17-1.06s1.18.07,1.28.08c-.72-.12-1.4-.45-1.39-.71s.36-.31,1-.18a19.92,19.92,0,0,0,3.78.18c.88-.09.5-.34.1-.86s-1-1.31-.67-1.54,1.67,1.31,2.16,1.65l1,.7Z" style="fill:#805745"/><path id="Path_20060" data-name="Path 20060" d="M240.44,93.54c.77,2.13,1.38,4.26,1.38,4.26s-2.41,6.29-4.23,7.75a2.22,2.22,0,0,1-.27.19c-1.36.73-13-3.66-13-3.66l.84-3.68,9.1,2a.39.39,0,0,0,.46-.28h0c.41-1.8,2.67-11.1,3.91-11.9C239.37,87.78,239.59,91.18,240.44,93.54Z" style="fill:#698ca0"/><path id="Path_20061" data-name="Path 20061" d="M240.45,93.7c.76,2.12,1.37,4.26,1.37,4.26s-2.4,6.29-4.23,7.75c2.28-4.31,2.62-12.08,2.62-12.08Z" style="opacity:0.150000005960464;isolation:isolate;fill:url(#linear-gradient-4)"/><path id="Path_20062" data-name="Path 20062" d="M262,96.58a26.18,26.18,0,0,1-1.19,3.77,50.63,50.63,0,0,0-3.05,15.29,24.76,24.76,0,0,1-4,.81,41.34,41.34,0,0,1-13.58-.82c0-10.16-3.37-26.17-1.3-27.52s6.18-3.78,9.75-4.09l3.83-.11c8.19,1.75,9.74,4.49,9.74,4.49S263.2,91.42,262,96.58Z" style="fill:#1d2039"/><path id="Path_20063" data-name="Path 20063" d="M256.57,72c-.48,3.67-5.14,6.42-5.14,6.42a27.66,27.66,0,0,0-1.7-5.09c-.87-1.89-2.09-3.66-3.67-4-3.6-.77-2.71-4-1.39-4.59a12.91,12.91,0,0,1,8.26.21,3.84,3.84,0,0,1,2.17,3.59S257,68.3,256.57,72Z" style="fill:#002b3b"/><path id="Path_20064" data-name="Path 20064" d="M252.46,83s-2.06,1.79-3.85,1.75a2.69,2.69,0,0,1-2.37-1.09l.1-2.34.09-2.17L252,75.92h0v1.24c0,.77,0,1.69,0,2.14C252.11,80.22,252.46,83,252.46,83Z" style="fill:#805745"/><path id="Path_20067" data-name="Path 20067" d="M248.61,85,250,86.83l3.84-3.26-1.38-1.29Z" style="fill:#fff"/><path id="Path_20068" data-name="Path 20068" d="M246.24,82.92l2.37,2.1-1.18,1.83-2.12-2.68Z" style="fill:#fff"/><path id="Path_20069" data-name="Path 20069" d="M262,96.91a27.89,27.89,0,0,1-1.18,3.77A50.34,50.34,0,0,0,257.75,116a24.76,24.76,0,0,1-4,.81,2.14,2.14,0,0,1-.19-.59c-.58-3.43,5.2-20.92,5.2-20.92S260.59,96.16,262,96.91Z" style="opacity:0.150000005960464;isolation:isolate;fill:url(#linear-gradient-5)"/><path id="Path_20070" data-name="Path 20070" d="M252.06,76.86c0,.08,0,.16-.05.23a5.88,5.88,0,0,1-5.67,4.18l.09-2.16L252,75.86s0,0,0,0A1.38,1.38,0,0,1,252.06,76.86Z" style="fill:#66443b"/><path id="Path_20071" data-name="Path 20071" d="M253.68,74.88c-.11.92-1.67,1.83-1.67,1.83-1.21,1.8-4,4.3-6.19,2.46-1.86-1.52-1-7.35-.63-9.28,0-.16.05-.32.08-.48s0-.25.1-.31a.38.38,0,0,1,.21,0,3.16,3.16,0,0,1,.67.18c.38.13.77.26,1.16.36l.6.12a5.63,5.63,0,0,1,.59.05,11.62,11.62,0,0,1,1.54.21,2,2,0,0,1,1.05.71,2.38,2.38,0,0,1,.35,1.48v.13c-.15,2-.2,2.2.07,2.22s.57-.42.68-.55C252.74,73.43,253.8,74,253.68,74.88Z" style="fill:#7e5544"/><path id="Path_20073" data-name="Path 20073" d="M204.46,98.05a13.56,13.56,0,1,0-3.88-18.79A13.56,13.56,0,0,0,204.46,98.05Z" style="fill:#b8e4f2;opacity:0.340000003576279;isolation:isolate"/><g id="Group_10788" data-name="Group 10788" style="opacity:0.5"><path id="Path_20074" data-name="Path 20074" d="M222.84,88.34A.71.71,0,0,0,223,88a11.09,11.09,0,0,0-2.71-8.66.8.8,0,0,0-1.14-.1.82.82,0,0,0-.09,1.15l0,0a9.56,9.56,0,0,1,2.31,7.4.82.82,0,0,0,.71.91.83.83,0,0,0,.78-.37Z" style="fill:#fff"/></g><g id="Group_10789" data-name="Group 10789" style="opacity:0.5"><path id="Path_20075" data-name="Path 20075" d="M215.91,78.28a.82.82,0,0,0-.22-1.13,11.15,11.15,0,0,0-15.42,3.19.81.81,0,0,0,1.36.89,9.52,9.52,0,0,1,13.17-2.72A.8.8,0,0,0,215.91,78.28Z" style="fill:#fff"/></g><rect id="Rectangle_5135" data-name="Rectangle 5135" x="233.01" y="89.42" width="1.74" height="25.13" transform="translate(20.25 241.5) rotate(-56.71)" style="fill:#ffb600"/><g id="Group_10790" data-name="Group 10790"><path id="Path_20076" data-name="Path 20076" d="M204.15,99.07a14.59,14.59,0,1,1,20.21-4.18A14.6,14.6,0,0,1,204.15,99.07Zm.89-1.36a13,13,0,1,0-3.71-18,13,13,0,0,0,3.71,18Z" style="fill:#ffb600"/></g><rect id="Rectangle_5136" data-name="Rectangle 5136" x="238.05" y="95.66" width="4.08" height="21.21" rx="1.54" transform="translate(19.42 248.54) rotate(-56.69)" style="fill:#37193b"/><path id="Path_20077" data-name="Path 20077" d="M249.19,107.4l.12.31.58,1.48s-.29,0-.68,0a5.66,5.66,0,0,0-1.47.31.94.94,0,0,0-.15.06,7.87,7.87,0,0,1-4.24.75c-.76-.14-.55-.47-.55-.47-1.18-.2-1.49-.81-1.17-.9a4,4,0,0,1,1,0c-.66.07-1.34-.06-1.4-.3s.24-.35.87-.4a22.78,22.78,0,0,0,3.37-.75c.77-.24.32-.28-.16-.63s-1.3-.55-1-.84,1.91.25,2.43.43l1,.38Z" style="fill:#805745"/><path id="Path_20078" data-name="Path 20078" d="M262.12,87.93c1.47,1.58,2.5,6,2.09,13-.14,2.2-.68,6.7-2.06,8.59a1.64,1.64,0,0,1-.21.24c-1.13,1.07-13.47-.14-13.47-.14l-.15-3.77,9.31-.43A.39.39,0,0,0,258,105h0c-.08-1.85-.22-9.72-.12-11.12.25-3.33.33-7.08,2-7.28A4.49,4.49,0,0,1,262.12,87.93Z" style="fill:#698ca0"/><g id="Group_10791" data-name="Group 10791"><path id="Path_20079" data-name="Path 20079" d="M158,22.7A35,35,0,0,0,128.52,1.61c-.86-.07-1.74-.1-2.62-.1A34.91,34.91,0,1,0,158,22.7Zm-22.39,32a20.68,20.68,0,1,1-9.75-38.92c.52,0,1,0,1.55.06a20.68,20.68,0,0,1,8.2,38.87Z" style="fill:#6ecedb"/><path id="Path_20080" data-name="Path 20080" d="M158,22.7l-13.13,5.62a20.68,20.68,0,0,0-17.46-12.48l1.06-14.23A35,35,0,0,1,158,22.7Z" style="fill:#fff;opacity:0.319999992847443;isolation:isolate"/><path id="Path_20081" data-name="Path 20081" d="M142.37,67.3a35.09,35.09,0,0,1-28.83,1.86l5-13.35a20.73,20.73,0,0,0,17.06-1.11Z" style="fill:#fff;opacity:0.479999989271164;isolation:isolate"/><path id="Path_20082" data-name="Path 20082" d="M159.08,47.49A35.09,35.09,0,0,1,142.37,67.3l-6.72-12.59A20.76,20.76,0,0,0,145.53,43Z" style="fill:#fff;opacity:0.72000002861023;isolation:isolate"/><path id="Path_20083" data-name="Path 20083" d="M128.52,1.61l-1.07,14.23c-.51,0-1-.06-1.55-.06a20.66,20.66,0,0,0-17.62,9.86c-4.52-2.77-9-5.51-12.18-7.43a34.93,34.93,0,0,1,29.8-16.7C126.78,1.51,127.66,1.54,128.52,1.61Z" style="fill:#fff;opacity:0.5799999833107;isolation:isolate"/></g><path id="Path_20084" data-name="Path 20084" d="M102,175.21h82.21s-7.06-20.93-13.95-20.73-8.75,12-13.64,6.46-4.88-13.68-13.51-14.74-10.9,18.69-17.68,15.68S113.12,158.23,102,175.21Z" style="fill:#37193b;opacity:0.45;isolation:isolate"/><path id="Path_20085" data-name="Path 20085" d="M96.72,176.07h82.21s-7.06-20.93-14-20.72-8.76,12-13.65,6.45-4.88-13.68-13.51-14.74-10.9,18.69-17.68,15.69S107.8,159.09,96.72,176.07Z" style="fill:#fff;opacity:0.8"/><g id="Group_10793" data-name="Group 10793"><g id="Group_10792" data-name="Group 10792"><path id="Path_20086" data-name="Path 20086" d="M180.6,98.16s3.11,6.88,3.47,7.89-2.61,11.29-2.61,11.29l1.49,2.1s4.67-10.57,5-14-3.74-14.75-5.35-15.72S180.6,98.16,180.6,98.16Z" style="fill:#a54a3d"/><path id="Path_20087" data-name="Path 20087" d="M166,142.71s-1.54,9.27,0,17.19,2.9,18.53,2.9,18.53h3.28s-1-21.91-.77-27.41a38.24,38.24,0,0,1,2.52-11.21Z" style="fill:#895d4a"/><path id="Path_20088" data-name="Path 20088" d="M176,139.82s-.53,6,4.57,17,9.14,19.5,9.14,19.5l2.71-1.69s-7.1-24-7.63-27.08a25.66,25.66,0,0,1,.48-7.72Z" style="fill:#895d4a"/><path id="Path_20089" data-name="Path 20089" d="M172.21,177.64l-.17,7.23h-1.27V182s-1.36,2.79-2.21,2.92c-.54.08-2.69.06-4.46,0a.44.44,0,0,1-.43-.46.43.43,0,0,1,.22-.37c1.61-.93,4-1.86,4.48-4.59.45-2.36.31-2,.31-2Z"/><path id="Path_20090" data-name="Path 20090" d="M192.54,174.33l2.44,6.81-1.19.46-1-2.73s-.28,3.09-1,3.52c-.48.27-2.49,1-4.15,1.62a.43.43,0,0,1-.57-.27.42.42,0,0,1,.07-.43c1.17-1.44,3-3.15,2.54-5.89-.43-2.36-.42-2-.42-2Z"/><path id="Path_20091" data-name="Path 20091" d="M146.28,101.06s-5.58.29-6,.72,2.17.25,2.71.54-.11,2.24,1.74,1.81a9.75,9.75,0,0,0,2.53-.83Z" style="fill:#885c49"/><path id="Path_20092" data-name="Path 20092" d="M171.59,109.5l-1.2.61s-3.53,2-4.4,13.68-5.6,19.31-4.05,21.24,6.66-.1,9.65.48,7.82,3.38,13.23,2,4.34-1.64,7.05-2.41-4.83-7.92-5.51-13.33-1.44-18.87-7.14-21.69S171.59,109.5,171.59,109.5Z" style="fill:#37193b"/><path id="Path_20093" data-name="Path 20093" d="M181.78,100.79c-.1.33-.2.64-.31.92a57.8,57.8,0,0,0-2.25,8.4,20.24,20.24,0,0,1-8.83,0c.07-2.61-1.45-6-2.61-7.89s.65-4,.22-5.07-7.68,5.07-9.2,5.36-12.52,1.23-12.52,1.23a10.92,10.92,0,0,1,0-2.68c.21,0,10.71-1.67,11.66-2.24s7.74-7.92,9.55-8.93a19.29,19.29,0,0,1,7.39-2c2.66-.3,6.81.58,7.68,1.81S182.87,97.18,181.78,100.79Z" style="fill:#c95d4b"/><path id="Path_20094" data-name="Path 20094" d="M172.08,76.49s-.87,4.49-.39,6.47a2.05,2.05,0,0,0,2.08,1.82V88l4.57.06a19.86,19.86,0,0,0-1.05-3.86c-.48-.78-.23-2.25-.42-5S172.08,76.49,172.08,76.49Z" style="fill:#885c49"/><path id="Path_20095" data-name="Path 20095" d="M172.27,71.85c-1.51,1.67-1.23,4.45-.19,4.64s4.61.4,4.23,4.11,1.84,3.5,1.51,6.6,1.41,9.45,5.13,10.53,7.37-1.26,7.47-4.06-1.61-4-2.5-6.75,1.56-4.25,0-7.63-3.08-2.13-5-5.21S175,68.86,172.27,71.85Z" style="fill:#002b3b"/><path id="Path_20096" data-name="Path 20096" d="M181.78,100.78h0c-.1.33-.2.64-.31.91a56.88,56.88,0,0,0-2.25,8.4,20.24,20.24,0,0,1-8.83,0c0-1.56,5.69-.68,7-3.57C179.48,101.65,181.78,100.78,181.78,100.78Z" style="fill:#a54a3d"/></g><path id="Path_20097" data-name="Path 20097" d="M173.45,84.5a10.91,10.91,0,0,0,2.16-1.33c.45-.51,0,1.82-2.16,2.47Z" style="opacity:0.150000005960464;isolation:isolate;fill:url(#linear-gradient-6)"/></g><g id="Group_10798" data-name="Group 10798"><g id="Group_10797" data-name="Group 10797"><g id="Group_10796" data-name="Group 10796"><path id="Path_20098" data-name="Path 20098" d="M34.73,91.17c-.22-1,.79-3.61-.12-3.1-3,1.72-4.44,7.65-5.29,11.05-1.58,6.34-2.37,10.18.67,14.5,2.49,3.54,8.21,8.45,8.21,8.45l1.44-4.88s-6-6.76-6.24-8.2,3.11-10,3.11-10Z" style="fill:#7c7c40"/><path id="Path_20099" data-name="Path 20099" d="M49.09,71.63a20,20,0,0,1-.55,7.18c-1,2.8-2.71,2.54-2.75,3s.51,5.83.51,5.83l-6,.38s-.09-5.71,0-6.47-1.39-6.09,0-7.95S49.09,71.63,49.09,71.63Z" style="fill:#fdd1b1"/><path id="Path_20100" data-name="Path 20100" d="M40.42,68.25c1.18-.89,3.29-2.16,4.73-1.52s4.51-.57,5.13,2.23-1.79,3.51-3.73,3.73-1.95.76-2.06,1.81-1,.13-1.69.44c-.41.19-.52,1.68.36,2.78s-.76,3.59-1.68,3.72-1.49-.3-2.12-1.14c-1.57-2.09-3-3.77-3-8.2S40.42,68.25,40.42,68.25Z" style="fill:#3f2a01"/><g id="Group_10794" data-name="Group 10794"><path id="Path_20101" data-name="Path 20101" d="M59.07,181c.49.18,6.8.07,9.43,0a.59.59,0,0,0,.58-.61.57.57,0,0,0-.19-.42,6,6,0,0,0-3.78-1.54,2.14,2.14,0,0,1-1.7-.82c-.43-.65-.32-3.16-.23-4.45,0-.28-.57-.67-.55-1,.22-2.69-3.82.41-3.82.41a3.27,3.27,0,0,1,.3,1.23,24.2,24.2,0,0,1-.16,3.71,3.64,3.64,0,0,1-.11.39C58.35,179.51,58.45,180.78,59.07,181Z" style="fill:#fdd1b1"/><path id="Path_20102" data-name="Path 20102" d="M59.07,181c.53.2,7.89,0,10,0a.33.33,0,0,0,.25-.53,4.89,4.89,0,0,0-4.14-2.43,2.82,2.82,0,0,1-2-.88c-.88.05-1.59.45-1.57,1.26,0,.48-1.5.61-2.67-.86,0,.13-.07.26-.11.38C58.35,179.51,58.45,180.78,59.07,181Z" style="fill:#202952"/></g><g id="Group_10795" data-name="Group 10795"><path id="Path_20103" data-name="Path 20103" d="M38.32,181c.49.18,6.8.07,9.42,0a.6.6,0,0,0,.59-.61.61.61,0,0,0-.19-.42,6,6,0,0,0-3.78-1.54,2.12,2.12,0,0,1-1.7-.82c-.43-.65-.32-3.16-.23-4.45,0-.28-.58-.67-.55-1,.22-2.69-3.82.41-3.82.41a3.27,3.27,0,0,1,.3,1.23,24.2,24.2,0,0,1-.16,3.71,3.64,3.64,0,0,1-.11.39C37.6,179.51,37.7,180.78,38.32,181Z" style="fill:#fdd1b1"/><path id="Path_20104" data-name="Path 20104" d="M38.32,181c.53.2,7.88,0,10,0,.27,0,.37-.29.25-.53a4.89,4.89,0,0,0-4.15-2.43,2.82,2.82,0,0,1-2-.88c-.88.05-1.59.45-1.57,1.26,0,.48-1.5.61-2.67-.86,0,.13-.07.26-.11.38C37.6,179.51,37.7,180.78,38.32,181Z" style="fill:#202952"/></g><path id="Path_20105" data-name="Path 20105" d="M43.39,116.06a32,32,0,0,0,2.44,16.16c3.66,8.21,8.29,15.76,9,17.84S59,176.13,59,176.13h4.38s1.71-17.75,0-28.55-9.17-29.73-9.17-29.73Z" style="fill:#24415e"/><path id="Path_20106" data-name="Path 20106" d="M38.28,117.84a38.77,38.77,0,0,0-1.59,15.76c.86,9.26,1.41,16.57.71,23s.88,19.5.88,19.5h4.38s6-32.41,6.09-42.16a69.79,69.79,0,0,0-2.19-17.91Z" style="fill:#24415e"/><path id="Path_20107" data-name="Path 20107" d="M78.42,88.51S83,85.69,84,85.6s-.61.88-1.19,1.46-1,.3-.48,1.45-.88,1.76-2.25,2.38S78.42,88.51,78.42,88.51Z" style="fill:#fdd1b1"/><path id="Path_20108" data-name="Path 20108" d="M79.94,90.91a62.48,62.48,0,0,1-8.17,7.68l-.12.1-.28.21h0c-1.58,1.21-2.95,2-3.65,2-2.36-.2-12-4.93-12.39-4.2A19.29,19.29,0,0,0,55,99.8c-.36,5.89-.75,18-.75,18H38.32S35.24,104,34.42,99.93s-1.86-10-.93-11c1.89-2,7.34-3.63,10.59-3.63s10,.71,12.52,2.49,10.11,6,11.58,6.07,9.64-5.1,9.64-5.1S80,90.42,79.94,90.91Z" style="fill:#9da057"/><path id="Path_20109" data-name="Path 20109" d="M39.81,86l.41-1.58A12.12,12.12,0,0,1,46,84.23l.59,1.25A58.45,58.45,0,0,0,39.81,86Z" style="fill:#fff"/><path id="Path_20110" data-name="Path 20110" d="M79,88.14l1.27,2.65-.89.77-1.69-2.7Z" style="fill:#7c7c40"/></g><path id="Path_20111" data-name="Path 20111" d="M71.3,99c-1.58,1.21-3,2-3.66,2-2.35-.21-12-4.94-12.38-4.2,0,0-.3-3.34,1.23-2.92S67.11,101.82,71.3,99Z" style="fill:#7c7c40"/></g><path id="Path_20112" data-name="Path 20112" d="M43.68,80.11c.65.21,1.15,1.42,2.22,1.57l-.06,1.19S42.1,79.59,43.68,80.11Z" style="opacity:0.150000005960464;isolation:isolate;fill:url(#linear-gradient-7)"/></g><g id="Group_10804" data-name="Group 10804"><g id="Group_10799" data-name="Group 10799"><rect id="Rectangle_5137" data-name="Rectangle 5137" x="93.41" y="40.91" width="2.1" height="0.7" style="fill:#ffb600"/></g><g id="Group_10800" data-name="Group 10800"><path id="Path_20113" data-name="Path 20113" d="M89.37,41.61h-4v-.7h4Zm-8.09,0h-4v-.7h4.05Zm-8.09,0h-4v-.7h4Zm-8.08,0h-4v-.7h4Z" style="fill:#ffb600"/></g><g id="Group_10801" data-name="Group 10801"><path id="Path_20114" data-name="Path 20114" d="M57,41.61H54.57V39.17h.7v1.74H57Z" style="fill:#ffb600"/></g><g id="Group_10802" data-name="Group 10802"><rect id="Rectangle_5138" data-name="Rectangle 5138" x="54.57" y="32.3" width="0.7" height="3.43" style="fill:#ffb600"/></g><g id="Group_10803" data-name="Group 10803"><rect id="Rectangle_5139" data-name="Rectangle 5139" x="54.57" y="26.77" width="0.7" height="2.1" style="fill:#ffb600"/></g></g><path id="Path_20115" data-name="Path 20115" d="M98.62,41.26a1.73,1.73,0,1,1-1.73-1.72h0a1.72,1.72,0,0,1,1.72,1.72Z" style="fill:#822b0e"/><g id="Group_10810" data-name="Group 10810"><g id="Group_10805" data-name="Group 10805"><rect id="Rectangle_5140" data-name="Rectangle 5140" x="63.97" y="15.41" width="2.52" height="4.67" style="fill:#6ecedb"/></g><g id="Group_10806" data-name="Group 10806"><rect id="Rectangle_5141" data-name="Rectangle 5141" x="58.37" y="13.61" width="2.52" height="6.48" style="fill:#6ecedb"/></g><g id="Group_10807" data-name="Group 10807"><rect id="Rectangle_5142" data-name="Rectangle 5142" x="52.78" y="10.74" width="2.52" height="9.34" style="fill:#6ecedb"/></g><g id="Group_10808" data-name="Group 10808"><rect id="Rectangle_5143" data-name="Rectangle 5143" x="47.19" y="12.63" width="2.52" height="7.46" style="fill:#6ecedb"/></g><g id="Group_10809" data-name="Group 10809"><rect id="Rectangle_5144" data-name="Rectangle 5144" x="41.6" y="16.61" width="2.52" height="3.47" style="fill:#6ecedb"/></g></g><g id="Group_10814" data-name="Group 10814"><g id="Group_10811" data-name="Group 10811"><path id="Path_20116" data-name="Path 20116" d="M135.75,42.89H116.16a.74.74,0,0,1-.74-.74h0a.75.75,0,0,1,.74-.75h19.58a.76.76,0,0,1,.75.75h0A.74.74,0,0,1,135.75,42.89Z" style="fill:#a9e1f2"/></g><g id="Group_10812" data-name="Group 10812"><path id="Path_20117" data-name="Path 20117" d="M135.75,37.58H116.16a.74.74,0,0,1-.74-.74h0a.75.75,0,0,1,.74-.75h19.58a.75.75,0,0,1,.75.75h0A.74.74,0,0,1,135.75,37.58Z" style="fill:#a9e1f2"/></g><g id="Group_10813" data-name="Group 10813"><path id="Path_20118" data-name="Path 20118" d="M135.75,32.27H116.16a.74.74,0,0,1-.74-.75h0a.74.74,0,0,1,.74-.74h19.58a.75.75,0,0,1,.75.74h0A.75.75,0,0,1,135.75,32.27Z" style="fill:#a9e1f2"/></g></g><g id="Group_10819" data-name="Group 10819"><g id="Group_10815" data-name="Group 10815"><path id="Path_20119" data-name="Path 20119" d="M226.13,6a6,6,0,1,1-6.44-6l.46,0a6,6,0,0,1,6,6Z" style="fill:#d0ebf5"/><path id="Path_20120" data-name="Path 20120" d="M225.2,2.79l-5,3.19-.46-6,.46,0A6,6,0,0,1,225.2,2.79Z" style="fill:#28b5c8"/></g><g id="Group_10816" data-name="Group 10816"><path id="Path_20121" data-name="Path 20121" d="M242,6a6,6,0,1,1-6.44-6L236,0a6,6,0,0,1,6,6Z" style="fill:#d0ebf5"/><path id="Path_20122" data-name="Path 20122" d="M241.1,2.79,236,6,230.3,7.64a6,6,0,0,1,4.09-7.4A5.42,5.42,0,0,1,235.58,0L236,0A6,6,0,0,1,241.1,2.79Z" style="fill:#698ca0"/></g><g id="Group_10817" data-name="Group 10817"><path id="Path_20123" data-name="Path 20123" d="M210.52,6a6,6,0,1,1-.34-2A5.75,5.75,0,0,1,210.52,6Z" style="fill:#d0ebf5"/><path id="Path_20124" data-name="Path 20124" d="M210.18,4l-5.64,2-4.78-3.59A6,6,0,0,1,210.18,4Z" style="fill:#28b5c8"/></g><g id="Group_10818" data-name="Group 10818"><path id="Path_20125" data-name="Path 20125" d="M194.77,6a6,6,0,1,1-.33-2A6,6,0,0,1,194.77,6Z" style="fill:#d0ebf5"/><path id="Path_20126" data-name="Path 20126" d="M188.8,6l-1.48,5.79a5.85,5.85,0,0,1-2.67-1.49Z" style="fill:#822b0e"/></g></g><g id="Group_10823" data-name="Group 10823"><g id="Group_10820" data-name="Group 10820"><path id="Rectangle_5145" data-name="Rectangle 5145" d="M184.41,36.92h0a1.6,1.6,0,0,1,1.6,1.59h0a1.6,1.6,0,0,1-1.6,1.6h0a1.59,1.59,0,0,1-1.59-1.6h0A1.59,1.59,0,0,1,184.41,36.92Z" style="fill:#698ca0"/></g><g id="Group_10821" data-name="Group 10821"><path id="Rectangle_5146" data-name="Rectangle 5146" d="M184.41,29.93h0a1.6,1.6,0,0,1,1.6,1.59h0a1.6,1.6,0,0,1-1.6,1.6h0a1.59,1.59,0,0,1-1.59-1.6h0A1.59,1.59,0,0,1,184.41,29.93Z" style="fill:#28b5c8"/></g><g id="Group_10822" data-name="Group 10822"><path id="Rectangle_5147" data-name="Rectangle 5147" d="M184.41,22.94h0a1.6,1.6,0,0,1,1.6,1.59h0a1.6,1.6,0,0,1-1.6,1.6h0a1.59,1.59,0,0,1-1.59-1.6h0A1.59,1.59,0,0,1,184.41,22.94Z" style="fill:#822b0e"/></g><path id="Rectangle_5148" data-name="Rectangle 5148" d="M193.67,22.94h46.78a1.6,1.6,0,0,1,1.6,1.59h0a1.6,1.6,0,0,1-1.6,1.6H193.67a1.6,1.6,0,0,1-1.6-1.6h0A1.6,1.6,0,0,1,193.67,22.94Z" style="fill:#d0ebf5"/><path id="Rectangle_5149" data-name="Rectangle 5149" d="M193.67,29.93h46.78a1.6,1.6,0,0,1,1.6,1.59h0a1.6,1.6,0,0,1-1.6,1.6H193.67a1.6,1.6,0,0,1-1.6-1.6h0A1.6,1.6,0,0,1,193.67,29.93Z" style="fill:#d0ebf5"/><path id="Rectangle_5150" data-name="Rectangle 5150" d="M193.67,36.92h46.78a1.6,1.6,0,0,1,1.6,1.59h0a1.6,1.6,0,0,1-1.6,1.6H193.67a1.6,1.6,0,0,1-1.6-1.6h0A1.6,1.6,0,0,1,193.67,36.92Z" style="fill:#d0ebf5"/></g></g></g></svg>