<svg xmlns="http://www.w3.org/2000/svg" viewBox="0 0 128.73 60.61"><title>LinksIcon</title><g id="Layer_2" data-name="Layer 2"><g id="FRANÇAIS"><rect x="4.06" y="27.06" width="65.13" height="33.55" rx="11.84" style="fill:#718ea0;opacity:0.5"/><rect x="63.6" width="65.13" height="33.55" rx="11.84" style="fill:#839b4e;opacity:0.55"/><path d="M66.21,43A15.05,15.05,0,0,1,53.33,28.2V22.91A15.16,15.16,0,0,1,68.49,7.75h41.83a15.16,15.16,0,0,1,15.16,15.16V28a15.15,15.15,0,0,1-15.16,15.16H82.19" style="fill:none;stroke:#666;stroke-linecap:round;stroke-linejoin:round;stroke-width:4.329582594767771px"/><path d="M61.44,18.43A15.06,15.06,0,0,1,74.32,33.22v5.29A15.16,15.16,0,0,1,59.16,53.67H17.33A15.17,15.17,0,0,1,2.16,38.51v-5.1A15.16,15.16,0,0,1,17.32,18.25H45.46" style="fill:none;stroke:#666;stroke-linecap:round;stroke-linejoin:round;stroke-width:4.329582594767771px"/></g></g></svg>