<svg xmlns="http://www.w3.org/2000/svg" viewBox="0 0 1280 800"><defs><style>.cls-1{fill:#fff;}.cls-2{fill:none;}.cls-3{fill:#a6cbe5;}.cls-4{fill:#f1ae81;}.cls-5{fill:#5a5242;}.cls-6{fill:#643b8b;}.cls-7{fill:#c589ba;}.cls-8{fill:#f3d85f;}.cls-9{fill:#858586;}.cls-10{fill:#85ccca;}.cls-11{fill:#4e6676;}.cls-12{fill:#d68758;}.cls-13{fill:#523328;}.cls-14{fill:#231f20;}</style></defs><g id="background"><rect class="cls-1" width="1280" height="800"/><path class="cls-2" d="M903.29,166.32c0-.23-.07-.46-.1-.69l-.8.25Z"/><path class="cls-2" d="M604.82,573Z"/><path class="cls-2" d="M604.73,573l0,0,0,0h0l0,0Z"/><path class="cls-2" d="M604.9,573.1l-.11.06,0,0,.14-.06Z"/><path class="cls-2" d="M725.63,454.81c.29-1,.59-2,.89-3.06a13.42,13.42,0,0,1-.77,1.57C725.73,453.81,725.69,454.3,725.63,454.81Z"/><path class="cls-2" d="M424.7,404c-.47-.22-.93-.44-1.38-.67l-.39-.15C426.49,405.18,426,404.74,424.7,404Z"/><path class="cls-2" d="M605.11,573.49v0l.39-.52-.12.08C605.32,573.18,605.23,573.32,605.11,573.49Z"/><path class="cls-2" d="M335.71,420.72c1.2-5.33.41-2.45,0,0Z"/><path class="cls-2" d="M727.15,443.35a12.66,12.66,0,0,1,.21,5.51q3.64-12.53,7.3-25.05a53.31,53.31,0,0,1-14.26,11.56A12.11,12.11,0,0,1,727.15,443.35Z"/><path class="cls-2" d="M701.1,408.86l.24-.07h0Z"/><path class="cls-2" d="M728.49,483.51c1.43.85.7.36,0,0Z"/><path class="cls-2" d="M701.4,408.72a1.92,1.92,0,0,0-.72,0,.52.52,0,0,0,.11.1Z"/><path class="cls-2" d="M458.47,238.24c-.1-.24-.11-.25,0,0Z"/><path class="cls-2" d="M986.13,299.67c-1.38,1.32-2.75,2.68-4.1,4.05a104.22,104.22,0,0,1,11.43-7.92c.34-.92.68-1.83,1-2.73a12.57,12.57,0,0,1,1.23-2.46C992.76,293.89,989.15,296.76,986.13,299.67Z"/><path class="cls-2" d="M846,586.78h0l.46,0Z"/><path class="cls-2" d="M1010.2,715.28c-.22.31-.45.61-.68.91l1.56,0C1010.78,715.87,1010.48,715.58,1010.2,715.28Z"/><path class="cls-2" d="M702.53,619.29c-.21-.86-.4-1.73-.6-2.6a25,25,0,0,1-2.68,6.17A13.85,13.85,0,0,1,702.53,619.29Z"/><path class="cls-2" d="M605.59,572.73l.12-.08-.13.07Z"/><path class="cls-2" d="M605.5,572.79l0,0-.58.32.06,0Z"/><path class="cls-2" d="M604.68,573h0Z"/><path class="cls-2" d="M604.48,572.83l.09.09h.13l-.26-.13h0S604.49,572.82,604.48,572.83Z"/><path class="cls-3" d="M379.42,540l.09,0c-.13-.46-.28-.93-.45-1.43A9.92,9.92,0,0,1,379.42,540Z"/><path class="cls-3" d="M381.91,552.25c-.5-.13-.83-.15-.7.09C381.26,552.43,381.54,552.37,381.91,552.25Z"/><path class="cls-3" d="M430.13,526.51v0l.13-.08c.12-.15.27-.34.5-.6A8.28,8.28,0,0,1,430.13,526.51Z"/><path class="cls-3" d="M392.14,598.26A66.84,66.84,0,0,1,385.9,595a17.94,17.94,0,0,1-4.28-3.6l-.76,0c-.31,0-2,.27-2.56.34l-1.46.31c-1.39.32-2.77.7-4.13,1.12-.33.11-2.75,1.05-2.65.94-.63.31-1.26.62-1.88.95a53.59,53.59,0,0,0-6.6,4.23c-6,4.49-15.16,2-20.22-2.6-5.68-5.22-5.8-13.77-2.61-20.23a138.38,138.38,0,0,1,16-24.88c-10.26-9.71-4.12-27.26,8.42-31.5,9-3.05,19.12-.23,28.35.68,18.51,1.83,33.26,1.77,49.81-4.73a13.32,13.32,0,0,1,3-.79q-.79-2.24-1.61-4.45-13.61-37.23-27.2-74.46c-2.79-7.62,4.36-15.13,11.65-15.3q34.76-.79,69.52-1.45l12.74-1c-2.32-13.5-10.63-24.57-19.62-34.79-14.93-17-35.2-29.15-56.69-35.82-14.75-4.58-29.87,5.46-34.27,19.45q-1.55,4.93-3.11,9.85c-1.21-4.4-2.55-8.76-4.06-13.06a9.6,9.6,0,0,1-7.14-6.82,70.36,70.36,0,0,0-12.79-26.25c-5-6.46-11.29-12-15-19.31-.82-.58-1.65-1.13-2.5-1.65-17.43-10.62-34.46.72-49.78,9.08-20.65,11.27-43.35,21.26-57.24,41.13-16,22.84-8.43,52.27-1.75,77,3.05,11.32,6.36,22.55,9.74,33.76a294,294,0,0,0,3.36,60.66c2.92,18.29,10.75,36.29,25,48.28.19,1.21.38,2.41.56,3.61s.37,2.51.55,3.76c.06.42.11.76.16,1s.06.56.11.92c.78,6.31,1.48,12.64,2,19,1.18,13.29,1.83,26.64,2.15,40s0,26.61-.9,39.9q-.63,9.46-1.65,18.91c-.81,7.65-1.28,11.13-2.35,18.16-.78,5.14.18,10.69,3.12,14.77a16.37,16.37,0,0,0,.9,1.77c.16.28,3.23,3.89,3.62,4.39q-3.53-5-.26-.61a10,10,0,0,0,3.59,3.59,24.81,24.81,0,0,0,7.67,3.94A48.81,48.81,0,0,0,315.19,755c6.17.26,12.4.06,18.57,0,9.52-.09,19-.43,28.52-1q19.56,1.1,39.14,1.58c12.19.3,24.47.72,36.66.37,10.9-.3,20.38-3.66,27.21-12.5,6.19-8,7.34-17,7.42-26.78.25-30.88-1-61.75-1.59-92.63A265.83,265.83,0,0,1,392.14,598.26Z"/><path class="cls-3" d="M291.93,746.22l0,.06Z"/><path class="cls-4" d="M478.73,565.46l-2.05.14c-7.79.57-13.87-5.83-15.51-12.88a52.08,52.08,0,0,1-5.28-8.67c-4.51-9.26-8-19.09-11.55-28.81a13.32,13.32,0,0,0-3,.79c-16.55,6.5-31.3,6.56-49.81,4.73-9.23-.91-19.34-3.73-28.35-.68-12.54,4.24-18.68,21.79-8.42,31.5a138.38,138.38,0,0,0-16,24.88c-3.19,6.46-3.07,15,2.61,20.23,5.06,4.63,14.19,7.09,20.22,2.6a53.59,53.59,0,0,1,6.6-4.23c.62-.33,1.25-.64,1.88-.95-.1.11,2.32-.83,2.65-.94,1.36-.42,2.74-.8,4.13-1.12l1.46-.31c.58-.07,2.25-.32,2.56-.34l.76,0a17.94,17.94,0,0,0,4.28,3.6,66.84,66.84,0,0,0,6.24,3.29,265.83,265.83,0,0,0,79,25.8,275.46,275.46,0,0,0,30,3.13c7.14.34,15.92-5.74,17.19-13.09A105.88,105.88,0,0,0,514.92,563q-15.18,1-30.34,2A8.54,8.54,0,0,1,478.73,565.46Zm-96.82-13.21c-.37.12-.65.18-.7.09C381.08,552.1,381.41,552.12,381.91,552.25Zm48.35-25.79-.13.08v0a8.28,8.28,0,0,0,.63-.65C430.53,526.12,430.38,526.31,430.26,526.46ZM379.42,540a9.92,9.92,0,0,0-.36-1.4c.17.5.32,1,.45,1.43Z"/><path class="cls-4" d="M386,181.4l0,0h0l0,0Z"/><path class="cls-4" d="M385,182l-1.06-.46c.36.17.73.32,1.09.48Z"/><path class="cls-4" d="M384.55,357.38a9.85,9.85,0,0,0,11.93,6.78c4.69-1.29,7-5.39,7-9.82a17.53,17.53,0,0,0,11.28-11.83c.9-3.34,1.9-6.66,3.06-9.92.5-1.42,1-2.83,1.59-4.23-.46,1.22,1.21-2.75,1.24-2.82a122.21,122.21,0,0,1,5.94-11l2.57,1.1c6,2.53,11.74,3.46,17.66,0a17.46,17.46,0,0,0,8.66-15.11,126.13,126.13,0,0,1,.39-15.06c.09-1,.2-1.93.31-2.89,0-.2.13-.8.28-1.82.48-2.47.92-4.94,1.5-7.39,2.52-10.68,6.63-20,2.28-31l-1.62-3.85h0l.4,1a12,12,0,0,0-.39-1.31V238c.21-1,.42-2.05.64-3.08q1.42-6.78,2.86-13.56,3.21-15.21,6.43-30.42a15.22,15.22,0,0,1-10.11-2.43,39.3,39.3,0,0,0-5.48-2.91l-2-.89-1.25-.5c-3.33-1.26-6.67-2.47-10.08-3.51A159.15,159.15,0,0,0,420.17,176a50.18,50.18,0,0,1,1.23,10.94c.05,9.92-1.51,21.33-8.79,28.68a21.17,21.17,0,0,1-9.45,5.47,53.28,53.28,0,0,1-.93,12.4c-1.06,5.43-7,8.45-12,7.85-5.8-.69-8.9-5.35-9.51-10.77-.31-2.8-.2-5.68-.35-8.5a21.25,21.25,0,0,1-4.15-2c-.45-.29-.9-.62-1.34-1a20.37,20.37,0,0,1-12.25,1.14,93.42,93.42,0,0,0,4.18,26.44c2,6.38-4.22,9.84-9.12,8.25a161.36,161.36,0,0,1,.26,19.79c-.07,1.15-.16,2.3-.28,3.45,0,.17,0,.3,0,.42-.34,2.14-.82,4.26-1.36,6.35-1.44,5.48-2.91,10.83-2.43,16.55a27.73,27.73,0,0,0,3,10.36c3.7,7.31,10,12.85,15,19.31A70.36,70.36,0,0,1,384.55,357.38Zm73.92-119.14h0C458.36,238,458.37,238,458.47,238.24Z"/><path class="cls-5" d="M366.77,246.65a93.42,93.42,0,0,1-4.18-26.44,20.37,20.37,0,0,0,12.25-1.14c.44.33.89.66,1.34,1a21.25,21.25,0,0,0,4.15,2c.15,2.82,0,5.7.35,8.5.61,5.42,3.71,10.08,9.51,10.77,5.05.6,11-2.42,12-7.85a53.28,53.28,0,0,0,.93-12.4,21.17,21.17,0,0,0,9.45-5.47c7.28-7.35,8.84-18.76,8.79-28.68A50.18,50.18,0,0,0,420.17,176a159.15,159.15,0,0,1,19.48,4.69c3.41,1,6.75,2.25,10.08,3.51l1.25.5,2,.89a39.3,39.3,0,0,1,5.48,2.91,15.22,15.22,0,0,0,10.11,2.43,18.61,18.61,0,0,0,15-10.88c4.25-10.07-1.39-20.47-11.45-23.85,2.74.92-1.84-.71-2.39-.95-2.46-1.05-4.93-2.1-7.43-3.07q-5-1.92-10.09-3.44a149.05,149.05,0,0,0-24.43-4.79,97.94,97.94,0,0,0-21.24-.25c-2.39.22-5.09.57-7.59.91a20.71,20.71,0,0,0-14.4-6.08c-7.63,0-14.28,3.29-19.58,8.66-5,5.11-10.59,13.15-12.52,21.25a63.37,63.37,0,0,0-5.59,18.1c-1.79,10.34-1.56,21.31-1.08,31.79.52,11.3,3.25,21.64,7.32,32.14a7.34,7.34,0,0,0,4.62,4.46C362.55,256.49,368.77,253,366.77,246.65Zm19.16-65.28,0,0h0l0,0Zm-1,.59,0,0c-.36-.16-.73-.31-1.09-.48Z"/><path class="cls-6" d="M734.66,423.81q-3.67,12.53-7.3,25.05a13.28,13.28,0,0,1-.84,2.89c-.3,1-.6,2-.89,3.06,0,.34-.09.68-.15,1-.47,2.87-1.14,5.73-1.79,8.57C722.45,469.8,721,475,720.1,480.5a283.87,283.87,0,0,0-2.9,33.33,13.14,13.14,0,0,1-11.32,12.83,12.52,12.52,0,0,1-4-.09c4.73,5.08,9.3,10.42,14.4,15.17a63.92,63.92,0,0,0,16.18,11c1.83.91,2.42,1.16,2.94,1.37,1.94.76,3.93,1.43,5.92,2a109.92,109.92,0,0,0,12.5,3c8.41,1.54,16.89,2.72,25.33,4.06,5.84.92,11.6,1.71,17.36,2.47,7.19-5.65,17.86-8.42,26.06-10.57a159.32,159.32,0,0,1,30-4.75c10.18-43.43,6.35-91.21-19.93-128.18-16.09-22.65-38.14-40.15-64.93-48.27a16.5,16.5,0,0,0-10.54.36,123.89,123.89,0,0,1-8.29,26.91A86.4,86.4,0,0,1,734.66,423.81Zm-6.17,59.7c.7.36,1.43.85,0,0Z"/><path class="cls-6" d="M639.58,409.29a24.53,24.53,0,0,1,13.49,11.18c5.56,9.46,7.7,21.59,10.81,32q4.93,16.61,9.88,33.2t9.88,33.2c.67,2.25,1.39,4.51,2.12,6.78a13,13,0,0,1,9-2.77,11.42,11.42,0,0,1-3.17-5.59c-2.64-11.71-8-22.66-12.47-33.75-2.31-5.73-4.61-11.46-6.74-17.26-2.45-6.66-5.39-13-3.8-20.17a8.48,8.48,0,0,1,.72-2c-2.84-4.07-4.61-8.73-4.26-13.63a8.57,8.57,0,0,1,8.31-8.35,45.23,45.23,0,0,1-5.08-14.32,92.56,92.56,0,0,1-1.34-21.66,1.84,1.84,0,0,1-.22.17c-7.91,5.64-20.54,1.9-28.87-1.37-1.73-.68-3.41-1.44-5-2.26l0,0a12.07,12.07,0,0,1-7.52,2,74,74,0,0,0-21.3,26c5.91-.55,11.81-1.14,17.7-1.82C627.75,408.25,633.5,407.26,639.58,409.29Z"/><path class="cls-6" d="M803.91,601.2q-25-5.81-50-11.51a156.78,156.78,0,0,1-27.86-8.92,70.93,70.93,0,0,0-11.82-1.95c-7.62-.47-15.13-1.79-22.74-2.57s-15.29-1.14-22.91-1.94c-4.25-.44-9.33-1.92-11.64-5.87-1.35-2.32-1.31-5.48-3.7-7.11a7.32,7.32,0,0,1-3.41-5.78l-23.73,1.25c.71,2,1.43,4,2.15,6.15,1.15,3.41,2.2,6.85,3.19,10.31a17.8,17.8,0,0,1,2.91,8.57c.1,1.16.15,2.33.17,3.51.69,3,1.32,6.06,1.89,9.1a213.78,213.78,0,0,1,3.83,32.48,323.67,323.67,0,0,1-.73,35.92c-1.36,21.18-8.35,43.31-15.69,63.88a15.7,15.7,0,0,0-3,9.93c.41,9.35,7.9,18.43,17.95,18,52.13-2.45,104.25-5.65,156.41-7.48,9.48-.33,18-7.9,17.83-17.83-.29-13.95-.84-27.89-.42-41.84.2-6.94.62-13.88,1.37-20.79,0,.36.28-2.19.41-3.29s.54-3.52.48-3.18q.93-5.6,2.21-11.12c2.93-12.56,7.49-24.66,12.46-36.54.24-.55,1.35-3.17,1.36-3.2.33-.79.67-1.57,1-2.36-1.07-.21-2.14-.43-3.21-.63C820.41,604.74,812.15,603.12,803.91,601.2Z"/><path class="cls-7" d="M705.88,526.66a13.14,13.14,0,0,0,11.32-12.83,283.87,283.87,0,0,1,2.9-33.33c.86-5.47,2.35-10.7,3.59-16.08.65-2.84,1.32-5.7,1.79-8.57.06-.36.11-.7.15-1,.06-.51.1-1,.12-1.49a13.76,13.76,0,0,0,1.61-4.46,12.66,12.66,0,0,0-.21-5.51,12.11,12.11,0,0,0-6.75-8,40.1,40.1,0,0,1-10.16,3.87c-16.21,3.69-29.67-4.26-36.93-17.08a8.57,8.57,0,0,0-8.31,8.35c-.35,4.9,1.42,9.56,4.26,13.63a8.48,8.48,0,0,0-.72,2c-1.59,7.2,1.35,13.51,3.8,20.17,2.13,5.8,4.43,11.53,6.74,17.26,4.48,11.09,9.83,22,12.47,33.75a11.42,11.42,0,0,0,3.17,5.59,10.31,10.31,0,0,1,6.77,3.31c.12.12.23.24.34.37A12.52,12.52,0,0,0,705.88,526.66Z"/><path class="cls-4" d="M604.89,572.9a.53.53,0,0,0,.19,0C605.79,572.49,605.39,572.67,604.89,572.9Z"/><polygon class="cls-4" points="604.82 572.98 604.82 572.98 604.82 572.98 604.82 572.98"/><path class="cls-4" d="M631.46,573.26c-5.67-8.37-18.11-9.65-25.58-.73l0,0a3.94,3.94,0,0,0-.9.37l-.13.06h0l0,0,0,0,0,0,0,0,0,0,.11-.06-.16,0a5,5,0,0,1-.63-.48l-.68-.68c-5.9-5.78-16.48-6.32-22.28,0a18.12,18.12,0,0,0-2.26,3.06l-1.68-.51c-5.18-1.52-10.53-2.54-15.78-3.77-6.52-1.53-12.93-3.34-19.63-3.81-7.56-.53-11.18,11.59-4,14.76,7.51,3.32,15.59,5,23.52,7.06,4.37,1.15,9.35,1.73,13.11,4.14.05.43.11.86.17,1.29v.56a31.38,31.38,0,0,0,.68,5.76,14.42,14.42,0,0,0-2,7.73c.31,22.32,28.75,25.6,43.68,15.91,12.81-8.32,17.89-23.9,17.55-38.6,0-1.18-.07-2.35-.17-3.51A17.8,17.8,0,0,0,631.46,573.26Zm-26.67-.1.11-.06.06,0-.14.06Zm.33.35v0c.12-.17.21-.31.28-.42l.12-.08Zm.47-.78h0l.13-.07Zm-.06,0,0,0-.49.3-.06,0Zm-.85.29h0Zm0-.12h-.13l-.09-.09s0,0,0,0h0Z"/><path class="cls-4" d="M875.93,558.92A18,18,0,0,0,860.45,550c-2.62.05-5.26.17-7.89.34a159.32,159.32,0,0,0-30,4.75c-8.2,2.15-18.87,4.92-26.06,10.57-5.76-.76-11.52-1.55-17.36-2.47-8.44-1.34-16.92-2.52-25.33-4.06a109.92,109.92,0,0,1-12.5-3c-2-.62-4-1.29-5.92-2-.52-.21-1.11-.46-2.94-1.37a63.92,63.92,0,0,1-16.18-11c-5.1-4.75-9.67-10.09-14.4-15.17-.11-.13-.22-.25-.34-.37a10.31,10.31,0,0,0-6.77-3.31,13,13,0,0,0-9,2.77c1.65,5.09,3.37,10.22,4.84,15.37l.43.14c7.5,2.22,15.93,3.71,21.54,9.52a9.81,9.81,0,0,1,2.49,5.06c2.26.55,4.52,1.15,6.82,1.82,6.41,1.84,13,3.32,19.27,5.57,12.47,4.46,7.61,23-5.51,20-3.21-.75-6.38-1.6-9.57-2.35a156.78,156.78,0,0,0,27.86,8.92q25,5.65,50,11.51c8.24,1.92,16.5,3.54,24.8,5.14,1.07.2,2.14.42,3.21.63,8.29,1.64,16.77,3.24,25.08.85C877.25,602,886.38,576.73,875.93,558.92ZM846,586.78l.46,0-.46,0Z"/><path class="cls-4" d="M706.39,211.46a5.58,5.58,0,0,0,.68-.16C709.34,210.21,709.11,210.27,706.39,211.46Z"/><path class="cls-4" d="M748.85,365.55c-7.41-4.33-8.94-13.28-5.41-20.61,1.25-2.64,2-3.78,2.6-5.52a39.51,39.51,0,0,1,2.83-6.35c2.8-10,4.06-20.19,2.27-30.55a218.87,218.87,0,0,0-9.4-34.45,280.78,280.78,0,0,0-27-56.93,10.14,10.14,0,0,1-9,.6l-.85.37c-1.77.26-3.55.49-5.32.69-3.94.24-7.91.12-11.86.29-1,0-2,.1-2.92.18l-.55.1a19.39,19.39,0,0,1-.68,2.64c-.57,1.72-1.34,3.38-2,5.08q-2.24,5.94-4.16,12a239.53,239.53,0,0,0-6.38,24.57,209.87,209.87,0,0,0-3.45,21.42,241,241,0,0,0-1.27,24.48c0,8.3.08,16.65.79,24.93.12,1.42.27,2.83.42,4.24q0,.28.06.51c.09.62.19,1.23.29,1.84.14.92,1,7,.86,6.06.17,1.1.35,2.2.58,3.3.83,3.94,1.48,8,2.35,11.89.08,1.52.14,1.73.19.64.51,1.39.65,1.73.41,1,.73,1.16,1.17,2.52,1.88,3.71a47,47,0,0,0,5,6.34c2.11,2.51,3.52,5.27,6,7.48,6,5.43-.31,15.44-7.76,13.32a51.43,51.43,0,0,1-9.39-3.54c-.35.3-.71.6-1.09.87a92.56,92.56,0,0,0,1.34,21.66,45.23,45.23,0,0,0,5.08,14.32c7.26,12.82,20.72,20.77,36.93,17.08a40.1,40.1,0,0,0,10.16-3.87,53.31,53.31,0,0,0,14.26-11.56,86.4,86.4,0,0,0,14.21-22.61,123.89,123.89,0,0,0,8.29-26.91c.43-2.29.8-4.58,1.11-6.89A15.06,15.06,0,0,1,748.85,365.55ZM701.4,408.72l-.61.1a.52.52,0,0,1-.11-.1A1.92,1.92,0,0,1,701.4,408.72Zm-.3.14.26-.08h0Z"/><path class="cls-8" d="M632.7,382.75l0,0c1.64.82,3.32,1.58,5,2.26,8.33,3.27,21,7,28.87,1.37a1.84,1.84,0,0,0,.22-.17c.38-.27.74-.57,1.09-.87a51.43,51.43,0,0,0,9.39,3.54c7.45,2.12,13.74-7.89,7.76-13.32-2.44-2.21-3.85-5-6-7.48a47,47,0,0,1-5-6.34c-.71-1.19-1.15-2.55-1.88-3.71.24.71.1.37-.41-1,0,1.09-.11.88-.19-.64-.87-3.92-1.52-7.95-2.35-11.89-.23-1.1-.41-2.2-.58-3.3.15.91-.72-5.14-.86-6.06-.1-.61-.2-1.22-.29-1.84q0-.22-.06-.51c-.15-1.41-.3-2.82-.42-4.24-.71-8.28-.8-16.63-.79-24.93a241,241,0,0,1,1.27-24.48,209.87,209.87,0,0,1,3.45-21.42,239.53,239.53,0,0,1,6.38-24.57q1.92-6.06,4.16-12c.64-1.7,1.41-3.36,2-5.08a19.39,19.39,0,0,0,.68-2.64l.55-.1c1-.08,2-.15,2.92-.18,3.95-.17,7.92-.05,11.86-.29,1.77-.2,3.55-.43,5.32-.69l.85-.37a10.14,10.14,0,0,0,9-.6,280.78,280.78,0,0,1,27,56.93,218.87,218.87,0,0,1,9.4,34.45c1.79,10.36.53,20.58-2.27,30.55a39.51,39.51,0,0,0-2.83,6.35c-.63,1.74-1.35,2.88-2.6,5.52-3.53,7.33-2,16.28,5.41,20.61a15.06,15.06,0,0,0,9.42,1.85,14.59,14.59,0,0,0,11.19-7.25A55.63,55.63,0,0,0,774.21,348a29.57,29.57,0,0,0,1.21-7.1,9.78,9.78,0,0,0-.43-4.63c.26.86.36.78.31-.23a84,84,0,0,0-2-22.18c-3.25-13.63-5.82-27.47-10-40.9a251.7,251.7,0,0,0-16.22-40.38c-6.58-12.83-15.33-25.06-24-36.55a8.66,8.66,0,0,0-6.84-3.75,24.2,24.2,0,0,0-10.7-9.08c-8.55-3.61-20.24-2.46-29.13-.82s-18.17,7.11-23.49,14.79a14.34,14.34,0,0,0-2.23,1c-11,4-14.14,19-17.26,29q-4.36,14-8.75,28.06c-5.5,17.64-12.14,35.35-15.48,53.56a132.71,132.71,0,0,0-2.44,24.52,117.18,117.18,0,0,0,.85,29.91c.89,5.74,2.06,11.71,6.19,16.09a17.29,17.29,0,0,0,11.38,5.39A12.07,12.07,0,0,0,632.7,382.75ZM707.07,211.3a5.58,5.58,0,0,1-.68.16C709.11,210.27,709.34,210.21,707.07,211.3Z"/><path class="cls-9" d="M649.85,555.55a7.32,7.32,0,0,0,3.41,5.78c2.39,1.63,2.35,4.79,3.7,7.11,2.31,3.95,7.39,5.43,11.64,5.87,7.62.8,15.29,1.16,22.91,1.94s15.12,2.1,22.74,2.57a70.93,70.93,0,0,1,11.82,1.95c3.19.75,6.36,1.6,9.57,2.35,13.12,3,18-15.52,5.51-20-6.28-2.25-12.86-3.73-19.27-5.57-2.3-.67-4.56-1.27-6.82-1.82a9.81,9.81,0,0,0-2.49-5.06c-5.61-5.81-14-7.3-21.54-9.52l-.43-.14c-1.47-5.15-3.19-10.28-4.84-15.37-.73-2.27-1.45-4.53-2.12-6.78q-4.95-16.61-9.88-33.2t-9.88-33.2c-3.11-10.42-5.25-22.55-10.81-32a24.53,24.53,0,0,0-13.49-11.18c-6.08-2-11.83-1-18-.32-5.89.68-11.79,1.27-17.7,1.82l-15.66,1.47c-23.38,2.26-46.85,3.78-70.27,5.64l-8.51.67-12.74,1q-34.77.71-69.52,1.45c-7.29.17-14.44,7.68-11.65,15.3q13.59,37.23,27.2,74.46.81,2.22,1.61,4.45c3.52,9.72,7,19.55,11.55,28.81a52.08,52.08,0,0,0,5.28,8.67c1.64,7,7.72,13.45,15.51,12.88l2.05-.14a8.54,8.54,0,0,0,5.85-.4q15.17-1.06,30.34-2c37.05-2.35,74.12-4.3,111.2-6.24Z"/><path class="cls-10" d="M982,303.72c1.35-1.37,2.72-2.73,4.1-4.05,3-2.91,6.63-5.78,9.56-9.06a11.8,11.8,0,0,1,1.73-2.11,19.77,19.77,0,0,0,2.76-4.9c1.67-4.41-2.61-9.31-7-9.2-7.25.19-14.28,5.9-19.86,10.11-6,4.49-11.6,9.25-17.2,14.17-11.34,9.95-21.43,21.86-26.26,36.33s-6.68,30.42-9.53,45.47c-2.55,13.48-5.06,27-6,40.62a273.35,273.35,0,0,1,32-75.19C956.18,330,967.68,315.11,982,303.72Z"/><path class="cls-11" d="M1076.93,411.62a307.87,307.87,0,0,0-8.71-37.06c-9.09-29.9-23.17-57.67-43.07-81.81-3.13-3.81-9.84-5.83-14.86-4.77a9.55,9.55,0,0,0-12.87.52,11.8,11.8,0,0,0-1.73,2.11,12.57,12.57,0,0,0-1.23,2.46c-.32.9-.66,1.81-1,2.73A104.22,104.22,0,0,0,982,303.72c-14.35,11.39-25.85,26.27-35.72,42.19a273.35,273.35,0,0,0-32,75.19q-1.51,5.82-2.79,11.69c-6.79,31.33-10,63.4-13.81,95.2-3.84,32-7.32,64-9.87,96-1.65,20.78-2.84,41.58-3.42,62.4q-.76,5.64-1.51,11.28-1.08,8.31-2.1,16.61c-.79,6.47-2.33,13.28-.8,19.75,1.81,7.61,7.34,13.1,14.53,15.77,5.68,2.1,12,1.51,18,1.36l70.27-1.73,79.18-2a16.6,16.6,0,0,0,16.31-16.31c.81-40.28,2-80.56,3.11-120.84.36-3.59.72-7.17,1-10.76,2.06-22.49,4.5-45,5.9-67.54C1090.89,491.76,1090,450.22,1076.93,411.62ZM1010.2,715.28c.28.3.58.59.88.87l-1.56,0C1009.75,715.89,1010,715.59,1010.2,715.28Z"/><path class="cls-12" d="M953.78,256.26c-12.27-.58-21.69-7.49-29.91-16.08-3.13-3.27-6.85-7.46-9.79-9.08-3.87-2.13-7.53-3.78-11.7-4.29-3-.35-6.79-.16-10.52-.51-.87,5.9-1.22,11.88-1.85,17.86-1,9.22-13.32,11.52-16.39,2.22-2.33-7.08-3-14.41-3-21.78A12.89,12.89,0,0,1,864,219c-3.17-5.53-5.11-11.5-8.92-17.72-2.37-3.86-6.28-6.78-8.73-10.52a16.6,16.6,0,0,1-3.89-.67l-.82.26a69.82,69.82,0,0,0,2.87,24.74,142.24,142.24,0,0,0,1.4,25.91c2.17,15.35,8,28.94,16.41,41.87,4.18,6.38,8.13,13.12,12.83,19.13,6.47,8.29,17.26,9.48,26,3.82,1.09-.71,2.16-1.45,3.23-2.2l1.09,0c.66.16,2,.45,2.17.48a6.58,6.58,0,0,0,.95.14,6,6,0,0,0,.75.48,17.56,17.56,0,0,0,2.22,1.33,29.35,29.35,0,0,1,2.24,2.36c5.69,6.51,17.89,4.83,21.79-2.8,1.16-2.28,2.36-4.64,3.61-7a20.9,20.9,0,0,0,5.23-3.17q17-14,33.37-28.61c5.12-4.57,5.8-13.2,2.45-18.93a15.57,15.57,0,0,0-2-2.72C972.65,252.71,963.33,256.72,953.78,256.26Z"/><path class="cls-13" d="M839.42,191.08c.74-.23,1.46-.47,2.19-.72l.82-.26a16.6,16.6,0,0,0,3.89.67c2.45,3.74,6.36,6.66,8.73,10.52,3.81,6.22,5.75,12.19,8.92,17.72a12.89,12.89,0,0,0,6.63,5.59c0,7.37.69,14.7,3,21.78,3.07,9.3,15.43,7,16.39-2.22.63-6,1-12,1.85-17.86,3.73.35,7.53.16,10.52.51,4.17.51,7.83,2.16,11.7,4.29,2.94,1.62,6.66,5.81,9.79,9.08,8.22,8.59,17.64,15.5,29.91,16.08,9.55.46,18.87-3.55,24.36-11a25.22,25.22,0,0,0,3.44-6.5c4.31-12.25-1.58-25.72-4.94-37.53-3.31-11.59-5.94-23.62-11.45-34.43a47.66,47.66,0,0,0-15.31-17.57c.8-5.45-.54-11.3-4.82-15-18.67-16.18-42.4-13.9-63.58-4.22a149.87,149.87,0,0,0-24.13,14c-8.23,5.82-19.52,12.92-24.12,22.26a20.36,20.36,0,0,0-1.54,4.34c-1,.73-1.94,1.49-2.9,2.26C820.13,179.84,829.5,194.09,839.42,191.08Zm63.77-25.45c0,.23.06.46.1.69l-.9-.44Z"/></g><g id="line_art" data-name="line art"><path class="cls-14" d="M967.8,747.9a2,2,0,0,1-1.62-3.19c.58-.78,57.44-78.24,62.58-104.39,5.52-28.1,22.71-53.27,33.27-55.38,8.24-1.65,20.49-26.89,20.49-38.87,0-1.75-.07-5-.15-9-.54-25.89-1.79-86.5,6.08-104.68a2,2,0,0,1,3.79.36c.08.38,3.29,15,6.62,35.93,1-25.11.64-42.67-.94-52.47-4.84-30-28.11-64.89-50.61-98.64-11.25-16.88-18.94-20-23.42-19.72s-7.08,4.41-7.6,5.35l-6.18,30.95a2,2,0,0,1-1.73,1.59c-17.76,2.15-30.77,16.14-38.67,41.59-6.21,20-7.38,42.07-7.12,50.95.23,8.16,4,20.2,7.67,31.84,3.83,12.19,7.45,23.71,7.7,32.09.08,2.64.11,5,.13,7.12.13,11,.22,18.27,7,46.27a38.21,38.21,0,0,0,5.18,12.19,64.07,64.07,0,0,1,15.51.61c5.67.88,15.72,3.17,19.38,8.66a4.6,4.6,0,0,1,.22,5.2c-2,3.06-8,4.33-15,3.14a35.88,35.88,0,0,1-22-13.3,6.59,6.59,0,0,0-2.57.9c-3.64,2.92-4.43,5.36-8.55,19.6-.55,1.89-1.15,4-1.83,6.3-5.83,19.93-40.66,67.83-48.46,76.66-6.64,7.53-18.29,19.66-20,21.46-11.7,23.87,2,57.78,2.12,58.12a2,2,0,0,1-3,2.38c-18.13-13.07-14-52-13.36-57.11C872.22,634,913.39,446.16,937.08,378.25c7.23-20.7,22.31-49.7,53.14-70.35,15.75-10.56,29.12-14.62,33.11-15.67,2.17-9-3.39-11.63-4.9-12.18-35.41,1.86-78.73,75.58-79.17,76.33a2,2,0,0,1-3.71-1.27c2.34-17.79,57.58-76.46,65.1-84.38-.66-2.28-1.76-3.74-3.28-4.37-3.39-1.39-8.53,1.19-10.23,2.3a2,2,0,0,1-3.06-1.35c0-.07-.28-1.63-.79-4.38-.87.82-1.86,1.75-2.93,2.78a8.56,8.56,0,0,0,.75.72,2,2,0,0,1,.69,1.56,2,2,0,0,1-.75,1.52c-.24.19-11.25,8.93-23.7,19.34-14,14.57-28.24,30.41-32,37.22-4.13,7.49-4.12,18.26-3.34,26.17,6,4.86,11.12,12.37,11.9,13.55a2,2,0,0,1,.09,2.08c-5.64,10.21-19.68,57.6-29,88.95-3.1,10.48-5.79,19.53-7.37,24.53-5.77,18.19-8.9,70.91-9.52,93.6-.23,8.83-3.37,25.36-6.69,42.87s-6.76,35.59-6.76,44c0,16.56,3.81,83.27,3.84,83.94a2,2,0,0,1-.54,1.49,2,2,0,0,1-1.45.63H829.45a2,2,0,0,1-2-1.68c-.67-4.06-16.34-99.68-9.52-119.15,1.58-4.52,5.43-10,10.44-15.87a342.41,342.41,0,0,1-36.76-8.6c-4.8-1.33-8.6-2.38-10.52-2.67-5-.75-22.51-5.25-36.7-9.11-31.32-8.54-31.25-9.17-31-11.24,0-.48.4-2,2.83-1.88a11.39,11.39,0,0,0,4-.69l-68,2.71c-2.24,6.92-12.84,37.09-31.68,51,7.28,36.57-7.42,60.37-8.45,62-7,12.11-15,53.21-15.12,53.62a2,2,0,0,1-2,1.62H473a2,2,0,0,1-1.8-1.13c-8.57-17.62-4.87-92.64-4.54-99.11A61.34,61.34,0,0,0,451.93,622a52.78,52.78,0,0,1-6.07-2c-4.73-1.92-11.47-4.1-18.61-6.4-16.09-5.19-36.11-11.65-47.6-19.76a2,2,0,0,1-.75-2.26,2.09,2.09,0,0,1,1.94-1.37,136.4,136.4,0,0,1,38.82,7.55c14,4.94,25.45,11.91,34.15,20.64,9.38,2.39,18.92,2.21,26.27,2.06,3.05-.06,5.68-.11,7.95,0,3.89.21,6.94,1.57,9.89,2.89,4.44,2,8.63,3.86,15.92,2,5.4-1.41,6.76-16.9,6.11-33.4-.58-1.73-1.18-3.44-1.77-5.1-.87-2.47-1.69-4.8-2.38-7-1.29-4.08-5.81-9.45-11-13.7l-20.12,1.16h-.11c-12.76,0-18-13.21-18.2-13.78l-14.7-38.11c-.8.21-1.73.42-2.78.62L461,549.23a2,2,0,0,1-.86,2.4c-1,.61-25.22,15-37.2,20.29-14.5,6.38-57.09,22.72-79.67,21.78a2,2,0,0,1-1.53-.81,2,2,0,0,1-.32-1.7c.82-3.05,1.8-7.1,2.77-11.74-3.88,8.92-8.14,15.76-11.87,17.84a1.86,1.86,0,0,1-1.08.25c-3.31-.16-20-1.33-23.72-7.71-1.49-2.55.56-6.69,6.71-18.27,8.46-15.94,21.65-40.81,17.27-58a33.72,33.72,0,0,0-4.45.16c-1.66,39.35-27.59,73-28.71,74.43a2,2,0,0,1-1.26.75c-13.64,2.2-26.71-6-33-10.8,1.71,19,7.74,87.57,7.74,106.81,0,22.2-12.55,56.87-13.09,58.33a2,2,0,0,1-1.88,1.32H46.48a2,2,0,0,1,0-4h209c2.31-6.61,12.38-36.53,12.38-55.65,0-21.75-8.08-110.36-8.16-111.26a2,2,0,0,1,3.37-1.63c.16.15,16.29,15.12,32.59,13,3.61-4.88,26.58-37.27,27.44-73.12a2,2,0,0,1,1.56-1.9,26.36,26.36,0,0,1,5.41-.51,20.73,20.73,0,0,0-3.56-5.32q-5.72-6.19-12.06-7.64c-6.62,9.5-15.58,18.73-21.89,21.89-2.88,1.44-5.23,1.61-7,.49-.91-.58-2.36-2-1.94-5.21.83-6.18,8.82-17,20-20.48a22.73,22.73,0,0,1,8.94-1c3.75-5.68,6.42-11.19,6.69-15,.51-7.13-3.06-18.59-6.53-29.67-2.83-9.08-5.51-17.67-6-23.85A137,137,0,0,0,294.87,379c-10.09-21.7-24.77-36.46-43.7-44-6.84,5.48-12.22,11.91-15,19.17-4.36,11.35-.58,26,3.42,41.59,4.57,17.76,9.29,36.12,3.32,53C232.2,479,253.77,554.84,254,555.61a2,2,0,0,1-3.67,1.52c-9.57-17.22-22.52-63.58-29-96.65a142.31,142.31,0,0,1,.87-58.55c-6.94-31.68-.62-49.74,5.93-59.33,7.28-10.67,16.3-13.52,16.68-13.64a2,2,0,0,1,1.15,0q2.31.68,4.55,1.49a96,96,0,0,1,14.15-8.75c13.92-7.07,30.74-11.76,45-12.52a2,2,0,0,1,1.87,1.05c.2.36,18.36,34,30.63,48.51,2.54-6.68,9.15-21.74,18.78-26.95-10.31-7.73-40.9-31.84-38.6-44.05.4-2.16,2-5,7.1-6.36l.2,0c.65-.1,16-2.45,22.64.11a1.7,1.7,0,0,1,.44.24,154,154,0,0,1,1.11-19.26,122.2,122.2,0,0,1-6.72-25.23c-4.82-13.55-9-33.84-5.7-59.81,6.13-48.13,39.08-47.56,42.28-47.39a234.36,234.36,0,0,1,44.75-.16c31.88,3.18,52.35,13.3,60.85,30.08,0,0,0,.08,0,.13s8.18,19.84-8.92,30c2.34,13.8-.08,34.77-2.15,39.33a8.45,8.45,0,0,1-4.78,4.61c-1.48.68-2.45,1.13-3.27,4.2-1.45,5.44,4,24.61,6.22,31.54a2,2,0,0,1-.4,1.92c-4.36,5-7.52,4.91-10.62,4.31a4.69,4.69,0,0,0-3.05,0,.65.65,0,0,0-.37.45c-.63,1.81,1,6.32,2.29,8.8a2,2,0,0,1-1.28,2.87l-2.53.63a8.71,8.71,0,0,1,.63,5.55,2,2,0,0,1-1.58,1.53c-.76.15-2.93.86-3.76,2.32a3.75,3.75,0,0,0,0,3.21c2.82,7.88-3.62,13.9-3.89,14.15a2.1,2.1,0,0,1-.5.34c-8.47,4-27.15,6.62-57-21-11.1-10.28-13.15-28.43-13.52-35-8.16.66-16.55-9-19.57-15-2.07-4.13-6.47-14.48-2.71-21.25,1.83-3.29,5.22-5.19,10.08-5.65a14,14,0,0,1,11,3.36c5.28,4.7,6.58,12.86,6.89,16.26l9.22,2.3c-.53-13.43,13.85-23.07,18.93-26-3.92-9.55.89-22.78,3.15-28.06-16.48-4.87-36.71-28.8-37.61-29.87a2,2,0,0,1,3-2.65c21.17,22.83,79.51,31.89,92.33,33.64a16.11,16.11,0,0,0-1.38-3.42,2,2,0,0,1-.27-1c0-1.43-.5-35.25-36.65-39.32-35.92-4-61.78-1.29-69.25,7.37-1.41,2.25-24,39.46-17.1,85.57a73.4,73.4,0,0,0,8.93,18.22,2,2,0,0,1,.34.76c3.28,15.19,2.23,27.14-3.13,35.55,1,16.11,5.11,35.12,17.36,45.48,11.46,9.7,19.07,26.87,23.84,44.3,2-15.35,3.59-26.9,3.63-27.19a2.13,2.13,0,0,1,.27-.78c1.75-2.83,17.18-27.83,22.63-31.79a3.74,3.74,0,0,1,4.31-.09c2.18,1.33,4.33,5.15,6.15,10a21,21,0,0,1,5.82,3,3.28,3.28,0,0,1,.34.31c4.42,5.09,10.43,10.89,12.42,11.38,2.94.74,26.34,8.07,32.27,15.06,5.51,6.52,27.76,38,29.75,51.93a2,2,0,0,1-1.85,2.28l-90.66,5.75c-.57.13-4,1-5.5,3.59-1,1.72-1,4-.07,6.74l29.75,81.64a26.94,26.94,0,0,0,4.6-1.18,2,2,0,0,1,2.61,1.14l15.37,39.87c.18.45,4.47,11.17,14.41,11.21l15.08-.88c-3.5-2.12-6.93-3.43-9.63-3.29-10.06.52-16.79-8.1-17.07-8.47a1.75,1.75,0,0,1-.28-.52L430.32,435.84c-1.26-3.25-1.25-6.09.05-8.43a9.68,9.68,0,0,1,6.27-4.35l.24,0,84.55-5.26a2.11,2.11,0,0,0,1.07-1.26c.1-.89-.94-2.14-1.33-2.49a2,2,0,0,1,1.22-3.48l99.92-5.77c19.14-1.55,22.55,9.62,22.69,10.1l41.76,124.32c1.49,4.47,1.16,8.16-1,11-4,5.32-13.16,5.16-14.34,5.11l-31.79,1.65a4.36,4.36,0,0,1,1.3,3,13,13,0,0,1-1.33,5.82c4.71-2.73,8.8-4.66,10.52-4.38a3.2,3.2,0,0,1,2.63,2.81c.63,4.08-4.08,11.39-11.85,15.36s-12.68,8.69-13.65,13.06c-1.12,5-10.78,19.61-18.86,21.22-7.07,1.42-25.87,5.18-35.28-11.55-8.27-14.7-17.63-19.56-21.59-19.16-2.82.28-6.45-1.24-10.29-2.86-3.36-1.41-7.19-3-9.66-2.92a17.63,17.63,0,0,1,4.42,8.24c1.53,8.66-7.4,23.72-8.42,25.41a2,2,0,0,1-3.71-1c0-.36,0-.72,0-1.09-.83,10.26-3.29,18.83-9,20.32-8.65,2.24-13.91-.12-18.55-2.2-2.74-1.22-5.33-2.38-8.47-2.55-2.13-.11-4.69-.06-7.66,0-6.17.12-13.84.27-21.8-1a64.94,64.94,0,0,1,12.27,23.47,1.78,1.78,0,0,1,.07.65c0,.79-4,77.17,3.63,96.37H593.4c1.6-7.94,8.72-41.91,15.28-53.28l.05-.09c5.36-8.29,13.1-30,8.2-57.44a36.12,36.12,0,0,1-5.83,2.77,29.24,29.24,0,0,1-10,1.84c-21.53,0-33.23-26.64-33.37-27a2,2,0,0,1,3.54-1.85c14.34,22.86,44.39,12.26,44.69,12.15a2,2,0,0,1,1.6.1,2,2,0,0,1,1,1.24c.38,1.34.72,2.66,1,4,18.89-15.2,29.12-48.77,29.24-49.16a2,2,0,0,1,1.83-1.42l78.18-3.11c2.23-1.41,4.34-2.9,6.07-4.2l-41-12.8a2,2,0,0,1-1.34-2.44c0-.08.56-2.11,1.14-5.45l-2.26-.78a2,2,0,0,1-1.35-1.78,75.35,75.35,0,0,0-2.79-15.84L647.91,413.66c-.21-.68-4.78-14.91-25.4-14L573,402a2,2,0,0,1-2-1.28,2,2,0,0,1,.6-2.27c.88-.72,21.7-17.6,36.91-20.54a2,2,0,0,1,1.91.67,31.57,31.57,0,0,0,10.6,7.55c-7.3-7.35-18.8-21.18-18.45-35.13.24-9.7,3.25-19.49,6.15-29,3-9.77,6.1-19.87,6.34-30.12v-.59c.54-23.3,2.15-93.09,31.52-96.36,5.91-6.24,18.57-16.42,37.39-15,28.16,2.13,50.54,19,59.85,45,2.72,7.6,5.53,16.3,8.51,25.51,7.21,22.27,15.38,47.52,22.41,56.56,5.07,6.52,5.76,18.72,1.75,31.08-5,15.43-15.73,26.89-28.71,30.67a2,2,0,0,1-2-3.25c.22-.25,22.21-25.41,14.95-49-4.18-13.58-7.43-21.56-10-28a92.9,92.9,0,0,1-4.88-13.94,102.19,102.19,0,0,0-5.36-15.19,86.94,86.94,0,0,1-4.24-11.68c-2.34-9.34-11.61-39.74-33.09-39.32a49.13,49.13,0,0,0-32.29,13.22,53.06,53.06,0,0,1-5.4,13.63c-6.2,11-11.12,43.64-7.47,59.57.66,2.92,1.36,7.27,2.17,12.31.29,1.78.59,3.68.92,5.67,5.2,9.67,12.63,17.55,22.66,21.95,25.87,11.34,44.43,4.18,48,1.64l.67-.47c2.74-1.86,8.82-6,11.36-19.46.41-8.28.87-15.46,1.07-18.44a2,2,0,0,1,2-1.87h0a2,2,0,0,1,2,1.92,86.08,86.08,0,0,1-1.07,18.79c-.86,17.89-1.1,33.46-.1,35.64,1.2,2.39-.34,7-5.41,20.53-6,16.1-14.28,38.15-13.12,53.22,0,.43.06.88.08,1.34a127.52,127.52,0,0,0,15.2-21.79A271.89,271.89,0,0,0,764.14,361a2,2,0,0,1,2.74-1.21l16.76,7.66c2.9,1.15,5.91,2.32,9,3.5,22,8.56,44.82,17.42,50.62,28.08,6,11,30.58,53.58,36,62.41,5.54,9.07,6.58,22.51,5.55,28.75a53.11,53.11,0,0,0,.33,8.11c.78,10.12,1.85,24-3.37,28.83a6.92,6.92,0,0,1-6,1.69c-6.19-1-17.32,4.23-26.42,9.42a25,25,0,0,1,10.45,1.59c12.54,4.8,17.92,18.38,18.14,19a2,2,0,0,1-3.65,1.62c-.88-1.67-10.79-6.54-21-7.56-5.21-.52-15.57,2.92-24.72,5.95-6.93,2.3-13.49,4.47-18,5.09-7.36,1-20.15.23-30.43-.4-4.69-.29-8.74-.54-11.15-.54-7.73,0-24-3.85-29.24-6.45a16.85,16.85,0,0,0-4.06-1c-6.57-1.14-17.57-3-22.41-19a19.64,19.64,0,0,0-5.63-9.25,2,2,0,0,1-1.26,0c-2.1-.7-4.75-1.53-7.19-2.23a99.49,99.49,0,0,1-.93,20l57,19.72c1.44.47,5.3,1.76,5.09,4.69-.2,2.76-4.44,4.91-12.59,6.37a1.33,1.33,0,0,1-.28,0l-17.28.69a46.59,46.59,0,0,1-7.5,3.77c14.82,4.6,51.8,14.49,59.1,15.58,2.17.33,5.87,1.36,11,2.78,9.74,2.71,23.89,6.64,38.84,8.89,17-18.57,43.2-38.92,44.71-40.09a2,2,0,0,1,2-.28,2,2,0,0,1,1.24,1.56c1.48,9.87-5.5,39.83-5.8,41.1a2,2,0,0,1-1.49,1.5c-12.06,2.79-25.87,2.32-39.11.47-5.5,6.15-9.74,11.94-11.34,16.49-6,17.18,7.33,102.44,9.43,115.51h43.25c-.65-11.57-3.73-67.07-3.73-82.06,0-8.8,3.47-27.09,6.83-44.77,3.14-16.58,6.4-33.72,6.63-42.23.49-18.18,3.32-74.61,9.69-94.7,1.58-5,4.26-14,7.36-24.46,9-30.52,22.58-76.16,28.73-88.64a75.43,75.43,0,0,0-7.1-8.61c.42,2.53.79,4.1.81,4.16a2,2,0,0,1-3.25,2c-12.63-10.78-11.33-13.75-10.91-14.72s1.52-2.09,4.28-1.76a12,12,0,0,1,4,1.3c-.5-8,0-17.87,4.1-25.26a84.78,84.78,0,0,1,8.3-11.27,61.32,61.32,0,0,0-7.29,8.06,2,2,0,0,1-1.8.89,2,2,0,0,1-1.66-1.13c-.06-.11-5.79-11.74-13.47-11.36-2.88.15-5.62,1.83-8.52,3.61-5.2,3.19-11.68,7.17-20.84,2.42a2.23,2.23,0,0,1-.5-.37,18.31,18.31,0,0,1-4.9-12c0-3.26-5.21-11.66-9-17.8-2.8-4.51-5-8.1-5.74-10.24l-.8.39c-2.6,1.3-6.94,3.48-13.51.67a2,2,0,0,1-1.19-2.12c2.2-15.62,3.55-34,1.9-36.37a14.13,14.13,0,0,0-3.06-2.46c-2.58-1.7-5.49-3.63-7-9.91-1.57-6.69-2.63-19.43-1.72-31.34a14.3,14.3,0,0,1-9.29-4.92c-3.87-4.66-4.18-11.54-.79-17.54,6.87-12.15,40.55-58.31,79.84-62.12,35.19-3.42,44.2,12.26,45.95,16.43,6.11,2.69,38.66,21.28,36,110.62a2.05,2.05,0,0,1-.21.85s-.14.27-.34.71c1,4.31,1.83,8.3,2.57,11.86l3.11,7.36a2,2,0,0,1-.64,2.38c-.14.1-.29.22-.47.37.31,1.63.56,3,.76,4.08,2.81-1.32,7.42-2.86,11.35-1.25,3,1.25,5,4,5.93,8.23a2,2,0,0,1-.51,1.8c-4,4.17-9.46,10-15.55,16.77,9.79-7.71,20-13,29.87-13.42a1.88,1.88,0,0,1,.63.07,12.59,12.59,0,0,1,7,5.78c1.83,3.32,2.07,7.41.74,12.17,7.18,1.36,15.12,8.5,23.65,21.29,22.74,34.11,46.25,69.38,51.23,100.23,2,12.53,2,37.33,0,74,4,31.4,6.75,69.54,1.47,97.21-2,10.4-4,19.6-6,28.5-8.44,38.07-14.55,65.66-2.54,128.6h147.26a2,2,0,0,1,0,4H1093.17a2,2,0,0,1-2-1.62c-12.58-64.9-6.36-93,2.25-131.85,2-8.86,4-18,6-28.38,4-20.84,3.34-47.79,1-73.22q-1.25,18.46-3,40l-.32,3.92c-.82,10.16-28,56.73-53.15,95.38-12.6,19.36-55.25,83.46-75.1,95.43A2,2,0,0,1,967.8,747.9Zm45.93-448.1a122.42,122.42,0,0,0-21.44,11.52c-16.45,11.06-38.74,31.88-51.43,68.25-13.52,38.74-29.17,103.83-38.94,162-12.13,72.12-14,124.65-5.27,147.94a1.85,1.85,0,0,1,.11,1c0,.36-3.92,30.24,5.48,46.7-3.5-12.4-7.52-34.51,1.32-52.18a1.9,1.9,0,0,1,.35-.49c.13-.14,13-13.52,20.11-21.56,7.42-8.4,42.05-56.1,47.62-75.13.68-2.32,1.28-4.41,1.83-6.3,4.16-14.39,5.15-17.81,9.89-21.6a8.12,8.12,0,0,1,2.69-1.29,43.35,43.35,0,0,1-4.83-12.05c-6.9-28.44-7-35.88-7.13-47.16,0-2.14-.05-4.44-.13-7.05-.23-7.83-3.93-19.62-7.51-31-3.74-11.9-7.61-24.21-7.86-32.93-.28-9.77.94-31.78,7.29-52.24,8.09-26,22.1-41.28,40.58-44.18l6-29.83a2,2,0,0,1,.15-.47A13.35,13.35,0,0,1,1013.73,299.8Zm76.2,141.52c-5.06,23.38-4,74.85-3.56,95.66.09,4.24.15,7.29.15,9.09,0,12.9-12.8,40.61-23.7,42.79-8.14,1.63-24.75,24.79-30.14,52.23-3.94,20.06-35.61,67-52.62,91.15,14.83-16,36.45-45.27,60.51-82.24,28.31-43.5,51.87-85.45,52.52-93.52l.33-3.93q3-35.73,4.45-62.84C1095.16,468.84,1091.85,451,1089.93,441.32ZM580.27,622.93c6.47,7.32,16.4,13.92,29.46,9.17a32.63,32.63,0,0,0,6.36-3.19c-.25-1.15-.53-2.3-.83-3.47C609.65,627,593.7,630.36,580.27,622.93ZM389.15,594.86c11.21,5.84,26.54,10.79,39.33,14.91,5.92,1.91,11.2,3.62,15.55,5.22a93,93,0,0,0-25.71-13.47A137.38,137.38,0,0,0,389.15,594.86ZM552,579.11c6.27,0,16.34,6.46,24.64,21.22,8,14.19,24.12,11,31,9.59,6-1.2,14.83-14.12,15.73-18.17,1.25-5.62,6.84-11.22,15.74-15.76,6.22-3.17,9.23-8.25,9.68-10.43-2.85,1-10.28,5.42-16.81,9.7-.42.31-.86.6-1.31.87a2,2,0,0,1-2.13-3.38l1.26-.84c5.05-3.7,7.53-10.09,7.17-11.85-3.52,1.05-15.61,13.26-17.12,15.44-1.25,2-10.81,6.6-13.84,5.71a2.54,2.54,0,0,1-1.9-2.48c0-1.47,1.13-3.1,4.65-7.78,2.53-3.38,7.81-10.41,7.4-12.48,0-.12-.06-.22-.09-.31l-5.79.3c-1,.36-1.86.74-2.42,1-1.54.91-6.34,9.45-8.93,14-3.71,6.61-5.12,9-6.26,9.78-1.8,1.25-5.52,1.91-7.83-.09-2.55-2.22-2.3-6.44.75-12.53q.46-.95.87-1.83a83.44,83.44,0,0,1-11,3.73,38.21,38.21,0,0,0-4.12,1.3c-4,1.76-10.45,0-14.75-1.11-1.15-.31-2.14-.57-2.72-.67a27.24,27.24,0,0,1-4.46-1.49c-3.9-1.52-9.26-3.58-13.81-3.29a6.16,6.16,0,0,0-5,3.52,3,3,0,0,0-.36,2.45c.08.11.39.16.78.13,3.46-.3,7.71,1.49,11.8,3.21,3.21,1.34,6.53,2.73,8.34,2.56A7.63,7.63,0,0,1,552,579.11Zm284.41,29.2c11.52,1.42,23.28,1.68,33.68-.51,1.14-5.06,5.4-24.53,5.62-34.69C868.46,578.87,849.87,594.07,836.38,608.31ZM524,591.42a88.31,88.31,0,0,1,3.21,11.87c2.7-5.45,5.61-12.75,4.86-17s-5.62-8.83-9.44-11.65C523.11,578.84,523.7,584.88,524,591.42ZM311,588c2.11,3.16,12.54,5.12,19.76,5.56,5.16-3.62,12.63-20.72,17.27-38,1.55-14.51,1.24-28.43-4.17-33.41a2,2,0,0,1-.54-2.09,2,2,0,0,1,1.68-1.37c.25,0,2-.21,4.54-.45a3.23,3.23,0,0,0-.82-.54,46.8,46.8,0,0,0-13.1-3.76c3.81,18.61-9.36,43.44-17.92,59.56C314.57,579.42,311,586.18,311,588Zm41.07-31.69a259.73,259.73,0,0,1-6.2,33.48c22.39-.29,61.66-15.44,75.4-21.48,10.12-4.46,29.89-16,35.34-19.22l-11.77-32.32c-9.53,1.46-24.3,2.72-37.91,3.55a2,2,0,0,1-3.2.19c-13.76.79-25.75,1.1-29,.7-4.05-.51-12.43,0-19.2.51a29.77,29.77,0,0,1,.67,5.32C356.61,534.9,354.91,545.59,352.11,556.26Zm239.8,9.6a50.18,50.18,0,0,1-2.77,6.56c-2.53,5.07-2.26,7.24-1.7,7.73s2.27.24,2.89-.14c.77-.79,3.17-5,5.1-8.49a139.44,139.44,0,0,1,7.67-12.69l-4.44.23A21.28,21.28,0,0,1,591.91,565.86ZM608.06,579Zm12-21c.49,3.55-3.08,8.65-8.16,15.41-.84,1.12-1.79,2.38-2.54,3.44,2.63-.93,6.34-2.74,7.16-3.59l-.1.14c.1-.16,10.36-12.22,17.42-16.11Zm-109.59,7.85a38.38,38.38,0,0,1,8.31,10.82c-.21-2-.45-3.91-.7-5.77a2,2,0,0,1,.87-1.93,2,2,0,0,1,2.11-.07,45,45,0,0,1,5,3.42,8.56,8.56,0,0,1,.88-3.21,10.66,10.66,0,0,1,4.12-4.45Zm186.35-13.38,42.88,13.37a2,2,0,0,1,.69,3.44c-.45.38-1.93,1.6-4,3.14l10.68-.42a34.31,34.31,0,0,0,8.62-2.58,12.53,12.53,0,0,0-1.83-.74l-56.34-19.5C697.29,550.45,697.06,551.56,696.86,552.41Zm296.38,9.18a31.86,31.86,0,0,0,17.88,9.87c6.38,1.09,10.26-.36,10.92-1.38.06-.09.17-.26-.19-.8-2-3-8.25-5.62-16.67-6.93A62.87,62.87,0,0,0,993.24,561.59ZM542.1,564a64,64,0,0,1,8.77,2.88,28.62,28.62,0,0,0,3.67,1.28c.77.12,1.79.4,3.09.74,3.3.88,9.43,2.51,12.1,1.32a41.35,41.35,0,0,1,4.65-1.49c4-1.12,9.55-2.71,14.18-5.45,1.34-4.55,1.15-7.63.28-9.2a2.07,2.07,0,0,0-1.68-1.18c-2.48-.24-7.25,4.8-9.7,8.29a2,2,0,0,1-1.52.85Zm-51.79-8.85c4.67,0,10.53,2.88,15.81,6.92l68.64-4c2-2.75,7.71-9.68,12.79-9.18a6.1,6.1,0,0,1,4.8,3.23,12.44,12.44,0,0,1,1,7.33,14,14,0,0,0,2.25-3.21,2,2,0,0,1,1.69-1.11l12.08-.63c2.68-.94,5.8-1.62,8.08-.42h0l53.8-2.79h.21c2.24.11,8.62-.31,11.07-3.54,1.3-1.7,1.42-4.15.38-7.28L641.18,416.05c-.13-.41-2.86-8.55-18.6-7.29l-96.47,5.57a5.61,5.61,0,0,1,.36,2.64c-.15,1.28-.87,3.1-3.49,4.52a1.86,1.86,0,0,1-.83.24L437.28,427a5.6,5.6,0,0,0-3.43,2.36c-.68,1.25-.61,2.94.21,5.05l42.17,114c1,1.19,6.35,7.08,13.51,6.69ZM709.64,523.8a23.22,23.22,0,0,1,7.4,11.6c4.13,13.59,12.88,15.09,19.27,16.19a19.65,19.65,0,0,1,5.17,1.34c4.33,2.16,19.82,6,27.45,6,2.53,0,6.64.25,11.39.54,9.57.59,22.68,1.39,29.65.44,4.19-.57,10.57-2.69,17.32-4.93,10-3.31,20.32-6.74,26.38-6.13a59.88,59.88,0,0,1,16.55,4.41c-2.61-3.61-6.53-7.67-11.9-9.72-6.29-2.4-13.44-1.6-21.24,2.36a2,2,0,0,1-2.05-3.42c1.14-.8,28.2-19.65,41.32-17.63a2.87,2.87,0,0,0,2.64-.68c3.8-3.52,2.73-17.33,2.1-25.58-.33-4.29-.57-7.38-.29-9.08,1-5.86-.22-18.16-5-26-5.56-9.1-29.89-51.2-36.07-62.57-5.11-9.39-28.19-18.36-48.56-26.27-3.07-1.19-6.1-2.37-9-3.53l-.09,0-14.79-6.76c-3.31,9.75-17.38,48.6-38.06,69.24C728,460.54,713.56,511.7,709.64,523.8ZM694,543.65l.33.12A96.89,96.89,0,0,0,695,524a13.45,13.45,0,0,0-2.41-.41,2.11,2.11,0,0,1-2.28-1.85c-.06-.71.13-2,2.25-2.39a15,15,0,0,1,1.91-.24c-1.3-9.21-4.46-18.75-11.08-26.48-13.84-16.14-18.41-55.21-19.92-79.7a57.93,57.93,0,0,1-.7-21.42,1.92,1.92,0,0,1,.21-.58,53.27,53.27,0,0,1-19.5-1.93c-22.67-7.05-26.91-41.35-25.41-56.86.47-4.86,1.88-12,3.52-20.35,3.38-17.12,8-40.57,7-58.61-1.44-27,7.31-45.15,13.41-52.62-8,4.2-14,16.24-17.92,35.92-4.14,20.78-4.67,43.87-4.93,55V292c-.26,10.81-3.44,21.17-6.51,31.2-3,9.64-5.75,18.74-6,27.89-.45,18,22.57,37.12,22.8,37.31a2,2,0,0,1,.59,2.3,2,2,0,0,1-2,1.24c-10.13-.84-17.37-7.43-19.75-9.89-9.79,2.32-22.2,10.65-29,15.64l43.08-2.06c23.89-1,29.34,16.63,29.39,16.81l39.36,115.68A78.12,78.12,0,0,1,694,543.65Zm-344.9-21.41a28,28,0,0,1,3.15,9.78c.09-1.71.11-3.34,0-4.86a25.24,25.24,0,0,0-.7-5.15ZM245.4,333a32.33,32.33,0,0,0-14.18,12.11c-8.65,12.88-10.4,32.4-5.06,56.44a2.07,2.07,0,0,1,0,1,139.71,139.71,0,0,0-.93,57.21,628,628,0,0,0,18.12,69.37c-5.46-25.42-11.16-62-4.2-81.66,5.56-15.71,1-33.48-3.43-50.65-4.16-16.19-8.1-31.49-3.27-44,3-7.7,8.3-14.11,14.35-19.31ZM698.58,519.21a22.51,22.51,0,0,1,7.6,2.32c3.92-12.43,16.47-57.66,18.74-84-8.74,7.29-18.52,11.07-29.06,8.16-14.12-3.89-22.47-11.43-27.33-19.69,2.22,23.05,7.1,51.47,17.85,64C693.8,498.66,697.24,509.19,698.58,519.21Zm-364.11-9.52A50.54,50.54,0,0,1,350.4,514a8.1,8.1,0,0,1,3.81,3.78c7.1-.58,16.47-1.15,21.08-.57,3,.37,14.13.08,27.12-.64-3.2-10.68-12.9-44.87-12.08-64.23.5-11.72,3.61-38.09,6.47-60.69-4.27-20-12.08-41.6-25-52.51a39.31,39.31,0,0,1-5.35-5.52,1.93,1.93,0,0,1-1,.65c-10.15,2.54-18.37,21.75-20.68,28.94a2,2,0,0,1-3.35.77c-11.47-11.91-29.27-44.13-32.85-50.71-16.1,1.14-37.83,7.8-53.67,19,18.83,8.13,33.47,23.25,43.6,45.08a140.94,140.94,0,0,1,12.25,46.15c.41,5.71,3,14.08,5.79,22.94,3.57,11.44,7.27,23.26,6.7,31.14-.29,4.12-2.83,9.74-6.47,15.52,4,1.21,8.36,3.76,12.67,8.44A24.74,24.74,0,0,1,334.47,509.69Zm66.41-118.42c3.72,17.62,4.69,33.92,4,41.14-1.28,13.66,1,69.84,2.13,83.87,13.13-.8,27.31-2,36.47-3.36L414,432c-1.37-3.94-1.23-7.35.41-10.13,2.62-4.45,8.1-5.45,8.33-5.49l.22,0,88.49-5.62c-3.61-13.89-23.5-42-28.41-47.77-4.6-5.44-25.36-12.56-30.18-13.76-4.12-1-12.33-10.19-14.32-12.46a18.51,18.51,0,0,0-1.62-1.05c2.52,8.71,3.94,18.95,3,24.84a2,2,0,0,1-3.88.3c-3.1-9.75-7.82-18.3-10.1-18.3-3.94,0-9.72,5.87-11.44,7.93a2,2,0,0,1-3.41-2c.22-.6,5.5-14.85,15.7-18a13.74,13.74,0,0,1,3.84-.61c-1.35-3.24-2.67-5.47-3.63-5.91-3.72,2.89-14.61,19.44-21.24,30.21C405.41,356.89,403.24,372.72,400.88,391.27ZM309.81,496.14a19.51,19.51,0,0,0-5,.92c-9.36,2.95-16.56,12.3-17.21,17.19-.11.82,0,1.25.13,1.32s1.2.21,3-.71C296,512.23,303.73,504.4,309.81,496.14Zm89.37-91.28c-2.32,19-4.45,38.16-4.85,47.63-.55,12.88,3.93,33.22,7.75,47.94C401,478,399.89,443,400.91,432,401.38,427,400.94,416.83,399.18,404.86Zm268.35,8.72c2.88,10.95,10.51,23.05,29.4,28.25,10.25,2.82,19.89-2,28.32-10.07,0-1.88,0-3.6-.11-5.14-1.22-15.95,7.21-38.48,13.36-54.93,2.75-7.34,5.86-15.65,5.54-17.44-1.13-2.5-1.16-12.82-.83-24.06a25.65,25.65,0,0,1-8.54,9.1l-.61.42c-4.84,3.46-24.78,10.66-51.92-1.24A48.69,48.69,0,0,1,662.87,323c4.47,23.84,12.52,53.34,30,56.36a2,2,0,0,1,1.64,1.71,2,2,0,0,1-1.14,2.07,97.43,97.43,0,0,1-27.16,7.49,2,2,0,0,1,.46,1.27C666.69,392.14,666.72,401.05,667.53,413.58Zm-19-214.72a33.87,33.87,0,0,0-2.4,3,2,2,0,0,1-.19.24c-5.27,5.68-14.86,23.62-13.4,50.89,1,18.54-3.68,42.27-7.1,59.6-1.62,8.2-3,15.29-3.47,20-1.4,14.45,2.29,46.33,22.62,52.65,15.2,4.73,33.41-.51,42-3.65-18.45-8.87-25.55-44-29.45-67.48-8.83-16.94-11.27-38.67-8.93-57.38a60.57,60.57,0,0,1,19-37.15c1-4.88,1-9.88-1.21-13.67-2.7-4.63-8.49-7-17.2-7Zm55.06,5.6c10.52,0,19.54,6.16,26.84,18.33a93.8,93.8,0,0,1,9.66,24,84.9,84.9,0,0,0,4,11.12,105.26,105.26,0,0,1,5.56,15.8,89.06,89.06,0,0,0,4.69,13.35c2.51,6.15,5.94,14.57,10.16,28.31,5.73,18.62-4.55,37.35-11.07,46.72,8.63-4.89,15.59-13.86,19.26-25.19,3.55-11,3.11-22-1.11-27.4-7.46-9.59-15.39-34.09-23-57.78-3-9.18-5.78-17.85-8.48-25.39C731.38,201.81,710.3,186,683.75,184c-14.46-1.09-25.09,5.54-31.29,11,8.27.65,14,3.61,17,8.83a20.62,20.62,0,0,1,2.31,11.9c9.31-7,20.48-11,31.27-11.26Zm210.18,147.7a40.82,40.82,0,0,0,4.81,5.38c-.15-1-.3-2.05-.43-3.21A12.3,12.3,0,0,0,913.81,352.16Zm-1.28-.1ZM426,338.48c3.79,0,7.25,5.17,9.82,10.56a85.4,85.4,0,0,0-3.61-15.11,9.65,9.65,0,0,0-4.17.34c-3.11,1-5.72,3.35-7.78,6A11.93,11.93,0,0,1,426,338.48Zm-95.67-53.2c-3.66,1-4,2.65-4.08,3.2-1.51,8,20.45,27.63,36.62,39.79-5.77-9.8-8.43-21.9-9.51-33.07a25,25,0,0,1-14.14,6.92,2,2,0,0,1-2-1.23,2,2,0,0,1,.57-2.3c1.68-1.4,6.8-8.57,10.52-14C342.78,283.75,333.87,284.73,330.29,285.28Zm576,20c7.26,0,12.63,6.91,15.13,10.9,6-7.12,20.36-19.6,33.14-30.3,7.49-7.81,14.89-15.24,20.57-20.75-1.84-3.69-2.1-8.1-1.6-12.39-7.41,4.42-18.43,9.28-28,6.52-8-2.32-16.74-10.87-25.2-19.14-7.24-7.08-14.73-14.41-18.91-14.41A13.12,13.12,0,0,0,890.83,232a15.26,15.26,0,0,0-1.41,14.54,2,2,0,0,1-.95,2.56l-9.61,4.8a2,2,0,0,1-2.89-1.76c0-.22-.41-22.61-9.14-30.78a9.74,9.74,0,0,0-7.49-2.79,2,2,0,0,1-1.46-.53,1.94,1.94,0,0,1-.64-1.41c-.16-5.1-1.91-19.27-8-23.48-2-1.38-4.33-1.59-7.13-.63a27,27,0,0,1-7.06,1.46c-1,12.2.35,24.82,1.63,30.3,1.12,4.73,3,5.94,5.28,7.48a17.92,17.92,0,0,1,3.89,3.19c3.41,3.89.79,26.69-.75,37.95,4,1.25,6.72-.09,8.73-1.1,1.46-.73,2.84-1.42,4.33-.78a3.94,3.94,0,0,1,2,2.62c.48,1.6,3,5.61,5.37,9.49,5.62,9.08,9.61,15.82,9.61,19.9a14.18,14.18,0,0,0,3.54,8.95c7,3.47,11.66.61,16.61-2.43,3.2-2,6.51-4,10.4-4.19ZM382.72,255.38a2,2,0,0,1,2,2c0,.23.17,23.29,12.33,34.56,9.66,8.94,34,28.75,52.25,20.45.89-.91,4.34-4.88,2.63-9.67a7.57,7.57,0,0,1,.32-6.55,9.19,9.19,0,0,1,5-3.83,3.33,3.33,0,0,0-1.52-3,2,2,0,0,1,.5-3.68l3.41-.85c-1.11-2.64-2.47-6.8-1.46-9.69a4.65,4.65,0,0,1,2.53-2.8,8.44,8.44,0,0,1,5.43-.32c1.94.38,3.38.66,6.1-2.18-1.7-5.44-7.77-25.78-5.93-32.69,1.21-4.52,3.19-5.75,5.47-6.8a4.56,4.56,0,0,0,2.81-2.64c1.78-3.9,3.89-24.08,1.89-36.71-7.61-1-48.33-6.56-76.7-21.14,6.81,5.88,14.65,11.35,21.26,12.52a2,2,0,0,1,1.44,2.86c-.09.18-9,18.4-3.41,28.38a2,2,0,0,1-.83,2.77c-.21.11-21.18,11-18.17,25.67a2,2,0,0,1-.57,1.85,2,2,0,0,1-1.87.5l-13.45-3.36a2,2,0,0,1-1.51-1.9c0-.1-.32-10.16-5.67-14.9a10,10,0,0,0-8-2.37c-3.51.33-5.78,1.51-7,3.61-2.32,4.18-.08,11.79,2.79,17.52,2.78,5.57,11.14,14.75,17.2,12.48A1.93,1.93,0,0,1,382.72,255.38Zm-30,29.73c-1.32,2-4.78,7.06-7.86,11.16a21.13,21.13,0,0,0,8-6.59l.07-.09C352.8,288.06,352.75,286.57,352.71,285.11Zm311.47-56.17a58.52,58.52,0,0,0-11.91,28.21,107.13,107.13,0,0,0,.79,31.71c-1.59-18.07,3.13-45.27,8.93-55.52C662.7,232.09,663.45,230.59,664.18,228.94Zm-306.55,35a158,158,0,0,0-.89,17.49A45.84,45.84,0,0,0,357.63,263.94Zm620.46-14.08c-.9,4.2-1.21,8.72.15,12.36,1.63-1.56,3-2.87,4.18-3.9-.42-2.15-.91-4.64-1.48-7.4l-1-2.38C979.41,248.93,978.79,249.38,978.09,249.86Zm-622.86,4.71q.82,2.55,1.78,5.12c-.19-1.11-.41-2.25-.65-3.41C356.11,255.93,355.73,255.36,355.23,254.57Zm546.28-32.82c5.81,0,13.18,7.21,21.71,15.55,7.72,7.55,16.48,16.12,23.52,18.16,9.42,2.73,21.27-3.71,27.82-8.05a62.55,62.55,0,0,1,3.44-10c-2.62-11.49-6.07-25.08-10.26-38.5-13.58-43.49-28.56-65.62-43.44-64-35.84,4-82.55,44-87.76,48.56-.46,2.07-.81,4.22-1.09,6.42a24.25,24.25,0,0,0,5.36-1.22c4-1.38,7.63-1,10.71,1.12,7.46,5.16,9.21,19.51,9.6,24.74a13.72,13.72,0,0,1,8.45,3.84c7.91,7.41,9.81,23.64,10.26,30.51l5.26-2.63a19.45,19.45,0,0,1,2.42-16.54A17.1,17.1,0,0,1,901.51,221.75Zm24.37-90.88c16.46,0,31.82,22.48,45.69,66.89,2.78,8.91,5.23,17.89,7.34,26.28-.3-41.11-8.82-64.37-16.29-76.88-8.77-14.68-18-18-18-18.07a2,2,0,0,1-1.27-1.33c-.23-.72-6-18-42.08-14.53-37.2,3.61-70.5,49.05-76.75,60.11-2.57,4.54-2.41,9.65.39,13a10.28,10.28,0,0,0,6.59,3.52,70.83,70.83,0,0,1,1.34-7.89,2,2,0,0,1,.61-1c2.08-1.86,51.37-45.63,90.46-50A17.21,17.21,0,0,1,925.88,130.87Zm-543.81,3.07c-6.36,0-31.49,2.65-36.75,43.95a133.73,133.73,0,0,0,.3,36.54,136.42,136.42,0,0,1,4.73-31.73c5.6-20.77,14-33.94,14.36-34.49l.15-.2c8.47-10,34.34-13.2,72.85-8.86,37.15,4.18,40,38,40.19,42.75a21.54,21.54,0,0,1,1.54,4c12.39-8.4,6.69-23,6.18-24.23-18.9-37.16-100.87-27.78-101.7-27.68a2.06,2.06,0,0,1-.43,0A12.71,12.71,0,0,0,382.07,133.94Z"/></g></svg>