<svg xmlns="http://www.w3.org/2000/svg" viewBox="0 0 299.78 185.18"><g id="Layer_2" data-name="Layer 2"><g id="Spend"><path d="M291.81,167.87a3.43,3.43,0,0,1-3.35,3.36c-2.26.14-4.59-.1-6.85-.16-2.09-.06-4.19-.11-6.28-.15q-6.27-.12-12.56-.16c-4.28,0-8.56,0-12.84-.12-2.09-.07-4.18-.13-6.28-.11s-4.66.41-6.65-.3a2.43,2.43,0,0,1-1.71-1.9c-6,.21-12.08.42-18.12.54l-33.2.65-18.47.36c-3.08.06-6.16.18-9.24.28-1.54.06-3.08.14-4.62.22-.93.05-1.87.09-2.8.21a8,8,0,0,0-3.45,1.53,5,5,0,0,0,0,8.55,13.39,13.39,0,0,0,2,1.07,9.21,9.21,0,0,0,3.42.53c1.44,0,2.88.06,4.33.06,2.79,0,5.58,0,8.37,0q8.22-.12,16.45-.28l32.91-.55c22.13-.37,64.81-.18,86.94-.48V168Z" fill="#e4cdc2"/><path d="M35.61,116.59a5.1,5.1,0,0,0,.69,2.82,5.25,5.25,0,0,0,3.32,1.64c2.72.59,6.08,1,7.81-1.2,1.57-2,.66-4.67,2.15-6.66.41-.55,4.85-3.74,5.35-2.11-.82-2.65-3.68-3.17-5.19-5.17s-1.54-3.82-2.58-6a37.4,37.4,0,0,1-3.37-18.73c.2-3,.25-5.64,1.63-8.33a52.74,52.74,0,0,1,5-7.53c.91-1.22,1.86-2.63,1.59-4.12-.72-.18-1.39.38-1.9.9A46.74,46.74,0,0,0,45,68.39c-1.4,2.07-2.43,4.32-4,6.2-3,3.5-3.37,8.48-3.79,12.86C36.24,97.23,35.17,106.74,35.61,116.59Z" fill="#cdf7e6"/><path d="M.08,2.68l0-.06L0,2.56l.09.13Z" fill="#fff"/><path d="M100.6,108.85c-.28,1.76-.45,3-.62,4.48.25-.12.51-.24.76-.34a12.25,12.25,0,0,1,7.84-2.13l.67,0,.35-.15a7.14,7.14,0,0,1-2.84-.34,2.88,2.88,0,0,1-1.13.58,3.2,3.2,0,0,1-3.57-1.45,6,6,0,0,1-.75-3.81c-.08.2-.17.39-.26.59C100.89,107.16,100.74,108,100.6,108.85Z" fill="#fff"/><path d="M104.48,100.33v-.1l0,0A.14.14,0,0,0,104.48,100.33Z" fill="#fff"/><path d="M104.48,100.11l0,.08c.1-.23,0-.19,0-.07v0Z" fill="#fff"/><path d="M104.49,100.21v0Z" fill="#fff"/><path d="M109.24,44.06h0l.09.09Z" fill="#fff"/><path d="M93.5,17.73l-.12.05h0Z" fill="#fff"/><path d="M216,120.94c1.6,1.08,1.15,4-1.06,3.88a31.61,31.61,0,0,1-6-.86l-.16,0a4.65,4.65,0,0,1,.89,3,2.35,2.35,0,0,1-2.93,2.23,6.29,6.29,0,0,1-3-2.39l-.14.12a3.15,3.15,0,0,1-1.79.67c0,.57,0,1.14,0,1.71l.51.78a1.93,1.93,0,0,1-.42,2.53c.1,4.09.22,8.18.32,12.28q24.57.25,49.06-1.86c.08-1.48.31-3,.39-4.34q.21-3.44.37-6.89c.21-4.59.43-9.19.55-13.79s.18-9.39.18-14.09q0-3.45,0-6.9c0-.92-.09-2-.12-3q-13.27,1.56-26.57,3-7.4.78-14.78,1.5c-2.46.24-4.92.49-7.39.7-.86.07-1.83.22-2.82.31.36,3.52.21,7.15.31,10.64.06,1.81.1,3.62.14,5.43,1.06.27,2.11.59,3.17,1C208.62,117.86,212.54,118.59,216,120.94Zm4.92,4.71a75.67,75.67,0,0,1,.63-12.23c.46-2.81,5-2.68,5.54,0a61.77,61.77,0,0,1,1,9.64c1.44-2.11,2.89-4.21,4.34-6.32,0-1.83-.07-3.66-.09-5.5,0-1.34,0-2.67,0-4,0-.58,0-1.15,0-1.72l0-.85a3.23,3.23,0,0,1-.08-2.13,3.73,3.73,0,0,1,5.42-2.2c1.86,1.15,2.35,3.15,2.47,5.24q2-2.89,4-5.8c1.27-1.87,4.32-.09,3,1.78q-3.47,5-6.9,10.12c.06,2.15.12,4.3.15,6.45q.17,8.89.24,17.78a3.82,3.82,0,1,1-7.64,0c-.14-4.32-.28-8.64-.39-13l-4.26,6.23c.1,2.85.18,5.7.15,8.54,0,4.75-7.09,4.68-7.33,0-.07-1.45-.12-2.89-.15-4.34l-3.13-.67-.25-.06c0,2.13.14,4.25.17,6.38.05,3.8-5.62,4.52-6.57.89a24.29,24.29,0,0,1-.68-3.9l-3.22,3.93c-1,1.25-2.74-.53-1.76-1.76,1.41-1.8,2.81-3.59,4.23-5.38l.56-.72v-.37c0-3.18,3.38-4.19,5.54-3.08.84.12,1.68.35,2.39.5l2.67.55C220.94,128.33,220.94,127,220.93,125.65Z" fill="#fff"/><path d="M255.79,150.79l-.22,0a2.43,2.43,0,0,1,.24.32C255.8,151,255.8,150.9,255.79,150.79Z" fill="#fff"/><path d="M95.65,68.27a4.66,4.66,0,0,1,1.16,2,54.4,54.4,0,0,1,1.58,10c.08.56.17,1.11.25,1.66,0,.14,0,.28.07.42a3.91,3.91,0,0,1,.93,1.28,6.26,6.26,0,0,1,.34,4.74l-1.33,7.13.08.08A5.14,5.14,0,0,1,102,101.7a1.89,1.89,0,0,1,0,.23,8.47,8.47,0,0,1-.11,2.09,6.68,6.68,0,0,1,.42-.79A15,15,0,0,1,104,101a2.42,2.42,0,0,1,.2-.24c.06-.1.13-.19.19-.28s.06-.11.08-.16a.37.37,0,0,1,0-.15l0-.1c0-.1-.28-.82-.24-.77-.31-.75-.71-1.47-1-2.2a13.19,13.19,0,0,1-1.41-6.89,44.22,44.22,0,0,1,1.55-6.72,12,12,0,0,0,.43-2.49,2.22,2.22,0,0,1-.37-.52c-1.38-2.91-2.3-6.18-3.63-9a34.36,34.36,0,0,0-3.63-6.09c0,.2,0,.41,0,.62A5.77,5.77,0,0,1,95.65,68.27Z" fill="#fff"/><path d="M113.66,82.69V82.6l0,0Z" fill="#fff"/><path d="M126.36,157.78c-14.74-15.43-31-29.4-51.8-36-7.21-2.29-15.11-3.78-22.69-3.28a6.39,6.39,0,0,0-6.25,6.25c0,1.18,0,2.37,0,3.55.68.25,1.36.51,2,.78a31.85,31.85,0,0,1,11.94,8.15,61.11,61.11,0,0,1,8,12.24,146.18,146.18,0,0,1,11.22,27.69,5.06,5.06,0,0,1,.19,1.48,5.21,5.21,0,0,1,.41,1.82,4.24,4.24,0,0,1-.71,2.47,47.89,47.89,0,0,0,8,.41h21.9c3.78,0,7.55,0,11.32-.09a7.86,7.86,0,0,0,3.31,0c3.39-.05,6.77-.12,10.15-.18a7.09,7.09,0,0,0,6.46-4.35,7.17,7.17,0,0,0-1.46-7.72c-2.66-3-5.35-6-8.08-8.93l-.09-.05A9.1,9.1,0,0,1,126.36,157.78Z" fill="#ccd7db"/><path d="M79.48,180.47a5.21,5.21,0,0,0-.41-1.82,5.06,5.06,0,0,0-.19-1.48,146.18,146.18,0,0,0-11.22-27.69,61.11,61.11,0,0,0-8-12.24,31.85,31.85,0,0,0-11.94-8.15c-.67-.27-1.35-.53-2-.78-8.55-3.11-18.75-4.31-26.12,1.9-8,6.76-4.5,18-1.16,26.25a63.78,63.78,0,0,0,7.06,13.18,68,68,0,0,0,4.66,5.91,33.51,33.51,0,0,0,3.12,3.19,5.48,5.48,0,0,0,3.85,3.53,31.47,31.47,0,0,0,5.32.68c3.61.41,7.24.71,10.87,1,7.16.61,14.33,1,21.51,1.22a4.75,4.75,0,0,0,4-2.24A4.24,4.24,0,0,0,79.48,180.47Z" fill="#575757"/><path d="M200.49,127.3c.48.64.95,1.29,1.4,2,0-.57,0-1.14,0-1.71A3.37,3.37,0,0,1,200.49,127.3Z" fill="#575757"/><path d="M237,170.23c2,.71,4.56.31,6.65.3s4.19,0,6.28.11c4.28.15,8.56.1,12.84.12s8.38.08,12.56.16c2.09,0,4.19.09,6.28.15,2.26.06,4.59.3,6.85.16a3.43,3.43,0,0,0,3.35-3.36,3.4,3.4,0,0,0-.17-1.08,3.63,3.63,0,0,0-3.18-2.28,62.52,62.52,0,0,0-6.57-.2l-6.27-.1-3.53,0a27.72,27.72,0,0,0-9.81-22.82,5.52,5.52,0,0,0-2-1.08c0-.26,0-.53.05-.79q.22-3.44.41-6.89c.24-4.59.35-9.19.41-13.79s.06-9.2,0-13.8c0-2.2-.1-4.41-.17-6.61,0-1.15-.07-2.3-.13-3.45,0-.58-.08-1.15-.13-1.73,0-.22-.06-2.09-.23-1.07a4.27,4.27,0,0,0-1.07-3.76c-.56-1.55-2.05-3-3.74-2.73q-14.88,2-29.79,3.59-7.38.81-14.77,1.55c-2.47.24-4.93.46-7.39.73-2.81.3-6.61,0-8.24,2.67a2.85,2.85,0,0,0-.34.81,2.88,2.88,0,0,0-.94,1.62c-.87,4.37-.55,9-.61,13.48q0,1.84,0,3.69l.61.69a4.07,4.07,0,0,1,1.38-.15,22.32,22.32,0,0,1,3.33.58c.94.18,1.85.39,2.75.62,0-1.81-.08-3.62-.14-5.43-.1-3.49,0-7.12-.31-10.64,1-.09,2-.24,2.82-.31,2.47-.21,4.93-.46,7.39-.7q7.39-.72,14.78-1.5,13.29-1.41,26.57-3c0,1,.11,2.07.12,3q0,3.45,0,6.9c0,4.7,0,9.39-.18,14.09s-.34,9.2-.55,13.79q-.17,3.45-.37,6.89c-.08,1.36-.31,2.86-.39,4.34q-24.48,2.09-49.06,1.86c-.1-4.1-.22-8.19-.32-12.28a2.05,2.05,0,0,1-2.4.29,31.61,31.61,0,0,1-5.81-4.77l-.19-.21c.07,7,.2,14.07.44,21.1a4.27,4.27,0,0,0,4.2,4.19c16.72.16,33.47-.41,50.15-1.73a2.65,2.65,0,0,0,.32.59,11.68,11.68,0,0,1,2.51,4.49,18.21,18.21,0,0,1-.26,6.41,5.1,5.1,0,0,0,0,1.51l-.71,0c-2.1.13-4.18.28-6.28.36s-4.94-.22-6.94.62a2.68,2.68,0,0,0-1.71,2.88A2.43,2.43,0,0,0,237,170.23Z" fill="#575757"/><path d="M255.79,150.79c0,.11,0,.22,0,.34a2.43,2.43,0,0,0-.24-.32Z" fill="#575757"/><path d="M109.25,110.9l-.67,0a12.25,12.25,0,0,0-7.84,2.13c-.25.1-.51.22-.76.34.17-1.53.34-2.72.62-4.48.14-.85.29-1.69.45-2.53.09-.2.18-.39.26-.59a5.9,5.9,0,0,1,.51-1.71,8.47,8.47,0,0,0,.11-2.09,1.89,1.89,0,0,0,0-.23,5.53,5.53,0,0,0-1.16-4.76c-1.15-1.32-2-2.29-1.66-4.19.27-1.46.55-2.92.82-4.37,1.33-3.58-1.14-7.22-1.82-10.61-.5-2.49-.72-5-1.35-7.47a4.66,4.66,0,0,0-1.16-2,5.33,5.33,0,0,1-2.31,2.6l-.45.22c-.52,2.14-1.6,3.83-1.94,6.08-.32,2.09.19,4.55.48,6.79s-2.4,3.57-4.22,2.89A18.09,18.09,0,0,1,87.07,92a2.19,2.19,0,0,1-2.1,1.6,2.27,2.27,0,0,1-2.1-1.6c-.59-1.41-1.22-2.87-1.92-4.26a7.64,7.64,0,0,1-2.48,0,14.15,14.15,0,0,1-1.83-.38l-.09,0a4.36,4.36,0,0,1-.62-.07l-.2.24c-.44.45-.93.83-1.37,1.29-.2.21-.38.44-.58.65a35.18,35.18,0,0,1-1.68,6.26c-1.55,4.13-3.82,8-7.71,10.36a10.82,10.82,0,0,1-8.32,1.41c-.12.42-.23.84-.34,1.27-.82,3.23,1.5,5.54,4.51,5.91a69.28,69.28,0,0,1,12.84,3.11c2.34.83,4.23,1.46,6.42,2.28a34.69,34.69,0,0,1,5.84,3,3.54,3.54,0,0,0,.87.38,39.39,39.39,0,0,0,5.87,5.16c6.19,4.55,12.44,9,18.67,13.52,2.12,1.53,5.64.44,6.82-1.79,1.38-2.61.45-5.14-1.79-6.81l-6-4.54a8.66,8.66,0,0,0,2.08-1.49,7.14,7.14,0,0,0,5.67-.27c5.81-2.86,5.1-11.16.9-15.16a7.36,7.36,0,0,0-6.24-2,6.93,6.93,0,0,1-2.55.7Z" fill="#f2b991"/><path d="M144,138.72a7.64,7.64,0,0,0,3.78-2.17c2.31-2.47,2.34-6,1.22-9-.58-1.59-1.29-3.14-2-4.7a9.37,9.37,0,0,0-1.94-3.27c-2.5-2.5-5.74-2-8.43-.42a6,6,0,0,0-3.14,1.22c-2.27,1.72-3.69,4.67-4.73,7.25a22.11,22.11,0,0,0-1.55,7.35,29.86,29.86,0,0,0-2.83,12.92,23.63,23.63,0,0,0,1.94,9.88,9.1,9.1,0,0,0,3.89,4.2l.09.05a8.62,8.62,0,0,0,1.79.67,4.94,4.94,0,0,0,1.82,1.48,7.45,7.45,0,0,0,1.79,3.69,4.61,4.61,0,0,0,5.06.95,4.66,4.66,0,0,0,2.85-4.23C143.94,156,143.93,147.34,144,138.72Z" fill="#f2b991"/><path d="M104.46,100.27l0,0v-.11A.37.37,0,0,0,104.46,100.27Z" fill="#4b84c4"/><path d="M130.91,97c3.45,1.21,7.07,2.19,10,3.45,7,3.06,14.38,5.8,21.25,9.23,7.38,3.21,14.87,6.45,22.84,7.58a13,13,0,0,0,2.4-6.51,3.84,3.84,0,0,0-.12-1.62,4.7,4.7,0,0,0-2.49-2.24l-25.65-13.5c-6.29-3.32-12.66-6.68-18-11.42-4.47-4-8.08-8.87-12.31-13.13s-11.64-10.31-17.45-11.9a4.93,4.93,0,0,0-3.47,0c-4.77,2.33-6.73-.92-6.9,5.85a47,47,0,0,0,2.32,15.53c1,2.93,2.2,5.94,1.71,9a32.07,32.07,0,0,1-.9,3.29c-.61,2.24-.43,4.56-.5,6.86a7,7,0,0,1-.3,2.93c-.33.56-1.09.66-1.45,1.27a4.41,4.41,0,0,0-.43,1.39,55.84,55.84,0,0,1-1.34,5.86c-.36,1.23-.89,2.94-.31,4.15a.74.74,0,0,0,.24.31.61.61,0,0,0,.4.08c1.79-.07,1.48-2,2.71-2.39,2-.72,4.38-.14,6.46-.31a6.93,6.93,0,0,0,2.55-.7h0a15.56,15.56,0,0,0,5.49-5.21c2.53-3.68,3.55-8.24,4.31-12.58C124.2,94.36,127.47,95.77,130.91,97ZM113.66,82.69l0-.12,0,0Z" fill="#cdf7e6"/><path d="M64.39,106c3.89-2.32,6.16-6.23,7.71-10.36a35.18,35.18,0,0,0,1.68-6.26c.2-.21.38-.44.58-.65.44-.46.93-.84,1.37-1.29l.2-.24a4.36,4.36,0,0,0,.62.07l.09,0a14.15,14.15,0,0,0,1.83.38,7.64,7.64,0,0,0,2.48,0c.7,1.39,1.33,2.85,1.92,4.26a2.27,2.27,0,0,0,2.1,1.6,2.19,2.19,0,0,0,2.1-1.6,18.09,18.09,0,0,0,.14-5.13c1.82.68,4.49-.78,4.22-2.89s-.8-4.7-.48-6.79c.34-2.25,1.42-3.94,1.94-6.08l.45-.22a5.33,5.33,0,0,0,2.31-2.6,5.77,5.77,0,0,0,.5-2.3c0-.21,0-.42,0-.62a6.21,6.21,0,0,0-2.77-4.28c-3.57-2.75-11.26-2.82-15.57-2.92-6.33-.14-12.85.05-18.69,2.79-14.46,6.8-15.15,25.89-9.82,39.14,1.3,3.23,3,6.18,6.56,7.29l.25.07A10.82,10.82,0,0,0,64.39,106Z" fill="#969696"/><path d="M87.51,55.94a20.11,20.11,0,0,0,8,1.68c1.42,0,2.17-1.13,3.49-1.37a8.85,8.85,0,0,1,3.12.09c1.5.28,2.83,1,4.38,1.15a2.21,2.21,0,0,0,1-.09c.83-.32.83-1.13,1.29-1.75s1.25-1,1.77-1.66a10.36,10.36,0,0,0,2.13-4.27c.19-.8.26-1.63.43-2.44a6.83,6.83,0,0,0,4-1.79,4.81,4.81,0,0,0,1.27-4.81,11.42,11.42,0,0,0-2.31-3.78.31.31,0,0,0,0-.08l.09-.17c.73-1.57,1.5-3.12,2.23-4.69,3.24-7,4.75-14-.67-20.58-3.67-4.45-10-7.58-15.47-9.28-16.13-5-23.62,8.24-23.53,24.12,0,3.3.57,6.57.5,9.86A14.75,14.75,0,0,1,78.52,41c-.62,1.58-1.35,2.58-.94,4.43a14.06,14.06,0,0,0,1.52,3.6,12.54,12.54,0,0,0,3.18,4.14,10.27,10.27,0,0,0,2.4,1.23C85.65,54.83,86.51,55.5,87.51,55.94Zm21.73-11.88.09.09-.09-.09Z" fill="#9a704b"/><path d="M199.58,132.85a2.05,2.05,0,0,0,2.4-.29,1.93,1.93,0,0,0,.42-2.53l-.51-.78c-.45-.66-.92-1.31-1.4-2a3.37,3.37,0,0,0,1.36.24,3.15,3.15,0,0,0,1.79-.67l.14-.12a6.29,6.29,0,0,0,3,2.39,2.35,2.35,0,0,0,2.93-2.23,4.65,4.65,0,0,0-.89-3l.16,0a31.61,31.61,0,0,0,6,.86c2.21.11,2.66-2.8,1.06-3.88-3.47-2.35-7.39-3.08-11.27-4.43-1.06-.37-2.11-.69-3.17-1-.9-.23-1.81-.44-2.75-.62a22.32,22.32,0,0,0-3.33-.58,4.07,4.07,0,0,0-1.38.15l-.61-.69c-1.55-1.69-4.16-4.72-6.69-3.07a4.79,4.79,0,0,0-1.88,4.3,14.07,14.07,0,0,0,2.1,6.37c.94,1.37,3,2,3.88,3.3q.15.23.33.45a33.42,33.42,0,0,0,2.34,2.71l.19.21A31.61,31.61,0,0,0,199.58,132.85Z" fill="#9a704b"/><path d="M213.75,132.14a33.56,33.56,0,0,0-2.82,3.39l-.39.47a24.29,24.29,0,0,0,.68,3.9c.95,3.63,6.62,2.91,6.57-.89,0-2.13-.17-4.25-.17-6.38a14.58,14.58,0,0,0-2.6-.51C214.59,132.1,214.17,132.14,213.75,132.14Z" fill="#6a8d95"/><path d="M212.1,130.14c.28-.33.38-.69.74-1a3.91,3.91,0,0,1,3-.54c-2.16-1.11-5.54-.1-5.54,3.08v.37c.41-.53.82-1,1.25-1.54A2.85,2.85,0,0,1,212.1,130.14Z" fill="#6a8d95"/><path d="M223.6,133.92l-2.6-.56c0,1.45.08,2.89.15,4.34.24,4.68,7.29,4.75,7.33,0,0-2.84,0-5.69-.15-8.54q-1.34,2-2.68,3.92A1.9,1.9,0,0,1,223.6,133.92Z" fill="#ee6e7a"/><path d="M228.1,123.06a61.77,61.77,0,0,0-1-9.64c-.56-2.68-5.08-2.81-5.54,0a75.67,75.67,0,0,0-.63,12.23c0,1.34,0,2.68,0,4l2.31.48Q225.68,126.6,228.1,123.06Z" fill="#ee6e7a"/><path d="M237.65,100.33a3.73,3.73,0,0,0-5.42,2.2,3.23,3.23,0,0,0,.08,2.13l0,.85c0,.57,0,1.14,0,1.72,0,1.34,0,2.67,0,4,0,1.84.05,3.67.09,5.5q3.84-5.58,7.68-11.17C240,103.48,239.51,101.48,237.65,100.33Z" fill="#8f7b8f"/><path d="M233,135.9a3.82,3.82,0,1,0,7.64,0q-.09-8.88-.24-17.78c0-2.15-.09-4.3-.15-6.45l-7.64,11.26C232.7,127.26,232.84,131.58,233,135.9Z" fill="#8f7b8f"/><path d="M215.89,128.62a3.91,3.91,0,0,0-3,.54c-.36.29-.46.65-.74,1a2.85,2.85,0,0,0-.5.39c-.43.49-.84,1-1.25,1.54l-.56.72c-1.42,1.79-2.82,3.58-4.23,5.38-1,1.23.73,3,1.76,1.76l3.22-3.93.39-.47a33.56,33.56,0,0,1,2.82-3.39c.42,0,.84,0,1.27,0a14.58,14.58,0,0,1,2.6.51l.25.06,3.13.67,2.6.56a1.9,1.9,0,0,0,2.05-.84q1.35-2,2.68-3.92l4.26-6.23,7.64-11.26q3.44-5.07,6.9-10.12c1.28-1.87-1.77-3.65-3-1.78s-2.64,3.87-4,5.8q-3.83,5.59-7.68,11.17c-1.45,2.11-2.9,4.21-4.34,6.32q-2.43,3.54-4.84,7.09l-2.31-.48-2.67-.55C217.57,129,216.73,128.74,215.89,128.62Z" fill="#9bdddd"/><path d="M69.51,50.39A8.3,8.3,0,0,0,67,51.86a2.16,2.16,0,0,0-.44,2.63c.57.8,1.71.86,2.68.87A69.49,69.49,0,0,1,88,58.05a2.12,2.12,0,0,0,1.81,0c1.49-1.07-1.22-2-1.93-2.27a20.69,20.69,0,0,1-5.17-2.88,15.36,15.36,0,0,1-2.93-2.46,13.51,13.51,0,0,1-2.6-4.74c-.13-.58-.27-1.17-.4-1.76-.68.68-1.17,1.59-1.83,2.25-.48.46-1.2.77-1.72,1.21A19,19,0,0,1,69.51,50.39Z" fill="#cdf7e6"/><path d="M93.36,59.51a7.84,7.84,0,0,1,3.55,6.71c0,1.65-.64,3.26-.61,4.92.07,3.81,3.3,6.9,3.82,10.68.4,2.84-.79,5.64-1.14,8.49-.5,4,1.8,6.52,3.35,9.91,1.25,2.73,1.57-2.29,1.66-3.2.68-7.2,1.35-14.57-.47-21.57-1.32-5.08-3.89-10.68-1.29-15.26.63-1.11,1.53-2.59.63-3.5a2.15,2.15,0,0,0-1.56-.49,9.6,9.6,0,0,0-3.26.29c-1.12.45-1.76,1.23-3.08,1.38-.52.06-2.89-.33-3.15,0C91.28,58.56,92.89,59.21,93.36,59.51Z" fill="#3e4268"/><path d="M35.31,120.25c-.47-12.75-1-25.93,2.72-38.49S49.54,59.13,59.44,54.49a10.94,10.94,0,0,1,2.89-.76c.48-.08,1-.16,1.44-.28a1.15,1.15,0,0,0,.39-.14.24.24,0,0,0,0,.21L65.55,53a1.34,1.34,0,0,1-.45,1.52,2.5,2.5,0,0,1-1,.41c-.52.13-1,.22-1.57.31a9.78,9.78,0,0,0-2.49.64c-9.51,4.46-17,14.05-20.61,26.33s-3.13,25.39-2.67,38Z" fill="#231f20"/><path d="M58.12,114.91l-1.5-.14a11.38,11.38,0,0,0-2.56-8.31l1.16-1A13,13,0,0,1,58.12,114.91Z" fill="#231f20"/><path d="M88.22,24.08c-2-.51-3.77.73-4.74,3.3a9.77,9.77,0,0,0,2.16,10.24l1.88,1.8a.88.88,0,0,0,.86-.19.54.54,0,0,0,.13-.45.6.6,0,0,0-.24-.41c-3-2.08-5.38-6.16-3.71-10.58.75-2,2-2.94,3.38-2.59,1.78.45,3.51,2.91,3.13,5.73-.1.69.75.79,1.06.28.73-1.2-.2-3.6-.84-4.67A5.29,5.29,0,0,0,88.22,24.08Z" fill="#231f20"/><path d="M296.1,167.58H271c.17-7.13.15-15-1.18-18.23-2.38-5.77-8.26-9.19-9.87-10,.09-.94.08-2.91.06-7.14,0-4-.07-9.45-.17-16.35-.16-11.75-.38-23.63-.38-23.75a.62.62,0,0,0-.2-.42.58.58,0,0,0-.44-.15l-1.84.17c0-2.88,0-5.52-.05-7.81a.57.57,0,0,0-.2-.43.56.56,0,0,0-.45-.14l-64.91,7.91a.58.58,0,0,0-.51.58c0,.11.11,8.19.31,15.84l-1.31-.78c-1.56-.93-3.18-1.9-4.85-2.7-1.37-.67-2.71-1.23-4-1.77a38.21,38.21,0,0,1-7.58-3.87L171,96.79a83.66,83.66,0,0,0-11.23-7.16,48,48,0,0,0-6.24-2.4c-2.83-.94-5.84-1.83-8.22-3.66s-4.39-4-6.57-6c-.41-.38-.83-.77-1.26-1.13A83,83,0,0,1,128,67.11a9.45,9.45,0,0,0-.93-1,58,58,0,0,0-7.52-6.09,38.68,38.68,0,0,0-4.2-2.61c-1.6-.83-3.34-1.15-5-1.82a2.33,2.33,0,0,0-.53-.16c.27-.6.48-1.22.68-1.81a15.07,15.07,0,0,1,.57-1.51,9.4,9.4,0,0,1,1-1.45,7.11,7.11,0,0,0,.68-1,7.54,7.54,0,0,0,.39-1.17,6,6,0,0,1,.53-1.49,3,3,0,0,1,2.24-.86c1.14-.09,2.56-.22,2.85-2.46a8.86,8.86,0,0,0-1-3.88c-.68-1.67-1.44-3.55-.79-4.29a14.78,14.78,0,0,0,3.69-8.88,17.74,17.74,0,0,0,.4-4.23,17.63,17.63,0,0,0-.43-2.48,27.6,27.6,0,0,0-2.76-6.78,26.11,26.11,0,0,0-7.89-8.7A26.41,26.41,0,0,0,100,.34,15.83,15.83,0,0,0,89.3,1.7l0,0A15,15,0,0,0,85.8,4.45c-7.82,8.15-8.48,19.72-7.65,28,.52,5.29.2,8.29-3.1,12.11a35.15,35.15,0,0,1-6.37,5.37,50.34,50.34,0,0,0-4.87,3.81.58.58,0,0,0,.34,1,21.76,21.76,0,0,1,3.38.73,31.72,31.72,0,0,0-7.87,2C52.13,60.58,47.3,66.4,45.3,74.78A40.28,40.28,0,0,0,46.82,98c3.32,8.24,5.85,9.71,14.28,8.28s10.38-5.53,11.7-13.66c.7-4.25,3.45-6.59,5.72-6.39,2.11.18,3.4,2.52,3.36,6.11a.57.57,0,0,0,.38.54,9.67,9.67,0,0,0,4.17.36.58.58,0,0,0,.47-.6c-.14-2.59.3-5.57,1.61-6.41a2.37,2.37,0,0,1,2.37.15l0,0c.33.34.65.39.92.15s.27-.56,0-1c0,0,0,0,0,0-.85-2-3-7.25-2.36-10.26.54-2.49,3.48-4.69,6.07-3.82a7.46,7.46,0,0,0,1.08,2.84,9.34,9.34,0,0,1,.8,1.66l.39,1.14c.94,2.73,1.91,5.55,1.61,8.41a3.73,3.73,0,0,0-2.38,2c-.92,2.09.49,4.87,1.62,7.1l.49,1A15.94,15.94,0,0,0,99.94,97c.64,1,1.52,2.39,1.44,3.11s-.5,1-1.19,1.59a4.48,4.48,0,0,0-1.76,2.23,11,11,0,0,0,.26,4.93c.52,2.67,1,5.19-.9,6.63a4.68,4.68,0,0,1-3.71.73c-2.23-.24-3.86-.06-4.45,4.41a19.52,19.52,0,0,0,.45,7.24,162.74,162.74,0,0,0-38.8-16,.63.63,0,0,0-.77-.08.81.81,0,0,0-.33.58.53.53,0,0,0,0,.13,1.21,1.21,0,0,0,0,.28,44.24,44.24,0,0,0-1.53,10.24c-6.7-3.43-16.76-4.1-24.33-1.28-4.29,1.59-9.65,5-10.87,12-1.13,6.58,3.28,17.11,6,22.8,3.63,7.59,8.39,16.7,13.5,21.45H15.39l.06,1.15H34.52a.57.57,0,0,0,.55-.39.58.58,0,0,0-.19-.64C28.81,173.44,23,161.29,20.5,156.1c-2.15-4.48-7-15.61-5.91-22.1s6.13-9.65,10.13-11.14c7.5-2.79,17.51-2,23.9,1.49a56.25,56.25,0,0,0,5.66,23.89c4.4,9.5,11.2,19.25,21.41,30.69a.61.61,0,0,0,.07.1l.09.09a.65.65,0,0,0,.46.22.63.63,0,0,0,.39-.15.58.58,0,0,0,0-.86c-1.77-7.62-4.89-15.6-7.91-23.31q-.95-2.39-1.85-4.73c-3.63-9.43-7.78-19.14-15.08-25.15a16.44,16.44,0,0,0-2.11-1.47,44.5,44.5,0,0,1,1.55-10.56,162.3,162.3,0,0,1,39.24,16.42,37.74,37.74,0,0,0,5.39,10.32,91.27,91.27,0,0,0,14.52,15.38c3.14,2.73,7.27,4.67,11.65,6.72l.38.18c-.32,2.52-.76,5.13-1.19,7.68-.49,2.94-1,6-1.31,8.75a.58.58,0,0,0,.29.56.56.56,0,0,0,.62,0,19.53,19.53,0,0,0,3.42-3.92,27.55,27.55,0,0,1,2.42-3,.55.55,0,0,0,.18-.38,18,18,0,0,0-1.94-8.51c7,3.38,13.53,7.32,14.93,15.22a.32.32,0,0,0,0,.14.68.68,0,0,0,.17.35.56.56,0,0,0,.68.12.59.59,0,0,0,.47,0,.58.58,0,0,0,.36-.54c0-1.34,0-2.67.11-4a33.78,33.78,0,0,0-.61-10.18c-.12-.46-.24-.91-.35-1.36-1-3.85-2-7.83-1.63-12.09a17.92,17.92,0,0,1,2.15-6.08c1.1-2.24,2.24-4.56,2.26-7.16,0-3.73-2.19-6.65-4.79-9.27l.34-.47A7.46,7.46,0,0,1,141,126c.06.25.11.52.17.79.68,3.11,1.61,7.36,5.56,8.2a4.66,4.66,0,0,0,5.12-1.77,5.75,5.75,0,0,0-.22-6.36,19.56,19.56,0,0,0-4.49-4.08,27.29,27.29,0,0,1-3.14-2.57c-1.68-1.73-3.32-3.25-5-2.9-1,.21-1.88,1.07-2.64,2.7a2.83,2.83,0,0,0-2.5-1.21c-2.55.34-4.25,5-5.78,9.73-.25.78-.46,1.45-.61,1.79a.55.55,0,0,0,0,.25c-2.38,2.72-4.12,5.41-4.58,9.64a64.45,64.45,0,0,0-.06,10,69.77,69.77,0,0,1,.06,8.56l0,.38c-6.47-11.46-16.87-21.62-30.94-30.19l-.35-.21a18.85,18.85,0,0,1-.74-7.95c.49-3.7,1.45-3.6,3.19-3.42a5.71,5.71,0,0,0,4.53-1c2.48-1.88,1.87-5,1.34-7.77a10.31,10.31,0,0,1-.29-4.38,3.46,3.46,0,0,1,1.37-1.66,3.52,3.52,0,0,0,1.62-2.36c.12-1.13-.8-2.58-1.62-3.86a15.07,15.07,0,0,1-.79-1.34c-.15-.31-.32-.64-.5-1-1-1.91-2.29-4.52-1.59-6.11a2.79,2.79,0,0,1,2-1.44.58.58,0,0,0,.42-.48c.47-3.25-.59-6.33-1.62-9.31-.13-.38-.26-.75-.38-1.12a10.65,10.65,0,0,0-.89-1.86,6.39,6.39,0,0,1-.94-2.4A4.34,4.34,0,0,1,97,69.05a6.53,6.53,0,0,0,.58-2.55c.11-7.49-7.35-8.88-13.35-10l-1.78-.34a49.51,49.51,0,0,0-11.83-1,52.94,52.94,0,0,0-5.16-1.41c1.23-1,2.56-2,3.85-2.92a36,36,0,0,0,6.57-5.56c.29-.32.55-.64.79-1a.86.86,0,0,0,0,.16c1,4.47,2.53,7.72,7.18,10.1l.09,0c3.45,1.76,8.65,4.42,12.47,3.47a2.28,2.28,0,0,0,1.2-.76,1.27,1.27,0,0,1,1-.49c.93,0,1.86-.07,2.79-.05a5.68,5.68,0,0,1,2,.62c1.52.61,3.23,1.18,4.69.11a5.41,5.41,0,0,0,1.17-1.22,11.48,11.48,0,0,0,3.36,1.21,6.14,6.14,0,0,1,1.31.51,33.48,33.48,0,0,1,5,3,51.11,51.11,0,0,1,8.12,6.8,83.43,83.43,0,0,0,9.62,9.45L138,78.42c1.79,1.65,3.58,3.31,5.41,4.91a59.68,59.68,0,0,0,5.5,4.12,56.12,56.12,0,0,0,6.2,3.91c1,.52,2.06,1,3.07,1.54a67,67,0,0,1,8.32,4.59,33.54,33.54,0,0,1,4.1,3.47,27.17,27.17,0,0,0,6,4.61c1.76.92,3.6,1.73,5.39,2.52,1.63.73,3.31,1.47,4.94,2.3a35.65,35.65,0,0,1-2.52,6.27,29,29,0,0,1-3.64-1l-7.65-2.15-3.05-.85c-.64-.18-1.29-.37-1.92-.61a6.74,6.74,0,0,0-.87-.38,15.42,15.42,0,0,1-4.59-2.24c-.52-.33-1-.63-1.48-.91a77.42,77.42,0,0,0-13-5.53,90.14,90.14,0,0,1-11.09-4.5,33.28,33.28,0,0,1-4.88-3.86c-2.83-2.47-5.5-5-8.87-6.72a23.33,23.33,0,0,0-1-8.13c.56-4,.69-8.29-1-10.47a3.61,3.61,0,0,0-2.79-1.45.59.59,0,0,0-.61.51c-.32,2.71.8,5.38,1.89,8a33,33,0,0,1,1.32,3.52c-.33,2.27-.78,4.39-1.08,5.81-.1.45-.19.84-.25,1.15a4.32,4.32,0,0,0-1.14.08,4.08,4.08,0,0,0-2.87,2.48c-1.46,3.06-2.11,8-2.63,12-.12.93-.23,1.81-.35,2.59-.23,1.56-.35,3.18-.47,4.75,0,.21,0,.41,0,.62A14.1,14.1,0,0,0,102,111.79a.55.55,0,0,0-.21.43.6.6,0,0,0,.19.44c2.25,2,5.41,1,8.47.08.54-.17,1.09-.34,1.63-.49a21.12,21.12,0,0,1-1.59,6.38,31.25,31.25,0,0,0-2.15,7,3.66,3.66,0,0,0-.72-.33,16.65,16.65,0,0,0-4.8-.2,29.55,29.55,0,0,1-4.52,0c-.27-.41-.53-.85-.77-1.28-.77-1.33-1.49-2.59-2.71-3.16a.58.58,0,0,0-.5,0A.61.61,0,0,0,94,121a4.06,4.06,0,0,0,.58,3.66,4.81,4.81,0,0,0,3,1.45,6.25,6.25,0,0,0,1.71,1.69,10.64,10.64,0,0,0,5.32,1.35,15,15,0,0,1,3.14.45c-.49,6.29.77,13,5.93,16.24a.58.58,0,0,0,.57,0,.56.56,0,0,0,.31-.48c.3-4.5.91-13.79-5.58-16.57,0-.44.09-.88.16-1.32l.48.33c2.13,1.48,3.47,2.36,4.34,2a1.83,1.83,0,0,0,1.21-1.37,4.92,4.92,0,0,0-1.2-3.38c.34.28.69.58,1,.87,1.19,1,2.21,2,3.21,1.57.75-.29,1.16-1.18,1.33-2.91a.6.6,0,0,0,0-.23,2.8,2.8,0,0,0-.24-.54,2.8,2.8,0,0,0,1.28-2.14,2.21,2.21,0,0,0,0-.51,3.17,3.17,0,0,0,1.8-3.31c-.28-2.94-3.61-6.58-5.89-7.15a4.86,4.86,0,0,0-1.09-.15c.9-2.77,2.12-5.58,3.29-8.31.79-1.82,1.57-3.65,2.29-5.5a40.38,40.38,0,0,0,1.21-4,29.1,29.1,0,0,0,1-3.63A31,31,0,0,1,127,91.67c1.22.94,2.19,2.16,3.37,3.12,1.92,1.56,3.91,3.57,6.13,4.71a90.28,90.28,0,0,0,11.23,4.56,74.75,74.75,0,0,1,12.81,5.45c.46.26.94.56,1.45.88a16.07,16.07,0,0,0,5,2.4,3.63,3.63,0,0,1,.85.32,14.76,14.76,0,0,0,2.51.83l3.18.89,7.83,2.19,4.51,1.27h0a4.12,4.12,0,0,1,.18.51c.68,2.44,1.32,4.74,4.44,6.78.4.27,1.42,1.1,2.6,2,4.85,4,6.77,5.32,7.74,5.47a.56.56,0,0,0,.33.1.6.6,0,0,0,.46-.25c1.87-2.67.75-4.36-.79-5.67a1.86,1.86,0,0,0,1.85,0c1-.7.88-2.61.73-4.45.36.08.72.17,1.09.28a13.22,13.22,0,0,1,.35,1.79,6.46,6.46,0,0,0,1.47,3.91c1.12,1.12,2,1.39,2.74.83.9-.74.85-2.84.47-4.63,3.14,1.06,7.45,1.88,8.81-.84a.58.58,0,0,0-.22-.76l-.41-.23a3.14,3.14,0,0,0,3.49-1.14.59.59,0,0,0,.06-.6c-1.15-2.35-5.72-3.94-9.05-5.11-.92-.32-1.72-.6-2.31-.85-2.42-1-4.92-1.94-7.34-2.83-2.18-.81-4.43-1.65-6.58-2.53a31.16,31.16,0,0,1-3.66-1.82c-.19-6.75-.3-14-.33-16l63.76-7.76c0,2.1,0,4.55,0,7.26l-2.91.26,0-3.56a.64.64,0,0,0-.2-.43.59.59,0,0,0-.44-.14L195.5,94.06a.58.58,0,0,0-.52.61l.91,14a.58.58,0,0,0,.59.54.59.59,0,0,0,.57-.57c0-.07.14-6.6.31-10.36l54.42-5,.48,51.47L195.79,147l-.39-15.74a.59.59,0,0,0-.41-.54l-3.05-.95a.58.58,0,0,0-.75.57l.62,21.06a.58.58,0,0,0,.58.56l63.94-.32a.58.58,0,0,0,.53-.34c.4-.88.26-36.13.13-58.41l1.33-.12c.33,17.92.72,44.27.49,46.64a.56.56,0,0,0,0,.49.63.63,0,0,0,.38.35c.84.43,7.22,3.82,9.61,9.59,1.24,3,1.25,10.94,1.09,17.79H217.64a.57.57,0,0,0-.58.55c0,.77,0,1.52-.05,2.25,0,.54,0,1.1,0,1.67H153.66a5.66,5.66,0,0,1,.14,1.16h63.74a.58.58,0,0,0,.58-.55c0-.78,0-1.54,0-2.28,0-.53,0-1.09,0-1.64h37.2c1.74,0,40.12,0,40.12,0ZM51.13,126c7.07,5.83,11.16,15.39,14.73,24.67q.9,2.36,1.85,4.74a192.82,192.82,0,0,1,7.34,21c-12.43-14.18-25.19-32-25.31-51.45C50.23,125.34,50.69,125.68,51.13,126ZM137,121.34c.69-1.79,1.42-2.78,2.19-2.93,1-.21,2.28.88,3.93,2.57a27.35,27.35,0,0,0,3.28,2.7,18.76,18.76,0,0,1,4.22,3.79,4.61,4.61,0,0,1,.23,5.07,3.54,3.54,0,0,1-3.93,1.29c-3.22-.68-4-4.36-4.67-7.32-.11-.53-.22-1-.34-1.49a.58.58,0,0,0-.28-.37.68.68,0,0,0-.28-.07.47.47,0,0,0-.17,0,6.07,6.07,0,0,0-2.94,2.6c0-.17,0-.35.05-.52.18-1.8.39-3.84-.66-4.89a1.85,1.85,0,0,0-.64-.43Zm-.18,1.28c.66.66.46,2.56.32,3.95,0,.17,0,.33,0,.48a.63.63,0,0,0-.36,0c-1.57.62-3.23,1.12-4.84,1.59l-1.67.51.18-.2.86-.92c.31-.34.81-1,1.45-1.93.82-1.15,2.52-3.54,3.07-3.77A1.24,1.24,0,0,1,136.84,122.62Zm-2.84-2.7h.13c.53,0,1.1.43,1.7,1.28h-.18c-.78.08-1.78,1.32-3.87,4.25-.56.79-1.09,1.53-1.35,1.82l-.85.91-.3.31C130.23,125.57,132,120.18,134,119.92ZM124,140.3c.44-4.11,2.17-6.63,4.66-9.4,1.19-.41,2.41-.78,3.59-1.13,1.52-.45,3.09-.91,4.6-1.49l.22.21a2.53,2.53,0,0,0,.09.6.56.56,0,0,0,.43.4.55.55,0,0,0,.42-.07c2.38,2.43,4.39,5.1,4.37,8.37,0,2.33-1.05,4.43-2.14,6.66a18.88,18.88,0,0,0-2.26,6.48c-.43,4.46.63,8.54,1.66,12.49.11.45.23.9.35,1.35a33.08,33.08,0,0,1,.58,9.85c0,.49-.05,1-.06,1.47-2.37-7.43-9.29-11.11-16.33-14.45-.13-.23-.25-.47-.37-.7.08-.71.14-1.41.19-2.1a72,72,0,0,0,0-8.7A63.46,63.46,0,0,1,124,140.3ZM123.54,163a18.27,18.27,0,0,1,2.23,8.54,29.9,29.9,0,0,0-2.38,3c-.7.93-1.41,1.89-2.07,2.63.29-2.27.69-4.64,1.11-7.12C122.83,167.68,123.23,165.3,123.54,163Zm-1.23-2.36.11.2c-4.24-2-8.24-3.88-11.21-6.47-10-8.73-16.4-16.72-19.1-23.87C104,137.85,115.3,147.69,122.31,160.63ZM80.63,57c.55.09,1.09.18,1.64.29l1.79.35c5.86,1.09,12.5,2.32,12.41,8.84a5.52,5.52,0,0,1-.5,2.13,6.37,6.37,0,0,0-.5,1.82A6.06,6.06,0,0,0,88.27,75c-.58,2.73.71,6.7,2,9.85a2.94,2.94,0,0,0-2.36.34c-2,1.31-2.2,5.12-2.15,6.9a9.61,9.61,0,0,1-2.7-.25c-.07-4.75-2.3-6.65-4.41-6.83-2.79-.24-6.16,2.44-7,7.35-1.25,7.74-3.11,11.41-10.75,12.71-7.94,1.35-9.88.21-13-7.57a38.92,38.92,0,0,1-1.46-22.48C50.15,59.43,66.32,54.66,80.63,57Zm26.87-.38c-1,.74-2.15.31-3.46-.2a13,13,0,0,0-1.56-.53,4.59,4.59,0,0,0-.76-.13l-1.19-.07c-.85,0-1.64,0-1.88,0a2.36,2.36,0,0,0-1.83.85,1.21,1.21,0,0,1-.63.43c-3.41.84-8.38-1.7-11.67-3.38l-.09-.05c-4.19-2.14-5.59-5-6.53-9.08l.38-.56v-2.1c1.34-2.78,1.41-5.6,1-9.51-.8-8-.18-19.25,7.33-27.08a13.79,13.79,0,0,1,3.81-2.8v0c5.8-2.82,13.75-.47,18.84,3a25.66,25.66,0,0,1,8.09,9.22,22.78,22.78,0,0,1,2.16,5.82,17.86,17.86,0,0,1,.39,3,16.23,16.23,0,0,1-.42,2.84l0,.19c-.35,2.57-.72,5.22-3.42,8.27-1.13,1.28-.25,3.42.59,5.49a8.88,8.88,0,0,1,.94,3.3c-.18,1.32-.69,1.37-1.81,1.46a4,4,0,0,0-3,1.25,5.67,5.67,0,0,0-.78,1.94,5.87,5.87,0,0,1-.3,1,6.35,6.35,0,0,1-.57.81A10.23,10.23,0,0,0,110,51.64a15,15,0,0,0-.63,1.65A6.45,6.45,0,0,1,107.5,56.63Zm-12,67.28a2.42,2.42,0,0,1-.46-1.79,9.84,9.84,0,0,1,1.51,2.2l.23.39A2.81,2.81,0,0,1,95.45,123.91Zm12.44,4.51a17.47,17.47,0,0,0-3.18-.43,9.68,9.68,0,0,1-4.78-1.18,3.56,3.56,0,0,1-.68-.55c1.17,0,2.41,0,3.6-.05a15.82,15.82,0,0,1,4.42.15,4.45,4.45,0,0,1,.84.43C108,127.33,108,127.87,107.89,128.42Zm5.6,15.85c-3.74-3-4.93-8.62-4.59-14.23C113.35,132.23,113.8,138.31,113.49,144.27Zm7.42-68.41c-.94-2.25-1.91-4.56-1.84-6.78a2.37,2.37,0,0,1,1.38.91c1.12,1.47,1.27,4.28,1,7.22C121.29,76.76,121.1,76.3,120.91,75.86Zm-10.82,35.77c-2.57.8-5,1.55-6.75.6a13.29,13.29,0,0,1,8.9-1.76c0,.18,0,.36,0,.55C111.49,111.2,110.78,111.42,110.09,111.63Zm6.06.22c1.88.47,4.79,3.73,5,6.14a2,2,0,0,1-.74,1.9c-1.29-3-3.48-4.83-6-5a.57.57,0,0,0-.45.16.59.59,0,0,0-.17.45c.08,1.18,1.4,2.16,2.81,3.2s2.77,2,2.75,3c0,.47-.42,1-1.21,1.52a.59.59,0,0,0-.18.77l.07.12a4.49,4.49,0,0,1,.29.53c-.19,1.62-.55,1.81-.59,1.83-.34.13-1.36-.77-2-1.36-1.17-1-2.51-2.23-3.86-2.08a.62.62,0,0,0-.49.39.58.58,0,0,0,.15.6c1,.94,2.7,3.15,2.49,4.24a.68.68,0,0,1-.48.51c-.48.07-2.3-1.2-3.28-1.88l-.94-.64a29.38,29.38,0,0,1,2.16-7.11,23,23,0,0,0,1.74-7.17A6.36,6.36,0,0,1,116.15,111.85Zm2.12,6.59c-.3-.24-.61-.46-.91-.69a15.64,15.64,0,0,1-1.83-1.49A5.91,5.91,0,0,1,118.27,118.44Zm-.7-16.63c-1.16,2.69-2.35,5.46-3.26,8.22a6,6,0,0,0-.85-.4c0-.29.05-.58.07-.87.12-1.54.24-3.14.46-4.66.12-.79.24-1.68.36-2.61.51-3.91,1.14-8.76,2.52-11.66A3,3,0,0,1,118.94,88a2.61,2.61,0,0,1,.69-.06c-.42,2.61-.09,3.37,1.62,4.33A85.85,85.85,0,0,1,117.57,101.81Zm4.13-11.19c0,.17-.09.34-.13.51-1.08-.64-1.15-1.14-.8-3a9.07,9.07,0,0,1,1.31.47A20.52,20.52,0,0,1,121.7,90.62Zm.48-3.25A8.88,8.88,0,0,0,121,87c.06-.3.14-.67.24-1.1.18-.88.41-2,.63-3.13A19.62,19.62,0,0,1,122.18,87.37ZM189,107.69l.26.16,1.94,1.14c0,.88.05,1.74.08,2.58-.64-.4-1.25-.76-1.83-1.09-.39-.23-.79-.45-1.19-.66C188.54,109,188.79,108.3,189,107.69Zm-6.63-.65c-1.76-.79-3.59-1.6-5.32-2.49a26,26,0,0,1-5.72-4.44,36.4,36.4,0,0,0-4.24-3.58,69.6,69.6,0,0,0-8.46-4.67c-1-.5-2.05-1-3.05-1.52a43.71,43.71,0,0,1-4.36-2.66l1.92.64a45.87,45.87,0,0,1,6.1,2.35,82.73,82.73,0,0,1,11.06,7.06l2.44,1.73a38.36,38.36,0,0,0,7.8,4c1.29.53,2.62,1.09,3.95,1.74s2.36,1.23,3.5,1.9c-.24.62-.5,1.38-.77,2.19C185.63,108.47,184,107.75,182.39,107Zm19.68,19.29c-.14.1-.46,0-.87-.17-1-.49-1.12-2-1.21-3.47a9.2,9.2,0,0,1,2.28,0l0,.27C202.39,124,202.55,126,202.07,126.33Zm.88-6.1a.55.55,0,0,0-.45.08.61.61,0,0,0-.25.38,4.7,4.7,0,0,0-.05.79,11,11,0,0,0-2.29,0,5.67,5.67,0,0,0-.42-2,12.93,12.93,0,0,0-.86-1.48,10.65,10.65,0,0,1,2.65.68c1.44.6,4.89,2.21,6.34,4.28-.78-.33-1.5-.61-2.2-.85A3.32,3.32,0,0,0,203,120.23Zm-3.2,6.19-.22-.16c-1.23-.89-2.4-1.74-2.47-2.83a17.33,17.33,0,0,1,1.78-.53A6.61,6.61,0,0,0,199.75,126.42Zm8.62,2.33c-.08.06-.48,0-1.2-.75a5.48,5.48,0,0,1-1.14-3.25c-.06-.39-.11-.79-.19-1.18q.67.25,1.41.57l1,.42C208.73,126.19,208.85,128.36,208.37,128.75ZM195.58,111.2c2.17.89,4.43,1.73,6.62,2.54,2.41.89,4.89,1.82,7.29,2.82.63.26,1.44.54,2.38.87,2.8,1,6.95,2.43,8.2,4.21-.94.92-2.24.48-4.19-.32-1.37-.57-2.78-1.15-4-.8a.58.58,0,0,0-.41.51.59.59,0,0,0,.32.57c.67.32,1.35.63,2,.93,1.09.49,2.21,1,3.27,1.58-1.3,1.31-4.7.7-7.84-.44a5.25,5.25,0,0,0-.5-1.1c-1.5-2.33-5-4.06-7-4.88a13.56,13.56,0,0,0-4.06-.88,25,25,0,0,0-5.19-4.48c0-.86-.06-1.76-.09-2.68A32.33,32.33,0,0,0,195.58,111.2Zm.41,5.48a18.53,18.53,0,0,1-3.36-.51c0-.74-.07-1.55-.1-2.4A24.47,24.47,0,0,1,196,116.68Zm.41,1.19.68,0a11.66,11.66,0,0,1,1.37,2.15,5,5,0,0,1,.32,1.66,17.59,17.59,0,0,0-2.48.76.58.58,0,0,0-.36.46c-.27,1.94,1.43,3.16,2.93,4.25,2.12,1.53,3.38,2.61,2.08,4.74-1-.29-5.1-3.59-7.09-5.2-1.25-1-2.23-1.82-2.69-2.12-2.76-1.81-3.31-3.81-3.95-6.13a19.18,19.18,0,0,0-1-3c.58-1.35,1.14-3,1.66-4.52l1,.55c.76.44,1.59.93,2.44,1.49,0,1.33.1,2.57.16,3.67a.57.57,0,0,0,.4.52A19.6,19.6,0,0,0,196.4,117.87Zm.35-20.68a.61.61,0,0,0-.43.26l-.15-2.31,55.57-6,0,3Zm59.06,53.25-62.86.31-.58-19.69,1.88.59.4,15.91a.58.58,0,0,0,.6.57l57.61-2.21a.58.58,0,0,0,.56-.58l-.49-52.13,2.91-.26C256,113.24,256.06,146.14,255.81,150.44Z" fill="#231f20"/><path d="M203.37,121.64v0l.15.08Z" fill="#231f20"/><path d="M103.27,101.72a2,2,0,0,1-.84-.22,3.75,3.75,0,0,1-.74-.55.75.75,0,0,1,0-1.06.75.75,0,0,1,1.06,0,2.38,2.38,0,0,0,.36.3.3.3,0,0,0,0-.08,4.07,4.07,0,0,0,.19-1.1A81.77,81.77,0,0,0,102,77.23c-.1-.55-.22-1.09-.33-1.64a38.7,38.7,0,0,1-1-7.4,26.23,26.23,0,0,1,.51-5.09,6.61,6.61,0,0,1-.86.64c-2.93,1.74-4.73-1-5.41-2a.75.75,0,0,1,.22-1,.75.75,0,0,1,1,.21c1.24,1.9,2.12,2.32,3.38,1.57,1.76-1.05,2.9-3.72,2.95-5.58l1.5,0h0a13.83,13.83,0,0,1-.65,3.53c-.13.46-.26.94-.38,1.45a27,27,0,0,0-.8,6.28,38.17,38.17,0,0,0,1,7.12c.11.55.23,1.1.34,1.65a83.11,83.11,0,0,1,1.33,22.15,4.71,4.71,0,0,1-.29,1.54,1.8,1.8,0,0,1-.67.94A1.14,1.14,0,0,1,103.27,101.72Z" fill="#231f20"/></g></g></svg>