<svg xmlns="http://www.w3.org/2000/svg" xmlns:xlink="http://www.w3.org/1999/xlink" viewBox="0 0 300 300"><defs><linearGradient id="linear-gradient" x1="-1134.59" y1="-190.53" x2="-1134.29" y2="-189.9" gradientTransform="translate(-299601.56 -38182.15) rotate(180) scale(264.23 201.51)" gradientUnits="userSpaceOnUse"><stop offset="0" stop-color="#cac1ca"/><stop offset="1" stop-color="#fff"/></linearGradient></defs><title>MonitContFinances</title><g id="Layer_2" data-name="Layer 2"><g id="Spend"><rect width="300" height="300" style="fill:#fff"/><path id="Path_20834" data-name="Path 20834" d="M235.67,139.52c47.94,44.09,75.11,80.45,41.66,96.73-26.28,12.78-92.4.68-127.55,15.05-15.88,6.5-57.74,27.79-91.72,1.54C27.83,229.48-10,149,51.35,156c24.64,2.8-1.6-76.19,43.93-83.9C127.56,66.6,195.36,102.44,235.67,139.52Z" style="fill:#7d677d;opacity:0.172000005841255;isolation:isolate"/><path id="Path_20835" data-name="Path 20835" d="M20.67,198.61c7.82,13.72,17.52,26.16,26.72,34,38,32.39,78.92,17.25,97.7,10.45,41.53-15,103.07,11.26,134.42-1.85,15.23-6.37,18.29-22.52,17.39-37.33-1-16-1.23-31.5-1.08-47.51.09-9.94.18-20-1.63-29.73s-5.67-19.4-12.53-26.6A54.64,54.64,0,0,0,266,89.1c-11.2-5.51-22.91-9.66-34.33-14.51-12.6-5.35-27.95-6.47-41.27-10-8.85-2.32-15.46-7.35-22.9-12.47-13.05-9-30.27-21.12-46.89-21.17C67,30.84,72.11,128.65,43.69,124.15-7.78,116-.26,161.9,20.67,198.61Z" style="opacity:0.787999987602234;isolation:isolate;fill:url(#linear-gradient)"/><rect x="34.4" y="236.83" width="242.47" height="4.3" rx="2.13" style="fill:#2c77bc;opacity:0.30000000000000004"/><polygon points="174.42 167.74 174.42 181.13 189.62 181.13 184.3 167.74 174.42 167.74" style="fill:#37193b"/><path d="M232.44,181.13H188.26l-4.9-13.39h58.1l.9,3.47A9.92,9.92,0,0,1,232.44,181.13Z" style="fill:#37193b"/><path d="M210.57,83.91a4.46,4.46,0,0,1-2.8,5.57,4.29,4.29,0,0,1-5.19-3.26,4.46,4.46,0,0,1,2.8-5.56A4.29,4.29,0,0,1,210.57,83.91Z" style="fill:#002b3b"/><polygon points="218.64 98.57 208.36 101.54 206.78 97.91 204.95 96.76 205.5 92.99 204.44 86.32 214.52 83.41 218.64 98.57" style="fill:#885c49"/><polygon points="220.02 103.67 215.53 104.97 213.34 96.9 217.83 95.6 220.02 103.67" style="fill:#885c49"/><path d="M170.15,118l-.08-.12a.93.93,0,0,1,.32-1.26l3.09-2.42a.79.79,0,0,1,1.17.19l.16.31a1,1,0,0,1-.49,1.24l-3,2.27A.8.8,0,0,1,170.15,118Z" style="fill:#f2b17e"/><path d="M172.82,113.37h0l-4.49,4.17c-.34.5-.22.51,0,1l.05.09c.09.12.09.12.32.27l2.42,1.47a2.08,2.08,0,0,0,2.07.46l1.72-1.24-2.11-6.24Z" style="fill:#fbbe89"/><path d="M172.82,113.37h0l-4.49,4.17c-.34.5-.22.51,0,1l.05.09c.09.12.09.12.32.27l2.42,1.47a2.08,2.08,0,0,0,2.07.46l1.72-1.24-2.11-6.24Z" style="fill:#885c49"/><path d="M173.65,118.32c.25.1.41.3.34.45l-.43,1.09c-.06.15-.31.19-.56.09l-7.14-2.87c-.25-.1-.4-.31-.34-.46l.44-1.08c.06-.15.3-.19.55-.09Z" style="fill:#fff"/><path d="M173.65,118.32c.25.1.41.3.34.45l-.43,1.09c-.06.15-.31.19-.56.09l-7.14-2.87c-.25-.1-.4-.31-.34-.46l.44-1.08c.06-.15.3-.19.55-.09Z" style="fill:#363636"/><path d="M172.7,117.42c.31.13.51.38.43.57l-.55,1.37c-.08.19-.39.24-.7.11l-9-3.62c-.31-.13-.5-.38-.43-.57l.55-1.37c.08-.19.39-.24.7-.11Z" style="fill:#264465"/><g style="opacity:0.6000000000000001"><path d="M158.15,104.5a7.85,7.85,0,1,0,4.35,10.21A7.85,7.85,0,0,0,158.15,104.5Z" style="fill:#dbf0f4"/><path d="M155,104.7a7.14,7.14,0,0,1,6.75,4.3,7.08,7.08,0,1,1-6.75-4.3m0-.77a7.85,7.85,0,0,0-2.67,15.13,7.59,7.59,0,0,0,3.19.57,7.85,7.85,0,0,0,2.67-15.13,8,8,0,0,0-3.19-.57Z" style="fill:#88d0c8"/></g><path d="M160.48,110.31a.32.32,0,0,1-.19-.25,4.21,4.21,0,0,0-2.6-3.39h0a4.18,4.18,0,0,0-2.1-.27.31.31,0,1,1-.07-.61,4.69,4.69,0,0,1,2.4.31h0a4.84,4.84,0,0,1,3,3.88.32.32,0,0,1-.27.35Z" style="fill:#fff"/><path d="M158.75,103A9.46,9.46,0,1,0,164,115.31,9.46,9.46,0,0,0,158.75,103Zm-6.46,16.06a7.85,7.85,0,1,1,10.21-4.35A7.84,7.84,0,0,1,152.29,119.06Z" style="fill:#325b87"/><path d="M166,114.61l-.91,2.27a.6.6,0,0,0,.34.79l.57.23,9.53,3.83a.61.61,0,0,0,.79-.34l.91-2.27a.6.6,0,0,0-.33-.79l-9.62-3.87-.49-.19A.62.62,0,0,0,166,114.61Z" style="fill:#325b87"/><path d="M167.91,117l0-.07,0,0Z" style="fill:#4f4c4d"/><polygon points="179.97 116.63 177.47 120.63 183.62 125.71 185.82 124.75 185.71 121.49 179.97 116.63" style="fill:#885c49"/><path d="M179.55,116.4l-6.18-3.05c-.61-.24-.86.25-.83,1l.29,3.3-.71.37-2.49-.29a.93.93,0,0,0-1.13.76v.11c-.13.54.32.83.86,1l4.24.74h0l2.15.66a9.57,9.57,0,0,0,2.54-.52l3-2.05C181.49,117.74,180.16,116.65,179.55,116.4Z" style="fill:#885c49"/><polygon points="169.54 119.56 172.9 120.14 173.6 120.26 173.83 120.33 173.89 120.36 173.56 120.6 169.54 119.56" style="fill:#7e5f45;opacity:0.4"/><path d="M197.51,139.93,180,123.23l3.36-4.24L198,132.27l14.67-26.4a5.06,5.06,0,0,1,7.56-.74h0a5.06,5.06,0,0,1,.25,7.16l-19.54,26.58A3.32,3.32,0,0,1,197.51,139.93Z" style="fill:#c95c4a"/><path d="M242.36,168.08l-29.57,0,1.3-21c-1.17-10-11.75-29.41.54-44.23l2.5-1.48c6.21-2.69,8.32.37,12,6.08,2.14,3.36,3.39,33.25,3.93,37.84Z" style="fill:#c95c4a"/><path id="Path_20953" data-name="Path 20953" d="M185.36,218.13l-.09,19.74-3.13,0,0-5.38s-2.42,5.13-3.91,5.36c-1,.15-4.74.09-7.84,0a.85.85,0,0,1-.78-.9.83.83,0,0,1,.4-.65c2.85-1.7,7-3.4,7.92-8.43.81-4.36,1.19-10.06,1.19-10.06Z"/><path d="M185.43,217.24l-8.38-49.5-2.62,0c-3.87.6-6.56,5-5.09,10.29l9.38,39.37L179,220h6.41Z" style="fill:#895d4a"/><rect x="43.75" y="148.07" width="1.52" height="96.46" style="fill:#eff2f6"/><path d="M190.18,148.1H43.75v-1.79a1.71,1.71,0,0,1,1.71-1.71h143a1.72,1.72,0,0,1,1.71,1.71Z" style="fill:#7c96b2"/><rect x="43.75" y="148.1" width="146.43" height="9.59" style="fill:#eff2f6"/><rect x="188.66" y="148.1" width="1.52" height="95.74" style="fill:#eff2f6"/><path d="M170,143.41a.84.84,0,0,1-.84,1.16l-42.61,0a1.73,1.73,0,0,1-1.56-1.16l.19-1.09,44.48,0Z" style="fill:#264465"/><path d="M125.34,142.35l25,0a1.18,1.18,0,0,0,1.17-1.63l-6.23-20.14a2.42,2.42,0,0,0-2.18-1.62l-25,0a1.18,1.18,0,0,0-1.17,1.63l6.24,20.14A2.41,2.41,0,0,0,125.34,142.35Z" style="fill:#325b87"/><polygon points="123.89 138.37 149.35 138.35 143.92 120.8 118.46 120.82 123.89 138.37" style="fill:#5cb0db"/><path d="M125.78,124.36h10.68a.15.15,0,0,0,.14-.15.14.14,0,0,0-.14-.14H125.78a.15.15,0,0,0-.15.14A.15.15,0,0,0,125.78,124.36Z" style="fill:#9dd0e9"/><path d="M125.29,125.47H136a.15.15,0,0,0,.14-.15.14.14,0,0,0-.14-.14H125.29a.15.15,0,0,0-.15.14A.15.15,0,0,0,125.29,125.47Z" style="fill:#9dd0e9"/><path d="M127.57,126.58h10.68a.15.15,0,0,0,.14-.15.14.14,0,0,0-.14-.14H127.57a.15.15,0,0,0-.15.14A.15.15,0,0,0,127.57,126.58Z" style="fill:#9dd0e9"/><path d="M128.45,127.69h10.68a.15.15,0,0,0,.15-.15.15.15,0,0,0-.15-.14H128.45a.14.14,0,0,0-.14.14A.15.15,0,0,0,128.45,127.69Z" style="fill:#9dd0e9"/><path d="M129.34,129.58H140a.14.14,0,0,0,.14-.14.15.15,0,0,0-.14-.15H129.34a.15.15,0,0,0-.15.15A.15.15,0,0,0,129.34,129.58Z" style="fill:#9dd0e9"/><path d="M127.57,128.66h10.68a.15.15,0,0,0,.14-.15.14.14,0,0,0-.14-.14H127.57a.15.15,0,0,0-.15.14A.15.15,0,0,0,127.57,128.66Z" style="fill:#9dd0e9"/><path d="M128.94,131.1h10.68a.15.15,0,1,0,0-.3H128.94a.15.15,0,0,0,0,.3Z" style="fill:#9dd0e9"/><path d="M128.45,132.21h10.68a.15.15,0,0,0,0-.3H128.45a.15.15,0,0,0,0,.3Z" style="fill:#9dd0e9"/><path d="M130.73,133.31h10.68a.15.15,0,0,0,.15-.14.15.15,0,0,0-.15-.15H130.73a.15.15,0,0,0-.14.15A.14.14,0,0,0,130.73,133.31Z" style="fill:#9dd0e9"/><path d="M131.62,134.42H142.3a.14.14,0,0,0,.14-.14.15.15,0,0,0-.14-.15H131.62a.15.15,0,0,0-.15.15A.15.15,0,0,0,131.62,134.42Z" style="fill:#9dd0e9"/><path d="M132.5,136.32h10.68a.15.15,0,0,0,.15-.15.15.15,0,0,0-.15-.14H132.5a.14.14,0,0,0-.14.14A.15.15,0,0,0,132.5,136.32Z" style="fill:#9dd0e9"/><path d="M130.73,135.39h10.68a.15.15,0,0,0,.15-.14.15.15,0,0,0-.15-.15H130.73a.15.15,0,0,0-.14.15A.14.14,0,0,0,130.73,135.39Z" style="fill:#9dd0e9"/><path d="M194.41,181h65.91a0,0,0,0,1,0,0v2a9.15,9.15,0,0,1-9.15,9.15H200.45a6,6,0,0,1-6-6V181A0,0,0,0,1,194.41,181Z" style="fill:#fff"/><rect x="224.2" y="192.15" width="3.4" height="31.13" style="fill:#325b87"/><path d="M244.21,225.15l-17.8-4.08-.51,2.21-.5-2.21-17.81,4.08a5.75,5.75,0,0,0-4.48,5.62v2.45h4.53v-2.45a1.23,1.23,0,0,1,1-1.2l16.16-3.71.92,1.62a4.8,4.8,0,0,1,.63,2.37v3.37h4.53v-3.37a9.18,9.18,0,0,0-.67-3.27l13,3a1.23,1.23,0,0,1,1,1.2v2.45h4.53v-2.45A5.74,5.74,0,0,0,244.21,225.15Z" style="fill:#325b87"/><path d="M209.16,234.38a3.78,3.78,0,1,1-3.78-3.78A3.78,3.78,0,0,1,209.16,234.38Z" style="fill:#264465"/><path d="M232.37,234.38a3.78,3.78,0,1,1-3.78-3.78A3.78,3.78,0,0,1,232.37,234.38Z" style="fill:#264465"/><path d="M250.21,234.38a3.79,3.79,0,1,1-3.79-3.78A3.79,3.79,0,0,1,250.21,234.38Z" style="fill:#264465"/><path d="M255.33,192.15h-6L262,178.22a11.58,11.58,0,0,0,2.14-6.7l.36-30.57a2.27,2.27,0,0,1,2.26-2.27h0A2.27,2.27,0,0,1,269,141l-.35,30.56a16.12,16.12,0,0,1-3,9.34Z" style="fill:#325b87"/><path d="M257.06,168.8l8.73-1.88L265.3,118a3.39,3.39,0,0,0-4.44-3.18l-1.65.54a5.72,5.72,0,0,0-3.93,5.15L253,165.38A3.33,3.33,0,0,0,257.06,168.8Z" style="fill:#fff"/><path d="M177.05,153.43v-4.38h0v-4.38c0-15.68-13.07-15.54-13.07-15.54l-13.34-.31c3.76.79,10.73,2.44,10.73,13.9v4.39h0v4.37c0,15.68,13.07,15.54,13.07,15.54l13.34.31C184,166.54,177.05,164.89,177.05,153.43Z" style="fill:#e5eaf0"/><path d="M148.53,128.54S133,128.37,133,147.06v48.26S136.16,218,115.69,218H85.77c-11.45,0-14.46-7-15.25-10.72l2.14,22.16s-.58,4.17,14.68,4.24h41.58c11.09,0,16.83-6.67,19.77-12.78a31.83,31.83,0,0,0,2.95-13.77V144.74c0-14.73,9.63-15.63,12.08-15.62Z" style="fill:#f1f8fd"/><path d="M163.72,129.12l.57,0S164.08,129.12,163.72,129.12Z" style="fill:#f1f2f2"/><path d="M170.74,131.56l-3.42-1.24-3.13-1.83,0,0-.74-.39-.18-.11h0l-1.76-1-6,.09.21.6.48.46,4.16.91.41.3-.21.15-1,.77-1.85.45a10.77,10.77,0,0,0-3.21,3l7.48,1.94,5.91-.14,6,1.5,1.31-4.58Z" style="fill:#885c49"/><path d="M200.87,143.28l-30.61-6.87,1.11-5.47,28.36,4.74,13-28.27a5.06,5.06,0,0,1,7.24-2.32h0a5.05,5.05,0,0,1,1.75,6.94L204,141.51A3.35,3.35,0,0,1,200.87,143.28Z" style="fill:#d47d6f"/><polygon points="116.27 141.52 116.27 141.03 116.27 140.79 116.27 140.54 78.5 140.54 78.5 140.79 78.5 141.03 78.5 141.52 78.5 142.01 80.21 142.01 80.21 142.58 78.5 142.58 78.5 142.82 78.5 142.94 78.5 143.06 78.5 143.18 78.5 143.42 78.5 143.61 78.5 143.66 78.5 143.85 78.5 144.09 78.5 144.33 78.5 144.57 116.27 144.57 116.27 144.33 116.27 144.09 116.27 143.85 116.27 143.66 116.27 143.61 116.27 143.42 116.27 143.18 116.27 143.06 116.27 142.94 116.27 142.82 116.27 142.7 117.98 142.7 117.98 141.72 116.27 141.72 116.27 141.52" style="fill:#e5eaf0"/><polygon points="78.43 140.02 78.43 140.26 78.43 140.5 116.2 140.5 116.2 140.26 116.2 140.02 116.2 139.78 116.2 139.54 115.67 139.54 115.67 139.3 116.2 139.3 116.2 139.06 116.2 138.87 116.2 138.82 116.2 138.63 117.64 138.63 117.64 138.39 116.2 138.39 116.2 138.27 116.2 138.15 116.2 138.03 116.2 137.79 114.85 137.79 114.85 137.22 116.2 137.22 116.2 136.73 117.24 136.73 117.24 135.75 79.47 135.75 79.47 136 78.43 136 78.43 136.24 78.43 136.93 77.08 136.93 77.08 137.91 78.43 137.91 78.43 138.03 78.43 138.15 78.43 138.27 78.43 138.39 79.86 138.39 79.86 138.63 78.43 138.63 78.43 138.82 78.43 138.87 78.43 139.06 78.43 139.3 77.9 139.3 77.9 139.54 78.43 139.54 78.43 139.78 78.43 140.02" style="fill:#e5eaf0"/><polygon points="117.16 128.75 117.26 128.75 117.26 128.51 117.38 128.51 117.38 128.27 79.61 128.27 79.61 128.51 79.49 128.51 79.49 128.75 79.39 128.75 79.39 128.99 117.16 128.99 117.16 128.75" style="fill:#e5eaf0"/><polygon points="116.67 126.26 116.67 125.4 116.44 125.4 116.44 124.71 115.98 124.71 115.98 124.22 113.31 124.22 113.31 124.1 113.31 123.86 113.31 123.62 113.31 123.38 112.78 123.38 112.78 123.14 113.31 123.14 113.31 122.9 113.31 122.71 113.31 122.66 113.31 122.47 114.75 122.47 114.75 122.23 113.31 122.23 113.31 122.11 113.31 121.99 113.31 121.87 113.31 121.63 111.96 121.63 111.96 121.06 113.31 121.06 113.31 120.57 114.35 120.57 114.35 119.59 76.58 119.59 76.58 119.84 75.54 119.84 75.54 120.08 75.54 120.77 74.19 120.77 74.19 121.75 75.54 121.75 75.54 121.87 75.54 121.99 75.54 122.11 75.54 122.23 76.97 122.23 76.97 122.47 75.54 122.47 75.54 122.66 75.54 122.71 75.54 122.9 75.54 123.14 75.01 123.14 75.01 123.38 75.54 123.38 75.54 123.62 75.54 123.86 75.54 124.1 75.54 124.33 78.21 124.33 78.21 125.2 78.67 125.2 78.67 125.69 78.9 125.69 78.9 126.38 80.67 126.38 80.67 126.5 80.42 126.5 80.42 126.62 80.08 126.62 80.08 126.86 79.46 126.86 79.46 127.1 79.46 127.29 78.85 127.29 78.85 127.53 78.85 127.77 79.16 127.77 79.16 128 79.23 128 79.23 128.24 117 128.24 117 128 116.93 128 116.93 127.77 116.62 127.77 116.62 127.53 116.62 127.33 117.23 127.33 117.23 127.1 117.23 126.86 117.84 126.86 117.84 126.74 118.19 126.74 118.19 126.5 118.44 126.5 118.44 126.26 116.67 126.26" style="fill:#e5eaf0"/><polygon points="79.15 132.27 79.15 132.51 79.03 132.51 79.03 132.75 78.92 132.75 78.92 132.99 78.47 132.99 78.47 133.23 78.37 133.23 78.37 133.47 78.25 133.47 78.25 133.71 78.14 133.71 78.14 133.95 78.07 133.95 78.07 134.19 77.76 134.19 77.76 134.43 77.76 134.67 78.37 134.67 78.37 134.86 78.37 135.1 78.98 135.1 78.98 135.34 79.33 135.34 79.33 135.46 79.57 135.46 79.57 135.7 117.34 135.7 117.34 135.46 117.1 135.46 117.1 135.22 116.75 135.22 116.75 135.1 116.14 135.1 116.14 134.86 116.14 134.62 115.53 134.62 115.53 134.43 115.53 134.19 115.84 134.19 115.84 133.95 115.91 133.95 115.91 133.71 116.02 133.71 116.02 133.47 116.14 133.47 116.14 133.23 116.24 133.23 116.24 132.99 116.69 132.99 116.69 132.75 116.8 132.75 116.8 132.51 116.92 132.51 116.92 132.27 117.02 132.27 117.02 132.03 116.24 132.03 116.24 131.79 116.35 131.79 116.35 131.56 116.47 131.56 116.47 131.32 116.57 131.32 116.57 131.08 116.69 131.08 116.69 130.84 116.8 130.84 116.8 130.6 116.92 130.6 116.92 130.36 117.02 130.36 117.02 130.12 117.01 130.12 117.01 129.88 117.13 129.88 117.13 129.64 117.24 129.64 117.24 129.4 117.34 129.4 117.34 129.16 79.57 129.16 79.57 129.4 79.47 129.4 79.47 129.64 79.36 129.64 79.36 129.88 79.24 129.88 79.24 130.12 79.25 130.12 79.25 130.36 79.15 130.36 79.15 130.6 79.03 130.6 79.03 130.84 78.92 130.84 78.92 131.08 78.8 131.08 78.8 131.32 78.7 131.32 78.7 131.56 78.58 131.56 78.58 131.79 78.47 131.79 78.47 132.03 79.25 132.03 79.25 132.27 79.15 132.27" style="fill:#e5eaf0"/><g style="opacity:0.30000000000000004"><polygon points="116.63 125.93 104.32 125.91 89.91 125.91 78.74 125.93 78.74 125.93 89.91 125.79 104.33 125.79 116.63 125.92 116.63 125.93" style="fill:#325b87"/><polygon points="116.86 131.67 104.55 131.65 90.14 131.65 78.97 131.67 78.97 131.67 90.14 131.53 104.56 131.53 116.86 131.66 116.86 131.67" style="fill:#325b87"/><polygon points="116.86 132.06 108.85 132.04 99.47 132.04 92.21 132.06 92.21 132.06 99.47 131.93 108.86 131.93 116.86 132.06 116.86 132.06" style="fill:#325b87"/><polygon points="116.97 142.08 104.67 142.06 90.25 142.06 79.09 142.08 79.09 142.08 90.25 141.94 104.68 141.94 116.97 142.08 116.97 142.08" style="fill:#325b87"/><polygon points="116.97 142.48 108.97 142.46 99.58 142.46 92.32 142.48 92.32 142.48 99.58 142.34 108.97 142.34 116.97 142.47 116.97 142.48" style="fill:#325b87"/><polygon points="115.73 134.06 103.42 134.04 89 134.04 77.84 134.06 77.84 134.06 89 133.92 103.43 133.92 115.73 134.06 115.73 134.06" style="fill:#325b87"/><polygon points="115.73 134.46 107.72 134.44 98.34 134.44 91.08 134.46 91.08 134.46 98.34 134.32 107.72 134.32 115.73 134.46 115.73 134.46" style="fill:#325b87"/><polygon points="79.55 127.52 91.86 127.5 106.27 127.5 117.43 127.52 117.43 127.52 106.27 127.38 91.85 127.38 79.55 127.51 79.55 127.52" style="fill:#325b87"/><polygon points="79.55 127.91 87.56 127.89 96.94 127.89 104.2 127.91 104.2 127.91 96.94 127.77 87.55 127.77 79.55 127.91 79.55 127.91" style="fill:#325b87"/><polygon points="78.97 139.41 91.28 139.39 105.7 139.39 116.86 139.41 116.86 139.41 105.7 139.27 91.27 139.27 78.97 139.41 78.97 139.41" style="fill:#325b87"/><polygon points="78.97 139.81 86.98 139.79 96.36 139.79 103.63 139.81 103.63 139.81 96.36 139.67 86.98 139.67 78.97 139.81 78.97 139.81" style="fill:#325b87"/><polygon points="78.64 136.6 90.95 136.59 105.36 136.59 116.52 136.6 116.52 136.6 105.36 136.47 90.94 136.47 78.64 136.6 78.64 136.6" style="fill:#325b87"/><polygon points="78.64 137 86.65 136.98 96.03 136.98 103.29 137 103.29 137 96.03 136.86 86.64 136.86 78.64 137 78.64 137" style="fill:#325b87"/><polygon points="75.73 123.13 88.03 123.11 102.45 123.11 113.61 123.13 113.61 123.13 102.45 122.99 88.03 122.99 75.73 123.13 75.73 123.13" style="fill:#325b87"/><polygon points="75.73 123.53 83.74 123.51 93.12 123.51 100.38 123.53 100.38 123.53 93.12 123.39 83.73 123.39 75.73 123.52 75.73 123.53" style="fill:#325b87"/></g><g style="opacity:0.2"><polygon points="75.11 121.19 87.42 121.17 101.84 121.17 113 121.19 113 121.19 101.84 121.05 87.41 121.05 75.11 121.19 75.11 121.19" style="fill:#325b87"/><polygon points="75.11 121.59 83.12 121.57 92.5 121.57 99.77 121.59 99.77 121.59 92.5 121.45 83.12 121.45 75.11 121.59 75.11 121.59" style="fill:#325b87"/></g><g style="opacity:0.2"><polygon points="116.33 141.51 116.33 141.01 116.33 140.78 116.33 140.53 109.2 140.54 109.2 140.79 109.2 141.03 109.21 141.52 109.21 141.72 110.92 141.72 110.93 142.7 109.21 142.7 109.21 142.82 109.21 142.94 109.21 143.06 109.21 143.18 109.21 143.42 109.21 143.61 109.21 143.66 109.21 143.85 109.21 144.09 109.21 144.33 109.21 144.57 116.34 144.55 116.34 144.31 116.33 144.07 116.33 143.83 116.33 143.64 116.33 143.59 116.33 143.4 116.33 143.16 116.33 143.04 116.33 142.93 116.33 142.81 116.33 142.69 118.05 142.68 118.05 141.7 116.33 141.71 116.33 141.51" style="fill:#7c96b2"/><polygon points="109.13 136.74 109.13 137.23 107.78 137.23 107.78 137.8 109.13 137.8 109.13 138.04 109.13 138.16 109.13 138.28 109.13 138.4 110.57 138.39 110.57 138.63 109.13 138.64 109.13 138.83 109.13 138.88 109.13 139.07 109.13 139.31 108.6 139.31 108.61 139.55 109.13 139.54 109.13 139.78 109.13 140.03 109.14 140.26 109.14 140.5 116.26 140.49 116.26 140.25 116.26 140.01 116.26 139.77 116.26 139.53 115.73 139.53 115.73 139.29 116.25 139.29 116.25 139.05 116.25 138.86 116.25 138.81 116.25 138.62 117.69 138.62 117.69 138.38 116.25 138.38 116.25 138.26 116.25 138.14 116.25 138.02 116.25 137.78 114.9 137.78 114.9 137.22 116.25 137.21 116.25 136.72 117.29 136.72 117.29 135.74 110.17 135.75 110.17 136.74 109.13 136.74" style="fill:#7c96b2"/><polygon points="110.17 128.51 110.17 128.75 110.06 128.75 110.07 128.99 117.19 128.97 117.19 128.73 117.29 128.73 117.29 128.49 117.41 128.49 117.41 128.25 110.28 128.27 110.28 128.51 110.17 128.51" style="fill:#7c96b2"/><polygon points="116.7 126.24 116.7 125.38 116.47 125.38 116.46 124.69 116 124.69 116 124.2 113.33 124.21 113.33 124.09 113.33 123.85 113.33 123.61 113.33 123.37 112.8 123.37 112.8 123.13 113.33 123.13 113.33 122.89 113.32 122.7 113.32 122.65 113.32 122.46 114.76 122.46 114.76 122.22 113.32 122.22 113.32 122.1 113.32 121.98 113.32 121.86 113.32 121.62 111.97 121.63 111.97 121.06 113.32 121.05 113.32 120.56 114.36 120.56 114.36 119.58 107.24 119.6 107.24 120.58 106.2 120.58 106.2 121.07 104.85 121.08 104.85 121.64 106.2 121.64 106.2 121.88 106.2 122 106.2 122.12 106.2 122.24 107.64 122.24 107.64 122.48 106.2 122.48 106.2 122.67 106.2 122.72 106.2 122.91 106.2 123.15 105.67 123.15 105.67 123.39 106.2 123.39 106.2 123.63 106.2 123.87 106.2 124.11 106.2 124.23 108.88 124.22 108.88 124.71 109.34 124.71 109.34 125.4 109.57 125.4 109.58 126.26 111.34 126.26 111.34 126.5 111.09 126.5 111.09 126.74 110.75 126.74 110.75 126.86 110.13 126.86 110.14 127.1 110.14 127.34 109.52 127.34 109.52 127.53 109.53 127.77 109.84 127.77 109.84 128.01 109.91 128.01 109.91 128.25 117.03 128.23 117.03 127.99 116.96 127.99 116.96 127.75 116.65 127.75 116.65 127.51 116.65 127.32 117.26 127.32 117.26 127.08 117.26 126.84 117.87 126.84 117.87 126.72 118.22 126.72 118.22 126.48 118.46 126.48 118.46 126.24 116.7 126.24" style="fill:#7c96b2"/><polygon points="110.15 129.4 110.15 129.64 110.04 129.64 110.04 129.88 109.92 129.88 109.92 130.12 109.93 130.12 109.93 130.36 109.83 130.36 109.83 130.6 109.72 130.6 109.72 130.84 109.6 130.84 109.6 131.08 109.48 131.08 109.49 131.32 109.38 131.32 109.38 131.56 109.27 131.56 109.27 131.8 109.15 131.8 109.15 132.04 109.94 132.04 109.94 132.28 109.83 132.28 109.83 132.52 109.72 132.52 109.72 132.76 109.61 132.76 109.61 133 109.16 133 109.16 133.24 109.06 133.24 109.06 133.48 108.94 133.48 108.94 133.72 108.83 133.72 108.83 133.96 108.76 133.96 108.76 134.19 108.45 134.2 108.45 134.44 108.45 134.63 109.06 134.62 109.06 134.86 109.06 135.1 109.68 135.1 109.68 135.22 110.02 135.22 110.02 135.46 110.27 135.46 110.27 135.7 117.39 135.68 117.39 135.44 117.15 135.44 117.15 135.2 116.8 135.2 116.8 135.08 116.19 135.09 116.18 134.85 116.18 134.61 115.57 134.61 115.57 134.42 115.57 134.18 115.88 134.18 115.88 133.94 115.95 133.94 115.95 133.7 116.07 133.7 116.06 133.46 116.18 133.46 116.18 133.22 116.28 133.22 116.28 132.98 116.73 132.98 116.73 132.74 116.84 132.74 116.84 132.5 116.96 132.5 116.96 132.26 117.06 132.26 117.06 132.02 116.28 132.02 116.28 131.78 116.39 131.78 116.39 131.54 116.5 131.54 116.5 131.3 116.61 131.3 116.61 131.06 116.72 131.06 116.72 130.82 116.84 130.82 116.84 130.58 116.95 130.58 116.95 130.34 117.06 130.34 117.06 130.1 117.04 130.1 117.04 129.86 117.16 129.86 117.16 129.62 117.27 129.62 117.27 129.38 117.38 129.38 117.38 129.15 110.25 129.16 110.25 129.4 110.15 129.4" style="fill:#7c96b2"/></g><path d="M83.59,137a17.24,17.24,0,0,0-1.8-3.93H96.64C92.62,133.58,85,135.07,83.59,137Z" style="fill:#414042;opacity:0.30000000000000004"/><path d="M81.83,136.29A13.38,13.38,0,0,0,80,133H96.8C92.76,133.49,83.28,134.73,81.83,136.29Z" style="fill:#fff"/><path d="M98.15,125.59a8,8,0,0,1,1.53-2H87.06C90.48,123.83,96.92,124.61,98.15,125.59Z" style="fill:#414042;opacity:0.30000000000000004"/><path d="M99.65,125.24a6.89,6.89,0,0,1,1.54-1.7H86.92C90.36,123.78,98.42,124.43,99.65,125.24Z" style="fill:#fff"/><polygon points="103.63 141.77 101.94 141.77 101.94 141.58 101.94 141.09 101.94 140.86 101.94 140.61 64.87 140.61 64.87 140.86 64.87 141.09 64.87 141.58 64.87 142.06 66.56 142.06 66.56 142.62 64.87 142.62 64.87 142.85 64.87 142.97 64.87 143.09 64.87 143.2 64.87 143.44 64.87 143.63 64.87 143.67 64.87 143.86 64.87 144.1 64.87 144.33 64.87 144.57 101.94 144.57 101.94 144.33 101.94 144.1 101.94 143.86 101.94 143.67 101.94 143.63 101.94 143.44 101.94 143.2 101.94 143.09 101.94 142.97 101.94 142.85 101.94 142.73 103.63 142.73 103.63 141.77" style="fill:#e5eaf0"/><polygon points="64.8 140.1 64.8 140.34 64.8 140.57 101.87 140.57 101.87 140.34 101.87 140.1 101.87 139.87 101.87 139.63 101.35 139.63 101.35 139.4 101.87 139.4 101.87 139.16 101.87 138.98 101.87 138.93 101.87 138.74 103.28 138.74 103.28 138.51 101.87 138.51 101.87 138.39 101.87 138.27 101.87 138.16 101.87 137.92 100.55 137.92 100.55 137.36 101.87 137.36 101.87 136.88 102.9 136.88 102.9 135.92 65.83 135.92 65.83 136.16 64.8 136.16 64.8 136.4 64.8 137.07 63.48 137.07 63.48 138.04 64.8 138.04 64.8 138.16 64.8 138.27 64.8 138.39 64.8 138.51 66.21 138.51 66.21 138.74 64.8 138.74 64.8 138.93 64.8 138.98 64.8 139.16 64.8 139.4 64.28 139.4 64.28 139.63 64.8 139.63 64.8 139.87 64.8 140.1" style="fill:#e5eaf0"/><g style="opacity:0.30000000000000004"><polygon points="102.63 142.13 90.56 142.11 76.41 142.11 65.45 142.13 65.45 142.13 76.41 141.99 90.56 141.99 102.63 142.12 102.63 142.13" style="fill:#325b87"/><polygon points="102.63 142.52 94.77 142.5 85.57 142.5 78.44 142.52 78.44 142.52 85.57 142.38 94.78 142.38 102.63 142.51 102.63 142.52" style="fill:#325b87"/></g><g style="opacity:0.30000000000000004"><polygon points="65.34 139.51 77.42 139.49 91.57 139.49 102.52 139.51 102.52 139.51 91.57 139.37 77.41 139.37 65.34 139.51 65.34 139.51" style="fill:#325b87"/><polygon points="65.34 139.9 73.2 139.88 82.41 139.88 89.53 139.9 89.53 139.9 82.41 139.76 73.19 139.76 65.34 139.9 65.34 139.9" style="fill:#325b87"/></g><g style="opacity:0.30000000000000004"><polygon points="65.01 136.75 77.09 136.73 91.24 136.73 102.19 136.75 102.19 136.75 91.24 136.62 77.08 136.62 65.01 136.75 65.01 136.75" style="fill:#325b87"/><polygon points="65.01 137.14 72.87 137.12 82.08 137.12 89.2 137.14 89.2 137.14 82.08 137.01 72.87 137.01 65.01 137.14 65.01 137.14" style="fill:#325b87"/></g><g style="opacity:0.2"><polygon points="101.94 141.58 101.94 141.09 101.94 140.86 101.94 140.61 90.74 140.61 90.74 140.86 90.74 141.09 90.74 141.58 90.74 141.77 92.43 141.77 92.43 142.73 90.74 142.73 90.74 142.85 90.74 142.97 90.74 143.09 90.74 143.2 90.74 143.44 90.74 143.63 90.74 143.67 90.74 143.86 90.74 144.1 90.74 144.33 90.74 144.57 101.94 144.57 101.94 144.33 101.94 144.1 101.94 143.86 101.94 143.67 101.94 143.63 101.94 143.44 101.94 143.2 101.94 143.09 101.94 142.97 101.94 142.85 101.94 142.73 103.63 142.73 103.63 141.77 101.94 141.77 101.94 141.58" style="fill:#7c96b2"/><polygon points="90.68 136.88 90.68 137.36 89.35 137.36 89.35 137.92 90.68 137.92 90.68 138.16 90.68 138.27 90.68 138.39 90.68 138.51 92.09 138.51 92.09 138.74 90.68 138.74 90.68 138.93 90.68 138.98 90.68 139.16 90.68 139.4 90.16 139.4 90.16 139.63 90.68 139.63 90.68 139.87 90.68 140.1 90.68 140.34 90.68 140.57 101.87 140.57 101.87 140.34 101.87 140.1 101.87 139.87 101.87 139.63 101.35 139.63 101.35 139.4 101.87 139.4 101.87 139.16 101.87 138.98 101.87 138.93 101.87 138.74 103.28 138.74 103.28 138.51 101.87 138.51 101.87 138.39 101.87 138.27 101.87 138.16 101.87 137.92 100.55 137.92 100.55 137.36 101.87 137.36 101.87 136.88 102.9 136.88 102.9 135.92 91.7 135.92 91.7 136.88 90.68 136.88" style="fill:#7c96b2"/></g><path d="M71,140.7a6,6,0,0,0-1.63-1.06H82.82C79.18,139.79,72.31,140.19,71,140.7Z" style="fill:#325b87;opacity:0.30000000000000004"/><path d="M69.4,140.52a6.32,6.32,0,0,0-1.63-.88H83C79.3,139.76,70.72,140.1,69.4,140.52Z" style="fill:#fff"/><polyline points="208.93 100.73 207.35 97.1 205.52 95.95 206.07 92.17 205.01 85.51 204.01 86.51 205.07 93.17 204.52 96.95 206.35 98.1 207.93 101.73 218.2 98.76" style="fill:#fff;opacity:0.2"/><path d="M170.56,135l-3.1-.32h-5l-6-2,2-2-.79.08a10.54,10.54,0,0,0-3.21,3l7.47,1.93,5.91-.13L170,136l.33.08Z" style="fill:#fff;opacity:0.2"/><path d="M204.44,86.32a4.57,4.57,0,0,1,1.22-4.49l-1.21-.78c5.05-3.47,11.27-4.5,15.47.86,1.89,2.41,1.77,5.56,3.45,7.9.72,1,1.93,1.56,2.62,2.69.85,1.41.89,3.21,2.21,4.34a12.45,12.45,0,0,1,1.88,1.82c.66.89.49,1.31.58,2.27.2,2.08,1.87,4,1.34,6.13-.12.52-.37,1-.53,1.51-.37,1.2.16,2.27.13,3.46s-.33,1.87.12,3,1.17,1.9,1.14,3a1,1,0,0,1-.24.67,1.24,1.24,0,0,1-1.19.16c-1.76-.43-3.2-1.77-5-1.77s-3.53-.17-4.1-2.17c-.36-1.25.08-2.58,0-3.87a4.65,4.65,0,0,0-1.87-3.33,29.54,29.54,0,0,0-3.39-1.66c-3.3-1.86-.89-5.06-1.54-7.88a6.26,6.26,0,0,0-1.83-2.92,14.35,14.35,0,0,0-2.15-2,10.49,10.49,0,0,0-1.87-.6A4.64,4.64,0,0,1,207,89.45a1.25,1.25,0,0,1,0-.19A4.47,4.47,0,0,1,204.44,86.32Z" style="fill:#002b3b"/><polygon points="170.95 115.93 173 114 173 114 174.01 114.12 179 117 182.38 120.2 183.1 119.29 180.22 116.81 178.09 115.68 173 113 173 113 170.33 115.68 170.95 115.93" style="fill:#fff;opacity:0.2"/></g></g></svg>