<svg xmlns="http://www.w3.org/2000/svg" xmlns:xlink="http://www.w3.org/1999/xlink" width="321.112" height="216.358" viewBox="0 0 321.112 216.358">
  <defs>
    <linearGradient id="linear-gradient" x1="0.571" y1="0.852" x2="0.295" y2="0.276" gradientUnits="objectBoundingBox">
      <stop offset="0" stop-color="#608a93"/>
      <stop offset="1" stop-color="#f0f3f5"/>
    </linearGradient>
    <linearGradient id="linear-gradient-2" x1="0.697" y1="0.381" x2="-0.68" y2="1.049" gradientUnits="objectBoundingBox">
      <stop offset="0" stop-color="#fff"/>
      <stop offset="1"/>
    </linearGradient>
    <linearGradient id="linear-gradient-3" x1="0.694" y1="0.296" x2="-0.131" y2="1.708" xlink:href="#linear-gradient-2"/>
    <linearGradient id="linear-gradient-4" x1="2.748" y1="-2.456" x2="-2.404" y2="4.698" xlink:href="#linear-gradient-2"/>
    <linearGradient id="linear-gradient-5" x1="-4.329" y1="0.916" x2="9.023" y2="-0.367" gradientUnits="objectBoundingBox">
      <stop offset="0" stop-color="#fff"/>
      <stop offset="0.66" stop-color="#6e6b6c"/>
      <stop offset="1" stop-color="#231f20"/>
    </linearGradient>
    <linearGradient id="linear-gradient-6" x1="-0.232" y1="-0.395" x2="1.259" y2="1.384" xlink:href="#linear-gradient-2"/>
    <linearGradient id="linear-gradient-7" x1="0.876" y1="0.972" x2="3.225" y2="0.207" xlink:href="#linear-gradient-2"/>
    <linearGradient id="linear-gradient-8" x1="-10.463" y1="1.887" x2="-12.402" y2="1.887" xlink:href="#linear-gradient-2"/>
    <linearGradient id="linear-gradient-9" x1="1.635" y1="0.5" x2="0.635" y2="0.5" xlink:href="#linear-gradient-2"/>
    <linearGradient id="linear-gradient-10" x1="4.209" y1="1.296" x2="4.486" y2="0.101" xlink:href="#linear-gradient-2"/>
    <linearGradient id="linear-gradient-11" x1="4.165" y1="1.342" x2="4.382" y2="-0.011" xlink:href="#linear-gradient-2"/>
    <linearGradient id="linear-gradient-12" x1="1" y1="0.5" x2="0" y2="0.5" xlink:href="#linear-gradient-2"/>
    <linearGradient id="linear-gradient-13" x1="-11.782" y1="6.387" x2="-12.886" y2="6.387" xlink:href="#linear-gradient-2"/>
  </defs>
  <g id="Group_10856" data-name="Group 10856" transform="translate(0 0)">
    <g id="Group_10467" data-name="Group 10467" transform="translate(0 21.973)">
      <ellipse id="Ellipse_367" data-name="Ellipse 367" cx="21.055" cy="2.778" rx="21.055" ry="2.778" transform="translate(267.969 188.827)" fill="#9faad4" opacity="0.22"/>
      <path id="Path_19696" data-name="Path 19696" d="M3156.882,1732.188c44.059,44.876,68.12,80.951,33.607,93.656-27.1,9.977-91.772-6.326-127.809,4.469-16.292,4.881-59.545,21.645-91.176-5.484-28.139-24.135-59.226-102.3,1.1-91.154,24.231,4.476,4.508-71.413,50.32-75.191C3055.4,1655.807,3119.832,1694.45,3156.882,1732.188Z" transform="translate(-2937.978 -1645.533)" fill="#d1dfe1" opacity="0.75"/>
      <path id="Path_19697" data-name="Path 19697" d="M2968.463,1776.011c7.143,11.718,16,22.336,24.389,29.029,34.661,27.649,72.039,14.724,89.177,8.916,37.912-12.841,94.082,9.616,122.7-1.576,17.4-6.808,15.544-25.07-.424-52.8-6.9-11.987-16.432-25.742-28.19-41.106-34.2-44.685-92.344-85.49-116.455-85.559-48.911-.136-44.236,83.367-70.169,79.525C2942.5,1705.48,2949.359,1744.676,2968.463,1776.011Z" transform="translate(-2953.316 -1628.415)" opacity="0.699" fill="url(#linear-gradient)"/>
      <path id="Path_19705" data-name="Path 19705" d="M3203.957,1779.523h-58.174a3.241,3.241,0,0,0-3.241,3.241v105.49a3.241,3.241,0,0,0,3.241,3.241h124.484a3.241,3.241,0,0,0,2.744-4.965l-66.31-105.49A3.241,3.241,0,0,0,3203.957,1779.523Z" transform="translate(-3071.479 -1727.077)" fill="#091d7b"/>
      <path id="Path_19706" data-name="Path 19706" d="M3534.161,1980.212l2.686-2.888a21.767,21.767,0,0,1,3.279,1.8l-1.014,3.822a18.268,18.268,0,0,1,2.821,2.715l3.772-1.156a22.215,22.215,0,0,1,1.933,3.206l-2.784,2.8a17.945,17.945,0,0,1,1.085,3.759l3.853.887a21.781,21.781,0,0,1,.064,3.741l-3.808,1.028a18.249,18.249,0,0,1-.942,3.8l2.888,2.687a21.861,21.861,0,0,1-1.8,3.279l-3.822-1.014a18.078,18.078,0,0,1-2.715,2.821l1.156,3.772a22.293,22.293,0,0,1-3.205,1.933l-2.8-2.784a18.075,18.075,0,0,1-3.763,1.084l-.887,3.854a21.785,21.785,0,0,1-3.741.064l-1.028-3.808a18.294,18.294,0,0,1-1.925-.368,18.535,18.535,0,0,1-1.878-.573l-2.686,2.887a21.862,21.862,0,0,1-3.279-1.8l1.014-3.822a17.913,17.913,0,0,1-2.817-2.714l-3.776,1.156a22.228,22.228,0,0,1-1.933-3.206l2.784-2.8a18.254,18.254,0,0,1-1.085-3.762l-3.853-.888a21.782,21.782,0,0,1-.064-3.741l3.808-1.028a18.247,18.247,0,0,1,.942-3.8l-2.888-2.687a21.817,21.817,0,0,1,1.8-3.279l3.822,1.014a18.089,18.089,0,0,1,2.714-2.817l-1.156-3.776a22.186,22.186,0,0,1,3.205-1.933l2.8,2.784a18.129,18.129,0,0,1,3.758-1.085l.887-3.853a21.809,21.809,0,0,1,3.741-.064l1.028,3.808a18.246,18.246,0,0,1,3.8.942Zm-4,8.026a9.485,9.485,0,1,0,6.924,11.489A9.488,9.488,0,0,0,3530.157,1988.238Z" transform="translate(-3466.68 -1858.906)" fill="#a9e1f2"/>
      <path id="Path_19707" data-name="Path 19707" d="M3546.531,1998.32a14.68,14.68,0,1,1-17.782,10.721A14.679,14.679,0,0,1,3546.531,1998.32Zm-1.249,5.043a9.485,9.485,0,1,0,6.924,11.489A9.488,9.488,0,0,0,3545.282,2003.363Z" transform="translate(-3481.805 -1874.031)" fill="#5574d8" opacity="0.31"/>
      <path id="Path_19708" data-name="Path 19708" d="M3634.345,1925.384l1.34-1.94a13.334,13.334,0,0,1,2.1.784l-.271,2.347a10.628,10.628,0,0,1,1.9,1.363l2.133-1.011a13.321,13.321,0,0,1,1.42,1.729l-1.406,1.893a10.947,10.947,0,0,1,.969,2.133l2.355.19a13.3,13.3,0,0,1,.362,2.208l-2.163.938a11.458,11.458,0,0,1-.054,1.172,11.3,11.3,0,0,1-.174,1.157l1.94,1.34a13.166,13.166,0,0,1-.784,2.095l-2.347-.27a10.977,10.977,0,0,1-1.363,1.9l1.012,2.13a13.369,13.369,0,0,1-1.73,1.421l-1.9-1.4a10.847,10.847,0,0,1-2.128.965l-.191,2.355a13.287,13.287,0,0,1-2.208.362l-.938-2.163a11.33,11.33,0,0,1-1.172-.051,11.133,11.133,0,0,1-1.156-.177l-1.344,1.939a13.279,13.279,0,0,1-2.093-.783l.267-2.348a10.967,10.967,0,0,1-1.9-1.36l-2.13,1.008a13.1,13.1,0,0,1-1.42-1.73l1.4-1.893a11.187,11.187,0,0,1-.968-2.133l-2.352-.19a12.639,12.639,0,0,1-.362-2.208l2.164-.938a11.269,11.269,0,0,1,.051-1.168,11.41,11.41,0,0,1,.177-1.16l-1.94-1.34a12.688,12.688,0,0,1,.784-2.1l2.343.27a11.168,11.168,0,0,1,1.364-1.9l-1.009-2.13a13.072,13.072,0,0,1,1.73-1.421l1.893,1.406a10.8,10.8,0,0,1,2.129-.969l.194-2.354a13.2,13.2,0,0,1,2.2-.363l.941,2.164a10.783,10.783,0,0,1,2.329.228Zm-1.754,5.887a4.871,4.871,0,1,0,4.374,5.324A4.873,4.873,0,0,0,3632.591,1931.271Z" transform="translate(-3599.019 -1823.629)" fill="#a9e1f2"/>
      <path id="Path_19709" data-name="Path 19709" d="M3642.2,1935.877a8.886,8.886,0,1,1-9.712,7.979A8.887,8.887,0,0,1,3642.2,1935.877Zm-.391,4a4.871,4.871,0,1,0,4.374,5.324A4.872,4.872,0,0,0,3641.809,1939.874Z" transform="translate(-3608.397 -1832.272)" fill="#5574d8" opacity="0.31"/>
      <path id="Path_19710" data-name="Path 19710" d="M3363.361,2058.815a4.376,4.376,0,0,0,.117.93h105.563a6,6,0,0,0-3.726-2.8c-2-.569-5.388-1.581-5.091-2.977,1.11-5.179,3.661-8.908-2.916-15.04-2.065-1.924-8.245-3.675-14.156-.572-4.722,2.477-7.816-6.738-17.657-11.725-.289-.146-.586-.289-.889-.429-5.654-2.605-12.763-2.336-17.427,2.437a16.931,16.931,0,0,0-4.207,8.145c-2.86,12.231-9.589,4.1-10.724,2.716-3.289-4-13.066-1.858-14.59,3.752-2.872,10.57-5.891,8.911-8.431,9.546S3363.295,2055.655,3363.361,2058.815Z" transform="translate(-3339.219 -1891.98)" fill="#8d9294" opacity="0.12"/>
      <path id="Path_19711" data-name="Path 19711" d="M3366.684,2064.005a4.4,4.4,0,0,0,.117.93h101.462a1.426,1.426,0,0,0,.425-2.788l-.052-.015c-2-.569-5.388-1.581-5.09-2.977,1.109-5.179,3.661-8.908-2.917-15.039-2.065-1.925-8.245-3.675-14.156-.572-4.721,2.476-7.816-6.738-17.656-11.725-.289-.146-.587-.289-.89-.429-5.654-2.605-12.763-2.336-17.427,2.436a16.935,16.935,0,0,0-4.207,8.145c-2.86,12.232-9.588,4.1-10.724,2.717-3.289-4-13.066-1.859-14.59,3.752-2.871,10.57-5.891,8.911-8.431,9.546S3366.618,2060.845,3366.684,2064.005Z" transform="translate(-3340.96 -1895.473)" fill="#f7f9ff"/>
      <path id="Path_19712" data-name="Path 19712" d="M2933.016,1901.994h179.7a3.061,3.061,0,0,0,3.014-3.593l-20.515-116.349a3.061,3.061,0,0,0-3.014-2.529H2912.5a3.06,3.06,0,0,0-3.014,3.592L2930,1899.464A3.06,3.06,0,0,0,2933.016,1901.994Z" transform="translate(-2837.517 -1727.077)" fill="#28b5c8"/>
      <path id="Path_19713" data-name="Path 19713" d="M3446.095,1907.442h7.5l-16.219-98.825-4.419-5.4Z" transform="translate(-3346.528 -1743.026)" fill="#6ecedb"/>
      <path id="Path_19714" data-name="Path 19714" d="M3397.605,1909.705h-31.894l-15.95-106.484,27.727,22.926Z" transform="translate(-3263.337 -1743.026)" fill="#6ecedb"/>
      <path id="Path_19715" data-name="Path 19715" d="M3169.348,1803.221h-158.76l19.082,108.22" transform="translate(-2924.163 -1743.026)" fill="#fff"/>
      <path id="Path_19716" data-name="Path 19716" d="M2973.056,1911.44h155.223a2.968,2.968,0,0,0,2.923-3.483l-18.468-104.737h-158.76Z" transform="translate(-2867.549 -1743.025)" fill="#fff"/>
      <path id="Path_19717" data-name="Path 19717" d="M2972.91,1911.44h155.52a2.719,2.719,0,0,0,2.678-3.191l-18.52-105.029h-158.76Z" transform="translate(-2867.404 -1743.025)" fill="#6ecedb" opacity="0.16"/>
      <path id="Path_19718" data-name="Path 19718" d="M2974.289,1911.44h153.868a2.409,2.409,0,0,0,2.373-2.827l-18.233-103.4a2.41,2.41,0,0,0-2.372-1.99H2956.057a2.409,2.409,0,0,0-2.372,2.827l18.232,103.4A2.409,2.409,0,0,0,2974.289,1911.44Z" transform="translate(-2866.762 -1743.025)" fill="#6ecedb" opacity="0.16"/>
      <path id="Path_19719" data-name="Path 19719" d="M3031.494,1818.481a3.873,3.873,0,0,0,3.661,3.112,2.539,2.539,0,0,0,2.563-3.112,3.874,3.874,0,0,0-3.661-3.112A2.54,2.54,0,0,0,3031.494,1818.481Z" transform="translate(-2799.402 -1751.201)" fill="#57abec"/>
      <path id="Path_19720" data-name="Path 19720" d="M3453.182,1818.481a3.873,3.873,0,0,0,3.661,3.112,2.539,2.539,0,0,0,2.563-3.112,3.874,3.874,0,0,0-3.661-3.112A2.539,2.539,0,0,0,3453.182,1818.481Z" transform="translate(-3358.99 -1751.201)" fill="#57abec"/>
      <g id="Group_10443" data-name="Group 10443" transform="translate(96.741 80.34)">
        <path id="Path_19721" data-name="Path 19721" d="M3020.642,1878.682h25.426a.653.653,0,0,0,.66-.8l-2.112-11.98a1,1,0,0,0-.943-.8h-25.426a.654.654,0,0,0-.661.8l2.113,11.98A1,1,0,0,0,3020.642,1878.682Z" transform="translate(-2900.581 -1865.008)" fill="#fff"/>
        <path id="Path_19722" data-name="Path 19722" d="M3110.4,1878.4h25.426a.654.654,0,0,0,.66-.8l-2.113-11.98a1,1,0,0,0-.943-.8h-25.427a.654.654,0,0,0-.66.8l2.112,11.98A1,1,0,0,0,3110.4,1878.4Z" transform="translate(-3019.699 -1864.822)" fill="#fff"/>
        <path id="Path_19723" data-name="Path 19723" d="M3200.625,1878.682h25.427a.654.654,0,0,0,.66-.8l-2.112-11.98a1,1,0,0,0-.943-.8h-25.426a.655.655,0,0,0-.661.8l2.113,11.98A1,1,0,0,0,3200.625,1878.682Z" transform="translate(-3139.424 -1865.008)" fill="#fff"/>
        <path id="Path_19724" data-name="Path 19724" d="M3289.51,1878.682h25.427a.654.654,0,0,0,.66-.8l-2.112-11.98a1,1,0,0,0-.943-.8h-25.427a.654.654,0,0,0-.66.8l2.112,11.98A1,1,0,0,0,3289.51,1878.682Z" transform="translate(-3257.375 -1865.008)" fill="#fff"/>
        <path id="Path_19725" data-name="Path 19725" d="M3378.395,1878.682h25.426a.654.654,0,0,0,.661-.8l-2.113-11.98a1,1,0,0,0-.943-.8H3376a.653.653,0,0,0-.66.8l2.112,11.98A1,1,0,0,0,3378.395,1878.682Z" transform="translate(-3375.327 -1865.008)" fill="#fff"/>
      </g>
      <g id="Group_10444" data-name="Group 10444" transform="translate(99.568 96.371)">
        <path id="Path_19726" data-name="Path 19726" d="M3012,1927.7h25.426a.654.654,0,0,0,.66-.8l-2.112-11.98a1,1,0,0,0-.943-.8H3009.6a.655.655,0,0,0-.661.8l2.113,11.98A1,1,0,0,0,3012,1927.7Z" transform="translate(-2891.937 -1914.029)" fill="#fff"/>
        <path id="Path_19727" data-name="Path 19727" d="M3101.761,1927.426h25.426a.654.654,0,0,0,.661-.8l-2.113-11.979a1,1,0,0,0-.943-.8h-25.426a.654.654,0,0,0-.661.8l2.113,11.979A1,1,0,0,0,3101.761,1927.426Z" transform="translate(-3011.056 -1913.843)" fill="#fff"/>
        <path id="Path_19728" data-name="Path 19728" d="M3191.981,1927.7h25.427a.654.654,0,0,0,.66-.8l-2.112-11.98a1,1,0,0,0-.943-.8h-25.426a.654.654,0,0,0-.66.8l2.112,11.98A1,1,0,0,0,3191.981,1927.7Z" transform="translate(-3130.78 -1914.029)" fill="#fff"/>
        <path id="Path_19729" data-name="Path 19729" d="M3280.866,1927.7h25.427a.654.654,0,0,0,.66-.8l-2.112-11.98a1,1,0,0,0-.943-.8h-25.427a.654.654,0,0,0-.66.8l2.113,11.98A1,1,0,0,0,3280.866,1927.7Z" transform="translate(-3248.731 -1914.029)" fill="#fff"/>
        <path id="Path_19730" data-name="Path 19730" d="M3369.75,1927.7h25.427a.654.654,0,0,0,.66-.8l-2.112-11.98a1,1,0,0,0-.943-.8h-25.426a.654.654,0,0,0-.661.8l2.112,11.98A1,1,0,0,0,3369.75,1927.7Z" transform="translate(-3366.682 -1914.029)" fill="#fff"/>
      </g>
      <g id="Group_10445" data-name="Group 10445" transform="translate(102.375 112.29)">
        <path id="Path_19731" data-name="Path 19731" d="M3003.414,1976.381h25.427a.654.654,0,0,0,.66-.8l-2.112-11.979a1,1,0,0,0-.943-.8h-25.426a.654.654,0,0,0-.661.8l2.112,11.979A1,1,0,0,0,3003.414,1976.381Z" transform="translate(-2883.354 -1962.708)" fill="#fff"/>
        <path id="Path_19732" data-name="Path 19732" d="M3093.178,1976.1H3118.6a.654.654,0,0,0,.661-.8l-2.113-11.979a1,1,0,0,0-.943-.8h-25.427a.654.654,0,0,0-.66.8l2.113,11.979A1,1,0,0,0,3093.178,1976.1Z" transform="translate(-3002.473 -1962.522)" fill="#fff"/>
        <path id="Path_19733" data-name="Path 19733" d="M3183.4,1976.381h25.427a.654.654,0,0,0,.66-.8l-2.112-11.979a1,1,0,0,0-.943-.8H3181a.655.655,0,0,0-.661.8l2.113,11.979A1,1,0,0,0,3183.4,1976.381Z" transform="translate(-3122.197 -1962.708)" fill="#fff"/>
        <path id="Path_19734" data-name="Path 19734" d="M3272.283,1976.381h25.426a.654.654,0,0,0,.661-.8l-2.113-11.979a1,1,0,0,0-.943-.8h-25.427a.654.654,0,0,0-.66.8l2.112,11.979A1,1,0,0,0,3272.283,1976.381Z" transform="translate(-3240.148 -1962.708)" fill="#fff"/>
        <path id="Path_19735" data-name="Path 19735" d="M3361.168,1976.381h25.426a.654.654,0,0,0,.661-.8l-2.113-11.979a1,1,0,0,0-.943-.8h-25.426a.654.654,0,0,0-.66.8l2.112,11.979A1,1,0,0,0,3361.168,1976.381Z" transform="translate(-3358.1 -1962.708)" fill="#fff"/>
      </g>
      <g id="Group_10446" data-name="Group 10446" transform="translate(105.201 128.32)">
        <path id="Path_19736" data-name="Path 19736" d="M2994.771,2025.4H3020.2a.653.653,0,0,0,.66-.8l-2.112-11.98a1,1,0,0,0-.943-.8h-25.427a.654.654,0,0,0-.66.8l2.113,11.98A1,1,0,0,0,2994.771,2025.4Z" transform="translate(-2874.71 -2011.728)" fill="#fff"/>
        <path id="Path_19737" data-name="Path 19737" d="M3084.534,2025.124h25.427a.654.654,0,0,0,.66-.8l-2.112-11.98a1,1,0,0,0-.943-.8h-25.426a.654.654,0,0,0-.66.8l2.113,11.98A1,1,0,0,0,3084.534,2025.124Z" transform="translate(-2993.828 -2011.542)" fill="#fff"/>
        <path id="Path_19738" data-name="Path 19738" d="M3174.755,2025.4h25.427a.654.654,0,0,0,.66-.8l-2.113-11.98a1,1,0,0,0-.943-.8H3172.36a.654.654,0,0,0-.66.8l2.112,11.98A1,1,0,0,0,3174.755,2025.4Z" transform="translate(-3113.553 -2011.728)" fill="#fff"/>
        <path id="Path_19739" data-name="Path 19739" d="M3263.64,2025.4h25.427a.654.654,0,0,0,.66-.8l-2.112-11.98a1,1,0,0,0-.943-.8h-25.427a.655.655,0,0,0-.661.8l2.113,11.98A1,1,0,0,0,3263.64,2025.4Z" transform="translate(-3231.505 -2011.728)" fill="#fff"/>
        <path id="Path_19740" data-name="Path 19740" d="M3352.524,2025.4h25.426a.654.654,0,0,0,.661-.8l-2.113-11.98a1,1,0,0,0-.943-.8H3350.13a.654.654,0,0,0-.66.8l2.112,11.98A1,1,0,0,0,3352.524,2025.4Z" transform="translate(-3349.457 -2011.728)" fill="#fff"/>
      </g>
      <g id="Group_10447" data-name="Group 10447" transform="translate(107.995 144.163)">
        <path id="Path_19741" data-name="Path 19741" d="M2986.228,2073.846h25.426a.654.654,0,0,0,.66-.8l-2.112-11.98a1,1,0,0,0-.943-.8h-25.426a.654.654,0,0,0-.661.8l2.113,11.98A1,1,0,0,0,2986.228,2073.846Z" transform="translate(-2866.168 -2060.172)" fill="#fff"/>
        <path id="Path_19742" data-name="Path 19742" d="M3075.992,2073.569h25.426a.654.654,0,0,0,.66-.8l-2.113-11.98a1,1,0,0,0-.943-.8H3073.6a.654.654,0,0,0-.66.8l2.113,11.98A1,1,0,0,0,3075.992,2073.569Z" transform="translate(-2985.286 -2059.986)" fill="#fff"/>
        <path id="Path_19743" data-name="Path 19743" d="M3166.213,2073.846h25.426a.654.654,0,0,0,.66-.8l-2.112-11.98a1,1,0,0,0-.943-.8h-25.427a.654.654,0,0,0-.66.8l2.113,11.98A1,1,0,0,0,3166.213,2073.846Z" transform="translate(-3105.011 -2060.172)" fill="#fff"/>
        <path id="Path_19744" data-name="Path 19744" d="M3255.1,2073.846h25.426a.654.654,0,0,0,.66-.8l-2.112-11.98a1,1,0,0,0-.943-.8H3252.7a.654.654,0,0,0-.66.8l2.113,11.98A1,1,0,0,0,3255.1,2073.846Z" transform="translate(-3222.962 -2060.172)" fill="#fff"/>
        <path id="Path_19745" data-name="Path 19745" d="M3343.981,2073.846h25.427a.655.655,0,0,0,.661-.8l-2.113-11.98a1,1,0,0,0-.943-.8h-25.426a.654.654,0,0,0-.66.8l2.112,11.98A1,1,0,0,0,3343.981,2073.846Z" transform="translate(-3340.914 -2060.172)" fill="#fff"/>
      </g>
      <g id="Group_10448" data-name="Group 10448" transform="translate(219.321 83.122)">
        <path id="Path_19746" data-name="Path 19746" d="M3033.081,1875.026H3050.2a.693.693,0,0,0,.7-.849h0a1.056,1.056,0,0,0-1-.849h-17.115a.693.693,0,0,0-.7.849h0A1.057,1.057,0,0,0,3033.081,1875.026Z" transform="translate(-3032.07 -1873.328)" fill="#091d7b"/>
        <path id="Path_19747" data-name="Path 19747" d="M3031.328,1884.968h17.115a.693.693,0,0,0,.7-.849h0a1.057,1.057,0,0,0-1-.849h-17.115a.692.692,0,0,0-.7.849h0A1.056,1.056,0,0,0,3031.328,1884.968Z" transform="translate(-3029.743 -1880.019)" fill="#091d7b"/>
        <path id="Path_19748" data-name="Path 19748" d="M3029.548,1895.066h7.709a.692.692,0,0,0,.7-.849h0a1.056,1.056,0,0,0-1-.849h-7.709a.692.692,0,0,0-.7.849h0A1.057,1.057,0,0,0,3029.548,1895.066Z" transform="translate(-3017.974 -1886.815)" fill="#e34899"/>
      </g>
      <g id="Group_10449" data-name="Group 10449" transform="translate(170.715 146.919)">
        <path id="Path_19749" data-name="Path 19749" d="M3181.714,2070.112h17.115a.693.693,0,0,0,.7-.848h0a1.056,1.056,0,0,0-1-.849h-17.115a.693.693,0,0,0-.7.849h0A1.057,1.057,0,0,0,3181.714,2070.112Z" transform="translate(-3180.703 -2068.415)" fill="#091d7b"/>
        <path id="Path_19750" data-name="Path 19750" d="M3179.96,2080.055h17.116a.693.693,0,0,0,.7-.849h0a1.057,1.057,0,0,0-1-.849h-17.115a.693.693,0,0,0-.7.849h0A1.056,1.056,0,0,0,3179.96,2080.055Z" transform="translate(-3178.376 -2075.106)" fill="#091d7b"/>
        <path id="Path_19751" data-name="Path 19751" d="M3178.181,2090.153h7.709a.692.692,0,0,0,.7-.849h0a1.056,1.056,0,0,0-1-.849h-7.709a.693.693,0,0,0-.7.849h0A1.057,1.057,0,0,0,3178.181,2090.153Z" transform="translate(-3166.607 -2081.902)" fill="#e34899"/>
      </g>
      <g id="Group_10450" data-name="Group 10450" transform="translate(109.827 131.301)">
        <path id="Path_19752" data-name="Path 19752" d="M3367.9,2022.354h17.115a.693.693,0,0,0,.7-.849h0a1.057,1.057,0,0,0-1-.849h-17.115a.692.692,0,0,0-.7.849h0A1.056,1.056,0,0,0,3367.9,2022.354Z" transform="translate(-3366.894 -2020.657)" fill="#091d7b"/>
        <path id="Path_19753" data-name="Path 19753" d="M3366.151,2032.3h17.115a.693.693,0,0,0,.7-.849h0a1.057,1.057,0,0,0-1-.849h-17.115a.693.693,0,0,0-.7.849h0A1.055,1.055,0,0,0,3366.151,2032.3Z" transform="translate(-3364.566 -2027.348)" fill="#091d7b"/>
        <path id="Path_19754" data-name="Path 19754" d="M3364.371,2042.4h7.709a.692.692,0,0,0,.7-.849h0a1.055,1.055,0,0,0-1-.849h-7.708a.692.692,0,0,0-.7.849h0A1.056,1.056,0,0,0,3364.371,2042.4Z" transform="translate(-3352.797 -2034.144)" fill="#e34899"/>
      </g>
      <path id="Path_19755" data-name="Path 19755" d="M3295.248,2025.393l-2.818,1.633a.221.221,0,0,1-.306-.2l-.017-3.459a.221.221,0,0,0-.083-.166l-2.945-2.449c-.13-.108-.1-.3.048-.319l3.383-.5a.149.149,0,0,0,.123-.1l1-3.147c.044-.139.242-.139.336,0l2.108,3.147a.235.235,0,0,0,.159.1l3.562.5c.157.022.252.211.16.319l-2.081,2.449a.169.169,0,0,0-.024.166l1.2,3.459a.161.161,0,0,1-.237.2l-3.394-1.633A.187.187,0,0,0,3295.248,2025.393Z" transform="translate(-3145.852 -1886.61)" fill="#ffb600"/>
      <path id="Path_19756" data-name="Path 19756" d="M3031.966,1976.432l-2.818,1.633a.221.221,0,0,1-.307-.2l-.016-3.458a.225.225,0,0,0-.083-.166l-2.945-2.449c-.13-.108-.1-.3.048-.319l3.384-.5a.147.147,0,0,0,.123-.1l1-3.147c.044-.139.243-.139.336,0l2.108,3.147a.233.233,0,0,0,.159.1l3.562.5c.157.022.251.211.16.319l-2.081,2.449a.17.17,0,0,0-.024.166l1.2,3.458a.162.162,0,0,1-.237.2l-3.394-1.633A.186.186,0,0,0,3031.966,1976.432Z" transform="translate(-2796.47 -1853.661)" fill="#ffb600"/>
      <g id="Group_10451" data-name="Group 10451" transform="translate(167.251 98.819)">
        <path id="Path_19757" data-name="Path 19757" d="M3223.308,1926.454l-3.685-3.095a.527.527,0,0,1-.131-.718.5.5,0,0,1,.716,0l3.7,3.1,2.6-3.1a.506.506,0,0,1,.718,0,.523.523,0,0,1,.122.718l-2.594,3.095,3.685,3.095a.526.526,0,0,1,.132.717.421.421,0,0,1-.335.151.6.6,0,0,1-.381-.146l-3.7-3.1-2.6,3.1a.421.421,0,0,1-.33.146.6.6,0,0,1-.388-.151.523.523,0,0,1-.122-.717Z" transform="translate(-3219.012 -1922.11)" fill="#e34899"/>
        <path id="Path_19758" data-name="Path 19758" d="M3220.424,1930.025a.816.816,0,0,0,.629-.286l2.351-2.806,3.4,2.854a.859.859,0,1,0,1.087-1.32l-3.387-2.844,2.344-2.8a.949.949,0,0,0-1.438-1.224l-2.35,2.806-3.4-2.854a.859.859,0,1,0-1.087,1.32l3.386,2.844-2.344,2.8a.914.914,0,0,0,.167,1.264A.987.987,0,0,0,3220.424,1930.025Zm2.884-4.192-2.852,3.4-.031.007a.214.214,0,0,1-.133-.056.18.18,0,0,1-.078-.171l2.844-3.394-3.984-3.345c-.083-.071-.092-.157-.079-.174a.216.216,0,0,1,.162.049l4,3.356,2.853-3.4a.191.191,0,0,1,.164.05c.081.07.09.156.077.172l-2.844,3.393,3.983,3.346a.182.182,0,0,1,.079.173.189.189,0,0,1-.163-.048Z" transform="translate(-3218.212 -1921.328)" fill="#e34899"/>
      </g>
      <g id="Group_10452" data-name="Group 10452" transform="translate(197.212 111.753)">
        <ellipse id="Ellipse_368" data-name="Ellipse 368" cx="5.664" cy="4.749" rx="5.664" ry="4.749" transform="translate(0 7.65) rotate(-42.48)" fill="#e34899"/>
        <path id="Path_19759" data-name="Path 19759" d="M3126.233,1980.731a.47.47,0,0,1-.382-.18l-2.064-2.735a.6.6,0,0,1,.169-.8.557.557,0,0,1,.795.029l1.682,2.229,3.375-3.776a.6.6,0,0,1,.813-.13.546.546,0,0,1-.01.789l-3.877,4.338a.694.694,0,0,1-.465.235Z" transform="translate(-3119.91 -1970.56)" fill="#fff"/>
      </g>
      <g id="Group_10453" data-name="Group 10453" transform="translate(232.17 143.626)">
        <ellipse id="Ellipse_369" data-name="Ellipse 369" cx="5.664" cy="4.749" rx="5.664" ry="4.749" transform="matrix(-0.738, -0.675, 0.675, -0.738, 8.354, 14.655)" fill="#57abec"/>
        <path id="Path_19760" data-name="Path 19760" d="M3019.332,2078.2a.468.468,0,0,1-.382-.18l-2.064-2.734a.594.594,0,0,1,.169-.8.556.556,0,0,1,.795.028l1.682,2.229,3.375-3.776a.6.6,0,0,1,.813-.13.547.547,0,0,1-.009.79l-3.876,4.338a.7.7,0,0,1-.465.235Z" transform="translate(-3013.01 -2068.024)" fill="#fff"/>
      </g>
      <path id="Path_19761" data-name="Path 19761" d="M3143.094,1880.7a3.773,3.773,0,0,0,3.8-4.619,5.756,5.756,0,0,0-5.433-4.618,3.773,3.773,0,0,0-3.8,4.618A5.757,5.757,0,0,0,3143.094,1880.7Zm-1.379-7.823a3.993,3.993,0,0,1,3.769,3.2,2.617,2.617,0,0,1-2.639,3.2,3.994,3.994,0,0,1-3.769-3.2A2.617,2.617,0,0,1,3141.715,1872.88Z" transform="translate(-2943.317 -1788.953)" fill="#28b5c8"/>
      <path id="Path_19762" data-name="Path 19762" d="M3304.962,1978.738a3.773,3.773,0,0,0,3.8-4.619,5.756,5.756,0,0,0-5.433-4.619,3.773,3.773,0,0,0-3.8,4.619A5.756,5.756,0,0,0,3304.962,1978.738Zm-1.38-7.823a3.992,3.992,0,0,1,3.769,3.2,2.617,2.617,0,0,1-2.639,3.2,3.993,3.993,0,0,1-3.769-3.2A2.617,2.617,0,0,1,3303.582,1970.915Z" transform="translate(-3158.119 -1854.929)" fill="#28b5c8"/>
      <path id="Path_19763" data-name="Path 19763" d="M3246.97,1885.865h24.416a2,2,0,0,0,2.021-2.454h0a3.054,3.054,0,0,0-2.886-2.454H3246.1a2,2,0,0,0-2.021,2.454h0A3.054,3.054,0,0,0,3246.97,1885.865Z" transform="translate(-3104.606 -1795.341)" fill="#e34899"/>
      <path id="Path_19764" data-name="Path 19764" d="M3043.63,1772.967h.036a.947.947,0,0,0,.956-1.161l-4.33-24.553a1.444,1.444,0,0,0-1.365-1.161h-.036a.947.947,0,0,0-.956,1.161l4.329,24.553A1.446,1.446,0,0,0,3043.63,1772.967Z" transform="translate(-2808.393 -1704.579)" fill="#091d7b"/>
      <path id="Path_19765" data-name="Path 19765" d="M3465.318,1772.967h.036a.947.947,0,0,0,.956-1.161l-4.33-24.553a1.444,1.444,0,0,0-1.365-1.161h-.036a.947.947,0,0,0-.956,1.161l4.329,24.553A1.446,1.446,0,0,0,3465.318,1772.967Z" transform="translate(-3367.981 -1704.579)" fill="#091d7b"/>
      <g id="Group_10454" data-name="Group 10454" transform="translate(166.957 0)">
        <path id="Path_19766" data-name="Path 19766" d="M3115.4,1697.573c.447,2.843,10.222,8.745,12.29,9.961.249.148.384.227.384.227l.517-.317.916-.566,1.893-1.16-9.611-8.3a.573.573,0,0,1-.074-.753l4.424-7.216a.565.565,0,0,1,1.051.147l1.871,8.755.939.379,7.272,2.946,8.212-3.325,1.874-8.755a.566.566,0,0,1,1.053-.147l4.425,7.216a.574.574,0,0,1-.074.753l-9.611,8.3,3.324,2.044s12.183-7,12.676-10.188-7.93-17.133-12.817-19.188a34.5,34.5,0,0,0-4.879-1.659,16.771,16.771,0,0,0-2.977-.532l-.342,1-.865,2.536-.747-2.2-.455-1.342a25.87,25.87,0,0,0-7.86,2.191c-1.6.674-3.585,2.634-5.512,5.073a54.186,54.186,0,0,0-5.01,7.659C3116.169,1693.954,3115.224,1696.441,3115.4,1697.573Z" transform="translate(-3115.211 -1657.539)" fill="#e34899"/>
        <path id="Path_19767" data-name="Path 19767" d="M3169.894,1676.193l-.342,1a29.092,29.092,0,0,1,3.319-.468v0A16.768,16.768,0,0,0,3169.894,1676.193Z" transform="translate(-3146.628 -1657.539)" fill="#d0ebf5"/>
        <path id="Path_19768" data-name="Path 19768" d="M3184.628,1683.457a41.863,41.863,0,0,1,13.827-5.922l-.455-1.342a25.87,25.87,0,0,0-7.86,2.191C3188.539,1679.059,3186.555,1681.019,3184.628,1683.457Z" transform="translate(-3177.142 -1657.539)" opacity="0.15" fill="url(#linear-gradient-2)"/>
        <path id="Path_19769" data-name="Path 19769" d="M3204.6,1728.283c.447,2.843,10.223,8.744,12.29,9.962l.9-.09,1.411-.147-.493-.419-2.4-2.05s-10.347-6.054-9.419-13.712C3205.372,1724.663,3204.426,1727.15,3204.6,1728.283Z" transform="translate(-3204.414 -1688.248)" opacity="0.15" fill="url(#linear-gradient-3)"/>
        <path id="Path_19770" data-name="Path 19770" d="M3151.5,1726.32l7.272,2.945,8.212-3.324,1.875-8.756a22.683,22.683,0,0,1-15.507,8.824A14.062,14.062,0,0,0,3151.5,1726.32Z" transform="translate(-3136.712 -1685.125)" opacity="0.15" fill="url(#linear-gradient-4)"/>
        <path id="Path_19771" data-name="Path 19771" d="M3173.459,1660.83v5.873a2.9,2.9,0,0,0,2.9,2.905h.005a2.9,2.9,0,0,0,2.9-2.905v-5.873Z" transform="translate(-3154.3 -1647.2)" fill="#fdd1b1"/>
        <path id="Path_19772" data-name="Path 19772" d="M3179.264,1661.244l-.17-.413h-5.635v5.817a9.9,9.9,0,0,0,5.8-2.906Z" transform="translate(-3154.3 -1647.2)" opacity="0.21" fill="url(#linear-gradient-5)"/>
        <path id="Path_19773" data-name="Path 19773" d="M3164.945,1625.343a7.255,7.255,0,0,0,1.6,4.248,4.5,4.5,0,0,0,4.035,1.947c1.93,0,2.734.025,3.87-1.358a9.345,9.345,0,0,0,1.817-4.837c0-3.421-2.266-6.194-5.687-6.194S3164.945,1621.922,3164.945,1625.343Z" transform="translate(-3148.516 -1619.149)" fill="#202952"/>
        <path id="Path_19774" data-name="Path 19774" d="M3168.118,1638.093v5.88a4.652,4.652,0,0,0,9.3,0v-5.88Z" transform="translate(-3150.705 -1631.898)" fill="#fdd1b1"/>
        <path id="Path_19775" data-name="Path 19775" d="M3148.555,1735.237V1747.2a1.132,1.132,0,0,0,1.132,1.133h19.829a1.132,1.132,0,0,0,1.133-1.133v-11.962a1.133,1.133,0,0,0-1.133-1.133h-19.829A1.133,1.133,0,0,0,3148.555,1735.237Z" transform="translate(-3137.539 -1696.511)" fill="#57abec"/>
        <path id="Path_19776" data-name="Path 19776" d="M3156.695,1741.728v5.471a1.132,1.132,0,0,0,1.132,1.133h12.313l5.987-14.227h-15.648Z" transform="translate(-3145.679 -1696.511)" opacity="0.3" fill="url(#linear-gradient-6)"/>
        <rect id="Rectangle_4990" data-name="Rectangle 4990" width="20.806" height="0.768" transform="translate(11.514 51.762)" fill="#8ed2e8"/>
        <path id="Path_19777" data-name="Path 19777" d="M3174.435,1750.54a2.584,2.584,0,1,0,2.584-2.584A2.584,2.584,0,0,0,3174.435,1750.54Z" transform="translate(-3154.956 -1705.833)" fill="#dcf4fe"/>
        <path id="Path_19778" data-name="Path 19778" d="M3193.81,1806.344c0,1.968.708,9.544,2.335,9.828.7.12,1.307-5.51,2.125-8.426a3.652,3.652,0,0,1,.19-.527c.91-2.035,3.322-2.478,4.055-2.567.135-.017.214-.021.214-.021l-.187-.072-4.637-1.794a13.41,13.41,0,0,0-2.276,1.2C3194.687,1804.6,3193.81,1805.433,3193.81,1806.344Z" transform="translate(-3184.42 -1742.719)" fill="#2e2e2e"/>
        <path id="Path_19779" data-name="Path 19779" d="M3195.32,1808.465c.234-1.611,1.229-1.885,1.977-1.246.909-2.035,3.322-2.478,4.055-2.567l.027-.092-4.637-1.794a13.418,13.418,0,0,0-2.277,1.2C3194.1,1806.836,3195.045,1810.369,3195.32,1808.465Z" transform="translate(-3183.256 -1742.719)" fill="#fdd1b1"/>
        <path id="Path_19780" data-name="Path 19780" d="M3115.74,1767.482l2.464,4.3,22.479-11.361h.011l.005-.006,3.082-1.557a3.546,3.546,0,0,0,.64-.317,4.071,4.071,0,0,0-4.282-6.926,4.021,4.021,0,0,0-.572.436l-19.437,12.59Z" transform="translate(-3102.51 -1707.886)" fill="#2e2e2e"/>
        <path id="Path_19781" data-name="Path 19781" d="M3145.1,1804.631a6.4,6.4,0,0,1,1.29.243,4.336,4.336,0,0,1,3.169,2.87h0c.82,2.915,1.428,8.546,2.125,8.426,1.629-.283,2.335-7.859,2.335-9.828,0-1.073-1.215-2.039-2.32-2.694a13.676,13.676,0,0,0-1.775-.884l-3.9,1.509Z" transform="translate(-3119.779 -1742.719)" fill="#2e2e2e"/>
        <path id="Path_19782" data-name="Path 19782" d="M3151.089,1804.274l.367.6a4.334,4.334,0,0,1,3.169,2.87,1.746,1.746,0,0,1,1.807.592c1.392,1.433.245-2.171.333-4.686a13.682,13.682,0,0,0-1.774-.884Z" transform="translate(-3124.845 -1742.719)" fill="#fdd1b1"/>
        <path id="Path_19783" data-name="Path 19783" d="M3158.115,1758.539a4.071,4.071,0,1,1,4.856-6.491l23.829,15.434-2.464,4.3-25.578-12.921A4.112,4.112,0,0,1,3158.115,1758.539Z" transform="translate(-3156.185 -1707.886)" fill="#2e2e2e"/>
        <line id="Line_1" data-name="Line 1" y2="0.43" transform="translate(10.846 51.274)" fill="#091d7b"/>
        <path id="Path_19784" data-name="Path 19784" d="M3216.635,1737.316v-15.773" transform="translate(-3205.79 -1688.058)" fill="none"/>
        <path id="Path_19785" data-name="Path 19785" d="M3168.118,1638.093v1.072a1.7,1.7,0,0,1,1.746.026,5.262,5.262,0,0,0,5.048-.086c1.188-.642,1.86-.784,2.5-.244v-.769Z" transform="translate(-3150.705 -1631.898)" fill="#e8af95"/>
        <path id="Path_19786" data-name="Path 19786" d="M3175.647,1634.6s.2-1.5-1.18-1.248-3.717,1.7-5.734.85-2.383,0-2.383,0-1.3.212-.773-1.026a3.152,3.152,0,0,1,3.3-2.089c1.558.248,4.92,1.2,5.7,1.2a6.113,6.113,0,0,1,1.947.535Z" transform="translate(-3148.936 -1627.161)" fill="#202952"/>
        <rect id="Rectangle_4991" data-name="Rectangle 4991" width="1.546" height="4.523" rx="0.773" transform="translate(26.711 7.442)" fill="#333147"/>
        <rect id="Rectangle_4992" data-name="Rectangle 4992" width="1.546" height="4.523" rx="0.773" transform="translate(15.868 7.442)" fill="#333147"/>
        <path id="Path_19787" data-name="Path 19787" d="M3187.125,1656.573h2.354v-.142h-2.354a2.2,2.2,0,0,1-2.194-2.195v-.324h-.141v.324A2.339,2.339,0,0,0,3187.125,1656.573Z" transform="translate(-3168.219 -1642.544)" fill="#333147"/>
        <rect id="Rectangle_4993" data-name="Rectangle 4993" width="0.991" height="0.802" rx="0.401" transform="translate(20.765 13.557)" fill="#333147"/>
      </g>
      <path id="Path_19788" data-name="Path 19788" d="M2802.145,2086.756a4.4,4.4,0,0,0,.117.929h105.563a6,6,0,0,0-3.726-2.8c-2-.569-5.388-1.582-5.091-2.978,1.11-5.178,3.661-8.907-2.917-15.039-2.065-1.924-8.245-3.675-14.156-.572-4.721,2.477-7.816-6.737-17.656-11.725-.289-.146-.586-.289-.89-.429-5.654-2.606-12.763-2.336-17.427,2.436a16.931,16.931,0,0,0-4.207,8.145c-2.86,12.231-9.589,4.1-10.724,2.717-3.289-4-13.066-1.858-14.591,3.752-2.871,10.57-5.891,8.911-8.431,9.546S2802.079,2083.6,2802.145,2086.756Z" transform="translate(-2594.475 -1910.784)" fill="#8d9294" opacity="0.12"/>
      <ellipse id="Ellipse_370" data-name="Ellipse 370" cx="51.248" cy="4.01" rx="51.248" ry="4.01" transform="translate(210.18 172.752)" fill="#9faad4" opacity="0.22"/>
      <ellipse id="Ellipse_371" data-name="Ellipse 371" cx="91.156" cy="4.01" rx="91.156" ry="4.01" transform="translate(92.47 170.162)" fill="#9faad4" opacity="0.22"/>
      <path id="Path_19789" data-name="Path 19789" d="M2802.63,2089.216a4.39,4.39,0,0,0,.117.929H2904.21a1.426,1.426,0,0,0,.425-2.788l-.051-.014c-2-.569-5.388-1.582-5.091-2.977,1.11-5.179,3.66-8.908-2.917-15.04-2.064-1.924-8.245-3.675-14.156-.572-4.721,2.476-7.816-6.738-17.656-11.725-.289-.146-.586-.289-.889-.429-5.654-2.605-12.763-2.336-17.428,2.436a16.941,16.941,0,0,0-4.206,8.145c-2.86,12.231-9.589,4.1-10.724,2.717-3.289-4-13.066-1.858-14.591,3.752-2.871,10.57-5.891,8.911-8.43,9.546S2802.564,2086.056,2802.63,2089.216Z" transform="translate(-2592.45 -1912.439)" fill="#f7f9ff"/>
      <g id="Group_10465" data-name="Group 10465" transform="translate(239.262 68.522)">
        <g id="Group_10455" data-name="Group 10455" transform="translate(29.964 112.058)">
          <path id="Path_19790" data-name="Path 19790" d="M2909.388,2182.066c-.533.2-7.371.086-10.219.027a.65.65,0,0,1-.431-1.123,6.59,6.59,0,0,1,4.1-1.664,2.3,2.3,0,0,0,1.838-.892,11.441,11.441,0,0,0,1.406-4.82c-.02-.3.621-.723.594-1.054-.238-2.918,4.14.442,4.14.442a3.658,3.658,0,0,0-.325,1.341c.028.858-1.223,3.028-.979,4.025.035.146.074.286.116.419C2910.17,2180.436,2910.061,2181.807,2909.388,2182.066Z" transform="translate(-2898.215 -2171.349)" fill="#76503f"/>
          <path id="Path_19791" data-name="Path 19791" d="M2912.291,2195.591c-.576.22-8.548.063-10.84.014-.295-.006-.41-.313-.279-.577a5.31,5.31,0,0,1,4.5-2.627,3.07,3.07,0,0,0,2.15-.955c.961.057,1.727.483,1.708,1.36-.011.516,1.62.662,2.89-.933.036.146.074.287.116.419C2913.073,2193.962,2912.964,2195.333,2912.291,2195.591Z" transform="translate(-2901.119 -2184.874)" fill="#202952"/>
        </g>
        <g id="Group_10456" data-name="Group 10456" transform="translate(59.992 110.934)">
          <path id="Path_19792" data-name="Path 19792" d="M2827.836,2177.576a1.294,1.294,0,0,1-.828,2.29H2822c-.9,0-2.126-.713-1.892-3,.015-.14.028-.286.037-.436.084-1.114.084-2.418.059-3.5-.032-1.282-.1-2.258-.1-2.258l3.818-2.3.759-.458s-.024.157-.059.43a28.882,28.882,0,0,0-.24,4.585,5.869,5.869,0,0,0,.682,2.91,1.219,1.219,0,0,0,.513.433A9.037,9.037,0,0,1,2827.836,2177.576Z" transform="translate(-2820.077 -2167.91)" fill="#76503f"/>
          <path id="Path_19793" data-name="Path 19793" d="M2826.527,2194.565a.5.5,0,0,1-.455.7h-6.659c-.9,0-2.126-.713-1.891-3,.015-.14.028-.287.037-.436.681.436,1.072.692,1.649.132a3.387,3.387,0,0,1,2.832-1.142c.408.058.5.523.665.666a1.072,1.072,0,0,0,.29.183C2825.35,2192.652,2826.212,2193.833,2826.527,2194.565Z" transform="translate(-2817.493 -2183.305)" fill="#202952"/>
        </g>
        <path id="Path_19794" data-name="Path 19794" d="M2851.432,2030.557v.043q-.56,7.964-1.435,17.329h-5.241l-3.725-47.354-13.513,47.354h-6.22s7.384-46.239,11.577-60.57,19.7-.923,19.7-.923.026.426.06,1.276C2852.8,1991.9,2853.137,2006.338,2851.432,2030.557Z" transform="translate(-2784.951 -1931.017)" fill="#091d7b"/>
        <path id="Path_19795" data-name="Path 19795" d="M2824.854,2044.9c1.139-28.566-3.557-41.269-3.557-41.269l4.76-1.576C2826.22,2006.236,2826.559,2020.678,2824.854,2044.9Z" transform="translate(-2758.373 -1945.357)" opacity="0.15" fill="url(#linear-gradient-7)"/>
        <path id="Path_19796" data-name="Path 19796" d="M2942.6,1936.765l.047.405.214,1.95s-.342-.1-.826-.186a6.754,6.754,0,0,0-1.835-.115c-.067.007-.136.019-.2.029a9.668,9.668,0,0,1-5.271-.474c-.852-.414-.5-.735-.5-.735-1.907-.418-1.721-1.174-1.31-1.186.381-.013,1.324.073,1.438.082-.813-.13-1.575-.5-1.561-.8.013-.278.4-.343,1.155-.2a21.854,21.854,0,0,0,4.24.2c.99-.107.567-.38.115-.972s-1.159-1.472-.754-1.727,1.876,1.47,2.432,1.851c.213.149.653.462,1.111.792C2941.826,1936.206,2942.6,1936.765,2942.6,1936.765Z" transform="translate(-2911.456 -1898.898)" fill="#76503f"/>
        <path id="Path_19797" data-name="Path 19797" d="M2894.616,1914.413c.855,2.388,1.542,4.789,1.542,4.789s-2.7,7.073-4.758,8.71a1.918,1.918,0,0,1-.3.207c-1.528.822-14.564-4.117-14.564-4.117l.951-4.136,10.225,2.271a.424.424,0,0,0,.509-.323c.464-2.03,2.9-11.554,4.007-12.694C2892.878,1908.442,2893.66,1911.756,2894.616,1914.413Z" transform="translate(-2846.396 -1882.756)" fill="#728efc"/>
        <path id="Path_19798" data-name="Path 19798" d="M2879.748,1925.334c.855,2.388,1.542,4.79,1.542,4.79s-2.7,7.073-4.759,8.71c2.564-4.847,2.947-13.574,2.947-13.574S2879.575,1925.285,2879.748,1925.334Z" transform="translate(-2831.528 -1893.677)" opacity="0.15" fill="url(#linear-gradient-8)"/>
        <path id="Path_19799" data-name="Path 19799" d="M2831.857,1906.2a31.976,31.976,0,0,1-1.336,4.24,56.6,56.6,0,0,0-3.437,17.182,28.37,28.37,0,0,1-4.476.911,46.675,46.675,0,0,1-15.267-.928c0-11.414-3.784-29.408-1.456-30.925s6.933-4.249,10.949-4.6l4.3-.129c9.21,1.968,10.954,5.056,10.954,5.056S2833.219,1900.4,2831.857,1906.2Z" transform="translate(-2759.418 -1871.259)" fill="#728efc"/>
        <path id="Path_19800" data-name="Path 19800" d="M2840.248,1837.5c-.535,4.123-5.774,7.211-5.774,7.211a30.386,30.386,0,0,0-1.9-5.715c-.985-2.124-2.356-4.106-4.123-4.483-4.049-.868-3.045-4.52-1.567-5.166a14.526,14.526,0,0,1,9.285.237c2.565,1.045,2.432,4.041,2.432,4.041S2840.783,1833.376,2840.248,1837.5Z" transform="translate(-2773.91 -1828.684)" fill="#002b3b"/>
        <path id="Path_19801" data-name="Path 19801" d="M2846.951,1875.5s-2.315,2.01-4.322,1.963a3.026,3.026,0,0,1-2.667-1.22l.116-2.637.1-2.432,6.241-3.656.018-.013v.043c0,.155,0,.7,0,1.353,0,.864.017,1.9.047,2.4C2846.56,1872.351,2846.951,1875.5,2846.951,1875.5Z" transform="translate(-2785.229 -1854.807)" fill="#895d4a"/>
        <path id="Path_19802" data-name="Path 19802" d="M2848.269,1899.048s.761,1.136,1.276,1.223,1.606-1.223,1.606-1.223l-1.606-1.092Z" transform="translate(-2792.148 -1875.302)" fill="#e34862"/>
        <path id="Path_19803" data-name="Path 19803" d="M2854.442,1925.507l-2.685,4.626-1.855-4.8a119.121,119.121,0,0,1,2.955-23.824l.662.09,1.164.159S2853.794,1917.422,2854.442,1925.507Z" transform="translate(-2796.213 -1877.692)" fill="#e34862"/>
        <path id="Path_19804" data-name="Path 19804" d="M2835.219,1891.664l1.563,2.053,4.311-3.66-1.55-1.45Z" transform="translate(-2777.822 -1869.011)" fill="#fff"/>
        <path id="Path_19805" data-name="Path 19805" d="M2854.225,1890.743l2.664,2.359-1.332,2.053-2.375-3.015Z" transform="translate(-2799.491 -1870.449)" fill="#fff"/>
        <path id="Path_19806" data-name="Path 19806" d="M2816.7,1931.726a31.974,31.974,0,0,1-1.336,4.24,56.607,56.607,0,0,0-3.436,17.183,28.39,28.39,0,0,1-4.477.911,2.354,2.354,0,0,1-.219-.67c-.653-3.849,5.842-23.506,5.842-23.506S2815.125,1930.888,2816.7,1931.726Z" transform="translate(-2744.263 -1896.789)" opacity="0.15" fill="url(#linear-gradient-9)"/>
        <path id="Path_19807" data-name="Path 19807" d="M2847.563,1868.661c-.022.09-.039.176-.064.262-.924,3.578-4.266,4.575-6.366,4.7l.1-2.431,6.241-3.656a.111.111,0,0,1,.018.03A1.6,1.6,0,0,1,2847.563,1868.661Z" transform="translate(-2786.285 -1854.833)" opacity="0.15" fill="url(#linear-gradient-10)"/>
        <path id="Path_19808" data-name="Path 19808" d="M2845.852,1851.981c-.122,1.03-1.881,2.055-1.881,2.055-1.358,2.018-4.446,4.823-6.959,2.764-2.088-1.715-1.1-8.265-.709-10.43.077-.441.134-.7.134-.7a13.159,13.159,0,0,0,3.761.62c1.906,0,3.336.523,3.247,2.639,0,0,0,.012,0,.016a.914.914,0,0,1,0,.146c-.162,2.253-.219,2.476.085,2.5s.645-.478.758-.62C2844.79,1850.348,2845.978,1850.948,2845.852,1851.981Z" transform="translate(-2782.754 -1840.115)" fill="#76503f"/>
        <path id="Path_19809" data-name="Path 19809" d="M2850.245,1848.929a2.526,2.526,0,0,0-2.208-2.158,28.923,28.923,0,0,1-4.934-.4c.077-.441.134-.7.134-.7a13.164,13.164,0,0,0,3.762.62C2848.9,1846.291,2850.334,1846.814,2850.245,1848.929Z" transform="translate(-2789.555 -1840.115)" opacity="0.15" fill="url(#linear-gradient-11)"/>
        <g id="Group_10464" data-name="Group 10464" transform="translate(0 25.836)">
          <g id="Group_10457" data-name="Group 10457" transform="translate(9.066 0.609)">
            <rect id="Rectangle_4994" data-name="Rectangle 4994" width="72.751" height="7.32" transform="matrix(-0.933, -0.361, 0.361, -0.933, 67.842, 33.096)" fill="#fad382"/>
          </g>
          <g id="Group_10458" data-name="Group 10458" transform="translate(9.066 2.316)">
            <rect id="Rectangle_4995" data-name="Rectangle 4995" width="72.751" height="5.49" transform="matrix(-0.933, -0.361, 0.361, -0.933, 67.842, 31.39)" fill="#ffb600"/>
          </g>
          <g id="Group_10459" data-name="Group 10459" transform="translate(9.066 5.729)">
            <rect id="Rectangle_4996" data-name="Rectangle 4996" width="72.751" height="1.83" transform="matrix(-0.933, -0.361, 0.361, -0.933, 67.842, 27.977)" fill="#fad382"/>
          </g>
          <g id="Group_10460" data-name="Group 10460" transform="translate(73.402 25.522)">
            <rect id="Rectangle_4997" data-name="Rectangle 4997" width="3.759" height="7.32" transform="matrix(-0.933, -0.361, 0.361, -0.933, 3.505, 8.184)" fill="#202952"/>
          </g>
          <g id="Group_10461" data-name="Group 10461" transform="translate(76.907 26.879)">
            <path id="Path_19810" data-name="Path 19810" d="M2782.5,1995.354l.662-1.709a2.744,2.744,0,0,0-1.568-3.549l-.546-.212-2.643,6.827.546.211A2.744,2.744,0,0,0,2782.5,1995.354Z" transform="translate(-2778.408 -1989.884)" fill="#e34899"/>
          </g>
          <g id="Group_10462" data-name="Group 10462">
            <path id="Path_19811" data-name="Path 19811" d="M3001.96,1915.125l2.643-6.827-11.709-.609Z" transform="translate(-2992.894 -1907.689)" fill="#fad382"/>
          </g>
          <g id="Group_10463" data-name="Group 10463" transform="translate(0)">
            <path id="Path_19812" data-name="Path 19812" d="M3015.329,1911.407l1.322-3.413-5.855-.3Z" transform="translate(-3010.796 -1907.689)" fill="#202952"/>
          </g>
        </g>
        <path id="Path_19813" data-name="Path 19813" d="M2857.685,1967.844l.138.346.656,1.67s-.325-.006-.773.034a6.184,6.184,0,0,0-1.648.338c-.057.022-.115.05-.171.074a8.835,8.835,0,0,1-4.766.843c-.851-.161-.614-.53-.614-.53-1.322-.228-1.672-.906-1.312-1.016a5.135,5.135,0,0,1,1.161.011c-.749.079-1.51-.065-1.569-.333-.055-.249.267-.4.973-.449a26.382,26.382,0,0,0,3.792-.837c.857-.27.352-.314-.179-.71-.547-.407-1.468-.621-1.172-.944s2.148.273,2.73.477c.224.08.688.251,1.17.433C2856.866,1967.536,2857.685,1967.844,2857.685,1967.844Z" transform="translate(-2799.642 -1921.261)" fill="#76503f"/>
        <path id="Path_19814" data-name="Path 19814" d="M2814.667,1905.153c2.087,1.247,2.813,6.756,2.344,14.608-.147,2.478-.757,7.534-2.313,9.652a1.894,1.894,0,0,1-.238.279c-1.26,1.194-15.134-.161-15.134-.161l-.165-4.24,10.463-.485a.423.423,0,0,0,.407-.445c-.083-2.081-.24-10.921-.123-12.5C2810.258,1907.192,2811.817,1903.45,2814.667,1905.153Z" transform="translate(-2742.085 -1879.864)" fill="#728efc"/>
      </g>
      <ellipse id="Ellipse_372" data-name="Ellipse 372" cx="21.055" cy="2.778" rx="21.055" ry="2.778" transform="translate(89.291 181.967)" fill="#9faad4" opacity="0.22"/>
      <g id="Group_10466" data-name="Group 10466" transform="translate(88.265 63.176)">
        <path id="Path_19815" data-name="Path 19815" d="M3440.067,1834.891c-.245-2.175,2.259-5.216.29-8.5s.252-8.223-1.435-11.242c-1.3-2.334-4.211-3.751-6.808-2.1s-6.381-.888-7.928,3.306c-1.916,5.195-5.28,4.19-4.926,9.5s-3.8,7.2-1.3,10.626,8.633,3.423,12.708,2.007S3440.672,1840.261,3440.067,1834.891Z" transform="translate(-3417.154 -1812.335)" fill="#ffb600"/>
        <path id="Path_19816" data-name="Path 19816" d="M3338.937,1897.914a12.751,12.751,0,0,1,1.712-1.456,17.124,17.124,0,0,1,1.75-.827c1.063-.472,1.424-.039.716.394s-1.227,1.063-.912,1.023a14.219,14.219,0,0,0,2.794-.511c.729-.328,1.771-.63,2.066-.394.6.478-.492,1.3-.925,1.889s-2.518,1.11-3.66,1.283a6.436,6.436,0,0,0-2.117.771Z" transform="translate(-3297.695 -1868.254)" fill="#fdd1b1"/>
        <path id="Path_19817" data-name="Path 19817" d="M3359.084,1871.365a10.225,10.225,0,0,1,5.743,5.87c1.889,4.644,5.117,9.284,5.511,9.13s10.309-5.363,10.309-5.363l1.595,2.691s-10.464,7.331-13.085,7.709c-3.82.55-8.185-9.287-8.185-9.287Z" transform="translate(-3339.287 -1852.061)" fill="#e974fe"/>
        <path id="Path_19818" data-name="Path 19818" d="M3370.621,2149.75v11.086h1.86v-3.023s1.425,2.888,2.316,3.023c.572.087,2.819.063,4.671.034a.464.464,0,0,0,.223-.867c-1.691-.962-4.148-1.927-4.692-4.757a55.684,55.684,0,0,1-.684-5.651Z" transform="translate(-3340.746 -2039.304)" fill="#37193b"/>
        <path id="Path_19819" data-name="Path 19819" d="M3451.78,2148.44l-1.074,10.886a.465.465,0,0,0,.463.51h5.248a.465.465,0,0,0,.461-.527c-.081-.64-1.2-1.823-1.5-3.039-.668-2.675-.262-8.218-.262-8.218Z" transform="translate(-3443.89 -2038.266)" fill="#37193b"/>
        <path id="Path_19820" data-name="Path 19820" d="M3388.339,1945.774s-3.659,5.6-2.487,20.966,1.128,16.151,1.128,16.151l.956,30.218s2.735.651,4.3,0l5.339-48.339s6.643,15.907,8.076,19.423,0,12.822,4.819,29.205a10.016,10.016,0,0,0,4.689,0s.261-28.87-1.042-33.661-9.058-29.709-10.391-32.554S3388.339,1945.774,3388.339,1945.774Z" transform="translate(-3380.904 -1901.892)" fill="#202952"/>
        <path id="Path_19821" data-name="Path 19821" d="M3416.831,1894.59a8.791,8.791,0,0,0,1.894,1.61,15.643,15.643,0,0,0,8.3,1.949,8.947,8.947,0,0,0,5.708-2.17s-1.057-8.422-1.144-10.68,2.52-5.194,2.256-6.947c-.737-4.906-4.254-9.29-4.254-9.29a18.541,18.541,0,0,0-12.765,0s.154,2.308.417,5.21a78.957,78.957,0,0,0,1.407,10.332C3419.7,1888.424,3416.831,1894.59,3416.831,1894.59Z" transform="translate(-3409.798 -1849.757)" fill="#e974fe"/>
        <path id="Path_19822" data-name="Path 19822" d="M3444.688,1907.616a8.778,8.778,0,0,0,1.894,1.609l2.1.443s6.512-10.482,2.78-12.387-5.51-6.158-6.252-9.985h-.1a78.967,78.967,0,0,0,1.406,10.332C3447.553,1901.45,3444.688,1907.616,3444.688,1907.616Z" transform="translate(-3437.655 -1862.783)" opacity="0.15" fill="url(#linear-gradient-12)"/>
        <path id="Path_19823" data-name="Path 19823" d="M3402.4,1929.321h9.9l7.4-12.82h-9.9Z" transform="translate(-3390.914 -1882.436)" fill="#091d7b"/>
        <path id="Path_19824" data-name="Path 19824" d="M3411.67,1934.467s1.859-.445,2.768-.651c.716-.163,1.693-.391,1.628,0s-1.252.6-1.228.814,1.847,0,3.214-.684.325,2.475-2.214,2.67a15.393,15.393,0,0,1-4.82-.456Z" transform="translate(-3392.687 -1893.944)" fill="#fdd1b1"/>
        <path id="Path_19825" data-name="Path 19825" d="M3436.014,1871.331c4.516.955-1.129,17.019,0,18.061s12.464,2.865,12.464,2.865l-.394,2.605s-13.981-.007-16.585-3.213C3429.242,1888.871,3433.047,1870.7,3436.014,1871.331Z" transform="translate(-3428.981 -1852.027)" fill="#e974fe"/>
        <path id="Path_19826" data-name="Path 19826" d="M3437.025,1851.961c1.139,2.671,5.733,3.329,6.009,1.055a31.7,31.7,0,0,0,.1-4.1c-.037-1.393-.11-2.507-.11-2.507s-4.741-4.522-4.841-2.436S3437.025,1851.961,3437.025,1851.961Z" transform="translate(-3425.686 -1833.256)" fill="#fdd1b1"/>
        <path id="Path_19827" data-name="Path 19827" d="M3437.089,1848.665c.586,2.99,3.692,4.463,4.951,4.944-.037-1.394-.11-2.507-.11-2.507S3437.189,1846.58,3437.089,1848.665Z" transform="translate(-3424.596 -1836.414)" opacity="0.15" fill="url(#linear-gradient-13)"/>
        <path id="Path_19828" data-name="Path 19828" d="M3435.774,1827.627a.718.718,0,0,1,1.027.578c.251,2.635.7,9.378-1.178,9.927-4.007,1.168-5.655-2.7-6.2-3.272s-2.568-.491-2.8-1.769.845-1.427,1.4-1.2,1.573.488.926-1.454,2.734-1.286,4.381-1.81A19.328,19.328,0,0,0,3435.774,1827.627Z" transform="translate(-3416.156 -1822.578)" fill="#fdd1b1"/>
      </g>
    </g>
    <g id="Group_10827" data-name="Group 10827" transform="translate(147.047 0)">
      <g id="Group_10825" data-name="Group 10825" transform="translate(70.011 29.325)">
        <path id="Path_20127" data-name="Path 20127" d="M2997.2,1628.6h-23.075s-4.39-.036-5.249-2.842c-.538-1.758.786-3.782,3.608-4.306,3.185-.591,3.615-.625,4.269-3.407s1.906-3.715,3.62-3.952c1.9-.263,3.609.924,5.244,2.968.787.984,3.415-.912,4.587-1.99a4.084,4.084,0,0,1,6.273,1.508c1.532,3.283-.831,4.736,1.991,6.066,1.992.939,2.815,2.094,2.774,3.4S2999.085,1628.6,2997.2,1628.6Z" transform="translate(-2968.761 -1614.053)" fill="#a9e1f2"/>
        <path id="Path_20128" data-name="Path 20128" d="M3010.527,1643.492s2.677-.356,1.331-2.733c-1.387-2.449-4.825.723-5.851-2.775-1.058-3.61-5.1-4.644-6.514-1.448-1.166,2.634-2.625,3.231-6.333,2.6s-3.7,4-1.65,4.355S3010.527,1643.492,3010.527,1643.492Z" transform="translate(-2985.648 -1628.95)" fill="#fff" opacity="0.48"/>
      </g>
      <g id="Group_10826" data-name="Group 10826">
        <path id="Path_20129" data-name="Path 20129" d="M3215.958,1523.665c.208,1.974,3.74,1.974,3.74,1.974h29.453c3.169-.676-1.61-1.4-1.559-3.117s1.975-6.6-.83-7.48-2.8.623-4.987.675-2.649-7.221-6.181-7.843-5.3,1.351-6.233,5.35-4.312,2.7-5.4,2.078-4.364-.156-3.324,3.273-2.13,2.286-2.961,2.494S3215.75,1521.691,3215.958,1523.665Z" transform="translate(-3215.932 -1507.76)" fill="#a9e1f2"/>
        <path id="Path_20130" data-name="Path 20130" d="M3255.3,1548.2c6.014-.306,5.155-4.225,1.982-3.323s-3.172-1.411-4.758-4.517-5.419-.727-5.618,2.644-3.568-.941-6.675.554,0,4.642,0,4.642Z" transform="translate(-3231.765 -1530.318)" fill="#fff" opacity="0.48"/>
      </g>
    </g>
  </g>
</svg>
