<svg id="Calque_1" data-name="Calque 1" xmlns="http://www.w3.org/2000/svg" viewBox="0 0 497.13 500"><defs><style>.cls-1{opacity:0.85;}.cls-2{fill:#d8de8c;}.cls-3{fill:#fff;}.cls-4{opacity:0.6;}.cls-5{fill:#666;}</style></defs><g class="cls-1"><path class="cls-2" d="M394.76,111.88c-87.94-90.82-232.85-93.14-323.65-5.21S-22,339.5,65.9,430.32s232.82,93.17,323.65,5.21S482.71,202.71,394.76,111.88Z" transform="translate(-1.43 0)"/></g><circle class="cls-3" cx="239.16" cy="269.66" r="132.7"/><g class="cls-4"><path class="cls-5" d="M260.36,472.14l-3.87,0A233.82,233.82,0,0,1,97.61,70.33a233.82,233.82,0,1,1,325.3,336A232.22,232.22,0,0,1,260.36,472.14Zm-.2-457.79A222.41,222.41,0,0,0,104.47,77.42c-88.71,85.9-91,228-5.09,316.67s228,91,316.67,5.1,91-228,5.1-316.67A222.46,222.46,0,0,0,263.86,14.38C262.63,14.36,261.39,14.35,260.16,14.35Z" transform="translate(-1.43 0)"/></g><path class="cls-5" d="M260.36,476.62l-3.94,0A238.3,238.3,0,0,1,94.49,67.11,238.3,238.3,0,0,1,426,409.5,236.7,236.7,0,0,1,260.36,476.62Zm-.19-457.78a218,218,0,0,0-152.58,61.8C20.65,164.82,18.41,304,102.6,391S326,480.15,412.93,396s89.18-223.4,5-310.33A218.05,218.05,0,0,0,263.79,18.86Z" transform="translate(-1.43 0)"/><path class="cls-5" d="M243.88,303.22a10.29,10.29,0,0,1-6.93-2.68L167.49,237.4a10.31,10.31,0,0,1,13.87-15.25l61.62,56L393.91,103.08a10.31,10.31,0,0,1,15.62,13.46L251.68,299.64a10.28,10.28,0,0,1-7.18,3.56Z" transform="translate(-1.43 0)"/><path class="cls-5" d="M243.88,410.55c-78.79,0-142.9-64.1-142.9-142.89s64.11-142.9,142.9-142.9c21.86,0,37.71,3.1,54.71,10.68a10.31,10.31,0,0,1-8.41,18.83c-14.33-6.4-27.31-8.89-46.3-8.89A122.28,122.28,0,1,0,366.16,267.66c0-13.45-2.18-22.55-6.19-34.64a10.31,10.31,0,0,1,19.57-6.49c4.58,13.81,7.23,25,7.23,41.13C386.77,346.45,322.67,410.55,243.88,410.55Z" transform="translate(-1.43 0)"/></svg>