<svg xmlns="http://www.w3.org/2000/svg" xmlns:xlink="http://www.w3.org/1999/xlink" viewBox="0 0 300 300"><defs><linearGradient id="linear-gradient" x1="-349.1" y1="-671.35" x2="-348.8" y2="-670.73" gradientTransform="matrix(229.06, -61.87, -53.61, -198.45, 44121.07, -154615.43)" gradientUnits="userSpaceOnUse"><stop offset="0" stop-color="#987369"/><stop offset="0.14" stop-color="#9f7d74"/><stop offset="0.37" stop-color="#b19790"/><stop offset="0.68" stop-color="#cec1bf"/><stop offset="1" stop-color="#f0f3f5"/></linearGradient></defs><title>R-Conduct</title><g id="Layer_2" data-name="Layer 2"><g id="Report"><rect width="300" height="300" style="fill:#fff"/><path id="Path_20835" data-name="Path 20835" d="M275.38,154.29c-3.69,14.86-9.42,29-15.86,38.62-26.59,39.89-68,35.79-86.95,34-41.92-3.87-91.67,36.14-123.75,31.57-19.51-2.79-23.08-23.42-15.3-58.33,3.36-15.09,8.85-32.84,16.09-53,21-58.55,67.32-119.32,91.53-125.94,49.1-13.42,69.27,79.9,94.19,68.63C280.47,69.48,285.24,114.56,275.38,154.29Z" style="opacity:0.30000000000000004;isolation:isolate;fill:url(#linear-gradient)"/><ellipse id="Ellipse_381" data-name="Ellipse 381" cx="67.63" cy="240.47" rx="22.63" ry="2.77" style="fill:#9faad4;opacity:0.219999998807907;isolation:isolate"/><ellipse id="Ellipse_381-2" data-name="Ellipse 381" cx="228.63" cy="236.47" rx="35.63" ry="2.77" style="fill:#9faad4;opacity:0.219999998807907;isolation:isolate"/><rect x="151.35" y="175.07" width="4.57" height="46.06" style="fill:#30363d"/><polygon points="115.37 228 131.9 161.85 126.86 161.85 110.32 228 115.37 228" style="fill:#484f59"/><polygon points="191.9 228 175.36 161.85 180.41 161.85 196.95 228 191.9 228" style="fill:#484f59"/><rect x="87.32" y="82.94" width="132.63" height="94.6" style="fill:#fff"/><rect x="82.96" y="72" width="141.34" height="10.14" style="fill:#484f59"/><rect x="82.96" y="77.28" width="141.34" height="6.34" style="fill:#30363d"/><rect x="82.96" y="175.32" width="141.34" height="5.38" style="fill:#484f59"/><rect x="93.42" y="88.21" width="39.51" height="4.01" style="fill:#969c9e"/><rect x="99.24" y="99.46" width="10.38" height="2.46" style="fill:#b7bec0"/><rect x="119.54" y="99.46" width="10.38" height="2.46" style="fill:#b7bec0"/><rect x="141.61" y="99.46" width="10.38" height="2.46" style="fill:#b7bec0"/><rect x="201.69" y="99.46" width="10.38" height="2.46" style="fill:#b7bec0"/><rect x="93.28" y="98.35" width="3.98" height="4.68" style="fill:#6ecedb"/><rect x="113.52" y="98.35" width="3.98" height="4.68" style="fill:#9ddee7"/><rect x="135.47" y="98.35" width="3.98" height="4.68" style="fill:#d7f1f5"/><rect x="101.65" y="169.45" width="110.71" height="0.32" style="fill:#b7bec0"/><rect x="101.65" y="150.52" width="110.71" height="0.32" style="fill:#b7bec0"/><rect x="101.65" y="131.6" width="110.71" height="0.32" style="fill:#b7bec0"/><polygon points="212.34 137.14 198.73 128.49 184.48 135.1 170.75 123.75 160.09 134.57 147.97 135.48 140.03 120.79 130.77 115.77 121.15 125.35 111.81 124.91 101.87 135.29 101.13 134.31 111.4 123.57 120.76 124.01 130.59 114.22 140.79 119.76 148.56 134.12 159.64 133.28 170.68 122.08 184.63 133.62 198.81 127.03 212.88 135.98 212.34 137.14" style="fill:#9ddee7"/><rect x="101.65" y="112.67" width="110.71" height="0.32" style="fill:#b7bec0"/><rect x="93.42" y="168.95" width="5.21" height="1.32" style="fill:#b7bec0"/><rect x="93.42" y="150.02" width="5.21" height="1.32" style="fill:#b7bec0"/><rect x="93.42" y="131.1" width="5.21" height="1.32" style="fill:#b7bec0"/><rect x="93.42" y="112.17" width="5.21" height="1.32" style="fill:#b7bec0"/><polygon points="173.04 162.32 161.54 160.95 150.42 156.15 138.3 156.59 131.16 147.75 118.67 145.65 113.11 160.05 101.58 161.86 101.43 160.55 112.34 158.84 118 144.2 131.7 146.5 138.77 155.26 150.6 154.82 161.86 159.68 172.88 160.98 180.09 157.58 188.28 144.72 195.99 156.06 199.99 154.89 211.48 142.24 212.25 143.21 200.54 156.09 195.56 157.55 188.31 146.88 180.79 158.67 173.04 162.32" style="fill:#6ecedb"/><polygon points="122.47 156.8 112.63 147.44 101.34 153.01 100.91 151.8 112.81 145.92 122.43 155.06 139.17 137.11 151.47 142.99 164.14 152.77 169.25 141.31 175.15 136.11 182.47 122.05 191.32 127.3 198.59 136.28 205.95 134.64 211.81 126.45 212.67 127.3 206.55 135.85 198.2 137.72 190.57 128.3 182.89 123.78 175.91 137.09 170.03 142.28 164.56 154.68 150.95 144.15 139.4 138.65 122.47 156.8" style="fill:#987369"/><path d="M114.41,146.57a1.61,1.61,0,1,1-1.59-1.87A1.75,1.75,0,0,1,114.41,146.57Z" style="fill:#987369"/><path d="M124,155.71a1.61,1.61,0,1,1-1.59-1.88A1.75,1.75,0,0,1,124,155.71Z" style="fill:#987369"/><path d="M141,138a1.61,1.61,0,1,1-1.59-1.87A1.75,1.75,0,0,1,141,138Z" style="fill:#987369"/><path d="M152.94,143.38a1.61,1.61,0,1,1-1.59-1.87A1.74,1.74,0,0,1,152.94,143.38Z" style="fill:#987369"/><path d="M165.85,153.62a1.61,1.61,0,1,1-1.59-1.87A1.75,1.75,0,0,1,165.85,153.62Z" style="fill:#987369"/><path d="M171.08,141.84a1.61,1.61,0,1,1-1.59-1.87A1.75,1.75,0,0,1,171.08,141.84Z" style="fill:#987369"/><path d="M177.35,136.45a1.61,1.61,0,1,1-1.59-1.87A1.75,1.75,0,0,1,177.35,136.45Z" style="fill:#987369"/><path d="M184.08,123.14a1.61,1.61,0,1,1-1.58-1.87A1.74,1.74,0,0,1,184.08,123.14Z" style="fill:#987369"/><path d="M192.88,127.76a1.61,1.61,0,1,1-1.59-1.87A1.75,1.75,0,0,1,192.88,127.76Z" style="fill:#987369"/><path d="M200,137a1.61,1.61,0,1,1-1.59-1.87A1.74,1.74,0,0,1,200,137Z" style="fill:#987369"/><path d="M207.47,134.91a1.61,1.61,0,1,1-1.59-1.87A1.75,1.75,0,0,1,207.47,134.91Z" style="fill:#987369"/><path d="M190.06,115.79A1.15,1.15,0,0,1,189,117H174.53a1.15,1.15,0,0,1-1.05-1.24v-7.08a1.15,1.15,0,0,1,1.05-1.23H189a1.15,1.15,0,0,1,1.05,1.23Z" style="fill:#b7bec0"/><polygon points="181.77 119.94 180.72 117.81 179.68 115.68 181.77 115.68 183.86 115.68 182.81 117.81 181.77 119.94" style="fill:#b7bec0"/><rect x="176.58" y="111.02" width="10.38" height="2.46" style="fill:#e5e8ec"/><path d="M229.53,233.89l-.22,4.93h-4s-.22-.61-.56-.61-.65.61-1,.61H213.49s-.18-.91,0-1.22a3.9,3.9,0,0,1,1.23-.59c2.08-.64,8-2.65,9-4.83C225.05,229.52,229.53,233.89,229.53,233.89Z" style="fill:#975140"/><path d="M213.46,237.79a3.24,3.24,0,0,0,0,1H223.7c.39,0,.76-.61,1-.61s.56.61.56.61h4l.18-1Z" style="fill:#e5e8ec"/><path d="M220.89,235.86c-.09.13-.32,0-.62-.28-.74-.61-.67-.54-.48-.65s.29-.14.71.23S221,235.73,220.89,235.86Z" style="fill:#e5e8ec"/><path d="M222,235.33c-.09.13-.32,0-.62-.27-.73-.62-.66-.55-.47-.65s.28-.15.71.23S222.06,235.2,222,235.33Z" style="fill:#e5e8ec"/><path d="M223,234.73c-.09.13-.32,0-.62-.27-.73-.62-.67-.55-.48-.65s.29-.14.71.23S223.06,234.6,223,234.73Z" style="fill:#e5e8ec"/><path d="M246.6,237.86a3.49,3.49,0,0,0-.09,1.72s6.17.76,8.15.24a9.72,9.72,0,0,0,2.21-1.14c.14-.09.39-.62.52-.7s.38.11.59,0a7.22,7.22,0,0,0,.95-.72c.54-3.13-.18-4.39-.18-4.39s-4-1.92-4.94-.58C251.49,235.42,247.47,236.37,246.6,237.86Z" style="fill:#975140"/><path d="M246.42,238.53a48.41,48.41,0,0,0,6.64.66,12.31,12.31,0,0,0,6-3.43c0,.43-.08.92-.17,1.46a7.22,7.22,0,0,1-.95.72c-.21.15-.34-.13-.59,0s-.38.61-.52.7a9.72,9.72,0,0,1-2.21,1.14c-2,.52-8.15-.24-8.15-.24A5.09,5.09,0,0,1,246.42,238.53Z" style="fill:#e5e8ec"/><path d="M249.78,235.56c0,.14.23.21.57.19a9.59,9.59,0,0,1,2.13.12c.35,0,.65,0,.66-.14s-.25-.33-.6-.38a9.29,9.29,0,0,0-2.1-.09C250.1,235.28,249.81,235.43,249.78,235.56Z" style="fill:#e5e8ec"/><path d="M251,234.63c0,.14.24.24.58.26a10.16,10.16,0,0,1,2.09.31c.35.09.64.06.65-.09s-.26-.36-.6-.44a9.92,9.92,0,0,0-2.07-.29C251.28,234.37,251,234.5,251,234.63Z" style="fill:#e5e8ec"/><path d="M252.12,233.78c0,.15.24.28.58.32a10.39,10.39,0,0,1,2.07.5c.34.12.62.12.63,0s-.26-.39-.6-.5a10.05,10.05,0,0,0-2-.48C252.42,233.54,252.14,233.64,252.12,233.78Z" style="fill:#e5e8ec"/><polyline points="250.54 164.94 253.78 163.14 254.16 162.74 253.71 162.02 253 162.11 253.13 160 249.74 159.4 248 158.58 249.6 164.3" style="fill:#fdc689"/><path d="M235.54,113.52s3.63,4-7.54,14.55-13.21,7.46-13.21,7.46l-3.37-2.24-2.51-11.74,5.4-1.25.58.69a2.06,2.06,0,0,0,1.74-.71c.59-.83,4.28-3.61,9.62-10.46C228.71,106.66,234.84,112.75,235.54,113.52Z" style="fill:#d1dbea"/><path d="M209.81,122.22s-11.27-.21-12.17-11.93c-.26-3.49-1.16-.12-1.77,3.21s1.44,12.71,7.46,16.48,8.59,4.7,10.92,3.16S209.81,122.22,209.81,122.22Z" style="fill:#fdc689"/><path d="M226.81,234.08l.45.41c2.19,2,3.17-1.72,3.83-3.28,1-2.42,1.92-4.9,2.73-7.4,1.47-4.53,3-9.44,3.16-14.24a63.26,63.26,0,0,0-1.28-14.94l-9.39-3.07.06,25.34,0,6.79c0,2.14.34,4.94-1.14,6.7a4.8,4.8,0,0,0-.61.74.93.93,0,0,0,0,.91,1.32,1.32,0,0,0,.25.28Z" style="fill:#163f59"/><path d="M226.73,151.18l-.42,40.38,8.53,4.72a58,58,0,0,0,5.76-21.94c.28-5.22.41-16.93-2.51-20.91C234.13,148,226.73,151.18,226.73,151.18Z" style="fill:#163f59"/><path d="M229.85,151.18l1.39,14,3.8,15.16,4,14.17,6.34,17.3,5,13.5,1.89,5.13a7.29,7.29,0,0,0,.74,2c.95,1.16,3.14,1.09,4.47,1.08a.82.82,0,0,0,.58-.17.71.71,0,0,0,.12-.52c-.09-1.05-.62-2-.69-3,0-.6,0-1.23,0-1.84-.28-5.71-.73-11.42-1.52-17.08C255.26,206,254.6,200.33,252,196c-2.71-4.56-2.71-14.67-4-25.56-.23-2,.89-6.39.71-8.18A29.27,29.27,0,0,0,244.45,150Z" style="fill:#194866"/><path d="M226.6,151.8l18.49-.41L253,125s5.12-16-4.69-16.2-21.13-.2-21.13-.2S219.05,123.46,226.6,151.8Z" style="fill:#d1dbea"/><path d="M259.78,144.07l-11.71,14.26s.42,2.07,1.36,1c.11-.13-.46-.55.26-.94,2.87-1.57,9.63-4,12.13-6.4a41.7,41.7,0,0,0,5.63-6.92Z" style="fill:#fdc689"/><path d="M236.64,112.26s-8.6,14.84-6.16,31.26a3.87,3.87,0,0,0,1.73,2.22l2.12-1.85S234.16,125.3,236.64,112.26Z" style="fill:#ad5c49"/><polygon points="236.95 111.87 237.42 115.15 243.04 109.82 243.04 109 236.95 111.87" style="fill:#b0bfde"/><polygon points="235.18 109.75 234.19 114.02 236.69 111.87 235.18 109.75" style="fill:#b0bfde"/><path d="M218.5,124.22,217,121.57l-.65-1a2.17,2.17,0,0,1-1.5.45l1.46,1.77,1.34,2.4.76,3.66Z" style="fill:#b0bfde"/><path d="M252.09,124.48,258.52,143l1.4.56-.78,1.23,7.93,1.38,3.49-6.06L261.29,115a16.5,16.5,0,0,0-11.55-6.16C244,108.18,251.63,122.94,252.09,124.48Z" style="fill:#d1dbea"/><path d="M267.56,141.87s-5.41,1-8.25,1.45l.61.24-.78,1.23,2.75.45,4,.09.62-1.48-1.17-.29Z" style="fill:#b0bfde"/><path d="M243.73,105a20.22,20.22,0,0,1-1,3.51c-.64,1.43-6.19,3.28-7,3.48s.21-4.3.21-5.33c0-.78.5-.53-.1-1.66Z" style="fill:#fdc689"/><path d="M234.25,102.76a1.61,1.61,0,0,0,1.34,1.84l7.15,1.15a1.62,1.62,0,0,0,1.85-1.33l1.7-10.61A1.61,1.61,0,0,0,245,92l-7.15-1.15A1.62,1.62,0,0,0,236,92.16Z" style="fill:#fdc689"/><path d="M235.59,94.34a6.27,6.27,0,0,1-.87-1.84,2.4,2.4,0,0,1,1.33-1.82c.88-.34,1.4.63,1.4.63s-1.38.5-1.49.76S235.59,94.34,235.59,94.34Z" style="fill:#3f2a01"/><path d="M246.25,98.7S248,94.8,248,93.58s0-2.08-1.44-2.44c-2.15-.55-2.25-.09-3.2-.93s-2.61-2.73-3.24-3a2.22,2.22,0,0,0-3.22,1.7,2.23,2.23,0,0,1-1.29,1.78c.06.2.43.44,1.07.9,1.83,1.31,3,1.7,4.57,1.55s4.57-.56,4.72.62-.54,4.6-.45,4.89S246,98.86,246.25,98.7Z" style="fill:#3f2a01"/><rect x="243.05" y="99" width="3.94" height="2.64" rx="0.54" transform="translate(107.19 326.37) rotate(-80.89)" style="fill:#fdc689"/><rect x="233.83" y="97.52" width="3.94" height="2.64" rx="0.54" transform="translate(100.89 316.02) rotate(-80.89)" style="fill:#fdc689"/><path d="M245.42,99.52s-.67,4.17-.89,5.57c-.2,1.25-1.15,3.94-8.26,2.79-4.2-.67-3.55-3.74-3.39-4.75a9.06,9.06,0,0,1,1.89-3.33s-.28,1.73-.28,1.73a3.39,3.39,0,0,1,3.14-1.22c3.23.52,3.66,2.52,5.09,2.72C243.81,103.18,244.92,101.53,245.42,99.52Z" style="fill:#3f2a01"/><path d="M238.52,103.26l-2.21-.35a.54.54,0,0,1-.44-.62l0-.31,3.27.53-.05.31A.54.54,0,0,1,238.52,103.26Z" style="fill:#e9d6b8"/><path d="M197.81,112.26s1.07-3.61.52-4.51-2.77-4-2.77-4l-.64-.75s-1.15.3.36,2.4.26,1.5.26,1.5l-2-1.33-2.63-1.44-1.09-.79s-.58-.5-.82-.49c-.67,0-.4.57-.4.57l4,3.47-4.49-2.13s-.62-.16-.81.13,0,.38,0,.38l4.55,3.69-2.43-.82s-.61-.15-.81.13-.29.38-.29.38l9,4.54Z" style="fill:#fdc689"/><path d="M191.91,107.58l-3.24-1.3a2.64,2.64,0,0,0-1.11-.34.49.49,0,0,0-.47.5l4.71,2.48Z" style="fill:#e9d6b8"/><path d="M61.92,109.41a6.24,6.24,0,0,0-1.82,2.89,14,14,0,0,0-.55,3.41,3.89,3.89,0,0,0,.19,1.73A2.61,2.61,0,0,0,61,118.71a7,7,0,0,0,1.77.54,29.49,29.49,0,0,0,6.55.73,8.15,8.15,0,0,0,4-.9,2,2,0,0,0,.69-.58,2.69,2.69,0,0,0,.39-1.34,13.17,13.17,0,0,0,.19-1.87c0-.57-.19-1.18-.26-1.76-.16-1.28-.3-2.57-.43-3.86-.18-2-.31-3.91-.56-5.88L72.92,100a5.66,5.66,0,0,0-4.83-2c-3.42.43-5.72,4.48-5.14,9s3.81,7.9,7.23,7.47" style="fill:#002b3b"/><path d="M60.24,111.44c-.15,1.18,1.07,2.31,2.73,2.52l3.79.49c1.67.21,3.14-.57,3.29-1.75L71.43,102c.15-1.18-1.08-2.31-2.74-2.52L64.9,99c-1.66-.22-3.13.56-3.28,1.74Z" style="fill:#002b3b"/><path d="M70.06,116.24c2.23,1,.36,1.12.22,1.28-.85,1-10-.46-10.53-1.78-.09-.22,4.21-.77,4.24-.93a13.66,13.66,0,0,0-.07-5.65.34.34,0,0,1,.29-.29l2.41.1c.13,0,1.7.38,1.34,1.13C67.75,112.17,67.69,115.17,70.06,116.24Z" style="fill:#895d4a"/><path d="M68.88,110.55l.15-.21,0-.06.18-.28s0,0,0-.08.09-.14.13-.22a.75.75,0,0,1,.07-.12c0-.07.07-.13.1-.19l.07-.14.12-.26.09-.2.08-.18c0-.06.05-.12.08-.19l.06-.16a1.12,1.12,0,0,0,.05-.13h0a21.72,21.72,0,0,0,.51-6.41.55.55,0,0,0-.52-.47c-1.87-.15-7.37-1.55-7,4h0s0,.48,0,.7v.06c0,.22,0,.43,0,.65v0c0,.21,0,.43.06.63v0c.3,2.65,1.37,4.58,2.86,4.78a3,3,0,0,0,2.53-1.32h0l0,0a1.84,1.84,0,0,0,.17-.22Z" style="fill:#895d4a"/><path d="M67.41,101.83a6.16,6.16,0,0,0-2.09-1c-.06-.6.34-.81.85-1.25a3,3,0,0,1,3.81.09,2,2,0,0,1,.26,3.21,2.9,2.9,0,0,1-2.69.5A1.28,1.28,0,0,0,67.41,101.83Z" style="fill:#002b3b"/><path d="M94.58,123.38s.29.33.56.11a6,6,0,0,0,1.11-1.73c.19-.41.75-2.48.75-2.48a2.55,2.55,0,0,0-.88,1.29A10.64,10.64,0,0,1,94.58,123.38Z" style="fill:#754f42"/><path d="M94.72,123.13a3.12,3.12,0,0,0,.72-2.59,1.86,1.86,0,0,1,.48-1.52,11.81,11.81,0,0,1,0,2.37,3.87,3.87,0,0,1-.27,1.4C95.09,124.08,93.17,124.51,94.72,123.13Z" style="fill:#754f42"/><path d="M75.92,236.65a17.68,17.68,0,0,0-3.2-.65c-1.38-.19-2.41-.13-2.92-.62-.85-.8-.46-3.48-.85-3.37-1.9.53-2.4,5.13-1.25,5.64s7.46,0,8-.06S76.08,236.53,75.92,236.65Z" style="fill:#895d4a"/><path d="M59.37,191.94c.11-1.16.22-2.3.33-3.43.69-1.73,1.36-2.7,2-2.68,2.34.07,5.64,8.69,1.45,31.27-.21,1.14-2.33,20.55-2.47,20.11C59,231.78,57.83,209.14,59.37,191.94Z" style="fill:#895d4a"/><path d="M60.33,153.34c1.82-.38,1.89.67,3.28,3.26,2.72,5.08,4.4,12.69,3.73,20.9-.79,9.6-3,18-5.84,23.4-2-4.41-3.07-9.76-4-15.7C54.53,166.72,54.74,154.53,60.33,153.34Z" style="fill:#895d4a"/><path d="M63.2,174.54a27.2,27.2,0,0,0-7.17-.48c.29,3.13.74,6.55,1.31,10.23,2.59-3.06,8-1.71,9.22-.31.33-2.08.59-4.25.78-6.48,0-.65.08-1.29.11-1.92C66.08,175.19,64.66,174.84,63.2,174.54Z" style="fill:#754f42"/><path d="M48.52,129.12c2.84,2.36,5.84,13.55,5.84,13.55s-.11,4.5-6.83-9.38C45.52,129.13,47.82,128.54,48.52,129.12Z" style="fill:#895d4a"/><path d="M76.55,125.85c2.21,3.18,1.12,14.73,1.12,14.73s-1.9,4.19-3.86-11.15C73.22,124.82,76,125.06,76.55,125.85Z" style="fill:#895d4a"/><path d="M76.1,139.65c1.72-4.16,13.65-12.12,13.65-12.12S95,125.8,81.3,139.05C77.18,143,75.67,140.68,76.1,139.65Z" style="fill:#895d4a"/><path d="M95,122.31l.24.32L95,124a15.71,15.71,0,0,1-2.34,2.59c-.84.56-3,3.73-3.41,4s-2.43-.55-2.43-.55,3-2.64,4.1-3.79a34.36,34.36,0,0,0,2.53-3.8c.7-.79,1-1.23,1-1.23s.37.43-.67,1.75c-.27.34.26.46.26.46Z" style="fill:#895d4a"/><path d="M74.38,157c-1.37-.33-1.42.65-2.47,3.1-2.07,4.78-3.36,11.91-2.87,19.56.56,9,2.21,16.82,4.33,21.79a72,72,0,0,0,3.06-14.72C78.71,169.47,78.59,158.07,74.38,157Z" style="fill:#895d4a"/><path d="M74.22,177.77c.11-3,.16-5.79.13-8.23-.47-.52-.71-.21-1.49.1-1.52.61-3,2.24-4,4.79,0,1.72,0,3.48.14,5.27.11,2,.26,3.92.43,5.78a25.84,25.84,0,0,0,1.72-2.34A36.41,36.41,0,0,0,74.22,177.77Z" style="fill:#754f42"/><path d="M72.69,187.41c-.92-.42-2.49.8-3.52,3.11-2,4.52-2.42,10.61-2.45,18.11,0,7.94.22,13.84.57,18.72S65.92,239,69.52,238.18c-.74-6.61-.11-16.48,1.59-21.72C76.92,198.56,75.51,188.69,72.69,187.41Z" style="fill:#895d4a"/><polygon points="72.36 131.76 58.25 131.42 56.78 115.25 74.39 117.14 72.36 131.76" style="fill:#c95d4b"/><path d="M54.33,180l24-3.13c4.32-14.55.55-30.88-5.92-45.29l-14.22-.48C53.33,146.56,49,164.39,54.33,180Z" style="fill:#37193b"/><path d="M50,131.36l9.41-14.58a2.32,2.32,0,0,0-.85-1l-.27-.17a2.25,2.25,0,0,0-3.11.67L46.93,129Z" style="fill:#c95d4b"/><path d="M74.58,134.89,72.21,117.7a2.13,2.13,0,0,1,1.2-.56l.32,0A2.24,2.24,0,0,1,76.26,119l2.08,15Z" style="fill:#c95d4b"/><rect x="52.21" y="143.28" width="3.85" height="1.61" rx="0.48" transform="matrix(0.25, -0.97, 0.97, 0.25, -98.97, 159.84)" style="fill:#895d4a"/><path d="M60.68,239.12c-1,3.21-2.49,5.59-3.34,5.32s-.72-3.07.28-6.27,2.49-5.58,3.34-5.32S61.68,235.92,60.68,239.12Z"/><path d="M60.85,237.3c-.38,2.44-1.71,4.37-2.56,4.1s-.88-2.3,0-4.62c1.06-2.95,1.51-3.81,1.33-5.77S62.3,228.11,60.85,237.3Z" style="fill:#895d4a"/><path d="M67.78,234.43a.08.08,0,0,0,.09.08H68a.08.08,0,0,0,.07-.08h0a.08.08,0,0,0-.08-.08h-.16a.08.08,0,0,0-.08.08Z" style="fill:#e9d6b8"/><path d="M74.58,236.31c.43,1.49-4.25,1.11-5.47.77a13.32,13.32,0,0,0-1.9-.4h-.15s0,.08,0,.11c0,.84-.27,2,1.06,1.89l8.33-.4C83.25,238,74.57,236.27,74.58,236.31Z"/><path d="M94.48,124a4.21,4.21,0,0,0,.87-1.64c0-.45-.15-2.58-.15-2.58a2.5,2.5,0,0,0-.39,1.51A8.52,8.52,0,0,1,94.48,124Z" style="fill:#895d4a"/><path d="M94,123.46s-.36-.06-.43-.21a1.84,1.84,0,0,0-.09.33c-.06.21-.71,1.5-.71,1.5a13,13,0,0,1,.89-1,5.82,5.82,0,0,0,.63-.79s0-.11.07-.19Z" style="fill:#754f42"/><path d="M93.78,123c.7-.89.76-1.37.73-1.6-.17.21-.44.54-.84,1a7.59,7.59,0,0,0-.62,1,2.09,2.09,0,0,1,.07,1.18c0,.16.59-.6.85-1.12C93.84,123.39,93.57,123.26,93.78,123Z" style="fill:#754f42"/></g></g></svg>