<svg xmlns="http://www.w3.org/2000/svg" xmlns:xlink="http://www.w3.org/1999/xlink" viewBox="0 0 300 300"><defs><linearGradient id="linear-gradient" x1="-741.02" y1="-671.98" x2="-740.73" y2="-671.38" gradientTransform="matrix(72.55, -254.07, 193.76, 55.33, 184033.72, -150945.06)" gradientUnits="userSpaceOnUse"><stop offset="0" stop-color="#987369"/><stop offset="0.14" stop-color="#9f7d74"/><stop offset="0.37" stop-color="#b19790"/><stop offset="0.68" stop-color="#cec1bf"/><stop offset="1" stop-color="#f0f3f5"/></linearGradient><clipPath id="clip-path"><path d="M173.19,243.28l-9.27,1.49a67.47,67.47,0,0,1-7.47.77c-1.86.08-3.75.09-5.66,0-36.24-1.3-65.81-32.85-68.36-71.64-.12-1.91-.18-3.83-.17-5.77.13-32.78,19.57-59.95,46.53-69.17.41-.14.73-.26,1.09-.35l9.27-1.5c-.36.1-.68.21-1.09.36-27,9.22-46.4,36.38-46.53,69.16,0,1.94,0,3.87.17,5.77,2.55,38.79,32.13,70.35,68.37,71.64,1.91.07,3.79.06,5.66,0a67.54,67.54,0,0,0,7.46-.76" style="fill:#e2f5f8"/></clipPath></defs><title>R-Contribute </title><g id="Layer_2" data-name="Layer 2"><g id="Report"><rect width="300" height="300" style="fill:#fff"/><path id="Path_20835" data-name="Path 20835" d="M127.94,19.53c-14.59,3.57-28.49,9.2-38.06,15.55-39.51,26.26-36.37,67.65-35,86.59C57.74,163.56,17.63,213,21.43,245c2.31,19.51,22.39,23.23,56.66,15.72,14.8-3.24,32.26-8.59,52.07-15.66,57.63-20.59,118-66.35,124.91-90.47,14.14-49-76.61-69.79-65.08-94.59C210.89,15.09,167,10,127.94,19.53Z" style="opacity:0.30000000000000004;isolation:isolate;fill:url(#linear-gradient)"/><path d="M243.53,170.38c-.07,16.55-4.33,30.51-13.31,43.58h0c9-13.07,13.24-27,13.31-43.58h0" style="fill:#d2d2d2"/><polyline points="173.1 159.51 163.83 161.01 232.64 163.47 241.91 161.97 173.1 159.51" style="fill:#f3fbfc"/><path d="M171.17,84.51q-1.41,0-2.82.06a63.12,63.12,0,0,0-16.11,2.86h0l-.13,0,21,72L241.92,162c0-2.08,0-4.07-.17-6a77.55,77.55,0,0,0-3.1-17.27C229.1,105.86,201,84.51,171.17,84.51" style="fill:#c4ebf1"/><path d="M82.25,168.51c0,1.82.07,3.62.18,5.41,2.55,38.79,32.12,70.34,68.36,71.64.86,0,1.71,0,2.55,0,1,0,2.08,0,3.11-.06a67.47,67.47,0,0,0,7.47-.77l9.27-1.49a67.54,67.54,0,0,1-7.46.76,65,65,0,0,0,7.32-.74l-2.36.38-6.77,1.09a67.47,67.47,0,0,1-7.47.77c-1,0-2.06.06-3.11.06-.84,0-1.69,0-2.55,0-36.24-1.3-65.81-32.85-68.36-71.64-.11-1.79-.17-3.59-.18-5.41m0-.48v0m0-.11v0m0-.12v0m0-.15v0m0-.1v0m28.5-58.94h0m.07,0h0m.08-.06,0,0,0,0m.12-.09,0,0,0,0m.07-.06,0,0,0,0m.09-.06-.06,0,.06,0m.18-.14-.16.12.16-.12m.08-.06-.08.06.08-.06m12.1-7a64.7,64.7,0,0,0-12.09,7,64.7,64.7,0,0,1,12.09-7m.09,0-.09,0,.09,0m.19-.09-.18.09.18-.09m.09,0-.08,0,.08,0m.1,0-.08,0,.08,0m.19-.08-.18.08.18-.08m.09,0-.08,0,.08,0m.09,0-.07,0,.07,0m.2-.08-.17.07.17-.07m.09,0-.07,0,.07,0m.09,0-.06,0,.06,0m.11-.05-.08,0,.08,0m.1,0-.09,0,.09,0m.08,0,0,0,0,0m.09,0-.05,0,.05,0m.11,0-.07,0,.07,0m.1,0-.09,0,.09,0m.09,0-.06,0,.06,0m.09,0-.05,0,.05,0m.09,0-.06,0,.06,0m.11,0-.07,0,.07,0m.09,0,0,0,0,0m.09,0,0,0,0,0m.09,0h0m.12-.05,0,0,0,0m.08,0h0m.09,0h0m.08,0h0m.13,0h0m.09,0h0m.09,0,0,0,0,0m.08,0h0m.13,0h0m.09,0h0m.09,0,0,0,0,0m.09,0,0,0,0,0m.13,0,0,0,0,0m.08,0,0,0,0,0m.09,0h0m.08,0h0m.14,0h0m.09,0h0m.08,0h0m.1,0,0,0,0,0m.12,0-.05,0,.05,0m.09,0h0m.09,0,0,0,0,0m.12,0-.08,0,.08,0m.1,0-.08,0,.08,0m.09,0,0,0,0,0m.09,0,0,0,0,0m.13,0-.09,0,.09,0m10.36-1.85h0c-.36.1-.68.21-1.09.36h0A64.84,64.84,0,0,0,115.32,111l-9.27,1.5h0l9.27-1.5a71,71,0,0,0-13.46,16.75h0l-.11.19,0,0,0,.08v0l-.05.09v0l-.05.07v0l0,.07,0,0,0,.08,0,0,0,.06,0,0,0,.06,0,.06,0,0,0,.05,0,0,0,.06v0l-.06.12h0l0,.07v0l-.12.21h0a77.76,77.76,0,0,0-9.41,36h0v.47h0v.76h0V167h0v-.37c.13-32.78,19.57-59.94,46.53-69.16.41-.15.73-.26,1.09-.36" style="fill:#f9f6f5"/><path d="M174.72,167.92l55.5,46c9-13.07,13.24-27,13.31-43.58l-68.81-2.46" style="fill:#6ecedb"/><polyline points="174.72 167.92 165.44 169.41 220.94 215.46 230.22 213.96 174.72 167.92" style="fill:#a8e2e9"/><polyline points="152.11 87.47 142.84 88.97 163.83 161.01 173.1 159.51 152.11 87.47" style="fill:#f3fbfc"/><path d="M161.21,85.31l-9.27,1.49a63.25,63.25,0,0,0-9.1,2.17l9.27-1.5.13,0h0a63,63,0,0,1,9-2.12" style="fill:#dcf3f7"/><path d="M139.15,97.13c-.36.1-.68.21-1.09.36-27,9.22-46.4,36.38-46.53,69.16v.16c0,1.89,0,3.76.17,5.61h0c2.55,38.79,32.13,70.35,68.37,71.64h.43l2.1,0h0l1.69,0,1.25,0h.17c20.36-.92,37.79-10.91,50.15-28.88l-55.51-46-21.22-72" style="fill:#a8e2e9"/><path d="M139.15,97.13h0c-.36.1-.68.21-1.09.36h0l-.1,0h0l-.07,0h0l-.08,0h0l-.19.07h0l-.09,0h0a63.77,63.77,0,0,0-9,4h0l-.07,0h0l-.26.14h0l-.07,0h0l-.09,0h0l-.09,0h0l-.07,0,0,0-.06,0h0l-.06,0h0l-.08,0h0l0,0,0,0,0,0-.05,0,0,0-.1.06h0l0,0h0l-.05,0,0,0-.05,0h0l-.19.11h0l-.06,0h0A66.79,66.79,0,0,0,115.32,111l-9.27,1.5.61-.55c-14.72,13.11-24.15,33-24.4,55.59v0c.25-22.27,9.42-41.92,23.79-55l9.27-1.5h0A69.65,69.65,0,0,0,106,121.49h0l-.09.13h0l0,.05,0,0,0,0,0,0,0,0,0,0,0,0,0,0h0q-2.09,2.91-3.9,6h0l0,0h0l-.11.2h0l0,0,0,.06h0l0,0,0,0v0l0,.08,0,0,0,0,0,0v0l0,0,0,.07h0l0,0v0l-.12.21,0,.05h0l0,0v0h0l-.12.21h0a77.88,77.88,0,0,0-9.41,36h0v.41h0v.84h0V167h0v-.37c.13-32.78,19.57-59.94,46.53-69.16.41-.15.73-.26,1.09-.36" style="fill:#b9e8ee"/><path d="M91.53,166.81V167c0,1.81.06,3.62.17,5.4-.12-1.85-.18-3.72-.17-5.61" style="fill:#97dce5"/><path d="M160.07,244.06l.92,0h-.92M82.25,168.51c0,1.82.07,3.62.18,5.41,2.55,38.79,32.12,70.34,68.36,71.64.86,0,1.71,0,2.55,0,1,0,2.08,0,3.11-.06a67.47,67.47,0,0,0,7.47-.77l9.27-1.49-.2,0-2.3.37-6.77,1.09a67.47,67.47,0,0,1-7.47.77h0c-1,0-2.06.06-3.11.06h-1.21c-.45,0-.89,0-1.34,0-36.24-1.3-65.81-32.85-68.36-71.64-.06-.91-.1-1.83-.13-2.75v0h0c0-.87,0-1.74,0-2.62m0-.54v0h0v0m0-.17v0m0-.09v0m28.52-59.11h0m.11-.09-.07,0h0l0,0h0m.19-.14,0,0,0,0h0m.08-.06,0,0h0l0,0m.17-.13-.13.1h0l.12-.09m2.63-1.85c-.85.57-1.69,1.16-2.51,1.77h0c.82-.61,1.66-1.19,2.5-1.76m.09-.06-.07,0,.07,0m.1-.06-.08.05.08-.05m.08-.06-.07,0,.07,0m.09-.05-.06,0,.06,0m.09-.06-.07,0,.07,0m.09-.06,0,0,0,0m.08,0h0m.06,0h0m.2-.14h0m6.88-3.86h0m.1,0,0,0,0,0m.13-.06-.07,0,.07,0m.1,0-.08,0,.08,0m1.79-.82c-.6.26-1.19.54-1.78.82.49-.24,1-.47,1.49-.69h0l.09,0h0l.18-.09h0m.09,0-.08,0,.07,0h0m.09,0-.06,0,.06,0h0m.39-.17-.14.07,0,0h0l.07,0h0m.33-.13-.11,0,.05,0h.06m.14-.07-.08,0h0l.08,0h0m.46-.18-.42.17.06,0,0,0,0,0,0,0,.05,0h0l.07,0h0l.07,0m.33-.14-.12,0h0l.06,0,0,0h0m.21-.08,0,0h0l0,0h0m.09,0h0m.12,0h0m.15,0h0m.48-.19-.16.06h0l.05,0,0,0h0m.1,0-.06,0h0l0,0m.12,0h0m.34-.13-.21.08h.06l0,0,.08,0h0m.22-.08-.18.06h0l0,0,.05,0h.07m.22-.08,0,0h0m.25-.09-.17.06h.06l0,0,0,0h0m.21-.07-.11,0h0l0,0h.05m.28-.11-.21.08h0l0,0,.08,0h0l.06,0m.11,0h0m.22-.08-.12,0h0l.09,0" style="fill:#c5ebf1"/><path d="M160.47,244.08h0m-.07,0h0" style="fill:#97dce5"/><path d="M173.19,243.28l-9.27,1.49a67.47,67.47,0,0,1-7.47.77c-1.86.08-3.75.09-5.66,0-36.24-1.3-65.81-32.85-68.36-71.64-.12-1.91-.18-3.83-.17-5.77.13-32.78,19.57-59.95,46.53-69.17.41-.14.73-.26,1.09-.35l9.27-1.5c-.36.1-.68.21-1.09.36-27,9.22-46.4,36.38-46.53,69.16,0,1.94,0,3.87.17,5.77,2.55,38.79,32.13,70.35,68.37,71.64,1.91.07,3.79.06,5.66,0a67.54,67.54,0,0,0,7.46-.76" style="fill:#e2f5f8"/><g style="clip-path:url(#clip-path)"><path d="M165.56,244.05l-1.25,0,.83,0h.42" style="fill:#97dce5"/><path d="M115.32,111l-9.27,1.5c-14.37,13.1-23.54,32.75-23.79,55v.16h0v.08h0V168h0v0h0v.16c0,.12,0,.24,0,.36,0,.88,0,1.75,0,2.62h0v0c0,.92.07,1.84.13,2.75,2.55,38.79,32.12,70.34,68.36,71.64.45,0,.89,0,1.34,0h1.21c1,0,2.08,0,3.11-.06h0a67.47,67.47,0,0,0,7.47-.77l6.77-1.09,2.3-.37h0a66.34,66.34,0,0,1-7.26.73h-.59l-.83,0-1.7,0-1.62,0h0l-.92,0h0c-36.24-1.29-65.82-32.85-68.37-71.64-.11-1.78-.17-3.59-.17-5.4h0v-.37h0v-.84h0v-.41h0a77.88,77.88,0,0,1,9.41-36h0l.12-.21h0v0l0,0h0l0-.05.12-.21v0l0,0h0l0-.07,0,0v0l0,0,0,0,0,0,0-.08v0l0,0,0,0h0l0-.06,0,0h0l.11-.2h0l0,0h0q1.81-3.14,3.9-6h0l0,0,0,0,0,0,0,0,0,0,0,0,0,0,0-.05h0l.09-.13h0A69.65,69.65,0,0,1,115.32,111" style="fill:#e2f5f8"/><path d="M139.15,97.13l-9.27,1.5c-.36.09-.68.21-1.09.35h0l-.09,0h0l-.1,0h0l-.1,0h0l-.06,0h0l-.08,0,0,0h0l-.07,0h-.05l0,0h0l-.1,0h0l0,0,0,0h-.06l-.08,0h0l-.17.06h-.07l-.05,0,0,0h0l0,0h0l-.08,0,0,0h-.06l-.13.05h0l-.08,0h0l0,0h0l0,0h0l0,0-.05,0h0l-.32.13h0l-.11,0h0l-.09,0h0l-.07,0h0l0,0h0l-.16.06h0l0,0-.06,0h0l-.21.09h0l-.07,0h0l-.07,0h0l-.05,0,0,0,0,0,0,0-.06,0h0l-.08,0h0l-.06,0h-.06l-.05,0-.22.09h0l-.07,0h0l0,0-.25.1h0l-.06,0h0l-.07,0h0l-.18.09h0l-.09,0h0c-.5.22-1,.45-1.49.69h0l-.08,0h0l-.07,0h0l-.06,0h0l0,0h0l-.06,0h0a65,65,0,0,0-6.86,3.85h0a1.37,1.37,0,0,0-.2.13h0l0,0h0l0,0h0l0,0h0l-.06,0h0l-.07,0h0l0,0h0l-.06,0h0l0,0h0l-.07,0h0l-.08.05h0l-.07,0h0c-.84.57-1.68,1.15-2.5,1.76h0l-.12.08h0l-.12.09h0l0,0h0l0,0h0l0,0h0l0,0-.15.11h0l0,0h0l0,0h0c-1.41,1.07-2.77,2.19-4.1,3.37h0l-.61.55,9.27-1.5a66.79,66.79,0,0,1,11.26-8.29h0l.06,0h0l.19-.11h0l.05,0,0,0,.05,0h0l0,0h0l.1-.06,0,0,.05,0,0,0,0,0,0,0h0l.08,0h0l.06,0h0l.06,0,0,0,.07,0h0l.09,0h0l.09,0h0l.07,0h0l.26-.14h0l.07,0h0a63.77,63.77,0,0,1,9-4h0l.09,0h0l.19-.07h0l.08,0h0l.07,0h0l.1,0h0c.41-.15.73-.26,1.09-.36h0" style="fill:#e2f5f8"/></g><path d="M113.27,178.5c3.7.94,10.54,4.26,12,9.94,2.14,8.54-2.15,21.06,4.65,33.31,2.17,3.91-37.58,9.16-37.58,9.16L84.64,187.8s9.58-9.36,11.54-10C100.24,176.5,105.86,176.64,113.27,178.5Z" style="fill:#d1dbea"/><path d="M84.58,187.82c-1.38,3.45-4.87,23.94-1,28.77.45.56-2,1.43-1.57,4,.07.43.81,2.46.81,2.46l3.18.83,9.6-5.46-1.84-2.24-.87,0a2,2,0,0,1-.59-1.71c.23-.94-2.2-2.47-5.87-18.38C85.37,191.41,84.88,187.06,84.58,187.82Z" style="fill:#e3e9f2"/><path d="M88.29,215.62l2.84-.62,1.15-.18a2.16,2.16,0,0,0,.63,1.36l-2.2.07-2.58.55L85,218.57Z" style="fill:#dbdac6"/><path d="M92.35,218.27a8.54,8.54,0,0,0-4.06,1.13c-1.43.87-2.73,2.78-1.43,3.81a21.28,21.28,0,0,0,3.33,2S95.18,225.34,92.35,218.27Z" style="fill:#c4d1e1"/><path d="M86.87,223.28l1.34-.28s4.6-.42,5.26-.06,2.76,1.79,2.76,1.79l.44.4a2.22,2.22,0,0,1-2.41-.33c-1.39-1-1.51-.23-1.51-.23L93,225.8v1.57l.21.66s.2.36,0,.49a.87.87,0,0,1-.87.2L91,226.27l-.38,2.66a1,1,0,0,1-.63.46c-.41.08-.42,0-.42,0l-.31-.67a.85.85,0,0,1-.28.46,1.33,1.33,0,0,1-.84.24l.13-2.8L87.65,228a1,1,0,0,1-.63.45l-.59.15Z" style="fill:#e4eef3"/><path d="M110.72,212.32s-3.34,8.47-11.38,10.74c-1.39.39-2.24,1.89-1.57,2.37.86.62,2,.75,4,.75,4.2,0,9.92-1.32,13.87-5.14,5.85-5.66,7.69-8.24,7.1-11.09S110.72,212.32,110.72,212.32Z" style="fill:#fdc689"/><path d="M124.1,185.59c1.7,2.79,2.68,7.29,2.67,13.71,0,5-4.3,13.11-5,15.61-.11.42-.37,2.21-.37,2.21l-4.76,4.67-9.53-6.46,2.9-4.45.86.09a14.57,14.57,0,0,0,.4-3.41c-.15-1,2.64-13.78,4-22C116.13,180.82,122.41,182.82,124.1,185.59Z" style="fill:#e3e9f2"/><path d="M115.56,210.81l-2.77-.87-1.14-.28a2.12,2.12,0,0,1-.74,1.31l2.19.25,2.52.77,3,2Z" style="fill:#b0bfde"/><path d="M100,223,95.1,221.7S93.72,223.54,94,224a12.47,12.47,0,0,1,0,3.19l2.35,2,1.92-.63s.13-.83-.52-.92.44-.56.78-.75S101.67,225.24,100,223Z" style="fill:#fdc689"/><rect x="97.56" y="169.38" width="8.86" height="13.36" rx="1.48" transform="translate(-52.5 43.66) rotate(-19.32)" style="fill:#3f2a01"/><path d="M101,187.66s-8.6,14.84-6.16,31.26a3.84,3.84,0,0,0,1.73,2.21l2.12-1.84S98.56,200.7,101,187.66Z" style="fill:#ad5c49"/><path d="M95.37,184.25a1.92,1.92,0,0,0,2.36,1.33l8.31-2.29a1.91,1.91,0,0,0,1.34-2.36L104,168.62a1.92,1.92,0,0,0-2.36-1.34l-8.31,2.29A1.92,1.92,0,0,0,92,171.93Z" style="fill:#fdc689"/><path d="M92.67,174.47a7.27,7.27,0,0,1-1.86-1.56,2.86,2.86,0,0,1,.55-2.63c.77-.8,1.82,0,1.82,0s-1.25,1.23-1.24,1.56S92.67,174.47,92.67,174.47Z" style="fill:#3f2a01"/><path d="M106.36,173.93s0-5.09-.66-6.41-1-2.24-2.77-1.92c-2.59.46-2.48,1-3.92.58s-4.17-1.68-5-1.65A2.63,2.63,0,0,0,91.38,168a2.73,2.73,0,0,1-.51,2.57c.15.19.67.27,1.59.45,2.63.52,4.08.37,5.72-.58s4.66-2.87,5.41-1.66,1.7,5.25,1.93,5.51S106.12,174.24,106.36,173.93Z" style="fill:#3f2a01"/><rect x="104.25" y="173.94" width="3.14" height="4.68" rx="0.64" transform="translate(-43.02 34.44) rotate(-15.4)" style="fill:#fdc689"/><rect x="93.54" y="176.89" width="3.14" height="4.68" rx="0.64" transform="translate(-44.19 31.7) rotate(-15.4)" style="fill:#fdc689"/><path d="M105.86,175.23s1.34,4.84,1.78,6.46c.41,1.46.71,4.83-7.55,7.11-4.88,1.34-5.7-2.3-6-3.48a10.9,10.9,0,0,1,.4-4.53s.55,2,.55,2a4.06,4.06,0,0,1,2.8-2.88c3.75-1,5.21.93,6.85.44C105.93,180,106.32,177.64,105.86,175.23Z" style="fill:#3f2a01"/><path d="M100.24,182.68l-2.56.71a.65.65,0,0,1-.79-.45l-.1-.36,3.8-1,.1.35A.64.64,0,0,1,100.24,182.68Z" style="fill:#fdc689"/><path d="M59.68,231.87c1.19,3.27,21.93,15.32,28.88,14.61l21,1c17.82-2.17,26.25-29.85,26.25-29.85-.71-7-18.26,3.12-24.52,6.24-9.91,4.95-16.17,5.2-16.17,5.2-6.63.68-14.31-4.44-22.68-4.61C63.2,224.25,57.82,226.72,59.68,231.87Z" style="fill:#081832"/><path d="M105.26,228.55l0,0v-.87L69.22,227l0,.87s0,0,0,0l.09.16a2.37,2.37,0,0,0,2.23.94l31.38.57a2.35,2.35,0,0,0,2.26-.85Z" style="fill:#b6c2c9"/><path d="M96.57,228.54a0,0,0,0,0,0,0l.08.13a1.52,1.52,0,0,0,.52.46l5.49.1a2.53,2.53,0,0,0,2.17-.68l.09-.13,0,0V228l-8.36-.16Z" style="fill:#d8e5ed"/><polygon points="91.71 228.22 73.69 227.89 73.7 227.28 91.72 227.6 91.71 228.22" style="fill:#879ba6"/><path d="M96.39,227.46,92,209.65a1.17,1.17,0,0,0-1-.87l-25.3-.46a.64.64,0,0,0-.64.84L69.4,227Z" style="fill:#d9e1e4"/><path d="M82.25,217.91A1.23,1.23,0,0,1,81,219.53a2.29,2.29,0,0,1-2-1.68,1.22,1.22,0,0,1,1.24-1.61A2.27,2.27,0,0,1,82.25,217.91Z" style="fill:#b6c2c9"/><path d="M112.71,252.09c-2.49.42-4.4-2.48-4.4-2.48l-6.44-5.07,1.36-3.43,12.56,5.64S115.21,251.66,112.71,252.09Z" style="fill:#fdc689"/><path d="M108.3,249.42a6.88,6.88,0,0,0,.48,1.62c.48,1.32,1.07,1.79,1.69,2,2.41.71,4.14.35,9.93,1.47s7.53.27,9.22-2.4-.06-4.76-2.89-5c-4.08-.3-6.36.16-8.48-.16s-2.37-.84-3.68-1.64-2.35,3.73-1.19,4.76S109.17,251.12,108.3,249.42Z" style="fill:#76594e"/><path d="M109.54,252c2.41.7,4.15.35,9.94,1.46s7.52.27,9.22-2.39a3.09,3.09,0,0,0,.36-3.2c1.27.88,1.71,2.41.56,4.21-1.69,2.67-3.43,3.51-9.22,2.4s-7.52-.76-9.93-1.47a2.22,2.22,0,0,1-1.34-1.19A3,3,0,0,0,109.54,252Z" style="fill:#cdd5d7"/><path d="M108.31,249.5a.6.6,0,0,1,0-.08l.06.09Z" style="fill:#fdc689"/><path d="M120.82,251.5c.19.07.35-.28.41-.77a13.63,13.63,0,0,1,.67-3c.17-.49.16-.92,0-1s-.53.3-.69.77a14.14,14.14,0,0,0-.63,3C120.49,251,120.63,251.43,120.82,251.5Z" style="fill:#cdd5d7"/><path d="M119,251.18c.19,0,.37-.3.42-.77a12.39,12.39,0,0,1,.67-2.8c.16-.46.15-.86-.07-.89s-.55.32-.7.78a12.53,12.53,0,0,0-.63,2.78C118.68,250.73,118.83,251.13,119,251.18Z" style="fill:#cdd5d7"/><path d="M117.15,251.1c.2,0,.4-.34.47-.82a14.81,14.81,0,0,1,.79-2.89c.18-.48.18-.88,0-.89s-.58.36-.76.83a14,14,0,0,0-.75,2.87C116.8,250.67,116.94,251.07,117.15,251.1Z" style="fill:#cdd5d7"/><path d="M112.27,243.8S68,225.58,65.43,225.56c-8.56-.09-6.6,8.58-2.26,12.65,5.12,4.81,44,13.6,44,13.6Z" style="fill:#163f59"/><polygon points="94.69 246.97 106.79 235.5 101.64 230.39 88.43 244.27 94.69 246.97" style="fill:#fdc689"/><path d="M92.19,238s30.78-28.22,32.86-29.06c7-2.86,11.38,4.9,11.13,7.58-.32,3.48-31.59,31.74-31.59,31.74Z" style="fill:#194866"/><path d="M74,247.86c-.72.67-.85,2.62-.85,2.62s10.28,3.89,13.88,4a18.24,18.24,0,0,0,4.24-.81c.28-.07.9-.78,1.17-.86.49-.14.6.34,1,.2a12.13,12.13,0,0,0,1.9-.7c2.17-4.61,1.43-6.88,1.43-6.88s-4.72,1.35-3.91.29c1.73-2.26-3.22-4.57-4.32-3.37C84.13,247.13,76,245.94,74,247.86Z" style="fill:#76594e"/><path d="M73.38,248.82c3.15,1.25,9.79,3.85,11.11,3.94,5.41.38,9.18-1.54,11.71-2.67a21.19,21.19,0,0,1-.88,2.18,12.13,12.13,0,0,1-1.9.7c-.43.14-.54-.34-1-.2-.27.08-.89.79-1.17.86a18.24,18.24,0,0,1-4.24.81c-3.6-.07-13.88-4-13.88-4A7,7,0,0,1,73.38,248.82Z" style="fill:#cdd5d7"/><path d="M80.64,245.83c-.1.18.3.39.88.51a19.19,19.19,0,0,1,3.47,1c.56.23,1.07.28,1.15.08s-.31-.57-.87-.79a20.07,20.07,0,0,0-3.43-1C81.27,245.56,80.73,245.65,80.64,245.83Z" style="fill:#cdd5d7"/><path d="M82.94,245c-.09.19.31.44.87.6a21.56,21.56,0,0,1,3.35,1.32c.54.28,1,.36,1.11.16s-.31-.62-.84-.88a19.57,19.57,0,0,0-3.32-1.28C83.55,244.77,83,244.83,82.94,245Z" style="fill:#cdd5d7"/><path d="M85.16,244.3c-.08.19.3.48.85.69a20.44,20.44,0,0,1,3.23,1.57c.52.31,1,.43,1.06.21s-.29-.66-.8-1a19.57,19.57,0,0,0-3.21-1.53C85.75,244.08,85.24,244.11,85.16,244.3Z" style="fill:#cdd5d7"/><path d="M173.43,46.47A8,8,0,1,1,169.69,36,7.88,7.88,0,0,1,173.43,46.47Z" style="fill:#282723"/><path d="M177.43,56.41a10.06,10.06,0,1,1-4.73-13.25A10,10,0,0,1,177.43,56.41Z" style="fill:#282723"/><path d="M169.05,67.21s-.29,1.3,6,2.9A120.21,120.21,0,0,0,191,72.49l-14.15-5S171.29,65.79,169.05,67.21Z" style="fill:#704c40"/><path d="M185.89,71.7c3,.85,3.81,2.7,4.86,3.5a21.9,21.9,0,0,1,2,1.82c-.29-1.45-1.24-1.76-1.6-2.31s-.3-.31.78-.08c.61.12,1.36,1.48,2,2.29a2.51,2.51,0,0,0,.91.85,13.66,13.66,0,0,0-1.19-2.43,15.44,15.44,0,0,0-2.41-2.9,12.06,12.06,0,0,0-4-1.29C185.57,70.91,183.75,71.09,185.89,71.7Z" style="fill:#704c40"/><path d="M191,72.45a17.56,17.56,0,0,1,2.42,1.64c.21.29,1,1.84,1,1.84a3,3,0,0,1-1.16-1A27,27,0,0,0,191,72.45Z" style="fill:#e2c59c"/><path d="M172.56,65.3s-5.83-1.31-6.42,2.21c-.34,2,.78,3,2.55,3.41,3.29.67,7.07,1.26,7.07,1.26l3.17-4.81Z" style="fill:#b0bfde"/><path d="M172.89,62.4l-1.62-16s.11-4.17-1.39-4.08c-2.17.12-2.58,3.72-2.77,5a42.4,42.4,0,0,0-.9,10.31c0,4.09-.26,8.72,0,11.48.18,1.9,2-.21,4-.39C173.77,68.43,172.89,62.4,172.89,62.4Z" style="fill:#b0bfde"/><polygon points="207.92 107.1 213.25 118.66 220.64 118.83 224.38 118.07 216.34 116.16 212.03 105.42 207.92 107.1" style="fill:#895d4a"/><path d="M214.07,120.49l1-.23.55-1.2,6,.26,4.8-.89A.84.84,0,0,0,226,118c-.85-.46-4.58-.68-4.58-.68s.4,1,0,1.25a35.13,35.13,0,0,1-6.13-.22c-1.9-.27-2.88-.75-2.8-.49S214.07,120.49,214.07,120.49Z" style="fill:#161711"/><path d="M178.4,83.6l17.43-.46,13,28.42,5.37-2.13-12.67-34.2s-1-2.16-6.26-2.16-25.8-.57-28.15.09C161.54,74.71,179.36,78.88,178.4,83.6Z" style="fill:#163f59"/><path d="M166,36.35a8,8,0,1,1-3.74-10.5A7.88,7.88,0,0,1,166,36.35Z" style="fill:#282723"/><path d="M174.13,33.84a6,6,0,0,1-8,2.76l-.1-3.21a6,6,0,0,1-2.76-8l1-2a6,6,0,0,1,8-2.76l1.35.65a6,6,0,0,1,2.76,8Z" style="fill:#282723"/><path d="M175.84,24.88a12.1,12.1,0,0,1-.87,1.45c-2.23,3.19-5.61,4.79-8.06,4a19,19,0,0,1-2.79,3.8,9.18,9.18,0,0,1-3.4,1.81c-1.56,2.22-.67,8.63,4.92,9.29,3.37.39,2.68-3.15,1.5-5.36a6,6,0,0,1-1-2.82c.43-2,1.17-2.32,2.37-3a4.88,4.88,0,0,1,3.87,0,.66.66,0,0,0,.55,0,4,4,0,0,0,.72-1l2.16-4.44A4.24,4.24,0,0,0,175.84,24.88Z" style="fill:#885c49"/><path d="M158.28,78s2.56.53,3.27.79c.94.36,3.72-.09,3.72-.09s.35-13.7,1-18.47,1.91-6.08,1.9-7.58a16.48,16.48,0,0,0-.63-4.8c-.42-1.85.81-4.31.39-3.84-.67.76-3.21,1.94-5.57-.68C162,42.85,158.28,78,158.28,78Z" style="fill:#c95d4b"/><path d="M167.35,38.42s3.47,3.51,3.33,4.66.21,6-.58,11.13-1.44,6.42-1.57,10.18.74,4.59.42,9.2c-.25,3.62-.81,6.81-.81,6.81a3,3,0,0,1-2.88-.89c-1.24-1.34-.79-13.9-.34-17s2.28-11.21,2.17-13.37-.81-7.29-1.19-8C165,39.49,167.07,38.6,167.35,38.42Z" style="fill:#d1dbea"/><path d="M167.36,38.1a1.94,1.94,0,0,1-.43.47,8.08,8.08,0,0,0-1,.92s.69-.33,1,.27a11.69,11.69,0,0,1,.53,2.4s1.28-2.12,1-2.79C167.82,38.15,167.36,38.1,167.36,38.1Z" style="fill:#b0bfde"/><path d="M162.59,46.44a8.31,8.31,0,1,1-5.52-10.24A8.22,8.22,0,0,1,162.59,46.44Z" style="fill:#282723"/><polygon points="190.73 109.62 190.99 117.72 192.64 119.66 197.03 122.2 200.29 121.61 194.55 117.33 194.13 108.83 190.73 109.62" style="fill:#895d4a"/><path d="M191.24,119.49l1.48,1.06.45-.36,4.89,2.69s2.59,1.3,3.3.45c.24-.27-.05-1.15-.88-1.77a7.54,7.54,0,0,0-1.06-.67s-.17.63-1.63.87c-.47.08-3.38-1.84-4.38-2.34a11.3,11.3,0,0,1-2.59-2C190.58,117.69,191.24,119.49,191.24,119.49Z" style="fill:#161711"/><path d="M156.23,66.94l2.1,5,3.61.44,29.17,1.85s2.61-.8,4.27,3.32c2.37,5.87-.72,35.25-.72,35.25l-4.32-.07L188,85s-28,4.91-36.11,2.43c-3.1-1-5.47-6.42-5-12a19,19,0,0,1,3.24-8.32Z" style="fill:#194866"/><path d="M160.2,77.37s1.35-12.23,2.12-18,.6-15.49.77-16.89a20.12,20.12,0,0,1,.91-3.39s-1.41-3.16-3.25-3.06c-1.62.09-6.73,1.8-9.2,2.81-1.71.7-.81,20.19-1,21.21-.55,3.7-2.37,8-3.54,10.88a42.07,42.07,0,0,0-1.67,5.8S154.71,75.61,160.2,77.37Z" style="fill:#d1dbea"/><path d="M161.1,35.05l1.37,1.55s1.92,2.65,1.29,2.28c-.79-.47-1.7,2.29-1.7,2.29l-2.55-5.23Z" style="fill:#b0bfde"/><path d="M149.91,64.76s-2.13,1.52,5.93,2.35,20.09.23,20.09.23l-18.44-3.49S152.41,62.82,149.91,64.76Z" style="fill:#885c49"/><path d="M169.53,67.23c3.82.5,5.22,2.45,6.67,3.19A27.55,27.55,0,0,1,179,72.17c-.65-1.6-1.88-1.8-2.43-2.36s-.43-.3.95-.22c.78,0,2,1.47,2.85,2.28a3.28,3.28,0,0,0,1.3.83,15.93,15.93,0,0,0-1.94-2.56,19.5,19.5,0,0,0-3.53-2.9,16.49,16.49,0,0,0-5.17-.83C169,66.39,166.78,66.87,169.53,67.23Z" style="fill:#885c49"/><path d="M176,67.28a22.52,22.52,0,0,1,3.3,1.48c.32.29,1.62,1.91,1.62,1.91a4,4,0,0,1-1.63-.93A34.15,34.15,0,0,0,176,67.28Z" style="fill:#885c49"/><path d="M154.68,62.48l2.62-17.76s-.64-3.66-1.78-4.91c-1.35-1.49-3.91-1-3.91-1s-3,2.46-3.22,16.52c-.15,9.62-1,13.57,3.12,14,3.87.39,8.29.63,8.29.63l2.93-5.8Z" style="fill:#b0bfde"/><rect x="176.57" y="72.09" width="25.45" height="0.52" style="fill:#cdd5d7"/><path d="M187.8,72.05a.7.7,0,0,0,.64.74h13.05c.36,0,.84-.26,1.28-1.29l6.45-11.78a.68.68,0,0,0-.76-.74l-13.39.41a1.23,1.23,0,0,0-.84.89Z" style="fill:#cdd5d7"/><path d="M189.38,72.61H176.51a4.76,4.76,0,0,0,2.08.4H200a4.79,4.79,0,0,0,2.08-.4Z" style="fill:#b7bec0"/><ellipse id="Ellipse_381" data-name="Ellipse 381" cx="103.53" cy="253.44" rx="55.47" ry="2.77" style="fill:#9faad4;opacity:0.219999998807907;isolation:isolate"/></g></g></svg>