<svg xmlns="http://www.w3.org/2000/svg" viewBox="0 0 300.83 252.81"><g id="Layer_2" data-name="Layer 2"><g id="Report"><path d="M165.05,64.78c-.24.3-.48.6-.74.88a5.84,5.84,0,0,1,.65-.35Z" fill="none"/><path d="M164.43,97.24c-.63-1.82-1.23-3.65-1.88-5.43-.91-2.45-1.84-4.9-2.81-7.33.7,2.35,1.34,4.73,2,7.07,1.84,6.22,3.62,12.48,5.29,18.78.16-.81.31-1.62.46-2.43-.41-1.23-.75-2.48-1.1-3.64C165.7,101.94,165.05,99.59,164.43,97.24Z" fill="none"/><path d="M213.89,182.82l.28,0,0-.09Z" fill="none"/><path d="M42.57,134q-.12-.78-.27-1.56c-.16-.87-.33-1.73-.53-2.58-.39-1.71-.84-3.42-1.35-5.1-.56-1.84-1.21-3.66-1.93-5.45l-.08-.22-.14-.28c-.15-.32-.29-.64-.43-1s-.42-.88-.64-1.31c-.4,1.82-.75,3.66-1,5.5s-.26,1.61-.45,3.33c-.15,1.41-.28,2.83-.38,4.26Q35,134,35,138.25c-.09,10.64,1.24,21.18,1.76,31.78a22.9,22.9,0,0,1,1-3.38,97.56,97.56,0,0,0,3.77-10.78c.47-1.88.83-3.77,1.14-5.67,0-.09,0-.17,0-.23s0-.15,0-.24c0-.35.07-.69.11-1,.09-1,.17-1.93.22-2.89a67.63,67.63,0,0,0-.35-10.74C42.69,135,42.59,134.15,42.57,134Z" fill="none"/><path d="M158.56,72.28a4.24,4.24,0,0,1,1-.91,2.63,2.63,0,0,1,1.35-.43,2.76,2.76,0,0,1,.4-.06,6.93,6.93,0,0,1,1.54-3.94,5.68,5.68,0,0,1-1.44.66,14.17,14.17,0,0,1-3.65,3.3,9.24,9.24,0,0,1-4.65,1.55,12.7,12.7,0,0,1,3.78,4.43,11,11,0,0,1-.19-1.62A3.15,3.15,0,0,1,158.56,72.28Z" fill="none"/><path d="M171.2,78.25c0,.21.05.43.07.64l.15-1.55c-.06.23-.11.47-.17.7A1.6,1.6,0,0,0,171.2,78.25Z" fill="none"/><path d="M93.1,175.64c.35-.47.24-.63.26,0a4.12,4.12,0,0,1,2-3.56,3.75,3.75,0,0,1,.71-.61,5.19,5.19,0,0,1-1.7-4.1c1.33-14.25-.57-27.89-2.84-41.46-.29-1.7-.57-3.4-.86-5.11-.22.61-.45,1.22-.69,1.82-.67,1.7-1.35,3.4-2,5.11l-.06.58c-.08.8-.15,1.6-.2,2.4a42,42,0,0,0,0,4.76c0,.52.07,1,.13,1.55,0,.14.11.71.15.91.07.41.16.82.25,1.23.81,3.68,2.12,7.23,3.12,10.86a53.46,53.46,0,0,1,1.85,11.59,49.65,49.65,0,0,1-2.09,16.6c.41-.5.84-1,1.25-1.49C92.64,176.37,92.83,176,93.1,175.64Z" fill="none"/><path d="M72.62,113.18c.12.32.12.29,0-.09a72,72,0,0,1-8.5-8.78c-2.64-3-5.62-6.31-7.64-9.8-1.57-2.73,1.33-5.07,3.74-4.16-.41-.43-.8-.88-1.18-1.34a3.69,3.69,0,0,1-2.21.92,12.1,12.1,0,0,1-4.92-.78,106.48,106.48,0,0,0,9.48,12.78c3.8,4.35,8.17,8.19,11.56,12.88A2.93,2.93,0,0,1,72.62,113.18Z" fill="none"/><path d="M79,91.7l-.09-.78c-.1.2-.21.4-.33.59A3.17,3.17,0,0,1,79,91.7Z" fill="none"/><path d="M73.38,115.38c.1.16.22.31.32.47l.32.5.67,0A3.75,3.75,0,0,1,73.38,115.38Z" fill="none"/><path d="M149.89,171a3.68,3.68,0,0,1,.38.31A1.91,1.91,0,0,0,149.89,171Z" fill="none"/><path d="M119.58,191.77l-1-.1c0,.39,0,.77,0,1.15l.59,0A6.16,6.16,0,0,1,119.58,191.77Z" fill="none"/><path d="M300.34,232.68c0-1.35-.06-2.7-.07-4-.07-11.1-.28-22.19-.18-33.28,0-1.4,0-2.8.05-4.2l-6.57,0c-21.74-.1-43.48.09-65.22.42a34.36,34.36,0,0,1,7.78,1.73A68.83,68.83,0,0,1,254,202.61a7.41,7.41,0,0,1,1.35,1.26,6.06,6.06,0,0,1,2.42,3.21,5.72,5.72,0,0,1-4,7c-12.77,3.18-25.53,6.42-38.31,9.55-6.4,1.57-12.86,2.85-19.27,4.37q-4.63,1.09-9.29,2.16c-3.27.76-7.48,2.37-10.79,1.56a3.56,3.56,0,0,1-.75-.3,3.81,3.81,0,0,1-1.57-.65c-4.78-3.49-9.73-6.69-14.73-9.84-2.49-1.58-5.05-3.07-7.53-4.65s-5.2-2.85-7.58-4.53c-3.15-2.24-1.32-7.52,2.72-6.44q.45.12.9.27a3.92,3.92,0,0,1,.51-.22c3.94-1.4,8.26-1.77,12.37-2.48,4-.67,7.9-1.32,11.84-2,2.17-.38,4.33-.78,6.49-1.18,1.13-1,2.22-1.95,3.41-2.83a10.55,10.55,0,0,1,5.35-2.4,14.93,14.93,0,0,1,4.82.7,11.92,11.92,0,0,0,7.14-.41c1.25-.41,2.46-1,3.75-1.3a9.79,9.79,0,0,1,5.05.13c1.33-.28,2.66-.56,4-.82l-.4-.36a3.18,3.18,0,0,1-1.29-.15l-.83-.34-7.26.13c-8.53.17-17,.47-25.57.83l-4.49.17-3.89.05c0,.11.06.21.08.31.94,5.08-3.7,8.49-8.33,6.4a4.63,4.63,0,0,1-.58-.31c-1,.14-2.12.23-3.19.35l-6.33.66q-6,.6-12,1.05-6.18.47-12.35.81a96.45,96.45,0,0,1-12.37.35c-2.9-.21-5.41-2.81-4.48-5.88a15.22,15.22,0,0,0,.55-2.75q-18.8.13-37.61,0-16.36-.12-32.74-.44l.31.36c1.66,1.92,3.28,3.87,4.93,5.8,3.37,3.95,6.72,7.91,10.18,11.78q2.36,2.63,4.75,5.2a14.84,14.84,0,0,1,3.77-1.06c1.77-.35,3.55-.64,5.33-.95l10.67-1.87c7-1.23,14.11-2.5,21.19-3.48a31.5,31.5,0,0,1,11.29.1,51.77,51.77,0,0,1,9.76,3.75q9.72,4.37,19.36,8.88c2.7-.39,5.39.75,6.17,3.61.68,2.47-.85,5.86-3.59,6.32-12.56,2.08-25.14,4.11-37.73,6-6.37,1-12.75,1.84-19.12,2.72-3.09.43-6.23,1.07-9.34,1.23a8.13,8.13,0,0,1-5.58-1.63l-.24,0c-2.65-.53-4.87-3.55-6.74-5.5-2.52-1.19-4.73-3.56-6.64-5.45-2.18-2.18-4.28-4.44-6.41-6.66-4.11-4.3-8.15-8.67-12.16-13.06-4.85-5.31-9.65-10.75-14.18-16.39-6.07-.15-19.19-.34-25.26-.5v56.57c1.82-.06,8.36-.13,10.17-.19,4.89.15,9.77.27,14.63.43,13,.44,26,.84,39,1.07q39,.68,77.93,1.14,77.54.94,155.07,1h3.46C300.19,246.1,300.2,239.4,300.34,232.68Z" fill="#ddddca"/><path d="M39.44,209.68c4,4.39,8.05,8.76,12.16,13.06,2.13,2.22,4.23,4.48,6.41,6.66,1.91,1.89,4.12,4.26,6.64,5.45,1.87,2,4.09,5,6.74,5.5l.24,0A8.13,8.13,0,0,0,77.21,242c3.11-.16,6.25-.8,9.34-1.23,6.37-.88,12.75-1.76,19.12-2.72,12.59-1.9,25.17-3.93,37.73-6,2.74-.46,4.27-3.85,3.59-6.32-.78-2.86-3.47-4-6.17-3.61q-9.65-4.53-19.36-8.88a51.77,51.77,0,0,0-9.76-3.75,31.5,31.5,0,0,0-11.29-.1c-7.08,1-14.14,2.25-21.19,3.48l-10.67,1.87c-1.78.31-3.56.6-5.33.95a14.84,14.84,0,0,0-3.77,1.06q-2.4-2.58-4.75-5.2c-3.46-3.87-6.81-7.83-10.18-11.78-1.65-1.93-3.27-3.88-4.93-5.8l-.31-.36c-1.72-2.06-3.37-4.49-6.21-4.75a2.35,2.35,0,0,0-1.26.31c-3.7-3.73-7.48-7.38-11.39-10.85-2.05-1.81-5.71.56-4,3.09,2.76,4.07,5.74,8,8.84,11.88C29.79,198.93,34.59,204.37,39.44,209.68Z" fill="#d3dce0"/><path d="M225.48,193.7c-1.54,2.91-5.21,3.39-7.93,2.07a25.13,25.13,0,0,1-5.2-3c-1.33.26-2.66.54-4,.82a10.16,10.16,0,0,1,1.94.82,5.29,5.29,0,0,1,2,1.93.71.71,0,0,1,.14.1,3.4,3.4,0,0,1,1.35,2.67,4.94,4.94,0,0,1-.66,2.28,3.63,3.63,0,0,1-.89,1.13,7.12,7.12,0,0,1-.79,1.1c-7.53,8.46-19.39,9.93-30,10.67-3.33.24-5.84-2.85-6.06-5.89a3.74,3.74,0,0,1-.75-4.56,15.85,15.85,0,0,1,4-4l.22-.19c-2.16.4-4.32.8-6.49,1.18-3.94.69-7.89,1.34-11.84,2-4.11.71-8.43,1.08-12.37,2.48a3.92,3.92,0,0,0-.51.22q-.45-.15-.9-.27c-4-1.08-5.87,4.2-2.72,6.44,2.38,1.68,5.12,3,7.58,4.53s5,3.07,7.53,4.65c5,3.15,9.95,6.35,14.73,9.84a3.81,3.81,0,0,0,1.57.65,3.56,3.56,0,0,0,.75.3c3.31.81,7.52-.8,10.79-1.56q4.65-1.06,9.29-2.16c6.41-1.52,12.87-2.8,19.27-4.37,12.78-3.13,25.54-6.37,38.31-9.55a5.72,5.72,0,0,0,4-7,6.06,6.06,0,0,0-2.42-3.21,7.41,7.41,0,0,0-1.35-1.26,68.83,68.83,0,0,0-17.89-9.32,34.36,34.36,0,0,0-7.78-1.73c-.73-.08-1.47-.13-2.21-.17A6.45,6.45,0,0,1,225.48,193.7Z" fill="#fff"/><path d="M113.56,202.68a96.45,96.45,0,0,0,12.37-.35q6.18-.35,12.35-.81,6-.45,12-1.05l6.33-.66c1.07-.12,2.14-.21,3.19-.35a4.63,4.63,0,0,0,.58.31c4.63,2.09,9.27-1.32,8.33-6.4,0-.1,0-.2-.08-.31-.61-2.49-3-4.75-4.61-6.72s-3.22-4.12-5.93-4.85c-2.2-.6-4.71-.31-7-.28l-7.15.1q-7,.1-13.95.24l-6.81.14c-2.55.05-5.35,0-7.81.72a4.82,4.82,0,0,0-2.13,1.34,3.3,3.3,0,0,0-3,2.78c-.46,2.45-.36,5-.66,7.52a15.22,15.22,0,0,1-.55,2.75C108.15,199.87,110.66,202.47,113.56,202.68Zm5-11,1,.1a6.16,6.16,0,0,0-.49,1l-.59,0C118.52,192.44,118.53,192.06,118.53,191.67Z" fill="#f5eae0"/><path d="M37.46,172c.82.64,1.68,1.22,2.36,1.75,2.16,1.67,5.08,1.42,7.69,1.55,4,.19,9.66.95,13.27-.91,3.4-1.76,5.75-5.2,7.13-8.68,1.82-4.58,3.11-9.46,4.48-14.2.71-2.47,2-5,2-7.65a2.16,2.16,0,0,1,.12-.8c.27-.61,1.08-.73,1.74-.64a3.71,3.71,0,0,0,2,0l2.13,8.17c1.14,4.35,2.33,8.81,4.69,12.68.91,1.49,2.38,4,4.11,4.41s4.45-.61,5.84-1.68a7,7,0,0,0,1.8-1.89,6.91,6.91,0,0,0,.7-4.07,15.76,15.76,0,0,0-2.23-7c-1.38-2.3-3.32-4.2-4.85-6.4-2-2.9-1.9-5.49-2.5-8.75,0-.2-.12-.77-.15-.91-.06-.52-.1-1-.13-1.55a42,42,0,0,1,0-4.76c0-.8.12-1.6.2-2.4l.06-.58c.66-1.71,1.34-3.41,2-5.11.24-.6.47-1.21.69-1.82.29,1.71.57,3.41.86,5.11,2.27,13.57,4.17,27.21,2.84,41.46a4.74,4.74,0,0,0,.85,3.07c.86,1.22,1.17.82,2.49.81,3.08,0,6.53,1,9.58,1.49a.79.79,0,0,0,1.11-.84,69.88,69.88,0,0,0,.38-9c-.06-2.62-.67-5.14-.56-7.73.29-6.22.51-12.45.62-18.68a40.06,40.06,0,0,0-.45-8.19,31.86,31.86,0,0,0-2.46-7.09,22,22,0,0,1-1.62-6.58A124.61,124.61,0,0,0,101,99.31c-.74-2.61-1.56-5.2-2.11-7.85a61.89,61.89,0,0,1-1.07-9.2c-.08-1.48-.26-3.18-1.5-4a4.65,4.65,0,0,0-2.21-.56c-1.86-.15-3.88-.08-5.62-.76-1.57-.62-2.55-1.25-4.37-.66a7.25,7.25,0,0,0-3.23,2.28,4,4,0,0,0-3,3.47,11.11,11.11,0,0,0,0,1.29,37.54,37.54,0,0,0,1.4,4.07,4.4,4.4,0,0,1-.33,3.52l.09.78a4.17,4.17,0,0,1,1.41,5.49,5.75,5.75,0,0,1-.5.75,4,4,0,0,1,.2,1.25c0,2.65-.28,5.29-.31,7.94s.55,5.39-.63,7.83a3.35,3.35,0,0,1-4.5,1.36l-.67,0-.32-.5c-.1-.16-.22-.31-.32-.47a2.54,2.54,0,0,1-.4-.57c-3.39-4.69-7.76-8.53-11.56-12.88a106.48,106.48,0,0,1-9.48-12.78,13.8,13.8,0,0,1-2.29-1.09,20.62,20.62,0,0,1-5.21-4.6,25.08,25.08,0,0,1-3.19-4.81,5.33,5.33,0,0,0-3.23-.1c-6,1.83-8.5,7.49-9.4,13.26-.49,3.14-.83,6-1.48,9.11-.69,3.32-1.51,6.62-2.27,9.93a160,160,0,0,0-4.21,41.37c.29,7.78,1,16.06,3.42,23.49a3.73,3.73,0,0,0,4.09,2.67,3.78,3.78,0,0,0,1.3-.44c.28-.15,2.41.46,3,.38a5.11,5.11,0,0,0,3-1.37c1.6-1.8,1.38-4.82,1.29-7-.14-3.2-.38-6.39-.62-9.59-.56-7.34-1.18-14.7-1.12-22.07q0-4.31.34-8.59c.1-1.43.23-2.85.38-4.26.19-1.72.18-1.64.45-3.33s.64-3.68,1-5.5c.22.43.43.87.64,1.31s.28.64.43,1l.14.28.08.22c.72,1.79,1.37,3.61,1.93,5.45.51,1.68,1,3.39,1.35,5.1.2.85.37,1.71.53,2.58.46,2.48-.69,5.26-1.32,7.66-.75,2.83-1.57,5.64-2.37,8.45a118.37,118.37,0,0,0-3.88,17,6.82,6.82,0,0,0,.15,3.42A7.77,7.77,0,0,0,37.46,172Z" fill="#373d60"/><path d="M95,167.53a1,1,0,0,0-.6-.17c-3-.2-5.48.34-7.91-2a18.08,18.08,0,0,1-3.71-6.15c-2-4.56-4-9.24-4.29-14.2,0-.38-.06-.78-.11-1.19a6.54,6.54,0,0,0,0-1.65c-1.1-11.95,1.3-23.33,1.44-35.07,0-2.65.34-5.29.31-7.94a4,4,0,0,0-.2-1.25,5.75,5.75,0,0,0,.5-.75A4.17,4.17,0,0,0,79,91.7a3.17,3.17,0,0,0-.42-.19A4.21,4.21,0,0,1,77,93.05a13.88,13.88,0,0,1-4.76,1.38,5.76,5.76,0,0,1-5.94.24,20.08,20.08,0,0,1-6-4.32c-2.41-.91-5.31,1.43-3.74,4.16,2,3.49,5,6.76,7.64,9.8a72,72,0,0,0,8.5,8.78c.41,1.62,1.42,2.2,2,3.58,1,2.32.58,5.88.67,8.37.17,5.34.07,10.69-.29,16-2.87,5.41-3.51,11.78-5,17.77-1.56,6.45-4.71,13.26-10.84,15.79a19.84,19.84,0,0,1-8.93,1.06,44.84,44.84,0,0,1-13.47-3.05c-1,3.82-.19,9.89,3.16,12.52,2.63,2.07,7.57,2,10.72,2.08L83,187.9a6.49,6.49,0,0,0,4.26-1.65,2.23,2.23,0,0,1-.37-2.95c1.71-2.43,3.93-4.83,5.1-7.56q1.48-3.45,3-6.9C95.17,168.41,95.33,167.83,95,167.53Z" fill="#54222b"/><path d="M80.56,51.83c-3-.81-5.73-2.67-8.36-4.51-3,.36-6.52-.64-9.13-1.55-1.56-.56-3.12-1.14-4.7-1.64a102.06,102.06,0,0,1-1.09,15.93,75.89,75.89,0,0,0-.75,11.07c0,1.71.17,3.42.12,5.13a18.84,18.84,0,0,1-.34,3.35,5.62,5.62,0,0,1-.77,1.75c1,.83,2,1.54,3,2.3A3.42,3.42,0,0,1,59.07,89c.38.46.77.91,1.18,1.34a20.08,20.08,0,0,0,6,4.32,5.76,5.76,0,0,0,5.94-.24A13.88,13.88,0,0,0,77,93.05a4.21,4.21,0,0,0,1.64-1.54c.12-.19.23-.39.33-.59a4.4,4.4,0,0,0,.33-3.52,37.54,37.54,0,0,1-1.4-4.07q-.27-1-.51-1.92a7.06,7.06,0,0,0,1-1.94,49.49,49.49,0,0,0,2.54-11.06,6.33,6.33,0,0,0,1.26-2.28,33.41,33.41,0,0,0,1.14-14.76A3.31,3.31,0,0,1,80.56,51.83Z" fill="#f7dbbc"/><path d="M103.15,173.08a7.16,7.16,0,0,0-3.61-1.75l-.56-.1h-.23a4.62,4.62,0,0,0-2.18.21,5.63,5.63,0,0,0-1.24.65,4.12,4.12,0,0,0-2,3.56c0-.63.09-.47-.26,0s-.46.73-.75,1.08c-.41.5-.84,1-1.25,1.49-.18.2-.35.4-.52.61-1.15,1.45-2.22,3-3.28,4.48a2.23,2.23,0,0,0,.36,2.95,2.4,2.4,0,0,0,3.61.12c.43-.51.87-1,1.32-1.47a16.29,16.29,0,0,0,.19,2.61c-.15-1,0,.56.21,1a7,7,0,0,0,.7,1.52,4,4,0,0,0,6.16.79,6.18,6.18,0,0,0,1.15-1.29,5,5,0,0,0,4.6-2.55,11.55,11.55,0,0,0,.57-9.51c-.13-.35-.27-.7-.43-1A10.19,10.19,0,0,0,103.15,173.08Z" fill="#f7dbbc"/><path d="M99,171.23c1.27.08-.68-.14,0,0Z" fill="#f1b18a"/><path d="M49.65,88.06a13.8,13.8,0,0,0,2.29,1.09,12.1,12.1,0,0,0,4.92.78A3.69,3.69,0,0,0,59.07,89a3.42,3.42,0,0,0-.51-5.35c-1.05-.76-2-1.47-3-2.3a5.62,5.62,0,0,0,.77-1.75,18.84,18.84,0,0,0,.34-3.35c.05-1.71-.08-3.42-.12-5.13a75.89,75.89,0,0,1,.75-11.07,102.06,102.06,0,0,0,1.09-15.93c1.58.5,3.14,1.08,4.7,1.64,2.61.91,6.09,1.91,9.13,1.55,2.63,1.84,5.33,3.7,8.36,4.51a3.31,3.31,0,0,0,2.77-.46,3.65,3.65,0,0,0,1.56-2.84c.3-6.09-5.24-11.44-10.24-14.14a28.29,28.29,0,0,0-8-3.18,25.11,25.11,0,0,0-4.58-.53A6.8,6.8,0,0,0,58,31.79a9.6,9.6,0,0,0-5.64,1c-2.11-.16-4.72.83-5.65,2.88C42.17,45.66,38,57,38.75,68.08a30.34,30.34,0,0,0,1.46,8.12,23.72,23.72,0,0,0,1,2.45,25.08,25.08,0,0,0,3.19,4.81A20.62,20.62,0,0,0,49.65,88.06Z" fill="#cc6f53"/><path d="M209.5,184.41a6.25,6.25,0,0,1-2.2.14c-3-.37-5.23-2.12-5.5-5.23a2.43,2.43,0,0,1-1-3.51,16.45,16.45,0,0,0,1.63-3c.18-.46.36-.91.5-1.38.07.56.07.51,0-.15a9.91,9.91,0,0,1-.12-1.08,3.38,3.38,0,0,1,.52-2.08,4.42,4.42,0,0,1,2.33-6.85c1.81-.71,3.73-.37,5.58,0a7.24,7.24,0,0,1,3.94,2l.31.22a4.06,4.06,0,0,1,1.8,4.42,3.9,3.9,0,0,1-1.13,1.82,5.1,5.1,0,0,1,.55,2.13c0,.27,0,.53,0,.79,1.86-2.76,3.71-5.52,5.58-8.28.27-4,.18-8,.22-11.42q.26-20-1.23-39.89-.72-9.87-1.88-19.7c-.76-6.43-1-13.14-4.15-19-6.91-12.75-21.56-16.67-34.74-19.2A6.23,6.23,0,0,0,174,57.49c0,1-.06,1.92-.1,2.83-.14,3-.46,5.91-.89,8.85q-.61,4.13-1.62,8.17l-.15,1.55c.17,1.33.35,2.66.52,4,.6,4.76,1.31,9.62,1.65,14.46a24.76,24.76,0,0,1,1.44,8.54,2.77,2.77,0,0,1-.24,1,11.79,11.79,0,0,1,.75,3c.24,2.79-3.85,4.46-5.63,2.34a13.3,13.3,0,0,1-2.24-4.37c-.15.81-.3,1.62-.46,2.43-1.67-6.3-3.45-12.56-5.29-18.78-.69-2.34-1.33-4.72-2-7.07l-.36-.92a38.47,38.47,0,0,1-2.46-6.68,12.7,12.7,0,0,0-3.78-4.43,6.61,6.61,0,0,1-1.94-.26,5.28,5.28,0,0,1-2.28-1.3,5.78,5.78,0,0,0-4.34,1.18,5.56,5.56,0,0,0-2.35,4.68,89.57,89.57,0,0,0,3.82,16.06c1.54,4.84,3.33,10.34,4,15,.1.64.26,2.4.33,3.48.09,1.42.14,2.85.16,4.28,0,2.87,0,5.73-.12,8.59-.18,5.66-.41,11.31-.38,17,0,6.54.1,13.08.08,19.63a3.62,3.62,0,0,0,0,.47,11.19,11.19,0,0,1,3.46-.1,7.54,7.54,0,0,1,5,2.17,6,6,0,0,0,.85-2.54c.74-7,1.34-14.07,1.8-21.14q.71,3.66,1.32,7.34.39,2.41.75,4.83c0,.14.23,1.64.25,1.8.12.9.23,1.8.34,2.71A199.87,199.87,0,0,1,165.39,180a6.22,6.22,0,0,0,6.13,6.13l20.25-.4,9.79-.2a36.16,36.16,0,0,0,7.46-.72,1.09,1.09,0,0,1,.17-.13A2.42,2.42,0,0,1,209.5,184.41Z" fill="#566f7d"/><path d="M213.68,181.9a10.1,10.1,0,0,1-2.49,1.87,2.81,2.81,0,0,1,.5,0,3.46,3.46,0,0,1,.52-.32,6.63,6.63,0,0,1,1.68-.59l.23-.14A4.6,4.6,0,0,1,213.68,181.9Z" fill="#566f7d"/><path d="M164.43,97.24c-.08-.32-.17-.64-.25-.95a128.73,128.73,0,0,1-3-16.41,2.21,2.21,0,0,1,.25-1.35l-.24,0a2.86,2.86,0,0,1-1.35-.43l-.73-.57a5.33,5.33,0,0,1-.67-.91l-.12-.26a3.59,3.59,0,0,1-.49-1.83l.13-1a2.91,2.91,0,0,1,.63-1.25,3.15,3.15,0,0,0-1.83,3,11,11,0,0,0,.19,1.62,38.47,38.47,0,0,0,2.46,6.68l.36.92c1,2.43,1.9,4.88,2.81,7.33C163.2,93.59,163.8,95.42,164.43,97.24Z" fill="#d8d7d6"/><path d="M165.05,64.78l-.09.53a5.84,5.84,0,0,0-.65.35q-.27.3-.57.6a5.15,5.15,0,0,1-.86.68,6.93,6.93,0,0,0-1.54,3.94,2.65,2.65,0,0,1,1,.12,2.71,2.71,0,0,1,1.23.65,2.66,2.66,0,0,1,.93,1,6.67,6.67,0,0,1,.59,1.31,4.1,4.1,0,0,1-.37,2.79,4.29,4.29,0,0,1-.36.48,2.3,2.3,0,0,1,2.13,1.92A125.19,125.19,0,0,0,170,94.68c.75,2.55,1.62,5.06,2.59,7.54.6,1.53,1.42,3.09,2,4.68a2.77,2.77,0,0,0,.24-1,24.76,24.76,0,0,0-1.44-8.54c-.34-4.84-1.05-9.7-1.65-14.46-.17-1.32-.35-2.65-.52-4,0-.21-.05-.43-.07-.64a1.6,1.6,0,0,1,.05-.21c.06-.23.11-.47.17-.7q1-4.05,1.62-8.17c.43-2.94.75-5.88.89-8.85,0-.91.09-1.87.1-2.83a18.77,18.77,0,0,0-.85-6.46,3.4,3.4,0,0,0-6.38-.29c.1.2.19.4.28.62A14,14,0,0,1,165.05,64.78Z" fill="#d8d7d6"/><path d="M153.61,161.1a11.19,11.19,0,0,0-3.46.1,5.78,5.78,0,0,0-3.25,1.74,3.5,3.5,0,0,0-.87,3.38,14.87,14.87,0,0,1,2.35-3.61c1.8-1.84,4.94-2.06,7.21-1.1s4.31,3.34,4,5.93a2.62,2.62,0,0,0,.23-2.28,5.86,5.86,0,0,0-1.19-2A7.54,7.54,0,0,0,153.61,161.1Z" fill="#d8d7d6"/><path d="M208.27,166c.72.3,1.75.76,2.12.87a3,3,0,0,0,1.6.14,4.56,4.56,0,0,1,4.19,2.61,3.9,3.9,0,0,0,1.13-1.82,4.06,4.06,0,0,0-1.8-4.42l-.31-.22a7.24,7.24,0,0,0-3.94-2c-1.85-.34-3.77-.68-5.58,0a4.42,4.42,0,0,0-2.33,6.85C204.33,166.42,206.49,165.27,208.27,166Z" fill="#d8d7d6"/><path d="M155.59,161.61c-2.27-1-5.41-.74-7.21,1.1a14.87,14.87,0,0,0-2.35,3.61l-.41.81c-1.64,3.19-2.76,8.28,1.85,9.58a3.13,3.13,0,0,0,3.7-1.82,3,3,0,0,0-.32-2.95c.2-.45.58-.93.83-1.36a2,2,0,0,0,.35,0l.58.4c.06.36.12.73.17,1.11a19,19,0,0,0,1.4,5.55c1,2.16,4.87,1.72,5.3-.7a18.75,18.75,0,0,0-.14-5.74c-.09-.69-.16-1.36-.25-2l.15-.33a5,5,0,0,0,.35-1.31C159.9,165,158,162.61,155.59,161.61Zm-5.32,9.68a3.68,3.68,0,0,0-.38-.31A1.91,1.91,0,0,1,150.27,171.29Z" fill="#f0b78f"/><path d="M213.9,176.8l2.84-4.24c0-.26,0-.52,0-.79a5.1,5.1,0,0,0-.55-2.13A4.56,4.56,0,0,0,212,167a3,3,0,0,1-1.6-.14c-.37-.11-1.4-.57-2.12-.87-1.78-.75-3.94.4-4.92,2.06a3.38,3.38,0,0,0-.52,2.08,9.91,9.91,0,0,0,.12,1.08c.09.66.09.71,0,.15-.14.47-.32.92-.5,1.38a16.45,16.45,0,0,1-1.63,3,2.43,2.43,0,0,0,1,3.51c.27,3.11,2.51,4.86,5.5,5.23a6.25,6.25,0,0,0,2.2-.14,4.07,4.07,0,0,1,1.69-.64,10.1,10.1,0,0,0,2.49-1.87A5.49,5.49,0,0,1,213.9,176.8Z" fill="#f0b78f"/><path d="M151.2,72.19a6.61,6.61,0,0,0,1.94.26,9.24,9.24,0,0,0,4.65-1.55,14.17,14.17,0,0,0,3.65-3.3,5.68,5.68,0,0,0,1.44-.66,5.15,5.15,0,0,0,.86-.68q.3-.3.57-.6c.26-.28.5-.58.74-.88a14,14,0,0,0,2-13.42c-.09-.22-.18-.42-.28-.62A5.89,5.89,0,0,0,160,47.35c1.15-.2-.46-.07-.83-.05l-.62-.16-.15,0a6.61,6.61,0,0,0-.74-2.8,15.58,15.58,0,0,0-1.05-1.75L155.3,40.3a5.57,5.57,0,0,0-3.59-2.67l-.62-.41a4.2,4.2,0,0,1-.76,1.8,5.69,5.69,0,0,1-.77.84,5.52,5.52,0,0,1,.54,3.73,4,4,0,0,1-2.9,2.9,5.57,5.57,0,0,1-3.9-.62c-.38-.22-.73-.48-1.1-.7a9.47,9.47,0,0,1-3.47-3,39.56,39.56,0,0,1-3.36,4.06c-2,2.12-5.11,5.16-8.31,6.08a18.11,18.11,0,0,0,4.1,6.27,55.65,55.65,0,0,0,6.32,6.06c2.67,2.1,5.66,4.1,9,4.86a9.25,9.25,0,0,0,1.53.22,5.07,5.07,0,0,0,.89,1.19A5.28,5.28,0,0,0,151.2,72.19Z" fill="#f0b78f"/><path d="M300.8,131.16A134.25,134.25,0,0,0,293.14,117c-1.81-3-3.63-6-5.28-9.12-.78-1.46-1.53-2.94-2.22-4.44l-.32-.72c-.05-.13-.27-.63-.33-.77-.38-1-.73-1.92-1.06-2.89-2.41-7.19-3.46-14.72-4.91-22.13A77.31,77.31,0,0,0,272.68,57c-3-6-7.68-12.28-13.78-15.27-3.45-1.7-7.51-2.65-11.28-1.43a11.63,11.63,0,0,0-7.73,9.45,2,2,0,0,0-.07.23c-2.11,9.66-4.17,19.36-5,29.24s-.32,19.69,0,29.53c.33,9.31.65,18.66-.36,27.94l-.12,1c0,.05-.13,1-.14,1-.1.73-.22,1.46-.34,2.18-.35,2-.77,4.07-1.27,6.07-.3,1.2-.63,2.4-1,3.58a6.65,6.65,0,0,0-.46.59l-8.89,13.12c-1.87,2.76-3.72,5.52-5.58,8.28l-2.84,4.24a5.49,5.49,0,0,0-.22,5.1,4.6,4.6,0,0,0,.44.78l0,.09a9,9,0,0,1,5.43,1.2c1.26.62,2.5,1.25,3.8,1.8,2,.87,2.89,3.13,2.77,5.27a9.51,9.51,0,0,0,1.41.06,7.21,7.21,0,0,0,4.2-1.36,10.21,10.21,0,0,0,2.36-3.12q1.67-2.79,3.25-5.63,3-5.28,5.62-10.7,4.11-8.37,7.59-17l.28.3,0,1.76a4.09,4.09,0,0,0-.16,1.68c0,.3.06.59.1.88q-.36,12.47-1.6,24.87c-.3,3,2.93,6.09,5.86,5.86a344.73,344.73,0,0,1,44.65-.6h0a5.2,5.2,0,0,1,.22-1.7c.09-.32.16-.65.25-1l.15-11.75a5.9,5.9,0,0,1,0-2.74C300.59,157.6,300.77,144.38,300.8,131.16Z" fill="#575757"/><path d="M226.2,56.21c-.58,3.08-.62,6.24.74,8.88s5.58,2,6.26-.82c.54-2.2.31-4.51.75-6.74a47.78,47.78,0,0,1,2-6.72,101.24,101.24,0,0,0,4.23-13.48c.7-3.38-4-5.73-5.8-2.44-.15.27-.29.55-.44.83a41.18,41.18,0,0,1-6.26,18.89A6.46,6.46,0,0,1,226.2,56.21Z" fill="#cbf5e4"/><path d="M212,192.37l.4.36a25.13,25.13,0,0,0,5.2,3c2.72,1.32,6.39.84,7.93-2.07a6.45,6.45,0,0,0,.66-2.31c0-.12,0-.23,0-.35.12-2.14-.72-4.4-2.77-5.27-1.3-.55-2.54-1.18-3.8-1.8a9,9,0,0,0-5.43-1.2l-.28,0a6.63,6.63,0,0,0-1.68.59,3.46,3.46,0,0,0-.52.32,2.81,2.81,0,0,0-.5,0,4.07,4.07,0,0,0-1.69.64,2.42,2.42,0,0,0-.31.25,1.09,1.09,0,0,0-.17.13,3.2,3.2,0,0,0-1,1.08l-.43,1a4.24,4.24,0,0,0,0,2.29l.43,1a4.45,4.45,0,0,0,1.56,1.55l.2.09.83.34A3.18,3.18,0,0,0,212,192.37Z" fill="#cbf5e4"/><path d="M174.65,203.8a3.74,3.74,0,0,0,.75,4.56c.22,3,2.73,6.13,6.06,5.89,10.64-.74,22.5-2.21,30-10.67a7.12,7.12,0,0,0,.79-1.1,3.63,3.63,0,0,0,.89-1.13,4.94,4.94,0,0,0,.66-2.28,3.4,3.4,0,0,0-1.35-2.67.71.71,0,0,0-.14-.1,5.29,5.29,0,0,0-2-1.93,10.16,10.16,0,0,0-1.94-.82,9.9,9.9,0,0,0-5.05-.13c-1.29.3-2.5.89-3.75,1.3a11.92,11.92,0,0,1-7.14.41,14.93,14.93,0,0,0-4.82-.7,10.55,10.55,0,0,0-5.35,2.4c-1.19.88-2.28,1.87-3.41,2.83l-.22.19A15.85,15.85,0,0,0,174.65,203.8Z" fill="#9a704b"/><path d="M234.3,29.15a38.24,38.24,0,0,0-8.82-19.86c-5.8-6.89-16.43-11.71-25.28-8-6.1,2.54-11.06,10.4-12.08,16.78-1.13,7,.85,13.86,3.13,20.44.75,2.16,2,4.4,4.21,5.07,3,.91,3.13-.35,4.43,2.63,1.05,2.39,1.06,5.86,1.16,8.43,0,.36,4.7-1,5.17-1,0,.5.22,2.42.92,2.54,1.37.23.91.93,1.94,1.45,1.81.9,2.39,1,3.49,2.17s1,3,3.32,3.28c2.11.27,3.36-1,4.86-2.15a25.14,25.14,0,0,0,2.8-3.37,5.94,5.94,0,0,0,3.4-1.3,6.7,6.7,0,0,0,1.44-1.6A38.34,38.34,0,0,0,234.3,29.15Z" fill="#9a704b"/><path d="M135.37,46.21a39.56,39.56,0,0,0,3.36-4.06,9.47,9.47,0,0,0,3.47,3c.37.22.72.48,1.1.7a5.57,5.57,0,0,0,3.9.62,4,4,0,0,0,2.9-2.9,5.52,5.52,0,0,0-.54-3.73,5.69,5.69,0,0,0,.77-.84,4.2,4.2,0,0,0,.76-1.8c.49-3-2.57-6.24-4.77-7.83-2.49-1.81-6.31-2.46-8.88-.76a3.63,3.63,0,0,0-3-.14,17.58,17.58,0,0,0-7.05,5.82c-.46.53-.9,1.08-1.32,1.67A23,23,0,0,0,123.75,40a1,1,0,0,0-.08.14,33.25,33.25,0,0,0-2.83,6.91,9,9,0,0,0-.45,4.3c.32,1.4,1.58,3.08,3.23,2.92a4.1,4.1,0,0,0,3.23-1.95l.21-.06C130.26,51.37,133.34,48.33,135.37,46.21Z" fill="#603d33"/><path d="M172.62,102.22c-1-2.48-1.84-5-2.59-7.54a125.19,125.19,0,0,1-3.5-15.52,2.3,2.3,0,0,0-2.13-1.92,4.29,4.29,0,0,0,.36-.48,4.1,4.1,0,0,0,.37-2.79,6.67,6.67,0,0,0-.59-1.31,2.66,2.66,0,0,0-.93-1,2.71,2.71,0,0,0-1.23-.65,2.65,2.65,0,0,0-1-.12,2.76,2.76,0,0,0-.4.06,2.63,2.63,0,0,0-1.35.43,4.24,4.24,0,0,0-1,.91,2.91,2.91,0,0,0-.63,1.25l-.13,1a3.59,3.59,0,0,0,.49,1.83l.12.26a5.33,5.33,0,0,0,.67.91l.73.57a2.86,2.86,0,0,0,1.35.43l.24,0a2.21,2.21,0,0,0-.25,1.35,128.73,128.73,0,0,0,3,16.41c.08.31.17.63.25.95.62,2.35,1.27,4.7,2,7,.35,1.16.69,2.41,1.1,3.64a13.3,13.3,0,0,0,2.24,4.37c1.78,2.12,5.87.45,5.63-2.34a11.79,11.79,0,0,0-.75-3C174,105.31,173.22,103.75,172.62,102.22Z" fill="#745477"/><path d="M225.62,19.27a3.63,3.63,0,0,0-2-.59,3.59,3.59,0,0,0-1.76.48,5.77,5.77,0,0,0-2.8,3.12c-.21.62-.79,1.8-.43,2.43a1.13,1.13,0,0,0,1.22.41c.65-.27.26-.45.36-1a5.06,5.06,0,0,1,2.31-3.75,2.14,2.14,0,0,1,2.33.08c2.49,1.55,3.69,4.78,4.21,7.52.31,1.64.9,5.79-1.73,6-.8.06-.56.92,0,1.21.75.39,1.78-.47,2.26-1a4.68,4.68,0,0,0,1-2.17,6.71,6.71,0,0,0,.09-1.74,20.17,20.17,0,0,0-.46-2.85C229.67,24.31,228.39,21,225.62,19.27Z"/><path d="M258.75,178.41c-.06-8.54-3.6-17.55-5.05-20.89a8.22,8.22,0,0,0-.62-1.37.69.69,0,0,0-.91-.26.68.68,0,0,0-.3.9s.26.53.63,1.4c2.08,6.2-.12,19.7-.15,19.85a.68.68,0,0,0,.53.78c.05,0,1.72.38,4.47.78a20,20,0,0,1-1.2,6.54.67.67,0,0,0,.07.63.68.68,0,0,0,.56.3h43a5.75,5.75,0,0,1,.17-.78l.15-.59H257.75a22.22,22.22,0,0,0,1-5.91c6.77.88,18.35,1.66,29-1.16a39.65,39.65,0,0,0,12.49-5.92,5.56,5.56,0,0,1,.14-1.77,39.06,39.06,0,0,1-13,6.37C276.86,180.09,265.37,179.29,258.75,178.41Zm-4.95-.79a80,80,0,0,0,.93-13.42,50.24,50.24,0,0,1,2.63,14C255.72,178,254.49,177.75,253.8,177.62Z"/><path d="M293.51,102.24c-1.22-1.82-3.76-11.82-6-20.64-1.55-6.11-3-11.87-4-14.64-2.18-6.36-9.79-15.67-15.9-23.16l-1.58-1.92c-6.36-7.82-20.26-9.66-20.84-9.74a.78.78,0,0,0-.34,0,13.83,13.83,0,0,0-4,2.46c0-2.34-.42-4.59-1.73-5.73a3.75,3.75,0,0,0-3.85-.47v0a.93.93,0,0,1-.33,0h-.1a35.49,35.49,0,0,0-4.31-11.79C222.69,3.05,207.76-3.09,197.27,3S184.63,25,192.49,38.63c1.36,2.35,2.69,5.14,5.35,6.11.83.3,1.88,5,2.24,10a.68.68,0,0,0,.5.6,3.39,3.39,0,0,0,3.38-.52c.33-.23.5-.35.74-.35s.68,1,.75,2.05a.7.7,0,0,0,.38.57,3.08,3.08,0,0,0,1.79.12,4.26,4.26,0,0,0,.19,1.27.36.36,0,0,0,0,.09,5.77,5.77,0,0,0-1.74-.61c-.7-.18-20.11-5.21-24.72-6.44a.69.69,0,0,0-.78.34.67.67,0,0,0,.15.83c.42.37,10.07,8.92,19.06,10.92-1.06,2.74-4.28,12.07-2.41,19.87,1,4.13,1.57,7.92,2,11,.57,3.71,1,6.38,1.8,7.84,1.37,2.38,4.39,12.23,4.21,16.09,0,.63-.07,1.39-.12,2.21-.32,5.71-.54,11,.37,12.81,1,2,1.58,15.08-2.81,27h-.29l-2.25.6-15.08-.84-4.61-12.85-4.41-28.62c4-8,10.75-46,11.05-47.63a.69.69,0,0,0-.42-.75l-6.54-2.65,3.53-3.38a.68.68,0,0,0,.2-.64c-3.1-14-12.78-16.87-13.19-17a.68.68,0,0,0-.76,1c4.94,7.85,1.77,21.73.64,25.93-2-2-6-3.53-7.95-4.22,10.63-11.25,3.87-22,3.8-22.09A.68.68,0,0,0,166,47c-.23,0-4.55.53-7.54-2.07.16-1.62-.25-4.37-3.82-7-3.66-6.46-11.12-12-17.66-12.58a15.14,15.14,0,0,0-14.62,7.5c-1.61,2.87-5.37,13.8-3.63,18.82.67,1.92,1.57,3,2.76,3.36a3.34,3.34,0,0,0,1.8,0c2.14,4.12,6.49,8.8,8,9.41a9.73,9.73,0,0,0,3.24.56,6.15,6.15,0,0,1,1.46.17,19.25,19.25,0,0,1,2.31,1.7c.53.42,1,.82,1.53,1.19-1.15.95-2.46,2.3-2.69,3.69-.39,2.3,1.4,13.2,3,15.21A6.52,6.52,0,0,1,141,92.6c-.37,1.37.67,2.81,1.68,4.21.65.91,1.4,2,1.34,2.52a19.06,19.06,0,0,1-.6,2.59,20.42,20.42,0,0,0-1,6,11.58,11.58,0,0,0,1.15,3.94,5.32,5.32,0,0,1,.51,1.47c-.2.48-.16,1.48,0,4a33.31,33.31,0,0,1,0,6.51c-.36,1.79.54,3.54,1.34,5.08a7.09,7.09,0,0,1,1,2.57,31.91,31.91,0,0,1-.77,4.59,34.31,34.31,0,0,0-.84,5.25,12,12,0,0,0,1.24,4c.67,1.58,1.44,3.37,1.27,4.45-.22,1.39-.36,5.09-.49,8.35-.06,1.5-.11,2.93-.16,3.79a21.49,21.49,0,0,0-3.1,5.37c0,.22-.3.91-.54,1.58-1.28,3.53-1.64,4.91-1.13,5.59a2.2,2.2,0,0,0,1.51.81c.1,1.07.47,3,1.91,3.38,1.59.39,7.88-1.38,8.82-3a2,2,0,0,0-.07-2.34,2.08,2.08,0,0,0-2.38-.43,2.23,2.23,0,0,1-1.73,0l0-.06c.58-.86,3.84-2.58,4.63-2.46a9.93,9.93,0,0,1,.49,2.93,8.43,8.43,0,0,0,.3,2.09,4.32,4.32,0,0,1,.12,1c.06,1,.14,2.2.89,2.83a1.7,1.7,0,0,0,1.31.38c2-.2,2.25-3.67,2.22-6.68v-.27c0-.27,0-.66,0-1.1-.06-1.16-.18-3.3.15-4a24.4,24.4,0,0,0,.85-5.29l.25-.68a.68.68,0,0,0-.15-.72,17.19,17.19,0,0,0,0-4c-.29-1,.34-8.44.91-11.69l0-.22c.65-3.69,2.64-14.93.81-19.14-.36-.84-.84-2-1.4-3.41l-.49-1.2c7.24,3.43,4.74,12.84,3.67,16.86a12.73,12.73,0,0,0-.4,1.74c-.05.49-.19,1.3-.36,2.25-.68,3.84-1.12,6.87-.22,8.06s2,13.08.47,16.11a.74.74,0,0,0-.06.46c.37,1.58.72,3.19,1.06,4.78-.56.79-.91,1.25-.93,1.27a.71.71,0,0,0-.14.42,24.84,24.84,0,0,0,1.09,5.37c.54,2-.46,4.19-1.46,5.79L159.94,180a.69.69,0,0,0-.55-.24l-49.22,1.79a.62.62,0,0,0-.47.22.64.64,0,0,0-.18.49l.15,3.43-2.7.11c0-.83-.13-2.2-.3-4.33-.13-1.59-.26-3.24-.26-3.89a31.62,31.62,0,0,1,.48-3.83l.6.18a.63.63,0,0,0,.52-.05.71.71,0,0,0,.34-.4c2.11-7,1.36-26.46,1-34.79-.06-1.65-.11-2.85-.11-3.35,0-3,0-8.72-1.3-12.06-2.26-5.82-3.42-10.2-3.18-12,.27-2-.87-6.46-1.7-9.7-.31-1.21-.58-2.26-.63-2.64a36.79,36.79,0,0,0-1.11-4.13c-.61-2-1.3-4.27-1.58-5.76-.1-.56-.15-1.54-.21-2.67-.18-3.61-.43-8.56-2.75-10.43A3.42,3.42,0,0,0,94,75.28c-5.08.85-12.2-2.93-12.27-3a.68.68,0,0,0-.86.18,7.59,7.59,0,0,1-2.35,2c1.65-1.71,2.44-3.88,3.26-6.14L82,67.6c1.27-3.43,2.27-12.6,1-15-.17-.34-.34-.71-.52-1.09-1-2.07-2.15-4.65-4.46-5a19.58,19.58,0,0,0-4,.29c-4.3.54-10.81,1.35-13.79-1a.65.65,0,0,0-.6-.12.64.64,0,0,0-.46.41,93.11,93.11,0,0,0-3.44,12.13,115.53,115.53,0,0,1-.34-18c1.82,1.2,6.18,3.21,15.64,4,7.76.62,10.27,2.52,11.07,3.6a2,2,0,0,1,.49,1.46.68.68,0,0,0,1.31.39c1.57-4.56-.36-9.24-5.75-13.92A54.67,54.67,0,0,0,65,27.54,12.65,12.65,0,0,0,52.66,29a7.84,7.84,0,0,0-5,.17C40.27,32.33,39.75,45,39.46,51.84c0,.86-.06,1.61-.1,2.24a23.21,23.21,0,0,1-1,4.71c-1.12,3.85-2.46,8.44-.83,14.53-2.37,2.17-5.75,4.47-9.67,4.82a5.82,5.82,0,0,0-4.37,2.07c-1.72,2.31-1,5.89-.37,9.06A22.17,22.17,0,0,1,23.61,93c0,4.24-1.76,12-3.31,14.53s-2.66,7.89-2,10.17c.29,1-.36,3.26-.88,5a19.1,19.1,0,0,0-.75,3.13c-.06.6-.33,1.76-.62,3-.89,3.75-1.42,6.28-.69,7.3s1.45,4.21.82,5.79c-.82,2.05,1.54,31.27,2.31,33.59.45,1.35,2.79,2.31,3.77,2.66a18.1,18.1,0,0,0,11.32.33,28.87,28.87,0,0,0,3,8.57.41.41,0,0,0,.07.11L59.9,215.07l-4,.66L35.57,189.19a.67.67,0,0,0-.15-.14L13.59,173.66a.69.69,0,0,0-.79,0l-2.32,1.61a.68.68,0,0,0-.3.56.7.7,0,0,0,.29.56l21,15.16,20.34,25.87a.69.69,0,0,0,.65.26l2.79-.46L72,239l-1,.71-24.42-20.2L19.09,186a.67.67,0,0,0-.53-.25H4a.69.69,0,0,0,0,1.37h14.2l27.36,33.4.09.09,24.88,20.58a.68.68,0,0,0,.83,0l2-1.43a.7.7,0,0,0,.28-.46.68.68,0,0,0-.14-.51L56.82,217l4.09-.67,2.14,2.57a.69.69,0,0,0,.64.24L87.5,215l23.22,15.07a.67.67,0,0,0,.41.11l19.64-1.15L74.48,238a.68.68,0,0,0-.58.71l.18,3.4a.67.67,0,0,0,.68.65h.11l75.35-11.63a.68.68,0,0,0,.57-.68v-3.57a.7.7,0,0,0-.37-.62l-39-19.42a.76.76,0,0,0-.42-.06l-49.52,8.08L37.74,186.36c-.28-.53-2.52-4.79-2.88-8.38l.61-.31c1.06,2,4.17,7.81,5.93,9.24a.65.65,0,0,0,.42.16l46.53.89h0l4.3-.17v0c0,2,.8,2.91,1.47,3.29a2.44,2.44,0,0,0,2.43,0c.55-.33.8-1.24,1.15-3.51l.66,0a5.77,5.77,0,0,0,1.22,3.33,2.18,2.18,0,0,0,1.63.83c1.35,0,2-1.27,2.2-2.33a1.94,1.94,0,0,0,1.06-.46,2,2,0,0,0,.55-.87,2.93,2.93,0,0,0,1.62-.84l3.73-.15a.68.68,0,0,0,.65-.71l-.15-3.43,48.2-1.76,3.65,4.3c-.25.33-.46.6-.61.77h-4a.68.68,0,0,0-.58,1l3.34,5.23-48.21,4-1.17-6a.67.67,0,0,0-.72-.55.69.69,0,0,0-.63.65l-.5,11.64a.68.68,0,0,0,.2.52.75.75,0,0,0,.53.19l54.77-4.48a.68.68,0,0,0,.56-.38.7.7,0,0,0,0-.67l-2.42-3.78,6.38-.54a.68.68,0,0,0,.57-.42.66.66,0,0,0-.11-.7l-5.65-6.64a10.68,10.68,0,0,0,2-6c.61,3.56.92,6.2.68,6.76a.69.69,0,0,0,.62,1h21.45l-7.14,6.1c-1-.17-3.87-.24-5.71,3.5L138,204a.7.7,0,0,0-.54.52.68.68,0,0,0,.26.7l37.41,28.1a.66.66,0,0,0,.61.1l86.09-26.31a.69.69,0,0,0,.48-.58.7.7,0,0,0-.36-.67l-18-9.69,4.65-1.4a.69.69,0,0,0,.48-.58.67.67,0,0,0-.34-.67l-13.41-7.57c.61-1.3,2.14-4.52,3.1-6.17,1.22-2.09,15.45-29.46,17.57-33.88.53-1.11,1.37-2.64,2.34-4.41,2.65-4.82,5.95-10.82,6.49-14.58.12-.88.4-2.21.77-3.8,9.51-14.16,9.51-22.3,8.07-24.69a1.61,1.61,0,0,0-1.56-.94c-.39,0-1.09.32-1.45,1.58-.06.18-4.39,15.13-6.34,23.5l-1.44,2.07c-15.85,22.22-33.27,34.53-35.33,34.26-.06,0-.07,0-.08,0-.47-.8,1-4.49,1.95-6.93a31.85,31.85,0,0,0,1.94-5.86c.2-1.44.33-4.59.48-8.24.23-5.93.53-13.32,1.29-15.82s.36-8.15,0-13.67a82,82,0,0,1-.33-10.62c.24-2.42-.24-7.28-.76-12.42-.65-6.61-1.4-14.1-.54-16.21a.68.68,0,0,0-.13-.72c-1.6-1.74-5.68-6.66-5.89-9,1.29-2.06,11.79-19.06,11.26-27.07a.65.65,0,0,0,0-.2l-.89-2.33a2.46,2.46,0,0,1,2.47.24c1.2,1,1.4,3.6,1.22,6.07-2.89,3.2-5,8-6.28,14.09a66.23,66.23,0,0,0-1.24,13.7.68.68,0,0,0,1.36,0c.52-4.52,5.34-19.54,6.39-22a21.14,21.14,0,0,0,1.08-5.26,12.84,12.84,0,0,1,4.46-3.08c1.61.24,14.14,2.27,19.79,9.22l1.58,1.93c6,7.4,13.57,16.6,15.67,22.74.93,2.7,2.38,8.45,3.92,14.52,2.38,9.37,4.83,19,6.18,21.07,2,3,5.17,8,8.31,13.82q0-1.29.15-2.58C298,109.18,295.27,104.89,293.51,102.24Zm-240.83,114L32.52,190.62a.62.62,0,0,0-.14-.14L12.05,175.84l1.14-.79,21.36,15.06L54.35,216ZM111,208.13l38.44,19.13v2.57l-74,11.43-.1-2,69.37-11a.69.69,0,0,0-.15-1.36l-33.24,1.95L88,213.73a.7.7,0,0,0-.49-.1l-23.68,4.05L62.48,216ZM81.56,73.77c1.77.88,7.87,3.66,12.64,2.86A2.07,2.07,0,0,1,96,77C97.8,78.52,98,83.3,98.2,86.47a26.57,26.57,0,0,0,.23,2.86c.29,1.56,1,3.86,1.61,5.9a40.37,40.37,0,0,1,1.07,3.9c.06.47.31,1.45.66,2.8.71,2.79,1.9,7.44,1.67,9.19-.36,2.65,1.58,8.36,3.26,12.69,1.21,3.1,1.21,8.61,1.21,11.57,0,.53,0,1.73.11,3.41.31,8,1,26.42-.8,33.67l-.09,0c.18-1.05.34-1.83.34-1.85a.68.68,0,0,0-.39-.75c-4-1.85-8.43-.85-11.26.23a11.36,11.36,0,0,0,.2-1.34c.08-.77.13-1.62.15-2.52,2.58-3.31,1.39-7.84-.25-11.46-.08-2-.13-3.67-.07-4.66.09-1.71-.06-4.1-.2-6.4a49.09,49.09,0,0,1-.16-5c.11-1.46-.67-4.56-1.43-7.56A40.94,40.94,0,0,1,93,126.2a19.07,19.07,0,0,0-.79-3.51c-.12-.41-.23-.81-.34-1.22.91-3.72,1.45-7,1.48-7.29a.62.62,0,0,0-.08-.44c-.24-.42-.46-.86-.66-1.3a25,25,0,0,0,0-9.78c-.36-1.68-.77-2.42-1.4-2.55a1,1,0,0,0-1,.42c-1,1.38-1,7.32.94,12.06-.23,1.2-.49,2.26-.71,3.14s-.36,1.48-.44,2a9.87,9.87,0,0,0,.41,3.74,36.68,36.68,0,0,1-2.49,7.33c-2.08,4,.57,12.37,3.1,19.2.2.53.35.94.43,1.2a16.23,16.23,0,0,0,1.07,2.05c.61,1.06,1.36,2.36,2,3.77,0,.39,0,.79,0,1.2.13,3,.27,6.49.21,9.47A7.27,7.27,0,0,1,93.2,167a3.33,3.33,0,0,1-3.59,0c-6.08-3.34-11.48-21.84-11.66-31.69-.06-3.5,1.5-8.35,3.32-14,2.1-6.51,4.48-13.89,5.08-21.44.69-8.82-1.22-16.1-5.85-22.26a.69.69,0,0,0-1.21.59c0,.08,1.75,6.68.2,11.61A32.42,32.42,0,0,0,76.79,83l0,0c-.6-1-2-3.78-1.58-5.53a1.87,1.87,0,0,1,.23-.54A9.91,9.91,0,0,0,81.56,73.77ZM96.1,159.3a8.64,8.64,0,0,1,.09,3.71C96.18,161.78,96.14,160.53,96.1,159.3Zm-1.64-7.43c-.26-.48-.51-.92-.73-1.3a15.85,15.85,0,0,1-1-1.81c-.09-.26-.24-.68-.45-1.23-1.29-3.49-5.24-14.12-3.17-18.1a31.52,31.52,0,0,0,2-5.37,12.76,12.76,0,0,1,.46,2.24,41.16,41.16,0,0,0,1.11,5.12c.67,2.63,1.49,5.89,1.4,7.13a46.68,46.68,0,0,0,.16,5.22,61.41,61.41,0,0,1,.19,6.24C94.46,150.5,94.45,151.13,94.46,151.87Zm-2.85-42.32a20.89,20.89,0,0,1-.53-7.38c.06.21.13.46.2.78A21.94,21.94,0,0,1,91.61,109.55ZM60.25,47.31c3.61,2.09,9.83,1.32,14,.79a21.16,21.16,0,0,1,3.59-.29c1.59.25,2.57,2.37,3.43,4.23.18.4.36.78.54,1.13,1,1.92.1,10.67-1.11,14l-.26.72c-1.1,3-2,5.6-5,7.14a3.49,3.49,0,0,0-.81.58l-.54.05c-4.87.28-10.7-2.08-14.5-5.88-1.53-1.53-2.55-4.31-3.22-7.6A96.29,96.29,0,0,1,60.25,47.31ZM56,65.63a12.5,12.5,0,0,0,2.75,5.08A21.78,21.78,0,0,0,73.88,77v0c-.7,2.62,1.53,6.26,1.73,6.59a33.37,33.37,0,0,1,3,8.25,6.79,6.79,0,0,1-1.08,1.37c-2.28,2.22-6.09,2.56-11.35,1a.69.69,0,0,0-.73.24.68.68,0,0,0,0,.76c2.39,4.09,8,14.48,9.31,19.86-4.14-4.85-15.81-18.31-21-22.18a21.61,21.61,0,0,1-4.8-5.53,29.6,29.6,0,0,0,11.75,2.64.68.68,0,0,0,.45-1.18C55.35,83.47,55,73.64,56,65.63ZM39.62,59.17a24.27,24.27,0,0,0,1.1-5c0-.64.07-1.39.11-2.26.27-6.52.77-18.65,7.32-21.48.72-.27,2.88-.8,4.27,0a.68.68,0,0,0,.76-.08s5.12-4.17,11.29-1.51c2.07.9,18.9,8.48,18.68,17.86-1.76-2.13-5.76-3.46-11.91-3.95-12.81-1-15.79-4.37-15.81-4.4a.7.7,0,0,0-.74-.23.72.72,0,0,0-.48.6c-.06.76-1,13.85.86,23.45l-.18,1.16C53.16,74.89,54.53,83.4,59,88.63a27.13,27.13,0,0,1-11.43-3.46c-3.12-5.56-5.32-12.2-5.21-15.46a.68.68,0,0,0-1.24-.4,26.63,26.63,0,0,1-2.47,2.91C37.39,66.83,38.6,62.67,39.62,59.17Zm5.46,24.25a17,17,0,0,1-4.43-5.62,26.69,26.69,0,0,1-1.61-4,28.34,28.34,0,0,0,2-2.21A42.23,42.23,0,0,0,45.08,83.42ZM33.63,168.31c0,.59,0,1.17-.06,1.73-.55-.42-.75-.7-.75-.81.12-.39.43-1.49.88-3.07C33.68,166.9,33.65,167.62,33.63,168.31Zm.22-7.7c-1.19,4.21-2.12,7.49-2.34,8.21a1.52,1.52,0,0,0,.27,1.34,6,6,0,0,0,1.74,1.5c-.07,2.27-.11,4.23-.08,5.44a16.6,16.6,0,0,1-10.76-.21c-1.94-.7-2.82-1.47-2.93-1.82-.31-.91-1.05-8.26-1.66-16.37-.77-10.24-.89-15.61-.68-16.27.83-2.09,0-5.75-1-7.09-.41-.63.48-4.39.91-6.2A29.44,29.44,0,0,0,18,126a18.61,18.61,0,0,1,.7-2.86c.63-2.15,1.28-4.37.89-5.79-.48-1.76.37-6.59,1.89-9.11C23.14,105.44,25,97.47,25,93a21.41,21.41,0,0,0-.57-4c-.57-2.88-1.22-6.15.13-8a4.47,4.47,0,0,1,3.4-1.53,18.06,18.06,0,0,0,10-4.71,30.06,30.06,0,0,0,1.51,3.61,18.74,18.74,0,0,0,7.09,7.74A26.08,26.08,0,0,0,52.88,94C59,98.6,75,117.55,75.13,117.74a.69.69,0,0,0,.74.21.7.7,0,0,0,.47-.6c.31-4.5-6.53-17.07-8.94-21.34,4.95,1.17,8.68.57,11.08-1.78a5.38,5.38,0,0,0,.52-.55c1.78,8.91,1.54,20-2,28.18-4.85,11.2-2.83,19.12-2.41,20.51-.49,1.82-4.29,15.92-7.26,23.36s-12.14,10.33-17.4,10a45,45,0,0,1-10.46-2.75,35,35,0,0,1-4.56-2c0-.82.06-1.67.08-2.53.1-2.84.18-5.39.22-7.55.53-1.87,1.1-3.91,1.69-6,2.3-8.21,4.92-17.51,5.4-19.06.55-1.75-.24-4.39-1.07-7.19A20.63,20.63,0,0,1,40,122.7c.18-3.7-3.49-12-3.64-12.3a.69.69,0,0,0-1.31.26c0,.07-.18,6.81-.36,9.09-.08,1.17-.62,3.75-1.09,6a42,42,0,0,0-.88,4.93c0,.48.13,1.43.29,2.62a27.09,27.09,0,0,1,.44,5.84l-.11.54c-.4,1.95-1,4.62-.4,6.25a14.93,14.93,0,0,1,.25,3.29,17.63,17.63,0,0,0,.46,4.77A36.54,36.54,0,0,1,33.85,160.61Zm.39-15.07c-.42-1.28.1-3.85.45-5.55l.11-.54c.26-1.28-.12-4.06-.42-6.3-.15-1.05-.28-2-.28-2.43s.45-2.72.85-4.66c.5-2.43,1-5,1.12-6.2s.19-3.87.26-6c1.06,2.72,2.42,6.66,2.31,8.74A21.41,21.41,0,0,0,39.92,129c.74,2.48,1.5,5,1.08,6.39-.49,1.58-3.11,10.88-5.42,19.1l-.37,1.33A9.15,9.15,0,0,0,35,153.6a17.07,17.07,0,0,1-.39-4.36A14.21,14.21,0,0,0,34.24,145.54Zm58.7,37.68c-.08,1-.17,2.08-.22,3.2l-4.36.18-46.27-.89c-1.58-1.52-4.65-7.17-5.74-9.3a.68.68,0,0,0-1-.27c-.19.12-.39.24-.58.34,0-1,0-2.44.07-4,4.35,2.25,11.75,4.38,15,4.61,5.66.41,15.54-2.75,18.76-10.8s7.33-23.55,7.37-23.71a.68.68,0,0,0,0-.4c0-.08-2.7-8.15,2.31-19.73,3.82-8.81,3.91-20.91,1.8-30.29,1.76-3.34,1.6-7.8,1.2-10.83C88.68,94,83.88,108.86,80,121c-1.85,5.74-3.45,10.69-3.39,14.42.17,9.24,5.38,29,12.37,32.86a4.71,4.71,0,0,0,5-.07c.3-.19.57-.37.83-.57,0,.34,0,.67-.08,1a11.76,11.76,0,0,1-.41,2.14c-.82.39-1.33.7-1.41.74a.68.68,0,0,0-.23.93.67.67,0,0,0,.88.27,18.17,18.17,0,0,1-3.14,4.37,6.27,6.27,0,0,0-.78.93,20.57,20.57,0,0,0-1.28,3.39l-2.74,2.74a.69.69,0,0,0,0,1A4.55,4.55,0,0,0,90,186.14c1.23-.41,2.21-1.89,3-3.26Zm5.56,3-.56,0a2.7,2.7,0,0,0,0-.28c.12-.87.28-2,.45-2.85A25,25,0,0,1,98.5,186.19Zm5.72.27a1.86,1.86,0,0,0-.21.31c-.18.34-.13.88-.41,1.14a.89.89,0,0,1-.66.12.67.67,0,0,0-.51.16.63.63,0,0,0-.25.47c0,.34-.27,1.7-.93,1.7a.88.88,0,0,1-.6-.37c-1.42-1.64-.7-4.4-.82-6.38,0-.84,0-2.33-.79-2.92a.91.91,0,0,0-.91-.13c-.75.3-1,1.51-1.5,5.18l-.29,3.92s-1.6,1.78-2.22-1l0-2.29c0-1,.13-2.07.21-3a14.48,14.48,0,0,0,.1-3.16.76.76,0,0,0-.64-.65h-.12c-.51,0-.75.48-1.26,1.52-.6,1.21-1.72,3.45-2.8,3.81a3,3,0,0,1-2.51-.32l2.31-2.3a.67.67,0,0,0,.18-.3,20.12,20.12,0,0,1,1.18-3.24,7.25,7.25,0,0,1,.61-.7,18,18,0,0,0,3.87-5.84c2.86-.41,7.39.5,10.35,1.28a33.72,33.72,0,0,0-.53,4.2c0,.71.13,2.31.27,4,.12,1.46.27,3.34.3,4.28A1.7,1.7,0,0,0,104.22,186.46Zm1.58-14.39a42.83,42.83,0,0,0-7.54-1.34,12.58,12.58,0,0,1,7.76.14C106,171.18,105.89,171.59,105.8,172.07ZM164,197.25l-52.87,4.32.22-5.08.19.94a.67.67,0,0,0,.73.55l49.53-4.16Zm4.28-5.35-5.77.49-3.06-4.78h3.05a.68.68,0,0,0,.5-.22,11.14,11.14,0,0,0,.71-.86Zm103.7-92.49a1.3,1.3,0,0,1,.3-.59,1.52,1.52,0,0,1,.46.78c.23.69,1.74,6.49-6.14,19.4C268.39,111.82,271,102.51,271.94,99.41Zm-65,33.33c-.82-1.64-.45-8.19-.22-12.11,0-.83.09-1.59.11-2.23.19-4.13-2.92-14.28-4.38-16.83-.7-1.23-1.12-3.94-1.64-7.37-.46-3.07-1-6.89-2-11.07-2.07-8.62,2.6-19.68,2.65-19.79a.7.7,0,0,0,0-.6.65.65,0,0,0-.48-.34c-6.26-1.11-13.24-6-16.82-8.79l21.72,5.65h0c1.54.31,2.18.91,4.58,3.16l.28.25c2.59,2.42,9.53,17.76,10.2,19.77s1.66,13.5,2.11,19.34c.37,4.85,0,19.47-.18,24.27-.1,3.55.65,12,1.25,18.87.41,4.64.84,9.44.75,10.13a28.71,28.71,0,0,1-1.91,2.85c-1.54,2.18-3.29,4.65-3.65,5.93a34,34,0,0,1-2.65,5.2c-.9,1.58-1.75,3.07-2.15,4-.85,2.05-4.54,7.15-4.58,7.2a.69.69,0,0,0-.1.57c-.54-.08-1.06-.19-1.5-.3a.69.69,0,0,0-.75.3A2.66,2.66,0,0,1,205.7,182a1.56,1.56,0,0,1-1.28-.25c-.43-.35-.65-2.76-.47-5.15a.68.68,0,0,0-.53-.71.39.39,0,0,0-.15,0,.68.68,0,0,0-.64.43,20.43,20.43,0,0,1-2.4,4.3,2.53,2.53,0,0,1-2.55.62,15.29,15.29,0,0,0,2.49-3.43,9.82,9.82,0,0,1,.5-1c.69-1.3,1.64-3.09,1.49-4.42a20,20,0,0,1,1.2-5.38c3.6.66,12.79-.09,13.21-.13a.68.68,0,0,0,0-1.36c-4.82-.58-10.72-3.54-12.48-4.47C208.54,149.1,208.26,135.42,206.92,132.74ZM165.67,48.39c1,1.88,5.23,11.16-4.58,20.81a.71.71,0,0,0-.19.65.69.69,0,0,0,.46.49c2.12.68,7.88,2.9,9.1,5.06a.68.68,0,0,0,1.24-.13c.23-.71,5.16-16.59.49-26.62,3.42,1.72,8.43,6.21,10.46,14.91l-4,3.85a.67.67,0,0,0-.19.62.66.66,0,0,0,.41.5l7,2.84c-.81,4.51-6.46,35.61-10.16,45.18-.37-2.61-1-7.27-1.56-12.68A227.09,227.09,0,0,0,173,78a.68.68,0,0,0-.69-.61.69.69,0,0,0-.67.64,139.72,139.72,0,0,0,.51,19.17c-.08-.15-.19-.31-.31-.5l-.34-.53c-1.82-3.67-5-14.93-6.21-19.35a.68.68,0,0,0-.6-.5.67.67,0,0,0-.68.4,1.25,1.25,0,0,1-.7.71,1.61,1.61,0,0,1-.69.06,6.09,6.09,0,0,1,0-1,.67.67,0,0,0-.22-.58l-3-2.68a.67.67,0,0,0-.68-.14.7.7,0,0,0-.44.53l-1,5.8-1.54-2c-.34-1.35-.6-2.43-.76-3.12a5.43,5.43,0,0,0,4.17-2.27l.17-.25a18.94,18.94,0,0,0,4.06-11.59c0-4.72-2.51-10.43-4.33-13.24A12.86,12.86,0,0,0,165.67,48.39Zm4.65,48.53a6.41,6.41,0,0,0,.54.92c.25.34.63.85,1.18.47a.85.85,0,0,0,.17-.14c.17,2,.37,4,.57,5.88a33.15,33.15,0,0,1-1.08,8.32c-2.16-4-9-17.67-9.49-30.7C163.56,85.46,166.27,90.56,170.32,96.92Zm-7.5-18a2.47,2.47,0,0,0,.92-.15,2.19,2.19,0,0,0,.55-.28c.62,2.26,2,7.1,3.39,11.43C164.59,84.44,163.3,81,162.82,78.9ZM156.9,43.1a8.4,8.4,0,0,1-.74-1.63A6.06,6.06,0,0,1,156.9,43.1Zm-33.59,8a.69.69,0,0,0-.8-.29.67.67,0,0,0-.46.7,7.88,7.88,0,0,0,.6,2.25,1.91,1.91,0,0,1-.83,0c-.73-.21-1.34-1-1.85-2.5-1.47-4.25,1.81-14.63,3.53-17.7a13.76,13.76,0,0,1,13.3-6.81c5.37.5,11.61,4.76,15.34,10a2.5,2.5,0,0,0-2.67.75c-1.24,1.46-1.07,4.51,0,5.57a2.55,2.55,0,0,1,.63,1.91c-1.49-.29-4.86-.75-7.2.54-.85-1.76-3-6-4.72-7.24a.65.65,0,0,0-.54-.12.71.71,0,0,0-.45.32c0,.09-5.18,8.89-9.5,12.34A27,27,0,0,1,124.54,53C124,52.23,123.62,51.58,123.31,51.08Zm5.21.71c3.82-3.06,8-9.76,9.4-12A35,35,0,0,1,142,46.71a.7.7,0,0,0,.47.38A.67.67,0,0,0,143,47c2.38-1.91,7.4-.61,7.45-.59a.69.69,0,0,0,.84-.48,4.31,4.31,0,0,0-.89-3.89,3.75,3.75,0,0,1,.09-3.71c.69-.81,2-.17,3,.55a16.67,16.67,0,0,1,1.3,3A9.19,9.19,0,0,0,157,45.41a3,3,0,0,1-.12.37.69.69,0,0,0,.14.77c1.24,1.24,5,8.06,5,13.66A17.47,17.47,0,0,1,158.13,71l-.17.25A4.27,4.27,0,0,1,154.13,73a.69.69,0,0,0-.59.22.7.7,0,0,0-.16.62s.08.3.2.79a14,14,0,0,1-1-1.56c-.55-1.36-6.89-3.7-8.57-4a6.06,6.06,0,0,1-1.88-1l.15-.1a.67.67,0,0,0,.24-.89c-2.62-5.07-5.78-5.37-9.44-5.71l-.22,0c-2-.19-5.25-4.06-7.5-7.22A30,30,0,0,0,128.52,51.79Zm10.58,14a13,13,0,0,0-2.73-1.93,7.24,7.24,0,0,0-1.82-.23,8.39,8.39,0,0,1-2.8-.47,15.94,15.94,0,0,1-3.64-3.45c1.55,1.6,3.18,2.84,4.58,3l.22,0c3.5.33,5.87.55,8.07,4.44l-.07,0C140.28,66.72,139.66,66.22,139.1,65.78Zm19.71,101.15c-.46.91-.4,2.64-.3,4.64,0,.43.05.8.05,1v.29c0,4.94-.82,5.28-1,5.3s-.26,0-.29-.06c-.3-.26-.36-1.23-.41-1.88a4.47,4.47,0,0,0-.21-1.39,10.55,10.55,0,0,1-.21-1.7c-.17-2.1-.34-3.52-1.14-4a1.42,1.42,0,0,0-.74-.18c-1.81,0-5.09,2.1-5.73,3.07a1.32,1.32,0,0,0,0,1.62c.65.83,2.2.89,3.31.47.38-.14.72-.13.86,0s.1.45-.08.77c-.51.89-6,2.68-7.3,2.36-.59-.15-.91-1.68-.91-2.74a.67.67,0,0,0-.24-.51.68.68,0,0,0-.55-.16,1.25,1.25,0,0,1-.91-.22,21.83,21.83,0,0,1,1.27-4.36c.34-.93.53-1.47.6-1.77a20.15,20.15,0,0,1,2.3-4.11.65.65,0,0,0,.31,0,39.62,39.62,0,0,1,4.18-1.26c2.1.29,5,.75,7.73,1.22A18,18,0,0,1,158.81,166.93Zm.73-5,0,.06-3.43-.57a10.23,10.23,0,0,1,3.48.29A1.5,1.5,0,0,0,159.54,161.93Zm5.08-12.64c-.62-.82.12-5,.48-7,.17-1,.32-1.82.37-2.37a13.67,13.67,0,0,1,.36-1.5c1.06-4,3.88-14.63-4.51-18.51a13.93,13.93,0,0,1-1.27-.67c-2.13-5.17-4.82-11.26-7.12-13.68-.24-.25-1-1-1.78-.73-.35.13-.77.5-.81,1.5-.09,2.69,2.74,10.07,8.61,13.84.4,1,.78,1.91,1.11,2.74.56,1.39,1.05,2.59,1.42,3.44,1.1,2.55.8,8.72-.91,18.36l0,.22c-.46,2.61-1.32,10.78-.88,12.3a15.71,15.71,0,0,1,0,3.1c-2.39-.6-5.51-.16-8.06.43a20.09,20.09,0,0,0-3.2-.28,1.82,1.82,0,0,0-.33.11c0-.66.06-1.46.1-2.4.12-3.07.27-6.89.47-8.2.22-1.47-.58-3.36-1.36-5.2a11.65,11.65,0,0,1-1.14-3.5,33.86,33.86,0,0,1,.82-5,31.42,31.42,0,0,0,.79-4.87,7.69,7.69,0,0,0-1.13-3.19c-.72-1.41-1.47-2.87-1.21-4.19a34.16,34.16,0,0,0,0-6.85,23.33,23.33,0,0,1-.07-3.42c.27-.68-.08-1.49-.53-2.52a10.76,10.76,0,0,1-1-3.48,19.52,19.52,0,0,1,1-5.51,18.84,18.84,0,0,0,.64-2.81c.11-1.09-.72-2.24-1.6-3.46s-1.66-2.31-1.46-3.05a7.89,7.89,0,0,0-1.2-6.87c-1.25-1.56-3.09-12-2.72-14.14.17-1,1.39-2.21,2.47-3.06a8.21,8.21,0,0,0,2.82,1.47c2,.36,7,2.5,7.55,3.2A49.63,49.63,0,0,0,154.42,78c1.63,6.65,4.85,19.41,7,25.7,1.75,5.06,5.38,10,8.3,14,2.08,2.83,3.88,5.27,4,6.49a90.77,90.77,0,0,1-.37,9.65c-.36,5.49-.8,12.33-.7,17.85.12,6.71-4.06,14.21-6.64,18.19-.29-1.32-.54-2.45-.73-3.28C166.82,163,165.88,151,164.62,149.29Zm-6.7-31.62a20.25,20.25,0,0,1-5.69-8.62,8.15,8.15,0,0,1-.52-2.78l.23.22C153.78,108.43,156,113.22,157.92,117.67Zm7.39,55.68.07-.09c.33,1.63.63,3.2.9,4.65A30.11,30.11,0,0,1,165.31,173.35Zm3.3,12.35c.1-2.62-1.1-9-2.15-13.95,2.52-3.67,7.74-12.22,7.6-20.1-.1-5.45.34-12.26.7-17.73a87.63,87.63,0,0,0,.37-9.89c-.17-1.59-1.89-3.92-4.27-7.15-2.86-3.88-6.42-8.72-8.11-13.59-1.87-5.37-4.5-15.53-6.24-22.48l.58.75a.68.68,0,0,0,1.21-.3l1-6.13,1.87,1.65a5.23,5.23,0,0,0,0,.56.67.67,0,0,0-.34.54c-1,16.81,10.19,36.17,10.3,36.36a.67.67,0,0,0,.58.34.69.69,0,0,0,.59-.33,11.26,11.26,0,0,0,1.17-3.7c.62,5,1.14,8.37,1.15,8.46a.66.66,0,0,0,.32.47l4.33,28.1,5,13.89,16.2.91,2.25-.62h0a.58.58,0,0,0,.19.16,53.11,53.11,0,0,0,8.86,3.85c-3.37.15-7.24.19-8.68-.26a.67.67,0,0,0-.84.43c-.17.49-1.66,4.85-1.47,6.56.1.91-.8,2.62-1.34,3.64a7,7,0,0,0-.61,1.3A26.65,26.65,0,0,1,196,181.1a.66.66,0,0,0-.16.6.7.7,0,0,0,.39.48c.14.06,3.37,1.44,5.11-.74a15.15,15.15,0,0,0,1.26-1.89c.08,1.35.34,2.7,1,3.24a2.88,2.88,0,0,0,2.37.55,4,4,0,0,0,2.46-1.38,18.11,18.11,0,0,0,3.27.43c3.35,2.32,10.17,6.73,14.61,9.58a.72.72,0,0,0-.58.21l-3.74,3.92a24.6,24.6,0,0,1-4.75-.3.61.61,0,0,0-.07-.24.64.64,0,0,0-.45-.35,18.33,18.33,0,0,1-10-6.39l2.22-1.92a.69.69,0,0,0-.45-1.2Zm62.59,7.81c-.15-.1-11.71-7.46-17.47-11.36a2.7,2.7,0,0,0,.71-.32l25.92,13.95c-9.39,2.8-19.82,5.87-28,8.17a32.52,32.52,0,0,0,4.35-6.84,25.37,25.37,0,0,0,5.57.34.7.7,0,0,0,.45-.21l3.65-3.81,4.25,1.3a.68.68,0,0,0,.57-1.22Zm-37.91-6.44h13.34l-1.3,1.13a.68.68,0,0,0-.13.88,17.45,17.45,0,0,0,4.3,4.31,30,30,0,0,1-5.27-3.07.75.75,0,0,0-.42-.14.69.69,0,0,0-.47.18c-.05,0-4.74,4.3-9.44,2a8.51,8.51,0,0,0-5.1-.35l3.82-3.35,0,0A2,2,0,0,0,193.29,187.07Zm-2.12.18a2.33,2.33,0,0,1,.74.12,1.41,1.41,0,0,1-.21.31l-5.84,5.12q-1.06.36-2.1.78Zm-8.33,9.37,1-.67a13.79,13.79,0,0,1,2.71-1.92c2.62-.84,5.13-1.2,6.77-.41,4.69,2.27,9.14-.78,10.52-1.89a33,33,0,0,0,11.49,5.11c-2.48,5-6.83,10.18-12,12.55-8.55,3.93-18.79,4.27-20,4.06a7.75,7.75,0,0,0-1-.06c-1,0-2.58-.07-3.21-.75a1.32,1.32,0,0,1-.28-1,.65.65,0,0,0-.2-.52.67.67,0,0,0-.48-.2h-.05c-.55,0-2.27,0-2.81-.78a1.72,1.72,0,0,1,.09-1.67,3.78,3.78,0,0,1,.17-.35,7.42,7.42,0,0,0,2.5-2l.42-.46a26.1,26.1,0,0,1,4.23-1.55,9.59,9.59,0,0,0,1.88-.66s2.65-1.7,2-2.94c-.44-.82-1.55-.65-4.25.66a15.39,15.39,0,0,0-4.69,3.38,8.39,8.39,0,0,0-3,2.48,4,4,0,0,1-.85.16c-1.24.13-1.47-.47-1.55-.66a3.6,3.6,0,0,1,.95-3.3c2.28-1.71,4.66-3.29,7-4.88ZM182,202.9c.3-.17.63-.34,1-.51.81-.39,1.39-.63,1.8-.78a4.41,4.41,0,0,1-.82.65,11.85,11.85,0,0,1-1.59.53Zm-.64-8.44h.34c-1.32.62-2.51,1.25-3.44,1.77A3.77,3.77,0,0,1,181.37,194.46Zm78.48,11.8L175.66,232l-35.89-27,36.16-6.87a.64.64,0,0,0,.24.4.69.69,0,0,0,.8,0c.42-.27.95-.59,1.56-.94l.66-.13c-2.83,1.84-6.15,4.14-6.76,4.6A4.85,4.85,0,0,0,171,207a2.54,2.54,0,0,0,2.94,1.53,2.65,2.65,0,0,0,.27,2.41,4.28,4.28,0,0,0,3.32,1.36,2.49,2.49,0,0,0,.61,1.25c1,1.11,2.91,1.16,4.17,1.2.32,0,.62,0,.77,0,1.46.24,11.93-.09,20.8-4.17a23.17,23.17,0,0,0,6.73-4.78c3.44-1,7.83-2.21,13.42-3.84,6.67-1.94,13.32-3.92,18-5.32ZM233.71,37.05a23.12,23.12,0,0,1-1.09,4.65c-.46,1.31-.78,2.56-1.2,3.89-.94,3-2.79,5.53-4.31,8.21-.94,1.67-1.91,3.34-2.94,5a.64.64,0,0,0-.11.36c0,2.94,4.7,8.38,6,9.83-.78,2.77-.08,9.71.58,16.44.51,5.07,1,9.86.76,12.15a83.38,83.38,0,0,0,.33,10.85c.36,5.39.73,11,.06,13.18-.81,2.66-1.1,9.83-1.35,16.16-.14,3.61-.27,6.73-.46,8.1a32.56,32.56,0,0,1-1.86,5.55c-1.66,4.2-2.61,6.84-1.86,8.13a1.48,1.48,0,0,0,1.08.7c2.06.26,8.36-4.39,13.7-9.12a157.68,157.68,0,0,0,22.53-25.16c-.05.28-.09.52-.12.75-.51,3.51-3.87,9.64-6.33,14.11-1,1.79-1.83,3.33-2.38,4.48-2.06,4.3-16.41,31.89-17.52,33.78-1.25,2.15-3.34,6.67-3.43,6.86a.68.68,0,0,0,.29.88l12.56,7.09-4.42,1.33-27.53-14.81a.72.72,0,0,0-.32-.08.66.66,0,0,0-.52.24,2.61,2.61,0,0,1-1.78.45l-.7-.5a53.39,53.39,0,0,0,4.34-6.94c.37-.88,1.2-2.33,2.07-3.87a33.36,33.36,0,0,0,2.79-5.52c.29-1.05,2.11-3.62,3.45-5.5a20,20,0,0,0,2.09-3.23c.18-.53,0-2.75-.69-10.66-.6-6.79-1.34-15.24-1.24-18.71.13-4.82.55-19.49.17-24.41-.13-1.75-1.33-17.15-2.18-19.68-.71-2.15-7.69-17.65-10.56-20.33l-.27-.25a29,29,0,0,0-2.88-2.5h.07a6.8,6.8,0,0,1,2.3.11,4.67,4.67,0,0,1,.36.74c.63,1.44,1.8,4.13,5.63,3.43,5-.92,11.1-15.9,11.82-19.51a16.17,16.17,0,0,0,.2-3.84c-.45.11-.9.2-1.35.28a14.74,14.74,0,0,1-.19,3.3c-.81,4.06-6.79,17.71-10.73,18.43-2.76.5-3.52-1.24-4.12-2.64-.3-.69-.54-1.23-1-1.44a5.68,5.68,0,0,0-2-.27H209a2.28,2.28,0,0,1,.09-1,.68.68,0,0,0-.13-.72.71.71,0,0,0-.72-.18,5.35,5.35,0,0,1-1.48.27c-.14-1-.61-2.81-2.06-2.81a2.61,2.61,0,0,0-1.53.59,2,2,0,0,1-1.76.44c-.27-3.31-1-9.91-3.1-10.66a8,8,0,0,0-1-.28,35.7,35.7,0,0,1-3.67-5.23C186.19,25,188.11,9.83,198,4.15A16.36,16.36,0,0,1,206.23,2c8.39,0,17.58,5.74,23.13,15.35A31.74,31.74,0,0,1,233.71,37.05Zm1.57-3c0-.63,0-1.27,0-1.9l.09.24A10.63,10.63,0,0,1,235.28,34.09Zm3.16,7.23c-.73,1.71-3.12,8.93-4.8,15,.56-5.42,2-12.65,5.49-17.7A13.93,13.93,0,0,1,238.44,41.32Z"/></g></g></svg>