<?xml version="1.0" encoding="utf-8"?>
<!-- Generator: Adobe Illustrator 24.2.0, SVG Export Plug-In . SVG Version: 6.00 Build 0)  -->
<svg version="1.1" id="Layer_1" xmlns="http://www.w3.org/2000/svg" xmlns:xlink="http://www.w3.org/1999/xlink" x="0px" y="0px"
	 viewBox="0 0 300 300" style="enable-background:new 0 0 300 300;" xml:space="preserve">
<style type="text/css">
	.st0{clip-path:url(#SVGID_2_);}
	.st1{fill:#D7D7C3;}
	.st2{fill:#C5F4DF;}
	.st3{fill:#363B5C;}
	.st4{fill:#C2CED3;}
	.st5{fill:none;}
	.st6{fill:#F3D46D;}
	.st7{fill:#FFFFFF;}
	.st8{fill:#80AA80;}
	.st9{fill:#463047;}
	.st10{fill:#F0B089;}
	.st11{fill:#8E6444;}
	.st12{fill:#5A3A2F;}
	.st13{fill:#4D4D4D;}
	.st14{fill:#8ACDCB;}
	.st15{fill:#ECAC86;}
	.st16{fill:#D78A63;}
	.st17{fill:#8A8A8B;}
	.st18{fill:#888888;}
	.st19{fill:#F4D4B4;}
	.st20{fill:#5B4232;}
	.st21{fill:#402A24;}
	.st22{fill:#C0E7FD;}
	.st23{fill:#308BB2;}
	.st24{fill:#221B16;}
	.st25{fill:#79544D;}
	.st26{fill:#292526;}
</style>
<g id="Layer_2_1_">
	<g id="Report">
		<g id="Layer_2-2">
			<g id="Report-2">
				<g>
					<g>
						<defs>
							<rect id="SVGID_1_" width="300" height="300"/>
						</defs>
						<clipPath id="SVGID_2_">
							<use xlink:href="#SVGID_1_"  style="overflow:visible;"/>
						</clipPath>
						<g class="st0">
							<path class="st1" d="M314.8,199.9H-12v-20.1h57c6.1,0,12.2,0.2,18.2,0c5.4-0.2,6.9-3.4,10.4-7.5c1.2-1.6,2.6-2.9,4.3-3.9
								c1.7-0.7,3.6-1.1,5.5-1.2l53.4-4.3c11.9-1,23.9-1.9,35.9-1.1c9.8,0.6,19.6,2.4,29.3,4.3c7.6,1.4,16.5,3.4,22,9.6
								c3.3,3.8,3.1,4.9,8.3,4.9c4.2,0,8.3,0,12.5-0.1c13.4-0.2,26.8-0.7,40.3-0.7h29.8v20.1H314.8z"/>
							<path class="st2" d="M163,154.6c3.1-1.1,5.6,1,7.5,3.3c4.1-3.1,8.1-6.4,11.9-9.9c0.4,1.6,1,3.1,1.4,4.5
								c0.6,2.1,1.4,4.2,2.3,6.3c0.7,1.3,1.7,2.3,2.9,3c0.3,0.2,0.7,0.4,1.1,0.5c4.3-4.6,11.5-5.5,17.4-4.4c0.7,0.1,1.4,0.4,1.9,0.9
								c0.6-0.2,1.2-0.5,1.8-0.8c-0.1-0.3-0.2-0.7-0.3-1c-1.3-0.7-2.4-1.7-3.5-2.7c-1.7-1.7-4-4.6-4.2-7.3c-1.2-0.6-2.4-1-3.7-1.3
								c-1.2-0.3-1.9-1.6-1.6-2.8c0.4-1.2,1.6-1.9,2.8-1.6c3.2,0.5,6.2,1.7,8.9,3.5c-0.1-0.4-0.2-0.9-0.3-1.3
								c-0.4-2.1-1.4-4.4-0.7-6.5c0.4-1.3,1.7-2,3-1.7c0.2,0.1,0.4,0.1,0.6,0.2c2,1.4,2.6,3.7,3.6,5.9c0.8,2,1.5,4,2.2,6
								s1.3,4,1.9,6.1c0.2,0.8,0.4,1.6,0.7,2.4c0.2-0.2,0.4-0.4,0.5-0.6l0.4-0.1c0.2,2.6,2.4,4.6,5,4.7c0.9,0,1.8-0.3,2.5-0.7
								c0.2,0.4,0.3,0.7,0.5,1.1c2,4,8.3,2.9,9.4-1.2c2.7-10,1-20.6-4.4-29.4c-2.1-6.4-6.6-12.5-13.5-14c-2.5-0.6-5.1,0.7-6.1,3
								c-0.1,0.1-0.1,0.2-0.1,0.4c0,0.1-0.1,0.2-0.1,0.2c-0.1,0.2-0.1,0.4-0.2,0.6v0.1c-0.3,0.5-0.5,1-0.8,1.5
								c-0.1,0.1-0.2,0.3-0.3,0.4l-0.2,0.3c-0.4,0.4-0.8,0.8-1.2,1.2l-0.3,0.2l-0.4,0.3c-0.3,0.2-0.6,0.4-0.9,0.5
								c-0.8,1.2-1.7,2.3-2.6,3.4c-1.2,1.2-3,1.7-4.6,1.2s-2.8-1.7-3.3-3.3c-0.7-1.9-1.1-4-1.1-6.1c-0.5-0.2-1.1-0.3-1.7-0.2
								c-9,0.8-14.6,7.5-20.3,13.8c-6.1,6.7-12.3,13.3-18.5,19.9c-1.5,1.6-1.5,4.1,0,5.7c0.3,0.3,0.6,0.5,1,0.7
								C159.4,157.3,160.9,155.4,163,154.6z M194.8,152.6c-0.1-0.3-0.2-0.6-0.3-0.9c0.1,0.3,0.3,0.6,0.5,0.9H194.8z"/>
							<path class="st3" d="M200,129.1c-0.1,0.8,0.1,1.6,0.6,2.2c0.5,0.6,0.9,1.3,1.2,2.1c0.1,1.1-0.1,2.1-0.6,3.1
								c-0.6,2.1-0.9,4.2-0.9,6.4c-0.2,4.8-0.3,9.6-0.2,14.4c1.7,0.3,3.5,0.4,5.2,0.3l0.6-18.8c-0.1-1.2,0.2-2.4,0.7-3.6
								c0.6-1.1,1.7-1.9,2.4-3s0.8-2.8-0.3-3.4c-0.5-0.2-1-0.3-1.5-0.3C206.1,128.5,200,127.6,200,129.1z"/>
							<path class="st4" d="M76.4,163c1.6-0.8,3.3-1.4,5-1.9c2-0.6,3.8-1.3,5.9-0.8c3.2,0.7,4.2,5.1,1.9,7.3
								c-0.1,0.1-0.3,0.2-0.4,0.4l0.6,0.1l1.4,0.1l2.9-0.1c2,0,4.7-0.5,6.8,0c0.6-0.2,1.1-0.4,1.6-0.7c1.8-1.2,2.8-3.1,2.9-5.2h0.2
								c0.4-1.8,0.8-3.6,1.3-5.4c0.5-2.3,1.1-4.7,1.7-7c0.5-1.9,1-3.8,1.7-5.7c-0.4-1.1-0.2-2.3,0.5-3.3c0.9-1.2,3-1.8,4.3-0.9
								l3.7,2.8l0.8,0.6c0.2,0,0.3,0,0.5,0c0.3,0,0.5,0.1,0.8,0.2c0.4,0.1,0.7,0.4,1,0.6l0.5,0.6l0.3,0.6l0.2,0.1
								c0.6,0.4,1.1,0.8,1.7,1.2l0,0l0.1,0.1l0.8,0.7c1.2,0.9,2.3,1.9,3.4,2.9c4.6,4,9.2,8.2,14.7,10.9c0.9,0.4,1.8,0.6,2.8,0.6
								l-0.1-0.1l-0.3-0.2c-0.4-0.3-0.8-0.6-1.1-0.9c-0.6-0.7-1.1-1.6-1.4-2.5c-0.4-1.5,0.2-3.2,1.6-4c0.9-0.5,1.9-0.8,3-0.8
								c0.5,0,1,0.1,1.5,0.2h0.4l-0.3-0.3c-2.4-3.1-5.1-6.1-7.9-8.9c-3.2-3-5.8-4.3-8.8-7.3c-0.6-0.6-1.1-1.2-1.7-1.9l-0.2-0.3
								c-0.2-0.3-0.4-0.6-0.6-0.9c-1.1-1.6-2.2-3.2-3.3-4.7c-1.6-2.1-3.9-4.5-6.6-5.5c-1.3-2.4-4.3-3.3-6.7-2l0,0l0,0
								c-2,0.9-3.3,2.9-4.4,4.8s-2.2,3.8-3.3,5.7c-0.5,0.9-1,1.7-1.6,2.6c-0.3-2.2-0.9-4.3-1.7-6.4c-0.2-0.6-0.5-1.1-0.8-1.7
								c-0.8-0.4-1.5-1-1.9-1.7c-0.5-0.9-1-1.9-1.3-2.9c-2.1-2.2-4.9-3.6-8-3.7c-3,0.1-6,1.1-8.4,2.9c-2.1,1.4-4.1,2.9-6,4.6
								c-2.2,2-3.9,4.6-4.8,7.4c-0.7,2.9-1.3,5.8-1.6,8.8c-1.2,6.3-1.7,12.7-1.5,19.1c0,2,1.7,3.5,3.6,3.5c0.6,0,1.2-0.2,1.7-0.5
								c0.4,0.2,0.8,0.4,1.2,0.5C74.9,164.1,75.5,163.4,76.4,163z"/>
							<path class="st5" d="M210.9,123.4c-0.2,0.4-0.5,0.8-0.7,1.2c0.3-0.2,0.6-0.3,0.9-0.5l0.4-0.3l0.3-0.2
								c0.4-0.4,0.8-0.8,1.2-1.2l0.2-0.3c0.1-0.1,0.2-0.3,0.3-0.4c0.3-0.5,0.6-1,0.8-1.5v-0.1c0.1-0.2,0.2-0.4,0.2-0.6
								c0-0.1,0-0.2,0.1-0.2c-0.3,0.6-0.5,1.3-0.9,1.9C213.1,122.3,212.1,123.1,210.9,123.4z"/>
							<path class="st5" d="M231,177.9c-0.2,0-0.3,0-0.3,0.1S230.8,178,231,177.9z"/>
							<path class="st5" d="M194.8,152.6h0.2c-0.2-0.3-0.3-0.6-0.5-0.9C194.6,152.1,194.7,152.4,194.8,152.6z"/>
							<path class="st5" d="M88.8,167.9l-0.4,0.3l2.4-0.1l-1.4-0.2H88.8z"/>
							<path class="st5" d="M102.2,167.4c-0.5,0.3-1,0.5-1.6,0.7c0.9,0.2,1.8,0.7,2.5,1.4c0.1,0.1,0.3,0.3,0.4,0.4
								c0.6-2.6,1.2-5.1,1.8-7.7h-0.2C105,164.3,103.9,166.2,102.2,167.4z"/>
							<path class="st5" d="M148.1,179.3c-1.5,0.1-3,0.2-4.5,0.3c-0.5,0-1,0.1-1.6,0.1h8.6l1.3-0.6
								C150.7,179.3,149.3,179.3,148.1,179.3z"/>
							<path class="st5" d="M186.2,158.8c-0.9-2-1.7-4.1-2.3-6.3c-0.5-1.4-1-2.9-1.4-4.5c-3.8,3.5-7.8,6.8-11.9,9.9
								c0.6,0.8,1.2,1.5,1.7,2.2c1,1.6,0.9,3.7-0.2,5.2l3.1-1.1c1.9-0.6,3.8-1.2,5.7-1.7s4-1.4,5.9-1.3c0.6,0,1.3,0.2,1.8,0.6h0.5
								C187.8,161.1,186.8,160.1,186.2,158.8z"/>
							<path class="st5" d="M261.1,204.1c0.4-0.7,0.8-1.4,1.2-2c-0.4,0.2-0.8,0.4-1.2,0.6C261.1,203.1,261.1,203.6,261.1,204.1z"/>
							<path class="st5" d="M254.4,180.3c0.6,0.1,1.2,0.1,1.7,0.2c0.3-1,0.5-1.9,0.8-2.9C256.1,178.6,255.2,179.4,254.4,180.3z"/>
							<path class="st5" d="M217.4,163.8c-1,0.2-2-0.2-2.7-0.9c-1.7-1.1-2.9-2.8-3.4-4.8c-0.6,0.3-1.2,0.5-1.8,0.8
								c1.1,1,1.7,2.5,1.6,4.1c1.9,0,3.7,0.6,5.3,1.7C216.7,164.3,217,164,217.4,163.8z"/>
							<path class="st5" d="M217.9,172.8c-0.4-0.7-0.8-1.4-1.2-2.1c-0.5,0.5-1.2,0.8-1.9,1c-0.8,0.6-1.7,1.1-2.6,1.6l-1.7,1
								c-0.9,1.4-2.4,2.3-4.1,2.4c-1.5,0-3.1,0-4.6-0.2l-2-0.1c0.1,0.2,0.3,0.4,0.4,0.7c0.3,0.9,0.4,1.8,0.3,2.7h5.5l13.1,0.1
								c-0.7-2-1.1-4-1.4-6.1C217.8,173.5,217.8,173.1,217.9,172.8z"/>
							<path class="st5" d="M231.4,178L231.4,178z"/>
							<path class="st5" d="M42.3,169.3L42.3,169.3C42.1,170.5,42.4,169.4,42.3,169.3z"/>
							<path class="st5" d="M-4.7,184"/>
							<path class="st6" d="M230.2,187.2L230.2,187.2z"/>
							<path class="st6" d="M229.6,186.7c0.1,0.3,0.3,0.5,0.6,0.6l0,0l-0.1-0.1H230c-0.1-0.1-0.1-0.1,0.1,0h0.7
								c0.4-0.1,0.9-0.3,1.4-0.4l0.2-0.1c-0.5,0.1-0.9,0.1-1.4,0.1S230.1,186.8,229.6,186.7z"/>
							<path class="st6" d="M230.2,187.3L230.2,187.3z"/>
							<path class="st7" d="M137.1,180.3c1.7-0.1,3.3-0.3,5-0.5c0.5-0.1,1-0.1,1.6-0.1c1.5-0.1,3-0.2,4.5-0.3c1.2-0.1,2.6,0,3.8-0.2
								l-1.3,0.6l-2.5,1.2c-1.5-0.1-3-0.2-4.5-0.1c-2.2,0-4,1.6-4.3,3.8c-0.3,2.1,1,4.2,3.1,4.8c2.7,0.4,5.4,0.7,8.1,0.7l7.6,0.5
								l15.1,0.9c2.5,0.3,5,0.2,7.5-0.2c2.3-0.6,4.6-1.5,6.7-2.5c4.3-1.7,8.2-4,11.9-6.9c0.6-0.6,1-1.3,1.2-2.1
								c0.2-0.9,0.1-1.9-0.3-2.7c-0.1-0.2-0.2-0.5-0.4-0.7l2,0.1c1.5,0.2,3.1,0.3,4.6,0.2c1.7-0.1,3.2-1,4.1-2.4l1.7-1
								c0.9-0.5,1.7-1,2.6-1.6c0.7-0.2,1.3-0.5,1.9-1c-0.7-1.2-1-2.5-1.1-3.8c0-0.9,0.3-1.7,0.8-2.3c-1.6-1.1-3.4-1.6-5.3-1.7
								c0,1.7-0.9,3.2-2.4,4.1c-3.7,2-8.8,3.6-12.9,2.4c-0.6-0.2-1.2-0.5-1.7-0.9c-0.3,0.1-0.6,0.2-0.9,0.2
								c-1.4,0.3-2.9-0.2-3.8-1.3c-0.9-1.1-1-2.7-0.3-4c0.3-0.4,0.6-0.8,0.9-1.1c-0.4-0.1-0.7-0.3-1.1-0.5h-0.5
								c-0.6-0.3-1.2-0.5-1.8-0.6c-2-0.1-4,0.7-5.9,1.3s-3.8,1.1-5.7,1.7l-3.1,1.1c-0.3,0.4-0.6,0.8-1.1,1.1c-1.3,1-3,1.3-4.5,0.8
								c-0.8,0.3-1.6,0.8-2.4,1.3c-1.5,1.1-1.9,3.2-0.8,4.7c0.1,0.1,0.2,0.2,0.3,0.4c-2.7,0.9-5.2,2.1-7.7,3.5
								c1.5-2,1.2-4.8-0.8-6.4c-0.5-0.4-1-0.6-1.6-0.8c-0.7-0.2-1.5-0.3-2.3-0.3c-0.5-0.5-1-1-1.6-1.4c-1.3-1.2-2.7-2.2-4.3-2.9
								c-3.2-1.3-7.3-0.5-10.6-0.3s-6.7,0.3-10.1,0.6c-2,0.2-3.9,0.7-4.8,2.6c-0.8,1.7,0,3.7,1.8,4.5l0,0c0.1,0.1,0.3,0.1,0.5,0.2
								c0.4,0.1,0.8,0.1,1.2,0.1h0.2c1.1,1.5,2.3,2.8,3.6,4.1c0.8,0.9,1.6,1.9,2.4,2.8c0.9,0.9,2,1.6,3.1,2
								C134.4,182.3,136.2,181.7,137.1,180.3z"/>
							<path class="st8" d="M48.2,182.8l26.8-1.3c0.8,0,1.5-0.2,2.2-0.6c1.2-0.6,2.2-1.7,2.5-3c0.5-2.1-0.4-4.3-2.3-5.5
								c-4.9-3.7-11-5.4-17-5.9c-2.8-0.2-5.6-0.2-8.4,0c-3.2,0.3-9.3,2.6-11.6-0.5c-1.1-1.5-1.3-3.5-1.5-5.3
								c-0.4-3.8-0.6-7.7-0.8-11.5c-0.1-1.8-0.4-3.7-0.3-5.6c0-1.6,0.6-3.1,0.5-4.6c0-0.7-0.1-1.4-0.3-2.1c-0.9-3.7-2.2-7.4-3.3-11
								c-1-3.5-2.6-6.8-4.5-9.9c-0.9-1.6-2.3-2.9-3.9-3.8c-1.7-0.7-4.1-0.1-4.7,1.6c-0.2,0.9-0.2,1.8-0.2,2.7
								c-0.1,2.8-2.2,5.1-3.5,7.6c-2.5,4.8-2.9,13.1-2.1,18.4c0.8,4.6,2.2,9,4.1,13.2c1,1.8,1.6,3.8,1.8,5.9
								c0.1,2.4,0.1,4.9,0.3,7.3c0.6,7.3,4.8,14.6,12.9,14.6C39.4,183.3,43.8,183,48.2,182.8z"/>
							<path class="st9" d="M23.4,167.9c-0.7-4.8-1.9-9.5-3.6-14c-1.1-2.4-2-4.8-2.7-7.4c-0.4-2.3-0.6-4.6-0.5-6.9
								c0-4.4-2.1-15.8,5.3-15.8c2,0,3.6,1.3,5.1,2.6l8.6,7.1c0.7,0.5,1.3,1.2,1.7,1.9c0.3,0.9,0.4,1.8,0.3,2.8
								c-0.3,4.7-0.2,9.4,0.1,14.1c0.4,5,1.3,10.4,4.7,14.1c0.8,0,1.4,1.6,2.7,1.2c1-0.3,0.7-0.8,1-1.6c1-2.5,2.2-5,3.6-7.3
								c0.4-0.7,0.7-1.4,0.9-2.1c0.1-1,0.1-2.1-0.3-3.1c-0.6-2.2-1.3-4.4-2.1-6.6l-2.3-6.4c-0.3-1.3-1-2.4-1.9-3.3
								c-1.5-1.2-4.2-1.1-5.3-2.6c-0.4-0.6-0.3-1.4-0.5-2.1c-0.5-1.1-1-2.2-1.7-3.2c-1-1.8-2.1-3.5-3.4-5.1
								c-2.3-2.5-4.8-4.8-7.7-6.7c-0.5-0.4-1.1-0.7-1.7-0.7c-0.4,0.1-0.8,0.3-1.1,0.6c-1.7,1.4-3.5,2.3-5.3,3.5
								c-11.3,7.9-10,22.7-9.5,35c0.2,5.4,0.7,10.7,1.3,16.1c0.2,1.8,1.3,4.2,3.4,4.5c2.9,0.4,10,3,11.4-0.7c0.4-1.5,0.4-3,0-4.5
								C23.8,170.1,23.6,169,23.4,167.9z"/>
							<path class="st10" d="M33.7,101.2l-0.1-0.1L33.7,101.2L33.7,101.2z"/>
							<path class="st11" d="M40.8,126.3c0.5-2.8-1-4.2,1.3-6.5c0.7-0.6,1.6-0.9,2.6-0.8c1.3,0.4,2.7,0.6,4.1,0.6
								c2.3-0.3,4.2-1.9,4.9-4.2c0.5-1.8-1.2-6.7,0.8-7c0.6,0,1.3-0.1,1.9-0.2c0.1,0,0.2-0.1,0.3-0.2c0-0.2,0-0.3-0.2-0.4
								c-1.4-1.7-2.4-3.7-2.8-5.9c-0.1-0.3-0.2-0.6-0.2-0.5c-0.1-0.6-0.1-1.2-0.1-1.8c-0.1-1.2-0.2-2.4-0.4-3.7
								c-0.5-2.2-1.7-4.3-3.4-5.8c-0.1,0.4-0.4,0.7-0.6,1c-0.8,0.8-1.9,1.3-2.7,2c-0.7,0.6-1.3,1.4-1.8,2.2
								c-1.2,2.1-2.1,4.3-2.7,6.7c-0.6,1.9-2.5,3.2-4.5,2.9c-1.6-0.2-3-1.4-3.3-3h-0.1c-1.5,0.1-3,0.1-4.5,0
								c-0.2,0.6-0.3,1.2-0.5,1.9c-0.2,1.2-0.3,2.5-0.3,3.7c0.1,1.6,0,3.3-1.2,4.5c-0.2,0.2-0.5,0.4-0.8,0.5
								c0.5,1.5,1.2,2.9,2.2,4.2c1.2,1.6,2.6,2.9,3.6,4.6c1,1.6,1.8,3.4,2.4,5.2c0.7,2,2.6,4.1,3.7,6c0.1,0.1,0.2,0.2,0.3,0.3
								c0.4,0.2,0.7-0.3,0.8-0.7l1.3-5.2C40.8,126.4,40.8,126.4,40.8,126.3z"/>
							<path class="st12" d="M28.5,107.2c-0.1-1.3,0-2.5,0.3-3.7c0.1-0.6,0.3-1.2,0.5-1.9c1.5,0.1,3,0.1,4.5,0h0.1
								c0.4,1.6,1.7,2.8,3.3,3c2,0.3,3.9-1,4.5-2.9c0.6-2.3,1.5-4.6,2.7-6.7c0.5-0.8,1.1-1.6,1.8-2.2c0.9-0.6,1.8-1.3,2.7-2
								c0.3-0.3,0.5-0.6,0.6-1c0.8-2.3-1.7-4.7-3.6-5.3c-1.1-0.3-2.2-0.4-3.3-0.3h-9.5c-1,0-2.1,0-3.1,0.2c-4.9,1.1-8,8-9.1,12.4
								c-0.9,3.7,0.1,8.8,1.1,12.5c-1.6-5.7-5.7-2.7-8.8-0.2l-2.4,1.9c-3.9,3.1-5.7,5.6-5.6,10.6c0.1,3.7,2.7,8.1,1.7,11.6
								c-0.7,2.4,2.9,4.1,4.1,1.7c0.6-1.3,1.1-2.6,1.3-4c0.1-1.1,0.4-2.3,0.4-3.4c0.2-0.6,0.3-1.2,0.4-1.8h0.1
								c3.4,0,5.5-4.2,6.9-6.9c1.1-2,2.8-5.8,2.2-8.4c0.4,0.8,1,1.5,1.8,1.9c0.7,0.4,1.6,0.4,2.4,0.1c0.3-0.1,0.6-0.3,0.8-0.5
								C28.5,110.5,28.6,108.9,28.5,107.2z M33.7,101.2L33.7,101.2l-0.1-0.1C33.7,101.1,33.7,101.2,33.7,101.2L33.7,101.2z"/>
							<path class="st13" d="M86.3,171.1c1.7,0,3.4,0.3,5,0.7c1.3,0.2,2.5,0.5,3.8,0.9c2.9,0.9,5.6,2,7.2,4.7c0.2,0.3,0.3,0.6,0.3,1
								h0.4c2.3-0.1,5.3,0.1,7.3-1.2h0.1c2.3,0.6,4.6-0.7,5.2-3c1.6-6.1,3.1-12.1,4.6-18.2c0.4-1.5,0.7-3,1-4.5
								c0.3-1.1,0.5-2.2,0.5-3.3c0.1-0.2,0.2-0.3,0.2-0.5c0.1-0.2,0.2-0.5,0.2-0.8c0.1-0.4,0.1-0.8,0-1.2l-0.1-0.1l-0.3-0.6
								l-0.5-0.6c-0.3-0.3-0.6-0.5-1-0.6c-0.2-0.1-0.5-0.2-0.8-0.2c-0.2,0-0.3,0-0.5,0l-0.8-0.6l-3.7-2.8c-1.3-1-3.4-0.3-4.3,0.9
								c-0.7,0.9-0.9,2.2-0.5,3.3c-0.7,1.9-1.2,3.7-1.7,5.7c-0.6,2.3-1.2,4.7-1.7,7c-0.4,1.8-0.8,3.6-1.3,5.4
								c-0.6,2.6-1.2,5.1-1.8,7.7c-0.1-0.2-0.2-0.3-0.4-0.4c-0.7-0.7-1.5-1.2-2.5-1.4c-2.2-0.5-4.8,0-6.8,0l-2.9,0.1l-2.4,0.1
								c-1.4,0.8-3,1.4-4.7,1.7c-0.7,0.2-1.3,0.3-2,0.5c-0.6,1.4-0.5,3,0.4,4.1c0-0.1,0-0.3,0.1-0.4
								C82.9,172.4,84.5,171.1,86.3,171.1z M109.3,156.4c0.5-1.9,0.9-3.7,1.3-5.6c0.2-1.4,0.5-2.7,0.9-4c0-1.6,1.1-2.9,2.6-3.3
								c1.3-0.2,2.6,0.5,3.1,1.8c1.3,0.6,1.9,1.9,1.6,3.3c-1.2,3.4-1.9,7.3-3.7,10.4c-0.8,3.4-1.8,6.7-3,10
								c-0.5,1.7-2.3,2.8-4.1,2.3c-1.6-0.4-3-2.4-2.3-4.1C107.2,163.7,108.4,160.1,109.3,156.4L109.3,156.4z"/>
							<path class="st13" d="M82.2,174.9c-1.1,1.8-0.7,4.5,1.7,5.1c1.4,0.3,2.7,0.3,4.1,0.1c-1.3-0.3-2.6-0.7-3.8-1.2
								C82.9,178,82.1,176.5,82.2,174.9z"/>
							<path class="st14" d="M105.8,167.3c-0.7,1.7,0.7,3.6,2.3,4.1c1.8,0.4,3.6-0.6,4.1-2.3c1.2-3.3,2.2-6.6,3-10
								c1.8-3.2,2.4-7.1,3.7-10.4c0.4-1.3-0.3-2.7-1.6-3.3c-0.5-1.3-1.8-2-3.1-1.8c-1.5,0.4-2.6,1.7-2.6,3.3c-0.4,1.3-0.7,2.6-0.9,4
								c-0.4,1.9-0.8,3.7-1.3,5.6C108.5,160.1,107.3,163.7,105.8,167.3z"/>
							<path class="st15" d="M101.6,127.1c2.8,1.3,6.6-0.4,6.5-4c0-1.1-0.2-2.3-0.6-3.3l0.4-0.2h0.1c1.9,0.4,3.9-0.5,4.8-2.2
								c2-4.3,3.5-8.8,4.3-13.4c0.7-3.1,0.4-6.4-0.8-9.3c-0.2,0-0.4,0.1-0.6,0.1c-1.2,0-2.5-0.3-3.6-0.7l-1.2-0.3
								c-0.3-0.1-0.6-0.2-0.9-0.3c-0.9-0.1-1.9-0.1-2.8-0.2l-1.5-0.1c-0.4,1.4-1.4,2.5-2.7,3.2c-0.5,0.4-1.1,0.6-1.7,0.8
								c-0.2,0.1-0.3,0.2-0.3,0.1c-0.1,0.2-0.3,0.4-0.4,0.7c-0.3,1.1-0.8,2.1-1.4,3c-1.5,1.9-4.1,0.5-4.8-1.3
								c-0.4,0.1-0.9,0.1-1.3,0.1c-0.1,0.1-0.1,0.3-0.2,0.4c-0.3,0.5-0.7,0.9-1.3,1.1c-0.5,0.2-1.1,0.3-1.7,0.1
								c-0.3,2.2,0.1,4.3,1,6.3c0.5,1,1,1.9,1.6,2.7c-0.2,1.3-0.4,2.6-0.5,3.9c-0.3,2.6,2.5,5.1,5,5h0.3c0.3,1.1,0.6,2.2,1,3.3
								c0.3,1,0.7,2,1.3,2.9C100.2,126.2,100.9,126.8,101.6,127.1z"/>
							<path class="st16" d="M100.6,94.6l-0.3,0.1L100.6,94.6z"/>
							<path class="st15" d="M149,153.8L149,153.8c-0.4-0.1-0.9-0.2-1.4-0.2c-1.1,0-2.1,0.3-3,0.8c-1.4,0.8-2,2.5-1.6,4
								c0.3,0.9,0.7,1.8,1.4,2.5c0.3,0.4,0.7,0.7,1.1,0.9l0.3,0.2l0.1,0.1l0,0c1.4,1.1,3.1,1.8,4.9,1.9c4.1,0.1,6.2-5.2,3.3-8.1
								c-1.3-1.2-2.9-1.9-4.7-2.1h-0.1L149,153.8z"/>
							<path class="st17" d="M59.6,163.2c0.8,1.3,2.4,2,3.8,1.6c1-0.3,1.9-1,2.2-2.1c0.5-0.3,0.9-0.8,1.2-1.3
								c0.7-1.4,0.9-2.9,0.6-4.4c-0.1-1.2-0.3-2.3-0.4-3.5c-0.1-1.8-1.2-3.4-2.9-4.1c-1.3-0.6-2.8-0.6-4.2,0.1
								c-2.9,1.4-3.7,4.3-2.8,7.2C57.7,159,58.5,161.2,59.6,163.2z"/>
							<path class="st11" d="M88.5,168.2l0.4-0.3c0.1-0.1,0.3-0.2,0.4-0.4c2.3-2.2,1.3-6.6-1.9-7.3c-2.2-0.5-3.9,0.2-5.9,0.8
								c-1.7,0.5-3.4,1.1-5,1.9c-0.8,0.5-1.5,1.2-1.8,2.1c-0.1,0.3-0.2,0.6-0.2,0.9c-0.6,1.3-0.1,2.8,1.1,3.6
								c0.8,0.9,1.9,1.4,3.1,1.4c1.1-0.1,2.2-0.3,3.3-0.6c0.7-0.1,1.3-0.3,2-0.5C85.5,169.6,87.1,169,88.5,168.2z"/>
							<path class="st11" d="M101.5,180.5l0.2-0.1c0.6-0.5,0.9-1.2,0.9-2c0-0.4-0.1-0.7-0.3-1c-1.7-2.7-4.3-3.8-7.2-4.7
								c-1.2-0.4-2.5-0.7-3.8-0.9c-1.6-0.4-3.3-0.7-5-0.7c-1.8,0-3.4,1.2-4,3c0,0.1-0.1,0.3-0.1,0.4c0,0.1,0,0.3,0,0.4
								c-0.2,1.6,0.6,3.1,2,3.9c1.2,0.5,2.5,0.9,3.8,1.2c1,0.2,2,0.4,3.1,0.6l1.7,0.3C95.8,181.4,98.6,181.8,101.5,180.5z"/>
							<path class="st18" d="M91.7,101.3c0.5-0.2,1-0.6,1.3-1.1c0.1-0.1,0.1-0.3,0.2-0.4c0.4,0,0.9,0,1.3-0.1
								c0.7,1.8,3.3,3.2,4.8,1.3c0.6-0.9,1.1-1.9,1.4-3c0.1-0.2,0.2-0.4,0.4-0.7c0,0.1,0.1,0,0.3-0.1c0.6-0.2,1.2-0.5,1.7-0.8
								c1.3-0.7,2.3-1.8,2.7-3.2l1.5,0.1c0.9,0.1,1.9,0,2.8,0.2c-0.1,0,1,0.3,0.9,0.3l1.2,0.3c1.2,0.4,2.4,0.7,3.6,0.7
								c0.2,0,0.4,0,0.6-0.1c2.3-0.4,4-3.2,2.6-5.4c-1.8-2.7-5.1-3.7-8-4.8c-2.8-1-5.7-1.3-8.7-1.1c-3.1,0.1-6.2,1-8.8,2.6
								c-3,2-4.9,5.2-5.1,8.8c0,0.4,0,0.8,0.1,1.3c-0.1,0.1-0.2,0.2-0.2,0.3c-0.2,0.3-0.3,0.6-0.4,0.9s-0.1,0.7-0.1,1
								c0,0.6,0.2,1.1,0.4,1.6c0.1,0.2,0.3,0.4,0.5,0.6c0.1,0.1,0.1,0.1,0.2,0.2c0.3,0.3,0.7,0.6,1.1,0.7l0,0
								C90.6,101.5,91.2,101.5,91.7,101.3z M100.3,94.7l0.3-0.1L100.3,94.7z"/>
							<path class="st19" d="M171,166.4c0.4-0.3,0.8-0.7,1.1-1.1c1.2-1.5,1.2-3.6,0.2-5.2c-0.5-0.7-1.1-1.5-1.7-2.2
								c-1.9-2.3-4.4-4.4-7.5-3.3c-2.2,0.8-3.5,2.8-4,5.1c-0.3,1.4-0.4,2.7-0.2,4.1c0,1.2,0.8,2.3,1.9,2.8c1.2,0.5,2.5,0.3,3.4-0.6
								l0.2-0.2c0.1,0.1,0.2,0.2,0.3,0.3c0.5,0.6,1.2,1,2,1.2C168.1,167.7,169.7,167.4,171,166.4z"/>
							<path class="st19" d="M199.6,125.9c0.5,1.6,1.7,2.8,3.3,3.3s3.4,0,4.6-1.2c1-1.1,1.9-2.2,2.6-3.4c0.2-0.4,0.5-0.8,0.7-1.2
								c1.2-0.3,2.2-1.2,2.8-2.3c0.3-0.6,0.6-1.2,0.9-1.9c0.1-0.1,0.1-0.2,0.1-0.4c1-2.5,1.6-5.1,1.7-7.8v-1.3
								c1.4-0.9,2.3-2.5,2.2-4.2c-0.1-0.9-0.2-1.8-0.5-2.6c-0.1,0.2-0.1,0.3-0.2,0.5c-0.6,1-2,1.4-3.1,0.8c-0.3-0.2-0.6-0.5-0.8-0.8
								c-0.8-1.4-0.7-3.1-1-4.7c-0.1-0.8-0.3-1.5-0.4-2.3c-0.2-0.1-0.4-0.3-0.6-0.4c-0.4-0.3-0.7-0.6-1-1c-0.2-0.3-0.3-0.6-0.4-0.8
								c-0.2-0.3-0.3-0.6-0.5-0.9c-2.3,1.9-5,3.4-7.8,4.3c-1.8,0.6-3.7,1-5.6,1c0.1,2.3-0.3,4.6,0,6.8c0,1.1-0.9,2.1-2,2.2
								c-1.1,0.1-2.2-0.5-2.5-1.6c-0.4-1-0.8-2.1-1.1-3.3c-0.6,0.4-1.1,1-1.4,1.7c-0.6,1.4-0.4,3.4,0.8,4.4l0.2,0.1l0.3,0.3
								c0.3,0.4,0.6,0.8,1,1.2c0.5,0.6,1.1,1.1,1.6,1.6c1.1,1.2,2.2,2.4,3.2,3.6c0.4,0.5,1,1.3,1.6,2c-0.1,0.7-0.1,1.4-0.1,2.1
								C198.5,121.9,198.9,123.9,199.6,125.9z"/>
							<path class="st19" d="M209.5,158.9c-0.5-0.5-1.2-0.8-1.9-0.9c-5.9-1.1-13.1-0.2-17.4,4.4c-0.3,0.4-0.6,0.7-0.9,1.1
								c-0.7,1.3-0.6,2.9,0.3,4c0.9,1.1,2.4,1.6,3.8,1.3c0.3-0.1,0.6-0.1,0.9-0.2c0.5,0.4,1.1,0.7,1.7,0.9c4.2,1.2,9.3-0.4,12.9-2.4
								c1.4-0.9,2.3-2.4,2.4-4C211.2,161.4,210.6,159.9,209.5,158.9z"/>
							<path class="st20" d="M219.8,153.7c-0.5-2.1-1.2-4.1-1.9-6.1s-1.3-4-2.2-6c-0.9-2.2-1.5-4.5-3.6-5.9
								c-1.2-0.7-2.6-0.3-3.3,0.9l0,0c-0.1,0.2-0.2,0.4-0.2,0.6c-0.7,2.1,0.3,4.5,0.7,6.5c0.1,0.4,0.2,0.9,0.3,1.3
								c-2.7-1.8-5.7-2.9-8.9-3.5c-1.2-0.3-2.4,0.4-2.8,1.6c-0.3,1.2,0.4,2.4,1.6,2.8c1.3,0.3,2.5,0.7,3.7,1.3
								c0.2,2.7,2.5,5.5,4.2,7.3c1,1.1,2.2,2,3.5,2.7c0.1,0.3,0.2,0.7,0.3,1c0.5,1.9,1.7,3.6,3.4,4.8c0.7,0.7,1.7,1.1,2.7,0.9
								c0.4-0.2,0.9-0.4,1.4-0.4c0.9-0.5,1.5-1.3,1.9-2.2c0.4-1.6,0.4-3.4-0.2-5C220.2,155.3,220,154.5,219.8,153.7z"/>
							<path class="st21" d="M194.9,107.7c1.1-0.1,2-1.1,2-2.2c-0.3-2.2,0.1-4.5,0-6.8c1.9,0,3.8-0.4,5.6-1c2.9-0.9,5.5-2.3,7.8-4.3
								c0.2,0.3,0.3,0.6,0.5,0.9c0.1,0.3,0.3,0.6,0.4,0.8c0.3,0.4,0.6,0.7,1,1c0.2,0.2,0.4,0.3,0.6,0.4c0.1,0.7,0.2,1.5,0.4,2.3
								c0.3,1.6,0.2,3.2,1,4.7c0.6,1,2,1.4,3.1,0.8c0.3-0.2,0.6-0.5,0.8-0.8c0.1-0.2,0.1-0.3,0.2-0.5c0.5-1.6,0.6-3.3,0.2-4.9
								c-0.1-1.8-0.7-3.5-1.7-5V93c-0.1-1-0.3-2-0.6-2.9c-1.9-5.1-8.3-6.8-13.4-6.9c-1.2,0-2.3,0.1-3.5,0.4
								c-1.6,0.5-3.1,1.3-4.3,2.4c-1.4,1.1-2.6,2.4-3.5,4c-1.1,2.2-0.3,4.2-0.4,6.2c-0.1,2.4-0.5,4.2,0.2,6.6
								c0.3,1.2,0.7,2.3,1.1,3.3C192.7,107.2,193.8,107.9,194.9,107.7z"/>
							<path class="st22" d="M216.4,164.6c-0.6,0.6-0.9,1.5-0.8,2.3c0.1,1.3,0.5,2.6,1.1,3.8c0.4,0.7,0.8,1.4,1.2,2.1
								c-0.1,0.3-0.1,0.7-0.1,1c0.2,2.1,0.7,4.1,1.4,6.1c0.4,1.4,0.8,2.7,1.1,4.1c0.7,3.1,1.6,6.7,3.9,9.1c4.6,4.8,12,2.6,16.7-0.8
								c4.8-3.6,9.3-7.6,13.4-11.8c0.9-0.9,1.7-1.8,2.6-2.6c-0.3,1-0.6,1.9-0.8,2.9c-1.4,5.2-2.5,10.5-3.2,15.9
								c0,1.5,0.7,2.9,1.9,3.7c1.2,0.9,2.7,1.2,4.1,0.8c1.6-0.3,3.2-0.6,4.8-1.1c2.9-4.4,6.1-8.6,9.5-12.6c0.7-1.2,1.5-2.4,2.4-3.6
								c1.1-1.5,2.4-2.8,3.9-4c0.5-0.6,0.9-1.3,1.4-1.9l0.8-1.1l0.6-0.8c0.5-0.6,1-1.3,1.5-1.9c0.6-0.3,1.1-0.6,1.7-0.8l0.2-0.1
								l0.9-0.4c5-1.9,10.4-2.7,15.6-3.6c2.2-0.6,3.7-2.6,3.7-4.9c-1-10.8-2.4-22.9-11.3-30.4c-2.2-1.9-4.7-3.4-7.4-4.4
								c-1.5-2.9-3.8-5.3-6.6-6.9c-1.4-0.7-2.9-1.1-4.5-1.2l-0.8,0.2c-0.2,0-1.1,0.4-1,0.4c-0.4,0.2-0.7,0.4-1.1,0.6
								s-0.9,0.6-1.3,0.8l-0.3,0.2l-0.5,0.4c-0.8,0.7-1.5,1.5-2.1,2.3c-1.1,1.3-2.9,1.8-4.5,1.3c-0.4,0.5-0.7,1.1-1,1.6
								c-1.9,3.4-2.5,7-2.9,10.8c-0.1,0.8-0.2,1.7-0.3,2.5c0,0.3-0.1,0.7-0.1,1v0.6c-0.1,0.5-0.2,0.9-0.3,1.4l-0.1,0.1l-3.9,4.6
								c-3.2,3.8-6.4,7.6-9.6,11.5s-6.2,7.6-9.4,11.3c-0.7,0.8-1.4,1.6-2.2,2.3c-0.4,0.4-0.9,0.9-1.4,1.3c-0.2,0.1-1.1,0.9-0.7,0.6
								c-0.3,0.2-0.7,0.4-1,0.6l-0.3,0.1l-0.3-0.3l0,0c-0.2-0.3-0.4-0.6-0.6-0.9l-1.1-1.7l-2.3-3.6l-2.2-3.4c-1-1.5-1.9-3.2-3.5-4
								c-0.7-0.4-1.5-0.5-2.4-0.4c-0.5,0.1-0.9,0.2-1.4,0.4C217.1,164.1,216.8,164.3,216.4,164.6z M232.3,186.9
								c-0.4,0.2-0.9,0.3-1.4,0.4h-0.7c-0.2-0.1-0.2-0.1-0.1,0h0.1l0.1,0.1l0,0c-0.3-0.1-0.5-0.4-0.6-0.6c0.5,0.1,0.9,0.2,1.4,0.2
								s0.9,0,1.4-0.1L232.3,186.9z M231.4,178L231.4,178C231.5,178,231.7,178,231.4,178z M231,177.9c-0.2,0.1-0.3,0.1-0.3,0.1
								S230.8,177.9,231,177.9L231,177.9z"/>
							<path class="st23" d="M230.1,187.2"/>
							<path class="st13" d="M316.1,171.9c-4.1-2.5-9.1-1.7-13.6-0.8c-4.8,0.9-9.6,2.1-14.2,3.6c-3.2,1.1-6.3,2.7-8.9,4.9
								c-1.4,1.2-2.7,2.5-3.9,4c-0.9,1.2-1.7,2.4-2.4,3.6c-3.4,4-6.5,8.2-9.5,12.6l49.9,1.2c2.1-4.9,4.6-9.7,6.4-14.7
								C321.8,181.1,321.1,175,316.1,171.9z"/>
							<path class="st20" d="M269,126.2c0.6-0.8,1.4-1.6,2.1-2.3l0.5-0.4l0.3-0.2c0.5-0.3,0.9-0.6,1.3-0.8s0.7-0.4,1.1-0.6
								c-0.1,0.1,0.8-0.3,1-0.4l0.8-0.2c0.3-0.1,0.5-0.1,0.8-0.2l0.9-0.2l0,0c2.5-0.3,4.5-1.7,4.9-4.3c0.3-1.8-0.5-3.6-2-4.6
								c-0.8,2-2.6,3.5-4.7,3.8c-1,0.2-1.9,0.3-2.9,0.4c-2.9,1.6-6.3,2.3-9-0.1c-1-1.2-2-2.4-2.8-3.8L261,112l-0.6-0.7
								c-0.5-0.5-1-1-1.4-1.6c-1.1-1.2-2.3-2.3-3.6-3.3c0,0.4,0,0.8-0.1,1.3c-0.2,2.8-4.3,2.8-4.3,0c0-1.3-0.1-2.6-0.3-3.9
								c-0.1-0.5-0.2-1-0.3-1.4c-2.2-1.2-2.4-2.6-2.7-4.8c-1.2,0.2-1.7,1.6-1.8,2.8c-0.2,3.1,0.6,6.1,1.4,9.1l1.4,5.1
								c0.3,1.5,0.9,3,1.8,4.3c1.2,1.5,3.2,2.5,3.8,4.3c0.4,1.2,0.2,2.5,0.7,3.6c0.8,1.3,2.2,2,3.6,1.8c2.2-0.1,3.7-1.7,5.8-1.2
								C266.1,128,267.9,127.5,269,126.2z"/>
							<path class="st24" d="M250.5,102.4c0.1,0.5,0.2,1,0.3,1.4c0.2,1.3,0.2,2.6,0.3,3.9c0.1,2.8,4.1,2.8,4.3,0
								c0-0.4,0-0.8,0.1-1.3c1.3,1,2.5,2.1,3.6,3.3c0.5,0.5,1,1,1.4,1.6l0.6,0.7l0.2,0.3c0.8,1.3,1.7,2.6,2.8,3.7
								c2.8,2.4,6.1,1.7,9,0.1c1-0.1,1.9-0.2,2.9-0.4c2.2-0.3,4-1.8,4.7-3.8c0.4-1,0.6-2.1,0.6-3.2c0.2-8.4,1.8-18-6.9-23
								c-2.4-1.3-5.1-2.2-7.8-2.5c-3.7-0.4-7.4-0.4-11.1,0c-2.3,0.1-4.1,1.5-6.3,2.3c-2.9,1.1-2.7,4-2.7,6.9c0,1.8,0.7,3.6,1.1,5.4
								c0.1,1,0.4,1.9,0.9,2.7C248.7,101.1,250.3,101.9,250.5,102.4z"/>
							<path class="st8" d="M47.2,129.4c0.2,0.3,0.4,0.7,0.5,1.1c0.2,1-0.7,1.9-1.2,2.7s-0.8,1.7-0.8,2.6c0,0.4-0.1,0.8-0.3,1.1
								c-0.4,0.3-0.9,0.4-1.3,0.2c-1.4-0.3-2.8-0.8-4.1-1.5c-0.1,0-0.2-0.1-0.2-0.1c-0.1-0.1-0.1-0.3-0.1-0.4l0.2-5.6
								c0-0.3,0-0.6,0.1-0.8s0.2-0.4,0.4-0.5c0.9-1.2,0.4-4.8,2.4-4.5C44.4,123.9,46.4,128.1,47.2,129.4z"/>
							<path class="st25" d="M104.7,131.8l-5.1-0.3c-0.6,2,1.6,3.7,2.6,5.6c1.2,2.1,0.8,4.8,0.5,7.3c-0.9,6.6-1.2,13.3-0.8,20
								c0,0.8,0.2,1.6,0.6,2.3c0.5,0.7,1.4,0.9,2.1,0.4l0,0l0,0"/>
							<path class="st26" d="M341.4,198.8h-26.6c6.4-12.4,8.6-21,6.3-25c-0.8-1.4-2.2-2.2-3.8-2.3h-0.1c-2.8,0-9.8,2.2-12.3,3.1
								c0.1-1.2,0.4-3.6,0.5-6.7l2.6-0.6c-0.1,1.1-0.2,1.7-0.2,1.8c0,0.2,0.1,0.4,0.2,0.5c0.2,0.1,0.4,0.2,0.5,0.1
								c0.1,0,11.7-3.8,15.5-1.9c2.6,1.3,0.4,11.7-1.7,18c-0.1,0.3,0,0.6,0.3,0.7s0.6,0,0.7-0.3l5.8-14.2c1-2.9,0.9-5.2-0.5-6.7
								c-3.4-3.7-13-1.2-13.4-1.1l-6.2,1.5c0.4-4.2,1-11.2,0.5-13.5c-0.6-2.8-5.6-18.6-8.4-20.6l-1-0.8c-3.2-2.4-9.2-6.8-12.4-7.2
								s-18.2,3.9-25.6,8.4c1.2-1.5,2.1-2.6,2.1-2.6c0.1-0.2,0.2-0.4,0.1-0.6l-0.1-0.3c3.7-2.9,9-6.9,10.9-7.1
								c1-0.1,2.1-0.3,3.1-0.6c1.3-0.4,2.7-0.6,4.1-0.7c1,1.2,2.1,2.2,3.4,3c0.2,0.1,0.5,0.1,0.7-0.1c0.2-0.2,0.3-0.4,0.1-0.6
								l-1.2-2.8c-0.1-0.2-0.2-0.3-0.4-0.4c-0.7-0.1-1.4-0.2-2.1-0.3c-1-1.3-1.6-2.8-1.8-4.4v-0.1c-0.2-0.9-0.3-1.8-0.4-2.8
								c0-0.3-0.3-0.6-0.6-0.6c-0.3,0-0.6,0.2-0.6,0.5l0,0c0,0-0.2,4-6.7,3.8c-7.1-0.2-9-1.6-10.7-4.6s-5.3-7-7.9-6.2
								c-2,0.7-1.8,3.6-1.6,5l-0.5,0.1c-0.1-1.8-0.7-6.5-2.4-7.7c-0.2-0.2-0.5-0.3-0.8-0.3c0,0-0.3-3.3-0.3-3.6
								c-0.1-1.3-0.8-2.5-1.8-3.3c-0.1,0.1-0.8,0.7-0.7,0.7c-0.3-0.8-0.3-1.7-0.2-2.6l0.4-5.5c5.2-4,11.7-5.9,18.3-5.6
								c3.2,0.2,6.5,0.7,9.3,2.1c1.4,0.7,2.6,1.8,3.5,3.1c0.4,0.6,0.6,1.3,1.1,2c0.6,0.8,1.1,1.7,1.5,2.6c0.6,1.6,1,3.2,1.2,4.9
								c0.4,3.4,0.1,6.9-0.9,10.2c0,0.1-0.1,0.3-0.1,0.4c-0.1,0.3,0.1,0.6,0.4,0.7c0.3,0.1,0.6-0.1,0.7-0.4l0.1-0.4
								c0.9-3.5,1.2-7.2,0.9-10.8c-0.2-2.5-1-4.9-2.2-7c-0.5-0.7-1.1-1.4-1.5-2.1c-1-1.8-2.5-3.2-4.3-4.2c-3-1.3-6.3-2.1-9.6-2.2
								c-0.7,0-1.4-0.1-2-0.1c-4.3,0-8.6,1.1-12.5,3c-1.4,0.7-3.5,1.6-4.6,2.8s-0.7,4.6-0.9,6.4c-0.1,1.5-0.1,3,0.9,4
								c-0.3,0.7-0.5,1.5-0.5,2.2c0,1.5-0.1,3.1-0.4,4.6c-0.2,0.7-0.2,1.3,0,2c0.2,0.6,0.6,1.1,1,1.4c0.4,0.4,0.8,0.8,1,1.3
								c0.2,0.9,0.3,1.8,0.3,2.7c0,1.9,0.3,3.7,0.9,5.5c0.7,1.3,1.4,2.6,2.3,3.8c0.8,1.1,1.5,2.4,2.1,3.7c0.1,0.4,0.1,0.9,0.1,1.3
								c0.1,1.6,0.2,4,3,4.5c1.4,0.1,2.9-0.3,4.1-1.1c1.2-0.6,2.3-1.1,3-0.8l0.2,0.1c-0.9,0.8-1.6,1.3-1.8,1.5
								c-0.1,0.1-0.2,0.2-0.2,0.3l-0.5,2.4c-2.4,3-5.3,7-6.1,9.2c-1.6,4.2-6.6,12.9-6.7,12.9c-1,1.3-2,2.5-3.1,3.7
								c-0.2,0.2-0.4,0.4-0.6,0.6c-0.1-1.6-0.3-3.2-0.6-4.7c0-1.2-0.2-2.4-0.6-3.5c-0.3-0.7-0.4-1.5-0.5-2.2c0.1-1.1,0-9.3-1-11.2
								c-0.6-1.1-0.8-3.8-0.9-6.1c-0.1-0.9-0.1-1.8-0.2-2.6c-0.3-3.1-3.2-6-4.4-7.2l-0.1-0.1c-1.2-1.2-4.1-2-7-2.8
								c-3.6-1.3-7.1-2.8-10.4-4.7c-0.7-1-1.3-2-1.6-3.2l0.3-1.4c0.5-0.2,1-0.6,1.3-1.1c1.1-1.8,1.6-5.4,0.8-6.9
								c-0.2-0.6-0.7-1-1.3-1l0,0c-0.1,0-0.2,0-0.3,0.1c0-0.3,0-0.6,0-0.9c0.8-2.8,2.4-11-3.1-13.3c-1-1.3-2.2-2.4-3.6-3.2
								c-2.3-1.3-6.2-2.3-11.8,0c-9.4,3.8-9.5,11.1-8.8,15.2c0.1,0.3,0.3,0.5,0.6,0.5c0.1,0,0.7-0.1,1.6-0.2
								c-0.1,0.1-0.2,0.3-0.3,0.4c-0.4,0.9-0.4,2,0,2.9c-0.1-0.2-0.3-0.3-0.5-0.3c-0.8,0-1.5,0.4-1.9,1c-0.9,1.6,0.2,4.3,1.5,7.1
								c0.5,1.4,1.9,2.3,3.3,2.2c0.2,0.6,0.5,1.1,0.7,1.7c-0.3-0.2-0.6-0.1-0.8,0.1c-0.6,0.8-3.1,1.3-5.1,1.6c-1.4,0.2-2.7,0.5-4,1
								c-2.2,1.1-7.9,8.2-8.5,9.4c-0.6,0.9-1.4,1.7-2.3,2.3c-0.5,0.4-1.1,0.9-1.5,1.3c-1,1.3-1.9,2.7-2.5,4.3
								c-0.2,0.4-0.3,0.8-0.5,1c-1.2,1.8-2.8,3.3-4.6,4.5c-1.1,0.5-1.8,1.8-2.4,3c-0.2,0.4-0.4,0.9-0.7,1.2c-0.4,0.6-1,1.1-1.6,1.6
								c-0.8,0.7-2,1.8-4.2,3.8c-1.4,1.4-2.3,3.2-2.4,5.2c-0.3-0.5-0.7-1-1.1-1.4c-0.3-0.2-0.5-0.3-1.7,0.3c0.1-0.1,0.2-0.3,0.2-0.4
								c0.3-0.6,0.4-1.3,0.2-2c-0.5-1.6-2.7-2.7-4.8-3.7c-1-0.4-1.9-0.9-2.7-1.6l-0.9-0.9c-1.8-1.6-3.6-3.4-5.1-5.3
								c-0.4-0.6-1.6-2.2-2.9-4.1c-2.5-3.7-5.7-8.3-6.6-9.4c-1.4-1.7-6.6-6.6-8.7-7.5c-1.1-0.3-2.1-0.3-3.2-0.1
								c-0.8-0.5-1.8-0.9-2.7-1.1c-0.2,0-0.5,0.1-0.6,0.3s-0.1,0.5,0.1,0.7s0.3,0.4,0.4,0.6c-2.2,0.3-4.2,1-6.2,1.9
								c-2.1,1.4-3.6,8.2-3.7,8.9c-0.1,0.3,0.1,0.6,0.4,0.7c0.3,0.1,0.6,0,0.7-0.3c1.5-3.2,3.5-6,4.1-5.7c1.3,0.5,3.6,3.4,4.4,4.5
								c0.2,0.2,0.6,0.3,0.8,0.1c0.1-0.1,0.1-0.2,0.2-0.3c0.2-0.7,1.4-5.5,0.8-8.8l1.1-0.1c1.4,0.9,2.6,2.1,3.4,3.5
								c2.4,4.2,2.3,10.2-0.3,17.9c-0.1,0.1-0.1,0.3,0,0.5c0.2,0.3,0.4,0.8,0.8,1.4c-0.2-0.2-0.5-0.3-0.7-0.4l-7.1-2.8l0,0
								c-0.7-0.2-1.4-0.2-2,0.1c-0.7,0.4-1.2,1.1-1.5,1.9l-4.8,18.5c0.6-4.1,1.3-8.6,1.6-9.7c0.4-2,0.8-18.2-3.2-21.1
								c-0.9-0.7-2-2.5-3.2-4.8c0.1,0,0.2-0.1,0.3-0.3c0.2-0.2,0.1-0.6-0.1-0.8l-1.2-1c-2.1-4.6-4.1-10.2-5-13.1
								c0-0.1,0-0.1-0.1-0.2c-0.1-0.1-0.1-0.2-0.2-0.3c0.3,0.2,0.7,0.2,1,0.3c0.5,1.5,2,5.5,5.3,7s9,3.7,11.8,2.9s3.6-7.9,3.6-8.9
								c0.1-0.9,0.3-1.7,0.6-2.6c0.3-0.8,0.5-1.7,0.6-2.6c0.2-1.2,0.7-2.4,1.3-3.5l0.1-0.2c0.3-0.7,0-2.4-0.8-5.8l-0.3-1.3
								c2-0.1,3.6-1.9,3.5-3.9c0,0,0,0,0-0.1l0,0c0-0.3-0.2-0.5-0.5-0.5c-2.2-0.3-4.2-1.4-5.7-3.1c-1.5-1.5-3.3-3.3-8.3-4.3
								c-8.7-1.8-13,1.9-13.8,2.6c-2.8,1-4.5,5.2-4.6,11.1c-0.1,4.7,3.1,12.1,3.7,13.3c-0.2,1.7-0.6,3.4-1.1,5.1c0,0.1,0,0.2,0,0.4
								c0.7,1.8,5.4,6.2,7.9,8.4v0.1c-2.5,0.5-5.6,3-6.9,4.2c-1.3-3.5-2.4-7.1-3.1-10.7c0-0.2-0.2-0.4-0.4-0.4
								c-0.2-0.1-0.4,0-0.6,0.2c-1.3,1.4-5.3,3.3-11.9,5.7l-0.5,0.2c-2.1,0.8-6.7,6.1-8.6,11.8c-0.7,2.3-0.6,4.7,0.1,6.9
								c0.5,2.2,1,4.2-0.3,6.9c0-0.2,0-0.5-0.1-0.7c0-0.3-0.3-0.5-0.6-0.5l-6.5,0.2c-1.3-0.1-2.6,0.5-3.4,1.5
								c-1.8,2.4-0.8,6.6-0.8,6.8l1.9,9.4l-1.8,0.4c-2,0.4-4.8,1-5.7,0.6c-0.3-0.1-0.6-0.8-0.7-1.8c0.3-1.1,0.8-2.1,1.5-3
								c2.7-3.6,1.9-9.3-2.3-17.9c-4.1-8.3,1.2-11.4,1.4-11.5c0.1-0.1,0.2-0.2,0.3-0.4c0.1-0.1,0.1-0.3,0-0.4
								c-0.1-0.2-3.3-5.9-7.3-8.1c-0.1-0.1-0.2-0.1-0.3-0.1c0.6-1.5,1.8-2.7,3.4-3.2c1,0.1,5.8,0.8,7.4-0.4s1.6-4,1.5-6
								c-0.1-0.8-0.1-1.7,0.1-2.5c0.3-0.3,0.5-0.4,1-0.4c1.2,0,2.2-0.7,2.5-1.9c0.1-0.2,0-0.4-0.1-0.6c-0.9-1.1-3.3-4.3-3.2-5.9
								c0.1-0.5,0.1-1.1,0.3-1.6c0.6-1.7,0.3-3.6-0.7-5.1c-0.4-0.7-0.8-1.5-1.1-2.3c-0.4-1-0.9-2-1.4-2.9c0.2-0.2,0.3-0.5,0.3-0.8
								c0.1-1.9-3.8-4.8-7.8-5.2c-2.5-0.2-14.9-1.1-20,4.6c-4.2,4.7-6.3,12.9-4.3,16.3l0.1,0.1c1,1,1.8,2.2,2.4,3.5
								c-0.2,0.4-0.4,0.7-0.7,1c-0.8-1.3-1.5-2.8-2-4.2c-0.1-0.3-0.4-0.4-0.7-0.4c-0.1,0-12.6,4.1-14.2,15.9
								c-0.8,6.2,0.9,8.5,2.4,10.6c0.9,1.1,1.6,2.5,1.9,3.9c-1.3,3.6-2,7.4-1.8,11.3c0.1,2.3,0.2,4.6,0.2,6.8
								c0.3,9.4,0.6,18.3,2.6,25.3c0.1,0.2,0.3,0.4,0.6,0.4H26c0.3,0,0.6-0.3,0.6-0.6l0,0c0-0.1,0-0.2,0-0.2c0-0.1-3.7-8.7-4.5-14.5
								c-0.9-6.1-3.8-15.2-5.5-18c-1-1.7-1.7-10.8,0.8-18.4c0.2-0.6,0.4-1.1,0.6-1.6c1.3-0.6,2.9-1.5,4.4-2.4
								c0.5-0.3,0.9-0.5,1.2-0.8c1,0.9,2.1,1.7,3.2,2.6c1.9,1.4,3.7,3,5.4,4.6c4.2,4.7,13.6,19.4,14,24c0.1,1,0.1,2.2,0.2,3.4
								c0,2.3,0.2,4.6,0.5,6.9c-0.5,1.7-0.8,3.4-0.9,5.1v0.1c0,0.1,0,0.1,0,0.2c-0.2,0-1.2-0.3-4-3.2c-0.9-1-1.5-2.1-2-3.4
								c-0.1-0.6-0.1-1.2-0.2-1.9c-0.7-7.2-1.8-18-2.7-20.6c-0.1-0.2-0.3-0.8-0.8-0.8c-0.3,0-0.6,0.2-0.7,0.4
								c-0.5,1.1-0.2,6.9,0.5,12.2c0.5,3.7,1.4,7.4,2.7,10.9c0.3,2.6,0.4,3.9,0.5,4.3c0.4,1.5,3.5,3.4,5.9,4.1
								c1.6,0.5,7.8,1,12.6,1.3l0.2,1.1c0.1,0.3,0.3,0.5,0.6,0.5c2.7,0,5.4-0.4,8-1.2c3.9-0.2,9.4-0.7,10.1-0.8
								c1.4,0.3,3.7,3.7,3.8,6.3c0.1,1.7-0.8,1.9-1.1,2c-2.6,0.7-9.3,1-14.2,1.2c-2.4,0.1-4.4,0.2-5.5,0.3
								c-3.9,0.4-28.2,1.3-29.6,0.9c-0.8-0.3-1.5-1.8-1.8-2.7c-0.1-0.2-0.3-0.4-0.5-0.4h-39.2c-0.3,0-0.6,0.3-0.6,0.6l0,0l0,0
								c0,0.3,0.2,0.6,0.6,0.6l0,0h38.7c0.3,0.8,1.1,2.5,2.4,3c1.6,0.6,27.8-0.6,30.2-0.8c1.1-0.1,3.1-0.2,5.5-0.3
								c5.2-0.2,11.8-0.5,14.4-1.2c1.4-0.4,2.1-1.5,2-3.2c-0.2-2.8-2.7-7.1-4.9-7.4h-0.1c0,0-2.6,0.3-5.6,0.5l2.8-1
								c2.5-0.9,5-1.8,7.4-2.5l-0.1,0.1c-0.6,0.3-1,0.8-1.1,1.4c-0.2,0.7,0,1.5,0.5,2.1c0.3,0.2,0.6,0.4,1,0.5h-0.1
								c-0.2,0-0.5,0.1-0.6,0.3s-0.1,0.5,0.1,0.7c1.6,1.5,1.1,5.7,0.8,7.1c-0.1,0.3,0.1,0.5,0.3,0.6c1,0.4,2.9,0.2,5,0
								c1.1-0.2,2.3-0.2,3.4-0.2c0.3,0.1,0.9,0.2,1.5,0.3c3.2,0.7,6,1.2,7.1,0.8c0.5-0.1,0.9-0.5,1-1v-0.2c0.8,0.3,1.7,0.3,2.6,0.1
								c0.6-0.3,1-0.9,0.9-1.6l8-0.6c0.2,0,0.3-0.1,0.4-0.2c0.1-0.1,0.1-0.3,0.1-0.5l-0.4-1.7V175l0.8,0.6c0.2,0.1,0.4,0.1,0.5,0.1
								c0.2-0.1,0.3-0.2,0.4-0.4l2.9-10.1l26.9-2.5l0.3,0.1l-0.1,0.7c0,0.1,0,0.1,0,0.2l0.2,1.1l-1.4-0.7c-0.1-0.1-0.2-0.1-0.3-0.1
								l-24.5,2.8c-0.3,0-0.6,0.3-0.5,0.7c0,0.2,0.1,0.3,0.2,0.4l6.2,4.3c0.1,0.1,0.3,0.1,0.4,0.1l2.9-0.4l8.4,7.9
								c0.1,0.1,0.3,0.2,0.5,0.1l24.6-5c0.2,0,0.4-0.2,0.5-0.5c0-0.2-0.1-0.5-0.3-0.6l-9.7-5.3l5.9-0.8c0.3,0,0.5-0.3,0.5-0.6
								c0-0.2-0.2-0.4-0.4-0.5l-4.4-1.7c1.1-0.3,3.8-2.6,3.7-3.9c-0.1-0.5-0.2-1-0.3-1.5c-0.1-0.3-0.2-0.5-0.2-0.8
								c0.1-0.3,0.4-2.7-0.4-3.7c0.2-2.1,0.5-4.2,2.2-5.8c2.1-2,3.4-3.1,4.2-3.8c0.7-0.5,1.3-1.1,1.7-1.8c0.3-0.4,0.5-0.8,0.7-1.3
								c0.4-1,1-1.8,1.9-2.5c2-1.3,3.8-3,5.1-5c0.1-0.3,0.3-0.6,0.5-1.1c0.5-1.4,1.3-2.7,2.2-3.9c0.4-0.4,0.9-0.8,1.4-1.2
								c1-0.7,1.9-1.7,2.6-2.7c0.6-1.2,6.1-8,7.9-8.9c1.2-0.4,2.4-0.7,3.7-0.9c2.1-0.4,4.2-0.8,5.3-1.6c0.7,0.9,2.3,2.9,2.6,4.4
								c0.4,2.3,1.5,6.9,4,8.8c-0.6,0-1.1,0.2-1.5,0.6c-0.2,0.2-0.4,0.5-0.4,0.8c-0.1,0.9,0.1,1.9,0.8,2.6l0.3,0.4
								c0.4,0.4,0.6,1,0.8,1.5c0.1,0.8-0.1,1.6-0.4,2.3c-0.1,0.2-0.1,0.3-0.2,0.5c-0.3,0.9-0.5,1.9-0.6,2.9
								c-1.1-0.4-2.3-0.6-3.5-0.6c-0.7,0-1.2,0.5-1.4,1.1c-0.1,0.7,0.2,1.4,0.8,1.9c0.6,0.4,1.3,0.9,1.7,1.1c0,0.7,0.2,1.3,0.7,1.8
								c0.4,0.4,1,0.7,1.5,0.9v1.3c-0.1,3-0.2,6.8-0.2,9.7c-1.2-0.1-2.4-0.1-3.6,0c-1.1,0.2-2.1,0.8-2.9,1.6
								c-0.2,0.2-0.5,0.4-0.7,0.6l-0.8,0.6c-2.2,1.6-3,2.3-3.2,2.7h-2.2c0-1.5-0.1-3-0.3-4.6c-0.5-1.6-1-3.1-1.8-4.6
								c-0.9-2.1-2-4.7-2-5.5c0-0.5-0.3-0.9-0.7-1.1c-1.2-0.2-2.9,2.3-3.3,3.2s-3.3,3.8-4.5,4.9c-0.3,0.3-0.5,0.5-0.6,0.6
								c-0.9,0.8-1.8,1.6-2.8,2.3c-1.1-1.4-3.7-4.5-5.8-3.7c-1.4,0.6-1.8,1-2,1.6c0,0.1,0,0.1-0.1,0.2c-0.3,0.2-0.5,0.3-0.8,0.4
								c-0.6,0.2-1.1,0.5-1.5,0.9c-0.2,0.4-0.4,0.9-0.4,1.5c0,0.2,0,0.5-0.1,0.7s-0.3,0.3-0.5,0.4c-0.4,0.2-0.8,0.6-1,1
								c-0.2,0.5-0.3,0.9-0.3,1.4c0,0.3,0,0.5-0.1,0.8c0,1,0.3,2,0.9,2.8c0.5,0.8,1.3,1.4,2.3,1.6c0.7,0.1,1.4,0,2-0.4
								c0.7,0.3,1.5,0.3,2.3,0.2c0.5-0.1,0.9-0.4,1.1-0.8c0,0,0,0,0-0.1c0.7,0.3,1.6,0.4,2.3,0.2c0.5-0.1,0.9-0.4,1.2-0.7
								c0.5,0.3,1.1,0.4,1.7,0.3c1.3-0.4,1.3-2.3,1.1-3.4h7.5l-18.8,7.9c-0.2,0.1-0.4,0.4-0.3,0.6c0,0.3,0.3,0.5,0.5,0.5L209,174
								l-5.1,2.6l-37.9-2.2c-0.1,0-0.2,0-0.3,0.1L140,186.7c-0.2,0.1-0.4,0.4-0.3,0.6c0.1,0.3,0.3,0.5,0.5,0.5l39.7,2.4
								c0.1,0,0.2,0,0.3-0.1l24-12.4l13.1,0.8c0.2,0,0.4-0.1,0.5-0.2c0.1-0.1,0.2-0.3,0.1-0.5c-0.5-1.7-1.1-3.3-1.8-4.9
								c-0.3-0.7-0.6-1.5-0.9-2.3c-0.2-0.8-0.5-1.6-0.9-2.3s-1.1-3.2-0.8-4.2c0.1-0.3,0.2-0.5,0.4-0.8c0.1,0.3,0.1,0.6,0.1,0.9
								c0,0.1,0,0.1,0.1,0.2c0.1,0.1,5.2,10.4,4.9,15.6c-0.2,3.6,2.7,8.1,3.9,9.9c2,2.8,4.6,5.7,6.2,5.8c2.6,0.2,11.5-3.1,13.8-5.1
								c0.6-0.5,1.5-1.4,2.7-2.5c3-2.9,8.6-8.2,10.1-8.4c0.2,0,0.5-0.1,0.7-0.2c-0.1,0.3-0.2,0.5-0.3,0.8c-0.8,3-1.3,6-1.4,9.1
								c-0.3,3.6-0.6,7-1.9,9.5c-0.1,0.2-0.1,0.4,0,0.6c0.1,0.2,0.3,0.3,0.5,0.3h17.8c0.3,0,0.5-0.2,0.6-0.4l5.1-16.7
								c0-0.1,2.2-7.6,12-11l15.3-3.7c-0.2,4.2-0.6,7.1-0.6,7.2c0,0.2,0.1,0.4,0.2,0.5c0.2,0.1,0.4,0.2,0.5,0.1
								c0.1,0,9.9-3.4,12.9-3.3c1.2,0,2.2,0.7,2.8,1.7c1.2,2.1,2,8.2-6.7,24.8c-0.1,0.2-0.1,0.4,0,0.6c0.1,0.2,0.3,0.3,0.5,0.3h27.6
								c0.3,0,0.6-0.3,0.6-0.6S341.7,198.7,341.4,198.8L341.4,198.8z M284.7,120.3l0.3,0.6c-0.2-0.2-0.5-0.4-0.7-0.7L284.7,120.3z
								 M259.2,128c-1,0.6-2.2,1-3.4,1c-1.7-0.3-1.9-1.5-2-3.4c0-0.5-0.1-1-0.2-1.5c-0.6-1.4-1.3-2.8-2.2-4.1
								c-0.8-1.2-1.5-2.4-2.2-3.7c-0.5-1.7-0.8-3.4-0.8-5.1c0-1-0.1-2.1-0.4-3.1c-0.3-0.6-0.7-1.2-1.2-1.7c-0.3-0.3-0.6-0.6-0.7-1
								c-0.1-0.5-0.1-1,0-1.5c0.2-1.6,0.3-3.2,0.4-4.8c0-0.9,0.3-1.7,0.8-2.4c0.5,1.8,0.8,3.7,0.8,5.6c0,0.3,0.3,0.6,0.6,0.6l0,0
								h0.1c0.2-0.1,0.4,0,0.5,0.1c1.2,0.8,1.8,5.1,2,7.5c0,0.2,0.1,0.3,0.2,0.4c0.1,0.1,0.3,0.1,0.5,0.1l1.8-0.4
								c0.2,0,0.3-0.1,0.4-0.3c0.1-0.1,0.1-0.3,0.1-0.4c-0.2-1-0.6-3.8,0.7-4.2c1.5-0.5,4.5,2.1,6.5,5.6c2.1,3.8,4.8,5,11.7,5.2
								c4,0.1,6-1.3,7-2.6c0.1,0.4,0.1,0.6,0.1,0.7c0.2,1.5,0.8,2.9,1.6,4.2c-1.2,0.1-2.4,0.3-3.6,0.7c-1,0.3-1.9,0.5-2.9,0.6
								c-2.3,0.3-8,4.5-11.5,7.3c-0.2-0.2-0.4-0.3-0.6-0.4C262,126.7,260.6,127.4,259.2,128z M114,126.7c-1-1.3-2.8-3.4-4.2-3.9
								c-0.1-0.1-0.3-0.1-0.4-0.1c-0.9,0-1.9,0.9-2.8,2.1c0.6-1.7,1.3-3.1,2-3.6c1.9-0.9,3.9-1.5,5.9-1.8
								C114.8,122,114.6,124.4,114,126.7z M116.9,100.5l-0.1,0.2c-0.7,1.2-1.2,2.6-1.4,4c-0.1,0.8-0.3,1.5-0.6,2.2
								c-0.4,0.9-0.6,1.9-0.7,2.9c0,1.7-1,7.3-2.8,7.8s-5.8-0.6-11-2.9c-3.6-1.6-4.8-6.7-4.8-6.8c-0.1-0.2-0.2-0.4-0.5-0.4h-0.1
								c-0.1,0-0.3,0-0.4,0.1c-0.1,0-0.7-0.1-2-1.3l-0.2-0.2c-0.8-2.2-1.1-4.6-0.8-6.9c0.2-0.3,0.5-0.4,0.9-0.4
								c2.3-0.1,2.5,2.5,2.5,2.8s0.2,0.5,0.5,0.6l2.6,0.6c0.2,0,0.4,0,0.5-0.1s0.2-0.3,0.2-0.5c-0.1-3.7,4.2-4.5,4.4-4.6
								c0.1,0,0.2-0.1,0.3-0.2c1.6-1.6,1.9-4.3,2-5.8c2.6,1.2,8,1.9,10.3,2.1l0.3,1.6C116.4,97.2,117,100,116.9,100.5L116.9,100.5z
								 M90,99.7c-0.2,0.6-0.3,1.2-0.3,1.8c-0.6-1.9-1-3.9-1-5.9c0.1-5.4,1.6-9.3,4-10c0.1,0,0.2-0.1,0.2-0.2c0,0,2.7-2.8,8.5-2.8
								c1.4,0,2.9,0.2,4.3,0.5c4.7,1,6.2,2.5,7.7,4c1.5,1.7,3.5,2.9,5.8,3.4c0.1,0-0.3,1.1-0.4,1.2c-0.4,0.5-0.9,0.9-1.5,1
								c-1.7,0.4-4-0.3-5.7-0.5s-3.3-0.6-4.9-1.1c-0.2,0-0.3,0-0.5-0.1c-0.9-0.2-1.7-0.8-2,0.4c-0.2,0.7-0.1,1.3-0.2,2
								c-0.2,1.2-0.6,2.3-1.4,3.3c-1.8,0.4-4.8,1.8-5.1,5l-1.5-0.3c-0.1-1-0.5-1.9-1.2-2.6c-0.7-0.6-1.5-0.9-2.4-0.8
								c-0.4,0-0.8,0.1-1.1,0.3C90.7,98.5,90.2,99,90,99.7z M91.2,114.1c0.5-1.7,0.9-3.5,1.1-5.3v-0.1c0.2,0.2,0.3,0.5,0.5,0.7
								c0.3,0.8,1.9,5.8,4,10.7C94.2,117.8,91.7,115.3,91.2,114.1L91.2,114.1z M37.2,151.4c-0.4-2.9-0.7-5.9-0.8-8.8
								c0.6,3.4,1.2,9,1.7,13.8C37.8,154.9,37.5,153.2,37.2,151.4L37.2,151.4z M40.3,166.4c-0.1-0.4-0.1-0.8-0.2-1.2
								c0.3,0.4,0.5,0.7,0.9,1.1c1.1,1.2,2.2,2.2,3.5,3.1C42.6,168.6,40.6,167.2,40.3,166.4L40.3,166.4z M152.6,153.7
								c0.2,0.3,0.5,0.7,0.8,1.1s0.5,0.7,0.7,1v0.3c-0.2,2.9-0.4,5.2-3.8,5.9c-0.4,0.1-0.8,0.1-1.2,0.2c-0.3-0.3-0.1-1-0.1-1
								c0.1-0.1,0.1-0.3,0-0.5c-0.1-0.1-0.2-0.2-0.3-0.3c-0.2-0.5-0.3-1-0.2-1.6c0-0.3-0.2-0.6-0.5-0.6l0,0c-0.1,0-0.1,0-0.2,0
								c-0.2,0-0.3,0-0.5,0l0.4-1.8C149.2,155.3,150.8,154.4,152.6,153.7L152.6,153.7z M146,164.1l2.1,0.8l-3,0.5L146,164.1z
								 M144.5,159.1c-0.8-0.4-1.4-1.1-1.7-2c-0.2-0.9,0.2-1.8,0.9-2.3c0.1-0.1,0.2-0.1,0.3-0.1s0.2,0.1,0.3,0.1
								c0.2,0.2,0.5,0.4,0.8,0.5L144.5,159.1z M145.6,161.1l-0.1,0.7l-0.2-0.1l0.1-0.8L145.6,161.1z M145.6,159.8l0.1-0.9
								c0.1,0.1,0.2,0.2,0.3,0.3l-0.1,0.8L145.6,159.8z M146.9,154.5h-0.4l0.8-4.6c0.2-0.1,0.3-0.1,0.3-0.1c0.1,0,0.1,0.1,0.1,0.2
								L146.9,154.5z M147,159.6h0.2c0,0.3,0.1,0.7,0.1,1l-0.5-0.2L147,159.6z M146.6,155.6l-0.1,0.4l-0.4,0.4l0.1-0.7L146.6,155.6z
								 M147.8,161.6c0,0.2,0,0.4,0,0.6h-0.4L147.8,161.6z M148.9,149.8c0-0.3-0.2-0.6-0.4-0.8c0.9,0.4,1.7,1.1,2.2,2
								c0.1,0.4,0.1,0.7-0.1,1.1c-0.5,1-1.4,1.8-2.6,2.2l0.8-4.2C149,149.9,149,149.8,148.9,149.8L148.9,149.8z M103.5,131.9
								c1.9,4.8,1.8,16.1,1.4,18c-0.1,0.5-2,11.3-2.4,15.9h-0.3c-0.3-0.6-0.5-1.3-0.5-2c-0.4-6.6-0.1-13.3,0.8-19.9v-0.1
								c0.3-2.4,0.7-5.2-0.6-7.5c-0.4-0.6-0.7-1.2-1.2-1.7c-0.8-0.8-1.3-1.9-1.5-3L103.5,131.9z M51.4,92.6c0.3,0.9,0.8,1.7,1.2,2.4
								c1.1,1.6,0.8,2.7,0.6,4.2c-0.1,0.6-0.2,1.1-0.3,1.7c-0.2,2.1,2.4,5.4,3.2,6.4c-0.2,0.6-0.8,0.9-1.4,0.8
								c-0.7,0-1.4,0.3-1.9,0.9c-0.5,0.7-0.5,1.8-0.4,3.3c0.1,1.9,0.2,4-1.1,5c-1,0.8-4.6,0.5-6.7,0.2c-0.1,0-0.2,0-0.3,0
								c-3.2,0.9-4.7,4.1-5.3,7.7c-2.3-3.9-5.7-8.4-9.6-11.1c-0.3-0.9-1.7-5.1,0.3-6.9c0.2-0.1,0.2-0.3,0.2-0.6
								c-0.2-1-0.6-3.9,0.4-5.2c0.3-0.4,0.7-0.6,1.1-0.6c1.6-0.2,2.3,0.7,3,1.6c0.6,0.8,1.3,1.6,2.5,1.5s2.3-1.6,3.3-3.2
								c0.8-1.2,1.6-2.5,2.3-2.7c1.1-0.3,1.9-1.8,2.9-3.7c1.1-2.1,2.4-4.7,4-4.7h0.4C50.5,90.6,50.9,91.6,51.4,92.6z M40.7,128
								c-0.2-0.4-0.4-0.7-0.6-1.1c0.1-1.1,0.3-2.1,0.6-3.1C40.6,125.2,40.6,126.6,40.7,128z M20.3,103.4c-1.6-2.7,0-10.2,4.2-14.9
								c4.7-5.2,16.6-4.4,19-4.2c2.6,0.2,4.9,1.5,6.5,3.5c-0.3-0.4-0.8-0.7-1.2-0.9c-1.5-0.6-10.9-0.8-18.3,3.4
								c-4.8,2.6-8.1,7.3-8.9,12.7c0,0.2,0,0.3,0.1,0.5c0.5,0.7,0.7,1.6,0.6,2.4v0.2C21.8,105.1,21.1,104.2,20.3,103.4L20.3,103.4z
								 M21.1,110.4c0.2,0.1,0.4,0.2,0.6,0.3c0.5,0,0.9-0.3,1.1-0.7c0.3-0.7,0.4-1.5,0.2-2.2c0.3-0.5,0.4-1.1,0.5-1.7
								c0.1-1.1-0.1-2.1-0.7-3c0.8-4.9,3.9-9.2,8.3-11.6c6.9-4,16-3.8,17.3-3.3c0.3,0.1,0.6,0.3,0.8,0.6c-2.1,0.3-3.5,2.9-4.7,5.3
								c-0.7,1.3-1.5,3-2.1,3.1c-1.2,0.3-2.1,1.7-3,3.2c-0.8,1.2-1.7,2.6-2.4,2.7c-0.5,0-0.9-0.4-1.5-1.1c-0.8-1.4-2.4-2.2-4.1-2.1
								c-0.8,0-1.5,0.5-2,1.1c-1.2,1.7-0.8,4.8-0.6,5.8c-2.4,2.7-0.3,7.9-0.3,8.1c0,0.1,0.1,0.2,0.2,0.3c4.2,2.8,7.8,8.1,10.1,12.2
								c-0.1,1.6-0.2,3.2-0.1,4.8c-3.9-7.6-13.4-15.4-13.9-15.8c-0.1-0.1-0.2-0.1-0.4-0.1h-0.2c-1.1,0.5-2.2,1.2-3.1,2
								c-1.5-1.6-2.6-3.1-2.6-4.4c0-0.8,0.4-1.6,1.1-2C20.2,111.2,20.6,110.8,21.1,110.4z M25.1,117.9c-0.6,0-1.3,0-1.9,0.1
								c0.4-0.3,0.8-0.5,1.3-0.7L25.1,117.9z M7.4,129.9c-1.4-2-2.9-4.1-2.2-9.8c1.3-9.7,10.6-13.9,12.9-14.8
								c0.5,1.5,1.3,2.9,2.1,4.2c-0.4,0.4-0.8,0.8-1.3,1.1c-1,0.7-1.6,1.7-1.6,2.9c0,1.6,1.1,3.4,2.8,5.1c-3.8,1.6-6.5,5.6-8.4,9.6
								c-1.1,1.4-2,2.9-2.7,4.5C8.7,131.8,8.1,130.8,7.4,129.9z M16.3,126.1c-2.5,7.6-1.9,17.3-0.7,19.4c1.6,2.7,4.5,11.8,5.3,17.6
								c0.7,4.9,3.3,11.6,4.3,14H10.5c-1.9-6.8-2.2-15.5-2.5-24.6c-0.1-2.2-0.1-4.5-0.2-6.8c-0.1-2.2,0.1-4.5,0.5-6.7
								c0,0.3,0.2,0.6,0.5,0.6s0.6-0.2,0.6-0.5c0.8-3.6,1.9-7,3.4-10.4c0.9-1.3,2.2-2.4,3.6-3.2L16.3,126.1z M17,124.1
								c-0.3,0.1-0.5,0.2-0.8,0.3c-0.5,0.2-1,0.5-1.4,0.8c1-1.6,2.3-3.1,3.9-4.3C18.1,121.9,17.5,123,17,124.1z M18.7,123.3
								c0.6-1.3,1.5-2.5,2.5-3.6c0.5,0.4,1,0.9,1.5,1.3C21.4,121.8,20,122.6,18.7,123.3z M22.4,119.3c0.9-0.2,1.8-0.3,2.7-0.2
								c-0.4,0.5-0.9,0.9-1.5,1.3C23.2,120,22.8,119.6,22.4,119.3L22.4,119.3z M33,128.3c-1.7-1.7-3.6-3.3-5.6-4.8
								c-1-0.7-2-1.5-2.9-2.3c1.5-1.1,1.8-1.8,1.8-2.1c3.9,3.6,11.7,11.3,12.8,17.4v0.3C37.3,133.7,35.2,130.9,33,128.3L33,128.3z
								 M39.7,137.5h0.2c0.3-0.1,0.5-0.3,0.5-0.6c0-0.2,0-0.3-0.1-0.5c-0.3-2.4-0.4-4.8-0.4-7.2c0.9,1.6,1.5,2.9,1.7,3.5l0.2,0.4
								c0.1,0.3,0.5,0.4,0.8,0.3c0.3-0.1,0.4-0.5,0.3-0.8l-0.2-0.4c-1.1-2.6-1-6.6-0.9-8.4c2.3,1.9,4.3,4.1,5.8,6.7
								c-2.2,1.6-4.8,5.8-1.4,12.7c4,8.2,4.8,13.5,2.4,16.7c-0.3,0.4-0.6,0.9-0.8,1.4c-0.2-1.6-0.2-3.4-0.3-4.6s-0.1-2.4-0.2-3.5
								C47.1,150,43.5,143.3,39.7,137.5L39.7,137.5z M46.3,169.9c0.1,0,0.2-0.1,0.2-0.1c0.5-0.3,0.7-0.8,0.6-1.4
								c0.1-1,0.2-2,0.4-2.9c0.2,0.4,0.5,0.6,0.8,0.8c1.1,0.4,3.3,0,6.3-0.6l1.8-0.4l1.1,5.6C52.8,170.6,48.3,170.2,46.3,169.9
								L46.3,169.9z M59.1,172.6l-0.1-0.3l2.3,0.1C60.6,172.5,59.8,172.6,59.1,172.6L59.1,172.6z M66.4,171.4
								c-1.3,0.1-2.4,0.1-3.1,0.1l-4.6-0.3l-1.2-5.9H58c0.5,0,1.5,0,2.8,0.1c3.2,0.2,6.4,0.3,9.7,0.1l0.7,4.4
								C69.6,170.3,68,170.8,66.4,171.4L66.4,171.4z M72.2,164.4c-0.1,0.4-0.2,1.3-0.4,2.2l-0.3-1.9c0-0.2-0.1-0.3-0.2-0.4
								c-0.1-0.1-0.3-0.1-0.4-0.1c-1.8,0.4-6.7,0.1-10-0.1c-0.9-0.1-1.8-0.1-2.8-0.1h-0.6l-1.9-9.5c0,0-0.9-3.9,0.6-5.8
								c0.6-0.7,1.6-1.1,2.6-1.1l6-0.2l0.2,2.2c-1.8,5.5,0.2,12.5,0.3,12.8c0.1,0.3,0.4,0.5,0.7,0.4c0.2-0.1,0.3-0.2,0.4-0.4
								c0.6-1.8,0.2-8.6-0.2-12.7c0.2-0.5,0.4-1,0.7-1.5c1.7-3.2,1.1-5.6,0.5-8c-0.7-2-0.8-4.2-0.2-6.2c1.8-5.4,6.3-10.5,7.9-11.1
								l0.5-0.2c3.9-1.4,9.1-3.4,11.6-5.3c0.5,2.3,1.8,7.7,3.3,10.7c0.1,0.3,0.5,0.4,0.8,0.3l0,0c0.1,0,0.1-0.1,0.1-0.1
								c1.9-1.8,5.2-4.3,7.2-4.5c1.3,2.8,2.7,5,3.8,5.9c0.3,0.2,0.5,0.4,0.7,0.7l-4.5-0.3l-0.1,0.4c-0.5,1.7,0.6,3.2,1.6,4.4
								c0.4,0.5,0.8,1,1.1,1.6c1.1,2,0.8,4.4,0.4,6.8v0.1c-0.9,6.7-1.2,13.4-0.8,20.1c0,0.7,0.1,1.4,0.4,2.1l-9.9,0.9
								c-0.2,0-0.4,0.2-0.5,0.4c0.1-0.3,0.1-0.5,0.1-0.8c0.1-0.2,0.1-0.4,0.2-0.6c0.3-0.5,0.4-1.1,0.4-1.7l0,0c0-0.6-0.4-1.2-1-1.4
								c-0.3-0.2-0.6-0.1-0.8,0.2c-0.2,0.3-0.1,0.6,0.2,0.8l0,0c0.1,0.1,0.2,0.2,0.3,0.4c-0.3,0.3-1.4,0.9-5.2,1.5
								c-0.4,0.1-0.8,0.1-1.2,0.2c0.1-0.3,0.3-0.6,0.5-0.8c0.4-0.6,1.7-1.1,3.3-1.7l1.5-0.6c1-0.3,1.7-1.1,1.8-2.1
								c0.1-0.7-0.2-1.3-0.8-1.6c-0.5-0.3-1.1-0.3-1.6,0.1c-1.2,0.8-5.4,1.4-7.3,1.6c-1.1,0.2-2.1,0.6-3,1.2c-0.6,0.4-1.3,0.7-1.9,1
								c-1.2,0.5-2.4,0.9-3.6,1.1C72.4,163.8,72.2,164,72.2,164.4L72.2,164.4z M90.2,169.8c0.1,0.1,0.3,0.2,0.5,0.2l9.1-0.8l8,6.2
								l-6,0.5c-1.7-0.4-3.8-2-5.4-3.1c-0.7-0.6-1.5-1.1-2.3-1.4c-0.6-0.1-1.2-0.2-1.8-0.2c-1.2,0-2.4,0.1-3.6,0.3
								c0.6-0.5,0.9-1.3,0.9-2.1c0.3-0.7,0.6-1.4,0.8-2.1l-0.5,1.9C90,169.4,90.1,169.6,90.2,169.8L90.2,169.8z M73.5,169l-1.1,0.4
								c0.2-1.1,0.6-3.3,0.8-4.4c1.2-0.3,2.3-0.7,3.4-1.1c0.7-0.3,1.4-0.7,2.1-1.1c0.7-0.5,1.6-0.9,2.5-1c1.8-0.2,6.3-0.9,7.8-1.8
								c0.2-0.1,0.3-0.1,0.4,0c0.2,0.1,0.3,0.3,0.2,0.6c0,0.5-0.4,0.9-1.1,1.1l-1.5,0.5c-1.9,0.7-3.2,1.2-3.8,2.2
								c-0.3,0.5-0.5,0.9-0.8,1.4l-0.2,0.4C79.3,166.9,76.4,167.8,73.5,169L73.5,169z M81.5,170.3c-0.2-0.3-0.3-0.7-0.2-1
								c0-0.2,0.2-0.4,0.4-0.6c0.6-0.4,1.1-1,1.4-1.7c0.7-0.2,1.4-0.3,2-0.4c1.6-0.2,3.2-0.6,4.8-1.1c-0.1,0.3-0.2,0.6-0.3,0.9
								c-0.2,0.9-0.5,1.8-0.9,2.6c0,0.1-0.1,0.2-0.1,0.2c0,0.7-0.4,1.3-1,1.6C86.9,171.2,82.2,170.7,81.5,170.3L81.5,170.3z
								 M103.1,177.6c-0.2,0-0.3,0.1-0.4,0.3c-0.1,0.1-0.1,0.3-0.1,0.5c0,0,0.2,0.7-0.2,0.8c-1,0.1-2.1-0.1-3.1-0.5
								c-0.3-0.1-0.6,0-0.7,0.3s-0.1,0.6,0.2,0.7c0.2,0.1,0.3,0.3,0.4,0.4c-0.1,0-0.1,0.1-0.2,0.1c-0.9,0.3-4.7-0.5-6.5-0.9L91,179
								c-0.3,0-0.6-0.1-0.8-0.1c-0.8,0-1.8,0.1-2.9,0.2c-1.3,0.2-2.7,0.2-4,0.2c0.2-1.3,0.6-4.5-0.5-6.6c1.9,0.2,3.9,0.2,5.8,0
								c1.8-0.4,3.6-0.5,5.3-0.3c0.7,0.4,1.3,0.8,1.9,1.3c1.7,1.2,3.9,2.9,5.9,3.3h0.2l7.6-0.6c0.2-0.1,0.4-0.2,0.4-0.5
								c0.1-0.2,0-0.5-0.2-0.6l-9.4-7.3c-0.1-0.1-0.2-0.1-0.4-0.1l-8.5,0.7l0.2-0.8l10.3-1c0.2,0.1,0.4,0.3,0.6,0.3
								c0,0.1,0,0.3,0.1,0.4c0.1,0.2,0.3,0.4,0.6,0.4c0.2,0,0.5-0.2,0.5-0.4l0.1-0.3l0.2-0.1l-0.5,1.8c-0.1,0.2,0,0.5,0.2,0.6
								l7.2,5.1l-0.2,0.6c0,0.1,0,0.2,0,0.3l0.3,1.2L103.1,177.6z M111.2,173.6l-6.5-4.6l0.6-2.3l8-0.8L111.2,173.6z M105.6,165.5
								l6.1-22.9l7,3.1l-5.1,19L105.6,165.5z M112.7,174.7l-0.5-0.3l2.3-8.5l0.8-0.1L112.7,174.7z M115.6,164.6l-0.8,0.1l5.2-19.1
								c0.1-0.3-0.1-0.6-0.3-0.7l-8.1-3.6c-0.2-0.1-0.3-0.1-0.5,0s-0.3,0.2-0.3,0.4l-6.4,23.9h-0.2l6.3-24c0.2-0.5,0.5-0.9,0.9-1.1
								c0.2-0.1,0.4-0.1,0.5-0.1c0.2,0,0.4,0,0.5,0.1l7.1,2.8c0.2,0.1,1.9,0.9,1.3,3.4L115.6,164.6z M116.9,164.4l5-17.5
								c0.2-0.7,0.2-1.4,0.1-2.1c1,1.7,2.2,3.3,2.9,3.6c2.9,2,5.6,4.3,8,6.8c2.8,2.9,6.1,5.1,9.7,6.7L116.9,164.4z M133.9,154.6
								c-0.9-1.3-7.2-6.5-8.5-7.2c-0.6-0.3-2.7-3.6-4.4-6.5c2.6-8,2.7-14.2,0.1-18.6c-0.7-1.2-1.5-2.2-2.6-3.1c0.4,0,0.8,0,1.2,0.2
								c1.7,0.7,6.8,5.4,8.2,7.1c0.9,1.1,4.1,5.8,6.5,9.3c1.3,1.9,2.4,3.5,2.9,4.1c1.6,1.9,3.4,3.8,5.3,5.4l0.9,0.9
								c0.9,0.7,1.9,1.3,3,1.8l1.2,0.6c-0.4,0-0.9,0.1-1.3,0.3c-0.1,0.1-0.3,0.2-0.3,0.4l-0.9,4.9c-0.1,0-0.1-0.1-0.2-0.1
								c-0.5-0.5-1.4-0.6-2-0.2c-1.2,0.7-1.8,2.1-1.5,3.5c0.2,1.3,1.4,2.3,2.6,3.1l-0.2,1C140.2,159.8,136.8,157.5,133.9,154.6
								L133.9,154.6z M124,171.5l-4.7-3.3l22.7-2.6l0.5,0.3l-17.8,3c-0.2,0-0.4,0.2-0.5,0.4s0,0.4,0.2,0.6l1.4,1.4L124,171.5z
								 M126,169.8l18.1-3.1l2.9,1.6l-19.8,2.7L126,169.8z M158.6,174.5l-22.7,4.6l-7.5-7.1l20.4-2.8L158.6,174.5z M154.3,167.3
								L149,168l-3-1.6l4.2-0.7L154.3,167.3z M152.2,164.2l-1.9,0.3l-2.6-1l1.6,0.1l0,0c0.9,0.3,1.8,0.4,2.8,0.3
								c0.3-0.1,0.5-0.3,0.5-0.6c0-0.4-0.3-0.5-0.7-0.6c1.3-0.5,2.2-1.6,2.7-2.8c0,0.1,0.1,0.3,0.1,0.4c0.1,0.4,0.2,0.9,0.3,1.3
								C155,162.2,152.8,164.1,152.2,164.2L152.2,164.2z M179.8,189.1l-37.3-2.3l23.5-11.2l35.8,2.1L179.8,189.1z M309.1,166.9
								l6.6-1.6c0.1,0,9.3-2.4,12.3,0.7c1.1,1.2,1.1,3,0.3,5.5l-2.6,6.3c0-0.1,0-0.3,0.1-0.4c1.2-6.3,0.8-9.8-1.2-10.7
								c-1.2-0.5-2.4-0.7-3.6-0.6c-4.2,0-9.8,1.6-11.9,2.2C309,167.9,309.1,167.4,309.1,166.9L309.1,166.9z M261.9,130.6l0.1-0.1
								C262,130.6,262,130.6,261.9,130.6L261.9,130.6z M217.5,114.9c3.4,1.9,7,3.6,10.7,4.9c2,0.5,5.4,1.4,6.4,2.5l0.1,0.1
								c1.1,1.1,3.8,3.8,4.1,6.5c0.1,0.8,0.1,1.6,0.2,2.5c0.2,2.6,0.3,5.2,1,6.5s1,9.1,0.9,10.6c0,0.9,0.2,1.8,0.5,2.6
								c0.4,1,0.6,2.1,0.6,3.2c0,0.1,0,0.1,0,0.2c0.4,1.9,0.6,3.9,0.6,5.8l-0.4,0.4c-0.6-1.2-1.3-2.4-2.1-3.5
								c-2.8-3.6-6.1-5.3-9.7-4.7c-2.3,0.4-3.9,0.7-4.9,0.9h-0.2c-0.6-2.1-0.6-4.4-0.1-6.6c0.4-0.7,0.9-1.4,1.5-1.9
								c3.2-2.3,5.9-8.9,4.8-10.6c-0.3-0.4-0.8-0.7-1.6-0.2c-2.5,1.5-4.2,7.2-5.5,11.3l-0.2,0.6c0,0.1-0.1,0.2-0.1,0.3
								c-1.5,3.1-1.4,7.3-1.3,8.9l-1.9,0.2c-0.4-0.9-0.8-1.6-1-2c-0.4-1.3-0.5-2.6-0.5-4c0-1-0.1-2.1-0.3-3.1
								c-0.5-1.6-1.3-3.1-2.2-4.4l-0.5-0.8c-0.3-0.5-0.7-1.1-1.1-1.6c-0.5-0.6-0.9-1.3-1.3-2c-0.2-0.7-1.5-3.3-3.4-4
								c-0.5-0.2-1.1-0.2-1.6-0.1c0.2-0.2,0.3-0.4,0.4-0.6c0.5-0.8,0.7-1.8,0.5-2.8c-0.1-0.6-0.5-1.1-1-1.4
								c-0.6-0.3-1.2-0.4-1.8-0.4h-0.5c2.7-1.1,5.1-2.9,7-5.2c2.4-2.7,3.4-6.4,2.8-10C216.6,113.9,217,114.4,217.5,114.9
								L217.5,114.9z M226,144.2c1.1-3.4,2.6-7.8,4.4-8.8h0.1C230.8,136.4,229.1,142,226,144.2z M224.1,153.9
								c-0.1,0.1-0.2,0.2-0.2,0.4v-1.4C224,153.3,224.1,153.6,224.1,153.9L224.1,153.9z M209.8,139.9c0.4,0.9,0.6,1.9,0.6,2.9
								c-1.3-0.1-2.6-0.4-3.9-0.8v-2.8c-0.1-1.1,0.2-2.3,0.6-3.3c0.2-0.4,0.4-0.7,0.7-1l1.1,2.6C209,138.4,209.3,139.2,209.8,139.9
								L209.8,139.9z M216.8,92.2c-0.4-1.7-1.3-3.3-2.6-4.5C215.8,88.6,216.7,90.3,216.8,92.2L216.8,92.2z M215.8,95.6L215.8,95.6
								l0.1,1.4c-0.4-0.6-0.9-1-1.5-1.3c-0.8-0.4-2.1-3-2.8-4.7c-0.1-0.1-0.2-0.2-0.3-0.3c0.7-0.8,1.2-1.7,1.6-2.7
								C215.1,89.8,216.3,92.7,215.8,95.6L215.8,95.6z M191,97.6c-0.7-4.4,0.3-10.2,8.2-13.4c1.8-0.8,3.8-1.2,5.8-1.3
								c3.1-0.1,6.1,1.3,8,3.7l0,0c-0.2-0.1-0.4-0.1-0.5,0c-0.2,0.1-0.3,0.2-0.4,0.4c-2.2,8.1-17.9,10.2-21,10.5L191,97.6z
								 M210,92.1c-3,5.4-10.6,5.9-14,5.9C200.3,97.1,206.3,95.4,210,92.1z M195.3,111.2c-0.1-0.2-0.3-0.4-0.6-0.4h-0.1
								c-0.2,0.1-1.6,0.4-2.5-1.5c-0.6-1.3-2.3-4.8-1.6-6c0.1-0.2,0.4-0.4,0.6-0.4l0.9,1.7c0.1,0.1,0.2,0.2,0.3,0.3l1.4,0.5
								c0.2,0.1,0.5,0,0.6-0.2c0.2-0.2,0.2-0.5,0-0.7c-0.8-1.3-2-3.9-1.4-4.9c0.1-0.1,0.3-0.5,1.2-0.5c2.4,0.2,4.8,0.1,7.2-0.3
								c4.6-0.9,7.9-2.9,9.7-6.1c0.7,1.4,1.8,3.6,2.9,4.1c1.2,0.8,1.9,2.1,1.9,3.5c0,0.2,0.1,0.4,0.3,0.6v0.9
								c-0.1,0.3,0.2,0.6,0.5,0.7c0.3,0,0.5-0.1,0.6-0.3s0.2-0.4,0.4-0.5c0,0,0.1,0.1,0.3,0.4c0.5,1,0.2,4.2-0.7,5.7
								c-0.1,0.2-0.4,0.6-0.8,0.6c-0.3,0-0.5,0.2-0.6,0.5l-0.4,1.9c0,0.1,0,0.2,0,0.3c0.1,0.3,0.2,0.7,0.4,1h-0.2
								c-0.2,0-0.5,0.1-0.6,0.3c-0.8,1.7-3.1,6.3-5.1,7.1c-2.7,1-5.1,1.8-6.7,0.9C199.5,118.4,196.7,115.1,195.3,111.2L195.3,111.2z
								 M198.4,119.2c-0.1-0.5-0.3-1-0.5-1.4c1.4,1.4,3,2.6,4.8,3.6c2.1,1.2,5.2,0.1,7.7-0.8c2-0.7,3.9-4,5-6.1
								c0.2,2.9-0.7,5.8-2.6,8c-3,3.7-7.3,5.5-9.2,5.4C200.2,127.8,198.8,121.3,198.4,119.2L198.4,119.2z M201.7,137.2l0.1-0.5
								c0.9-1.6,0.6-3.5-0.6-4.9l-0.3-0.4c-0.4-0.5-0.6-1.1-0.6-1.8v-0.1l0,0c0.2-0.3,1.4-0.5,5.4-0.1c0.5,0.1,0.9,0.1,1.1,0.1
								c0.4,0,0.9,0,1.3,0.2c0.3,0.1,0.4,0.4,0.5,0.7c0.1,0.7,0,1.3-0.4,1.9c-0.3,0.4-0.6,0.9-1,1.2c-0.5,0.5-1,1.1-1.4,1.8
								c-0.5,1.2-0.8,2.5-0.7,3.8v2.5c-0.3-0.1-0.6-0.2-0.8-0.3c-1.1-0.5-2.2-1-3.4-1.3C201.3,139.2,201.5,138.2,201.7,137.2
								L201.7,137.2z M198.7,143c0-0.2-0.1-0.5-0.3-0.6c0,0-1.1-0.7-1.9-1.2c-0.2-0.1-0.3-0.4-0.3-0.6c0-0.2,0.3-0.2,0.5-0.3h0.2
								c2.4,0.4,4.8,1,7,2c1.2,0.5,2.4,0.9,3.7,1.2c3.3,0.8,3.6,0.4,3.8,0.2c0.6-0.8-0.2-4.1-0.7-4.6c-0.3-0.6-0.5-1.2-0.6-1.9v-0.1
								l-1-2.3c0.4-0.1,0.8-0.1,1.2,0c1.4,0.5,2.5,2.6,2.7,3.3c0.4,0.8,0.9,1.6,1.4,2.4c0.4,0.5,0.7,1,1,1.5
								c0.1,0.2,0.3,0.5,0.5,0.8c0.9,1.3,1.6,2.7,2.1,4.2c0.2,0.9,0.3,1.9,0.3,2.9c0,1.5,0.2,3,0.7,4.5c0.2,0.4,0.5,0.9,0.8,1.5
								c-2.5,0.3-5.7,0.7-7.7,1.1c-0.6-0.8-1-1.4-1-1.4c-1-0.9-2-1.8-3.2-2.6c-1.3-0.9-2.5-1.8-3.6-2.9c-0.4-0.7-0.8-1.5-1.1-2.4
								c-0.2-0.6-0.4-1.1-0.7-1.6c-0.5-0.4-1-0.8-1.7-1c-0.6-0.2-1.2-0.5-1.7-0.9C198.8,143.9,198.7,143.5,198.7,143L198.7,143z
								 M200.9,147.2v-0.8c0.2,0.1,0.4,0.2,0.6,0.4c0.2,0.4,0.4,0.8,0.5,1.2c0.3,0.9,0.7,1.8,1.2,2.6c0.5,0.6,1.1,1.1,1.7,1.6
								c0,0.8,0,1.9-0.1,2.9c0,0.7,0,1.3-0.1,2L201,157h-0.4C200.6,154,200.8,150.3,200.9,147.2L200.9,147.2z M192.3,160.5l0.8-0.6
								c0.3-0.2,0.5-0.4,0.8-0.6c0.6-0.6,1.4-1.1,2.2-1.3h3.1c-1.1,0.1-2.1,0.3-2.4,0.4c-0.1,0-0.2,0.1-0.3,0.2
								c-1.3,1.5-2.8,2.7-4.5,3.7h-2C190.6,161.7,191.7,160.9,192.3,160.5L192.3,160.5z M189.3,163.4h2.8c0.1,0,0.2,0,0.3-0.1
								c1.9-1,3.5-2.3,4.9-3.9c1.4-0.3,8.1-1,10.4-1.3c0.3,0,0.6,0,0.9-0.1c0.2,0,0.4-0.2,0.5-0.4s0-0.4-0.1-0.6
								c-0.1-0.2-0.2-0.2-1.4-0.1H206c0-0.6,0-1.2,0.1-1.9s0-1.4,0.1-2l1,0.8c1.1,0.7,2.1,1.5,3,2.4c0,0,0.3,0.4,0.8,1
								c-0.2,0.1-0.4,0.1-0.5,0.2c-0.2,0.2-0.3,0.5-0.2,0.8c0,0,2.2,4.5-0.2,6.9c-1.6,1.6-4.4,2.4-8.1,2.4h-0.1
								c-0.9,0.1-1.8,0.5-2.6,0.9c-0.4,0.2-0.9,0.4-1.3,0.6c-0.6,0-1.1-0.2-1.5-0.6c-0.1-0.2-0.1-0.4,0-0.5c0.1-0.2,0.1-0.5-0.2-0.7
								c-0.2-0.2-0.5-0.2-0.7,0c-0.7,0.6-1.5,1.1-2.4,1.5c-0.4-0.3-0.6-0.6-0.8-1c-0.1-0.3-0.5-0.4-0.8-0.3
								c-0.3,0.1-0.6,0.2-0.8,0.1c-0.1,0-0.1-0.1-0.1-0.2c-0.1-0.2-0.2-0.3-0.4-0.3s-0.4,0-0.5,0.2s-0.5,0.5-0.7,0.4
								c0,0-0.1,0-0.2-0.2C188.3,167,188.5,165.7,189.3,163.4L189.3,163.4z M212.4,163.8c-0.5,1.4,0.4,4.4,0.9,5.1
								c0.3,0.7,0.6,1.3,0.8,2.1c0.3,0.8,0.6,1.7,0.9,2.5c0.6,1.2,1,2.5,1.4,3.8l-10.3-0.6l5.3-2.7c0.2-0.1,0.4-0.4,0.3-0.6
								c-0.1-0.3-0.3-0.5-0.5-0.5l-47-2.6l19.1-8.1c0.3-0.1,0.4-0.4,0.3-0.6c-0.1-0.3-0.3-0.5-0.6-0.5h-11.1c-0.3,0-0.6,0.2-0.6,0.6
								l0,0v0.1c0.3,1.1,0.2,2.6-0.2,2.7c-0.7,0.2-1.2-0.7-1.2-0.8l0,0c-0.2-0.2-0.5-0.3-0.7-0.2c-0.3,0.1-0.4,0.5-0.3,0.8l0,0l0,0
								c0,0.1,0,0.3,0,0.4c-0.1,0.2-0.3,0.3-0.5,0.3c-0.8,0.1-1.7-0.1-2.3-0.6c-0.2-0.2-0.5-0.2-0.7,0s-0.3,0.5-0.1,0.7
								c0,0.1,0,0.2,0,0.3s-0.1,0.1-0.4,0.2c-0.6,0.1-1.3,0-1.9-0.2c-0.3-0.1-0.6,0-0.8,0.3c-0.4,0.2-0.9,0.3-1.3,0.2
								c-0.4-0.1-0.8-0.3-1.1-0.7c-0.5-0.6-0.9-1.4-1-2.2c0.1-0.4,0.1-0.8,0.1-1.2c0-0.3,0-0.7,0.1-1c0.2-0.2,0.4-0.4,0.6-0.6
								c0.7-0.4,1.2-1.2,1.1-2c0-0.3,0.1-0.6,0.2-0.9c0.3-0.2,0.6-0.4,1-0.5s0.9-0.4,1.2-0.7c0.2-0.2,0.3-0.4,0.4-0.7
								c0-0.2,0.1-0.4,1.3-0.8s3.4,1.9,4.8,3.8c0.1,0.1,0.2,0.2,0.4,0.2s0.3,0,0.4-0.1c0.1-0.1,2.5-1.9,3.4-2.8l0.6-0.6
								c2-2,4.3-4.1,4.7-5.3c0.4-0.9,1.1-1.7,1.8-2.3c0.5,2,1.2,3.9,2.1,5.8c0.7,1.4,1.2,2.8,1.7,4.3c0.2,1.7,0.3,3.3,0.3,5
								c0,0.3,0.3,0.6,0.6,0.6l0,0h2.3c-0.6,1.8-1.1,3.6-0.6,4.6c0.2,0.4,0.6,0.7,1.1,0.7c0.4,0,0.8-0.1,1.2-0.4
								c0.1,0.1,0.2,0.1,0.3,0.2c0.4,0.1,0.8,0.2,1.2,0.1c0.3,0.5,0.7,0.9,1.2,1.2c0.6,0.3,1.7-0.3,2.7-0.9c0,0.1,0.1,0.2,0.2,0.3
								c0.7,0.7,1.6,1.1,2.6,1c0.6-0.1,1.1-0.4,1.6-0.7c0.7-0.3,1.3-0.6,2.1-0.8h0.2c4,0,7.1-1,8.9-2.8c2.4-2.4,1.2-6.3,0.6-7.7h0.1
								c0.8,1.2,1.4,2.4,1.9,3.7C213,162.5,212.6,163.1,212.4,163.8L212.4,163.8z M214.3,160.9c-0.5-1-1-2-1.6-3
								c1.9-0.4,4.8-0.7,7.5-1c0.3,0.6,0.5,1.2,0.8,1.8h-0.1C218.4,158.1,215.8,159,214.3,160.9L214.3,160.9z M229.2,194.7
								c-1.8-0.1-9.4-9-9.1-14.4s-4.4-15-5-16.1c-0.1-0.7-0.2-1.3-0.4-1.9c1.2-1.5,3.2-3.1,5.8-2.4c0.3,0.1,0.6,0.2,0.9,0.3
								c0.3,0.7,0.5,1.5,0.6,2.3c0.1,1,1.6,2.1,4.2,3.8c0.2,0.5,0.5,1.1,0.8,1.6c1.2,1.7,2.6,3.3,4,4.9c-0.4,0.6-0.8,1.1-1.3,1.6
								c-1.3,1.4-3,3.4-3.3,5.4c-0.4,2.4-0.2,6.6,1.1,7.6c0.3,0.3,0.8,0.3,1.2,0.1c0.8-0.4,0.8-1.6,0.7-3.7c-0.1-3.2-0.3-8,3-9.8
								c0.8-0.3,1.4-1.1,1.5-2c0.1-2.1-3.3-4.2-6.6-6.3l-0.3-0.2c-0.9-1.9-2.3-4.7-4.8-6.1c-0.3-0.8-0.6-1.7-1-2.5l2-0.2
								c0.2,0,0.3-0.1,0.4-0.2c0.1-0.1,0.2-0.2,0.3-0.4c0,0-0.1-0.6-0.1-1.5c0.1,0.6,0.7,0.5,1,0.5c0.2,0,0.3-0.1,0.4-0.2
								c0.7-0.1,2.1-0.4,5.3-0.9c5.8-1,9.4,5,10.8,7.9c-1,1.1-1.9,2.3-2.6,3.5c-0.9,1.8-2,3.5-3.4,5c-0.7,0.6-5.3,10-4.4,16.5
								c0.2,2.3,1.6,4.4,3.6,5.4c0.7,0.3,1.5,0.5,2.3,0.4C234,193.8,230.4,194.8,229.2,194.7z M223,161.1c0.9,0.9,1.7,1.9,2.3,3
								c-1.1-0.8-2-1.5-2.1-1.8C223.2,161.9,223.1,161.5,223,161.1z M228.5,167.6c2.2,1.4,4.4,3.1,4.4,4.2c0,0.3-0.2,0.6-0.5,0.8
								c0-0.3-0.1-0.5-0.3-0.7C230.8,170.6,229.6,169.1,228.5,167.6z M228.3,183.7c0.1,0.9,0,1.7-0.1,2.6c-0.5-0.4-1.1-3.5-0.6-6.4
								c0.2-0.8,0.5-1.5,1-2.2C228.3,179.7,228.2,181.7,228.3,183.7z M235.2,191.1c-1.5-0.7-2.6-2.1-2.9-3.8
								c-1.3-5.9,3.3-15.4,3.9-16.1c0.6-0.5,1.5-1.6,3.6-5.3c0.6-1,1.3-2,2.1-2.9c0.1,0.1,0.1,0.2,0.1,0.4c0.1,0.2,0.3,0.4,0.5,0.4
								s0.4-0.1,0.6-0.3c0.4-0.8,0.6-1.7,0.7-2.6l1.5-1.6c1.2-1.2,2.3-2.5,3.3-3.9c0-0.1,5.1-8.8,6.7-13.1c0.7-1.8,3-5.1,5.1-7.8
								c0.2,0.1,0.4,0.1,0.6-0.1c5.8-4.8,23.3-10,26.6-9.6c2.9,0.4,9,4.9,11.9,7l1,0.8c2.2,1.6,7.2,16.4,7.9,19.9
								c0.5,2.2-0.1,9.4-0.5,13.5l-2.7,0.6c0.5-9.5,0.4-24-3.9-30.7c-2.8-4.4-9.3-6.4-19.3-6.1c-4.7,0.2-9.4,0.8-14.1,1.8
								c-0.3,0.1-0.5,0.4-0.5,0.7l0,0c0,0.2,0.2,0.4,0.5,0.5c1.5,0.3,4.3,2.5,6.3,6c2.8,4.9,3.4,10.7,1.5,16
								c-3,8.9-8.8,11.2-13,12.8c-1.3,0.4-2.5,1-3.7,1.8c-1.7,1.7-3.3,3.6-4.6,5.6C249.4,181.8,240.6,193.5,235.2,191.1z
								 M304.2,166.9l-15.6,3.8l0,0c-10.5,3.6-12.7,11.4-12.8,11.8l-4.9,16.3h-16.6c0.9-3,1.5-6,1.6-9.1c0.1-3,0.6-6,1.4-8.9
								c0.2-0.6,0.5-1.2,0.8-1.8c3.5-1.5,8.9-4.6,10.2-6.5c0.3-0.4,0.3-0.9,0-1.3c-0.2-0.2-0.6-0.3-0.9-0.2c-1.9,0.2-7.4,3.1-10.1,7
								c-0.6,0.3-1.2,0.5-1.8,0.6c-1,0.2-2.8,1.6-5.1,3.6c1.9-2.3,3.7-4.7,5.3-6.8c1.3-1.9,2.8-3.7,4.4-5.3c1.1-0.7,2.2-1.2,3.4-1.6
								c4.2-1.6,10.5-4.1,13.7-13.5c2-5.6,1.4-11.8-1.6-17c-1.3-2.3-3.1-4.3-5.2-5.8c6-1.1,25.1-4,30.3,4.2
								C304.6,143,304.6,157.6,304.2,166.9L304.2,166.9z M259.8,176.9c2.1-2,4.5-3.6,7.2-4.6C264.8,174.1,262.4,175.7,259.8,176.9z"
								/>
						</g>
					</g>
				</g>
			</g>
		</g>
	</g>
</g>
</svg>
