<?xml version="1.0" encoding="utf-8"?>
<!-- Generator: Adobe Illustrator 24.1.2, SVG Export Plug-In . SVG Version: 6.00 Build 0)  -->
<svg version="1.1" id="Layer_1" xmlns="http://www.w3.org/2000/svg" xmlns:xlink="http://www.w3.org/1999/xlink" x="0px" y="0px"
	 viewBox="0 0 300 300" style="enable-background:new 0 0 300 300;" xml:space="preserve">
<style type="text/css">
	.st0{clip-path:url(#SVGID_2_);}
	.st1{fill:#D7D7C3;}
	.st2{fill:#C5F4DF;}
	.st3{fill:#363B5C;}
	.st4{fill:#C2CED3;}
	.st5{fill:none;}
	.st6{fill:#F3D46D;}
	.st7{fill:#FFFFFF;}
	.st8{fill:#80AA80;}
	.st9{fill:#463047;}
	.st10{fill:#F0B089;}
	.st11{fill:#8E6444;}
	.st12{fill:#5A3A2F;}
	.st13{fill:#4D4D4D;}
	.st14{fill:#8ACDCB;}
	.st15{fill:#ECAC86;}
	.st16{fill:#D78A63;}
	.st17{fill:#8A8A8B;}
	.st18{fill:#888888;}
	.st19{fill:#F4D4B4;}
	.st20{fill:#5B4232;}
	.st21{fill:#402A24;}
	.st22{fill:#C0E7FD;}
	.st23{fill:#308BB2;}
	.st24{fill:#221B16;}
	.st25{fill:#79544D;}
	.st26{fill:#292526;}
</style>
<g id="Layer_2_1_">
	<g id="Report">
		<g id="Layer_2-2">
			<g id="Report-2">
				<g>
					<defs>
						<rect id="SVGID_1_" width="300" height="300"/>
					</defs>
					<clipPath id="SVGID_2_">
						<use xlink:href="#SVGID_1_"  style="overflow:visible;"/>
					</clipPath>
					<g class="st0">
						<path class="st1" d="M315.8,229.9H-11v-20.1h57c6.1,0,12.2,0.2,18.2,0c5.4-0.2,6.9-3.4,10.4-7.5c1.2-1.6,2.6-2.9,4.3-3.9
							c1.7-0.7,3.6-1.1,5.5-1.2l53.4-4.3c11.9-1,23.9-1.9,35.9-1.1c9.8,0.6,19.6,2.4,29.3,4.3c7.6,1.4,16.5,3.4,22,9.6
							c3.3,3.8,3.1,4.9,8.3,4.9c4.2,0,8.3,0,12.5-0.1c13.4-0.2,26.8-0.7,40.3-0.7h29.8V229.9z"/>
						<path class="st2" d="M164,184.6c3.1-1.1,5.6,1,7.5,3.3c4.1-3.1,8.1-6.4,11.9-9.9c0.4,1.6,1,3.1,1.4,4.5
							c0.6,2.1,1.4,4.2,2.3,6.3c0.7,1.3,1.7,2.3,2.9,3c0.3,0.2,0.7,0.4,1.1,0.5c4.3-4.6,11.5-5.5,17.4-4.4c0.7,0.1,1.4,0.4,1.9,0.9
							c0.6-0.2,1.2-0.5,1.8-0.8c-0.1-0.3-0.2-0.7-0.3-1c-1.3-0.7-2.4-1.7-3.5-2.7c-1.7-1.7-4-4.6-4.2-7.3c-1.2-0.6-2.4-1-3.7-1.3
							c-1.2-0.3-1.9-1.6-1.6-2.8c0.4-1.2,1.6-1.9,2.8-1.6c3.2,0.5,6.2,1.7,8.9,3.5c-0.1-0.4-0.2-0.9-0.3-1.3
							c-0.4-2.1-1.4-4.4-0.7-6.5c0.4-1.3,1.7-2,3-1.7c0.2,0.1,0.4,0.1,0.6,0.2c2,1.4,2.6,3.7,3.6,5.9c0.8,2,1.5,4,2.2,6
							s1.3,4,1.9,6.1c0.2,0.8,0.4,1.6,0.7,2.4c0.2-0.2,0.4-0.4,0.5-0.6l0.4-0.1c0.2,2.6,2.4,4.6,5,4.7c0.9,0,1.8-0.3,2.5-0.7
							c0.2,0.4,0.3,0.7,0.5,1.1c2,4,8.3,2.9,9.4-1.2c2.7-10,1-20.6-4.4-29.4c-2.1-6.4-6.6-12.5-13.5-14c-2.5-0.6-5.1,0.7-6.1,3
							c-0.1,0.1-0.1,0.2-0.1,0.4c0,0.1-0.1,0.2-0.1,0.2c-0.1,0.2-0.1,0.4-0.2,0.6v0.1c-0.3,0.5-0.5,1-0.8,1.5
							c-0.1,0.1-0.2,0.3-0.3,0.4l-0.2,0.3c-0.4,0.4-0.8,0.8-1.2,1.2l-0.3,0.2l-0.4,0.3c-0.3,0.2-0.6,0.4-0.9,0.5
							c-0.8,1.2-1.7,2.3-2.6,3.4c-1.2,1.2-3,1.7-4.6,1.2c-1.6-0.5-2.8-1.7-3.3-3.3c-0.7-1.9-1.1-4-1.1-6.1c-0.5-0.2-1.1-0.3-1.7-0.2
							c-9,0.8-14.6,7.5-20.3,13.8c-6.1,6.7-12.3,13.3-18.5,19.9c-1.5,1.6-1.5,4.1,0,5.7c0.3,0.3,0.6,0.5,1,0.7
							C160.4,187.3,161.9,185.4,164,184.6z M195.8,182.6c-0.1-0.3-0.2-0.6-0.3-0.9c0.1,0.3,0.3,0.6,0.5,0.9L195.8,182.6z"/>
						<path class="st3" d="M201,159.1c-0.1,0.8,0.1,1.6,0.6,2.2c0.5,0.6,0.9,1.3,1.2,2.1c0.1,1.1-0.1,2.1-0.6,3.1
							c-0.6,2.1-0.9,4.2-0.9,6.4c-0.2,4.8-0.3,9.6-0.2,14.4c1.7,0.3,3.5,0.4,5.2,0.3l0.6-18.8c-0.1-1.2,0.2-2.4,0.7-3.6
							c0.6-1.1,1.7-1.9,2.4-3s0.8-2.8-0.3-3.4c-0.5-0.2-1-0.3-1.5-0.3C207.1,158.5,201,157.6,201,159.1z"/>
						<path class="st4" d="M77.4,193c1.6-0.8,3.3-1.4,5-1.9c2-0.6,3.8-1.3,5.9-0.8c3.2,0.7,4.2,5.1,1.9,7.3
							c-0.1,0.1-0.3,0.2-0.4,0.4l0.6,0.1l1.4,0.1l2.9-0.1c2,0,4.7-0.5,6.8,0c0.6-0.2,1.1-0.4,1.6-0.7c1.8-1.2,2.8-3.1,2.9-5.2h0.2
							c0.4-1.8,0.8-3.6,1.3-5.4c0.5-2.3,1.1-4.7,1.7-7c0.5-1.9,1-3.8,1.7-5.7c-0.4-1.1-0.2-2.3,0.5-3.3c0.9-1.2,3-1.8,4.3-0.9
							l3.7,2.8l0.8,0.6c0.2,0,0.3,0,0.5,0c0.3,0,0.5,0.1,0.8,0.2c0.4,0.1,0.7,0.4,1,0.6l0.5,0.6l0.3,0.6l0.2,0.1
							c0.6,0.4,1.1,0.8,1.7,1.2l0,0l0.1,0.1l0.8,0.7c1.2,0.9,2.3,1.9,3.4,2.9c4.6,4,9.2,8.2,14.7,10.9c0.9,0.4,1.8,0.6,2.8,0.6
							l-0.1-0.1l-0.3-0.2c-0.4-0.3-0.8-0.6-1.1-0.9c-0.6-0.7-1.1-1.6-1.4-2.5c-0.4-1.5,0.2-3.2,1.6-4c0.9-0.5,1.9-0.8,3-0.8
							c0.5,0,1,0.1,1.5,0.2h0.4l-0.3-0.3c-2.4-3.1-5.1-6.1-7.9-8.9c-3.2-3-5.8-4.3-8.8-7.3c-0.6-0.6-1.1-1.2-1.7-1.9l-0.2-0.3
							c-0.2-0.3-0.4-0.6-0.6-0.9c-1.1-1.6-2.2-3.2-3.3-4.7c-1.6-2.1-3.9-4.5-6.6-5.5c-1.3-2.4-4.3-3.3-6.7-2c0,0,0,0,0,0l0,0
							c-2,0.9-3.3,2.9-4.4,4.8s-2.2,3.8-3.3,5.7c-0.5,0.9-1,1.7-1.6,2.6c-0.3-2.2-0.9-4.3-1.7-6.4c-0.2-0.6-0.5-1.1-0.8-1.7
							c-0.8-0.4-1.5-1-1.9-1.7c-0.5-0.9-1-1.9-1.3-2.9c-2.1-2.2-4.9-3.6-8-3.7c-3,0.1-6,1.1-8.4,2.9c-2.1,1.4-4.1,2.9-6,4.6
							c-2.2,2-3.9,4.6-4.8,7.4c-0.7,2.9-1.3,5.8-1.6,8.8c-1.2,6.3-1.7,12.7-1.5,19.1c0,2,1.7,3.5,3.6,3.5c0.6,0,1.2-0.2,1.7-0.5
							c0.4,0.2,0.8,0.4,1.2,0.5C75.9,194.1,76.5,193.4,77.4,193z"/>
						<path class="st5" d="M211.9,153.4c-0.2,0.4-0.5,0.8-0.7,1.2c0.3-0.2,0.6-0.3,0.9-0.5l0.4-0.3l0.3-0.2c0.4-0.4,0.8-0.8,1.2-1.2
							l0.2-0.3c0.1-0.1,0.2-0.3,0.3-0.4c0.3-0.5,0.6-1,0.8-1.5v-0.1c0.1-0.2,0.2-0.4,0.2-0.6c0-0.1,0-0.2,0.1-0.2
							c-0.3,0.6-0.5,1.3-0.9,1.9C214.1,152.3,213.1,153.1,211.9,153.4z"/>
						<path class="st5" d="M232,207.9c-0.2,0-0.3,0-0.3,0.1S231.8,208,232,207.9z"/>
						<path class="st5" d="M195.8,182.6h0.2c-0.2-0.3-0.3-0.6-0.5-0.9C195.6,182.1,195.7,182.4,195.8,182.6z"/>
						<path class="st5" d="M89.8,197.9l-0.4,0.3l2.4-0.1l-1.4-0.2L89.8,197.9z"/>
						<path class="st5" d="M103.2,197.4c-0.5,0.3-1,0.5-1.6,0.7c0.9,0.2,1.8,0.7,2.5,1.4c0.1,0.1,0.3,0.3,0.4,0.4
							c0.6-2.6,1.2-5.1,1.8-7.7h-0.2C106,194.3,104.9,196.2,103.2,197.4z"/>
						<path class="st5" d="M149.1,209.3c-1.5,0.1-3,0.2-4.5,0.3c-0.5,0-1,0.1-1.6,0.1h8.6l1.3-0.6
							C151.7,209.3,150.3,209.3,149.1,209.3z"/>
						<path class="st5" d="M187.2,188.8c-0.9-2-1.7-4.1-2.3-6.3c-0.5-1.4-1-2.9-1.4-4.5c-3.8,3.5-7.8,6.8-11.9,9.9
							c0.6,0.8,1.2,1.5,1.7,2.2c1,1.6,0.9,3.7-0.2,5.2l3.1-1.1c1.9-0.6,3.8-1.2,5.7-1.7s4-1.4,5.9-1.3c0.6,0,1.3,0.2,1.8,0.6h0.5
							C188.8,191.1,187.8,190.1,187.2,188.8z"/>
						<path class="st5" d="M262.1,234.1c0.4-0.7,0.8-1.4,1.2-2c-0.4,0.2-0.8,0.4-1.2,0.6C262.1,233.1,262.1,233.6,262.1,234.1z"/>
						<path class="st5" d="M255.4,210.3c0.6,0.1,1.2,0.1,1.7,0.2c0.3-1,0.5-1.9,0.8-2.9C257.1,208.6,256.2,209.4,255.4,210.3z"/>
						<path class="st5" d="M218.4,193.8c-1,0.2-2-0.2-2.7-0.9c-1.7-1.1-2.9-2.8-3.4-4.8c-0.6,0.3-1.2,0.5-1.8,0.8
							c1.1,1,1.7,2.5,1.6,4.1c1.9,0,3.7,0.6,5.3,1.7C217.7,194.3,218,194,218.4,193.8z"/>
						<path class="st5" d="M218.9,202.8c-0.4-0.7-0.8-1.4-1.2-2.1c-0.5,0.5-1.2,0.8-1.9,1c-0.8,0.6-1.7,1.1-2.6,1.6l-1.7,1
							c-0.9,1.4-2.4,2.3-4.1,2.4c-1.5,0-3.1,0-4.6-0.2l-2-0.1c0.1,0.2,0.3,0.4,0.4,0.7c0.3,0.9,0.4,1.8,0.3,2.7h5.5l13.1,0.1
							c-0.7-2-1.1-4-1.4-6.1C218.8,203.5,218.8,203.1,218.9,202.8z"/>
						<path class="st5" d="M232.4,208L232.4,208z"/>
						<path class="st5" d="M43.3,199.3L43.3,199.3C43.1,200.5,43.4,199.4,43.3,199.3z"/>
						<path class="st5" d="M-3.7,214"/>
						<path class="st6" d="M231.2,217.2L231.2,217.2z"/>
						<path class="st6" d="M230.6,216.7c0.1,0.3,0.3,0.5,0.6,0.6l0,0l-0.1-0.1h-0.1c-0.1-0.1-0.1-0.1,0.1,0h0.7
							c0.4-0.1,0.9-0.3,1.4-0.4l0.2-0.1c-0.5,0.1-0.9,0.1-1.4,0.1C231.5,216.8,231.1,216.8,230.6,216.7z"/>
						<path class="st6" d="M231.2,217.3L231.2,217.3z"/>
						<path class="st7" d="M138.1,210.3c1.7-0.1,3.3-0.3,5-0.5c0.5-0.1,1-0.1,1.6-0.1c1.5-0.1,3-0.2,4.5-0.3c1.2-0.1,2.6,0,3.8-0.2
							l-1.3,0.6l-2.5,1.2c-1.5-0.1-3-0.2-4.5-0.1c-2.2,0-4,1.6-4.3,3.8c-0.3,2.1,1,4.2,3.1,4.8c2.7,0.4,5.4,0.7,8.1,0.7l7.6,0.5
							l15.1,0.9c2.5,0.3,5,0.2,7.5-0.2c2.3-0.6,4.6-1.5,6.7-2.5c4.3-1.7,8.2-4,11.9-6.9c0.6-0.6,1-1.3,1.2-2.1
							c0.2-0.9,0.1-1.9-0.3-2.7c-0.1-0.2-0.2-0.5-0.4-0.7l2,0.1c1.5,0.2,3.1,0.3,4.6,0.2c1.7-0.1,3.2-1,4.1-2.4l1.7-1
							c0.9-0.5,1.7-1,2.6-1.6c0.7-0.2,1.3-0.5,1.9-1c-0.7-1.2-1-2.5-1.1-3.8c0-0.9,0.3-1.7,0.8-2.3c-1.6-1.1-3.4-1.6-5.3-1.7
							c0,1.7-0.9,3.2-2.4,4.1c-3.7,2-8.8,3.6-12.9,2.4c-0.6-0.2-1.2-0.5-1.7-0.9c-0.3,0.1-0.6,0.2-0.9,0.2c-1.4,0.3-2.9-0.2-3.8-1.3
							c-0.9-1.1-1-2.7-0.3-4c0.3-0.4,0.6-0.8,0.9-1.1c-0.4-0.1-0.7-0.3-1.1-0.5h-0.5c-0.6-0.3-1.2-0.5-1.8-0.6c-2-0.1-4,0.7-5.9,1.3
							s-3.8,1.1-5.7,1.7l-3.1,1.1c-0.3,0.4-0.6,0.8-1.1,1.1c-1.3,1-3,1.3-4.5,0.8c-0.8,0.3-1.6,0.8-2.4,1.3
							c-1.5,1.1-1.9,3.2-0.8,4.7c0.1,0.1,0.2,0.2,0.3,0.4c-2.7,0.9-5.2,2.1-7.7,3.5c1.5-2,1.2-4.8-0.8-6.4c-0.5-0.4-1-0.6-1.6-0.8
							c-0.7-0.2-1.5-0.3-2.3-0.3c-0.5-0.5-1-1-1.6-1.4c-1.3-1.2-2.7-2.2-4.3-2.9c-3.2-1.3-7.3-0.5-10.6-0.3s-6.7,0.3-10.1,0.6
							c-2,0.2-3.9,0.7-4.8,2.6c-0.8,1.7,0,3.7,1.8,4.5c0,0,0,0,0,0c0.1,0.1,0.3,0.1,0.5,0.2c0.4,0.1,0.8,0.1,1.2,0.1h0.2
							c1.1,1.5,2.3,2.8,3.6,4.1c0.8,0.9,1.6,1.9,2.4,2.8c0.9,0.9,2,1.6,3.1,2C135.4,212.3,137.2,211.7,138.1,210.3z"/>
						<path class="st8" d="M49.2,212.8l26.8-1.3c0.8,0,1.5-0.2,2.2-0.6c1.2-0.6,2.2-1.7,2.5-3c0.5-2.1-0.4-4.3-2.3-5.5
							c-4.9-3.7-11-5.4-17-5.9c-2.8-0.2-5.6-0.2-8.4,0c-3.2,0.3-9.3,2.6-11.6-0.5c-1.1-1.5-1.3-3.5-1.5-5.3
							c-0.4-3.8-0.6-7.7-0.8-11.5c-0.1-1.8-0.4-3.7-0.3-5.6c0-1.6,0.6-3.1,0.5-4.6c0-0.7-0.1-1.4-0.3-2.1c-0.9-3.7-2.2-7.4-3.3-11
							c-1-3.5-2.6-6.8-4.5-9.9c-0.9-1.6-2.3-2.9-3.9-3.8c-1.7-0.7-4.1-0.1-4.7,1.6c-0.2,0.9-0.2,1.8-0.2,2.7
							c-0.1,2.8-2.2,5.1-3.5,7.6c-2.5,4.8-2.9,13.1-2.1,18.4c0.8,4.6,2.2,9,4.1,13.2c1,1.8,1.6,3.8,1.8,5.9c0.1,2.4,0.1,4.9,0.3,7.3
							c0.6,7.3,4.8,14.6,12.9,14.6C40.4,213.3,44.8,213,49.2,212.8z"/>
						<path class="st9" d="M24.4,197.9c-0.7-4.8-1.9-9.5-3.6-14c-1.1-2.4-2-4.8-2.7-7.4c-0.4-2.3-0.6-4.6-0.5-6.9
							c0-4.4-2.1-15.8,5.3-15.8c2,0,3.6,1.3,5.1,2.6l8.6,7.1c0.7,0.5,1.3,1.2,1.7,1.9c0.3,0.9,0.4,1.8,0.3,2.8
							c-0.3,4.7-0.2,9.4,0.1,14.1c0.4,5,1.3,10.4,4.7,14.1c0.8,0,1.4,1.6,2.7,1.2c1-0.3,0.7-0.8,1-1.6c1-2.5,2.2-5,3.6-7.3
							c0.4-0.7,0.7-1.4,0.9-2.1c0.1-1,0.1-2.1-0.3-3.1c-0.6-2.2-1.3-4.4-2.1-6.6l-2.3-6.4c-0.3-1.3-1-2.4-1.9-3.3
							c-1.5-1.2-4.2-1.1-5.3-2.6c-0.4-0.6-0.3-1.4-0.5-2.1c-0.5-1.1-1-2.2-1.7-3.2c-1-1.8-2.1-3.5-3.4-5.1c-2.3-2.5-4.8-4.8-7.7-6.7
							c-0.5-0.4-1.1-0.7-1.7-0.7c-0.4,0.1-0.8,0.3-1.1,0.6c-1.7,1.4-3.5,2.3-5.3,3.5C7,158.8,8.3,173.6,8.8,185.9
							c0.2,5.4,0.7,10.7,1.3,16.1c0.2,1.8,1.3,4.2,3.4,4.5c2.9,0.4,10,3,11.4-0.7c0.4-1.5,0.4-3,0-4.5
							C24.8,200.1,24.6,199,24.4,197.9z"/>
						<path class="st10" d="M34.7,131.2l-0.1-0.1L34.7,131.2L34.7,131.2z"/>
						<path class="st11" d="M41.8,156.3c0.5-2.8-1-4.2,1.3-6.5c0.7-0.6,1.6-0.9,2.6-0.8c1.3,0.4,2.7,0.6,4.1,0.6
							c2.3-0.3,4.2-1.9,4.9-4.2c0.5-1.8-1.2-6.7,0.8-7c0.6,0,1.3-0.1,1.9-0.2c0.1,0,0.2-0.1,0.3-0.2c0-0.2,0-0.3-0.2-0.4
							c-1.4-1.7-2.4-3.7-2.8-5.9c-0.1-0.3-0.2-0.6-0.2-0.5c-0.1-0.6-0.1-1.2-0.1-1.8c-0.1-1.2-0.2-2.4-0.4-3.7
							c-0.5-2.2-1.7-4.3-3.4-5.8c-0.1,0.4-0.4,0.7-0.6,1c-0.8,0.8-1.9,1.3-2.7,2c-0.7,0.6-1.3,1.4-1.8,2.2c-1.2,2.1-2.1,4.3-2.7,6.7
							c-0.6,1.9-2.5,3.2-4.5,2.9c-1.6-0.2-3-1.4-3.3-3h-0.1c-1.5,0.1-3,0.1-4.5,0c-0.2,0.6-0.3,1.2-0.5,1.9
							c-0.2,1.2-0.3,2.5-0.3,3.7c0.1,1.6,0,3.3-1.2,4.5c-0.2,0.2-0.5,0.4-0.8,0.5c0.5,1.5,1.2,2.9,2.2,4.2c1.2,1.6,2.6,2.9,3.6,4.6
							c1,1.6,1.8,3.4,2.4,5.2c0.7,2,2.6,4.1,3.7,6c0.1,0.1,0.2,0.2,0.3,0.3c0.4,0.2,0.7-0.3,0.8-0.7l1.3-5.2
							C41.8,156.4,41.8,156.4,41.8,156.3z"/>
						<path class="st12" d="M29.5,137.2c-0.1-1.3,0-2.5,0.3-3.7c0.1-0.6,0.3-1.2,0.5-1.9c1.5,0.1,3,0.1,4.5,0h0.1
							c0.4,1.6,1.7,2.8,3.3,3c2,0.3,3.9-1,4.5-2.9c0.6-2.3,1.5-4.6,2.7-6.7c0.5-0.8,1.1-1.6,1.8-2.2c0.9-0.6,1.8-1.3,2.7-2
							c0.3-0.3,0.5-0.6,0.6-1c0.8-2.3-1.7-4.7-3.6-5.3c-1.1-0.3-2.2-0.4-3.3-0.3h-9.5c-1,0-2.1,0-3.1,0.2c-4.9,1.1-8,8-9.1,12.4
							c-0.9,3.7,0.1,8.8,1.1,12.5c-1.6-5.7-5.7-2.7-8.8-0.2l-2.4,1.9c-3.9,3.1-5.7,5.6-5.6,10.6c0.1,3.7,2.7,8.1,1.7,11.6
							c-0.7,2.4,2.9,4.1,4.1,1.7c0.6-1.3,1.1-2.6,1.3-4c0.1-1.1,0.4-2.3,0.4-3.4c0.2-0.6,0.3-1.2,0.4-1.8h0.1c3.4,0,5.5-4.2,6.9-6.9
							c1.1-2,2.8-5.8,2.2-8.4c0.4,0.8,1,1.5,1.8,1.9c0.7,0.4,1.6,0.4,2.4,0.1c0.3-0.1,0.6-0.3,0.8-0.5
							C29.5,140.5,29.6,138.9,29.5,137.2z M34.7,131.2L34.7,131.2l-0.1-0.1C34.7,131.1,34.7,131.2,34.7,131.2L34.7,131.2z"/>
						<path class="st13" d="M87.3,201.1c1.7,0,3.4,0.3,5,0.7c1.3,0.2,2.5,0.5,3.8,0.9c2.9,0.9,5.6,2,7.2,4.7c0.2,0.3,0.3,0.6,0.3,1
							h0.4c2.3-0.1,5.3,0.1,7.3-1.2h0.1c2.3,0.6,4.6-0.7,5.2-3c1.6-6.1,3.1-12.1,4.6-18.2c0.4-1.5,0.7-3,1-4.5
							c0.3-1.1,0.5-2.2,0.5-3.3c0.1-0.2,0.2-0.3,0.2-0.5c0.1-0.2,0.2-0.5,0.2-0.8c0.1-0.4,0.1-0.8,0-1.2l-0.1-0.1l-0.3-0.6l-0.5-0.6
							c-0.3-0.3-0.6-0.5-1-0.6c-0.2-0.1-0.5-0.2-0.8-0.2c-0.2,0-0.3,0-0.5,0l-0.8-0.6l-3.7-2.8c-1.3-1-3.4-0.3-4.3,0.9
							c-0.7,0.9-0.9,2.2-0.5,3.3c-0.7,1.9-1.2,3.7-1.7,5.7c-0.6,2.3-1.2,4.7-1.7,7c-0.4,1.8-0.8,3.6-1.3,5.4
							c-0.6,2.6-1.2,5.1-1.8,7.7c-0.1-0.2-0.2-0.3-0.4-0.4c-0.7-0.7-1.5-1.2-2.5-1.4c-2.2-0.5-4.8,0-6.8,0l-2.9,0.1l-2.4,0.1
							c-1.4,0.8-3,1.4-4.7,1.7c-0.7,0.2-1.3,0.3-2,0.5c-0.6,1.4-0.5,3,0.4,4.1c0-0.1,0-0.3,0.1-0.4
							C83.9,202.4,85.5,201.1,87.3,201.1z M110.3,186.4c0.5-1.9,0.9-3.7,1.3-5.6c0.2-1.4,0.5-2.7,0.9-4c0-1.6,1.1-2.9,2.6-3.3
							c1.3-0.2,2.6,0.5,3.1,1.8c1.3,0.6,1.9,1.9,1.6,3.3c-1.2,3.4-1.9,7.3-3.7,10.4c-0.8,3.4-1.8,6.7-3,10c-0.5,1.7-2.3,2.8-4.1,2.3
							c-1.6-0.4-3-2.4-2.3-4.1C108.2,193.7,109.4,190.1,110.3,186.4L110.3,186.4z"/>
						<path class="st13" d="M83.2,204.9c-1.1,1.8-0.7,4.5,1.7,5.1c1.4,0.3,2.7,0.3,4.1,0.1c-1.3-0.3-2.6-0.7-3.8-1.2
							C83.9,208,83.1,206.5,83.2,204.9z"/>
						<path class="st14" d="M106.8,197.3c-0.7,1.7,0.7,3.6,2.3,4.1c1.8,0.4,3.6-0.6,4.1-2.3c1.2-3.3,2.2-6.6,3-10
							c1.8-3.2,2.4-7.1,3.7-10.4c0.4-1.3-0.3-2.7-1.6-3.3c-0.5-1.3-1.8-2-3.1-1.8c-1.5,0.4-2.6,1.7-2.6,3.3c-0.4,1.3-0.7,2.6-0.9,4
							c-0.4,1.9-0.8,3.7-1.3,5.6C109.5,190.1,108.3,193.7,106.8,197.3z"/>
						<path class="st15" d="M102.6,157.1c2.8,1.3,6.6-0.4,6.5-4c0-1.1-0.2-2.3-0.6-3.3l0.4-0.2h0.1c1.9,0.4,3.9-0.5,4.8-2.2
							c2-4.3,3.5-8.8,4.3-13.4c0.7-3.1,0.4-6.4-0.8-9.3c-0.2,0-0.4,0.1-0.6,0.1c-1.2,0-2.5-0.3-3.6-0.7l-1.2-0.3
							c-0.3-0.1-0.6-0.2-0.9-0.3c-0.9-0.1-1.9-0.1-2.8-0.2l-1.5-0.1c-0.4,1.4-1.4,2.5-2.7,3.2c-0.5,0.4-1.1,0.6-1.7,0.8
							c-0.2,0.1-0.3,0.2-0.3,0.1c-0.1,0.2-0.3,0.4-0.4,0.7c-0.3,1.1-0.8,2.1-1.4,3c-1.5,1.9-4.1,0.5-4.8-1.3
							c-0.4,0.1-0.9,0.1-1.3,0.1c-0.1,0.1-0.1,0.3-0.2,0.4c-0.3,0.5-0.7,0.9-1.3,1.1c-0.5,0.2-1.1,0.3-1.7,0.1
							c-0.3,2.2,0.1,4.3,1,6.3c0.5,1,1,1.9,1.6,2.7c-0.2,1.3-0.4,2.6-0.5,3.9c-0.3,2.6,2.5,5.1,5,5h0.3c0.3,1.1,0.6,2.2,1,3.3
							c0.3,1,0.7,2,1.3,2.9C101.2,156.2,101.9,156.8,102.6,157.1z"/>
						<path class="st16" d="M101.6,124.6l-0.3,0.1L101.6,124.6z"/>
						<path class="st15" d="M150,183.8L150,183.8c-0.4-0.1-0.9-0.2-1.4-0.2c-1.1,0-2.1,0.3-3,0.8c-1.4,0.8-2,2.5-1.6,4
							c0.3,0.9,0.7,1.8,1.4,2.5c0.3,0.4,0.7,0.7,1.1,0.9l0.3,0.2l0.1,0.1l0,0c1.4,1.1,3.1,1.8,4.9,1.9c4.1,0.1,6.2-5.2,3.3-8.1
							c-1.3-1.2-2.9-1.9-4.7-2.1h-0.1L150,183.8z"/>
						<path class="st17" d="M60.6,193.2c0.8,1.3,2.4,2,3.8,1.6c1-0.3,1.9-1,2.2-2.1c0.5-0.3,0.9-0.8,1.2-1.3
							c0.7-1.4,0.9-2.9,0.6-4.4c-0.1-1.2-0.3-2.3-0.4-3.5c-0.1-1.8-1.2-3.4-2.9-4.1c-1.3-0.6-2.8-0.6-4.2,0.1
							c-2.9,1.4-3.7,4.3-2.8,7.2C58.7,189,59.5,191.2,60.6,193.2z"/>
						<path class="st11" d="M89.5,198.2l0.4-0.3c0.1-0.1,0.3-0.2,0.4-0.4c2.3-2.2,1.3-6.6-1.9-7.3c-2.2-0.5-3.9,0.2-5.9,0.8
							c-1.7,0.5-3.4,1.1-5,1.9c-0.8,0.5-1.5,1.2-1.8,2.1c-0.1,0.3-0.2,0.6-0.2,0.9c-0.6,1.3-0.1,2.8,1.1,3.6
							c0.8,0.9,1.9,1.4,3.1,1.4c1.1-0.1,2.2-0.3,3.3-0.6c0.7-0.1,1.3-0.3,2-0.5C86.5,199.6,88.1,199,89.5,198.2z"/>
						<path class="st11" d="M102.5,210.5l0.2-0.1c0.6-0.5,0.9-1.2,0.9-2c0-0.4-0.1-0.7-0.3-1c-1.7-2.7-4.3-3.8-7.2-4.7
							c-1.2-0.4-2.5-0.7-3.8-0.9c-1.6-0.4-3.3-0.7-5-0.7c-1.8,0-3.4,1.2-4,3c0,0.1-0.1,0.3-0.1,0.4c0,0.1,0,0.3,0,0.4
							c-0.2,1.6,0.6,3.1,2,3.9c1.2,0.5,2.5,0.9,3.8,1.2c1,0.2,2,0.4,3.1,0.6l1.7,0.3C96.8,211.4,99.6,211.8,102.5,210.5z"/>
						<path class="st18" d="M92.7,131.3c0.5-0.2,1-0.6,1.3-1.1c0.1-0.1,0.1-0.3,0.2-0.4c0.4,0,0.9,0,1.3-0.1
							c0.7,1.8,3.3,3.2,4.8,1.3c0.6-0.9,1.1-1.9,1.4-3c0.1-0.2,0.2-0.4,0.4-0.7c0,0.1,0.1,0,0.3-0.1c0.6-0.2,1.2-0.5,1.7-0.8
							c1.3-0.7,2.3-1.8,2.7-3.2l1.5,0.1c0.9,0.1,1.9,0,2.8,0.2c-0.1,0,1,0.3,0.9,0.3l1.2,0.3c1.2,0.4,2.4,0.7,3.6,0.7
							c0.2,0,0.4,0,0.6-0.1c2.3-0.4,4-3.2,2.6-5.4c-1.8-2.7-5.1-3.7-8-4.8c-2.8-1-5.7-1.3-8.7-1.1c-3.1,0.1-6.2,1-8.8,2.6
							c-3,2-4.9,5.2-5.1,8.8c0,0.4,0,0.8,0.1,1.3c-0.1,0.1-0.2,0.2-0.2,0.3c-0.2,0.3-0.3,0.6-0.4,0.9c-0.1,0.3-0.1,0.7-0.1,1
							c0,0.6,0.2,1.1,0.4,1.6c0.1,0.2,0.3,0.4,0.5,0.6c0.1,0.1,0.1,0.1,0.2,0.2c0.3,0.3,0.7,0.6,1.1,0.7l0,0
							C91.6,131.5,92.2,131.5,92.7,131.3z M101.3,124.7l0.3-0.1L101.3,124.7z"/>
						<path class="st19" d="M172,196.4c0.4-0.3,0.8-0.7,1.1-1.1c1.2-1.5,1.2-3.6,0.2-5.2c-0.5-0.7-1.1-1.5-1.7-2.2
							c-1.9-2.3-4.4-4.4-7.5-3.3c-2.2,0.8-3.5,2.8-4,5.1c-0.3,1.4-0.4,2.7-0.2,4.1c0,1.2,0.8,2.3,1.9,2.8c1.2,0.5,2.5,0.3,3.4-0.6
							l0.2-0.2c0.1,0.1,0.2,0.2,0.3,0.3c0.5,0.6,1.2,1,2,1.2C169.1,197.7,170.7,197.4,172,196.4z"/>
						<path class="st19" d="M200.6,155.9c0.5,1.6,1.7,2.8,3.3,3.3c1.6,0.5,3.4,0,4.6-1.2c1-1.1,1.9-2.2,2.6-3.4
							c0.2-0.4,0.5-0.8,0.7-1.2c1.2-0.3,2.2-1.2,2.8-2.3c0.3-0.6,0.6-1.2,0.9-1.9c0.1-0.1,0.1-0.2,0.1-0.4c1-2.5,1.6-5.1,1.7-7.8
							v-1.3c1.4-0.9,2.3-2.5,2.2-4.2c-0.1-0.9-0.2-1.8-0.5-2.6c-0.1,0.2-0.1,0.3-0.2,0.5c-0.6,1-2,1.4-3.1,0.8
							c-0.3-0.2-0.6-0.5-0.8-0.8c-0.8-1.4-0.7-3.1-1-4.7c-0.1-0.8-0.3-1.5-0.4-2.3c-0.2-0.1-0.4-0.3-0.6-0.4c-0.4-0.3-0.7-0.6-1-1
							c-0.2-0.3-0.3-0.6-0.4-0.8c-0.2-0.3-0.3-0.6-0.5-0.9c-2.3,1.9-5,3.4-7.8,4.3c-1.8,0.6-3.7,1-5.6,1c0.1,2.3-0.3,4.6,0,6.8
							c0,1.1-0.9,2.1-2,2.2c-1.1,0.1-2.2-0.5-2.5-1.6c-0.4-1-0.8-2.1-1.1-3.3c-0.6,0.4-1.1,1-1.4,1.7c-0.6,1.4-0.4,3.4,0.8,4.4
							l0.2,0.1l0.3,0.3c0.3,0.4,0.6,0.8,1,1.2c0.5,0.6,1.1,1.1,1.6,1.6c1.1,1.2,2.2,2.4,3.2,3.6c0.4,0.5,1,1.3,1.6,2
							c-0.1,0.7-0.1,1.4-0.1,2.1C199.5,151.9,199.9,153.9,200.6,155.9z"/>
						<path class="st19" d="M210.5,188.9c-0.5-0.5-1.2-0.8-1.9-0.9c-5.9-1.1-13.1-0.2-17.4,4.4c-0.3,0.4-0.6,0.7-0.9,1.1
							c-0.7,1.3-0.6,2.9,0.3,4c0.9,1.1,2.4,1.6,3.8,1.3c0.3-0.1,0.6-0.1,0.9-0.2c0.5,0.4,1.1,0.7,1.7,0.9c4.2,1.2,9.3-0.4,12.9-2.4
							c1.4-0.9,2.3-2.4,2.4-4C212.2,191.4,211.6,189.9,210.5,188.9z"/>
						<path class="st20" d="M220.8,183.7c-0.5-2.1-1.2-4.1-1.9-6.1s-1.3-4-2.2-6c-0.9-2.2-1.5-4.5-3.6-5.9c-1.2-0.7-2.6-0.3-3.3,0.9
							c0,0,0,0,0,0c-0.1,0.2-0.2,0.4-0.2,0.6c-0.7,2.1,0.3,4.5,0.7,6.5c0.1,0.4,0.2,0.9,0.3,1.3c-2.7-1.8-5.7-2.9-8.9-3.5
							c-1.2-0.3-2.4,0.4-2.8,1.6c-0.3,1.2,0.4,2.4,1.6,2.8c1.3,0.3,2.5,0.7,3.7,1.3c0.2,2.7,2.5,5.5,4.2,7.3c1,1.1,2.2,2,3.5,2.7
							c0.1,0.3,0.2,0.7,0.3,1c0.5,1.9,1.7,3.6,3.4,4.8c0.7,0.7,1.7,1.1,2.7,0.9c0.4-0.2,0.9-0.4,1.4-0.4c0.9-0.5,1.5-1.3,1.9-2.2
							c0.4-1.6,0.4-3.4-0.2-5C221.2,185.3,221,184.5,220.8,183.7z"/>
						<path class="st21" d="M195.9,137.7c1.1-0.1,2-1.1,2-2.2c-0.3-2.2,0.1-4.5,0-6.8c1.9,0,3.8-0.4,5.6-1c2.9-0.9,5.5-2.3,7.8-4.3
							c0.2,0.3,0.3,0.6,0.5,0.9c0.1,0.3,0.3,0.6,0.4,0.8c0.3,0.4,0.6,0.7,1,1c0.2,0.2,0.4,0.3,0.6,0.4c0.1,0.7,0.2,1.5,0.4,2.3
							c0.3,1.6,0.2,3.2,1,4.7c0.6,1,2,1.4,3.1,0.8c0.3-0.2,0.6-0.5,0.8-0.8c0.1-0.2,0.1-0.3,0.2-0.5c0.5-1.6,0.6-3.3,0.2-4.9
							c-0.1-1.8-0.7-3.5-1.7-5V123c-0.1-1-0.3-2-0.6-2.9c-1.9-5.1-8.3-6.8-13.4-6.9c-1.2,0-2.3,0.1-3.5,0.4
							c-1.6,0.5-3.1,1.3-4.3,2.4c-1.4,1.1-2.6,2.4-3.5,4c-1.1,2.2-0.3,4.2-0.4,6.2c-0.1,2.4-0.5,4.2,0.2,6.6
							c0.3,1.2,0.7,2.3,1.1,3.3C193.7,137.2,194.8,137.9,195.9,137.7z"/>
						<path class="st22" d="M217.4,194.6c-0.6,0.6-0.9,1.5-0.8,2.3c0.1,1.3,0.5,2.6,1.1,3.8c0.4,0.7,0.8,1.4,1.2,2.1
							c-0.1,0.3-0.1,0.7-0.1,1c0.2,2.1,0.7,4.1,1.4,6.1c0.4,1.4,0.8,2.7,1.1,4.1c0.7,3.1,1.6,6.7,3.9,9.1c4.6,4.8,12,2.6,16.7-0.8
							c4.8-3.6,9.3-7.6,13.4-11.8c0.9-0.9,1.7-1.8,2.6-2.6c-0.3,1-0.6,1.9-0.8,2.9c-1.4,5.2-2.5,10.5-3.2,15.9
							c0,1.5,0.7,2.9,1.9,3.7c1.2,0.9,2.7,1.2,4.1,0.8c1.6-0.3,3.2-0.6,4.8-1.1c2.9-4.4,6.1-8.6,9.5-12.6c0.7-1.2,1.5-2.4,2.4-3.6
							c1.1-1.5,2.4-2.8,3.9-4c0.5-0.6,0.9-1.3,1.4-1.9l0.8-1.1l0.6-0.8c0.5-0.6,1-1.3,1.5-1.9c0.6-0.3,1.1-0.6,1.7-0.8l0.2-0.1
							l0.9-0.4c5-1.9,10.4-2.7,15.6-3.6c2.2-0.6,3.7-2.6,3.7-4.9c-1-10.8-2.4-22.9-11.3-30.4c-2.2-1.9-4.7-3.4-7.4-4.4
							c-1.5-2.9-3.8-5.3-6.6-6.9c-1.4-0.7-2.9-1.1-4.5-1.2l-0.8,0.2c-0.2,0-1.1,0.4-1,0.4c-0.4,0.2-0.7,0.4-1.1,0.6
							s-0.9,0.6-1.3,0.8l-0.3,0.2l-0.5,0.4c-0.8,0.7-1.5,1.5-2.1,2.3c-1.1,1.3-2.9,1.8-4.5,1.3c-0.4,0.5-0.7,1.1-1,1.6
							c-1.9,3.4-2.5,7-2.9,10.8c-0.1,0.8-0.2,1.7-0.3,2.5c0,0.3-0.1,0.7-0.1,1v0.6c-0.1,0.5-0.2,0.9-0.3,1.4l-0.1,0.1l-3.9,4.6
							c-3.2,3.8-6.4,7.6-9.6,11.5s-6.2,7.6-9.4,11.3c-0.7,0.8-1.4,1.6-2.2,2.3c-0.4,0.4-0.9,0.9-1.4,1.3c-0.2,0.1-1.1,0.9-0.7,0.6
							c-0.3,0.2-0.7,0.4-1,0.6l-0.3,0.1l-0.3-0.3l0,0c-0.2-0.3-0.4-0.6-0.6-0.9l-1.1-1.7l-2.3-3.6l-2.2-3.4c-1-1.5-1.9-3.2-3.5-4
							c-0.7-0.4-1.5-0.5-2.4-0.4c-0.5,0.1-0.9,0.2-1.4,0.4C218.1,194.1,217.8,194.3,217.4,194.6z M233.3,216.9
							c-0.4,0.2-0.9,0.3-1.4,0.4h-0.7c-0.2-0.1-0.2-0.1-0.1,0h0.1l0.1,0.1l0,0c-0.3-0.1-0.5-0.4-0.6-0.6c0.5,0.1,0.9,0.2,1.4,0.2
							c0.5,0,0.9,0,1.4-0.1L233.3,216.9z M232.4,208L232.4,208C232.5,208,232.7,208,232.4,208z M232,207.9c-0.2,0.1-0.3,0.1-0.3,0.1
							S231.8,207.9,232,207.9L232,207.9z"/>
						<path class="st23" d="M231.1,217.2"/>
						<path class="st13" d="M317.1,201.9c-4.1-2.5-9.1-1.7-13.6-0.8c-4.8,0.9-9.6,2.1-14.2,3.6c-3.2,1.1-6.3,2.7-8.9,4.9
							c-1.4,1.2-2.7,2.5-3.9,4c-0.9,1.2-1.7,2.4-2.4,3.6c-3.4,4-6.5,8.2-9.5,12.6l49.9,1.2c2.1-4.9,4.6-9.7,6.4-14.7
							C322.8,211.1,322.1,205,317.1,201.9z"/>
						<path class="st20" d="M270,156.2c0.6-0.8,1.4-1.6,2.1-2.3l0.5-0.4l0.3-0.2c0.5-0.3,0.9-0.6,1.3-0.8s0.7-0.4,1.1-0.6
							c-0.1,0.1,0.8-0.3,1-0.4l0.8-0.2c0.3-0.1,0.5-0.1,0.8-0.2l0.9-0.2l0,0c2.5-0.3,4.5-1.7,4.9-4.3c0.3-1.8-0.5-3.6-2-4.6
							c-0.8,2-2.6,3.5-4.7,3.8c-1,0.2-1.9,0.3-2.9,0.4c-2.9,1.6-6.3,2.3-9-0.1c-1-1.2-2-2.4-2.8-3.8L262,142l-0.6-0.7
							c-0.5-0.5-1-1-1.4-1.6c-1.1-1.2-2.3-2.3-3.6-3.3c0,0.4,0,0.8-0.1,1.3c-0.2,2.8-4.3,2.8-4.3,0c0-1.3-0.1-2.6-0.3-3.9
							c-0.1-0.5-0.2-1-0.3-1.4c-2.2-1.2-2.4-2.6-2.7-4.8c-1.2,0.2-1.7,1.6-1.8,2.8c-0.2,3.1,0.6,6.1,1.4,9.1l1.4,5.1
							c0.3,1.5,0.9,3,1.8,4.3c1.2,1.5,3.2,2.5,3.8,4.3c0.4,1.2,0.2,2.5,0.7,3.6c0.8,1.3,2.2,2,3.6,1.8c2.2-0.1,3.7-1.7,5.8-1.2
							C267.1,158,268.9,157.5,270,156.2z"/>
						<path class="st24" d="M251.5,132.4c0.1,0.5,0.2,1,0.3,1.4c0.2,1.3,0.2,2.6,0.3,3.9c0.1,2.8,4.1,2.8,4.3,0c0-0.4,0-0.8,0.1-1.3
							c1.3,1,2.5,2.1,3.6,3.3c0.5,0.5,1,1,1.4,1.6l0.6,0.7l0.2,0.3c0.8,1.3,1.7,2.6,2.8,3.7c2.8,2.4,6.1,1.7,9,0.1
							c1-0.1,1.9-0.2,2.9-0.4c2.2-0.3,4-1.8,4.7-3.8c0.4-1,0.6-2.1,0.6-3.2c0.2-8.4,1.8-18-6.9-23c-2.4-1.3-5.1-2.2-7.8-2.5
							c-3.7-0.4-7.4-0.4-11.1,0c-2.3,0.1-4.1,1.5-6.3,2.3c-2.9,1.1-2.7,4-2.7,6.9c0,1.8,0.7,3.6,1.1,5.4c0.1,1,0.4,1.9,0.9,2.7
							C249.7,131.1,251.3,131.9,251.5,132.4z"/>
						<path class="st8" d="M48.2,159.4c0.2,0.3,0.4,0.7,0.5,1.1c0.2,1-0.7,1.9-1.2,2.7c-0.5,0.8-0.8,1.7-0.8,2.6
							c0,0.4-0.1,0.8-0.3,1.1c-0.4,0.3-0.9,0.4-1.3,0.2c-1.4-0.3-2.8-0.8-4.1-1.5c-0.1,0-0.2-0.1-0.2-0.1c-0.1-0.1-0.1-0.3-0.1-0.4
							l0.2-5.6c0-0.3,0-0.6,0.1-0.8c0.1-0.2,0.2-0.4,0.4-0.5c0.9-1.2,0.4-4.8,2.4-4.5C45.4,153.9,47.4,158.1,48.2,159.4z"/>
						<path class="st25" d="M105.7,161.8l-5.1-0.3c-0.6,2,1.6,3.7,2.6,5.6c1.2,2.1,0.8,4.8,0.5,7.3c-0.9,6.6-1.2,13.3-0.8,20
							c0,0.8,0.2,1.6,0.6,2.3c0.5,0.7,1.4,0.9,2.1,0.4c0,0,0,0,0,0l0,0"/>
						<path class="st26" d="M342.4,228.8h-26.6c6.4-12.4,8.6-21,6.3-25c-0.8-1.4-2.2-2.2-3.8-2.3h-0.1c-2.8,0-9.8,2.2-12.3,3.1
							c0.1-1.2,0.4-3.6,0.5-6.7l2.6-0.6c-0.1,1.1-0.2,1.7-0.2,1.8c0,0.2,0.1,0.4,0.2,0.5c0.2,0.1,0.4,0.2,0.5,0.1
							c0.1,0,11.7-3.8,15.5-1.9c2.6,1.3,0.4,11.7-1.7,18c-0.1,0.3,0,0.6,0.3,0.7s0.6,0,0.7-0.3l5.8-14.2c1-2.9,0.9-5.2-0.5-6.7
							c-3.4-3.7-13-1.2-13.4-1.1l-6.2,1.5c0.4-4.2,1-11.2,0.5-13.5c-0.6-2.8-5.6-18.6-8.4-20.6l-1-0.8c-3.2-2.4-9.2-6.8-12.4-7.2
							s-18.2,3.9-25.6,8.4c1.2-1.5,2.1-2.6,2.1-2.6c0.1-0.2,0.2-0.4,0.1-0.6l-0.1-0.3c3.7-2.9,9-6.9,10.9-7.1c1-0.1,2.1-0.3,3.1-0.6
							c1.3-0.4,2.7-0.6,4.1-0.7c1,1.2,2.1,2.2,3.4,3c0.2,0.1,0.5,0.1,0.7-0.1c0.2-0.2,0.3-0.4,0.1-0.6l-1.2-2.8
							c-0.1-0.2-0.2-0.3-0.4-0.4c-0.7-0.1-1.4-0.2-2.1-0.3c-1-1.3-1.6-2.8-1.8-4.4v-0.1c-0.2-0.9-0.3-1.8-0.4-2.8
							c0-0.3-0.3-0.6-0.6-0.6c-0.3,0-0.6,0.2-0.6,0.5c0,0,0,0,0,0c0,0-0.2,4-6.7,3.8c-7.1-0.2-9-1.6-10.7-4.6s-5.3-7-7.9-6.2
							c-2,0.7-1.8,3.6-1.6,5l-0.5,0.1c-0.1-1.8-0.7-6.5-2.4-7.7c-0.2-0.2-0.5-0.3-0.8-0.3c0,0-0.3-3.3-0.3-3.6
							c-0.1-1.3-0.8-2.5-1.8-3.3c-0.1,0.1-0.8,0.7-0.7,0.7c-0.3-0.8-0.3-1.7-0.2-2.6l0.4-5.5c5.2-4,11.7-5.9,18.3-5.6
							c3.2,0.2,6.5,0.7,9.3,2.1c1.4,0.7,2.6,1.8,3.5,3.1c0.4,0.6,0.6,1.3,1.1,2c0.6,0.8,1.1,1.7,1.5,2.6c0.6,1.6,1,3.2,1.2,4.9
							c0.4,3.4,0.1,6.9-0.9,10.2c0,0.1-0.1,0.3-0.1,0.4c-0.1,0.3,0.1,0.6,0.4,0.7c0.3,0.1,0.6-0.1,0.7-0.4l0.1-0.4
							c0.9-3.5,1.2-7.2,0.9-10.8c-0.2-2.5-1-4.9-2.2-7c-0.5-0.7-1.1-1.4-1.5-2.1c-1-1.8-2.5-3.2-4.3-4.2c-3-1.3-6.3-2.1-9.6-2.2
							c-0.7,0-1.4-0.1-2-0.1c-4.3,0-8.6,1.1-12.5,3c-1.4,0.7-3.5,1.6-4.6,2.8s-0.7,4.6-0.9,6.4c-0.1,1.5-0.1,3,0.9,4
							c-0.3,0.7-0.5,1.5-0.5,2.2c0,1.5-0.1,3.1-0.4,4.6c-0.2,0.7-0.2,1.3,0,2c0.2,0.6,0.6,1.1,1,1.4c0.4,0.4,0.8,0.8,1,1.3
							c0.2,0.9,0.3,1.8,0.3,2.7c0,1.9,0.3,3.7,0.9,5.5c0.7,1.3,1.4,2.6,2.3,3.8c0.8,1.1,1.5,2.4,2.1,3.7c0.1,0.4,0.1,0.9,0.1,1.3
							c0.1,1.6,0.2,4,3,4.5c1.4,0.1,2.9-0.3,4.1-1.1c1.2-0.6,2.3-1.1,3-0.8l0.2,0.1c-0.9,0.8-1.6,1.3-1.8,1.5
							c-0.1,0.1-0.2,0.2-0.2,0.3l-0.5,2.4c-2.4,3-5.3,7-6.1,9.2c-1.6,4.2-6.6,12.9-6.7,12.9c-1,1.3-2,2.5-3.1,3.7
							c-0.2,0.2-0.4,0.4-0.6,0.6c-0.1-1.6-0.3-3.2-0.6-4.7c0-1.2-0.2-2.4-0.6-3.5c-0.3-0.7-0.4-1.5-0.5-2.2c0.1-1.1,0-9.3-1-11.2
							c-0.6-1.1-0.8-3.8-0.9-6.1c-0.1-0.9-0.1-1.8-0.2-2.6c-0.3-3.1-3.2-6-4.4-7.2l-0.1-0.1c-1.2-1.2-4.1-2-7-2.8
							c-3.6-1.3-7.1-2.8-10.4-4.7c-0.7-1-1.3-2-1.6-3.2l0.3-1.4c0.5-0.2,1-0.6,1.3-1.1c1.1-1.8,1.6-5.4,0.8-6.9
							c-0.2-0.6-0.7-1-1.3-1l0,0c-0.1,0-0.2,0-0.3,0.1c0-0.3,0-0.6,0-0.9c0.8-2.8,2.4-11-3.1-13.3c-1-1.3-2.2-2.4-3.6-3.2
							c-2.3-1.3-6.2-2.3-11.8,0c-9.4,3.8-9.5,11.1-8.8,15.2c0.1,0.3,0.3,0.5,0.6,0.5c0.1,0,0.7-0.1,1.6-0.2
							c-0.1,0.1-0.2,0.3-0.3,0.4c-0.4,0.9-0.4,2,0,2.9c-0.1-0.2-0.3-0.3-0.5-0.3c-0.8,0-1.5,0.4-1.9,1c-0.9,1.6,0.2,4.3,1.5,7.1
							c0.5,1.4,1.9,2.3,3.3,2.2c0.2,0.6,0.5,1.1,0.7,1.7c-0.3-0.2-0.6-0.1-0.8,0.1c-0.6,0.8-3.1,1.3-5.1,1.6c-1.4,0.2-2.7,0.5-4,1
							c-2.2,1.1-7.9,8.2-8.5,9.4c-0.6,0.9-1.4,1.7-2.3,2.3c-0.5,0.4-1.1,0.9-1.5,1.3c-1,1.3-1.9,2.7-2.5,4.3c-0.2,0.4-0.3,0.8-0.5,1
							c-1.2,1.8-2.8,3.3-4.6,4.5c-1.1,0.5-1.8,1.8-2.4,3c-0.2,0.4-0.4,0.9-0.7,1.2c-0.4,0.6-1,1.1-1.6,1.6c-0.8,0.7-2,1.8-4.2,3.8
							c-1.4,1.4-2.3,3.2-2.4,5.2c-0.3-0.5-0.7-1-1.1-1.4c-0.3-0.2-0.5-0.3-1.7,0.3c0.1-0.1,0.2-0.3,0.2-0.4c0.3-0.6,0.4-1.3,0.2-2
							c-0.5-1.6-2.7-2.7-4.8-3.7c-1-0.4-1.9-0.9-2.7-1.6l-0.9-0.9c-1.8-1.6-3.6-3.4-5.1-5.3c-0.4-0.6-1.6-2.2-2.9-4.1
							c-2.5-3.7-5.7-8.3-6.6-9.4c-1.4-1.7-6.6-6.6-8.7-7.5c-1.1-0.3-2.1-0.3-3.2-0.1c-0.8-0.5-1.8-0.9-2.7-1.1
							c-0.2,0-0.5,0.1-0.6,0.3c-0.1,0.2-0.1,0.5,0.1,0.7c0.2,0.2,0.3,0.4,0.4,0.6c-2.2,0.3-4.2,1-6.2,1.9c-2.1,1.4-3.6,8.2-3.7,8.9
							c-0.1,0.3,0.1,0.6,0.4,0.7c0.3,0.1,0.6,0,0.7-0.3c1.5-3.2,3.5-6,4.1-5.7c1.3,0.5,3.6,3.4,4.4,4.5c0.2,0.2,0.6,0.3,0.8,0.1
							c0.1-0.1,0.1-0.2,0.2-0.3c0.2-0.7,1.4-5.5,0.8-8.8l1.1-0.1c1.4,0.9,2.6,2.1,3.4,3.5c2.4,4.2,2.3,10.2-0.3,17.9
							c-0.1,0.1-0.1,0.3,0,0.5c0.2,0.3,0.4,0.8,0.8,1.4c-0.2-0.2-0.5-0.3-0.7-0.4l-7.1-2.8l0,0c-0.7-0.2-1.4-0.2-2,0.1
							c-0.7,0.4-1.2,1.1-1.5,1.9l-4.8,18.5c0.6-4.1,1.3-8.6,1.6-9.7c0.4-2,0.8-18.2-3.2-21.1c-0.9-0.7-2-2.5-3.2-4.8
							c0.1,0,0.2-0.1,0.3-0.3c0.2-0.2,0.1-0.6-0.1-0.8l-1.2-1c-2.1-4.6-4.1-10.2-5-13.1c0-0.1,0-0.1-0.1-0.2
							c-0.1-0.1-0.1-0.2-0.2-0.3c0.3,0.2,0.7,0.2,1,0.3c0.5,1.5,2,5.5,5.3,7s9,3.7,11.8,2.9s3.6-7.9,3.6-8.9
							c0.1-0.9,0.3-1.7,0.6-2.6c0.3-0.8,0.5-1.7,0.6-2.6c0.2-1.2,0.7-2.4,1.3-3.5l0.1-0.2c0.3-0.7,0-2.4-0.8-5.8l-0.3-1.3
							c2-0.1,3.6-1.9,3.5-3.9c0,0,0,0,0-0.1l0,0c0-0.3-0.2-0.5-0.5-0.5c-2.2-0.3-4.2-1.4-5.7-3.1c-1.5-1.5-3.3-3.3-8.3-4.3
							c-8.7-1.8-13,1.9-13.8,2.6c-2.8,1-4.5,5.2-4.6,11.1c-0.1,4.7,3.1,12.1,3.7,13.3c-0.2,1.7-0.6,3.4-1.1,5.1c0,0.1,0,0.2,0,0.4
							c0.7,1.8,5.4,6.2,7.9,8.4v0.1c-2.5,0.5-5.6,3-6.9,4.2c-1.3-3.5-2.4-7.1-3.1-10.7c0-0.2-0.2-0.4-0.4-0.4
							c-0.2-0.1-0.4,0-0.6,0.2c-1.3,1.4-5.3,3.3-11.9,5.7l-0.5,0.2c-2.1,0.8-6.7,6.1-8.6,11.8c-0.7,2.3-0.6,4.7,0.1,6.9
							c0.5,2.2,1,4.2-0.3,6.9c0-0.2,0-0.5-0.1-0.7c0-0.3-0.3-0.5-0.6-0.5l-6.5,0.2c-1.3-0.1-2.6,0.5-3.4,1.5
							c-1.8,2.4-0.8,6.6-0.8,6.8l1.9,9.4l-1.8,0.4c-2,0.4-4.8,1-5.7,0.6c-0.3-0.1-0.6-0.8-0.7-1.8c0.3-1.1,0.8-2.1,1.5-3
							c2.7-3.6,1.9-9.3-2.3-17.9c-4.1-8.3,1.2-11.4,1.4-11.5c0.1-0.1,0.2-0.2,0.3-0.4c0.1-0.1,0.1-0.3,0-0.4
							c-0.1-0.2-3.3-5.9-7.3-8.1c-0.1-0.1-0.2-0.1-0.3-0.1c0.6-1.5,1.8-2.7,3.4-3.2c1,0.1,5.8,0.8,7.4-0.4s1.6-4,1.5-6
							c-0.1-0.8-0.1-1.7,0.1-2.5c0.3-0.3,0.5-0.4,1-0.4c1.2,0,2.2-0.7,2.5-1.9c0.1-0.2,0-0.4-0.1-0.6c-0.9-1.1-3.3-4.3-3.2-5.9
							c0.1-0.5,0.1-1.1,0.3-1.6c0.6-1.7,0.3-3.6-0.7-5.1c-0.4-0.7-0.8-1.5-1.1-2.3c-0.4-1-0.9-2-1.4-2.9c0.2-0.2,0.3-0.5,0.3-0.8
							c0.1-1.9-3.8-4.8-7.8-5.2c-2.5-0.2-14.9-1.1-20,4.6c-4.2,4.7-6.3,12.9-4.3,16.3l0.1,0.1c1,1,1.8,2.2,2.4,3.5
							c-0.2,0.4-0.4,0.7-0.7,1c-0.8-1.3-1.5-2.8-2-4.2c-0.1-0.3-0.4-0.4-0.7-0.4c-0.1,0-12.6,4.1-14.2,15.9
							c-0.8,6.2,0.9,8.5,2.4,10.6c0.9,1.1,1.6,2.5,1.9,3.9c-1.3,3.6-2,7.4-1.8,11.3c0.1,2.3,0.2,4.6,0.2,6.8
							c0.3,9.4,0.6,18.3,2.6,25.3c0.1,0.2,0.3,0.4,0.6,0.4H27c0.3,0,0.6-0.3,0.6-0.6l0,0c0-0.1,0-0.2,0-0.2c0-0.1-3.7-8.7-4.5-14.5
							c-0.9-6.1-3.8-15.2-5.5-18c-1-1.7-1.7-10.8,0.8-18.4c0.2-0.6,0.4-1.1,0.6-1.6c1.3-0.6,2.9-1.5,4.4-2.4
							c0.5-0.3,0.9-0.5,1.2-0.8c1,0.9,2.1,1.7,3.2,2.6c1.9,1.4,3.7,3,5.4,4.6c4.2,4.7,13.6,19.4,14,24c0.1,1,0.1,2.2,0.2,3.4
							c0,2.3,0.2,4.6,0.5,6.9c-0.5,1.7-0.8,3.4-0.9,5.1v0.1c0,0.1,0,0.1,0,0.2c-0.2,0-1.2-0.3-4-3.2c-0.9-1-1.5-2.1-2-3.4
							c-0.1-0.6-0.1-1.2-0.2-1.9c-0.7-7.2-1.8-18-2.7-20.6c-0.1-0.2-0.3-0.8-0.8-0.8c-0.3,0-0.6,0.2-0.7,0.4
							c-0.5,1.1-0.2,6.9,0.5,12.2c0.5,3.7,1.4,7.4,2.7,10.9c0.3,2.6,0.4,3.9,0.5,4.3c0.4,1.5,3.5,3.4,5.9,4.1
							c1.6,0.5,7.8,1,12.6,1.3l0.2,1.1c0.1,0.3,0.3,0.5,0.6,0.5c2.7,0,5.4-0.4,8-1.2c3.9-0.2,9.4-0.7,10.1-0.8
							c1.4,0.3,3.7,3.7,3.8,6.3c0.1,1.7-0.8,1.9-1.1,2c-2.6,0.7-9.3,1-14.2,1.2c-2.4,0.1-4.4,0.2-5.5,0.3
							c-3.9,0.4-28.2,1.3-29.6,0.9c-0.8-0.3-1.5-1.8-1.8-2.7c-0.1-0.2-0.3-0.4-0.5-0.4h-39.2c-0.3,0-0.6,0.3-0.6,0.6l0,0l0,0
							c0,0.3,0.2,0.6,0.6,0.6c0,0,0,0,0,0h38.7c0.3,0.8,1.1,2.5,2.4,3c1.6,0.6,27.8-0.6,30.2-0.8c1.1-0.1,3.1-0.2,5.5-0.3
							c5.2-0.2,11.8-0.5,14.4-1.2c1.4-0.4,2.1-1.5,2-3.2c-0.2-2.8-2.7-7.1-4.9-7.4h-0.1c0,0-2.6,0.3-5.6,0.5l2.8-1
							c2.5-0.9,5-1.8,7.4-2.5l-0.1,0.1c-0.6,0.3-1,0.8-1.1,1.4c-0.2,0.7,0,1.5,0.5,2.1c0.3,0.2,0.6,0.4,1,0.5h-0.1
							c-0.2,0-0.5,0.1-0.6,0.3c-0.1,0.2-0.1,0.5,0.1,0.7c1.6,1.5,1.1,5.7,0.8,7.1c-0.1,0.3,0.1,0.5,0.3,0.6c1,0.4,2.9,0.2,5,0
							c1.1-0.2,2.3-0.2,3.4-0.2c0.3,0.1,0.9,0.2,1.5,0.3c3.2,0.7,6,1.2,7.1,0.8c0.5-0.1,0.9-0.5,1-1v-0.2c0.8,0.3,1.7,0.3,2.6,0.1
							c0.6-0.3,1-0.9,0.9-1.6l8-0.6c0.2,0,0.3-0.1,0.4-0.2c0.1-0.1,0.1-0.3,0.1-0.5l-0.4-1.7v-0.1l0.8,0.6c0.2,0.1,0.4,0.1,0.5,0.1
							c0.2-0.1,0.3-0.2,0.4-0.4l2.9-10.1l26.9-2.5l0.3,0.1l-0.1,0.7c0,0.1,0,0.1,0,0.2l0.2,1.1l-1.4-0.7c-0.1-0.1-0.2-0.1-0.3-0.1
							l-24.5,2.8c-0.3,0-0.6,0.3-0.5,0.7c0,0.2,0.1,0.3,0.2,0.4l6.2,4.3c0.1,0.1,0.3,0.1,0.4,0.1l2.9-0.4l8.4,7.9
							c0.1,0.1,0.3,0.2,0.5,0.1l24.6-5c0.2,0,0.4-0.2,0.5-0.5c0-0.2-0.1-0.5-0.3-0.6l-9.7-5.3l5.9-0.8c0.3,0,0.5-0.3,0.5-0.6
							c0-0.2-0.2-0.4-0.4-0.5l-4.4-1.7c1.1-0.3,3.8-2.6,3.7-3.9c-0.1-0.5-0.2-1-0.3-1.5c-0.1-0.3-0.2-0.5-0.2-0.8
							c0.1-0.3,0.4-2.7-0.4-3.7c0.2-2.1,0.5-4.2,2.2-5.8c2.1-2,3.4-3.1,4.2-3.8c0.7-0.5,1.3-1.1,1.7-1.8c0.3-0.4,0.5-0.8,0.7-1.3
							c0.4-1,1-1.8,1.9-2.5c2-1.3,3.8-3,5.1-5c0.1-0.3,0.3-0.6,0.5-1.1c0.5-1.4,1.3-2.7,2.2-3.9c0.4-0.4,0.9-0.8,1.4-1.2
							c1-0.7,1.9-1.7,2.6-2.7c0.6-1.2,6.1-8,7.9-8.9c1.2-0.4,2.4-0.7,3.7-0.9c2.1-0.4,4.2-0.8,5.3-1.6c0.7,0.9,2.3,2.9,2.6,4.4
							c0.4,2.3,1.5,6.9,4,8.8c-0.6,0-1.1,0.2-1.5,0.6c-0.2,0.2-0.4,0.5-0.4,0.8c-0.1,0.9,0.1,1.9,0.8,2.6l0.3,0.4
							c0.4,0.4,0.6,1,0.8,1.5c0.1,0.8-0.1,1.6-0.4,2.3c-0.1,0.2-0.1,0.3-0.2,0.5c-0.3,0.9-0.5,1.9-0.6,2.9c-1.1-0.4-2.3-0.6-3.5-0.6
							c-0.7,0-1.2,0.5-1.4,1.1c-0.1,0.7,0.2,1.4,0.8,1.9c0.6,0.4,1.3,0.9,1.7,1.1c0,0.7,0.2,1.3,0.7,1.8c0.4,0.4,1,0.7,1.5,0.9v1.3
							c-0.1,3-0.2,6.8-0.2,9.7c-1.2-0.1-2.4-0.1-3.6,0c-1.1,0.2-2.1,0.8-2.9,1.6c-0.2,0.2-0.5,0.4-0.7,0.6l-0.8,0.6
							c-2.2,1.6-3,2.3-3.2,2.7h-2.2c0-1.5-0.1-3-0.3-4.6c-0.5-1.6-1-3.1-1.8-4.6c-0.9-2.1-2-4.7-2-5.5c0-0.5-0.3-0.9-0.7-1.1
							c-1.2-0.2-2.9,2.3-3.3,3.2s-3.3,3.8-4.5,4.9c-0.3,0.3-0.5,0.5-0.6,0.6c-0.9,0.8-1.8,1.6-2.8,2.3c-1.1-1.4-3.7-4.5-5.8-3.7
							c-1.4,0.6-1.8,1-2,1.6c0,0.1,0,0.1-0.1,0.2c-0.3,0.2-0.5,0.3-0.8,0.4c-0.6,0.2-1.1,0.5-1.5,0.9c-0.2,0.4-0.4,0.9-0.4,1.5
							c0,0.2,0,0.5-0.1,0.7c-0.1,0.2-0.3,0.3-0.5,0.4c-0.4,0.2-0.8,0.6-1,1c-0.2,0.5-0.3,0.9-0.3,1.4c0,0.3,0,0.5-0.1,0.8
							c0,1,0.3,2,0.9,2.8c0.5,0.8,1.3,1.4,2.3,1.6c0.7,0.1,1.4,0,2-0.4c0.7,0.3,1.5,0.3,2.3,0.2c0.5-0.1,0.9-0.4,1.1-0.8
							c0,0,0,0,0-0.1c0.7,0.3,1.6,0.4,2.3,0.2c0.5-0.1,0.9-0.4,1.2-0.7c0.5,0.3,1.1,0.4,1.7,0.3c1.3-0.4,1.3-2.3,1.1-3.4h7.5
							l-18.8,7.9c-0.2,0.1-0.4,0.4-0.3,0.6c0,0.3,0.3,0.5,0.5,0.5L210,204l-5.1,2.6l-37.9-2.2c-0.1,0-0.2,0-0.3,0.1L141,216.7
							c-0.2,0.1-0.4,0.4-0.3,0.6c0.1,0.3,0.3,0.5,0.5,0.5l39.7,2.4c0.1,0,0.2,0,0.3-0.1l24-12.4l13.1,0.8c0.2,0,0.4-0.1,0.5-0.2
							c0.1-0.1,0.2-0.3,0.1-0.5c-0.5-1.7-1.1-3.3-1.8-4.9c-0.3-0.7-0.6-1.5-0.9-2.3c-0.2-0.8-0.5-1.6-0.9-2.3
							c-0.4-0.7-1.1-3.2-0.8-4.2c0.1-0.3,0.2-0.5,0.4-0.8c0.1,0.3,0.1,0.6,0.1,0.9c0,0.1,0,0.1,0.1,0.2c0.1,0.1,5.2,10.4,4.9,15.6
							c-0.2,3.6,2.7,8.1,3.9,9.9c2,2.8,4.6,5.7,6.2,5.8c2.6,0.2,11.5-3.1,13.8-5.1c0.6-0.5,1.5-1.4,2.7-2.5c3-2.9,8.6-8.2,10.1-8.4
							c0.2,0,0.5-0.1,0.7-0.2c-0.1,0.3-0.2,0.5-0.3,0.8c-0.8,3-1.3,6-1.4,9.1c-0.3,3.6-0.6,7-1.9,9.5c-0.1,0.2-0.1,0.4,0,0.6
							c0.1,0.2,0.3,0.3,0.5,0.3h17.8c0.3,0,0.5-0.2,0.6-0.4l5.1-16.7c0-0.1,2.2-7.6,12-11l15.3-3.7c-0.2,4.2-0.6,7.1-0.6,7.2
							c0,0.2,0.1,0.4,0.2,0.5c0.2,0.1,0.4,0.2,0.5,0.1c0.1,0,9.9-3.4,12.9-3.3c1.2,0,2.2,0.7,2.8,1.7c1.2,2.1,2,8.2-6.7,24.8
							c-0.1,0.2-0.1,0.4,0,0.6c0.1,0.2,0.3,0.3,0.5,0.3h27.6c0.3,0,0.6-0.3,0.6-0.6S342.7,228.7,342.4,228.8L342.4,228.8z
							 M285.7,150.3l0.3,0.6c-0.2-0.2-0.5-0.4-0.7-0.7L285.7,150.3z M260.2,158c-1,0.6-2.2,1-3.4,1c-1.7-0.3-1.9-1.5-2-3.4
							c0-0.5-0.1-1-0.2-1.5c-0.6-1.4-1.3-2.8-2.2-4.1c-0.8-1.2-1.5-2.4-2.2-3.7c-0.5-1.7-0.8-3.4-0.8-5.1c0-1-0.1-2.1-0.4-3.1
							c-0.3-0.6-0.7-1.2-1.2-1.7c-0.3-0.3-0.6-0.6-0.7-1c-0.1-0.5-0.1-1,0-1.5c0.2-1.6,0.3-3.2,0.4-4.8c0-0.9,0.3-1.7,0.8-2.4
							c0.5,1.8,0.8,3.7,0.8,5.6c0,0.3,0.3,0.6,0.6,0.6c0,0,0,0,0,0h0.1c0.2-0.1,0.4,0,0.5,0.1c1.2,0.8,1.8,5.1,2,7.5
							c0,0.2,0.1,0.3,0.2,0.4c0.1,0.1,0.3,0.1,0.5,0.1l1.8-0.4c0.2,0,0.3-0.1,0.4-0.3c0.1-0.1,0.1-0.3,0.1-0.4
							c-0.2-1-0.6-3.8,0.7-4.2c1.5-0.5,4.5,2.1,6.5,5.6c2.1,3.8,4.8,5,11.7,5.2c4,0.1,6-1.3,7-2.6c0.1,0.4,0.1,0.6,0.1,0.7
							c0.2,1.5,0.8,2.9,1.6,4.2c-1.2,0.1-2.4,0.3-3.6,0.7c-1,0.3-1.9,0.5-2.9,0.6c-2.3,0.3-8,4.5-11.5,7.3c-0.2-0.2-0.4-0.3-0.6-0.4
							C263,156.7,261.6,157.4,260.2,158z M115,156.7c-1-1.3-2.8-3.4-4.2-3.9c-0.1-0.1-0.3-0.1-0.4-0.1c-0.9,0-1.9,0.9-2.8,2.1
							c0.6-1.7,1.3-3.1,2-3.6c1.9-0.9,3.9-1.5,5.9-1.8C115.8,152,115.6,154.4,115,156.7z M117.9,130.5l-0.1,0.2
							c-0.7,1.2-1.2,2.6-1.4,4c-0.1,0.8-0.3,1.5-0.6,2.2c-0.4,0.9-0.6,1.9-0.7,2.9c0,1.7-1,7.3-2.8,7.8s-5.8-0.6-11-2.9
							c-3.6-1.6-4.8-6.7-4.8-6.8c-0.1-0.2-0.2-0.4-0.5-0.4h-0.1c-0.1,0-0.3,0-0.4,0.1c-0.1,0-0.7-0.1-2-1.3l-0.2-0.2
							c-0.8-2.2-1.1-4.6-0.8-6.9c0.2-0.3,0.5-0.4,0.9-0.4c2.3-0.1,2.5,2.5,2.5,2.8c0,0.3,0.2,0.5,0.5,0.6l2.6,0.6
							c0.2,0,0.4,0,0.5-0.1c0.1-0.1,0.2-0.3,0.2-0.5c-0.1-3.7,4.2-4.5,4.4-4.6c0.1,0,0.2-0.1,0.3-0.2c1.6-1.6,1.9-4.3,2-5.8
							c2.6,1.2,8,1.9,10.3,2.1l0.3,1.6C117.4,127.2,118,130,117.9,130.5L117.9,130.5z M91,129.7c-0.2,0.6-0.3,1.2-0.3,1.8
							c-0.6-1.9-1-3.9-1-5.9c0.1-5.4,1.6-9.3,4-10c0.1,0,0.2-0.1,0.2-0.2c0,0,2.7-2.8,8.5-2.8c1.4,0,2.9,0.2,4.3,0.5
							c4.7,1,6.2,2.5,7.7,4c1.5,1.7,3.5,2.9,5.8,3.4c0.1,0-0.3,1.1-0.4,1.2c-0.4,0.5-0.9,0.9-1.5,1c-1.7,0.4-4-0.3-5.7-0.5
							c-1.7-0.2-3.3-0.6-4.9-1.1c-0.2,0-0.3,0-0.5-0.1c-0.9-0.2-1.7-0.8-2,0.4c-0.2,0.7-0.1,1.3-0.2,2c-0.2,1.2-0.6,2.3-1.4,3.3
							c-1.8,0.4-4.8,1.8-5.1,5l-1.5-0.3c-0.1-1-0.5-1.9-1.2-2.6c-0.7-0.6-1.5-0.9-2.4-0.8c-0.4,0-0.8,0.1-1.1,0.3
							C91.7,128.5,91.2,129,91,129.7z M92.2,144.1c0.5-1.7,0.9-3.5,1.1-5.3v-0.1c0.2,0.2,0.3,0.5,0.5,0.7c0.3,0.8,1.9,5.8,4,10.7
							C95.2,147.8,92.7,145.3,92.2,144.1L92.2,144.1z M38.2,181.4c-0.4-2.9-0.7-5.9-0.8-8.8c0.6,3.4,1.2,9,1.7,13.8
							C38.8,184.9,38.5,183.2,38.2,181.4L38.2,181.4z M41.3,196.4c-0.1-0.4-0.1-0.8-0.2-1.2c0.3,0.4,0.5,0.7,0.9,1.1
							c1.1,1.2,2.2,2.2,3.5,3.1C43.6,198.6,41.6,197.2,41.3,196.4L41.3,196.4z M153.6,183.7c0.2,0.3,0.5,0.7,0.8,1.1s0.5,0.7,0.7,1
							v0.3c-0.2,2.9-0.4,5.2-3.8,5.9c-0.4,0.1-0.8,0.1-1.2,0.2c-0.3-0.3-0.1-1-0.1-1c0.1-0.1,0.1-0.3,0-0.5
							c-0.1-0.1-0.2-0.2-0.3-0.3c-0.2-0.5-0.3-1-0.2-1.6c0-0.3-0.2-0.6-0.5-0.6c0,0,0,0,0,0c-0.1,0-0.1,0-0.2,0c-0.2,0-0.3,0-0.5,0
							l0.4-1.8C150.2,185.3,151.8,184.4,153.6,183.7L153.6,183.7z M147,194.1l2.1,0.8l-3,0.5L147,194.1z M145.5,189.1
							c-0.8-0.4-1.4-1.1-1.7-2c-0.2-0.9,0.2-1.8,0.9-2.3c0.1-0.1,0.2-0.1,0.3-0.1c0.1,0,0.2,0.1,0.3,0.1c0.2,0.2,0.5,0.4,0.8,0.5
							L145.5,189.1z M146.6,191.1l-0.1,0.7l-0.2-0.1l0.1-0.8L146.6,191.1z M146.6,189.8l0.1-0.9c0.1,0.1,0.2,0.2,0.3,0.3l-0.1,0.8
							L146.6,189.8z M147.9,184.5h-0.4l0.8-4.6c0.2-0.1,0.3-0.1,0.3-0.1c0.1,0,0.1,0.1,0.1,0.2L147.9,184.5z M148,189.6h0.2
							c0,0.3,0.1,0.7,0.1,1l-0.5-0.2L148,189.6z M147.6,185.6l-0.1,0.4l-0.4,0.4l0.1-0.7L147.6,185.6z M148.8,191.6
							c0,0.2,0,0.4,0,0.6h-0.4L148.8,191.6z M149.9,179.8c0-0.3-0.2-0.6-0.4-0.8c0.9,0.4,1.7,1.1,2.2,2c0.1,0.4,0.1,0.7-0.1,1.1
							c-0.5,1-1.4,1.8-2.6,2.2l0.8-4.2C150,179.9,150,179.8,149.9,179.8L149.9,179.8z M104.5,161.9c1.9,4.8,1.8,16.1,1.4,18
							c-0.1,0.5-2,11.3-2.4,15.9h-0.3c-0.3-0.6-0.5-1.3-0.5-2c-0.4-6.6-0.1-13.3,0.8-19.9v-0.1c0.3-2.4,0.7-5.2-0.6-7.5
							c-0.4-0.6-0.7-1.2-1.2-1.7c-0.8-0.8-1.3-1.9-1.5-3L104.5,161.9z M52.4,122.6c0.3,0.9,0.8,1.7,1.2,2.4c1.1,1.6,0.8,2.7,0.6,4.2
							c-0.1,0.6-0.2,1.1-0.3,1.7c-0.2,2.1,2.4,5.4,3.2,6.4c-0.2,0.6-0.8,0.9-1.4,0.8c-0.7,0-1.4,0.3-1.9,0.9
							c-0.5,0.7-0.5,1.8-0.4,3.3c0.1,1.9,0.2,4-1.1,5c-1,0.8-4.6,0.5-6.7,0.2c-0.1,0-0.2,0-0.3,0c-3.2,0.9-4.7,4.1-5.3,7.7
							c-2.3-3.9-5.7-8.4-9.6-11.1c-0.3-0.9-1.7-5.1,0.3-6.9c0.2-0.1,0.2-0.3,0.2-0.6c-0.2-1-0.6-3.9,0.4-5.2
							c0.3-0.4,0.7-0.6,1.1-0.6c1.6-0.2,2.3,0.7,3,1.6c0.6,0.8,1.3,1.6,2.5,1.5s2.3-1.6,3.3-3.2c0.8-1.2,1.6-2.5,2.3-2.7
							c1.1-0.3,1.9-1.8,2.9-3.7c1.1-2.1,2.4-4.7,4-4.7h0.4C51.5,120.6,51.9,121.6,52.4,122.6z M41.7,158c-0.2-0.4-0.4-0.7-0.6-1.1
							c0.1-1.1,0.3-2.1,0.6-3.1C41.6,155.2,41.6,156.6,41.7,158z M21.3,133.4c-1.6-2.7,0-10.2,4.2-14.9c4.7-5.2,16.6-4.4,19-4.2
							c2.6,0.2,4.9,1.5,6.5,3.5c-0.3-0.4-0.8-0.7-1.2-0.9c-1.5-0.6-10.9-0.8-18.3,3.4c-4.8,2.6-8.1,7.3-8.9,12.7
							c0,0.2,0,0.3,0.1,0.5c0.5,0.7,0.7,1.6,0.6,2.4v0.2C22.8,135.1,22.1,134.2,21.3,133.4L21.3,133.4z M22.1,140.4
							c0.2,0.1,0.4,0.2,0.6,0.3c0.5,0,0.9-0.3,1.1-0.7c0.3-0.7,0.4-1.5,0.2-2.2c0.3-0.5,0.4-1.1,0.5-1.7c0.1-1.1-0.1-2.1-0.7-3
							c0.8-4.9,3.9-9.2,8.3-11.6c6.9-4,16-3.8,17.3-3.3c0.3,0.1,0.6,0.3,0.8,0.6c-2.1,0.3-3.5,2.9-4.7,5.3c-0.7,1.3-1.5,3-2.1,3.1
							c-1.2,0.3-2.1,1.7-3,3.2c-0.8,1.2-1.7,2.6-2.4,2.7c-0.5,0-0.9-0.4-1.5-1.1c-0.8-1.4-2.4-2.2-4.1-2.1c-0.8,0-1.5,0.5-2,1.1
							c-1.2,1.7-0.8,4.8-0.6,5.8c-2.4,2.7-0.3,7.9-0.3,8.1c0,0.1,0.1,0.2,0.2,0.3c4.2,2.8,7.8,8.1,10.1,12.2
							c-0.1,1.6-0.2,3.2-0.1,4.8c-3.9-7.6-13.4-15.4-13.9-15.8c-0.1-0.1-0.2-0.1-0.4-0.1h-0.2c-1.1,0.5-2.2,1.2-3.1,2
							c-1.5-1.6-2.6-3.1-2.6-4.4c0-0.8,0.4-1.6,1.1-2C21.2,141.2,21.6,140.8,22.1,140.4z M26.1,147.9c-0.6,0-1.3,0-1.9,0.1
							c0.4-0.3,0.8-0.5,1.3-0.7L26.1,147.9z M8.4,159.9c-1.4-2-2.9-4.1-2.2-9.8c1.3-9.7,10.6-13.9,12.9-14.8
							c0.5,1.5,1.3,2.9,2.1,4.2c-0.4,0.4-0.8,0.8-1.3,1.1c-1,0.7-1.6,1.7-1.6,2.9c0,1.6,1.1,3.4,2.8,5.1c-3.8,1.6-6.5,5.6-8.4,9.6
							c-1.1,1.4-2,2.9-2.7,4.5C9.7,161.8,9.1,160.8,8.4,159.9z M17.3,156.1c-2.5,7.6-1.9,17.3-0.7,19.4c1.6,2.7,4.5,11.8,5.3,17.6
							c0.7,4.9,3.3,11.6,4.3,14H11.5c-1.9-6.8-2.2-15.5-2.5-24.6c-0.1-2.2-0.1-4.5-0.2-6.8c-0.1-2.2,0.1-4.5,0.5-6.7
							c0,0.3,0.2,0.6,0.5,0.6s0.6-0.2,0.6-0.5c0.8-3.6,1.9-7,3.4-10.4c0.9-1.3,2.2-2.4,3.6-3.2L17.3,156.1z M18,154.1
							c-0.3,0.1-0.5,0.2-0.8,0.3c-0.5,0.2-1,0.5-1.4,0.8c1-1.6,2.3-3.1,3.9-4.3C19.1,151.9,18.5,153,18,154.1z M19.7,153.3
							c0.6-1.3,1.5-2.5,2.5-3.6c0.5,0.4,1,0.9,1.5,1.3C22.4,151.8,21,152.6,19.7,153.3z M23.4,149.3c0.9-0.2,1.8-0.3,2.7-0.2
							c-0.4,0.5-0.9,0.9-1.5,1.3C24.2,150,23.8,149.6,23.4,149.3L23.4,149.3z M34,158.3c-1.7-1.7-3.6-3.3-5.6-4.8
							c-1-0.7-2-1.5-2.9-2.3c1.5-1.1,1.8-1.8,1.8-2.1c3.9,3.6,11.7,11.3,12.8,17.4v0.3C38.3,163.7,36.2,160.9,34,158.3L34,158.3z
							 M40.7,167.5h0.2c0.3-0.1,0.5-0.3,0.5-0.6c0-0.2,0-0.3-0.1-0.5c-0.3-2.4-0.4-4.8-0.4-7.2c0.9,1.6,1.5,2.9,1.7,3.5l0.2,0.4
							c0.1,0.3,0.5,0.4,0.8,0.3c0.3-0.1,0.4-0.5,0.3-0.8l-0.2-0.4c-1.1-2.6-1-6.6-0.9-8.4c2.3,1.9,4.3,4.1,5.8,6.7
							c-2.2,1.6-4.8,5.8-1.4,12.7c4,8.2,4.8,13.5,2.4,16.7c-0.3,0.4-0.6,0.9-0.8,1.4c-0.2-1.6-0.2-3.4-0.3-4.6s-0.1-2.4-0.2-3.5
							C48.1,180,44.5,173.3,40.7,167.5L40.7,167.5z M47.3,199.9c0.1,0,0.2-0.1,0.2-0.1c0.5-0.3,0.7-0.8,0.6-1.4c0.1-1,0.2-2,0.4-2.9
							c0.2,0.4,0.5,0.6,0.8,0.8c1.1,0.4,3.3,0,6.3-0.6l1.8-0.4l1.1,5.6C53.8,200.6,49.3,200.2,47.3,199.9L47.3,199.9z M60.1,202.6
							l-0.1-0.3l2.3,0.1C61.6,202.5,60.8,202.6,60.1,202.6L60.1,202.6z M67.4,201.4c-1.3,0.1-2.4,0.1-3.1,0.1l-4.6-0.3l-1.2-5.9H59
							c0.5,0,1.5,0,2.8,0.1c3.2,0.2,6.4,0.3,9.7,0.1l0.7,4.4C70.6,200.3,69,200.8,67.4,201.4L67.4,201.4z M73.2,194.4
							c-0.1,0.4-0.2,1.3-0.4,2.2l-0.3-1.9c0-0.2-0.1-0.3-0.2-0.4c-0.1-0.1-0.3-0.1-0.4-0.1c-1.8,0.4-6.7,0.1-10-0.1
							c-0.9-0.1-1.8-0.1-2.8-0.1h-0.6l-1.9-9.5c0,0-0.9-3.9,0.6-5.8c0.6-0.7,1.6-1.1,2.6-1.1l6-0.2l0.2,2.2
							c-1.8,5.5,0.2,12.5,0.3,12.8c0.1,0.3,0.4,0.5,0.7,0.4c0.2-0.1,0.3-0.2,0.4-0.4c0.6-1.8,0.2-8.6-0.2-12.7
							c0.2-0.5,0.4-1,0.7-1.5c1.7-3.2,1.1-5.6,0.5-8c-0.7-2-0.8-4.2-0.2-6.2c1.8-5.4,6.3-10.5,7.9-11.1l0.5-0.2
							c3.9-1.4,9.1-3.4,11.6-5.3c0.5,2.3,1.8,7.7,3.3,10.7c0.1,0.3,0.5,0.4,0.8,0.3c0,0,0,0,0,0c0.1,0,0.1-0.1,0.1-0.1
							c1.9-1.8,5.2-4.3,7.2-4.5c1.3,2.8,2.7,5,3.8,5.9c0.3,0.2,0.5,0.4,0.7,0.7l-4.5-0.3l-0.1,0.4c-0.5,1.7,0.6,3.2,1.6,4.4
							c0.4,0.5,0.8,1,1.1,1.6c1.1,2,0.8,4.4,0.4,6.8v0.1c-0.9,6.7-1.2,13.4-0.8,20.1c0,0.7,0.1,1.4,0.4,2.1l-9.9,0.9
							c-0.2,0-0.4,0.2-0.5,0.4c0.1-0.3,0.1-0.5,0.1-0.8c0.1-0.2,0.1-0.4,0.2-0.6c0.3-0.5,0.4-1.1,0.4-1.7l0,0c0-0.6-0.4-1.2-1-1.4
							c-0.3-0.2-0.6-0.1-0.8,0.2c-0.2,0.3-0.1,0.6,0.2,0.8l0,0c0.1,0.1,0.2,0.2,0.3,0.4c-0.3,0.3-1.4,0.9-5.2,1.5
							c-0.4,0.1-0.8,0.1-1.2,0.2c0.1-0.3,0.3-0.6,0.5-0.8c0.4-0.6,1.7-1.1,3.3-1.7l1.5-0.6c1-0.3,1.7-1.1,1.8-2.1
							c0.1-0.7-0.2-1.3-0.8-1.6c-0.5-0.3-1.1-0.3-1.6,0.1c-1.2,0.8-5.4,1.4-7.3,1.6c-1.1,0.2-2.1,0.6-3,1.2c-0.6,0.4-1.3,0.7-1.9,1
							c-1.2,0.5-2.4,0.9-3.6,1.1C73.4,193.8,73.2,194,73.2,194.4L73.2,194.4z M91.2,199.8c0.1,0.1,0.3,0.2,0.5,0.2l9.1-0.8l8,6.2
							l-6,0.5c-1.7-0.4-3.8-2-5.4-3.1c-0.7-0.6-1.5-1.1-2.3-1.4c-0.6-0.1-1.2-0.2-1.8-0.2c-1.2,0-2.4,0.1-3.6,0.3
							c0.6-0.5,0.9-1.3,0.9-2.1c0.3-0.7,0.6-1.4,0.8-2.1l-0.5,1.9C91,199.4,91.1,199.6,91.2,199.8L91.2,199.8z M74.5,199l-1.1,0.4
							c0.2-1.1,0.6-3.3,0.8-4.4c1.2-0.3,2.3-0.7,3.4-1.1c0.7-0.3,1.4-0.7,2.1-1.1c0.7-0.5,1.6-0.9,2.5-1c1.8-0.2,6.3-0.9,7.8-1.8
							c0.2-0.1,0.3-0.1,0.4,0c0.2,0.1,0.3,0.3,0.2,0.6c0,0.5-0.4,0.9-1.1,1.1l-1.5,0.5c-1.9,0.7-3.2,1.2-3.8,2.2
							c-0.3,0.5-0.5,0.9-0.8,1.4l-0.2,0.4C80.3,196.9,77.4,197.8,74.5,199L74.5,199z M82.5,200.3c-0.2-0.3-0.3-0.7-0.2-1
							c0-0.2,0.2-0.4,0.4-0.6c0.6-0.4,1.1-1,1.4-1.7c0.7-0.2,1.4-0.3,2-0.4c1.6-0.2,3.2-0.6,4.8-1.1c-0.1,0.3-0.2,0.6-0.3,0.9
							c-0.2,0.9-0.5,1.8-0.9,2.6c0,0.1-0.1,0.2-0.1,0.2c0,0.7-0.4,1.3-1,1.6C87.9,201.2,83.2,200.7,82.5,200.3L82.5,200.3z
							 M104.1,207.6c-0.2,0-0.3,0.1-0.4,0.3c-0.1,0.1-0.1,0.3-0.1,0.5c0,0,0.2,0.7-0.2,0.8c-1,0.1-2.1-0.1-3.1-0.5
							c-0.3-0.1-0.6,0-0.7,0.3c-0.1,0.3-0.1,0.6,0.2,0.7c0.2,0.1,0.3,0.3,0.4,0.4c-0.1,0-0.1,0.1-0.2,0.1c-0.9,0.3-4.7-0.5-6.5-0.9
							L92,209c-0.3,0-0.6-0.1-0.8-0.1c-0.8,0-1.8,0.1-2.9,0.2c-1.3,0.2-2.7,0.2-4,0.2c0.2-1.3,0.6-4.5-0.5-6.6
							c1.9,0.2,3.9,0.2,5.8,0c1.8-0.4,3.6-0.5,5.3-0.3c0.7,0.4,1.3,0.8,1.9,1.3c1.7,1.2,3.9,2.9,5.9,3.3h0.2l7.6-0.6
							c0.2-0.1,0.4-0.2,0.4-0.5c0.1-0.2,0-0.5-0.2-0.6l-9.4-7.3c-0.1-0.1-0.2-0.1-0.4-0.1l-8.5,0.7l0.2-0.8l10.3-1
							c0.2,0.1,0.4,0.3,0.6,0.3c0,0.1,0,0.3,0.1,0.4c0.1,0.2,0.3,0.4,0.6,0.4c0.2,0,0.5-0.2,0.5-0.4l0.1-0.3l0.2-0.1l-0.5,1.8
							c-0.1,0.2,0,0.5,0.2,0.6l7.2,5.1l-0.2,0.6c0,0.1,0,0.2,0,0.3l0.3,1.2L104.1,207.6z M112.2,203.6l-6.5-4.6l0.6-2.3l8-0.8
							L112.2,203.6z M106.6,195.5l6.1-22.9l7,3.1l-5.1,19L106.6,195.5z M113.7,204.7l-0.5-0.3l2.3-8.5l0.8-0.1L113.7,204.7z
							 M116.6,194.6l-0.8,0.1l5.2-19.1c0.1-0.3-0.1-0.6-0.3-0.7l-8.1-3.6c-0.2-0.1-0.3-0.1-0.5,0c-0.2,0.1-0.3,0.2-0.3,0.4
							l-6.4,23.9h-0.2l6.3-24c0.2-0.5,0.5-0.9,0.9-1.1c0.2-0.1,0.4-0.1,0.5-0.1c0.2,0,0.4,0,0.5,0.1l7.1,2.8
							c0.2,0.1,1.9,0.9,1.3,3.4L116.6,194.6z M117.9,194.4l5-17.5c0.2-0.7,0.2-1.4,0.1-2.1c1,1.7,2.2,3.3,2.9,3.6
							c2.9,2,5.6,4.3,8,6.8c2.8,2.9,6.1,5.1,9.7,6.7L117.9,194.4z M134.9,184.6c-0.9-1.3-7.2-6.5-8.5-7.2c-0.6-0.3-2.7-3.6-4.4-6.5
							c2.6-8,2.7-14.2,0.1-18.6c-0.7-1.2-1.5-2.2-2.6-3.1c0.4,0,0.8,0,1.2,0.2c1.7,0.7,6.8,5.4,8.2,7.1c0.9,1.1,4.1,5.8,6.5,9.3
							c1.3,1.9,2.4,3.5,2.9,4.1c1.6,1.9,3.4,3.8,5.3,5.4l0.9,0.9c0.9,0.7,1.9,1.3,3,1.8l1.2,0.6c-0.4,0-0.9,0.1-1.3,0.3
							c-0.1,0.1-0.3,0.2-0.3,0.4l-0.9,4.9c-0.1,0-0.1-0.1-0.2-0.1c-0.5-0.5-1.4-0.6-2-0.2c-1.2,0.7-1.8,2.1-1.5,3.5
							c0.2,1.3,1.4,2.3,2.6,3.1l-0.2,1C141.2,189.8,137.8,187.5,134.9,184.6L134.9,184.6z M125,201.5l-4.7-3.3l22.7-2.6l0.5,0.3
							l-17.8,3c-0.2,0-0.4,0.2-0.5,0.4c-0.1,0.2,0,0.4,0.2,0.6l1.4,1.4L125,201.5z M127,199.8l18.1-3.1l2.9,1.6l-19.8,2.7L127,199.8
							z M159.6,204.5l-22.7,4.6l-7.5-7.1l20.4-2.8L159.6,204.5z M155.3,197.3l-5.3,0.7l-3-1.6l4.2-0.7L155.3,197.3z M153.2,194.2
							l-1.9,0.3l-2.6-1l1.6,0.1l0,0c0.9,0.3,1.8,0.4,2.8,0.3c0.3-0.1,0.5-0.3,0.5-0.6c0-0.4-0.3-0.5-0.7-0.6
							c1.3-0.5,2.2-1.6,2.7-2.8c0,0.1,0.1,0.3,0.1,0.4c0.1,0.4,0.2,0.9,0.3,1.3C156,192.2,153.8,194.1,153.2,194.2L153.2,194.2z
							 M180.8,219.1l-37.3-2.3l23.5-11.2l35.8,2.1L180.8,219.1z M310.1,196.9l6.6-1.6c0.1,0,9.3-2.4,12.3,0.7c1.1,1.2,1.1,3,0.3,5.5
							l-2.6,6.3c0-0.1,0-0.3,0.1-0.4c1.2-6.3,0.8-9.8-1.2-10.7c-1.2-0.5-2.4-0.7-3.6-0.6c-4.2,0-9.8,1.6-11.9,2.2
							C310,197.9,310.1,197.4,310.1,196.9L310.1,196.9z M262.9,160.6l0.1-0.1C263,160.6,263,160.6,262.9,160.6L262.9,160.6z
							 M218.5,144.9c3.4,1.9,7,3.6,10.7,4.9c2,0.5,5.4,1.4,6.4,2.5l0.1,0.1c1.1,1.1,3.8,3.8,4.1,6.5c0.1,0.8,0.1,1.6,0.2,2.5
							c0.2,2.6,0.3,5.2,1,6.5s1,9.1,0.9,10.6c0,0.9,0.2,1.8,0.5,2.6c0.4,1,0.6,2.1,0.6,3.2c0,0.1,0,0.1,0,0.2
							c0.4,1.9,0.6,3.9,0.6,5.8l-0.4,0.4c-0.6-1.2-1.3-2.4-2.1-3.5c-2.8-3.6-6.1-5.3-9.7-4.7c-2.3,0.4-3.9,0.7-4.9,0.9h-0.2
							c-0.6-2.1-0.6-4.4-0.1-6.6c0.4-0.7,0.9-1.4,1.5-1.9c3.2-2.3,5.9-8.9,4.8-10.6c-0.3-0.4-0.8-0.7-1.6-0.2
							c-2.5,1.5-4.2,7.2-5.5,11.3l-0.2,0.6c0,0.1-0.1,0.2-0.1,0.3c-1.5,3.1-1.4,7.3-1.3,8.9l-1.9,0.2c-0.4-0.9-0.8-1.6-1-2
							c-0.4-1.3-0.5-2.6-0.5-4c0-1-0.1-2.1-0.3-3.1c-0.5-1.6-1.3-3.1-2.2-4.4l-0.5-0.8c-0.3-0.5-0.7-1.1-1.1-1.6
							c-0.5-0.6-0.9-1.3-1.3-2c-0.2-0.7-1.5-3.3-3.4-4c-0.5-0.2-1.1-0.2-1.6-0.1c0.2-0.2,0.3-0.4,0.4-0.6c0.5-0.8,0.7-1.8,0.5-2.8
							c-0.1-0.6-0.5-1.1-1-1.4c-0.6-0.3-1.2-0.4-1.8-0.4h-0.5c2.7-1.1,5.1-2.9,7-5.2c2.4-2.7,3.4-6.4,2.8-10
							C217.6,143.9,218,144.4,218.5,144.9L218.5,144.9z M227,174.2c1.1-3.4,2.6-7.8,4.4-8.8h0.1C231.8,166.4,230.1,172,227,174.2z
							 M225.1,183.9c-0.1,0.1-0.2,0.2-0.2,0.4v-1.4C225,183.3,225.1,183.6,225.1,183.9L225.1,183.9z M210.8,169.9
							c0.4,0.9,0.6,1.9,0.6,2.9c-1.3-0.1-2.6-0.4-3.9-0.8v-2.8c-0.1-1.1,0.2-2.3,0.6-3.3c0.2-0.4,0.4-0.7,0.7-1l1.1,2.6
							C210,168.4,210.3,169.2,210.8,169.9L210.8,169.9z M217.8,122.2c-0.4-1.7-1.3-3.3-2.6-4.5C216.8,118.6,217.7,120.3,217.8,122.2
							L217.8,122.2z M216.8,125.6v0.1l0.1,1.3c-0.4-0.6-0.9-1-1.5-1.3c-0.8-0.4-2.1-3-2.8-4.7c-0.1-0.1-0.2-0.2-0.3-0.3
							c0.7-0.8,1.2-1.7,1.6-2.7C216.1,119.8,217.3,122.7,216.8,125.6L216.8,125.6z M192,127.6c-0.7-4.4,0.3-10.2,8.2-13.4
							c1.8-0.8,3.8-1.2,5.8-1.3c3.1-0.1,6.1,1.3,8,3.7l0,0c-0.2-0.1-0.4-0.1-0.5,0c-0.2,0.1-0.3,0.2-0.4,0.4
							c-2.2,8.1-17.9,10.2-21,10.5L192,127.6z M211,122.1c-3,5.4-10.6,5.9-14,5.9C201.3,127.1,207.3,125.4,211,122.1z M196.3,141.2
							c-0.1-0.2-0.3-0.4-0.6-0.4h-0.1c-0.2,0.1-1.6,0.4-2.5-1.5c-0.6-1.3-2.3-4.8-1.6-6c0.1-0.2,0.4-0.4,0.6-0.4l0.9,1.7
							c0.1,0.1,0.2,0.2,0.3,0.3l1.4,0.5c0.2,0.1,0.5,0,0.6-0.2c0.2-0.2,0.2-0.5,0-0.7c-0.8-1.3-2-3.9-1.4-4.9
							c0.1-0.1,0.3-0.5,1.2-0.5c2.4,0.2,4.8,0.1,7.2-0.3c4.6-0.9,7.9-2.9,9.7-6.1c0.7,1.4,1.8,3.6,2.9,4.1c1.2,0.8,1.9,2.1,1.9,3.5
							c0,0.2,0.1,0.4,0.3,0.6v0.9c-0.1,0.3,0.2,0.6,0.5,0.7c0.3,0,0.5-0.1,0.6-0.3c0.1-0.2,0.2-0.4,0.4-0.5c0,0,0.1,0.1,0.3,0.4
							c0.5,1,0.2,4.2-0.7,5.7c-0.1,0.2-0.4,0.6-0.8,0.6c-0.3,0-0.5,0.2-0.6,0.5l-0.4,1.9c0,0.1,0,0.2,0,0.3c0.1,0.3,0.2,0.7,0.4,1
							h-0.2c-0.2,0-0.5,0.1-0.6,0.3c-0.8,1.7-3.1,6.3-5.1,7.1c-2.7,1-5.1,1.8-6.7,0.9C200.5,148.4,197.7,145.1,196.3,141.2
							L196.3,141.2z M199.4,149.2c-0.1-0.5-0.3-1-0.5-1.4c1.4,1.4,3,2.6,4.8,3.6c2.1,1.2,5.2,0.1,7.7-0.8c2-0.7,3.9-4,5-6.1
							c0.2,2.9-0.7,5.8-2.6,8c-3,3.7-7.3,5.5-9.2,5.4C201.2,157.8,199.8,151.3,199.4,149.2L199.4,149.2z M202.7,167.2l0.1-0.5
							c0.9-1.6,0.6-3.5-0.6-4.9l-0.3-0.4c-0.4-0.5-0.6-1.1-0.6-1.8v-0.1l0,0c0.2-0.3,1.4-0.5,5.4-0.1c0.5,0.1,0.9,0.1,1.1,0.1
							c0.4,0,0.9,0,1.3,0.2c0.3,0.1,0.4,0.4,0.5,0.7c0.1,0.7,0,1.3-0.4,1.9c-0.3,0.4-0.6,0.9-1,1.2c-0.5,0.5-1,1.1-1.4,1.8
							c-0.5,1.2-0.8,2.5-0.7,3.8v2.5c-0.3-0.1-0.6-0.2-0.8-0.3c-1.1-0.5-2.2-1-3.4-1.3C202.3,169.2,202.5,168.2,202.7,167.2
							L202.7,167.2z M199.7,173c0-0.2-0.1-0.5-0.3-0.6c0,0-1.1-0.7-1.9-1.2c-0.2-0.1-0.3-0.4-0.3-0.6c0-0.2,0.3-0.2,0.5-0.3h0.2
							c2.4,0.4,4.8,1,7,2c1.2,0.5,2.4,0.9,3.7,1.2c3.3,0.8,3.6,0.4,3.8,0.2c0.6-0.8-0.2-4.1-0.7-4.6c-0.3-0.6-0.5-1.2-0.6-1.9v-0.1
							l-1-2.3c0.4-0.1,0.8-0.1,1.2,0c1.4,0.5,2.5,2.6,2.7,3.3c0.4,0.8,0.9,1.6,1.4,2.4c0.4,0.5,0.7,1,1,1.5c0.1,0.2,0.3,0.5,0.5,0.8
							c0.9,1.3,1.6,2.7,2.1,4.2c0.2,0.9,0.3,1.9,0.3,2.9c0,1.5,0.2,3,0.7,4.5c0.2,0.4,0.5,0.9,0.8,1.5c-2.5,0.3-5.7,0.7-7.7,1.1
							c-0.6-0.8-1-1.4-1-1.4c-1-0.9-2-1.8-3.2-2.6c-1.3-0.9-2.5-1.8-3.6-2.9c-0.4-0.7-0.8-1.5-1.1-2.4c-0.2-0.6-0.4-1.1-0.7-1.6
							c-0.5-0.4-1-0.8-1.7-1c-0.6-0.2-1.2-0.5-1.7-0.9C199.8,173.9,199.7,173.5,199.7,173L199.7,173z M201.9,177.2v-0.8
							c0.2,0.1,0.4,0.2,0.6,0.4c0.2,0.4,0.4,0.8,0.5,1.2c0.3,0.9,0.7,1.8,1.2,2.6c0.5,0.6,1.1,1.1,1.7,1.6c0,0.8,0,1.9-0.1,2.9
							c0,0.7,0,1.3-0.1,2l-3.7-0.1h-0.4C201.6,184,201.8,180.3,201.9,177.2L201.9,177.2z M193.3,190.5l0.8-0.6
							c0.3-0.2,0.5-0.4,0.8-0.6c0.6-0.6,1.4-1.1,2.2-1.3h3.1c-1.1,0.1-2.1,0.3-2.4,0.4c-0.1,0-0.2,0.1-0.3,0.2
							c-1.3,1.5-2.8,2.7-4.5,3.7H191C191.6,191.7,192.7,190.9,193.3,190.5L193.3,190.5z M190.3,193.4h2.8c0.1,0,0.2,0,0.3-0.1
							c1.9-1,3.5-2.3,4.9-3.9c1.4-0.3,8.1-1,10.4-1.3c0.3,0,0.6,0,0.9-0.1c0.2,0,0.4-0.2,0.5-0.4c0.1-0.2,0-0.4-0.1-0.6
							c-0.1-0.2-0.2-0.2-1.4-0.1H207c0-0.6,0-1.2,0.1-1.9s0-1.4,0.1-2l1,0.8c1.1,0.7,2.1,1.5,3,2.4c0,0,0.3,0.4,0.8,1
							c-0.2,0.1-0.4,0.1-0.5,0.2c-0.2,0.2-0.3,0.5-0.2,0.8c0,0,2.2,4.5-0.2,6.9c-1.6,1.6-4.4,2.4-8.1,2.4h-0.1
							c-0.9,0.1-1.8,0.5-2.6,0.9c-0.4,0.2-0.9,0.4-1.3,0.6c-0.6,0-1.1-0.2-1.5-0.6c-0.1-0.2-0.1-0.4,0-0.5c0.1-0.2,0.1-0.5-0.2-0.7
							c-0.2-0.2-0.5-0.2-0.7,0c-0.7,0.6-1.5,1.1-2.4,1.5c-0.4-0.3-0.6-0.6-0.8-1c-0.1-0.3-0.5-0.4-0.8-0.3c-0.3,0.1-0.6,0.2-0.8,0.1
							c-0.1,0-0.1-0.1-0.1-0.2c-0.1-0.2-0.2-0.3-0.4-0.3c-0.2,0-0.4,0-0.5,0.2c-0.1,0.2-0.5,0.5-0.7,0.4c0,0-0.1,0-0.2-0.2
							C189.3,197,189.5,195.7,190.3,193.4L190.3,193.4z M213.4,193.8c-0.5,1.4,0.4,4.4,0.9,5.1c0.3,0.7,0.6,1.3,0.8,2.1
							c0.3,0.8,0.6,1.7,0.9,2.5c0.6,1.2,1,2.5,1.4,3.8l-10.3-0.6l5.3-2.7c0.2-0.1,0.4-0.4,0.3-0.6c-0.1-0.3-0.3-0.5-0.5-0.5l-47-2.6
							l19.1-8.1c0.3-0.1,0.4-0.4,0.3-0.6c-0.1-0.3-0.3-0.5-0.6-0.5h-11.1c-0.3,0-0.6,0.2-0.6,0.6c0,0,0,0,0,0c0,0,0,0.1,0,0.1
							c0.3,1.1,0.2,2.6-0.2,2.7c-0.7,0.2-1.2-0.7-1.2-0.8l0,0c-0.2-0.2-0.5-0.3-0.7-0.2c-0.3,0.1-0.4,0.5-0.3,0.8c0,0,0,0,0,0l0,0
							c0,0.1,0,0.3,0,0.4c-0.1,0.2-0.3,0.3-0.5,0.3c-0.8,0.1-1.7-0.1-2.3-0.6c-0.2-0.2-0.5-0.2-0.7,0c-0.2,0.2-0.3,0.5-0.1,0.7
							c0,0.1,0,0.2,0,0.3c0,0.1-0.1,0.1-0.4,0.2c-0.6,0.1-1.3,0-1.9-0.2c-0.3-0.1-0.6,0-0.8,0.3c-0.4,0.2-0.9,0.3-1.3,0.2
							c-0.4-0.1-0.8-0.3-1.1-0.7c-0.5-0.6-0.9-1.4-1-2.2c0.1-0.4,0.1-0.8,0.1-1.2c0-0.3,0-0.7,0.1-1c0.2-0.2,0.4-0.4,0.6-0.6
							c0.7-0.4,1.2-1.2,1.1-2c0-0.3,0.1-0.6,0.2-0.9c0.3-0.2,0.6-0.4,1-0.5c0.4-0.1,0.9-0.4,1.2-0.7c0.2-0.2,0.3-0.4,0.4-0.7
							c0-0.2,0.1-0.4,1.3-0.8s3.4,1.9,4.8,3.8c0.1,0.1,0.2,0.2,0.4,0.2c0.2,0,0.3,0,0.4-0.1c0.1-0.1,2.5-1.9,3.4-2.8l0.6-0.6
							c2-2,4.3-4.1,4.7-5.3c0.4-0.9,1.1-1.7,1.8-2.3c0.5,2,1.2,3.9,2.1,5.8c0.7,1.4,1.2,2.8,1.7,4.3c0.2,1.7,0.3,3.3,0.3,5
							c0,0.3,0.3,0.6,0.6,0.6l0,0h2.3c-0.6,1.8-1.1,3.6-0.6,4.6c0.2,0.4,0.6,0.7,1.1,0.7c0.4,0,0.8-0.1,1.2-0.4
							c0.1,0.1,0.2,0.1,0.3,0.2c0.4,0.1,0.8,0.2,1.2,0.1c0.3,0.5,0.7,0.9,1.2,1.2c0.6,0.3,1.7-0.3,2.7-0.9c0,0.1,0.1,0.2,0.2,0.3
							c0.7,0.7,1.6,1.1,2.6,1c0.6-0.1,1.1-0.4,1.6-0.7c0.7-0.3,1.3-0.6,2.1-0.8h0.2c4,0,7.1-1,8.9-2.8c2.4-2.4,1.2-6.3,0.6-7.7h0.1
							c0.8,1.2,1.4,2.4,1.9,3.7C214,192.5,213.6,193.1,213.4,193.8L213.4,193.8z M215.3,190.9c-0.5-1-1-2-1.6-3
							c1.9-0.4,4.8-0.7,7.5-1c0.3,0.6,0.5,1.2,0.8,1.8h-0.1C219.4,188.1,216.8,189,215.3,190.9L215.3,190.9z M230.2,224.7
							c-1.8-0.1-9.4-9-9.1-14.4s-4.4-15-5-16.1c-0.1-0.7-0.2-1.3-0.4-1.9c1.2-1.5,3.2-3.1,5.8-2.4c0.3,0.1,0.6,0.2,0.9,0.3
							c0.3,0.7,0.5,1.5,0.6,2.3c0.1,1,1.6,2.1,4.2,3.8c0.2,0.5,0.5,1.1,0.8,1.6c1.2,1.7,2.6,3.3,4,4.9c-0.4,0.6-0.8,1.1-1.3,1.6
							c-1.3,1.4-3,3.4-3.3,5.4c-0.4,2.4-0.2,6.6,1.1,7.6c0.3,0.3,0.8,0.3,1.2,0.1c0.8-0.4,0.8-1.6,0.7-3.7c-0.1-3.2-0.3-8,3-9.8
							c0.8-0.3,1.4-1.1,1.5-2c0.1-2.1-3.3-4.2-6.6-6.3l-0.3-0.2c-0.9-1.9-2.3-4.7-4.8-6.1c-0.3-0.8-0.6-1.7-1-2.5l2-0.2
							c0.2,0,0.3-0.1,0.4-0.2c0.1-0.1,0.2-0.2,0.3-0.4c0,0-0.1-0.6-0.1-1.5c0.1,0.6,0.7,0.5,1,0.5c0.2,0,0.3-0.1,0.4-0.2
							c0.7-0.1,2.1-0.4,5.3-0.9c5.8-1,9.4,5,10.8,7.9c-1,1.1-1.9,2.3-2.6,3.5c-0.9,1.8-2,3.5-3.4,5c-0.7,0.6-5.3,10-4.4,16.5
							c0.2,2.3,1.6,4.4,3.6,5.4c0.7,0.3,1.5,0.5,2.3,0.4C235,223.8,231.4,224.8,230.2,224.7z M224,191.1c0.9,0.9,1.7,1.9,2.3,3
							c-1.1-0.8-2-1.5-2.1-1.8C224.2,191.9,224.1,191.5,224,191.1z M229.5,197.6c2.2,1.4,4.4,3.1,4.4,4.2c0,0.3-0.2,0.6-0.5,0.8
							c0-0.3-0.1-0.5-0.3-0.7C231.8,200.6,230.6,199.1,229.5,197.6z M229.3,213.7c0.1,0.9,0,1.7-0.1,2.6c-0.5-0.4-1.1-3.5-0.6-6.4
							c0.2-0.8,0.5-1.5,1-2.2C229.3,209.7,229.2,211.7,229.3,213.7z M236.2,221.1c-1.5-0.7-2.6-2.1-2.9-3.8
							c-1.3-5.9,3.3-15.4,3.9-16.1c0.6-0.5,1.5-1.6,3.6-5.3c0.6-1,1.3-2,2.1-2.9c0.1,0.1,0.1,0.2,0.1,0.4c0.1,0.2,0.3,0.4,0.5,0.4
							c0.2,0,0.4-0.1,0.6-0.3c0.4-0.8,0.6-1.7,0.7-2.6l1.5-1.6c1.2-1.2,2.3-2.5,3.3-3.9c0-0.1,5.1-8.8,6.7-13.1
							c0.7-1.8,3-5.1,5.1-7.8c0.2,0.1,0.4,0.1,0.6-0.1c5.8-4.8,23.3-10,26.6-9.6c2.9,0.4,9,4.9,11.9,7l1,0.8
							c2.2,1.6,7.2,16.4,7.9,19.9c0.5,2.2-0.1,9.4-0.5,13.5l-2.7,0.6c0.5-9.5,0.4-24-3.9-30.7c-2.8-4.4-9.3-6.4-19.3-6.1
							c-4.7,0.2-9.4,0.8-14.1,1.8c-0.3,0.1-0.5,0.4-0.5,0.7c0,0,0,0,0,0c0,0.2,0.2,0.4,0.5,0.5c1.5,0.3,4.3,2.5,6.3,6
							c2.8,4.9,3.4,10.7,1.5,16c-3,8.9-8.8,11.2-13,12.8c-1.3,0.4-2.5,1-3.7,1.8c-1.7,1.7-3.3,3.6-4.6,5.6
							C250.4,211.8,241.6,223.5,236.2,221.1z M305.2,196.9l-15.6,3.8l0,0c-10.5,3.6-12.7,11.4-12.8,11.8l-4.9,16.3h-16.6
							c0.9-3,1.5-6,1.6-9.1c0.1-3,0.6-6,1.4-8.9c0.2-0.6,0.5-1.2,0.8-1.8c3.5-1.5,8.9-4.6,10.2-6.5c0.3-0.4,0.3-0.9,0-1.3
							c-0.2-0.2-0.6-0.3-0.9-0.2c-1.9,0.2-7.4,3.1-10.1,7c-0.6,0.3-1.2,0.5-1.8,0.6c-1,0.2-2.8,1.6-5.1,3.6c1.9-2.3,3.7-4.7,5.3-6.8
							c1.3-1.9,2.8-3.7,4.4-5.3c1.1-0.7,2.2-1.2,3.4-1.6c4.2-1.6,10.5-4.1,13.7-13.5c2-5.6,1.4-11.8-1.6-17
							c-1.3-2.3-3.1-4.3-5.2-5.8c6-1.1,25.1-4,30.3,4.2C305.6,173,305.6,187.6,305.2,196.9L305.2,196.9z M260.8,206.9
							c2.1-2,4.5-3.6,7.2-4.6C265.8,204.1,263.4,205.7,260.8,206.9z"/>
					</g>
				</g>
			</g>
		</g>
	</g>
</g>
</svg>
