<svg xmlns="http://www.w3.org/2000/svg" viewBox="0 0 163.04 191.21"><defs><style>.cls-1{fill:#fff;}.cls-1,.cls-3{stroke:#666;stroke-linecap:round;stroke-linejoin:round;stroke-width:4px;}.cls-2{fill:#d6c5c1;}.cls-3{fill:none;}</style></defs><title>Rapports</title><g id="Layer_2" data-name="Layer 2"><g id="LanDernierR"><polyline class="cls-1" points="118.64 2 118.64 51.03 161 51.03"/><polyline class="cls-1" points="151.25 163.57 161.04 163.57 161.04 49.94 119.07 2 27.02 2 27.02 11.8"/><polyline class="cls-1" points="108.84 11.8 108.84 60.83 151.2 60.83"/><polyline class="cls-1" points="139.77 173.37 151.25 173.37 151.25 59.74 109.28 11.8 17.23 11.8 17.23 21.59"/><polyline class="cls-2" points="107.23 32.31 0 32.31 0 191.21 133.24 191.21 133.24 59.48 107.23 32.31"/><polyline class="cls-3" points="97.41 21.59 97.41 70.63 139.77 70.63"/><polygon class="cls-3" points="97.84 21.59 5.8 21.59 5.8 183.16 139.82 183.16 139.82 69.54 97.84 21.59"/><path d="M20.26,118.2H18v4.94H15.26V109.63h5A5.66,5.66,0,0,1,24,110.7a3.68,3.68,0,0,1,1.3,3,4.12,4.12,0,0,1-.6,2.3,4,4,0,0,1-1.81,1.47L25.78,123v.13h-3ZM18,115.94h2.25a2.26,2.26,0,0,0,1.62-.53,1.9,1.9,0,0,0,.58-1.47,2,2,0,0,0-.54-1.5,2.26,2.26,0,0,0-1.67-.55H18Z"/><path d="M33,123.14a2.66,2.66,0,0,1-.27-.9,3.24,3.24,0,0,1-2.53,1.09,3.57,3.57,0,0,1-2.45-.86,2.71,2.71,0,0,1-1-2.15A2.86,2.86,0,0,1,28,117.87a5.87,5.87,0,0,1,3.42-.86h1.24v-.57a1.66,1.66,0,0,0-.36-1.12,1.4,1.4,0,0,0-1.13-.42,1.58,1.58,0,0,0-1.06.33,1.1,1.1,0,0,0-.39.89H27a2.67,2.67,0,0,1,.54-1.61,3.55,3.55,0,0,1,1.52-1.17,5.58,5.58,0,0,1,2.21-.42,4.4,4.4,0,0,1,2.95.93,3.29,3.29,0,0,1,1.09,2.62v4.35a4.73,4.73,0,0,0,.4,2.17v.15Zm-2.22-1.86A2.23,2.23,0,0,0,31.9,121a1.67,1.67,0,0,0,.75-.71v-1.72h-1c-1.34,0-2.05.46-2.14,1.39v.16a1.07,1.07,0,0,0,.35.82A1.37,1.37,0,0,0,30.81,121.28Z"/><path d="M46.43,118.22a6,6,0,0,1-1,3.71,3.38,3.38,0,0,1-2.84,1.4,3.1,3.1,0,0,1-2.46-1.06V127H37.4V113.1h2.48l.1,1a3.14,3.14,0,0,1,2.54-1.17,3.4,3.4,0,0,1,2.88,1.37,6.18,6.18,0,0,1,1,3.79Zm-2.68-.2a4,4,0,0,0-.49-2.16,1.63,1.63,0,0,0-1.45-.76,1.75,1.75,0,0,0-1.73,1v4.11a1.78,1.78,0,0,0,1.75,1Q43.75,121.17,43.75,118Z"/><path d="M57.13,118.22a6,6,0,0,1-1.05,3.71,3.4,3.4,0,0,1-2.85,1.4,3.13,3.13,0,0,1-2.46-1.06V127H48.09V113.1h2.49l.09,1a3.15,3.15,0,0,1,2.54-1.17,3.42,3.42,0,0,1,2.89,1.37,6.18,6.18,0,0,1,1,3.79Zm-2.68-.2a4,4,0,0,0-.5-2.16,1.61,1.61,0,0,0-1.44-.76,1.77,1.77,0,0,0-1.74,1v4.11a1.79,1.79,0,0,0,1.76,1Q54.45,121.17,54.45,118Z"/><path d="M58.37,118a5.88,5.88,0,0,1,.58-2.66,4.2,4.2,0,0,1,1.65-1.81,4.81,4.81,0,0,1,2.51-.64,4.57,4.57,0,0,1,3.32,1.24,5,5,0,0,1,1.43,3.38l0,.69a5.23,5.23,0,0,1-1.29,3.7,5,5,0,0,1-6.92,0,5.32,5.32,0,0,1-1.3-3.79Zm2.68.19a3.75,3.75,0,0,0,.54,2.19,1.79,1.79,0,0,0,1.54.76,1.77,1.77,0,0,0,1.52-.75A4.07,4.07,0,0,0,65.2,118a3.7,3.7,0,0,0-.55-2.18,1.91,1.91,0,0,0-3.06,0A4.15,4.15,0,0,0,61.05,118.22Z"/><path d="M75.17,115.62a7.14,7.14,0,0,0-1-.08,2,2,0,0,0-2,1v6.57H69.53v-10h2.54l.07,1.2a2.48,2.48,0,0,1,2.24-1.38,2.82,2.82,0,0,1,.83.12Z"/><path d="M80.14,110.64v2.46h1.71v2H80.14v5a1.22,1.22,0,0,0,.21.8,1.08,1.08,0,0,0,.82.24,4.7,4.7,0,0,0,.79-.06v2a5.59,5.59,0,0,1-1.63.24,2.55,2.55,0,0,1-2.87-2.85v-5.41H76v-2h1.47v-2.46Z"/><path d="M88.78,120.37a.87.87,0,0,0-.48-.78,6,6,0,0,0-1.57-.5c-2.38-.5-3.58-1.52-3.58-3a2.78,2.78,0,0,1,1.11-2.24,4.52,4.52,0,0,1,2.9-.89,4.84,4.84,0,0,1,3.06.9,2.84,2.84,0,0,1,1.14,2.34H88.68a1.27,1.27,0,0,0-.37-1,1.53,1.53,0,0,0-1.16-.38,1.58,1.58,0,0,0-1.05.31,1,1,0,0,0-.37.78.82.82,0,0,0,.42.71,4.32,4.32,0,0,0,1.43.48,11.26,11.26,0,0,1,1.69.45,2.78,2.78,0,0,1,2.12,2.7,2.62,2.62,0,0,1-1.18,2.22,5.11,5.11,0,0,1-3,.85,5.3,5.3,0,0,1-2.24-.45,3.74,3.74,0,0,1-1.54-1.24,2.84,2.84,0,0,1-.55-1.69h2.54a1.39,1.39,0,0,0,.53,1.1,2.09,2.09,0,0,0,1.32.38,1.89,1.89,0,0,0,1.16-.3A.9.9,0,0,0,88.78,120.37Z"/><path d="M14.67,140.85a6.08,6.08,0,0,1,1.05-3.74,3.4,3.4,0,0,1,2.88-1.39A3.07,3.07,0,0,1,21,136.81v-5.12h2.69v14.25H21.29l-.13-1.06a3.17,3.17,0,0,1-2.58,1.25,3.4,3.4,0,0,1-2.84-1.4A6.19,6.19,0,0,1,14.67,140.85Zm2.68.2a3.93,3.93,0,0,0,.49,2.16,1.59,1.59,0,0,0,1.43.76A1.79,1.79,0,0,0,21,142.92v-4a1.76,1.76,0,0,0-1.73-1C18,137.9,17.35,139,17.35,141.05Z"/><path d="M30.41,146.13a4.89,4.89,0,0,1-3.59-1.36,4.78,4.78,0,0,1-1.39-3.61v-.25A6.09,6.09,0,0,1,26,138.2a4.36,4.36,0,0,1,1.66-1.84,4.63,4.63,0,0,1,2.44-.64,4.16,4.16,0,0,1,3.25,1.3,5.3,5.3,0,0,1,1.18,3.68v1.1H28.15a2.47,2.47,0,0,0,.78,1.57,2.37,2.37,0,0,0,1.66.6A2.89,2.89,0,0,0,33,142.84l1.32,1.48a4.08,4.08,0,0,1-1.64,1.33A5.29,5.29,0,0,1,30.41,146.13Zm-.31-8.25a1.67,1.67,0,0,0-1.29.54,2.87,2.87,0,0,0-.64,1.55H31.9v-.22a2,2,0,0,0-.48-1.38A1.72,1.72,0,0,0,30.1,137.88Z"/><path d="M43.62,145.94H40.93V131.69h2.69Z"/><path d="M46.6,136.58l-1.26-.73a4.91,4.91,0,0,0,.82-2.59v-1.57H48.3v1.44a4.24,4.24,0,0,1-.47,1.81A5,5,0,0,1,46.6,136.58Z"/><path d="M55.54,145.94a3.2,3.2,0,0,1-.27-.9,3.22,3.22,0,0,1-2.53,1.09,3.55,3.55,0,0,1-2.44-.86,2.71,2.71,0,0,1-1-2.15,2.84,2.84,0,0,1,1.18-2.45,5.87,5.87,0,0,1,3.42-.86h1.23v-.57a1.71,1.71,0,0,0-.35-1.12,1.41,1.41,0,0,0-1.13-.42,1.56,1.56,0,0,0-1.06.33,1.1,1.1,0,0,0-.39.89H49.55a2.67,2.67,0,0,1,.54-1.61,3.49,3.49,0,0,1,1.52-1.17,5.55,5.55,0,0,1,2.21-.42,4.37,4.37,0,0,1,2.94.93,3.26,3.26,0,0,1,1.09,2.62v4.35a4.87,4.87,0,0,0,.4,2.17v.15Zm-2.21-1.86a2.26,2.26,0,0,0,1.09-.27,1.7,1.7,0,0,0,.74-.71v-1.72h-1c-1.34,0-2.06.46-2.14,1.39v.16a1.07,1.07,0,0,0,.35.82A1.37,1.37,0,0,0,53.33,144.08Z"/><path d="M62.38,135.9l.08,1.16a3.53,3.53,0,0,1,2.89-1.34,2.89,2.89,0,0,1,2.37.94,4.33,4.33,0,0,1,.8,2.8v6.48H65.84v-6.42a1.74,1.74,0,0,0-.37-1.24,1.69,1.69,0,0,0-1.23-.38,1.85,1.85,0,0,0-1.7,1v7.08H59.86v-10Z"/><path d="M14.67,163.65a6.06,6.06,0,0,1,1.05-3.74,3.4,3.4,0,0,1,2.88-1.39A3.07,3.07,0,0,1,21,159.61v-5.12h2.69v14.25H21.29l-.13-1.06a3.17,3.17,0,0,1-2.58,1.25,3.4,3.4,0,0,1-2.84-1.4A6.19,6.19,0,0,1,14.67,163.65Zm2.68.2a3.93,3.93,0,0,0,.49,2.16,1.59,1.59,0,0,0,1.43.76A1.79,1.79,0,0,0,21,165.72v-4a1.76,1.76,0,0,0-1.73-1.05C18,160.7,17.35,161.75,17.35,163.85Z"/><path d="M30.41,168.93a4.89,4.89,0,0,1-3.59-1.36A4.78,4.78,0,0,1,25.43,164v-.26A6.08,6.08,0,0,1,26,161a4.36,4.36,0,0,1,1.66-1.84,4.63,4.63,0,0,1,2.44-.64,4.16,4.16,0,0,1,3.25,1.3,5.3,5.3,0,0,1,1.18,3.68v1.1H28.15a2.47,2.47,0,0,0,.78,1.57,2.37,2.37,0,0,0,1.66.6A2.89,2.89,0,0,0,33,165.64l1.32,1.48a4.08,4.08,0,0,1-1.64,1.33A5.29,5.29,0,0,1,30.41,168.93Zm-.31-8.25a1.67,1.67,0,0,0-1.29.54,2.87,2.87,0,0,0-.64,1.55H31.9v-.22a2,2,0,0,0-.48-1.38A1.72,1.72,0,0,0,30.1,160.68Z"/><path d="M41.7,161.22a7.27,7.27,0,0,0-1-.08,2,2,0,0,0-2,1v6.57H36.06v-10h2.53l.08,1.2a2.48,2.48,0,0,1,2.23-1.38,2.84,2.84,0,0,1,.84.12Z"/><path d="M45.46,158.7l.08,1.16a3.53,3.53,0,0,1,2.89-1.34,2.89,2.89,0,0,1,2.37.94,4.33,4.33,0,0,1,.8,2.8v6.48H48.92v-6.42a1.74,1.74,0,0,0-.37-1.24,1.7,1.7,0,0,0-1.24-.38,1.83,1.83,0,0,0-1.69,1v7.08H42.94v-10Z"/><path d="M53.61,156.11a1.33,1.33,0,0,1,.41-1,1.73,1.73,0,0,1,2.19,0,1.42,1.42,0,0,1,0,2,1.53,1.53,0,0,1-1.09.39,1.5,1.5,0,0,1-1.09-.39A1.3,1.3,0,0,1,53.61,156.11Zm2.85,12.63H53.77v-10h2.69Z"/><path d="M63.29,168.93a4.93,4.93,0,0,1-3.6-1.36A4.81,4.81,0,0,1,58.31,164v-.26a6.08,6.08,0,0,1,.58-2.7,4.3,4.3,0,0,1,1.66-1.84,4.63,4.63,0,0,1,2.44-.64,4.16,4.16,0,0,1,3.25,1.3,5.3,5.3,0,0,1,1.18,3.68v1.1H61a2.42,2.42,0,0,0,.78,1.57,2.37,2.37,0,0,0,1.66.6,2.89,2.89,0,0,0,2.42-1.13l1.31,1.48a4,4,0,0,1-1.63,1.33A5.32,5.32,0,0,1,63.29,168.93ZM63,160.68a1.67,1.67,0,0,0-1.29.54,2.87,2.87,0,0,0-.64,1.55h3.73v-.22a2,2,0,0,0-.48-1.38A1.72,1.72,0,0,0,63,160.68Z"/><path d="M74.58,161.22a7.27,7.27,0,0,0-1-.08,2,2,0,0,0-2,1v6.57H68.94v-10h2.53l.08,1.2a2.47,2.47,0,0,1,2.23-1.38,2.84,2.84,0,0,1,.84.12Z"/></g></g></svg>