<?xml version="1.0" encoding="utf-8"?>
<!-- Generator: Adobe Illustrator 24.2.0, SVG Export Plug-In . SVG Version: 6.00 Build 0)  -->
<svg version="1.1" id="Layer_1" xmlns="http://www.w3.org/2000/svg" xmlns:xlink="http://www.w3.org/1999/xlink" x="0px" y="0px"
	 viewBox="0 0 50.5 49.8" style="enable-background:new 0 0 50.5 49.8;" xml:space="preserve">
<style type="text/css">
	.st0{opacity:0.6;}
	.st1{fill:none;stroke:#666666;stroke-miterlimit:10;}
	.st2{fill:#E6CFC4;}
	.st3{fill:none;stroke:#666666;stroke-width:2;stroke-miterlimit:10;}
	.st4{fill:#FFFFFF;}
	.st5{fill:#666666;}
</style>
<g class="st0">
	<path class="st1" d="M42.7,40.6L42.7,40.6c9.1-9.1,9.1-23.7,0-32.8S19-1.2,9.9,7.8c-9.1,9.1-9.1,23.7,0,32.8
		c9,9.1,23.6,9.1,32.7,0.1C42.7,40.7,42.7,40.7,42.7,40.6z"/>
</g>
<path class="st2" d="M39.6,43L39.6,43c9.1-9.1,9.1-23.7,0-32.8s-23.7-9.1-32.8,0C-2.2,19.3-2.2,34,6.8,43c9,9.1,23.6,9.1,32.7,0.1
	C39.6,43.1,39.6,43.1,39.6,43z"/>
<path class="st3" d="M42.7,40.6L42.7,40.6c9.1-9.1,9.1-23.7,0-32.8S19-1.2,9.9,7.8c-9.1,9.1-9.1,23.7,0,32.8
	c9,9.1,23.6,9.1,32.7,0.1C42.7,40.7,42.7,40.7,42.7,40.6z"/>
<path class="st4" d="M16.3,11.3h10.2c5.9,0,10.7,4.8,10.7,10.7c0,0,0,0,0,0v14.8l0,0H16.3l0,0V11.3L16.3,11.3z"/>
<g>
	<path class="st5" d="M31,12.9l5,5.2V36H17.5V12.9H31 M31.8,10.9H15.5V38H38V17.3L31.8,10.9L31.8,10.9z"/>
</g>
<line class="st3" x1="19.4" y1="22.4" x2="34.1" y2="22.4"/>
<line class="st3" x1="19.4" y1="16.1" x2="24.8" y2="16.1"/>
<line class="st3" x1="19.4" y1="27.6" x2="34.1" y2="27.6"/>
<line class="st3" x1="19.4" y1="32.7" x2="34.1" y2="32.7"/>
<g>
	<g>
		<path class="st5" d="M32,14l2.8,2.9H32V14 M31.8,10.9H30v8H38v-1.6L31.8,10.9L31.8,10.9z"/>
	</g>
</g>
</svg>
