<svg xmlns="http://www.w3.org/2000/svg" viewBox="0 0 500 215"><title>SuccessPaper</title><g id="Layer_2" data-name="Layer 2"><g id="Layer_1-2" data-name="Layer 1"><path d="M500,215c-.83-.77-1.65-1.57-2.48-2.44s.3-1.36-.34-2.88A2.31,2.31,0,0,1,497,209a2.05,2.05,0,0,1,.18-1,.25.25,0,0,1,0-.09,1.79,1.79,0,0,1,.59-.74.74.74,0,0,0,.4-.36.69.69,0,0,0,.07-.19,2.68,2.68,0,0,0,0-.41,11,11,0,0,0-.11-1.77,2.21,2.21,0,0,0-.52-1.2c-.18-.21-.47-.28-.59-.83a13.75,13.75,0,0,1-.16-1.9c0-.64-.07-1.28-.14-1.87-.05-.34-.27-1.71-.4-1.66.92-.4,2.56-.64,2-1.26a17.82,17.82,0,0,1-3.34-8.07,20.59,20.59,0,0,1-.08-2.49c.08-1.62,1-2.67.66-4.64-.1-.62-.27-.59-.41-1a6.08,6.08,0,0,1-.11-2.05c.09-1.21.26-2.08.6-2.34a1.41,1.41,0,0,0,.78-1.16,2,2,0,0,0,.06-.56c0-.32-.14-.4-.23-.41s-1,.33-.65-1.05c.08-.32.19-.51.28-.8.54-1.84-.46-2.42-.71-3a3.92,3.92,0,0,1-.17-1.36,6.81,6.81,0,0,1,.18-1.39,4.5,4.5,0,0,1,1-1.86,3.67,3.67,0,0,0,1.21-2.7,6.77,6.77,0,0,0-.48-2.48,5,5,0,0,1-.44-1.73,7.65,7.65,0,0,1,0-1,19.14,19.14,0,0,1,.56-4.48c.2-.36.5-.37.72-.58a4.42,4.42,0,0,0,.66-.78.52.52,0,0,0,.09-.21,1.83,1.83,0,0,0,0-.34,2.5,2.5,0,0,0-.5-1.84c-.11-.1-.44,0-.51-.38-.18-.91,1.61-1.9,1.63-2.44,0-.94,0-1.89,0-2.83a4.4,4.4,0,0,0-.15-1.3,5.55,5.55,0,0,0-1.14-.14c-.29-.09-.84.23-1.09-.36.36-1.09,2.46-.44,2.37-2.11-.06-1.18-1.27-.78-1.54-.87l-1-.38c-.15-.06-.92,0-1-.37-.27-1.37,1.4-3,1.58-3.16.94-1,0-1.87.91-2.91.29-.33,1.07-.37,1.22-1a11.13,11.13,0,0,0-.15-3.57,7.53,7.53,0,0,0-1.71-3.4,3.84,3.84,0,0,1-1.12-2.9c0-1.16,1.54-2.14,1.28-3.19a.23.23,0,0,0-.06.12c-1.06-2.53-.39-5.27-1.25-7.53.92-.41,2.56-.65,2-1.27a28.53,28.53,0,0,1-3.54-8.62c-.47-2.7,1.89-5.16.26-8,.09-.36-.75-.7-.64-1a21.23,21.23,0,0,1,1.08-2.76c.14-.29,1-1.39.94-2.12,0-.15-.07-.2-.12-.23-.47-.3-1.17,1-1.49-1a11.54,11.54,0,0,1-.08-1.69c0-.65,0-1.29,0-1.93,0-3,.73-3.61,1.38-4.6a6.54,6.54,0,0,0,1.56-3c-.64.14-1.68,1.39-2.09-1-.14-.87-.32-1.61-.5-2.4a8.53,8.53,0,0,1,0-4.91,3.12,3.12,0,0,1,1-1.34c.16-.15.47-.17.56-.77a5.74,5.74,0,0,0-.17-2c-.08-.28-.85-1.36-.85-1.47s.13-.16.15-.18.19.06.25-.09a7.4,7.4,0,0,0,.14-1.36c0-.34.11-.62.16-.94a4,4,0,0,0,0-1c-.05-.4-.2-.6-.23-1s0-.59,0-.88a1.9,1.9,0,0,0-.17-.76c-.33-.69-.76.19-1.07-.54.33-1,1.56,0,1.05-2.66-.1-.55-.28-.8-.39-1.31a11.79,11.79,0,0,1-.14-1.85,15,15,0,0,1,.42-3.71,8.44,8.44,0,0,0,.69-3.13,8.17,8.17,0,0,0-.5-2.58,7,7,0,0,1-.43-3.1,7.28,7.28,0,0,1,.46-1.93c.15-.48.23-1.22.38-1.72a3.37,3.37,0,0,0,.24-1.87.29.29,0,0,0-.07.12c-1.06-2.52.57-5.26-.29-7.53.92-.4,1.61-.64,1-1.26a20.35,20.35,0,0,1-2.41-10.7c.09-1.28.5-1.81.63-3.06a5.17,5.17,0,0,0-.23-2.19c-.12-.44-.21-.28-.17-1a2.46,2.46,0,0,1,.34-1A3.17,3.17,0,0,0,496,.05c-.08-.07-.2,0-.3,0H0C.83.77,1.65,1.57,2.48,2.44s-.3,1.36.34,2.88A2.31,2.31,0,0,1,3,6a2.05,2.05,0,0,1-.18,1,.25.25,0,0,1,0,.09,1.79,1.79,0,0,1-.59.74.74.74,0,0,0-.4.36.69.69,0,0,0-.07.19,2.68,2.68,0,0,0,0,.41,11,11,0,0,0,.11,1.77,2.21,2.21,0,0,0,.52,1.2c.18.21.47.28.59.83a13.62,13.62,0,0,1,.16,1.9c0,.63.07,1.28.14,1.87.05.34.27,1.71.4,1.66-.92.4-2.56.64-2,1.26a17.82,17.82,0,0,1,3.34,8.07A20.59,20.59,0,0,1,5,29.83c-.08,1.62-1,2.67-.66,4.64.1.62.27.59.41,1a6.08,6.08,0,0,1,.11,2c-.09,1.21-.26,2.08-.6,2.34A1.41,1.41,0,0,0,3.48,41a2,2,0,0,0-.06.56c0,.32.14.4.23.41s1-.33.65,1.05c-.08.32-.19.51-.28.8-.54,1.84.46,2.42.71,3a3.92,3.92,0,0,1,.17,1.36,6.81,6.81,0,0,1-.18,1.39,4.5,4.5,0,0,1-1,1.86,3.67,3.67,0,0,0-1.21,2.7A6.77,6.77,0,0,0,3,56.58a5,5,0,0,1,.44,1.73c0,.32,0,.65,0,1a19.14,19.14,0,0,1-.56,4.48c-.2.36-.5.37-.72.58a4.42,4.42,0,0,0-.66.78.52.52,0,0,0-.09.21,1.83,1.83,0,0,0,0,.34,2.5,2.5,0,0,0,.5,1.84c.11.1.44,0,.51.38.18.91-1.61,1.9-1.63,2.44,0,.94,0,1.89,0,2.83a4.09,4.09,0,0,0,.15,1.3A5.55,5.55,0,0,0,2,74.59c.29.09.84-.23,1.09.36C2.73,76,.63,75.39.72,77.06c.06,1.18,1.27.78,1.54.87l1,.38c.15.06.92,0,1,.37.27,1.37-1.4,3-1.58,3.16-.94,1,0,1.87-.91,2.91-.29.33-1.07.37-1.22,1a11.13,11.13,0,0,0,.15,3.57,7.53,7.53,0,0,0,1.71,3.4,3.84,3.84,0,0,1,1.12,2.9c0,1.16-1.54,2.14-1.28,3.19a.23.23,0,0,0,.06-.12c1.06,2.53.39,5.27,1.25,7.53-.92.41-2.56.65-2,1.27a28.53,28.53,0,0,1,3.54,8.62c.47,2.7-1.89,5.16-.26,8-.09.36.75.7.64,1a21.23,21.23,0,0,1-1.08,2.76c-.14.29-1,1.39-.94,2.12,0,.15.07.2.12.23.47.3,1.17-1,1.49,1a11.54,11.54,0,0,1,.08,1.69c0,.65,0,1.29,0,1.93,0,3-.73,3.61-1.38,4.6a6.54,6.54,0,0,0-1.56,3c.64-.14,1.68-1.39,2.09,1,.14.87.32,1.61.5,2.4a8.53,8.53,0,0,1,0,4.91,3.12,3.12,0,0,1-1,1.34c-.16.15-.47.17-.56.77a5.74,5.74,0,0,0,.17,2c.08.28.85,1.36.85,1.47s-.13.16-.15.18-.19-.06-.25.09A7.4,7.4,0,0,0,3.76,158c0,.34-.11.62-.16.94a4,4,0,0,0,0,1c0,.4.2.6.23,1s0,.59,0,.88a1.9,1.9,0,0,0,.17.76c.33.69.76-.19,1.07.54-.33.95-1.56,0-1,2.66.1.55.28.8.39,1.31A11.79,11.79,0,0,1,4.49,169a15,15,0,0,1-.42,3.71,8.44,8.44,0,0,0-.69,3.13,8.17,8.17,0,0,0,.5,2.58,7,7,0,0,1,.43,3.1,7.28,7.28,0,0,1-.46,1.93c-.15.48-.23,1.22-.38,1.72A3.37,3.37,0,0,0,3.23,187a.29.29,0,0,0,.07-.12c1.06,2.52-.57,5.26.29,7.53-.92.4-1.61.64-1,1.26A20.35,20.35,0,0,1,5,206.38c-.09,1.28-.5,1.81-.63,3.06a5.17,5.17,0,0,0,.23,2.19c.12.44.21.28.17,1a2.36,2.36,0,0,1-.34,1A3.28,3.28,0,0,0,4,215a.5.5,0,0,0,.3.05H500Z" fill="#6b3e43"/></g></g></svg>