<?xml version="1.0" encoding="utf-8"?>
<!-- Generator: Adobe Illustrator 24.2.0, SVG Export Plug-In . SVG Version: 6.00 Build 0)  -->
<svg version="1.1" id="Calque_1" xmlns="http://www.w3.org/2000/svg" xmlns:xlink="http://www.w3.org/1999/xlink" x="0px" y="0px"
	 viewBox="0 0 50.9 50.2" style="enable-background:new 0 0 50.9 50.2;" xml:space="preserve">
<style type="text/css">
	.st0{opacity:0.85;fill:#DCDCDC;enable-background:new    ;}
	.st1{fill:none;stroke:#666666;stroke-width:2;stroke-miterlimit:10;}
	.st2{fill:#FFFFFF;}
	.st3{fill:#666666;}
</style>
<path class="st0" d="M46.4,27C46.4,14.2,36,3.8,23.2,3.8C10.4,3.8,0,14.2,0,27c0,12.8,10.4,23.2,23.2,23.2l0,0
	C36,50.2,46.4,39.8,46.4,27C46.4,27,46.4,27,46.4,27z"/>
<path class="st1" d="M49.9,24.2C49.9,11.4,39.5,1,26.7,1S3.5,11.4,3.5,24.2c0,12.8,10.4,23.2,23.2,23.2l0,0l0,0
	C39.5,47.4,49.9,37,49.9,24.2C49.9,24.2,49.9,24.2,49.9,24.2L49.9,24.2L49.9,24.2z"/>
<g>
	<path class="st2" d="M23.4,11.3c1.6-0.3,3.2-0.4,4.8,0c3,0.7,5.5,3,6.4,5.9c0.3,1,0.4,2,0.4,3c0,0.9-0.1,1.8-0.4,2.7
		C34.2,24,33.4,25,32.8,26c-1.6,2.3-3,4.8-3.3,7.6c-2.3,0.3-4.6,0.4-7,0.3c-0.4-2.7-1.5-5.3-3.1-7.5c-0.5-0.6-1-1.2-1.3-1.9
		c-0.4-0.8-0.6-1.6-0.7-2.5c-0.3-1.7-0.4-3.4,0-5.1c0.4-1.7,1.3-3.3,2.7-4.3C20.9,11.9,22.2,11.5,23.4,11.3z"/>
	<path class="st3" d="M35.8,18c-0.7-3.5-2.8-6-6.5-7.1c-3.7-1.1-7.2-0.6-10.1,1.7c-3.4,2.7-3.9,6.3-3,10.1c0.4,1.6,1.4,3,2.5,4.3
		c1.4,1.7,2.4,3.5,2.4,5.6c0,0.3,0.1,0.5,0.2,0.7c-0.9,0-1.6,0.8-1.6,1.7c0,0.5,0.2,0.9,0.6,1.2c-0.1,0.2-0.2,0.5-0.2,0.8
		c0,0.9,0.7,1.7,1.6,1.7c0.2,0.6,0.6,1.1,1.1,1.1h0c0.1,0.6,0.5,1.1,0.8,1.1h4.6c0.4,0,0.7-0.5,0.8-1.1c0.4-0.1,0.8-0.5,0.9-1.1h0.1
		c0.9,0,1.6-0.8,1.6-1.7c0-0.3-0.1-0.7-0.3-0.9c0.3-0.3,0.4-0.7,0.4-1.1c0-0.8-0.6-1.5-1.4-1.7c0.2-0.2,0.2-0.5,0.2-0.9
		c0-1.1,0.2-2.1,0.7-3.1c0.7-1.1,1.5-2.1,2.3-3.2c0.6-0.9,1.2-1.8,1.7-2.8C36.1,21.7,36.2,19.8,35.8,18z M31.8,26
		c-1.3,1.4-2.3,3-2.6,4.8c-0.1,0.6-0.1,1.1-0.2,1.7c-0.6,0-1.3,0-1.9,0c0-0.1,0.1-0.2,0.1-0.3v-4.4l1.8-1.3c0.2-0.1,0.1-0.5-0.1-0.8
		c0,0-0.1-0.1-0.1-0.1c0,0,0-0.1-0.1-0.1c-0.1-0.1-0.1-0.1-0.2-0.1c0,0,0,0,0,0l0,0c0,0,0,0,0,0l-3.1-1.3l2.7-1.4
		c0.2,0,0.5-0.1,0.6-0.4c0.2-0.3,0.2-0.8-0.1-0.9l-3.3-2.1c-0.3-0.2-0.7-0.1-0.9,0.3C24,20,24,20.4,24.3,20.6l2.1,1.3l-3.2,1.6
		c-0.3,0.1-0.4,0.4-0.4,0.6c0,0,0,0,0,0c0,0.1,0,0.1,0,0.1c0,0,0,0.1,0,0.1c0,0,0,0,0,0c0,0,0,0,0,0.1c0.1,0.1,0.2,0.3,0.4,0.3
		l3.5,1.4l-1,0.7c-0.1,0.1-0.1,0.2-0.1,0.4c0,0,0,0.1,0,0.1v4.8c0,0.1,0,0.2,0.1,0.3c-0.9,0-1.9,0-2.8,0c0-0.5-0.1-0.9-0.1-1.4
		c-0.2-1.6-1-3.1-2-4.4c-0.9-1.1-1.9-2.2-2.4-3.5c-1.4-3.1-1.1-6.2,1.3-8.9c2.1-2.4,6.4-3.3,9.7-2c3.2,1.2,4.7,3.5,5.1,6.5
		C34.6,21.6,33.6,23.9,31.8,26z"/>
	<g>
		<path class="st3" d="M25.9,12.3L25.9,12.3c0.1,0,0.2,0,0.3,0c0.8,0,2.6,0.1,4.4,1.3c1.5,1,2.3,2.3,2.6,2.8c0.4,0.7,1,2.3,0.8,4.2
			c-0.2,1.4-0.7,2.4-0.9,2.8c-0.3,0.6-0.8,1.2-1.8,2.6c-0.4,0.5-0.7,0.9-0.9,1.2c-0.4,0.5-0.6,0.8-0.9,1.4c-0.8,1.6-0.9,3.2-0.9,3.8
			c0,0.1,0,0.2,0,0.2l-2.7,0l-2.7,0c0-1.3-0.3-2.4-0.7-3.5c-0.4-0.9-0.8-1.4-1.3-2.1c-0.3-0.4-0.7-0.9-1.3-1.8
			c-1-1.5-1.6-2.4-1.9-3.6c-0.4-1.6-0.2-3-0.1-3.5c0.1-0.5,0.6-2.2,2-3.6c0.4-0.4,1.2-1.1,2.4-1.6C22.8,12.8,24.1,12.3,25.9,12.3
			 M25.9,10.3c-2.3,0-3.9,0.7-4.2,0.8c-1.7,0.7-2.7,1.7-3,2c-1.9,1.9-2.5,4.1-2.6,4.6c-0.1,0.4-0.5,2.2,0.1,4.4
			c0.4,1.5,1.1,2.5,2.1,4.2c1.5,2.2,1.9,2.3,2.4,3.6c0.4,1,0.8,2.6,0.4,4.8c3.2,0,6.4-0.1,9.7-0.1c-0.1-0.5-0.2-1.2-0.1-2.1
			c0-0.6,0.1-1.8,0.7-3.1c0.3-0.6,0.4-0.6,1.6-2.2c1-1.4,1.5-2.1,1.9-2.8c0.3-0.5,0.9-1.8,1.1-3.5c0.3-2.6-0.6-4.6-1-5.3
			c-0.3-0.5-1.2-2.2-3.3-3.6c-2.2-1.5-4.4-1.6-5.4-1.6C26.1,10.3,26,10.3,25.9,10.3L25.9,10.3z"/>
	</g>
</g>
</svg>
