<svg xmlns="http://www.w3.org/2000/svg" viewBox="0 0 141.82 171.61"><defs><style>.cls-1{fill:#608a93;opacity:0.4;}.cls-2{fill:none;stroke:#666;stroke-linecap:round;stroke-linejoin:round;stroke-width:4px;}</style></defs><title>WP</title><g id="Layer_2" data-name="Layer 2"><g id="LY_WP"><rect id="Rectangle_5194" data-name="Rectangle 5194" class="cls-1" y="12.72" width="133.24" height="158.89"/><polyline class="cls-2" points="97.41 2 97.41 51.03 139.77 51.03"/><polygon class="cls-2" points="97.84 2 5.8 2 5.8 163.57 139.82 163.57 139.82 49.94 97.84 2"/><path d="M20.45,101.49h5.91v2.23H17.67V90.21h2.78Z"/><path d="M33.6,103.72a3.2,3.2,0,0,1-.27-.9,3.22,3.22,0,0,1-2.53,1.09,3.57,3.57,0,0,1-2.45-.86,2.76,2.76,0,0,1-1-2.15,2.85,2.85,0,0,1,1.19-2.45A5.83,5.83,0,0,1,32,97.59h1.24V97a1.65,1.65,0,0,0-.36-1.11,1.4,1.4,0,0,0-1.13-.42,1.58,1.58,0,0,0-1.06.33,1.11,1.11,0,0,0-.38.89H27.61a2.78,2.78,0,0,1,.53-1.62,3.58,3.58,0,0,1,1.53-1.16,5.53,5.53,0,0,1,2.2-.42,4.4,4.4,0,0,1,2.95.93,3.26,3.26,0,0,1,1.09,2.62v4.35a4.82,4.82,0,0,0,.4,2.16v.16Zm-2.22-1.86a2.3,2.3,0,0,0,1.1-.27,1.7,1.7,0,0,0,.74-.71V99.16h-1c-1.35,0-2.06.46-2.15,1.39v.16a1,1,0,0,0,.36.82A1.33,1.33,0,0,0,31.38,101.86Z"/><path d="M43.41,101a.88.88,0,0,0-.49-.78,5.69,5.69,0,0,0-1.56-.5q-3.59-.75-3.59-3a2.76,2.76,0,0,1,1.11-2.23,4.52,4.52,0,0,1,2.9-.89,4.82,4.82,0,0,1,3.06.9A2.84,2.84,0,0,1,46,96.74H43.3a1.27,1.27,0,0,0-.37-.95,1.53,1.53,0,0,0-1.16-.38,1.58,1.58,0,0,0-1.05.31,1,1,0,0,0-.37.78.81.81,0,0,0,.43.71,4.25,4.25,0,0,0,1.42.48,10.94,10.94,0,0,1,1.69.45,2.78,2.78,0,0,1,2.12,2.7,2.62,2.62,0,0,1-1.18,2.22,5.11,5.11,0,0,1-3,.85,5.3,5.3,0,0,1-2.24-.45A3.71,3.71,0,0,1,38,102.22a2.79,2.79,0,0,1-.56-1.69H40a1.43,1.43,0,0,0,.53,1.1,2.13,2.13,0,0,0,1.32.37,1.89,1.89,0,0,0,1.16-.29A.91.91,0,0,0,43.41,101Z"/><path d="M51,91.22v2.46h1.71v2H51v5a1.22,1.22,0,0,0,.21.8,1.08,1.08,0,0,0,.82.24,3.81,3.81,0,0,0,.79-.07v2a5.59,5.59,0,0,1-1.63.24,2.55,2.55,0,0,1-2.87-2.85V95.65H46.8v-2h1.47V91.22Z"/><path d="M21.24,122.73l1.86-6.25H26l-4,11.6-.23.53a3.05,3.05,0,0,1-3,2,4.14,4.14,0,0,1-1.19-.18v-2H18a2.13,2.13,0,0,0,1.13-.24,1.5,1.5,0,0,0,.59-.76l.32-.83-3.52-10.07h2.89Z"/><path d="M31.53,126.71a4.89,4.89,0,0,1-3.59-1.36,4.78,4.78,0,0,1-1.39-3.61v-.26a6,6,0,0,1,.58-2.7,4.3,4.3,0,0,1,1.66-1.84,4.63,4.63,0,0,1,2.44-.64,4.16,4.16,0,0,1,3.25,1.3,5.3,5.3,0,0,1,1.18,3.68v1.1H29.27a2.42,2.42,0,0,0,.78,1.57,2.36,2.36,0,0,0,1.66.59,2.89,2.89,0,0,0,2.42-1.12l1.32,1.48a4.08,4.08,0,0,1-1.64,1.33A5.29,5.29,0,0,1,31.53,126.71Zm-.31-8.25a1.67,1.67,0,0,0-1.29.54,2.87,2.87,0,0,0-.64,1.55H33v-.22a2,2,0,0,0-.48-1.38A1.72,1.72,0,0,0,31.22,118.46Z"/><path d="M43,126.52a2.66,2.66,0,0,1-.27-.9,3.24,3.24,0,0,1-2.53,1.09,3.57,3.57,0,0,1-2.45-.86,2.72,2.72,0,0,1-1-2.15A2.86,2.86,0,0,1,38,121.25a5.87,5.87,0,0,1,3.42-.86h1.24v-.58a1.65,1.65,0,0,0-.36-1.11,1.4,1.4,0,0,0-1.13-.42,1.58,1.58,0,0,0-1.06.33,1.08,1.08,0,0,0-.38.89H37a2.72,2.72,0,0,1,.54-1.62,3.61,3.61,0,0,1,1.52-1.16,5.62,5.62,0,0,1,2.21-.42,4.4,4.4,0,0,1,2.95.93,3.29,3.29,0,0,1,1.09,2.62v4.35a4.69,4.69,0,0,0,.4,2.16v.16Zm-2.22-1.86a2.23,2.23,0,0,0,1.09-.27,1.67,1.67,0,0,0,.75-.71V122h-1c-1.34,0-2,.46-2.14,1.39v.16a1,1,0,0,0,.36.82A1.33,1.33,0,0,0,40.78,124.66Z"/><path d="M53,119a7.41,7.41,0,0,0-1-.08,2,2,0,0,0-2,1v6.57H47.37v-10H49.9l.07,1.2a2.5,2.5,0,0,1,2.24-1.38,2.78,2.78,0,0,1,.83.12Z"/><path d="M55.22,117.16,54,116.43a4.92,4.92,0,0,0,.83-2.59v-1.57h2.13v1.44a4.21,4.21,0,0,1-.46,1.81A5.05,5.05,0,0,1,55.22,117.16Z"/><path d="M62.09,123.75a.86.86,0,0,0-.49-.78,5.46,5.46,0,0,0-1.56-.5q-3.59-.75-3.58-3a2.76,2.76,0,0,1,1.11-2.23,4.5,4.5,0,0,1,2.9-.89,4.79,4.79,0,0,1,3.05.9,2.83,2.83,0,0,1,1.15,2.34H62a1.34,1.34,0,0,0-.37-1,2,2,0,0,0-2.21-.06.94.94,0,0,0-.37.77.82.82,0,0,0,.42.72,4.33,4.33,0,0,0,1.42.48,10.94,10.94,0,0,1,1.69.45,2.78,2.78,0,0,1,2.13,2.7,2.64,2.64,0,0,1-1.18,2.22,5.13,5.13,0,0,1-3,.85,5.35,5.35,0,0,1-2.25-.45A3.71,3.71,0,0,1,56.7,125a2.85,2.85,0,0,1-.56-1.69h2.55a1.38,1.38,0,0,0,.52,1.09,2.07,2.07,0,0,0,1.32.38,2,2,0,0,0,1.17-.29A.9.9,0,0,0,62.09,123.75Z"/><path d="M28.19,145.42,30,135.81h2.77l-3,13.51H27l-2.19-9-2.2,9h-2.8l-3-13.51h2.77l1.83,9.6,2.23-9.6H26Z"/><path d="M33.4,144.21a6,6,0,0,1,.58-2.66,4.22,4.22,0,0,1,1.66-1.81,4.78,4.78,0,0,1,2.51-.64,4.54,4.54,0,0,1,3.31,1.24,5,5,0,0,1,1.44,3.38v.68a5.25,5.25,0,0,1-1.29,3.71,4.48,4.48,0,0,1-3.46,1.4,4.53,4.53,0,0,1-3.46-1.39,5.36,5.36,0,0,1-1.3-3.79Zm2.69.19a3.77,3.77,0,0,0,.53,2.19,2,2,0,0,0,3.07,0,4.16,4.16,0,0,0,.54-2.39,3.75,3.75,0,0,0-.54-2.18,1.8,1.8,0,0,0-1.54-.77,1.74,1.74,0,0,0-1.53.77A4.16,4.16,0,0,0,36.09,144.4Z"/><path d="M50.21,141.8a7.41,7.41,0,0,0-1-.08,2,2,0,0,0-2,1v6.57H44.57v-10H47.1l.07,1.2a2.5,2.5,0,0,1,2.24-1.38,2.82,2.82,0,0,1,.83.12Z"/><path d="M55.14,145.29l-1,1v3.06H51.5V135.07h2.68V143l.52-.67,2.57-3h3.21l-3.62,4.19,3.94,5.85H57.72Z"/><path d="M69.34,144.56v4.76H66.55V135.81h5.27a6.11,6.11,0,0,1,2.68.56A4.15,4.15,0,0,1,76.28,138a4.47,4.47,0,0,1,.62,2.34,3.91,3.91,0,0,1-1.36,3.13,5.69,5.69,0,0,1-3.76,1.14Zm0-2.25h2.48a2.49,2.49,0,0,0,1.69-.52,1.92,1.92,0,0,0,.58-1.49,2.22,2.22,0,0,0-.59-1.6,2.17,2.17,0,0,0-1.61-.63H69.34Z"/><path d="M81.46,149.32H78.77V135.07h2.69Z"/><path d="M89.49,149.32a2.66,2.66,0,0,1-.27-.9,3.24,3.24,0,0,1-2.54,1.09,3.56,3.56,0,0,1-2.44-.86,2.72,2.72,0,0,1-1-2.15,2.84,2.84,0,0,1,1.18-2.45,5.87,5.87,0,0,1,3.42-.86h1.24v-.58a1.65,1.65,0,0,0-.36-1.11,1.41,1.41,0,0,0-1.13-.42,1.58,1.58,0,0,0-1.06.33,1.08,1.08,0,0,0-.39.89H83.49a2.72,2.72,0,0,1,.54-1.62,3.61,3.61,0,0,1,1.52-1.16,5.58,5.58,0,0,1,2.21-.42,4.4,4.4,0,0,1,2.95.93,3.29,3.29,0,0,1,1.09,2.62V147a4.87,4.87,0,0,0,.39,2.16v.16Zm-2.22-1.86a2.26,2.26,0,0,0,1.09-.27,1.72,1.72,0,0,0,.75-.71v-1.72h-1c-1.34,0-2,.46-2.14,1.39v.16a1.07,1.07,0,0,0,.35.82A1.37,1.37,0,0,0,87.27,147.46Z"/><path d="M96.32,139.28l.09,1.16a3.51,3.51,0,0,1,2.88-1.34,2.93,2.93,0,0,1,2.38.93,4.38,4.38,0,0,1,.79,2.81v6.48H99.78V142.9a1.74,1.74,0,0,0-.37-1.24,1.69,1.69,0,0,0-1.23-.38,1.85,1.85,0,0,0-1.7,1v7.08H93.8v-10Z"/></g></g></svg>