<svg xmlns="http://www.w3.org/2000/svg" viewBox="0 0 141.82 171.61"><defs><style>.cls-1{fill:#608a93;opacity:0.4;}.cls-2{fill:none;stroke:#666;stroke-linecap:round;stroke-linejoin:round;stroke-width:4px;}</style></defs><title>WP_FR</title><g id="Layer_2" data-name="Layer 2"><g id="LanDernierP"><rect id="Rectangle_5194" data-name="Rectangle 5194" class="cls-1" y="12.72" width="133.24" height="158.89"/><polyline class="cls-2" points="97.41 2 97.41 51.03 139.77 51.03"/><polygon class="cls-2" points="97.84 2 5.8 2 5.8 163.57 139.82 163.57 139.82 49.94 97.84 2"/><path d="M18.43,98.59v4.75H15.65V89.84h5.27a6.1,6.1,0,0,1,2.67.55A4.11,4.11,0,0,1,25.37,92,4.43,4.43,0,0,1,26,94.31a3.86,3.86,0,0,1-1.36,3.13,5.67,5.67,0,0,1-3.76,1.15Zm0-2.26h2.49a2.43,2.43,0,0,0,1.68-.52,1.86,1.86,0,0,0,.58-1.48,2.29,2.29,0,0,0-.58-1.61A2.18,2.18,0,0,0,21,92.09H18.43Z"/><path d="M30.56,103.34h-2.7V89.09h2.7Z"/><path d="M38.58,103.34a3.23,3.23,0,0,1-.27-.89,3.25,3.25,0,0,1-2.53,1.08,3.58,3.58,0,0,1-2.45-.85,2.78,2.78,0,0,1-1-2.16,2.82,2.82,0,0,1,1.19-2.44A5.86,5.86,0,0,1,37,97.21H38.2v-.57a1.66,1.66,0,0,0-.36-1.12,1.42,1.42,0,0,0-1.12-.41,1.59,1.59,0,0,0-1.07.32,1.13,1.13,0,0,0-.38.89H32.59a2.67,2.67,0,0,1,.54-1.61,3.51,3.51,0,0,1,1.52-1.17,5.53,5.53,0,0,1,2.2-.42,4.4,4.4,0,0,1,2.95.93,3.26,3.26,0,0,1,1.09,2.62V101a4.85,4.85,0,0,0,.4,2.16v.15Zm-2.22-1.86a2.41,2.41,0,0,0,1.1-.26,1.81,1.81,0,0,0,.74-.71V98.78h-1c-1.34,0-2.06.46-2.15,1.39v.16a1.07,1.07,0,0,0,.35.83A1.37,1.37,0,0,0,36.36,101.48Z"/><path d="M45.42,93.31l.08,1.16a3.51,3.51,0,0,1,2.89-1.35,2.89,2.89,0,0,1,2.37.94,4.35,4.35,0,0,1,.8,2.8v6.48H48.88V96.92a1.75,1.75,0,0,0-.37-1.23,1.66,1.66,0,0,0-1.24-.39,1.82,1.82,0,0,0-1.69,1v7.07H42.89v-10Z"/><path d="M15.05,121.05a6,6,0,0,1,1.06-3.74A3.4,3.4,0,0,1,19,115.92a3.09,3.09,0,0,1,2.42,1.1v-5.13H24.1v14.25H21.68l-.13-1.06A3.17,3.17,0,0,1,19,126.33a3.41,3.41,0,0,1-2.85-1.4A6.26,6.26,0,0,1,15.05,121.05Zm2.68.2a4,4,0,0,0,.5,2.17,1.59,1.59,0,0,0,1.42.75,1.8,1.8,0,0,0,1.76-1v-4a1.77,1.77,0,0,0-1.74-1.05C18.38,118.1,17.73,119.15,17.73,121.25Z"/><path d="M30.8,126.33A4.94,4.94,0,0,1,27.2,125a4.85,4.85,0,0,1-1.39-3.61v-.26a6.1,6.1,0,0,1,.59-2.71,4.32,4.32,0,0,1,1.65-1.83,4.67,4.67,0,0,1,2.45-.65,4.15,4.15,0,0,1,3.24,1.3,5.27,5.27,0,0,1,1.18,3.68V122H28.53a2.53,2.53,0,0,0,.79,1.58,2.37,2.37,0,0,0,1.65.59,2.9,2.9,0,0,0,2.42-1.12l1.32,1.47a4,4,0,0,1-1.63,1.33A5.35,5.35,0,0,1,30.8,126.33Zm-.31-8.25a1.67,1.67,0,0,0-1.29.54,2.8,2.8,0,0,0-.64,1.55h3.73V120a2,2,0,0,0-.48-1.39A1.76,1.76,0,0,0,30.49,118.08Z"/><path d="M44.39,113.64v2.47H46.1v2H44.39v5a1.22,1.22,0,0,0,.21.8,1.08,1.08,0,0,0,.82.24,4.7,4.7,0,0,0,.79-.06v2a5.59,5.59,0,0,1-1.63.24,2.55,2.55,0,0,1-2.87-2.85v-5.41H40.24v-2h1.47v-2.47Z"/><path d="M53.24,118.62a7.24,7.24,0,0,0-1-.07,2,2,0,0,0-2,1v6.56H47.6v-10h2.53l.07,1.19a2.5,2.5,0,0,1,2.24-1.38,2.84,2.84,0,0,1,.84.12Z"/><path d="M60.07,126.14a2.67,2.67,0,0,1-.27-.89,3.27,3.27,0,0,1-2.54,1.08,3.56,3.56,0,0,1-2.44-.85,2.74,2.74,0,0,1-1-2.16A2.83,2.83,0,0,1,55,120.88a5.86,5.86,0,0,1,3.42-.87h1.24v-.57a1.66,1.66,0,0,0-.36-1.12,1.44,1.44,0,0,0-1.13-.41,1.58,1.58,0,0,0-1.06.32,1.11,1.11,0,0,0-.39.89H54.07a2.67,2.67,0,0,1,.54-1.61,3.63,3.63,0,0,1,1.52-1.17,5.58,5.58,0,0,1,2.21-.42,4.4,4.4,0,0,1,2.95.93,3.29,3.29,0,0,1,1.09,2.62v4.36a4.71,4.71,0,0,0,.4,2.16v.15Zm-2.22-1.86a2.37,2.37,0,0,0,1.09-.26,1.78,1.78,0,0,0,.75-.71v-1.73h-1c-1.34,0-2,.46-2.14,1.39v.16a1.11,1.11,0,0,0,.35.83A1.42,1.42,0,0,0,57.85,124.28Z"/><path d="M68.05,122.87l1.87-6.76h2.8l-3.39,10H66.77l-3.38-10h2.8Z"/><path d="M79.58,126.14a2.67,2.67,0,0,1-.27-.89,3.26,3.26,0,0,1-2.53,1.08,3.57,3.57,0,0,1-2.45-.85,2.74,2.74,0,0,1-1-2.16,2.83,2.83,0,0,1,1.18-2.44A5.86,5.86,0,0,1,78,120H79.2v-.57a1.66,1.66,0,0,0-.36-1.12,1.43,1.43,0,0,0-1.13-.41,1.58,1.58,0,0,0-1.06.32,1.1,1.1,0,0,0-.38.89H73.58a2.67,2.67,0,0,1,.54-1.61,3.63,3.63,0,0,1,1.52-1.17,5.58,5.58,0,0,1,2.21-.42,4.4,4.4,0,0,1,3,.93,3.29,3.29,0,0,1,1.09,2.62v4.36a4.71,4.71,0,0,0,.4,2.16v.15Zm-2.22-1.86a2.34,2.34,0,0,0,1.09-.26,1.78,1.78,0,0,0,.75-.71v-1.73h-1c-1.34,0-2,.46-2.14,1.39v.16a1.11,1.11,0,0,0,.35.83A1.42,1.42,0,0,0,77.36,124.28Z"/><path d="M83.93,113.51a1.31,1.31,0,0,1,.4-1,1.52,1.52,0,0,1,1.1-.39,1.54,1.54,0,0,1,1.1.39,1.31,1.31,0,0,1,.4,1,1.29,1.29,0,0,1-.41,1,1.52,1.52,0,0,1-1.09.39,1.53,1.53,0,0,1-1.09-.39A1.33,1.33,0,0,1,83.93,113.51Zm2.85,12.63H84.09v-10h2.69Z"/><path d="M91.81,126.14H89.12V111.89h2.69Z"/><path d="M98.33,121.05a6.08,6.08,0,0,1,1.06-3.74,3.4,3.4,0,0,1,2.88-1.39,3.08,3.08,0,0,1,2.42,1.1v-5.13h2.69v14.25H105l-.13-1.06a3.17,3.17,0,0,1-2.58,1.25,3.38,3.38,0,0,1-2.84-1.4A6.19,6.19,0,0,1,98.33,121.05Zm2.69.2a4,4,0,0,0,.49,2.17,1.6,1.6,0,0,0,1.43.75,1.79,1.79,0,0,0,1.75-1v-4A1.77,1.77,0,0,0,103,118.1C101.66,118.1,101,119.15,101,121.25Z"/><path d="M114.08,126.33a5,5,0,0,1-3.6-1.35,4.85,4.85,0,0,1-1.38-3.61v-.26a6.09,6.09,0,0,1,.58-2.71,4.27,4.27,0,0,1,1.66-1.83,4.64,4.64,0,0,1,2.44-.65,4.15,4.15,0,0,1,3.24,1.3,5.27,5.27,0,0,1,1.19,3.68V122h-6.39a2.47,2.47,0,0,0,.78,1.58,2.38,2.38,0,0,0,1.65.59,2.93,2.93,0,0,0,2.43-1.12l1.31,1.47a4,4,0,0,1-1.63,1.33A5.35,5.35,0,0,1,114.08,126.33Zm-.31-8.25a1.67,1.67,0,0,0-1.29.54,2.87,2.87,0,0,0-.64,1.55h3.73V120a2,2,0,0,0-.48-1.39A1.76,1.76,0,0,0,113.77,118.08Z"/><path d="M18.3,149H15.61V134.7H18.3Z"/><path d="M21.28,139.58,20,138.85a5,5,0,0,0,.82-2.59V134.7H23v1.43a4.24,4.24,0,0,1-.47,1.81A5,5,0,0,1,21.28,139.58Z"/><path d="M30.22,149A3.38,3.38,0,0,1,30,148a3.22,3.22,0,0,1-2.53,1.09,3.54,3.54,0,0,1-2.44-.85,2.74,2.74,0,0,1-1-2.15,2.83,2.83,0,0,1,1.18-2.45,5.86,5.86,0,0,1,3.42-.87h1.23v-.57a1.66,1.66,0,0,0-.36-1.12,1.41,1.41,0,0,0-1.12-.41,1.65,1.65,0,0,0-1.07.32,1.12,1.12,0,0,0-.38.89H24.23a2.67,2.67,0,0,1,.54-1.61,3.44,3.44,0,0,1,1.52-1.17,5.55,5.55,0,0,1,2.21-.42,4.39,4.39,0,0,1,2.94.93,3.27,3.27,0,0,1,1.09,2.62v4.36a4.85,4.85,0,0,0,.4,2.16V149ZM28,147.08a2.41,2.41,0,0,0,1.1-.26,1.81,1.81,0,0,0,.74-.71v-1.73h-1c-1.34,0-2.06.46-2.14,1.39v.16a1.07,1.07,0,0,0,.35.83A1.39,1.39,0,0,0,28,147.08Z"/><path d="M37.06,138.91l.08,1.16A3.51,3.51,0,0,1,40,138.72a2.89,2.89,0,0,1,2.37.94,4.35,4.35,0,0,1,.8,2.8V149H40.52v-6.42a1.72,1.72,0,0,0-.37-1.24,1.66,1.66,0,0,0-1.24-.39,1.82,1.82,0,0,0-1.69,1V149H34.54v-10Z"/><path d="M49.55,143.85a6.08,6.08,0,0,1,1.05-3.74,3.43,3.43,0,0,1,2.88-1.39,3.08,3.08,0,0,1,2.42,1.1V134.7h2.69V149H56.17L56,147.88a3.17,3.17,0,0,1-2.58,1.25,3.38,3.38,0,0,1-2.84-1.4A6.19,6.19,0,0,1,49.55,143.85Zm2.68.2a4,4,0,0,0,.49,2.17,1.6,1.6,0,0,0,1.43.75,1.79,1.79,0,0,0,1.75-1.05v-4a1.76,1.76,0,0,0-1.73-1C52.87,140.9,52.23,142,52.23,144.05Z"/><path d="M65.29,149.13a5,5,0,0,1-3.6-1.35,4.85,4.85,0,0,1-1.38-3.61v-.26a6.09,6.09,0,0,1,.58-2.71,4.27,4.27,0,0,1,1.66-1.83,4.64,4.64,0,0,1,2.44-.65,4.16,4.16,0,0,1,3.25,1.3,5.32,5.32,0,0,1,1.18,3.68v1.1H63a2.47,2.47,0,0,0,.78,1.58,2.41,2.41,0,0,0,1.66.59,2.91,2.91,0,0,0,2.42-1.12l1.31,1.47a4,4,0,0,1-1.63,1.33A5.32,5.32,0,0,1,65.29,149.13ZM65,140.88a1.67,1.67,0,0,0-1.29.54,2.87,2.87,0,0,0-.64,1.55h3.73v-.21a2,2,0,0,0-.48-1.39A1.76,1.76,0,0,0,65,140.88Z"/><path d="M76.58,141.42a7.24,7.24,0,0,0-1-.07,2,2,0,0,0-2,1V149H70.94v-10h2.53l.08,1.19a2.47,2.47,0,0,1,2.23-1.38,2.84,2.84,0,0,1,.84.12Z"/><path d="M80.34,138.91l.08,1.16a3.51,3.51,0,0,1,2.89-1.35,2.89,2.89,0,0,1,2.37.94,4.35,4.35,0,0,1,.8,2.8V149H83.8v-6.42a1.77,1.77,0,0,0-.37-1.24,1.66,1.66,0,0,0-1.24-.39,1.85,1.85,0,0,0-1.7,1V149H77.81v-10Z"/><path d="M88.49,136.31a1.32,1.32,0,0,1,.41-1,1.48,1.48,0,0,1,1.09-.39,1.52,1.52,0,0,1,1.1.39,1.41,1.41,0,0,1,0,2,1.73,1.73,0,0,1-2.19,0A1.33,1.33,0,0,1,88.49,136.31ZM91.34,149H88.65v-10h2.69Z"/><path d="M98.17,149.13a5,5,0,0,1-3.6-1.35,4.85,4.85,0,0,1-1.38-3.61v-.26a6.09,6.09,0,0,1,.58-2.71,4.27,4.27,0,0,1,1.66-1.83,4.64,4.64,0,0,1,2.44-.65,4.13,4.13,0,0,1,3.24,1.3,5.27,5.27,0,0,1,1.19,3.68v1.1H95.91a2.47,2.47,0,0,0,.78,1.58,2.41,2.41,0,0,0,1.66.59,2.91,2.91,0,0,0,2.42-1.12l1.31,1.47a4,4,0,0,1-1.63,1.33A5.32,5.32,0,0,1,98.17,149.13Zm-.31-8.25a1.67,1.67,0,0,0-1.29.54,2.87,2.87,0,0,0-.64,1.55h3.73v-.21a2,2,0,0,0-.48-1.39A1.76,1.76,0,0,0,97.86,140.88Z"/><path d="M109.46,141.42a7.24,7.24,0,0,0-1-.07,2,2,0,0,0-2,1V149h-2.68v-10h2.53l.08,1.19a2.47,2.47,0,0,1,2.23-1.38,2.84,2.84,0,0,1,.84.12Z"/></g></g></svg>