<svg xmlns="http://www.w3.org/2000/svg" xmlns:xlink="http://www.w3.org/1999/xlink" viewBox="0 0 60 60"><defs><linearGradient id="linear-gradient" x1="631.09" y1="568.1" x2="630.38" y2="568.94" gradientTransform="matrix(43.99, 0, 0, -36.29, -27705.1, 20652.42)" gradientUnits="userSpaceOnUse"><stop offset="0"/><stop offset="0.15" stop-color="#261f26"/><stop offset="0.3" stop-color="#473a46"/><stop offset="0.47" stop-color="#614f60"/><stop offset="0.63" stop-color="#735f72"/><stop offset="0.81" stop-color="#7e687d"/><stop offset="1" stop-color="#826b81"/></linearGradient><linearGradient id="linear-gradient-2" x1="621.73" y1="570.46" x2="621.33" y2="569.56" gradientTransform="matrix(27.36, 0, 0, -49.03, -16989.26, 27974.45)" gradientUnits="userSpaceOnUse"><stop offset="0"/><stop offset="0.08" stop-color="#121a1b"/><stop offset="0.25" stop-color="#32484d"/><stop offset="0.41" stop-color="#4d6e76"/><stop offset="0.57" stop-color="#628c95"/><stop offset="0.73" stop-color="#71a1ac"/><stop offset="0.87" stop-color="#7aaeba"/><stop offset="1" stop-color="#7eb3bf"/></linearGradient><linearGradient id="linear-gradient-3" x1="630.33" y1="567.23" x2="631.31" y2="567.58" gradientTransform="matrix(44.51, 0, 0, -31.23, -28045.04, 17763.52)" gradientUnits="userSpaceOnUse"><stop offset="0"/><stop offset="0.45" stop-color="#58403a"/><stop offset="0.82" stop-color="#9c7167"/><stop offset="1" stop-color="#b78579"/></linearGradient></defs><title>symbolic_identifier</title><g id="Layer_2" data-name="Layer 2"><g id="Layer_1-2" data-name="Layer 1"><g id="Group_11765" data-name="Group 11765"><g id="Group_1" data-name="Group 1"><circle id="Ellipse_366-2" data-name="Ellipse 366-2" cx="30" cy="30" r="30" fill="#fff"/></g><g id="Group_10362" data-name="Group 10362"><g id="Group_10361" data-name="Group 10361"><path id="Path_19696" data-name="Path 19696" d="M22.86,7.43c4.65,1,7.07,5.54,7.07,5.54L45.39,39.75h0s5.13.17,8.34-3.35A13.59,13.59,0,0,0,57,27h0A27.36,27.36,0,0,0,13,9.3h0A13.55,13.55,0,0,1,22.86,7.43Z" fill="url(#linear-gradient)"/><path id="Path_19697" data-name="Path 19697" d="M13.2,48.64c-1.45-4.53,1.26-8.89,1.26-8.89h0L29.92,13S27.5,8.44,22.85,7.43A13.57,13.57,0,0,0,13,9.3h0a27.36,27.36,0,0,0,6.69,46.91h0A13.52,13.52,0,0,1,13.2,48.64Z" fill="url(#linear-gradient-2)"/><path id="Path_19698" data-name="Path 19698" d="M57,27a13.59,13.59,0,0,1-3.29,9.44c-3.2,3.52-8.33,3.35-8.33,3.35H14.46s-2.71,4.36-1.26,8.89a13.56,13.56,0,0,0,6.53,7.57h0A27.36,27.36,0,0,0,57.28,30.82,27.72,27.72,0,0,0,57,27Z" fill="url(#linear-gradient-3)"/></g></g></g></g></g></svg>