<svg xmlns="http://www.w3.org/2000/svg" xmlns:xlink="http://www.w3.org/1999/xlink" viewBox="0 0 60 60">
  <defs>
    <linearGradient y2="0.05691" y1="0.90126" x2="0.29746" x1="1.01025" id="linear-gradient">
   <stop stop-color="#826b81" offset="0%"/>
   <stop stop-color="#000000" offset="0%"/>
   <stop stop-color="#261f26" offset="15%"/>
   <stop stop-color="#473a46" offset="30%"/>
   <stop stop-color="#614f60" offset="47%"/>
   <stop stop-color="#735f72" offset="63%"/>
   <stop stop-color="#7e687d" offset="81%"/>
   <stop stop-color="#826b81" offset="100%"/>
  </linearGradient>
  <linearGradient y2="0.79561" y1="-0.09922" x2="0.28308" x1="0.68126" id="linear-gradient-2">
   <stop stop-color="#7eb3bf" offset="0"/>
   <stop stop-color="#000000" offset="0"/>
   <stop stop-color="#121a1b" offset="0.08"/>
   <stop stop-color="#32484d" offset="0.25"/>
   <stop stop-color="#4d6e76" offset="0.41"/>
   <stop stop-color="#628c95" offset="0.57"/>
   <stop stop-color="#71a1ac" offset="0.73"/>
   <stop stop-color="#7aaeba" offset="0.87"/>
   <stop stop-color="#7eb3bf" offset="1"/>
  </linearGradient>
  <linearGradient y2="0.36012" y1="0.72446" x2="1.10066" x1="-0.12112" id="linear-gradient-3">
   <stop stop-color="#b78579" offset="0"/>
   <stop stop-color="#000000" offset="0"/>
   <stop stop-color="#58403a" offset="0.45"/>
   <stop stop-color="#9c7167" offset="0.82"/>
   <stop stop-color="#b78579" offset="1"/>
  </linearGradient>
  </defs>
  <title>symbolic_identifier</title>
  <g id="Layer_2" data-name="Layer 2">
    <g id="Layer_1-2" data-name="Layer 1">
      <g id="Group_11765" data-name="Group 11765">
        <g id="Group_1" data-name="Group 1">
          <circle id="Ellipse_366-2" data-name="Ellipse 366-2" cx="30" cy="30" r="30" fill="#fff" />
        </g>
        <g id="Group_10362" data-name="Group 10362">
          <g id="Group_10361" data-name="Group 10361">
            <path id="Path_19696" data-name="Path 19696" d="M22.86,7.43c4.65,1,7.07,5.54,7.07,5.54L45.39,39.75h0s5.13.17,8.34-3.35A13.59,13.59,0,0,0,57,27h0A27.36,27.36,0,0,0,13,9.3h0A13.55,13.55,0,0,1,22.86,7.43Z" fill="url(#linear-gradient)" />
            <path id="Path_19697" data-name="Path 19697" d="M13.2,48.64c-1.45-4.53,1.26-8.89,1.26-8.89h0L29.92,13S27.5,8.44,22.85,7.43A13.57,13.57,0,0,0,13,9.3h0a27.36,27.36,0,0,0,6.69,46.91h0A13.52,13.52,0,0,1,13.2,48.64Z" fill="url(#linear-gradient-2)" />
            <path id="Path_19698" data-name="Path 19698" d="M57,27a13.59,13.59,0,0,1-3.29,9.44c-3.2,3.52-8.33,3.35-8.33,3.35H14.46s-2.71,4.36-1.26,8.89a13.56,13.56,0,0,0,6.53,7.57h0A27.36,27.36,0,0,0,57.28,30.82,27.72,27.72,0,0,0,57,27Z" fill="url(#linear-gradient-3)" />
          </g>
        </g>
      </g>
    </g>
  </g>
</svg>
