<svg xmlns="http://www.w3.org/2000/svg" xmlns:xlink="http://www.w3.org/1999/xlink" viewBox="0 0 564.84 224.86"><defs><linearGradient id="linear-gradient" x1="-1154.26" y1="241.21" x2="-1154.42" y2="241.54" gradientTransform="matrix(415.57, 0, 0, -298.75, 479845.33, 72247.42)" gradientUnits="userSpaceOnUse"><stop offset="0" stop-color="#608a93"/><stop offset="0.08" stop-color="#7d9fa7"/><stop offset="0.2" stop-color="#a0b9bf"/><stop offset="0.33" stop-color="#bdced3"/><stop offset="0.46" stop-color="#d4dee2"/><stop offset="0.61" stop-color="#e4eaed"/><stop offset="0.77" stop-color="#edf1f3"/><stop offset="1" stop-color="#f0f3f5"/></linearGradient><linearGradient id="linear-gradient-2" x1="-1347.8" y1="299.21" x2="-1349.76" y2="299.85" gradientTransform="translate(-3955.67 7919.2) rotate(180) scale(3.79 33.34)" gradientUnits="userSpaceOnUse"><stop offset="0" stop-color="#fff"/><stop offset="1"/></linearGradient><linearGradient id="linear-gradient-3" x1="-1305.85" y1="209.45" x2="-1304.23" y2="209.45" gradientTransform="translate(-3833.18 2371.39) rotate(180) scale(3.7 10.56)" xlink:href="#linear-gradient-2"/><linearGradient id="linear-gradient-4" x1="-1268.11" y1="223.82" x2="-1267.27" y2="223.82" gradientTransform="translate(-8137.19 4374.57) rotate(180) scale(7.41 18.82)" xlink:href="#linear-gradient-2"/><linearGradient id="linear-gradient-5" x1="-1131.45" y1="223.94" x2="-1130.98" y2="232" gradientTransform="matrix(63.04, 0, 0, -25.41, 71778.84, 5892.22)" gradientUnits="userSpaceOnUse"><stop offset="0" stop-color="#9cdbf0"/><stop offset="1" stop-color="#fff"/></linearGradient></defs><title>P-InRealLife</title><g id="Layer_2" data-name="Layer 2"><g id="Plan"><path id="Path_19696" data-name="Path 19696" d="M241,111.3c48.51,38.13,75,68.78,37,79.58-29.84,8.47-101-5.38-140.72,3.8-17.94,4.14-65.57,18.39-100.39-4.66-31-20.51-65.22-86.92,1.2-77.46,26.68,3.81,5-60.67,55.41-63.88C129.28,46.4,200.23,79.23,241,111.3Z" style="fill:#d1dfe1;opacity:0.25;isolation:isolate"/><path id="Path_19697" data-name="Path 19697" d="M17.68,163.08c7.86,9.95,17.61,19,26.85,24.66,38.17,23.5,79.32,12.51,98.19,7.58,41.75-10.91,103.59,8.17,135.1-1.34,19.16-5.78,17.11-21.3-.47-44.86-7.59-10.19-18.09-21.87-31-34.93-37.65-38-101.68-72.64-128.22-72.69-53.86-.12-48.71,70.83-77.26,67.57C-10.91,103.15-3.36,136.45,17.68,163.08Z" style="opacity:0.30000000000000004;isolation:isolate;fill:url(#linear-gradient)"/><ellipse id="Ellipse_371" data-name="Ellipse 371" cx="267.02" cy="194.93" rx="77.45" ry="6.68" style="fill:#ddd;isolation:isolate"/><rect x="221.11" y="51.61" width="100" height="139" rx="12.34" style="fill:#75b3d0"/><ellipse id="Ellipse_367" data-name="Ellipse 367" cx="100.58" cy="218.47" rx="17.89" ry="2.36" style="fill:#9faad4;opacity:0.219999998807907;isolation:isolate"/><path id="Path_19706" data-name="Path 19706" d="M57.34,145.74l2.28-2.45a18.91,18.91,0,0,1,2.79,1.53l-.86,3.25a15.75,15.75,0,0,1,2.39,2.3l3.21-1a18.81,18.81,0,0,1,1.64,2.73l-2.37,2.37a14.83,14.83,0,0,1,.92,3.2l3.28.75a18.77,18.77,0,0,1,0,3.18l-3.23.87a15.42,15.42,0,0,1-.8,3.23L69.09,168a18.32,18.32,0,0,1-1.53,2.78l-3.25-.86a15,15,0,0,1-2.31,2.4l1,3.2a18.42,18.42,0,0,1-2.72,1.65l-2.37-2.37a15.6,15.6,0,0,1-3.2.92L53.94,179a19.87,19.87,0,0,1-3.18.05l-.88-3.24a15.1,15.1,0,0,1-1.63-.31,14.77,14.77,0,0,1-1.6-.49l-2.28,2.46a19,19,0,0,1-2.79-1.54l.86-3.24a15.37,15.37,0,0,1-2.39-2.31l-3.21,1a19.26,19.26,0,0,1-1.64-2.72l2.37-2.38a15.51,15.51,0,0,1-.92-3.19l-3.28-.76a17.77,17.77,0,0,1,0-3.18l3.23-.87a15.73,15.73,0,0,1,.8-3.23l-2.45-2.28A18.42,18.42,0,0,1,36.43,150l3.25.86A14.92,14.92,0,0,1,42,148.44l-1-3.21a19.36,19.36,0,0,1,2.73-1.64L46.11,146A15.53,15.53,0,0,1,49.3,145l.75-3.27a17.78,17.78,0,0,1,3.18,0l.88,3.23a15.73,15.73,0,0,1,3.23.8Zm-3.4,6.82a8.06,8.06,0,1,0,5.88,9.76h0a8.06,8.06,0,0,0-5.88-9.76Z" style="fill:#a9e1f2"/><path id="Path_19707" data-name="Path 19707" d="M55,148.28a12.47,12.47,0,1,1-15.11,9.1A12.46,12.46,0,0,1,55,148.28Zm-1.07,4.28a8.06,8.06,0,1,0,5.89,9.76A8.06,8.06,0,0,0,53.93,152.56Z" style="fill:#5574d8;opacity:0.310000002384186;isolation:isolate"/><path id="Path_19708" data-name="Path 19708" d="M30,129.13l1.14-1.65a10.64,10.64,0,0,1,1.78.67l-.23,2a9.13,9.13,0,0,1,1.61,1.16l1.81-.86a10.06,10.06,0,0,1,1.21,1.47l-1.2,1.61a9.26,9.26,0,0,1,.83,1.81l2,.16a11.89,11.89,0,0,1,.31,1.88l-1.84.79c0,.34,0,.67,0,1a8,8,0,0,1-.15,1l1.65,1.14a11.18,11.18,0,0,1-.66,1.78l-2-.23a9.21,9.21,0,0,1-1.16,1.62l.86,1.81a10.68,10.68,0,0,1-1.47,1.2l-1.61-1.19a9.22,9.22,0,0,1-1.81.82l-.16,2a10.85,10.85,0,0,1-1.88.31l-.79-1.84a8.36,8.36,0,0,1-1,0,8,8,0,0,1-1-.15L25.09,149a12.74,12.74,0,0,1-1.78-.67l.23-2a9.28,9.28,0,0,1-1.61-1.16l-1.81.86a11.25,11.25,0,0,1-1.21-1.47L20.1,143a9.22,9.22,0,0,1-.82-1.81l-2-.16a11,11,0,0,1-.31-1.88l1.84-.8c0-.33,0-.66,0-1s.09-.66.15-1l-1.64-1.14a11.18,11.18,0,0,1,.66-1.78l2,.23a9.76,9.76,0,0,1,1.16-1.62l-.86-1.81A12.11,12.11,0,0,1,21.78,129l1.61,1.2a9.26,9.26,0,0,1,1.81-.83l.17-2a11.77,11.77,0,0,1,1.87-.31l.8,1.84a9.44,9.44,0,0,1,2,.2Zm-1.49,5a4.14,4.14,0,1,0,3.71,4.53,4.13,4.13,0,0,0-3.71-4.53Z" style="fill:#a9e1f2"/><path id="Path_19709" data-name="Path 19709" d="M28.72,130.7a7.55,7.55,0,1,1-8.25,6.78,7.55,7.55,0,0,1,8.25-6.78Zm-.33,3.4a4.13,4.13,0,1,0,3.72,4.52,4.13,4.13,0,0,0-3.72-4.52Z" style="fill:#5574d8;opacity:0.310000002384186;isolation:isolate"/><path id="Path_19710" data-name="Path 19710" d="M20.51,184.43a4.27,4.27,0,0,0,.1.79h89.7a5.14,5.14,0,0,0-3.17-2.39c-1.7-.48-4.58-1.34-4.32-2.52.94-4.4,3.11-7.57-2.48-12.78-1.76-1.64-7-3.12-12-.49-4,2.11-6.64-5.72-15-10l-.76-.36c-4.8-2.22-10.84-2-14.8,2.07a14.32,14.32,0,0,0-3.58,6.92C51.74,176.1,46,169.19,45.06,168c-2.79-3.41-11.1-1.58-12.4,3.18-2.44,9-5,7.57-7.16,8.11S20.46,181.74,20.51,184.43Z" style="fill:#8d9294;opacity:0.119999997317791;isolation:isolate"/><path id="Path_19711" data-name="Path 19711" d="M21.86,185.87a3.56,3.56,0,0,0,.1.79h86.21a1.21,1.21,0,0,0,.36-2.37h0c-1.7-.49-4.57-1.35-4.32-2.53.94-4.4,3.11-7.57-2.48-12.78-1.75-1.63-7-3.12-12-.48-4,2.1-6.64-5.73-15-10l-.75-.36c-4.81-2.21-10.85-2-14.81,2.07a14.41,14.41,0,0,0-3.58,6.92c-2.43,10.39-8.14,3.48-9.11,2.31-2.79-3.4-11.1-1.58-12.4,3.19-2.44,9-5,7.57-7.16,8.11S21.8,183.18,21.86,185.87Z" style="fill:#f7f9ff"/><path id="Path_19789" data-name="Path 19789" d="M564.84,211.6a4.9,4.9,0,0,1-.13,1H455.12a1.54,1.54,0,0,1-.46-3l.06,0c2.16-.62,5.82-1.71,5.5-3.21-1.2-5.6-4-9.63,3.15-16.25,2.23-2.08,8.9-4,15.29-.61,5.1,2.67,8.44-7.28,19.07-12.67l.95-.46c6.11-2.81,13.79-2.52,18.83,2.63a18.34,18.34,0,0,1,4.54,8.8c3.09,13.21,10.36,4.42,11.58,2.93,3.56-4.32,14.12-2,15.76,4.06,3.1,11.41,6.36,9.62,9.11,10.31S564.91,208.19,564.84,211.6Z" style="fill:#8d9294;opacity:0.119999997317791;isolation:isolate"/><path id="Path_19789-2" data-name="Path 19789" d="M560.84,216.6a4.9,4.9,0,0,1-.13,1H451.12a1.54,1.54,0,0,1-.46-3l.06,0c2.16-.62,5.82-1.71,5.5-3.21-1.2-5.6-4-9.63,3.15-16.25,2.23-2.08,8.9-4,15.29-.61,5.1,2.67,8.44-7.28,19.07-12.67l.95-.46c6.11-2.81,13.79-2.52,18.83,2.63a18.34,18.34,0,0,1,4.54,8.8c3.09,13.21,10.36,4.42,11.58,2.93,3.56-4.32,14.12-2,15.76,4.06,3.1,11.41,6.36,9.62,9.11,10.31S560.91,213.19,560.84,216.6Z" style="fill:#f7f9ff"/><g id="Group_10825" data-name="Group 10825"><path id="Path_20127" data-name="Path 20127" d="M211.39,44.61H178.75s-6.21-.06-7.43-4c-.76-2.48,1.11-5.35,5.11-6.09,4.5-.83,5.11-.88,6-4.82s2.7-5.25,5.13-5.59c2.68-.37,5.1,1.31,7.41,4.2,1.12,1.39,4.84-1.29,6.49-2.82a5.8,5.8,0,0,1,8.88,2.14c2.16,4.64-1.18,6.7,2.81,8.58,2.82,1.33,4,3,3.93,4.81S214.05,44.61,211.39,44.61Z" style="fill:#a9e1f2"/><path id="Path_20128" data-name="Path 20128" d="M206.35,44.6s3.79-.5,1.88-3.86-6.83,1-8.28-3.93c-1.49-5.1-7.21-6.57-9.21-2-1.65,3.72-3.71,4.56-9,3.67s-5.23,5.66-2.33,6.16S206.35,44.6,206.35,44.6Z" style="fill:#fff;opacity:0.479999989271164;isolation:isolate"/></g><g id="Group_10826" data-name="Group 10826"><path id="Path_20129" data-name="Path 20129" d="M60.15,22.5c.29,2.79,5.29,2.79,5.29,2.79H107.1c4.48-.95-2.27-2-2.2-4.41s2.79-9.33-1.18-10.58-4,.88-7,1S92.92,1,87.92.16s-7.49,1.91-8.81,7.57-6.1,3.82-7.65,2.94-6.17-.22-4.7,4.63-3,3.23-4.19,3.53S59.85,19.71,60.15,22.5Z" style="fill:#a9e1f2"/><path id="Path_20130" data-name="Path 20130" d="M93.4,25.29c8.51-.43,7.29-6,2.81-4.7s-4.49-2-6.74-6.39-7.66-1-7.94,3.74-5-1.33-9.45.79,0,6.56,0,6.56Z" style="fill:#fff;opacity:0.479999989271164;isolation:isolate"/></g><ellipse cx="299.09" cy="195.17" rx="13.19" ry="0.93" style="fill:#edf0f2"/><path d="M228.29,193.94c0,.59-4.09,1.07-9.13,1.07s-9.14-.48-9.14-1.07,4.09-1.06,9.14-1.06S228.29,193.36,228.29,193.94Z" style="fill:#fff;opacity:0.4"/><rect x="227.02" y="62.31" width="87.5" height="108.33" rx="4.86" style="fill:#fff;isolation:isolate"/><path d="M338.52,203.61c0,.51,5.37.92,12,.92s12-.41,12-.92-5.37-.91-12-.91S338.52,203.11,338.52,203.61Z" style="fill:#edf0f2"/><rect x="342.28" y="194.58" width="16.2" height="3.05" transform="translate(700.76 392.2) rotate(180)" style="fill:#005378"/><path d="M354,189.69h-7.22l-2.92,14H340L343.74,186h13.19l.33,1.44c1.55,6.71,2.77,12,3.75,16.27H357.2C355.87,197.9,354.57,192.26,354,189.69Z" style="fill:#005378"/><rect x="335.29" y="165.96" width="3.03" height="0.2" style="fill:#24415e"/><rect x="335.29" y="170.24" width="3.03" height="0.2" style="fill:#24415e"/><rect x="335.29" y="168.1" width="3.03" height="0.2" style="fill:#24415e"/><rect x="333.62" y="168.81" width="3.03" height="0.2" style="fill:#24415e"/><rect x="333.62" y="165.25" width="3.03" height="0.2" style="fill:#24415e"/><rect x="333.08" y="166.87" width="1.95" height="0.2" style="fill:#24415e"/><rect x="335.49" y="169.52" width="1.95" height="0.2" style="fill:#24415e"/><rect x="336.28" y="166.69" width="2.04" height="0.16" style="fill:#24415e"/><rect x="334.79" y="167.4" width="1.31" height="0.16" style="fill:#24415e"/><path d="M330.13,164h9v7.67h-9Zm8.77.19h-8.58v7.28h8.58Z" style="fill:#24415e"/><rect x="327.78" y="157.86" width="2.35" height="0.15" style="fill:#24415e"/><rect x="327.78" y="161.18" width="2.35" height="0.15" style="fill:#24415e"/><rect x="327.78" y="159.52" width="2.35" height="0.15" style="fill:#24415e"/><rect x="326.48" y="160.07" width="2.35" height="0.15" style="fill:#24415e"/><rect x="326.48" y="157.31" width="2.35" height="0.15" style="fill:#24415e"/><rect x="326.06" y="158.56" width="1.51" height="0.15" style="fill:#24415e"/><rect x="327.94" y="160.63" width="1.51" height="0.15" style="fill:#24415e"/><rect x="328.55" y="158.43" width="1.58" height="0.13" style="fill:#24415e"/><rect x="327.39" y="158.98" width="1.02" height="0.13" style="fill:#24415e"/><path d="M323.77,156.34h7v6h-7Zm6.82.15h-6.67v5.66h6.67Z" style="fill:#24415e"/><path d="M336,180.6h8.6a.41.41,0,0,1,.42.41h0a.42.42,0,0,1-.42.42H336a.42.42,0,0,1-.42-.42h0A.41.41,0,0,1,336,180.6Z" style="fill:#e3f1fb"/><path d="M334,181.43h3.5l-3.8-8.35a.62.62,0,0,0-.56-.36h-3.33a.22.22,0,0,0-.2.3l3.6,7.9A.87.87,0,0,0,334,181.43Z" style="fill:#fff"/><path d="M332.8,177.3a.59.59,0,0,0,.75.36.6.6,0,0,0,.18-.82.53.53,0,1,0-.93.46Z" style="fill:#acd1e3"/><path d="M336.37,202.69l-6.42.18v-.23a.53.53,0,0,1,.4-.51l2-.79,1.51-1.09.31-.81,2,.06,0,1,.18,1.51Z" style="fill:#59433b"/><path d="M333.76,200l2.64.62,5.2-18.73-1.62-.38a2.83,2.83,0,0,0-3.41,2.12Z" style="fill:#1b3147"/><polygon points="348.97 161.71 343.63 162.95 342.93 161.23 342.03 160.67 342.42 158.91 342.07 155.78 347.31 154.56 348.97 161.71" style="fill:#fdc689"/><rect x="346.72" y="160.53" width="2.4" height="3.91" transform="translate(-27.76 83.03) rotate(-13.09)" style="fill:#fdc689"/><path d="M348.6,159.29l-.12-1.69a1.56,1.56,0,0,0,.06-.91,1.51,1.51,0,0,0-.86-1.05,2.13,2.13,0,0,0-2.56-2.54,2.31,2.31,0,0,0-.93.49,2.13,2.13,0,1,0-.44,4,2,2,0,0,0,.56-.23l.27,1.18.33-.07,0-.71.61.08.32.23a1.14,1.14,0,0,0,.19.19l.31.87c1.12.94,1.05,1.2,1.84,1.06C348.75,160.08,348.77,159.83,348.6,159.29Z" style="fill:#8e7e5f"/><path d="M346.87,183.91l9.48-2.48-4.29-16.38a3.55,3.55,0,0,0-4.89-2.34l-.41.19c-2.78,1.26-2.11,6.19-1.69,9.77Z" style="fill:#fff"/><path d="M337.44,186.7l15.74-.82a3.3,3.3,0,0,0,3.17-3.42l0-1.14-19,.94Z" style="fill:#1b3147"/><path d="M337.3,185.89l15.76,0a3.29,3.29,0,0,0,3.29-3.3v-1.14l-19.05,0Z" style="fill:#24415e"/><path d="M334.5,203l-6.42.18V203a.54.54,0,0,1,.4-.52l2-.79,1.51-1.08.3-.82,2,.06,0,1,.18,1.5Z" style="fill:#76594e"/><path d="M331.86,200l2.64.62,5.2-18.73-1.63-.38a2.84,2.84,0,0,0-3.41,2.12Z" style="fill:#24415e"/><polygon points="341.78 178.15 340.58 178.51 339.21 178.14 338.26 178.72 337.67 180.1 338 180.26 338.84 179.33 339.38 179.24 340.14 179.79 340.88 179.66 341.51 179.36 342.37 179.11 341.78 178.15" style="fill:#fdc689"/><path d="M348.68,177l-7,2.49-.78-1.21,6.16-3.44-.78-9.32a1.76,1.76,0,0,1,1.94-1.8h0a1.76,1.76,0,0,1,1.57,1.93l-.53,10.58A.88.88,0,0,1,348.68,177Z" style="fill:#f0ecec"/><polygon points="343.07 161.58 344.41 160.35 344.58 158.53 344.91 158.46 345.75 160.02 346.31 160.85 346.31 162.32 343.63 162.95 343.07 161.58" style="fill:#24415e;opacity:0.2"/><rect x="228.74" y="64.88" width="84.05" height="36.11" rx="2.79" style="fill:#e3f1fb"/><rect x="228.74" y="103.87" width="84.05" height="36.11" rx="2.79" style="fill:#e3f1fb"/><path d="M288.43,94.79H280.1a2.74,2.74,0,0,1-2.74-2.74h0a2.75,2.75,0,0,1,2.74-2.75h8.33a2.76,2.76,0,0,1,2.75,2.75h0A2.75,2.75,0,0,1,288.43,94.79Z" style="fill:#acd1e3"/><rect x="273.77" y="74.89" width="32.25" height="1" style="fill:#75b3d0"/><rect x="266.52" y="78.12" width="39.5" height="1" style="fill:#75b3d0"/><rect x="266.52" y="81.35" width="29.25" height="1" style="fill:#75b3d0"/><rect x="273.77" y="113.77" width="32.25" height="1" style="fill:#75b3d0"/><rect x="266.52" y="117" width="39.5" height="1" style="fill:#75b3d0"/><rect x="266.52" y="120.23" width="29.25" height="1" style="fill:#75b3d0"/><g style="opacity:0.4"><path d="M304,134.27h-8.33a2.75,2.75,0,0,1-2.74-2.75h0a2.74,2.74,0,0,1,2.74-2.74H304a2.75,2.75,0,0,1,2.75,2.74h0A2.76,2.76,0,0,1,304,134.27Z" style="fill:#5c91a9"/></g><path d="M285.13,134.55H276.8a2.76,2.76,0,0,1-2.75-2.75h0a2.75,2.75,0,0,1,2.75-2.74h8.33a2.74,2.74,0,0,1,2.74,2.74h0A2.75,2.75,0,0,1,285.13,134.55Z" style="fill:#acd1e3"/><path d="M282.29,134.67l-.13,0L282,134v-.8l-.37-.11-.4.25-.85.57c-.29.37-.2.46-.17.67l.32,2.06.75.7.53,1.38,1.62-.56-.59-1.46.19-1.17-.11-1h-.64Z" style="fill:#fdc689"/><path d="M307.81,156.61l-9.2,6.27-1.1-1.13,8.44-6.93-2.7-8.64a1.7,1.7,0,0,1,1.45-2.1h0a1.7,1.7,0,0,1,1.89,1.49l1.69,9.93A1.11,1.11,0,0,1,307.81,156.61Z" style="fill:#c6d0ad"/><rect x="299.55" y="139.82" width="2.43" height="3.96" transform="translate(1.73 -3.62) rotate(0.69)" style="fill:#fdc689"/><path d="M296.06,195.24l-6.5.19v-.23a.53.53,0,0,1,.4-.52l2-.8,1.53-1.1.31-.83,2,.06,0,1.05.18,1.52Z"/><path d="M307.33,194.61l-6.08,0v-.23a.52.52,0,0,1,.4-.51l1.6-.39,1.53-1.1.06-.78,2.15-.22.16,1.28.18,1.52Z"/><line x1="294.85" y1="162.54" x2="293.94" y2="177.16" style="fill:#55758e"/><polygon points="305.91 175.91 305.9 161.42 300.36 161.42 300.89 166.1 300.98 166.84 301.51 175.83 304.57 192.14 307.28 191.95 305.91 175.91" style="fill:#40586b"/><polygon points="305.91 175.91 305.9 161.42 300.36 161.42 300.89 166.1 300.98 166.84 301.51 175.83 304.57 192.14 307.28 191.95 305.91 175.91" style="fill:#1b3147"/><polygon points="301.67 141.38 297.67 140.97 296.72 138.92 296.06 138.07 297.05 136.54 297.82 133.44 303.22 134.12 301.67 141.38" style="fill:#fdc689"/><path d="M303.2,135.27a2.44,2.44,0,0,0,.33-.89,2.18,2.18,0,0,0-1.88-2.42,2.29,2.29,0,0,0-1,.14,2.14,2.14,0,0,0-1.28-.65,2.15,2.15,0,0,0-1.65,3.8l.09.15-.17,1.38.34,0,.27-.66.55.29-.07.79v.51a1.81,1.81,0,0,0,.21.88c.49.94.85.86,1.55,1h.07a.86.86,0,0,0,.26,0c1.26.05,1.74,0,2.08-1.12l.12-.78.08-.15a1.61,1.61,0,0,0,.6-1.05A1.57,1.57,0,0,0,303.2,135.27Z" style="fill:#3f2a01"/><path d="M302.1,163.28l-.06-1.86h-7.29l.1,1.12-.91,14.62-.64,15.38,2.92.09,1.4-15.62,3.25-10.88A3.58,3.58,0,0,0,302.1,163.28Z" style="fill:#24415e"/><path d="M305.9,161.42H294.75l-1-15.58c0-2.72,2.74-3.68,5.45-3.68h2.94c1.44,0,4.66,1.15,4.54,4.12Z" style="fill:#9da057"/><rect x="299.38" y="141.68" width="2.79" height="0.86" style="fill:#fff"/><polygon points="281.25 137.58 282.99 136.82 283.28 137.43 281.5 138.09 281.25 137.58" style="fill:#fff"/><path d="M283.54,144.77l-2.18-6.84,1.82-.84,3.05,6.1,9.32-.32a2.05,2.05,0,0,1,2,2.37h0a2.06,2.06,0,0,1-2.35,1.72l-10.49-1.28A1.34,1.34,0,0,1,283.54,144.77Z" style="fill:#c6d0ad"/><rect x="60.56" y="174.03" width="0.73" height="43.96" style="fill:#005378"/><path d="M203.65,174H60.56v-.85a.82.82,0,0,1,.81-.82H202.83a.82.82,0,0,1,.82.82Z" style="fill:#337593"/><rect x="60.56" y="174.04" width="143.09" height="4.59" style="fill:#005378"/><rect x="202.92" y="174.04" width="0.73" height="43.61" style="fill:#005378"/><rect x="108.9" y="165.47" width="7.44" height="5.64" style="fill:#e3f1fb"/><rect x="95.55" y="141.97" width="34.15" height="24.49" rx="1.29" style="fill:#fff"/><rect x="96.57" y="144.34" width="32.1" height="18.38" style="fill:#f1f8fd"/><rect x="106.57" y="171.11" width="12.11" height="1.26" style="fill:#f4f9fd"/><rect x="117.17" y="148.3" width="1.56" height="1.57" style="fill:#b6c2c9"/><rect x="117.17" y="151.12" width="1.56" height="1.56" style="fill:#b6c2c9"/><rect x="117.17" y="153.94" width="1.56" height="1.57" style="fill:#b6c2c9"/><rect x="117.17" y="156.75" width="1.56" height="1.57" style="fill:#b6c2c9"/><rect x="120.88" y="148.49" width="6.1" height="0.31" style="fill:#d3d9df"/><rect x="119.79" y="148.86" width="7.19" height="0.31" style="fill:#d3d9df"/><rect x="119.79" y="149.23" width="6.27" height="0.31" style="fill:#d3d9df"/><rect x="120.88" y="151.38" width="6.1" height="0.31" style="fill:#d3d9df"/><rect x="119.79" y="151.75" width="7.19" height="0.31" style="fill:#d3d9df"/><rect x="119.79" y="152.11" width="6.27" height="0.31" style="fill:#d3d9df"/><rect x="120.88" y="154.26" width="6.1" height="0.31" style="fill:#d3d9df"/><rect x="119.79" y="154.63" width="7.19" height="0.31" style="fill:#d3d9df"/><rect x="119.79" y="155" width="6.27" height="0.31" style="fill:#d3d9df"/><rect x="120.88" y="157.01" width="6.1" height="0.31" style="fill:#d3d9df"/><rect x="119.79" y="157.38" width="7.19" height="0.31" style="fill:#d3d9df"/><rect x="119.79" y="157.75" width="6.27" height="0.31" style="fill:#d3d9df"/><path d="M120.51,172.21h5v-.35a1.52,1.52,0,0,0-1.3-1.5l-1.89-.28a1.62,1.62,0,0,0-1.85,1.6Z" style="fill:#fff"/><rect x="192.2" y="167.65" width="4.19" height="4.72" rx="0.25" style="fill:#fff"/><path d="M197,171.06h-1.32v-2.85h1.69a1,1,0,0,1,.78.36.78.78,0,0,1,.17.64,5.8,5.8,0,0,1-.39,1l-.09.18C197.6,170.76,197.44,171.06,197,171.06Zm-.85-.47H197c.2,0,.24-.05.43-.42l.09-.17a7,7,0,0,0,.34-.88.3.3,0,0,0-.07-.25.55.55,0,0,0-.42-.19H196.1Z" style="fill:#fff"/><g style="opacity:0.7000000000000001"><path d="M194,166.44h0a.7.7,0,0,1-.48-.65.68.68,0,0,1,.69-.68.09.09,0,0,1,0,.18.5.5,0,0,0-.51.5.5.5,0,0,0,.35.47.09.09,0,0,1,.06.12A.08.08,0,0,1,194,166.44Z" style="fill:#fff"/><path d="M194.17,165.29a.09.09,0,0,1,0-.18.74.74,0,1,0,0-1.48.76.76,0,0,0-.48.17.09.09,0,0,1-.13,0,.1.1,0,0,1,0-.13.94.94,0,0,1,.6-.22.93.93,0,1,1,0,1.85Z" style="fill:#fff"/></g><path d="M194.17,167.47h0a.41.41,0,0,1-.3-.39.42.42,0,0,1,.42-.42.06.06,0,0,1,0,.12.29.29,0,0,0-.3.3.3.3,0,0,0,.21.29s.05,0,0,.07A.07.07,0,0,1,194.17,167.47Z" style="fill:#fff;opacity:0.7000000000000001"/><path d="M194.27,166.77a.06.06,0,0,1,0-.12.46.46,0,0,0,.46-.45.45.45,0,0,0-.45-.45.44.44,0,0,0-.29.11.06.06,0,0,1-.08,0,.05.05,0,0,1,0-.08.53.53,0,0,1,.36-.13.56.56,0,0,1,.56.56A.57.57,0,0,1,194.27,166.77Z" style="fill:#fff;opacity:0.7000000000000001"/><g style="opacity:0.7000000000000001"><path d="M195.19,166.93h0a.37.37,0,0,1-.25-.35.36.36,0,0,1,.36-.35,0,0,0,0,1,.05.05.05.05,0,0,1-.05.05.26.26,0,0,0-.08.5,0,0,0,0,1,0,.06A0,0,0,0,1,195.19,166.93Z" style="fill:#fff"/><path d="M195.27,166.33a.06.06,0,0,1-.05-.05.05.05,0,0,1,.05-.05.39.39,0,1,0,0-.78.38.38,0,0,0-.25.09,0,0,0,0,1-.07,0,0,0,0,0,1,0-.07.43.43,0,0,1,.31-.12.48.48,0,0,1,.48.49A.49.49,0,0,1,195.27,166.33Z" style="fill:#fff"/></g><path d="M195.28,167.47h0a.21.21,0,0,1-.16-.2.22.22,0,0,1,.22-.22,0,0,0,0,1,0,0,0,0,0,0,1,0,0,.16.16,0,0,0-.16.16.16.16,0,0,0,.11.15s0,0,0,0S195.29,167.47,195.28,167.47Z" style="fill:#fff;opacity:0.7000000000000001"/><path d="M195.33,167.1a0,0,0,0,1,0,0,0,0,0,0,1,0,0,.24.24,0,0,0,.24-.24.23.23,0,0,0-.24-.23.27.27,0,0,0-.15.05h0s0,0,0,0a.26.26,0,0,1,.19-.07.3.3,0,1,1,0,.59Z" style="fill:#fff;opacity:0.7000000000000001"/><path d="M186.51,171.51H169a.58.58,0,0,1-.57-.8l3-9.87a1.21,1.21,0,0,1,1.07-.8h17.51a.58.58,0,0,1,.58.8l-3.06,9.88A1.19,1.19,0,0,1,186.51,171.51Z" style="fill:#24415e"/><path d="M159.75,171.78a.41.41,0,0,0,.41.57l26.52,0a.86.86,0,0,0,.76-.57l-.09-.54H159.91Z" style="fill:#1b3147"/><polygon points="187.22 169.56 169.5 169.55 172.16 160.94 189.89 160.96 187.22 169.56" style="fill:#f1f8fd"/><path d="M185.41,163.24h-9.74a.13.13,0,0,1-.13-.13.13.13,0,0,1,.13-.14h9.74a.13.13,0,0,1,.13.14A.13.13,0,0,1,185.41,163.24Z" style="fill:#7c8d9e"/><path d="M185.85,164.25h-9.73a.13.13,0,0,1-.14-.13.14.14,0,0,1,.14-.14h9.73a.13.13,0,0,1,.13.14A.13.13,0,0,1,185.85,164.25Z" style="fill:#7c8d9e"/><path d="M183.77,165.26H174a.13.13,0,0,1-.13-.13A.13.13,0,0,1,174,165h9.73a.13.13,0,0,1,.14.13A.13.13,0,0,1,183.77,165.26Z" style="fill:#7c8d9e"/><path d="M183,166.27h-9.74a.13.13,0,0,1,0-.26H183a.13.13,0,0,1,0,.26Z" style="fill:#7c8d9e"/><path d="M182.16,168h-9.73a.13.13,0,0,1-.14-.13.14.14,0,0,1,.14-.14h9.73a.13.13,0,0,1,.13.14A.13.13,0,0,1,182.16,168Z" style="fill:#7c8d9e"/><path d="M183.77,167.16H174a.13.13,0,0,1-.13-.14.13.13,0,0,1,.13-.13h9.73a.13.13,0,0,1,.14.13A.14.14,0,0,1,183.77,167.16Z" style="fill:#7c8d9e"/><path d="M111.28,161h-8.53a1.14,1.14,0,0,1-1.13-1.13v-12.8a1.14,1.14,0,0,1,1.13-1.13h8.53a1.14,1.14,0,0,1,1.13,1.13v12.8A1.14,1.14,0,0,1,111.28,161Zm-8.53-14.95a1,1,0,0,0-1,1v12.8a1,1,0,0,0,1,1h8.53a1,1,0,0,0,1-1v-12.8a1,1,0,0,0-1-1Z" style="fill:#8da0ab"/><rect x="102.3" y="147.19" width="9.44" height="11.69" rx="0.2" style="fill:#8da0ab"/><rect x="102.48" y="147.46" width="9.07" height="3.9" rx="0.3" style="fill:#a4b3bc"/><rect x="102.48" y="151.67" width="9.07" height="3.9" rx="0.3" style="fill:#a4b3bc"/><rect x="103" y="148.13" width="2.56" height="2.56" rx="0.27" style="fill:#b6c2c9"/><path d="M103.27,150.69h.15l.77-.77-.41-.41-.78.77v.14A.27.27,0,0,0,103.27,150.69Z" style="fill:#c5ced4"/><path d="M104.93,149.18l-.74.74-.77.77h1.87a.27.27,0,0,0,.27-.27v-.61Z" style="fill:#d3dadf"/><path d="M104.1,149a.21.21,0,1,1-.41,0,.2.2,0,0,1,.2-.21A.21.21,0,0,1,104.1,149Z" style="fill:#c5ced4"/><path d="M108.92,150.69H108a.29.29,0,0,1-.29-.29h0a.29.29,0,0,1,.29-.3h.9a.3.3,0,0,1,.3.3h0A.3.3,0,0,1,108.92,150.69Z" style="fill:#b6c2c9"/><path d="M110.74,150.69h-.9a.3.3,0,0,1-.3-.29h0a.3.3,0,0,1,.3-.3h.9a.3.3,0,0,1,.3.3h0A.3.3,0,0,1,110.74,150.69Z" style="fill:#b6c2c9"/><rect x="107.34" y="148.54" width="3.48" height="0.11" style="fill:#b6c2c9"/><rect x="106.56" y="148.89" width="4.26" height="0.11" style="fill:#b6c2c9"/><rect x="106.56" y="149.24" width="3.16" height="0.11" style="fill:#b6c2c9"/><rect x="107.34" y="152.74" width="3.48" height="0.11" style="fill:#b6c2c9"/><rect x="106.56" y="153.09" width="4.26" height="0.11" style="fill:#b6c2c9"/><rect x="106.56" y="153.44" width="3.16" height="0.11" style="fill:#b6c2c9"/><g style="opacity:0.6000000000000001"><g style="opacity:0.6000000000000001"><path d="M105.29,154.91h-2a.27.27,0,0,1-.28-.28v-2a.27.27,0,0,1,.28-.28h2a.27.27,0,0,1,.28.28v2A.27.27,0,0,1,105.29,154.91Zm-2-2.56a.26.26,0,0,0-.26.26v2a.26.26,0,0,0,.26.25h2a.26.26,0,0,0,.26-.25v-2a.26.26,0,0,0-.26-.26Z" style="fill:#7b868d"/></g><polygon points="105.45 154.85 103.05 152.45 103.07 152.43 105.47 154.83 105.45 154.85" style="fill:#7b868d"/><polygon points="103.09 154.85 103.07 154.83 105.47 152.43 105.49 152.45 103.09 154.85" style="fill:#7b868d"/></g><rect x="102.68" y="152.74" width="2.56" height="2.56" rx="0.27" style="fill:#b6c2c9"/><path d="M102.94,155.3h.15l.78-.77-.42-.42-.77.78V155A.27.27,0,0,0,102.94,155.3Z" style="fill:#c5ced4"/><path d="M104.61,153.78l-.74.75-.78.77H105a.27.27,0,0,0,.27-.27v-.62Z" style="fill:#d3dadf"/><path d="M103.78,153.58a.2.2,0,0,1-.21.2.21.21,0,1,1,0-.41A.21.21,0,0,1,103.78,153.58Z" style="fill:#c5ced4"/><path d="M110.6,155h-.9a.29.29,0,0,1-.3-.3h0a.29.29,0,0,1,.3-.29h.9a.29.29,0,0,1,.29.29h0A.29.29,0,0,1,110.6,155Z" style="fill:#b6c2c9"/><path d="M108.56,155h-.89a.29.29,0,0,1-.3-.3h0a.29.29,0,0,1,.3-.29h.89a.29.29,0,0,1,.3.29h0A.29.29,0,0,1,108.56,155Z" style="fill:#b6c2c9"/><path d="M267.9,185.83a6.38,6.38,0,1,1,6.37-6.37A6.38,6.38,0,0,1,267.9,185.83Zm0-11.75a5.38,5.38,0,1,0,5.37,5.38A5.38,5.38,0,0,0,267.9,174.08Z" style="fill:#fff;opacity:0.589999973773956;isolation:isolate"/><path d="M305.29,94.92H297a2.87,2.87,0,0,1,0-5.74h8.33a2.87,2.87,0,1,1,0,5.74ZM297,89.43a2.62,2.62,0,0,0,0,5.24h8.33a2.62,2.62,0,1,0,0-5.24Z" style="fill:#75b3d0"/><polygon points="307.39 93.89 294.52 90.86 294.58 90.62 307.45 93.65 307.39 93.89" style="fill:#75b3d0"/><polygon points="295.16 94.2 295.09 93.96 307.4 90.23 307.47 90.47 295.16 94.2" style="fill:#75b3d0"/><rect x="410.57" y="170.39" width="3.04" height="30.65" style="fill:#30363d"/><polygon points="386.63 205.6 397.63 161.59 394.28 161.59 383.27 205.6 386.63 205.6" style="fill:#484f59"/><polygon points="437.55 205.6 426.55 161.59 429.91 161.59 440.91 205.6 437.55 205.6" style="fill:#484f59"/><rect x="367.97" y="109.09" width="88.24" height="62.94" style="fill:#fff"/><rect x="365.07" y="101.82" width="94.04" height="6.75" style="fill:#484f59"/><rect x="365.07" y="105.33" width="94.04" height="4.22" style="fill:#30363d"/><rect x="365.07" y="170.55" width="94.04" height="3.58" style="fill:#484f59"/><rect x="372.03" y="112.6" width="26.29" height="2.67" style="fill:#969c9e"/><rect x="375.9" y="120.09" width="6.91" height="1.64" style="fill:#b7bec0"/><rect x="389.41" y="120.09" width="6.91" height="1.64" style="fill:#b7bec0"/><rect x="404.09" y="120.09" width="6.91" height="1.64" style="fill:#b7bec0"/><rect x="444.07" y="120.09" width="6.91" height="1.64" style="fill:#b7bec0"/><rect x="371.94" y="119.35" width="2.65" height="3.11" style="fill:#6ecedb"/><rect x="385.4" y="119.35" width="2.65" height="3.11" style="fill:#9ddee7"/><rect x="400.01" y="119.35" width="2.65" height="3.11" style="fill:#d7f1f5"/><rect x="377.5" y="166.65" width="73.66" height="0.21" style="fill:#b7bec0"/><rect x="377.5" y="154.06" width="73.66" height="0.21" style="fill:#b7bec0"/><rect x="377.5" y="141.47" width="73.66" height="0.21" style="fill:#b7bec0"/><polygon points="451.15 145.16 442.1 139.4 432.61 143.8 423.48 136.25 416.38 143.44 408.32 144.05 403.04 134.28 396.88 130.94 390.48 137.31 384.26 137.02 377.65 143.93 377.16 143.27 383.99 136.12 390.22 136.42 396.76 129.91 403.55 133.59 408.72 143.14 416.09 142.58 423.43 135.14 432.71 142.81 442.14 138.43 451.51 144.38 451.15 145.16" style="fill:#9ddee7"/><rect x="377.5" y="128.88" width="73.66" height="0.21" style="fill:#b7bec0"/><rect x="372.03" y="166.32" width="3.47" height="0.88" style="fill:#b7bec0"/><rect x="372.03" y="153.73" width="3.47" height="0.88" style="fill:#b7bec0"/><rect x="372.03" y="141.13" width="3.47" height="0.88" style="fill:#b7bec0"/><rect x="372.03" y="128.54" width="3.47" height="0.88" style="fill:#b7bec0"/><polygon points="425 161.91 417.35 160.99 409.95 157.8 401.89 158.1 397.14 152.21 388.83 150.81 385.13 160.4 377.46 161.6 377.36 160.73 384.62 159.59 388.38 149.85 397.5 151.38 402.2 157.21 410.07 156.92 417.56 160.15 424.89 161.01 429.69 158.75 435.14 150.2 440.27 157.74 442.93 156.96 450.58 148.55 451.09 149.19 443.3 157.76 439.99 158.73 435.16 151.64 430.16 159.48 425 161.91" style="fill:#6ecedb"/><polygon points="391.36 158.23 384.81 152.01 377.3 155.72 377.01 154.91 384.93 151 391.33 157.07 402.47 145.14 410.65 149.05 419.08 155.55 422.48 147.93 426.41 144.47 431.28 135.12 437.16 138.61 442 144.59 446.9 143.49 450.8 138.04 451.37 138.61 447.3 144.29 441.74 145.54 436.67 139.27 431.56 136.27 426.91 145.12 423 148.57 419.36 156.82 410.3 149.82 402.62 146.16 391.36 158.23" style="fill:#987369"/><path d="M386,151.43a1.07,1.07,0,1,1-1.05-1.24A1.16,1.16,0,0,1,386,151.43Z" style="fill:#987369"/><path d="M392.34,157.51a1.07,1.07,0,1,1-1.06-1.25A1.16,1.16,0,0,1,392.34,157.51Z" style="fill:#987369"/><path d="M403.67,145.72a1.07,1.07,0,1,1-2.12,0,1.07,1.07,0,1,1,2.12,0Z" style="fill:#987369"/><path d="M411.63,149.31a1.07,1.07,0,1,1-1.06-1.25A1.16,1.16,0,0,1,411.63,149.31Z" style="fill:#987369"/><path d="M420.22,156.12a1.07,1.07,0,1,1-1.06-1.25A1.17,1.17,0,0,1,420.22,156.12Z" style="fill:#987369"/><path d="M423.7,148.28a1.07,1.07,0,1,1-1.06-1.24A1.16,1.16,0,0,1,423.7,148.28Z" style="fill:#987369"/><path d="M427.87,144.7a1.07,1.07,0,1,1-1.06-1.25A1.16,1.16,0,0,1,427.87,144.7Z" style="fill:#987369"/><path d="M432.35,135.84a1.07,1.07,0,1,1-1.06-1.24A1.15,1.15,0,0,1,432.35,135.84Z" style="fill:#987369"/><path d="M438.2,138.91a1.07,1.07,0,1,1-1.06-1.24A1.16,1.16,0,0,1,438.2,138.91Z" style="fill:#987369"/><path d="M442.93,145.06a1.07,1.07,0,1,1-1.06-1.24A1.16,1.16,0,0,1,442.93,145.06Z" style="fill:#987369"/><path d="M447.91,143.67a1.07,1.07,0,1,1-1.06-1.24A1.16,1.16,0,0,1,447.91,143.67Z" style="fill:#987369"/><path d="M436.32,131a.76.76,0,0,1-.69.82H426a.77.77,0,0,1-.7-.82v-4.71a.77.77,0,0,1,.7-.82h9.64a.77.77,0,0,1,.69.82Z" style="fill:#b7bec0"/><polygon points="430.81 133.71 430.11 132.29 429.42 130.88 430.81 130.88 432.2 130.88 431.5 132.29 430.81 133.71" style="fill:#b7bec0"/><rect x="427.36" y="127.78" width="6.91" height="1.64" style="fill:#e5e8ec"/><path id="Path_19818" data-name="Path 19818" d="M456.34,211.83v5.91h-1v-1.61s-.76,1.54-1.24,1.61c-.3,0-1.5,0-2.49,0a.25.25,0,0,1-.24-.25.27.27,0,0,1,.12-.22c.91-.51,2.22-1,2.51-2.53.17-1,.29-2,.36-3Z"/><path id="Path_19818-2" data-name="Path 19818" d="M450.59,211.83v5.91h-1v-1.61s-.76,1.54-1.23,1.61c-.31,0-1.51,0-2.5,0a.25.25,0,0,1-.24-.25.26.26,0,0,1,.13-.22c.9-.51,2.21-1,2.5-2.53.17-1,.29-2,.36-3Z"/><path d="M471.11,218.56c0,.92-7.83,1.66-17.49,1.66s-17.48-.74-17.48-1.66,7.83-1.65,17.48-1.65S471.11,217.65,471.11,218.56Z" style="fill:#9faad4;opacity:0.219999998807907;isolation:isolate"/><polygon points="431.94 157.4 430.85 156.96 429.96 156.13 429.97 156.13 429.76 155.94 429.71 155.89 429.7 155.9 429.2 155.45 427.4 155.41 427.8 155.95 428.55 155.9 428.66 156.03 428.18 156.09 427.25 156.21 425.2 155.8 425.35 156.24 425.42 156.44 426.18 157.7 426.54 158.03 429.14 158.51 430.74 158.46 432.55 159.13 433.42 157.83 431.94 157.4" style="fill:#fdc689"/><path d="M465.76,163.84l-7.51,11.84-1.81-.74,6.21-12-7.32-8.52a2.1,2.1,0,0,1,.62-3.1h0a2.1,2.1,0,0,1,2.88.77l6.93,10.66A1,1,0,0,1,465.76,163.84Z" style="fill:#d47d6f"/><path d="M452.89,139.35a2.56,2.56,0,1,1-2.77-2.33A2.56,2.56,0,0,1,452.89,139.35Z" style="fill:#ffb600"/><polygon points="456.1 148.25 449.55 148.82 449 146.66 448.03 145.84 448.79 143.82 448.91 140.04 455.33 139.48 456.1 148.25" style="fill:#fdc689"/><rect x="453.28" y="146.65" width="2.88" height="4.69" transform="translate(-11.19 39.91) rotate(-4.96)" style="fill:#fdc689"/><polygon points="453.6 180.32 453.31 197.16 454.03 212.92 456.45 212.92 456.99 197.1 459.42 179.88 453.6 180.32" style="fill:#262b47"/><path d="M460.24,176.42l-.83-3.15H448.63l.36,4.19-2.76,19.86,1.89,16,2.6-.19-.53-15.85,6-14.75A4.93,4.93,0,0,0,460.24,176.42Z" style="fill:#1d2039"/><polygon points="432.28 157.36 431.5 157.06 431.04 158.69 431.8 158.98 432.28 157.36" style="fill:#fff"/><path d="M455.84,149l-3.91,1.65-3.11,4a5.73,5.73,0,0,0-1.08,4.81l1.34,5.92-1.31,10.75,13.93,0-4.57-10.3,2.51-9.4C459.91,153.79,458.41,148.82,455.84,149Z" style="fill:#c95d4b"/><path d="M454.42,147.62a2.48,2.48,0,1,0,2.26-2.69A2.48,2.48,0,0,0,454.42,147.62Z" style="fill:#24415e"/><path d="M453.05,141.9a2.48,2.48,0,1,0,2.26-2.69A2.49,2.49,0,0,0,453.05,141.9Z" style="fill:#091018"/><path d="M448.91,140a2.46,2.46,0,0,1,1.25-2.34l-.64-.56c6.44-2.59,8.54,1.19,9,3.63a19.31,19.31,0,0,0,.67,2.62,3.75,3.75,0,0,1,2.27,3.13,3.62,3.62,0,0,1-.09,1.14,3.78,3.78,0,1,1-5.29,4.79,2.48,2.48,0,0,1-2.65-2.25,2.44,2.44,0,0,1,.76-2,3.44,3.44,0,0,1-.23-.85,2.44,2.44,0,0,1-.49-1.27c0-.12,0-.24,0-.36a2.43,2.43,0,0,1-.93-1.38A2.56,2.56,0,0,1,450.1,142v-.11A2.46,2.46,0,0,1,448.91,140Z" style="fill:#ffb600"/><path d="M443.71,164.1l-12.34-5.16.52-1.79,12.2,3.87,6.83-8.23a2,2,0,0,1,3,.08h0a2,2,0,0,1-.26,2.84l-8.91,8.21A1,1,0,0,1,443.71,164.1Z" style="fill:#d47d6f"/><path d="M217.58,194l4.47.13V194a.37.37,0,0,0-.27-.36l-1.39-.55-1.06-.76-.11-2.05-1.52.09v2.16l-.12,1Z" style="fill:#fdc689"/><path d="M212.71,193.71l4.48.13v-.16a.37.37,0,0,0-.28-.35l-1.39-.56-1.05-.75-.12-2.05-1.52.08v2.16l-.12,1Z" style="fill:#fdc689"/><polygon points="214.95 162.77 215.2 176.79 214.6 191.1 212.43 191.1 211.89 176.79 210.52 162.77 214.95 162.77" style="fill:#192832"/><path d="M218.8,160.38l-.69-3.77-8,.28-.69,2.63a4.1,4.1,0,0,0,3.83,5.15l3.26,12.49.83,13.94h2.18l.29-13.94Z" style="fill:#213543"/><path d="M212.67,193.71l5.05.21v-.16a.37.37,0,0,0-.27-.36l-1.95-.66-.19.33-2-.41-.53-.35-.11.95Z" style="fill:#1b3147"/><path d="M217.56,194l5.06.2v-.16a.36.36,0,0,0-.28-.35l-2-.66-.19.33-2-.42-.53-.35-.11.95Z" style="fill:#24415e"/><ellipse id="Ellipse_383" data-name="Ellipse 383" cx="386.38" cy="216.3" rx="12.69" ry="2.02" style="fill:#9faad4;opacity:0.219999998807907;isolation:isolate"/><g id="Group_10786" data-name="Group 10786"><path id="Path_20053" data-name="Path 20053" d="M390.43,216.1c.35.13,4.78.05,6.63,0a.42.42,0,0,0,.41-.43.39.39,0,0,0-.13-.29,4.33,4.33,0,0,0-2.66-1.09,1.47,1.47,0,0,1-1.19-.57,7.37,7.37,0,0,1-.92-3.13c0-.19-.4-.47-.38-.68.15-1.89-2.68.28-2.68.28a2.64,2.64,0,0,1,.21.87c0,.56.79,2,.63,2.61,0,.1-.05.19-.07.27C389.93,215,390,215.93,390.43,216.1Z" style="fill:#805745"/><path id="Path_20054" data-name="Path 20054" d="M390.43,216.1c.38.14,5.54,0,7,0a.24.24,0,0,0,.18-.38,3.43,3.43,0,0,0-2.91-1.7,2,2,0,0,1-1.4-.62c-.62,0-1.12.31-1.11.88,0,.34-1,.43-1.87-.6,0,.09-.05.18-.07.27C389.93,215,390,215.93,390.43,216.1Z" style="fill:#202952"/></g><g id="Group_10787" data-name="Group 10787"><path id="Path_20055" data-name="Path 20055" d="M373.18,214.68a.83.83,0,0,0-.11,1.18.85.85,0,0,0,.65.3H377c.59,0,1.38-.46,1.23-1.94a2.64,2.64,0,0,1,0-.29,21.54,21.54,0,0,1,0-2.27c0-.83.06-1.46.06-1.46l-2.47-1.49-.5-.3s0,.1,0,.28a19.72,19.72,0,0,1,.16,3,3.87,3.87,0,0,1-.44,1.89.84.84,0,0,1-.34.28A5.93,5.93,0,0,0,373.18,214.68Z" style="fill:#805745"/><path id="Path_20056" data-name="Path 20056" d="M372.35,215.71a.34.34,0,0,0,.17.43l.13,0H377c.59,0,1.38-.46,1.23-1.94a2.64,2.64,0,0,1,0-.29c-.44.29-.7.45-1.07.09a2.18,2.18,0,0,0-1.84-.74c-.26,0-.32.34-.43.43a.71.71,0,0,1-.18.12A3.94,3.94,0,0,0,372.35,215.71Z" style="fill:#202952"/></g><path id="Path_20057" data-name="Path 20057" d="M374,199.79v0q.38,5.37.93,11.68h3.4l2.42-31.92,8.76,31.92h4s-4.79-31.17-7.5-40.83-12.78-.62-12.78-.62l0,.86A286.87,286.87,0,0,0,374,199.79Z" style="fill:#822b0e"/><path id="Path_20058" data-name="Path 20058" d="M374,199.88c-.74-18.52,2.3-26.75,2.3-26.75l-3.08-1A262.65,262.65,0,0,0,374,199.88Z" style="opacity:0.150000005960464;isolation:isolate;fill:url(#linear-gradient-2)"/><path id="Path_20059" data-name="Path 20059" d="M396.91,158.44l0,.26-.14,1.26s.22-.06.54-.12a4.31,4.31,0,0,1,1.19-.07l.13,0a6.21,6.21,0,0,0,3.41-.31c.55-.27.32-.48.32-.48,1.24-.27,1.12-.76.85-.76s-.86,0-.93,0c.53-.08,1-.32,1-.52s-.25-.22-.75-.13a13.31,13.31,0,0,1-2.75.13c-.64-.06-.36-.25-.07-.63s.75-.95.49-1.11-1.22.95-1.58,1.2l-.72.51Z" style="fill:#805745"/><path id="Path_20060" data-name="Path 20060" d="M385.84,154.32c-.55,1.55-1,3.11-1,3.11s1.75,4.58,3.09,5.64a1.33,1.33,0,0,0,.19.14c1,.53,9.44-2.67,9.44-2.67l-.61-2.68-6.63,1.47a.26.26,0,0,1-.33-.2h0c-.3-1.31-1.94-8.09-2.84-8.67C386.63,150.13,386.46,152.6,385.84,154.32Z" style="fill:#698ca0"/><path id="Path_20061" data-name="Path 20061" d="M385.84,154.43c-.55,1.55-1,3.11-1,3.11s1.75,4.58,3.08,5.65c-1.66-3.15-1.91-8.8-1.91-8.8Z" style="opacity:0.150000005960464;isolation:isolate;fill:url(#linear-gradient-3)"/><path id="Path_20062" data-name="Path 20062" d="M370.14,156.54a21.8,21.8,0,0,0,.87,2.74,37,37,0,0,1,2.23,11.14,17,17,0,0,0,2.9.59,30,30,0,0,0,9.9-.6c0-7.4,2.45-19.06.94-20s-4.5-2.76-7.1-3l-2.79-.08c-6,1.28-7.1,3.28-7.1,3.28A11.91,11.91,0,0,0,370.14,156.54Z" style="fill:#1d2039"/><path id="Path_20063" data-name="Path 20063" d="M374.1,138.61c.34,2.67,3.74,4.67,3.74,4.67a19.39,19.39,0,0,1,1.24-3.7c.63-1.38,1.52-2.67,2.67-2.91,2.62-.56,2-2.93,1-3.35a9.47,9.47,0,0,0-6,.15,2.8,2.8,0,0,0-1.57,2.62S373.75,135.93,374.1,138.61Z" style="fill:#002b3b"/><path id="Path_20064" data-name="Path 20064" d="M377.09,146.66a5.25,5.25,0,0,0,2.8,1.27,2,2,0,0,0,1.73-.79l-.07-1.71-.07-1.58-4.05-2.37h0v.91c0,.56,0,1.23,0,1.56C377.34,144.62,377.09,146.66,377.09,146.66Z" style="fill:#805745"/><path id="Path_20067" data-name="Path 20067" d="M379.89,148.1l-1,1.33-2.8-2.37,1-.94Z" style="fill:#fff"/><path id="Path_20068" data-name="Path 20068" d="M381.62,146.58l-1.73,1.53.87,1.33,1.54-1.95Z" style="fill:#fff"/><path id="Path_20069" data-name="Path 20069" d="M370.14,156.77a21.44,21.44,0,0,0,.87,2.75,37,37,0,0,1,2.23,11.14,18,18,0,0,0,2.9.59,1.28,1.28,0,0,0,.14-.43c.42-2.5-3.79-15.24-3.79-15.24S371.16,156.23,370.14,156.77Z" style="opacity:0.150000005960464;isolation:isolate;fill:url(#linear-gradient-4)"/><path id="Path_20070" data-name="Path 20070" d="M377.38,142.17a.75.75,0,0,0,0,.16,4.29,4.29,0,0,0,4.13,3l-.07-1.57-4.05-2.37a0,0,0,0,0,0,0A1,1,0,0,0,377.38,142.17Z" style="fill:#66443b"/><path id="Path_20071" data-name="Path 20071" d="M376.2,140.73c.08.66,1.22,1.33,1.22,1.33.88,1.31,2.88,3.13,4.51,1.79,1.35-1.11.71-5.35.46-6.76,0-.12,0-.23-.07-.35s0-.19-.07-.23a.25.25,0,0,0-.15,0,2.72,2.72,0,0,0-.49.13c-.28.09-.56.19-.84.26a3.43,3.43,0,0,1-.44.09c-.14,0-.29,0-.43,0a10.78,10.78,0,0,0-1.12.16,1.48,1.48,0,0,0-.77.52,1.79,1.79,0,0,0-.25,1.07v.1c.11,1.46.14,1.6-.05,1.62s-.42-.31-.49-.4C376.89,139.67,376.12,140.06,376.2,140.73Z" style="fill:#7e5544"/><path id="Path_20077" data-name="Path 20077" d="M379.47,164.42l-.09.22-.42,1.09.5,0a4,4,0,0,1,1.07.22l.11,0a5.69,5.69,0,0,0,3.09.55c.55-.1.4-.34.4-.34.85-.15,1.08-.59.85-.66a3.14,3.14,0,0,0-.75,0c.48.05,1,0,1-.22s-.17-.26-.63-.29a17,17,0,0,1-2.45-.54c-.56-.18-.23-.21.11-.46s1-.41.76-.62-1.39.18-1.77.31l-.76.28Z" style="fill:#805745"/><path id="Path_20078" data-name="Path 20078" d="M370.05,150.23c-1.07,1.16-1.82,4.38-1.52,9.47.1,1.61.49,4.89,1.5,6.26.05.06.1.13.15.18.82.77,9.82-.1,9.82-.1l.1-2.75-6.78-.32a.28.28,0,0,1-.27-.28h0c.05-1.34.15-7.08.08-8.1-.18-2.43-.24-5.16-1.46-5.3A3.3,3.3,0,0,0,370.05,150.23Z" style="fill:#698ca0"/><path d="M183.11,219.34c0,.91-10,1.65-22.44,1.65s-22.43-.74-22.43-1.65,10-1.66,22.43-1.66S183.11,218.42,183.11,219.34Z" style="fill:#9faad4;opacity:0.219999998807907;isolation:isolate"/><polygon points="404.04 130.39 404.68 136.33 398.61 136.33 398.92 130.39 404.04 130.39" style="fill:#6698ae"/><polygon points="403.38 136.8 397.93 136.8 398.58 130.39 404.04 130.39 403.38 136.8" style="fill:#dae08d"/><polygon points="409.37 130.26 408.39 136.47 414.71 136.47 414.38 130.57 409.37 130.26" style="fill:#6698ae"/><polygon points="415.66 136.91 409.69 136.67 409.37 130.26 415.15 130.62 415.66 136.91" style="fill:#dae08d"/><polygon points="425.97 129.56 425.39 134.85 430.95 134.85 430.95 129.56 425.97 129.56" style="fill:#6698ae"/><polygon points="431.88 135.18 426.42 135.18 425.97 129.13 431.43 129.13 431.88 135.18" style="fill:#dae08d"/><polygon points="414.22 126.13 420.09 126.13 418.77 120.08 413.96 120.31 414.22 126.13" style="fill:#6698ae"/><polygon points="419.1 126.13 413.31 126.13 413.31 120.08 418.77 120.08 419.1 126.13" style="fill:#dae08d"/><path d="M415.24,122.26a5.69,5.69,0,0,1-.74-.06l0-.26a2.72,2.72,0,0,0,1.36,0l.22-.11a1.73,1.73,0,0,1,.51-.19,1,1,0,0,1,.75.23l-.16.2a.81.81,0,0,0-.56-.17,1.45,1.45,0,0,0-.42.16,1.34,1.34,0,0,1-.24.12A2,2,0,0,1,415.24,122.26Z" style="fill:#24415e"/><path d="M415.67,123.36c-.38,0-.76,0-1.13,0l0-.26a10.05,10.05,0,0,0,1.9,0c.29,0,.59-.1.84-.16l.06.26c-.26.06-.56.12-.87.16A5.56,5.56,0,0,1,415.67,123.36Z" style="fill:#24415e"/><path d="M416.83,124.81l-.42,0a16.56,16.56,0,0,0-1.73-.09v-.26a14.71,14.71,0,0,1,1.76.09l.41,0Z" style="fill:#24415e"/><path d="M414.06,132.63a5.61,5.61,0,0,0-1.36-.14,4.65,4.65,0,0,1-1.73-.27l.11-.24a4.11,4.11,0,0,0,1.62.24,6.21,6.21,0,0,1,1.43.16Z" style="fill:#24415e"/><path d="M413.51,133.77a2.46,2.46,0,0,0-.91-.31,5,5,0,0,0-.54,0l-1.74,0v-.26l1.75,0a3.63,3.63,0,0,1,.56,0,2.63,2.63,0,0,1,1,.34Z" style="fill:#24415e"/><path d="M411.22,134.77c-.24,0-.49,0-.73,0l0-.26a4.82,4.82,0,0,0,1.47,0l.21-.06.17,0a3,3,0,0,1,1.12-.09l0,.26a2.9,2.9,0,0,0-1,.08l-.17,0-.22.06A3.74,3.74,0,0,1,411.22,134.77Z" style="fill:#24415e"/><path d="M428.34,130.48a3.25,3.25,0,0,1-.44,0l0-.26a4.83,4.83,0,0,0,1.41-.07,6,6,0,0,1,1.2-.11v.27a5.59,5.59,0,0,0-1.15.1A7.46,7.46,0,0,1,428.34,130.48Z" style="fill:#24415e"/><path d="M430,131.52c-.14,0-.27,0-.4,0a13.58,13.58,0,0,0-2.62-.08l0-.27a14.54,14.54,0,0,1,2.64.08,1.72,1.72,0,0,0,.68,0l.08.24A.91.91,0,0,1,430,131.52Z" style="fill:#24415e"/><path d="M427.71,132.52l-.43,0,0-.26a4.35,4.35,0,0,0,1.31-.08l.27-.07a4.05,4.05,0,0,1,.5-.12,1.34,1.34,0,0,1,.84.11l-.12.23a1.07,1.07,0,0,0-.68-.08,2.66,2.66,0,0,0-.47.11l-.28.07A4.37,4.37,0,0,1,427.71,132.52Z" style="fill:#24415e"/><path d="M428.71,133.48c-.49,0-1,0-1.45,0v-.26a27.47,27.47,0,0,0,2.87,0v.26C429.67,133.47,429.19,133.48,428.71,133.48Z" style="fill:#24415e"/><path d="M401.92,132.51a8.59,8.59,0,0,1-2.08-.26l.06-.26a8,8,0,0,0,2.8.22l0,.26A7.32,7.32,0,0,1,401.92,132.51Z" style="fill:#24415e"/><path d="M399.44,133.63h-.1v-.26c.33,0,.7,0,1-.05a7.8,7.8,0,0,1,1.87,0l0,.26a7.3,7.3,0,0,0-1.81,0C400.09,133.61,399.76,133.63,399.44,133.63Z" style="fill:#24415e"/><path d="M400.67,134.86c-.51,0-1,0-1.51-.07l0-.26a15.22,15.22,0,0,0,2.34,0v.27Z" style="fill:#24415e"/><path d="M401.11,153.64l4.17.29s1.05,6.44.86,6.41l-5-1Z" style="fill:#6698ae"/><polygon points="402.21 160.75 399.29 158.06 400.72 152.52 405.36 153.76 402.21 160.75" style="fill:#dae08d"/><path d="M401.64,154.77l0-.26a5.44,5.44,0,0,1,2.09.62l-.12.23A5.15,5.15,0,0,0,401.64,154.77Z" style="fill:#24415e"/><path d="M401.3,155.83l-.87-.32.09-.25a30.88,30.88,0,0,0,3,1l-.08.25C402.69,156.3,402,156.08,401.3,155.83Z" style="fill:#24415e"/><path d="M400.2,156.86l0-.27a17.26,17.26,0,0,1,2.66.48l-.06.25A15.74,15.74,0,0,0,400.2,156.86Z" style="fill:#24415e"/><path d="M160.2,127.88a4.6,4.6,0,0,1,1.31,2.08,10.1,10.1,0,0,1,.39,2.45,2.74,2.74,0,0,1-.14,1.24,1.83,1.83,0,0,1-.93.91,5,5,0,0,1-1.26.39,20.71,20.71,0,0,1-4.7.52,5.84,5.84,0,0,1-2.89-.64,1.56,1.56,0,0,1-.5-.42,2,2,0,0,1-.28-1,8.68,8.68,0,0,1-.13-1.34c0-.41.13-.85.18-1.26.12-.93.22-1.85.31-2.78.13-1.42.22-2.81.4-4.22l.34-2.71a4.08,4.08,0,0,1,3.47-1.46c2.45.32,4.1,3.22,3.69,6.49s-2.74,5.68-5.19,5.37" style="fill:#002b3b"/><path d="M161.41,129.34c.1.85-.78,1.66-2,1.81l-2.72.35c-1.19.16-2.25-.41-2.36-1.25l-1-7.72c-.11-.85.77-1.66,2-1.81l2.72-.35c1.19-.15,2.24.41,2.35,1.25Z" style="fill:#002b3b"/><path d="M154.36,132.79c-1.61.73-.26.8-.16.92.61.71,7.16-.33,7.56-1.28.06-.16-3-.55-3-.67a9.72,9.72,0,0,1,0-4,.23.23,0,0,0-.21-.21l-1.73.07c-.09,0-1.22.28-1,.81C156,129.87,156.05,132,154.36,132.79Z" style="fill:#895d4a"/><path d="M155.2,128.71l-.11-.15,0-.05-.13-.2,0-.06-.09-.16a.41.41,0,0,1-.05-.09l-.08-.13a1,1,0,0,0,0-.1l-.09-.18a1,1,0,0,1-.07-.15.69.69,0,0,1,0-.13l-.06-.13-.05-.12,0-.1h0a15.45,15.45,0,0,1-.37-4.6.4.4,0,0,1,.38-.34c1.34-.11,5.29-1.11,5,2.9h0s0,.34,0,.5v0c0,.16,0,.31,0,.47v0c0,.16,0,.31,0,.46v0c-.21,1.91-1,3.29-2.05,3.43a2.14,2.14,0,0,1-1.82-.94h0v0l-.12-.16Z" style="fill:#895d4a"/><path d="M156.26,122.44a4.54,4.54,0,0,1,1.5-.72c0-.44-.25-.58-.61-.9a2.21,2.21,0,0,0-2.74.06,1.46,1.46,0,0,0-.18,2.31,2.07,2.07,0,0,0,1.92.36A.94.94,0,0,1,156.26,122.44Z" style="fill:#002b3b"/><path d="M136.75,137.92s-.21.23-.4.08a4.46,4.46,0,0,1-.8-1.25c-.14-.29-.54-1.78-.54-1.78a1.8,1.8,0,0,1,.63.93A7.84,7.84,0,0,0,136.75,137.92Z" style="fill:#754f42"/><path d="M136.65,137.74a2.25,2.25,0,0,1-.52-1.86,1.3,1.3,0,0,0-.35-1.09,9,9,0,0,0,0,1.7,2.93,2.93,0,0,0,.2,1C136.38,138.42,137.76,138.73,136.65,137.74Z" style="fill:#754f42"/><path d="M150.15,219.25a12.56,12.56,0,0,1,2.3-.47c1-.14,1.72-.09,2.09-.44.61-.58.33-2.5.61-2.43,1.37.39,1.73,3.69.9,4.06s-5.36,0-5.73-.05S150,219.16,150.15,219.25Z" style="fill:#895d4a"/><path d="M162,187.15c-.08-.84-.16-1.66-.24-2.47-.49-1.24-1-1.94-1.42-1.92-1.68.05-4.05,6.24-1,22.45.15.82,1.67,14.75,1.77,14.44C162.32,215.75,163.13,199.5,162,187.15Z" style="fill:#895d4a"/><path d="M161.34,159.43c-1.31-.28-1.35.48-2.35,2.34a28,28,0,0,0-2.68,15c.56,6.9,2.16,13,4.19,16.81a46.18,46.18,0,0,0,2.89-11.27C165.5,169,165.36,160.28,161.34,159.43Z" style="fill:#895d4a"/><path d="M159.28,174.65a19.41,19.41,0,0,1,5.15-.34c-.21,2.24-.53,4.7-.94,7.34-1.86-2.19-5.72-1.22-6.62-.22-.24-1.5-.43-3.05-.56-4.66,0-.46-.06-.92-.08-1.38C157.21,175.11,158.23,174.86,159.28,174.65Z" style="fill:#754f42"/><path d="M169.82,142c-2,1.69-4.19,9.73-4.19,9.73s.07,3.23,4.9-6.73C172,142,170.32,141.62,169.82,142Z" style="fill:#895d4a"/><path d="M149.69,139.69c-1.58,2.29-.8,10.57-.8,10.57s1.37,3,2.77-8C152.08,139,150.09,139.12,149.69,139.69Z" style="fill:#895d4a"/><path d="M150,149.6c-1.24-3-9.8-8.71-9.8-8.71s-3.78-1.23,6.07,8.28C149.24,152,150.32,150.34,150,149.6Z" style="fill:#895d4a"/><path d="M136.42,137.14l-.17.24.21,1a11.34,11.34,0,0,0,1.68,1.86,33.33,33.33,0,0,1,2.45,2.9c.27.22,1.74-.4,1.74-.4s-2.15-1.9-2.94-2.72a23.93,23.93,0,0,1-1.81-2.73c-.51-.57-.74-.89-.74-.89s-.27.32.48,1.26c.2.25-.19.34-.19.34Z" style="fill:#895d4a"/><path d="M151.25,162.09c1-.25,1,.46,1.78,2.22a32.11,32.11,0,0,1,2.06,14.05c-.41,6.44-1.59,12.08-3.11,15.64a51.2,51.2,0,0,1-2.2-10.57C148.15,171,148.23,162.83,151.25,162.09Z" style="fill:#895d4a"/><path d="M151.37,177c-.08-2.18-.12-4.16-.1-5.91.34-.38.51-.15,1.07.07a5.69,5.69,0,0,1,2.84,3.44c0,1.23,0,2.5-.09,3.79s-.19,2.81-.31,4.14a17,17,0,0,1-1.24-1.68A25.86,25.86,0,0,1,151.37,177Z" style="fill:#754f42"/><path d="M152.46,183.89c.66-.3,1.8.57,2.53,2.23,1.45,3.25,1.74,7.62,1.76,13,0,5.7-.16,9.94-.41,13.44s1,8.36-1.6,7.77c.53-4.74.08-11.83-1.14-15.59C149.43,191.9,150.44,184.81,152.46,183.89Z" style="fill:#895d4a"/><polygon points="152.7 143.93 162.83 143.69 163.89 132.08 151.25 133.44 152.7 143.93" style="fill:#c95d4b"/><path d="M165.65,178.57l-17.22-2.25c-3.1-10.45-.39-22.17,4.25-32.51l10.21-.35C166.36,154.56,169.51,167.36,165.65,178.57Z" style="fill:#37193b"/><path d="M168.77,143.65,162,133.18a1.62,1.62,0,0,1,.62-.73l.19-.13a1.61,1.61,0,0,1,2.23.48L171,142Z" style="fill:#c95d4b"/><path d="M151.11,146.18l1.7-12.34a1.65,1.65,0,0,0-.86-.41l-.23,0a1.62,1.62,0,0,0-1.82,1.38l-1.49,10.78Z" style="fill:#c95d4b"/><rect x="165.21" y="151.4" width="1.15" height="2.77" rx="0.35" transform="translate(-33.38 47.14) rotate(-14.72)" style="fill:#895d4a"/><path d="M161.09,221c.71,2.3,1.79,4,2.4,3.82s.52-2.2-.2-4.5-1.79-4-2.4-3.82S160.37,218.73,161.09,221Z"/><path d="M161,219.71c.27,1.75,1.23,3.14,1.84,2.95s.62-1.65,0-3.32c-.76-2.11-1.08-2.74-1-4.14S159.93,213.11,161,219.71Z" style="fill:#895d4a"/><path d="M156,217.65a.06.06,0,0,1-.06.06h-.12s-.05,0-.05-.06h0a.06.06,0,0,1,.06,0h.11s.06,0,.06.06Z" style="fill:#e9d6b8"/><path d="M151.11,219c-.31,1.08,3,.8,3.92.56a11.43,11.43,0,0,1,1.37-.3.41.41,0,0,0,.11,0s0,.06,0,.08c0,.6.2,1.41-.75,1.36l-6-.29C144.88,220.18,151.12,219,151.11,219Z"/><path d="M136.82,138.33a3.07,3.07,0,0,1-.63-1.17c0-.32.12-1.86.12-1.86a1.85,1.85,0,0,1,.27,1.09A6,6,0,0,0,136.82,138.33Z" style="fill:#895d4a"/><path d="M137.13,138s.26,0,.31-.15a1.19,1.19,0,0,1,.07.23c0,.15.51,1.08.51,1.08a8.21,8.21,0,0,0-.64-.75,6,6,0,0,1-.45-.57,1.09,1.09,0,0,1-.05-.14Z" style="fill:#754f42"/><path d="M137.32,137.64c-.5-.63-.54-1-.52-1.14.12.15.31.38.6.71a5.4,5.4,0,0,1,.45.71,1.47,1.47,0,0,0-.06.85c0,.11-.42-.44-.61-.81C137.28,137.93,137.47,137.83,137.32,137.64Z" style="fill:#754f42"/></g><g id="Spend"><g id="Group_11692" data-name="Group 11692"><path id="Path_20983" data-name="Path 20983" d="M483.38,164.06v26.47h39.19V164.06Zm34.53,2.05h.3v.78h.84v-.78h.31v1.45h-1.45Zm-5.3,0h.3v.78h.84v-.78h.31v1.45h-1.45Zm-5.3,0h.3v.78h.84v-.78h.31v1.45h-1.45Zm-5.3,0h.3v.78h.84v-.78h.31v1.45H502Zm-5.3,0h.3v.78h.84v-.78h.31v1.45h-1.45Zm-5.3,0h.3v.78h.84v-.78h.31v1.45h-1.45Zm-5.3,0h.3v.78h.84v-.78h.31v1.45h-1.45Z" style="fill:#6ecedb"/><path id="Path_20984" data-name="Path 20984" d="M483.38,164.06V190.3h38.5V164.06Zm34.53,2.16h.3v.83h.84v-.83h.31v1.54h-1.45Zm-5.3,0h.3v.83h.84v-.83h.31v1.54h-1.45Zm-5.3,0h.3v.83h.84v-.83h.31v1.54h-1.45Zm-5.3,0h.3v.83h.84v-.83h.31v1.54H502Zm-5.3,0h.3v.83h.84v-.83h.31v1.54h-1.45Zm-5.3,0h.3v.83h.84v-.83h.31v1.54h-1.45Zm-5.3,0h.3v.83h.84v-.83h.31v1.54h-1.45Z" style="fill:#fff"/><path id="Path_20985" data-name="Path 20985" d="M483.38,164.06v5.86h38.5v-5.86Zm4.17,3.7h-1.44v-1.54h.3v.83h.84v-.83h.3Zm5.3,0h-1.44v-1.54h.3v.83h.84v-.83h.3Zm5.3,0h-1.44v-1.54h.3v.83h.84v-.83h.3Zm5.3,0H502v-1.54h.3v.83h.84v-.83h.3Zm5.3,0h-1.44v-1.54h.3v.83h.84v-.83h.3Zm5.3,0h-1.44v-1.54h.3v.83h.84v-.83h.3Zm5.3,0h-1.44v-1.54h.3v.83h.84v-.83h.3Z" style="fill:#6ecedb"/><g id="Group_11689" data-name="Group 11689"><g id="Group_11664" data-name="Group 11664"><g id="Group_11657" data-name="Group 11657"><rect id="Rectangle_5356" data-name="Rectangle 5356" x="516.67" y="171.56" width="2.71" height="2.88" style="fill:#c95d4b"/></g><g id="Group_11658" data-name="Group 11658"><rect id="Rectangle_5357" data-name="Rectangle 5357" x="511.55" y="171.56" width="2.71" height="2.88" style="fill:#c95d4b"/></g><g id="Group_11659" data-name="Group 11659"><rect id="Rectangle_5358" data-name="Rectangle 5358" x="506.43" y="171.56" width="2.71" height="2.88" style="fill:#6ecedb"/></g><g id="Group_11660" data-name="Group 11660"><rect id="Rectangle_5359" data-name="Rectangle 5359" x="501.31" y="171.56" width="2.71" height="2.88" style="fill:#6ecedb"/></g><g id="Group_11661" data-name="Group 11661"><rect id="Rectangle_5360" data-name="Rectangle 5360" x="496.19" y="171.56" width="2.71" height="2.88" style="fill:#6ecedb"/></g><g id="Group_11662" data-name="Group 11662"><rect id="Rectangle_5361" data-name="Rectangle 5361" x="491.08" y="171.56" width="2.71" height="2.88" style="fill:#6ecedb"/></g><g id="Group_11663" data-name="Group 11663"><rect id="Rectangle_5362" data-name="Rectangle 5362" x="485.96" y="171.56" width="2.71" height="2.88" style="fill:#6ecedb"/></g></g><g id="Group_11672" data-name="Group 11672"><g id="Group_11665" data-name="Group 11665"><rect id="Rectangle_5363" data-name="Rectangle 5363" x="516.67" y="176.25" width="2.71" height="2.88" style="fill:#c95d4b"/></g><g id="Group_11666" data-name="Group 11666"><rect id="Rectangle_5364" data-name="Rectangle 5364" x="511.55" y="176.25" width="2.71" height="2.88" style="fill:#c95d4b"/></g><g id="Group_11667" data-name="Group 11667"><rect id="Rectangle_5365" data-name="Rectangle 5365" x="506.43" y="176.25" width="2.71" height="2.88" style="fill:#6ecedb"/></g><g id="Group_11668" data-name="Group 11668"><rect id="Rectangle_5366" data-name="Rectangle 5366" x="501.31" y="176.25" width="2.71" height="2.88" style="fill:#6ecedb"/></g><g id="Group_11669" data-name="Group 11669"><rect id="Rectangle_5367" data-name="Rectangle 5367" x="496.19" y="176.25" width="2.71" height="2.88" style="fill:#6ecedb"/></g><g id="Group_11670" data-name="Group 11670"><rect id="Rectangle_5368" data-name="Rectangle 5368" x="491.08" y="176.25" width="2.71" height="2.88" style="fill:#6ecedb"/></g><g id="Group_11671" data-name="Group 11671"><rect id="Rectangle_5369" data-name="Rectangle 5369" x="485.96" y="176.25" width="2.71" height="2.88" style="fill:#6ecedb"/></g></g><g id="Group_11680" data-name="Group 11680"><g id="Group_11673" data-name="Group 11673"><rect id="Rectangle_5370" data-name="Rectangle 5370" x="516.67" y="180.93" width="2.71" height="2.88" style="fill:#c95d4b"/></g><g id="Group_11674" data-name="Group 11674"><rect id="Rectangle_5371" data-name="Rectangle 5371" x="511.55" y="180.93" width="2.71" height="2.88" style="fill:#c95d4b"/></g><g id="Group_11675" data-name="Group 11675"><rect id="Rectangle_5372" data-name="Rectangle 5372" x="506.43" y="180.93" width="2.71" height="2.88" style="fill:#6ecedb"/></g><g id="Group_11676" data-name="Group 11676"><rect id="Rectangle_5373" data-name="Rectangle 5373" x="501.31" y="180.93" width="2.71" height="2.88" style="fill:#6ecedb"/></g><g id="Group_11677" data-name="Group 11677"><rect id="Rectangle_5374" data-name="Rectangle 5374" x="496.19" y="180.93" width="2.71" height="2.88" style="fill:#6ecedb"/></g><g id="Group_11678" data-name="Group 11678"><rect id="Rectangle_5375" data-name="Rectangle 5375" x="491.08" y="180.93" width="2.71" height="2.88" style="fill:#6ecedb"/></g><g id="Group_11679" data-name="Group 11679"><rect id="Rectangle_5376" data-name="Rectangle 5376" x="485.96" y="180.93" width="2.71" height="2.88" style="fill:#6ecedb"/></g></g><g id="Group_11688" data-name="Group 11688"><g id="Group_11681" data-name="Group 11681"><rect id="Rectangle_5377" data-name="Rectangle 5377" x="516.67" y="185.62" width="2.71" height="2.88" style="fill:#c95d4b"/></g><g id="Group_11682" data-name="Group 11682"><rect id="Rectangle_5378" data-name="Rectangle 5378" x="511.55" y="185.62" width="2.71" height="2.88" style="fill:#c95d4b"/></g><g id="Group_11683" data-name="Group 11683"><rect id="Rectangle_5379" data-name="Rectangle 5379" x="506.43" y="185.62" width="2.71" height="2.88" style="fill:#6ecedb"/></g><g id="Group_11684" data-name="Group 11684"><rect id="Rectangle_5380" data-name="Rectangle 5380" x="501.31" y="185.62" width="2.71" height="2.88" style="fill:#6ecedb"/></g><g id="Group_11685" data-name="Group 11685"><rect id="Rectangle_5381" data-name="Rectangle 5381" x="496.19" y="185.62" width="2.71" height="2.88" style="fill:#6ecedb"/></g><g id="Group_11686" data-name="Group 11686"><rect id="Rectangle_5382" data-name="Rectangle 5382" x="491.08" y="185.62" width="2.71" height="2.88" style="fill:#6ecedb"/></g><g id="Group_11687" data-name="Group 11687"><rect id="Rectangle_5383" data-name="Rectangle 5383" x="485.96" y="185.62" width="2.71" height="2.88" style="fill:#6ecedb"/></g></g></g><g id="Group_11690" data-name="Group 11690"><rect id="Rectangle_5384" data-name="Rectangle 5384" x="518.21" y="166.22" width="0.84" height="0.83" style="fill:#fff"/><path id="Path_20986" data-name="Path 20986" d="M519.05,161.52v5.09a.44.44,0,0,1-.42.44h0a.43.43,0,0,1-.42-.44h0v-5.09a.42.42,0,0,1,.42-.44h0A.43.43,0,0,1,519.05,161.52Z" style="fill:#202952"/></g><g id="Group_11691" data-name="Group 11691"><rect id="Rectangle_5385" data-name="Rectangle 5385" x="486.41" y="166.22" width="0.84" height="0.83" style="fill:#fff"/><path id="Path_20987" data-name="Path 20987" d="M487.24,161.52v5.09a.43.43,0,0,1-.41.44h0a.43.43,0,0,1-.42-.44h0v-5.09a.42.42,0,0,1,.42-.44h0A.42.42,0,0,1,487.24,161.52Z" style="fill:#202952"/></g><rect id="Rectangle_5386" data-name="Rectangle 5386" x="490.04" y="165.29" width="24.96" height="3.33" style="fill:#6ecedb"/></g><g id="Group_11443" data-name="Group 11443" style="opacity:0.349999994039536"><g id="Group_11437" data-name="Group 11437"><rect id="Rectangle_5275" data-name="Rectangle 5275" x="251.76" y="108.6" width="3.2" height="13.37" style="fill:#8ed2e8"/></g><g id="Group_11438" data-name="Group 11438"><rect id="Rectangle_5276" data-name="Rectangle 5276" x="247.55" y="109.88" width="3.2" height="12.09" style="fill:#8ed2e8"/></g><g id="Group_11439" data-name="Group 11439"><rect id="Rectangle_5277" data-name="Rectangle 5277" x="243.35" y="111.15" width="3.2" height="10.82" style="fill:#8ed2e8"/></g><g id="Group_11440" data-name="Group 11440"><rect id="Rectangle_5278" data-name="Rectangle 5278" x="239.15" y="113.06" width="3.2" height="8.91" style="fill:#8ed2e8"/></g><g id="Group_11441" data-name="Group 11441"><rect id="Rectangle_5279" data-name="Rectangle 5279" x="255.91" y="113.06" width="3.2" height="8.91" style="fill:#8ed2e8"/></g><g id="Group_11442" data-name="Group 11442"><rect id="Rectangle_5280" data-name="Rectangle 5280" x="234.95" y="109.24" width="3.2" height="12.73" style="fill:#8ed2e8"/></g></g><g id="Group_11451" data-name="Group 11451"><g id="Group_11448" data-name="Group 11448"><path id="Path_20879" data-name="Path 20879" d="M236,135.78h0a1.12,1.12,0,0,1-1.08-1.16h0a1.11,1.11,0,0,1,1.08-1.15h0a1.12,1.12,0,0,1,1.09,1.15h0A1.13,1.13,0,0,1,236,135.78Z" style="fill:#8ed2e8"/><path id="Path_20880" data-name="Path 20880" d="M255.57,135.78H240.24a1.13,1.13,0,0,1-1.09-1.16h0a1.13,1.13,0,0,1,1.09-1.15h15.33a1.13,1.13,0,0,1,1.09,1.15h0A1.13,1.13,0,0,1,255.57,135.78Z" style="fill:#d0ebf5"/></g><g id="Group_11449" data-name="Group 11449"><path id="Path_20881" data-name="Path 20881" d="M236,132h0A1.12,1.12,0,0,1,235,130.8h0a1.12,1.12,0,0,1,1.08-1.15h0a1.12,1.12,0,0,1,1.09,1.15h0A1.13,1.13,0,0,1,236,132Z" style="fill:#8ed2e8"/><path id="Path_20882" data-name="Path 20882" d="M255.57,132H240.24a1.13,1.13,0,0,1-1.09-1.16h0a1.13,1.13,0,0,1,1.09-1.15h15.33a1.13,1.13,0,0,1,1.09,1.15h0A1.13,1.13,0,0,1,255.57,132Z" style="fill:#d0ebf5"/></g><g id="Group_11450" data-name="Group 11450"><path id="Path_20883" data-name="Path 20883" d="M236,128.14h0A1.12,1.12,0,0,1,235,127h0a1.12,1.12,0,0,1,1.08-1.15h0a1.12,1.12,0,0,1,1.09,1.15h0A1.13,1.13,0,0,1,236,128.14Z" style="fill:#8ed2e8"/><path id="Path_20884" data-name="Path 20884" d="M255.57,128.14H240.24a1.13,1.13,0,0,1-1.09-1.16h0a1.13,1.13,0,0,1,1.09-1.15h15.33a1.13,1.13,0,0,1,1.09,1.15h0A1.13,1.13,0,0,1,255.57,128.14Z" style="fill:#d0ebf5"/></g></g><g id="Group_11501" data-name="Group 11501"><g id="Group_11464" data-name="Group 11464"><g id="Group_11454" data-name="Group 11454"><g id="Group_11453" data-name="Group 11453"><path id="Path_20890" data-name="Path 20890" d="M489,186.83C489,180.26,484,175,477.76,175s-11.22,5.35-11.2,11.92,5.05,11.88,11.25,11.86S489,193.39,489,186.83Z" style="fill:#d69136"/></g></g><g id="Group_11456" data-name="Group 11456"><g id="Group_11455" data-name="Group 11455"><ellipse id="Ellipse_483" data-name="Ellipse 483" cx="477.79" cy="186.86" rx="10.6" ry="11.23" transform="translate(-0.37 0.96) rotate(-0.11)" style="fill:#ffb600"/></g></g><g id="Group_11458" data-name="Group 11458"><g id="Group_11457" data-name="Group 11457"><path id="Path_20891" data-name="Path 20891" d="M486.2,189.27l-.32-.09a9.2,9.2,0,0,0,.28-2.34,8.65,8.65,0,0,0-8.4-8.86,8,8,0,0,0-4.35,1.31l-.17-.3a8.32,8.32,0,0,1,4.52-1.36,9,9,0,0,1,8.74,9.2A9.94,9.94,0,0,1,486.2,189.27Z" style="fill:#fff"/></g></g><g id="Group_11460" data-name="Group 11460"><g id="Group_11459" data-name="Group 11459"><path id="Path_20892" data-name="Path 20892" d="M477.81,196.09a9,9,0,0,1-8.74-9.21,9.55,9.55,0,0,1,1.62-5.38l.27.2a9.19,9.19,0,0,0-1.56,5.18,8.66,8.66,0,0,0,8.4,8.86,8.26,8.26,0,0,0,7.09-4.18l.29.18A8.58,8.58,0,0,1,477.81,196.09Z" style="fill:#fff"/></g></g><g id="Group_11463" data-name="Group 11463"><g id="Group_11462" data-name="Group 11462"><g id="Group_11461" data-name="Group 11461"><path id="Path_20893" data-name="Path 20893" d="M478.55,193.31h-1.28v-1.45a5.18,5.18,0,0,1-2.36-.64l-.09-.05v-2.38l.27.23a3.56,3.56,0,0,0,1.07.57,5.34,5.34,0,0,0,1.11.29v-2.19a4.92,4.92,0,0,1-2-1.3,2.86,2.86,0,0,1-.6-1.81,2.79,2.79,0,0,1,.76-2,3.09,3.09,0,0,1,1.86-.92v-1.3h1.27v1.26a4.6,4.6,0,0,1,2,.47l.09.05v2.27l-.25-.16a4.46,4.46,0,0,0-1.79-.66v2.28a5.22,5.22,0,0,1,2,1.24,2.62,2.62,0,0,1,.66,1.8,2.7,2.7,0,0,1-.73,2,3.28,3.28,0,0,1-1.91.88Zm-.94-.35h.61v-1.47l.15,0a3,3,0,0,0,1.86-.8,2.53,2.53,0,0,0,.06-3.27,5.11,5.11,0,0,0-2-1.19l-.11,0v-2.92l.18,0a5,5,0,0,1,1.86.58v-1.44a4.66,4.66,0,0,0-1.88-.39h-.16v-1.24h-.61V182h-.15a2.81,2.81,0,0,0-1.8.84,2.34,2.34,0,0,0-.67,1.71,2.55,2.55,0,0,0,.52,1.59,4.83,4.83,0,0,0,2,1.23l.11.05v2.8h-.18a5,5,0,0,1-1.37-.32,4.14,4.14,0,0,1-.9-.43V191a4.9,4.9,0,0,0,2.28.56h.17Zm.6-2.71V187.7l.23.1c.68.31,1,.74,1,1.26a1.1,1.1,0,0,1-1,1.15h0Zm.33-2v1.58a.71.71,0,0,0,.59-.77,1,1,0,0,0-.59-.82Zm-1-2.32-.24-.12a1.54,1.54,0,0,1-1-1.34,1.13,1.13,0,0,1,1-1.17l.2,0Zm-.34-2.23a.75.75,0,0,0-.57.77,1.06,1.06,0,0,0,.58.88Z" style="fill:#fff"/></g></g></g><path id="Path_20894" data-name="Path 20894" d="M484.19,185.77c-.71.18-.84.33-1,1.08-.17-.75-.3-.9-1-1.07.71-.18.84-.32,1-1.07C483.35,185.46,483.48,185.6,484.19,185.77Z" style="fill:#fff"/></g><g id="Group_11476" data-name="Group 11476"><rect id="Rectangle_5282" data-name="Rectangle 5282" x="466.65" y="213.19" width="22.2" height="5.95" style="fill:#d69136"/><rect id="Rectangle_5283" data-name="Rectangle 5283" x="466.65" y="213.82" width="22.2" height="5.32" style="fill:#ffb600"/><g id="Group_11475" data-name="Group 11475"><g id="Group_11465" data-name="Group 11465"><rect id="Rectangle_5284" data-name="Rectangle 5284" x="486.58" y="214.68" width="0.69" height="3.6" style="fill:#d69136"/></g><g id="Group_11466" data-name="Group 11466"><rect id="Rectangle_5285" data-name="Rectangle 5285" x="484.52" y="214.68" width="0.69" height="3.6" style="fill:#d69136"/></g><g id="Group_11467" data-name="Group 11467"><rect id="Rectangle_5286" data-name="Rectangle 5286" x="482.45" y="214.68" width="0.69" height="3.6" style="fill:#d69136"/></g><g id="Group_11468" data-name="Group 11468"><rect id="Rectangle_5287" data-name="Rectangle 5287" x="480.39" y="214.68" width="0.69" height="3.6" style="fill:#d69136"/></g><g id="Group_11469" data-name="Group 11469"><rect id="Rectangle_5288" data-name="Rectangle 5288" x="478.32" y="214.68" width="0.69" height="3.6" style="fill:#d69136"/></g><g id="Group_11470" data-name="Group 11470"><rect id="Rectangle_5289" data-name="Rectangle 5289" x="476.26" y="214.68" width="0.69" height="3.6" style="fill:#d69136"/></g><g id="Group_11471" data-name="Group 11471"><rect id="Rectangle_5290" data-name="Rectangle 5290" x="474.19" y="214.68" width="0.69" height="3.6" style="fill:#d69136"/></g><g id="Group_11472" data-name="Group 11472"><rect id="Rectangle_5291" data-name="Rectangle 5291" x="472.13" y="214.68" width="0.69" height="3.6" style="fill:#d69136"/></g><g id="Group_11473" data-name="Group 11473"><rect id="Rectangle_5292" data-name="Rectangle 5292" x="470.06" y="214.68" width="0.69" height="3.6" style="fill:#d69136"/></g><g id="Group_11474" data-name="Group 11474"><rect id="Rectangle_5293" data-name="Rectangle 5293" x="468" y="214.68" width="0.69" height="3.6" style="fill:#d69136"/></g></g></g><g id="Group_11488" data-name="Group 11488"><rect id="Rectangle_5294" data-name="Rectangle 5294" x="467.57" y="207.24" width="22.2" height="5.95" style="fill:#d69136"/><rect id="Rectangle_5295" data-name="Rectangle 5295" x="467.57" y="207.87" width="22.2" height="5.32" style="fill:#ffb600"/><g id="Group_11487" data-name="Group 11487"><g id="Group_11477" data-name="Group 11477"><rect id="Rectangle_5296" data-name="Rectangle 5296" x="487.51" y="208.73" width="0.69" height="3.6" style="fill:#d69136"/></g><g id="Group_11478" data-name="Group 11478"><rect id="Rectangle_5297" data-name="Rectangle 5297" x="485.44" y="208.73" width="0.69" height="3.6" style="fill:#d69136"/></g><g id="Group_11479" data-name="Group 11479"><rect id="Rectangle_5298" data-name="Rectangle 5298" x="483.38" y="208.73" width="0.69" height="3.6" style="fill:#d69136"/></g><g id="Group_11480" data-name="Group 11480"><rect id="Rectangle_5299" data-name="Rectangle 5299" x="481.31" y="208.73" width="0.69" height="3.6" style="fill:#d69136"/></g><g id="Group_11481" data-name="Group 11481"><rect id="Rectangle_5300" data-name="Rectangle 5300" x="479.25" y="208.73" width="0.69" height="3.6" style="fill:#d69136"/></g><g id="Group_11482" data-name="Group 11482"><rect id="Rectangle_5301" data-name="Rectangle 5301" x="477.18" y="208.73" width="0.69" height="3.6" style="fill:#d69136"/></g><g id="Group_11483" data-name="Group 11483"><rect id="Rectangle_5302" data-name="Rectangle 5302" x="475.11" y="208.73" width="0.69" height="3.6" style="fill:#d69136"/></g><g id="Group_11484" data-name="Group 11484"><rect id="Rectangle_5303" data-name="Rectangle 5303" x="473.05" y="208.73" width="0.69" height="3.6" style="fill:#d69136"/></g><g id="Group_11485" data-name="Group 11485"><rect id="Rectangle_5304" data-name="Rectangle 5304" x="470.98" y="208.73" width="0.69" height="3.6" style="fill:#d69136"/></g><g id="Group_11486" data-name="Group 11486"><rect id="Rectangle_5305" data-name="Rectangle 5305" x="468.92" y="208.73" width="0.69" height="3.6" style="fill:#d69136"/></g></g></g><g id="Group_11500" data-name="Group 11500"><rect id="Rectangle_5306" data-name="Rectangle 5306" x="465.16" y="201.42" width="22.2" height="5.95" style="fill:#d69136"/><rect id="Rectangle_5307" data-name="Rectangle 5307" x="465.16" y="202.04" width="22.2" height="5.32" style="fill:#ffb600"/><g id="Group_11499" data-name="Group 11499"><g id="Group_11489" data-name="Group 11489"><rect id="Rectangle_5308" data-name="Rectangle 5308" x="485.1" y="202.9" width="0.69" height="3.6" style="fill:#d69136"/></g><g id="Group_11490" data-name="Group 11490"><rect id="Rectangle_5309" data-name="Rectangle 5309" x="483.03" y="202.9" width="0.69" height="3.6" style="fill:#d69136"/></g><g id="Group_11491" data-name="Group 11491"><rect id="Rectangle_5310" data-name="Rectangle 5310" x="480.96" y="202.9" width="0.69" height="3.6" style="fill:#d69136"/></g><g id="Group_11492" data-name="Group 11492"><rect id="Rectangle_5311" data-name="Rectangle 5311" x="478.9" y="202.9" width="0.69" height="3.6" style="fill:#d69136"/></g><g id="Group_11493" data-name="Group 11493"><rect id="Rectangle_5312" data-name="Rectangle 5312" x="476.83" y="202.9" width="0.69" height="3.6" style="fill:#d69136"/></g><g id="Group_11494" data-name="Group 11494"><rect id="Rectangle_5313" data-name="Rectangle 5313" x="474.77" y="202.9" width="0.69" height="3.6" style="fill:#d69136"/></g><g id="Group_11495" data-name="Group 11495"><rect id="Rectangle_5314" data-name="Rectangle 5314" x="472.7" y="202.9" width="0.69" height="3.6" style="fill:#d69136"/></g><g id="Group_11496" data-name="Group 11496"><rect id="Rectangle_5315" data-name="Rectangle 5315" x="470.64" y="202.9" width="0.69" height="3.6" style="fill:#d69136"/></g><g id="Group_11497" data-name="Group 11497"><rect id="Rectangle_5316" data-name="Rectangle 5316" x="468.57" y="202.9" width="0.69" height="3.6" style="fill:#d69136"/></g><g id="Group_11498" data-name="Group 11498"><rect id="Rectangle_5317" data-name="Rectangle 5317" x="466.51" y="202.9" width="0.69" height="3.6" style="fill:#d69136"/></g></g></g></g><path id="Path_20896" data-name="Path 20896" d="M524.16,64.59c-.12,6-10.75,6-10.75,6H428.8c-6.62-1.5-4.55-6.64-.42-7.89,1.88-.56,5.06-1.58,4.78-3-1-5.17-3.44-8.88,2.74-15,1.94-1.92,7.75-3.67,13.3-.57,4.57,2.54,7.51-7.27,17.43-12.12,7.46-3.65,17.63-1.64,20.32,10.55s9,4.08,10.07,2.71c3.09-4,12.28-1.86,13.71,3.73,2.7,10.54,5.53,8.88,7.92,9.52S524.22,61.44,524.16,64.59Z" style="fill:#a9e1f2"/><g id="Group_11534" data-name="Group 11534"><path id="Path_20896-2" data-name="Path 20896" d="M522.54,69.59c-.13,6-10.75,6-10.75,6H427.18c-6.62-1.5-4.55-6.64-.42-7.89,1.88-.56,5.05-1.58,4.78-3-1-5.17-3.44-8.88,2.74-15,1.94-1.92,7.74-3.67,13.3-.57,4.57,2.54,7.51-7.27,17.42-12.12,7.47-3.65,17.64-1.64,20.33,10.55s9,4.08,10.07,2.71c3.09-4,12.28-1.86,13.71,3.73,2.69,10.54,5.53,8.88,7.92,9.52S522.6,66.44,522.54,69.59Z" style="fill:url(#linear-gradient-5)"/><g id="Group_11533" data-name="Group 11533"><g id="Group_11528" data-name="Group 11528"><rect id="Rectangle_5342" data-name="Rectangle 5342" x="485.67" y="60.98" width="3.93" height="7.74" style="fill:#6ecedb"/></g><g id="Group_11529" data-name="Group 11529"><rect id="Rectangle_5343" data-name="Rectangle 5343" x="476.93" y="57.99" width="3.93" height="10.73" style="fill:#6ecedb"/></g><g id="Group_11530" data-name="Group 11530"><rect id="Rectangle_5344" data-name="Rectangle 5344" x="468.2" y="53.24" width="3.93" height="15.48" style="fill:#6ecedb"/></g><g id="Group_11531" data-name="Group 11531"><rect id="Rectangle_5345" data-name="Rectangle 5345" x="459.47" y="56.37" width="3.93" height="12.35" style="fill:#6ecedb"/></g><g id="Group_11532" data-name="Group 11532"><rect id="Rectangle_5346" data-name="Rectangle 5346" x="450.74" y="62.97" width="3.93" height="5.75" style="fill:#6ecedb"/></g></g></g></g><g id="Report"><g id="Group_10791" data-name="Group 10791"><path id="Path_20079" data-name="Path 20079" d="M260.12,76.77a15.14,15.14,0,0,0-12.78-9.12c-.37,0-.75,0-1.13,0a15.08,15.08,0,1,0,13.91,9.16Zm-9.69,13.85a8.95,8.95,0,1,1-4.22-16.84l.67,0a8.95,8.95,0,0,1,3.55,16.82Z" style="fill:#6ecedb"/><path id="Path_20080" data-name="Path 20080" d="M260.12,76.77l-5.68,2.44a9,9,0,0,0-7.56-5.41l.46-6.15A15.14,15.14,0,0,1,260.12,76.77Z" style="fill:#fff;opacity:0.319999992847443;isolation:isolate"/><path id="Path_20081" data-name="Path 20081" d="M253.34,96.07a15.21,15.21,0,0,1-12.48.81l2.19-5.78a9,9,0,0,0,7.38-.48Z" style="fill:#fff;opacity:0.479999989271164;isolation:isolate"/><path id="Path_20082" data-name="Path 20082" d="M260.57,87.5a15.19,15.19,0,0,1-7.23,8.57l-2.91-5.45a8.92,8.92,0,0,0,4.27-5.07Z" style="fill:#fff;opacity:0.72000002861023;isolation:isolate"/><path id="Path_20083" data-name="Path 20083" d="M247.34,67.65l-.46,6.15-.67,0A8.93,8.93,0,0,0,238.59,78l-5.27-3.21a15.07,15.07,0,0,1,12.89-7.22C246.59,67.61,247,67.62,247.34,67.65Z" style="fill:#fff;opacity:0.5799999833107;isolation:isolate"/></g><g id="Group_10814" data-name="Group 10814"><g id="Group_10811" data-name="Group 10811"><path id="Path_20116" data-name="Path 20116" d="M250.47,85.51H242a.32.32,0,0,1-.33-.32h0a.32.32,0,0,1,.33-.32h8.47a.32.32,0,0,1,.32.32h0A.32.32,0,0,1,250.47,85.51Z" style="fill:#a9e1f2"/></g><g id="Group_10812" data-name="Group 10812"><path id="Path_20117" data-name="Path 20117" d="M250.47,83.21H242a.32.32,0,0,1-.33-.32h0a.32.32,0,0,1,.33-.32h8.47a.32.32,0,0,1,.32.32h0A.32.32,0,0,1,250.47,83.21Z" style="fill:#a9e1f2"/></g><g id="Group_10813" data-name="Group 10813"><path id="Path_20118" data-name="Path 20118" d="M250.47,80.91H242a.32.32,0,0,1-.33-.32h0a.32.32,0,0,1,.33-.32h8.47a.32.32,0,0,1,.32.32h0A.32.32,0,0,1,250.47,80.91Z" style="fill:#a9e1f2"/></g></g><g id="Group_10819" data-name="Group 10819"><g id="Group_10815" data-name="Group 10815"><path id="Path_20119" data-name="Path 20119" d="M114.94,67.72a6,6,0,1,1-6.44-6l.46,0a6,6,0,0,1,6,6Z" style="fill:#d0ebf5"/><path id="Path_20120" data-name="Path 20120" d="M114,64.53,109,67.72l-.46-6,.46,0A6,6,0,0,1,114,64.53Z" style="fill:#28b5c8"/></g><g id="Group_10816" data-name="Group 10816"><path id="Path_20121" data-name="Path 20121" d="M130.83,67.72a6,6,0,1,1-6.44-6l.46,0a6,6,0,0,1,6,6Z" style="fill:#d0ebf5"/><path id="Path_20122" data-name="Path 20122" d="M129.91,64.53l-5.06,3.19-5.74,1.66A6,6,0,0,1,123.2,62a6.08,6.08,0,0,1,1.19-.22l.46,0A6,6,0,0,1,129.91,64.53Z" style="fill:#698ca0"/></g><g id="Group_10817" data-name="Group 10817"><path id="Path_20123" data-name="Path 20123" d="M99.33,67.72a6,6,0,1,1-.34-2A5.75,5.75,0,0,1,99.33,67.72Z" style="fill:#d0ebf5"/><path id="Path_20124" data-name="Path 20124" d="M99,65.75l-5.64,2-4.78-3.58A6,6,0,0,1,99,65.75Z" style="fill:#28b5c8"/></g><g id="Group_10818" data-name="Group 10818"><path id="Path_20125" data-name="Path 20125" d="M83.58,67.72a6,6,0,1,1-.33-2A6,6,0,0,1,83.58,67.72Z" style="fill:#d0ebf5"/><path id="Path_20126" data-name="Path 20126" d="M77.61,67.72l-1.48,5.8A5.87,5.87,0,0,1,73.46,72Z" style="fill:#822b0e"/></g></g><g id="Group_10823" data-name="Group 10823"><g id="Group_10820" data-name="Group 10820"><path id="Rectangle_5145" data-name="Rectangle 5145" d="M73.22,98.66h0a1.6,1.6,0,0,1,1.6,1.6h0a1.6,1.6,0,0,1-1.6,1.59h0a1.59,1.59,0,0,1-1.59-1.59h0A1.6,1.6,0,0,1,73.22,98.66Z" style="fill:#698ca0"/></g><g id="Group_10821" data-name="Group 10821"><path id="Rectangle_5146" data-name="Rectangle 5146" d="M73.22,91.67h0a1.6,1.6,0,0,1,1.6,1.6h0a1.6,1.6,0,0,1-1.6,1.59h0a1.59,1.59,0,0,1-1.59-1.59h0A1.6,1.6,0,0,1,73.22,91.67Z" style="fill:#28b5c8"/></g><g id="Group_10822" data-name="Group 10822"><path id="Rectangle_5147" data-name="Rectangle 5147" d="M73.22,84.68h0a1.6,1.6,0,0,1,1.6,1.6h0a1.6,1.6,0,0,1-1.6,1.59h0a1.59,1.59,0,0,1-1.59-1.59h0A1.6,1.6,0,0,1,73.22,84.68Z" style="fill:#822b0e"/></g><path id="Rectangle_5148" data-name="Rectangle 5148" d="M82.48,84.68h46.78a1.6,1.6,0,0,1,1.6,1.6h0a1.6,1.6,0,0,1-1.6,1.59H82.48a1.6,1.6,0,0,1-1.6-1.59h0A1.6,1.6,0,0,1,82.48,84.68Z" style="fill:#d0ebf5"/><path id="Rectangle_5149" data-name="Rectangle 5149" d="M82.48,91.67h46.78a1.6,1.6,0,0,1,1.6,1.6h0a1.6,1.6,0,0,1-1.6,1.59H82.48a1.6,1.6,0,0,1-1.6-1.59h0A1.6,1.6,0,0,1,82.48,91.67Z" style="fill:#d0ebf5"/><path id="Rectangle_5150" data-name="Rectangle 5150" d="M82.48,98.66h46.78a1.6,1.6,0,0,1,1.6,1.6h0a1.6,1.6,0,0,1-1.6,1.59H82.48a1.6,1.6,0,0,1-1.6-1.59h0A1.6,1.6,0,0,1,82.48,98.66Z" style="fill:#d0ebf5"/></g><polygon points="232.44 139.42 232.44 139.42 231.53 139.83 230.94 139.86 230.72 139.7 229.66 140.15 228.9 141.09 227.4 141.78 227.94 142.73 228.59 142.42 229.65 141.93 230.94 141.57 232.47 140.45 232.44 139.42" style="fill:#f8b5ab"/><path d="M230.94,141.57l1.53-1.12,0-1a.32.32,0,0,0-.19.24,6,6,0,0,0-.1.61l-1.08.74a2.51,2.51,0,0,0-1.56.28,12.76,12.76,0,0,0-1.25.78l.33.35,1.06-.49Z" style="fill:#fff;opacity:0.30000000000000004"/><path d="M213.64,138.33h0a1.54,1.54,0,0,0-1.19,1.2h0a1.47,1.47,0,0,0,.19,1l.32.54a1.55,1.55,0,0,0,.38.43l5.9,4.53a2.32,2.32,0,0,0,2.94.35c1.67-1,6.51-3.86,6.51-3.86l-.95-1-5.11,2-1.48.49a14,14,0,0,1-1.62-1.3c-1-.9-3.41-3.09-4.47-4A1.61,1.61,0,0,0,213.64,138.33Z" style="fill:#4c384c"/><polygon points="212.83 139.53 210.1 139.66 210.1 134.31 212.56 134.31 212.58 137.9 212.88 138.35 212.83 139.53" style="fill:#f8b5ab"/><path d="M212.58,137.81l1.68.43a1.92,1.92,0,0,1,1.27,1l1,2.21a5.58,5.58,0,0,1,.84,3.56c-.16,2.23.75,8.69,1,10.12s1,2.32,0,2.28-7.55-.34-8.1-.55-.42-.5,0-1.09.81-2.5.42-5.81-4-7.7-3.75-9.28,2.59-2.74,3.19-3.08c0,0,2.94,3.25,2.52.61A3.14,3.14,0,0,1,212.58,137.81Z" style="fill:#4c384c"/><polygon points="211.37 136.49 215.11 136.72 215.4 134.58 215.74 134.31 215.59 132.96 215.84 130.08 211.95 128.83 209.62 131.43 209.62 135.6 211.37 136.49" style="fill:#f8b5ab"/><g style="opacity:0.2"><path d="M215.4,134.58l.34-.27-.15-1.35.25-2.88-1.61-.52a6,6,0,0,1,.85,2.3c0,1.11-.14,2.7-.14,2.7l-.58,1.67-1.79.29.08,0,2.46.15Z" style="fill:#fff"/></g><path d="M213.83,128c-4.24-1.3-5.61,2.06-5.38,3a3.06,3.06,0,0,1-.15,2.27c-1.11,1-.33,1.93.33,2.43a2.69,2.69,0,0,0,2.27.33,2,2,0,0,1,.59-.16l.41-.09c1.27-.25.73-1.26.73-1.26s-1.91-1.64-.22-2.19a4,4,0,0,0,2.71-2.54c.7.42.57,1.93.57,1.93S218.07,129.34,213.83,128Z" style="fill:#5e3e0a"/><path d="M211.24,136l-.17.05Z" style="fill:none"/><path d="M215.12,129.85l.47.75A1.18,1.18,0,0,0,215.12,129.85Z" style="fill:none"/><path d="M215.69,131.19a4,4,0,0,0-.09-.57Z" style="fill:none"/><path d="M212.73,131c-2,.32-2.28,2-1.24,3.08a1.07,1.07,0,0,1-.25,1.86l.25,0,.41-.09c1.27-.25.73-1.26.73-1.26s-1.91-1.64-.22-2.19a4,4,0,0,0,2.71-2.54S214.78,130.72,212.73,131Z" style="fill:#fff;opacity:0.2"/><path d="M215.59,130.6v0h0Z" style="fill:#fff"/><path d="M215.69,131.19a4.79,4.79,0,0,1,0,.59l.08-.1-.05-.26Z" style="fill:#fff"/><path d="M218.34,155.18c-.23-1.43-1.14-7.89-1-10.12a5.58,5.58,0,0,0-.84-3.56l-1-2.21a28.5,28.5,0,0,0,1.21,5.09c.6,1.23.54,4.3.48,5.22a29,29,0,0,1-1.83,7.73c1,0,2.63.13,3,.13C219.37,157.5,218.56,156.6,218.34,155.18Z" style="fill:#fff;opacity:0.1"/><polygon points="208.41 152.99 209.72 154.6 211.03 153.56 213.61 154.16 212.58 155.09 211.35 155.09 210.23 155.73 209.25 155.66 207.57 153.85 208.41 152.99" style="fill:#f8b5ab"/><path d="M210.14,140.27h0a1.68,1.68,0,0,0-1.4-1.06h-.18a1.74,1.74,0,0,0-1.05.32l-.28.37a4.67,4.67,0,0,0-.41.67l-3.59,6.37a2.08,2.08,0,0,0,.17,2.82c1.37,1.38,4.52,4.6,4.52,4.6l.85-1.07-2.31-3.64-.77-1.3a13.32,13.32,0,0,1,1-1.75c.74-1.11,2.56-3.77,3.31-4.93A1.43,1.43,0,0,0,210.14,140.27Z" style="fill:#4c384c"/><path d="M206.51,145.82a10.5,10.5,0,0,0-1.54,2.32c-.06.54,2.48,4.17,3.59,5.41l.14-.36-2.24-3.54-.77-1.3a13.32,13.32,0,0,1,1-1.75c.74-1.11,2.56-3.77,3.31-4.93C210,141.67,209.19,141.45,206.51,145.82Z" style="fill:#fff;opacity:0.1"/><g style="opacity:0.1"><path d="M228.69,142.52l-.44-.45c-2.11,1.42-5.93,4.21-6.11,4.33l0,0C223.85,145.35,228.69,142.52,228.69,142.52Z" style="fill:#fff"/></g><path d="M57.83,192.87a4.5,4.5,0,0,1-2.76-.9c-1.4-1.08-2-3-1.8-5.74a18.59,18.59,0,0,1,1.8-5.67c1.44-3.31,3.06-7.06,2.21-12l1.58-.22c.92,5.35-.87,9.47-2.3,12.77a17.37,17.37,0,0,0-1.69,5.25c-.16,2.2.26,3.78,1.23,4.55a2.91,2.91,0,0,0,2.11.53l.32,1.41A4.89,4.89,0,0,1,57.83,192.87Z" style="fill:#484f59"/><path d="M68.9,192.87a4.52,4.52,0,0,1-2.77-.9c-1.39-1.08-2-3-1.79-5.74a18.29,18.29,0,0,1,1.79-5.67c1.44-3.31,3.07-7.06,2.21-12l1.59-.22c.91,5.35-.87,9.47-2.31,12.77a17.37,17.37,0,0,0-1.69,5.25c-.16,2.2.26,3.78,1.23,4.55a2.93,2.93,0,0,0,2.12.53l.32,1.41A5.27,5.27,0,0,1,68.9,192.87Z" style="fill:#484f59"/><path d="M70.09,210.23l1.56,2.13-13.08,3.76s-.87-.75,2.34-2.26C64.64,212.11,70.09,210.23,70.09,210.23Z" style="fill:#a8a1b1"/><path d="M72.42,210.23l-1.56,2.13,13.08,3.76s.87-.75-2.34-2.26C77.87,212.11,72.42,210.23,72.42,210.23Z" style="fill:#a8a1b1"/><rect x="69.89" y="197.92" width="2.73" height="14.43" style="fill:#a8a1b1"/><path d="M69.92,210.67l1.33,2-11.2,3.59s-.74-.72,2-2.16C65.25,212.47,69.92,210.67,69.92,210.67Z" style="fill:#c6c7c9"/><path d="M72.59,210.67l-1.33,2,11.19,3.59s.75-.72-2-2.16C77.26,212.47,72.59,210.67,72.59,210.67Z" style="fill:#c6c7c9"/><path d="M61.32,217.11a1,1,0,0,1-1.9,0,1,1,0,0,1,1.9,0Z" style="fill:#161711"/><path d="M83,217.11a1,1,0,1,1-1-.86A.91.91,0,0,1,83,217.11Z" style="fill:#161711"/><path d="M59,217.11a1,1,0,0,1-1.9,0,1,1,0,0,1,1.9,0Z" style="fill:#484f59"/><path d="M85.32,217.11a1,1,0,1,1-.95-.86A.91.91,0,0,1,85.32,217.11Z" style="fill:#484f59"/><rect x="70.22" y="194.72" width="2" height="3.14" style="fill:#484f59"/><path d="M73.72,193.06a1.85,1.85,0,0,1-2,1.74h-1.1a1.85,1.85,0,0,1-2-1.74h0a1.86,1.86,0,0,1,2-1.76h1.1a1.86,1.86,0,0,1,2,1.76Z" style="fill:#484f59"/><path d="M86.08,191.46c0-.21.07-1.5.07-1.72a2.42,2.42,0,0,0-2.27-2.56H58.56a2.42,2.42,0,0,0-2.27,2.56c0,.22,0,1.51.07,1.72Z" style="fill:#ad5c49"/><path d="M56.05,192.15a.72.72,0,0,0,.63.78H85.76a.72.72,0,0,0,.63-.78h0a.72.72,0,0,0-.63-.78H56.68a.72.72,0,0,0-.63.78Z" style="fill:#484f59"/><path d="M57.47,178.33c.62,0,4.59.1,5.28.11,4.34.05,8.09-.68,8.29-1.65a30,30,0,0,0,.12-12.08c-.19-1-4-1.69-8.43-1.64-.69,0-4.74.07-5.38.11A29.48,29.48,0,0,1,57.47,178.33Z" style="fill:#ad5c49"/><path d="M56.87,163.18c-.48,0-.82.21-.76.47a29.37,29.37,0,0,1,.14,14.22c-.06.25.27.46.75.46h0c.48,0,.92-.19,1-.45a29.37,29.37,0,0,0-.11-14.25c-.06-.25-.51-.45-1-.45Z" style="fill:#484f59"/><path d="M57,178.23a10.57,10.57,0,0,0,1.14.07,2.23,2.23,0,0,0,2.11-1.69,29.39,29.39,0,0,0-.06-11.89A2.28,2.28,0,0,0,58,163c-.16,0-1,0-1.17.07A29.4,29.4,0,0,1,57,178.23Z" style="fill:#975140"/><polygon points="79.28 210.99 82.84 212.62 85.62 207.75 82.05 206.11 79.28 210.99" style="fill:#593446"/><path d="M94.06,182.75l-13.2,23.84,4.41,1.77s15.92-23.11,14.8-24.65S94.64,181.73,94.06,182.75Z" style="fill:#163f59"/><path d="M78.64,212.49l2.6,1.19.41-.71.73,1.23,6.55,3s.44-1-3.88-3.19c-1.11-.55-1.12-2.3-1.12-2.3s-.3-.72-1.76,0c-.38.18-2.45-1.44-2.45-1.44A5.3,5.3,0,0,0,78.64,212.49Z" style="fill:#081832"/><path d="M64.62,167s-2.58,7.16-4.26,9.34a11.88,11.88,0,0,0-2.13,6.22c.13,1.43.28,6.09,3.06,6.34a104.39,104.39,0,0,0,11.6-.12s4.4-10.17,4.26-11.49a16.63,16.63,0,0,0-1.26-3.53c-.2-.65,1.13-3.17,1.13-3.17Z" style="fill:#163f59"/><path d="M73.29,181.52l21.39,10s7.4-6.78,4.33-8.57c-5.93-3.48-23.12-9.16-23.12-9.16Z" style="fill:#163f59"/><polygon points="95.28 211.46 95.59 216.63 100.1 216.5 98.92 210.63 95.28 211.46" style="fill:#593446"/><path d="M61.56,188.94l28.27-.09s5.19-2.06,2.68-4.78c-1.61-1.74-21.16-5.12-26.82-5.18C54.23,178.77,61.56,188.94,61.56,188.94Z" style="fill:#194866"/><path d="M85.55,188.34l9.39,24,4.88-1.08s-4.17-25.46-7.34-26.15S85.33,187.53,85.55,188.34Z" style="fill:#194866"/><path d="M95.63,217.24l3.06.08,0-.83,1.3.87,7.73.22s-.1-1.14-5.28-1.47c-1.34-.08-2.21-1.73-2.21-1.73s-.65-.56-1.69.67c-.27.31-3.06-.39-3.06-.39A5.28,5.28,0,0,0,95.63,217.24Z" style="fill:#081832"/><path d="M72.65,179.53c-1.35,4.06-2.36,7-2.36,7l-10.45-.82c-1.14-3-1.31-6.92,5.85-6.84A69.35,69.35,0,0,1,72.65,179.53Z" style="fill:#163f59"/><path d="M97.61,152.38l-1-3,.9-1.7,2.4.71,1.6.81.4,1.17s-.9,2.33-2.29,2.87A1.57,1.57,0,0,1,97.61,152.38Z" style="fill:#fdd1b1"/><path d="M80.32,138.92a7.39,7.39,0,0,1-2.6,5.48c-2.7,2.24,7.3,3.23,7.3,3.23s-1.77-3.47,3.63-3.74C91.52,143.74,81.52,138,80.32,138.92Z" style="fill:#efc8ac"/><path d="M89.52,149.51s3.9,17,7.6,19.48,2.3-1.62,1.89-4.76-3-12.56-3.79-13.64S90.72,147.9,89.52,149.51Z" style="fill:#163f59"/><path d="M72.19,145.26a79.24,79.24,0,0,1,9.5,1.17c4.64.88,9.22,2.32,9.86,2.9,1.33,1.2-.93,9.69-6.4,14.48a35.51,35.51,0,0,0-7.86,9.57s-15.46,1.32-16.4.84c1.45.75,2-7.92,2.4-8.49,1.2-1.8,5.6-13.77,4.8-16.16A3.44,3.44,0,0,1,72.19,145.26Z" style="fill:#d1dbea"/><path d="M85.15,161.66a43,43,0,0,0,.53-5.63c.14-3.47.14-8.73.14-8.73l3.86,1.19.27,3.95-1.73.36,1.06,2.75A55.92,55.92,0,0,1,85.15,161.66Z" style="fill:#163f59"/><path d="M75.14,173.66l1.58.65a74.1,74.1,0,0,0,6.13-28.24l-1.48.05A72.37,72.37,0,0,1,75.14,173.66Z" style="fill:#b0bfde"/><polygon points="62.01 174.99 78.05 174.38 77.98 172.95 61.94 173.56 62.01 174.99" style="fill:#163f59"/><polygon points="68.96 175.31 69.57 175.28 69.46 172.89 68.85 172.91 68.96 175.31" style="fill:#163f59"/><polygon points="62.14 175.56 62.75 175.54 62.64 173.15 62.03 173.17 62.14 175.56" style="fill:#163f59"/><path d="M96.61,167.64s.8,2.42,2.81,2.51,3.09-3.5,2.79-8.34a63.88,63.88,0,0,0-1.2-8.89l-3.09-.36S95.61,166.56,96.61,167.64Z" style="fill:#194866"/><path d="M81.92,136.5c1.1-2,6.11-3.73,6.92-2.62a4.11,4.11,0,0,1,.7,1.43c.1.55.2,1.1.3,1.63a1.16,1.16,0,0,1,0,.37,0,0,0,0,1,0,0v6.23a.36.36,0,0,1-.38.35H84.93a21.87,21.87,0,0,1-3.12-2.41,9,9,0,0,1-1.28-1.25C80.22,139.73,80.93,138.27,81.92,136.5Z" style="fill:#fdd1b1"/><polygon points="87.95 135.67 86.3 138.23 84.65 140.79 87.95 140.79 91.24 140.79 89.6 138.23 87.95 135.67" style="fill:#fdd1b1"/><path d="M80.12,140.44l.58-3c.22-1.17.3-3.21,1.29-4a3.07,3.07,0,0,1,1.37-.53,21.06,21.06,0,0,1,3.55-.27c1,0,3.2.19,3.49,1.46.12.5-.44,1.18-.7,1.64L86,135.43l.67,2.18L85.86,140l-.9,0,0,.06a2.27,2.27,0,0,0-.63-2c-.86-.63-1.64.18-1.29,1.06s.24,1.16.24,1.16L82,141.2Z" style="fill:#3f2a01"/><path d="M82.55,145.65l.94,1.41s-.37.95-.57,1a9.94,9.94,0,0,1-1.47-.09,8.28,8.28,0,0,1-.3-1.23C81.12,146.34,82.55,145.65,82.55,145.65Z" style="fill:#ad5c49"/><polygon points="82.49 145.38 82.49 146.82 83.82 148.85 85.82 147.3 85.15 145.26 82.49 145.38" style="fill:#b0bfde"/><polygon points="77.42 144.07 76.35 145.62 79.69 148.25 82.49 146.82 82.49 145.38 77.42 144.07" style="fill:#b0bfde"/><path d="M73.16,144.19l3.93.3s4,5.74-.34,19.68C74,173,70.09,184.51,70.09,184.51l-13.73-1.07s5-7.79,5.86-15.44c.67-6.07.29-12.42,1.07-14.36,1-2.43-.6-4.87.47-6.22C66.65,143.77,72.18,144.1,73.16,144.19Z" style="fill:#194866"/><path d="M81.58,147.37l.92.12a57.8,57.8,0,0,1-1.45,21.09,3.26,3.26,0,0,1-1.27,1.65l-.93-1.64S80.83,157.3,81.58,147.37Z" style="fill:#ad5c49"/><path d="M88.75,170a17.27,17.27,0,0,0,1.73.32c.69.1,1.74.3,1.74.3l2.66-.18,1.27-.3-.74-1.55-1.66-1.08s-1.72-1.12-2.13-1-2.6.66-2.6.66Z" style="fill:#fdd1b1"/><path d="M73.23,170.61l-4,1.37s-5.5-12-6.45-16.22c-.51-2.29-.48-7.76,1.36-9.25a11.1,11.1,0,0,1,6.3-2.2,76.16,76.16,0,0,1,2.23,8.84C72.87,155.43,73.23,170.61,73.23,170.61Z" style="fill:#163f59"/><path d="M77.09,144.49l-2-.18.13,4.24,1.6,2.16-2.07,1.79s1.67,9.4.94,13.23,3.18-6.66,2.93-14.3A18.66,18.66,0,0,0,77.09,144.49Z" style="fill:#163f59"/><path d="M82.14,167.08l.21-.31c.28-.46.45-1,.71-1.47,1.06-2,2.4-4.25,2.62-6.51.27-2.64.14-11.49.14-11.49l6.93,1.79c-1,3.54-2,7.1-2.64,10.71-.06.3-.06.65-.13.95a7.22,7.22,0,0,1-.86,1.62,39.51,39.51,0,0,0-1.89,3.73,27.86,27.86,0,0,0-1.72,5.18,25.39,25.39,0,0,0-.37,2.74c-.06.52-.08,2.36-.56,2.66s-2.27-.55-2.78-.7l-3-.84a2.53,2.53,0,0,1-1-.43c-.84-.72-.25-1.91.3-2.56.94-1.12,1.87-2.25,2.75-3.41C81.29,168.2,81.75,167.65,82.14,167.08Z" style="fill:#194866"/><path d="M69,171.31s.71,2.16,5.41,1.4,15-2.69,15-2.69l.21-4.06s-11.79,1-13.93,1.29S69,166.91,69,171.31Z" style="fill:#163f59"/></g></g></svg>