<svg xmlns="http://www.w3.org/2000/svg" xmlns:xlink="http://www.w3.org/1999/xlink" viewBox="0 0 329.06 246.47"><defs><linearGradient id="linear-gradient" x1="-346.57" y1="259.15" x2="-346.3" y2="259.72" gradientTransform="matrix(-295.26, 64.3, -49.26, -226.19, -89369.84, 81079.25)" gradientUnits="userSpaceOnUse"><stop offset="0" stop-color="#608a93"/><stop offset="0.36" stop-color="#628c94"/><stop offset="0.51" stop-color="#699199"/><stop offset="0.63" stop-color="#769aa2"/><stop offset="0.73" stop-color="#88a7ae"/><stop offset="0.82" stop-color="#9fb8be"/><stop offset="0.9" stop-color="#bccdd2"/><stop offset="0.97" stop-color="#dde6e8"/><stop offset="1" stop-color="#f0f3f5"/></linearGradient></defs><title>Build WP</title><g id="Layer_2" data-name="Layer 2"><g id="Plan"><path id="Path_20835" data-name="Path 20835" d="M28.61,189.17C40,200.82,53.21,210.76,64.85,216.3c48.08,22.89,89.22-1.66,108.11-12.78,41.79-24.59,114.12-13.25,145.28-33.54,18.95-12.34,12.17-32.89-13.75-60.71-11.2-12-26-25.4-43.78-40.06C208.89,26.58,129.62-5.4,101,.76,42.88,13.25,69.37,108.23,37.62,110.51-19.92,114.64-1.93,158,28.61,189.17Z" style="opacity:0.30000000000000004;isolation:isolate;fill:url(#linear-gradient)"/><polyline points="286.38 23.02 42.18 23.02 42.18 188.91 286.38 188.91 286.38 23.02" style="fill:#bfbfbf"/><path d="M294.84,184.64c0,3-62.46,5.43-139.5,5.43s-139.5-2.44-139.5-5.43,62.46-5.44,139.5-5.44S294.84,181.63,294.84,184.64Z" style="fill:#9faad4;opacity:0.219999998807907;isolation:isolate"/><rect x="36.64" y="18.17" width="244.2" height="165.9" style="fill:#75b3d0"/><rect x="42.28" y="38.08" width="232.92" height="141.12" style="fill:#fff"/><rect x="42.28" y="30.08" width="50.84" height="8" style="fill:#91c2d9"/><rect x="94.96" y="30.08" width="50.84" height="8" style="fill:#91c2d9"/><rect x="147.64" y="30.08" width="50.84" height="8" style="fill:#91c2d9"/><path d="M251.62,34.13h-11.1V23h11.1Zm-9-2.07h7v-7h-7Z" style="fill:#91c2d9"/><rect x="269.66" y="22.19" width="2.07" height="12.74" transform="translate(59.07 199.76) rotate(-44.99)" style="fill:#91c2d9"/><rect x="264.18" y="27.53" width="12.74" height="2.07" transform="translate(58.98 199.59) rotate(-44.98)" style="fill:#91c2d9"/><rect x="42.28" y="38.08" width="70.64" height="141.12" style="fill:#e3f1fb"/><rect x="129.62" y="54.25" width="141.07" height="17.22" style="fill:#608a93;opacity:0.7000000000000001"/><rect x="129.62" y="75.4" width="141.07" height="17.22" style="fill:#7d677d;opacity:0.7000000000000001"/><rect x="129.62" y="96.54" width="141.07" height="17.22" style="fill:#986e65;opacity:0.7000000000000001"/><rect x="53" y="57.63" width="51.14" height="16.19" rx="3.1" style="fill:#c8e1ec"/><rect x="58.81" y="81.61" width="51.14" height="16.19" rx="3.1" style="fill:#fff"/><rect x="69.31" y="85.59" width="35.32" height="1.03" style="fill:#75b3d0"/><rect x="65.25" y="88.68" width="39.39" height="1.03" style="fill:#75b3d0"/><rect x="65.25" y="91.77" width="39.39" height="1.03" style="fill:#75b3d0"/></g><g id="People"><path d="M81.23,231c0,1-16.09,1.79-35.93,1.79S9.36,232,9.36,231s16.09-1.78,35.94-1.78S81.23,230,81.23,231Z" style="fill:#9faad4;opacity:0.219999998807907;isolation:isolate"/><path d="M39.58,180.51H53.64l10.5,50.22h7.38l-12-57.44H33.84l-.65,2.8L20.61,230.73H28C31.45,215.86,37.59,189.18,39.58,180.51Z" style="fill:#005378"/><rect x="30.81" y="198.1" width="31.54" height="5.93" style="fill:#005378"/><path d="M129,230.79c0,1.1-11.59,2-25.88,2s-25.88-.88-25.88-2,11.59-2,25.88-2S129,229.7,129,230.79Z" style="fill:#9faad4;opacity:0.219999998807907;isolation:isolate"/><rect x="85.93" y="211.3" width="34.94" height="6.57" style="fill:#005378"/><path d="M95.65,200.75h15.57L117.54,231h8.18l-8-38.21H89.28l-.71,3.1c-3.34,14.49-6,26-8.08,35.11H88.7C91.57,218.48,94.38,206.29,95.65,200.75Z" style="fill:#005378"/><rect x="127.36" y="156.95" width="5.45" height="0.36" style="fill:#24415e"/><rect x="127.36" y="164.64" width="5.45" height="0.36" style="fill:#24415e"/><rect x="127.36" y="160.8" width="5.45" height="0.35" style="fill:#24415e"/><rect x="130.36" y="162.07" width="5.45" height="0.36" style="fill:#24415e"/><rect x="130.36" y="155.67" width="5.45" height="0.36" style="fill:#24415e"/><rect x="133.28" y="158.58" width="3.5" height="0.36" style="fill:#24415e"/><rect x="128.93" y="163.36" width="3.5" height="0.36" style="fill:#24415e"/><rect x="127.36" y="158.26" width="3.67" height="0.29" style="fill:#24415e"/><rect x="131.35" y="159.54" width="2.36" height="0.29" style="fill:#24415e"/><path d="M142.09,167.23H126V153.44h16.13Zm-15.78-.35h15.43v-13.1H126.31Z" style="fill:#24415e"/><rect x="142.08" y="142.38" width="4.23" height="0.28" style="fill:#24415e"/><rect x="142.08" y="148.35" width="4.23" height="0.28" style="fill:#24415e"/><rect x="142.08" y="145.36" width="4.23" height="0.28" style="fill:#24415e"/><rect x="144.41" y="146.36" width="4.24" height="0.28" style="fill:#24415e"/><rect x="144.41" y="141.38" width="4.24" height="0.28" style="fill:#24415e"/><rect x="146.68" y="143.64" width="2.72" height="0.28" style="fill:#24415e"/><rect x="143.3" y="147.35" width="2.72" height="0.28" style="fill:#24415e"/><rect x="142.08" y="143.4" width="2.85" height="0.23" style="fill:#24415e"/><rect x="145.18" y="144.39" width="1.83" height="0.23" style="fill:#24415e"/><path d="M153.52,150.36H141V139.65h12.53Zm-12.25-.27h12V139.92h-12Z" style="fill:#24415e"/><path d="M133.71,183.27H118.23a.75.75,0,0,0-.74.75h0a.75.75,0,0,0,.74.75h15.48a.75.75,0,0,0,.74-.75h0A.75.75,0,0,0,133.71,183.27Z" style="fill:#75b3d0"/><path d="M137.29,184.77H131l6.83-15a1.12,1.12,0,0,1,1-.65h6a.38.38,0,0,1,.35.54l-6.47,14.21A1.55,1.55,0,0,1,137.29,184.77Z" style="fill:#75b3d0"/><path d="M139.39,177.35a1,1,0,1,1-1.68-.83,1,1,0,1,1,1.68.83Z" style="fill:#acd1e3"/><path d="M132.87,227.24l11.54.32v-.4a1,1,0,0,0-.71-.92l-3.59-1.42-2.71-2-.54-1.46-3.63.11,0,1.85-.32,2.71Z" style="fill:#59433b"/><path d="M137.56,222.45l-4.74,1.11-10-37.38,2.91-.68a5.11,5.11,0,0,1,6.14,3.81Z" style="fill:#1b3147"/><polygon points="108.02 149.85 117.63 152.08 118.89 148.99 120.5 147.97 119.81 144.82 120.42 139.19 111.01 137 108.02 149.85" style="fill:#fdc689"/><rect x="107.76" y="147.73" width="4.31" height="7.02" transform="translate(182.69 323.45) rotate(-166.9)" style="fill:#fdc689"/><path d="M114.55,137.82a3.83,3.83,0,1,0,4.6-2.86A3.84,3.84,0,0,0,114.55,137.82Z" style="fill:#8e7e5f"/><path d="M110.35,137.24a3.83,3.83,0,1,0,4.6-2.86A3.84,3.84,0,0,0,110.35,137.24Z" style="fill:#8e7e5f"/><path d="M108.79,140.82a2.8,2.8,0,1,0,3.37-2.09A2.81,2.81,0,0,0,108.79,140.82Z" style="fill:#8e7e5f"/><path d="M116.47,141.75l-.55,2.39-.6-.14,0-1.27-1.09.14-.88.66-.6,1.67c-2,1.69-1.88,2.16-3.3,1.91h0c-1-.18-1-.64-.73-1.61l.25-3.34,3.31-2.46,2.68-.14,2.13,1.72Z" style="fill:#8e7e5f"/><path d="M111.8,189.78l-17-4.46,7.72-29.47a6.37,6.37,0,0,1,8.79-4.19l.74.34c5,2.26,3.79,11.12,3,17.56Z" style="fill:#fff"/><path d="M133.3,194.79l-32.85-1.46a5.93,5.93,0,0,1-5.7-6.15l.08-2.05,38.77,1.69Z" style="fill:#1b3147"/><path d="M133.54,193.35l-32.87,0a5.92,5.92,0,0,1-5.92-5.93v-2.05l38.79,0Z" style="fill:#24415e"/><path d="M139.24,227.84l11.54.32v-.4a1,1,0,0,0-.71-.92l-3.59-1.42-2.71-2-.55-1.46-3.62.11,0,1.85-.32,2.71Z" style="fill:#76594e"/><path d="M144,222.45l-4.74,1.11-10-37.38,2.92-.68a5.11,5.11,0,0,1,6.14,3.81Z" style="fill:#24415e"/><polygon points="120.95 179.42 123.12 180.06 125.58 179.4 127.28 180.46 128.35 182.93 127.75 183.22 126.25 181.55 125.27 181.39 123.91 182.38 122.58 182.14 121.45 181.6 119.9 181.14 120.95 179.42" style="fill:#fdc689"/><path d="M108.55,177.29l12.64,4.48,1.4-2.17-11.08-6.18,1.41-16.77a3.17,3.17,0,0,0-3.49-3.23h0a3.16,3.16,0,0,0-2.82,3.47l1,19A1.55,1.55,0,0,0,108.55,177.29Z" style="fill:#f0ecec"/><polygon points="118.63 149.63 116.22 147.41 115.92 144.14 115.32 144 113.81 146.81 112.81 148.31 112.81 150.96 117.63 152.08 118.63 149.63" style="fill:#24415e;opacity:0.2"/><path d="M304.44,236.08c0,1-31.86,1.79-71.17,1.79s-71.16-.8-71.16-1.79,31.86-1.78,71.16-1.78S304.44,235.1,304.44,236.08Z" style="fill:#9faad4;opacity:0.219999998807907;isolation:isolate"/><path d="M219.58,235.11l-10.42.3V235a.86.86,0,0,1,.64-.83l3.24-1.28,2.45-1.77.49-1.32,3.27.1,0,1.67.29,2.45Z" style="fill:#76594e"/><polygon points="256.66 148.93 247.76 148.93 247.28 145.96 246.07 144.74 247.33 142.1 247.94 137.03 256.66 137.03 256.66 148.93" style="fill:#fdc689"/><rect x="252.77" y="146.6" width="3.89" height="6.34" style="fill:#fdc689"/><rect x="172.64" y="179.19" width="0.94" height="56.99" style="fill:#005378"/><rect x="172.64" y="176.48" width="122.58" height="2.17" style="fill:#337593"/><rect x="172.64" y="178.65" width="122.58" height="5.95" style="fill:#005378"/><rect x="294.27" y="178.65" width="0.94" height="58.06" style="fill:#005378"/><path d="M218,192.28h47.43a0,0,0,0,1,0,0v2.26A6.46,6.46,0,0,1,259,201H218a0,0,0,0,1,0,0v-8.72A0,0,0,0,1,218,192.28Z" style="fill:#24415e"/><path d="M215.13,231.22h4.4l.13-38.94H217a4.61,4.61,0,0,0-4.62,4.61Z" style="fill:#24415e"/><path d="M233.4,235.11l-10.42.3V235a.87.87,0,0,1,.64-.83l3.24-1.28,2.46-1.77.49-1.32,3.26.1,0,1.67.29,2.45Z" style="fill:#76594e"/><path d="M228.66,230.91l4.61,0-2.36-36.27a2.51,2.51,0,0,0-2.84-2.35h0a4.59,4.59,0,0,0-4,5.16Z" style="fill:#24415e"/><rect x="212.04" y="168.23" width="9.65" height="7.31" style="fill:#e3f1fb"/><rect x="194.72" y="137.77" width="44.28" height="31.75" rx="1.67" style="fill:#fff"/><rect x="196.06" y="140.84" width="41.61" height="23.83" style="fill:#f1f8fd"/><rect x="209.01" y="175.55" width="15.7" height="1.64" style="fill:#f4f9fd"/><path d="M235.79,177.19h-6.54v-.46a2,2,0,0,1,1.68-1.95l2.45-.36a2.1,2.1,0,0,1,2.41,2.08Z" style="fill:#fff"/><polygon points="216.56 173.16 213.44 173.34 210.11 172.14 206.34 174.56 207.16 175.23 209.95 174.42 212.11 176.04 213.86 176.13 214.5 175.69 216.86 175.55 216.56 173.16" style="fill:#fdc689"/><path d="M273.17,176.73H252.23l-.54-3.16,17.14-1.46-11.27-14.39a2.83,2.83,0,0,1,.39-4.05l.15-.12a2.83,2.83,0,0,1,4,.46l13.32,18.12A2.84,2.84,0,0,1,273.17,176.73Z" style="fill:#c6d0ad"/><path d="M265.41,192.28H239l2.66-19.38c0-6.57-3.4-18,3.48-20.14l5.45-1.64a11.38,11.38,0,0,1,11.82,3.18,11.84,11.84,0,0,1,3,7.86Z" style="fill:#9da057"/><path d="M261.85,194.73H253.6a7.14,7.14,0,0,1-7.14-7.14V172A11.79,11.79,0,0,1,256,160.43l4.8-.93a6.87,6.87,0,0,1,8.18,6.75v21.34A7.14,7.14,0,0,1,261.85,194.73Z" style="fill:#fff"/><path d="M236.25,177.49l-21.53-1.29-.35-3,21.15-.62,6.1-16.44a3.29,3.29,0,0,1,4.71-1.5h0a3.28,3.28,0,0,1,1.13,4.52l-9.17,17.22A2.17,2.17,0,0,1,236.25,177.49Z" style="fill:#c6d0ad"/><path d="M224.64,201h42a0,0,0,0,1,0,0v1.28a5.84,5.84,0,0,1-5.84,5.84H228.49a3.85,3.85,0,0,1-3.85-3.85V201A0,0,0,0,1,224.64,201Z" style="fill:#fff"/><rect x="243.63" y="208.11" width="2.16" height="19.84" style="fill:#55758e"/><path d="M259.24,234.3h-2.88v-1.57a.8.8,0,0,0-.62-.77l-11.35-2.6.65-2.81,11.35,2.6a3.65,3.65,0,0,1,2.85,3.58Z" style="fill:#55758e"/><path d="M247.87,234.3H245v-2.16a3.06,3.06,0,0,0-.4-1.5l-1.12-2,2.51-1.43,1.12,2a5.92,5.92,0,0,1,.78,2.93Z" style="fill:#55758e"/><path d="M233.08,234.3h-2.89v-1.57a3.65,3.65,0,0,1,2.85-3.58l11.35-2.6.65,2.81L233.69,232a.79.79,0,0,0-.61.77Z" style="fill:#55758e"/><path d="M234,235a2.41,2.41,0,1,1-2.41-2.42A2.41,2.41,0,0,1,234,235Z" style="fill:#231f20"/><path d="M248.84,235a2.41,2.41,0,1,1-2.41-2.42A2.41,2.41,0,0,1,248.84,235Z" style="fill:#231f20"/><circle cx="257.8" cy="235.04" r="2.41" style="fill:#231f20"/><rect x="198.73" y="144.07" width="35.95" height="7.78" style="fill:#d5e9f8"/><rect x="198.73" y="154.13" width="20.43" height="8.46" style="fill:#d5e9f8"/><rect x="221.37" y="154.13" width="13.31" height="8.46" style="fill:#d5e9f8"/><rect x="177.45" y="133" width="9.84" height="0.64" style="fill:#24415e"/><rect x="177.45" y="146.88" width="9.84" height="0.64" style="fill:#24415e"/><rect x="177.45" y="139.94" width="9.84" height="0.64" style="fill:#24415e"/><rect x="182.87" y="142.25" width="9.84" height="0.64" style="fill:#24415e"/><rect x="182.87" y="130.69" width="9.84" height="0.64" style="fill:#24415e"/><rect x="188.14" y="135.94" width="6.33" height="0.64" style="fill:#24415e"/><rect x="180.29" y="144.57" width="6.33" height="0.64" style="fill:#24415e"/><rect x="177.45" y="135.37" width="6.63" height="0.53" style="fill:#24415e"/><rect x="184.65" y="137.68" width="4.26" height="0.53" style="fill:#24415e"/><path d="M204,151.55H174.93V126.66H204Zm-28.48-.63h27.86V127.28H175.56Z" style="fill:#24415e"/><rect x="209.84" y="133.98" width="4.92" height="0.32" style="fill:#24415e"/><rect x="209.84" y="140.92" width="4.92" height="0.32" style="fill:#24415e"/><rect x="209.84" y="137.45" width="4.92" height="0.32" style="fill:#24415e"/><rect x="212.55" y="138.6" width="4.92" height="0.32" style="fill:#24415e"/><rect x="212.55" y="132.82" width="4.92" height="0.32" style="fill:#24415e"/><rect x="215.18" y="135.45" width="3.16" height="0.32" style="fill:#24415e"/><rect x="211.26" y="139.76" width="3.16" height="0.32" style="fill:#24415e"/><rect x="209.84" y="135.16" width="3.31" height="0.26" style="fill:#24415e"/><rect x="213.44" y="136.32" width="2.13" height="0.26" style="fill:#24415e"/><path d="M223.14,143.25H208.58V130.8h14.56Zm-14.25-.31h13.93V131.12H208.89Z" style="fill:#24415e"/><path d="M257.31,208.11h-3.85l8.08-8.88a7.36,7.36,0,0,0,1.37-4.27V175.58a1.43,1.43,0,0,1,1.44-1.44h0a1.44,1.44,0,0,1,1.45,1.44V195a10.27,10.27,0,0,1-1.91,6Z" style="fill:#55758e"/><path d="M259.73,140.05V140a8.1,8.1,0,0,0-.79-2.7c-.68-1.73-2-3.8-4.44-3.8a4.05,4.05,0,0,0-1.75.4,4,4,0,0,0-2.31-.73,3.24,3.24,0,1,0,0,6.41l.2,0v3a2.3,2.3,0,0,0,.72,0,.65.65,0,0,0,.18-.3,5.41,5.41,0,0,1,.42-1.17.79.79,0,0,1,1.27.32l.19,1.47c.17,1.33,1.9,2.2,2.73,3.15a.42.42,0,0,0,.28.18.39.39,0,0,0,.28-.16c.65-.72.69-1.94,1.09-2.8C258.34,142.07,259.67,141.41,259.73,140.05Z" style="fill:#3f2a01"/><polygon points="119.84 237.01 119.84 238.8 128.82 239.7 128.82 238.26 119.84 237.01" style="fill:#58869c"/><path d="M160.61,234.64l-26.19-3.2a5.24,5.24,0,0,0-2.6.4l-11.67,6.1c-.62.32-.46.67.36.77l.79.09-4.75,2.49,11.06-1.72,19.1,2.34a5.25,5.25,0,0,0,2.6-.4l11.67-6.1C161.59,235.08,161.43,234.74,160.61,234.64Z" style="fill:#58869c"/><path d="M160.61,233.18,134.42,230a5.24,5.24,0,0,0-2.6.4l-11.67,6.1c-.62.33-.46.67.36.77l.79.1-4.75,2.48,11.06-1.71,19.1,2.33a5.25,5.25,0,0,0,2.6-.4L161,234C161.59,233.62,161.43,233.28,160.61,233.18Z" style="fill:#75b3d0"/><polygon points="116.55 239.83 116.55 241.29 127.61 239.57 127.61 238.12 116.55 239.83" style="fill:#799eb0"/><path d="M127.61,238.12l18.08,2.21a8.7,8.7,0,0,0,3.32-.15c.91-.45,12-6.23,12-6.23a.71.71,0,0,0,.37-.38V235s.06.17-.34.38l-11.32,5.92a4.57,4.57,0,0,1-3,.6l-19.1-2.34Z" style="fill:#58869c"/><path d="M192,241.34c-1.75,4.31-9.59,6.29-17.51,4.43s-12.92-6.87-11.17-11.18,9.59-6.29,17.51-4.43S193.75,237,192,241.34Z" style="fill:#d47d6f"/><path d="M192.11,240.32c-1.75,4.31-9.59,6.3-17.52,4.43s-12.92-6.86-11.17-11.17,9.59-6.3,17.51-4.43S193.86,236,192.11,240.32Z" style="fill:#c95c4a"/><path d="M173.41,239.7a2,2,0,0,1-1-.5L169,235.75c-.36-.36-.2-.77.37-.92a2,2,0,0,1,1.7.4l3,3,11.87-3a1.93,1.93,0,0,1,1.7.4c.36.36.2.77-.37.92l-12.61,3.19A2.57,2.57,0,0,1,173.41,239.7Z" style="fill:#fff"/><path id="Path_19756" data-name="Path 19756" d="M170.76,221.29l-6.24,3.61a.48.48,0,0,1-.64-.26.33.33,0,0,1,0-.17l0-7.66a.54.54,0,0,0-.19-.37L157.1,211c-.28-.24-.22-.65.11-.7l7.49-1.12A.32.32,0,0,0,165,209l2.21-7c.1-.31.54-.31.74,0l4.67,7a.49.49,0,0,0,.35.23l7.88,1.12c.35.05.56.47.36.7l-4.61,5.42a.41.41,0,0,0-.06.37l2.67,7.66a.37.37,0,0,1-.19.47.37.37,0,0,1-.34,0l-7.51-3.61A.42.42,0,0,0,170.76,221.29Z" style="fill:#ffb600"/><g id="Group_11646" data-name="Group 11646"><g id="Group_11645" data-name="Group 11645"><path id="Path_20953" data-name="Path 20953" d="M49.22,164.94l0,10.36H50.9v-2.82s1.27,2.69,2,2.81c.5.08,2.49.05,4.12,0a.44.44,0,0,0,.19-.81c-1.49-.89-3.66-1.78-4.15-4.42a52.59,52.59,0,0,1-.62-5.28Z"/><path id="Path_20953-2" data-name="Path 20953" d="M41.72,164.94l0,10.36H43.4v-2.82s1.27,2.69,2,2.81c.5.08,2.49.05,4.12,0a.44.44,0,0,0,.19-.81c-1.49-.89-3.66-1.78-4.15-4.42a52.59,52.59,0,0,1-.62-5.28Z"/></g></g><path d="M45.1,67.33a3.47,3.47,0,1,0,3.47-3.47A3.47,3.47,0,0,0,45.1,67.33Z" style="fill:#ffb600"/><polygon points="41.83 79.7 50.73 79.7 51.2 76.72 52.42 75.5 51.16 72.87 50.55 67.79 41.83 67.79 41.83 79.7" style="fill:#fdc689"/><rect x="41.83" y="77.36" width="3.89" height="6.34" transform="translate(87.55 161.07) rotate(180)" style="fill:#fdc689"/><path d="M42.26,70.61a3.46,3.46,0,1,0,3.46-3.46A3.46,3.46,0,0,0,42.26,70.61Z" style="fill:#ffb600"/><path d="M41.29,68.14a3.47,3.47,0,1,0,3.47-3.46A3.47,3.47,0,0,0,41.29,68.14Z" style="fill:#ffb600"/><path d="M40.66,71.61a2.53,2.53,0,1,0,2.53-2.53A2.52,2.52,0,0,0,40.66,71.61Z" style="fill:#ffb600"/><path d="M45.25,123l.4,22.78-.33,8.59-.23,6.14c0,.9-.07,1.8-.1,2.71,0,.65,0,1.29.06,1.94,0,.45.2.38,0,.78s-2.67.11-3.18.11L40.28,145.8,38.05,123Z" style="fill:#2f3454"/><path d="M50.9,126.13H42.72a6.68,6.68,0,0,1-6.46-8.38l1.13-4.26H52Z" style="fill:#1d2039"/><path d="M42.22,80.64l5.29,2.22,5.9,5.57-2,14.34,1.77,14.54-18.85-.06,6.19-13.93-3.4-12.73C36.72,87.12,38.74,80.4,42.22,80.64Z" style="fill:#c95c4a"/><polygon points="51.49 119.15 53.14 146.38 52.66 166.07 49.13 166.07 47.78 146.38 40.59 118.84 51.49 119.15" style="fill:#1d2039"/><path d="M50.55,67.79a3.41,3.41,0,0,1-3.43,3.36,3.36,3.36,0,0,1,0-6.71A3.41,3.41,0,0,1,50.55,67.79Z" style="fill:#ffb600"/><path d="M46.29,73.48a3.36,3.36,0,1,1-3.36-3.36A3.35,3.35,0,0,1,46.29,73.48Z" style="fill:#ffb600"/><path d="M44,78.65a3.36,3.36,0,1,1-3.36-3.36A3.37,3.37,0,0,1,44,78.65Z" style="fill:#24415e"/><path d="M45.72,82a3.36,3.36,0,1,1-3.36-3.36A3.35,3.35,0,0,1,45.72,82Z" style="fill:#ffb600"/><path d="M42.69,83.77a5.12,5.12,0,1,1-5.12-5.12A5.11,5.11,0,0,1,42.69,83.77Z" style="fill:#ffb600"/><path d="M44.7,78a5.12,5.12,0,1,1-5.12-5.12A5.12,5.12,0,0,1,44.7,78Z" style="fill:#ffb600"/><path d="M45.18,76.47a3.36,3.36,0,1,1-3.35-3.36A3.35,3.35,0,0,1,45.18,76.47Z" style="fill:#ffb600"/><path d="M44.29,73.25a3.36,3.36,0,1,1-3.36-3.36A3.37,3.37,0,0,1,44.29,73.25Z" style="fill:#ffb600"/><path d="M45.18,70.78a3.36,3.36,0,1,1-3.35-3.36A3.35,3.35,0,0,1,45.18,70.78Z" style="fill:#ffb600"/><path d="M49.4,64c-9-2.75-11.38,2.61-11.65,5.93a35.3,35.3,0,0,1-2.1,8.76c-.84,2.38-.39,6.29-.39,6.29l6.57-12.87,1.94-3.25,2.52-1.67Z" style="fill:#ffb600"/><polygon points="74.35 76.87 75.34 75.29 77.02 73.92 80.89 74.36 80.7 76.93 78.03 77.28 77.23 77.76 75.97 77.75 74.69 79.4 73.25 78.44 74.35 76.87" style="fill:#fdc689"/><path d="M65.61,94.11,76.11,78.3l-1.92-1.83L62.73,90.78,48.18,86.43a2.86,2.86,0,0,0-3.5,2.48h0a2.87,2.87,0,0,0,2.54,3.14l17,2.67A1.4,1.4,0,0,0,65.61,94.11Z" style="fill:#d47d6f"/></g></g></svg>