<svg id="Layer_1" data-name="Layer 1" xmlns="http://www.w3.org/2000/svg" viewBox="0 0 304.34 704.68"><defs><style>.cls-1{fill:#fff;}.cls-2{fill:#771d1d;}.cls-3,.cls-7{fill:#335276;isolation:isolate;}.cls-3{opacity:0.3;}.cls-4{fill:#afafaf;}.cls-5{fill:#435771;}.cls-6{fill:#707070;}.cls-7{opacity:0.6;}.cls-8{fill:#c5d0de;}.cls-9{fill:#222c3b;}</style></defs><title>Lighthouse</title><path id="Path_19677" data-name="Path 19677" class="cls-1" d="M208.88,178.87H95.46L78.26,653.11H226.09Z"/><path id="Path_19678" data-name="Path 19678" class="cls-2" d="M80,604.46h144.3l-3.24-89.41H83.27Z"/><path id="Path_19679" data-name="Path 19679" class="cls-2" d="M211,236.41H93.38l-3.25,89.41H214.21Z"/><path id="Path_19680" data-name="Path 19680" class="cls-2" d="M85.08,465.14H219.26L216,375.73H88.32Z"/><rect id="Rectangle_5105" data-name="Rectangle 5105" class="cls-1" x="100.36" y="99.23" width="103.63" height="79.54"/><rect id="Rectangle_5106" data-name="Rectangle 5106" class="cls-3" x="111.96" y="104.27" width="80.42" height="52.78" rx="0.74"/><rect id="Rectangle_5107" data-name="Rectangle 5107" class="cls-4" x="116.14" y="108.45" width="72.06" height="44.42"/><rect id="Rectangle_5108" data-name="Rectangle 5108" class="cls-5" x="94.54" y="87.97" width="115.27" height="11.26"/><path id="Rectangle_5109" data-name="Rectangle 5109" class="cls-2" d="M108.6,37.68h87.15a9.85,9.85,0,0,1,9.85,9.85V89.19H98.75V47.53A9.85,9.85,0,0,1,108.6,37.68Z"/><rect id="Rectangle_5110" data-name="Rectangle 5110" class="cls-5" x="85.92" y="146.87" width="132.51" height="4.49"/><rect id="Rectangle_5111" data-name="Rectangle 5111" class="cls-5" x="211.99" y="149.17" width="2.13" height="19.57"/><rect id="Rectangle_5112" data-name="Rectangle 5112" class="cls-5" x="171.4" y="149.17" width="2.13" height="19.57"/><rect id="Rectangle_5113" data-name="Rectangle 5113" class="cls-5" x="130.81" y="149.17" width="2.13" height="19.57"/><rect id="Rectangle_5114" data-name="Rectangle 5114" class="cls-5" x="90.22" y="149.17" width="2.13" height="19.57"/><path id="Path_19682" data-name="Path 19682" class="cls-6" d="M244.9,653.11H59.44L44.23,702.35H260.11Z"/><path id="Path_19683" data-name="Path 19683" class="cls-7" d="M121.25,653.11H59.44L44.23,702.35h72Z"/><path id="Path_19684" data-name="Path 19684" class="cls-3" d="M183.08,653.11H121.26l-5.07,49.24h72Z"/><rect id="Rectangle_5116" data-name="Rectangle 5116" class="cls-8" x="69.07" y="178.87" width="166.21" height="13.63"/><rect id="Rectangle_5117" data-name="Rectangle 5117" class="cls-3" x="69.07" y="178.87" width="83.1" height="13.63"/><rect id="Rectangle_5118" data-name="Rectangle 5118" class="cls-5" x="85.92" y="165.82" width="132.51" height="12.94"/><path id="Path_19687" data-name="Path 19687" class="cls-3" d="M152.17,151.36v-4.49H85.92v4.49h4.3v14.46h-4.3v12.94h66.25V165.82H132.94V151.36ZM92.35,165.82V151.36h38.46v14.46Z"/><path id="Path_19688" data-name="Path 19688" class="cls-1" d="M135.05,598.19V539.1a17.13,17.13,0,0,1,34.25,0v59.09Z"/><path id="Path_19689" data-name="Path 19689" class="cls-9" d="M165.11,594H139.23v-54.9a12.94,12.94,0,0,1,12.94-13h0a12.94,12.94,0,0,1,12.94,13Z"/><path id="Path_19690" data-name="Path 19690" class="cls-1" d="M135.05,458.81V399.73a17.13,17.13,0,0,1,34.25,0v59.08Z"/><path id="Path_19691" data-name="Path 19691" class="cls-9" d="M165.11,454.63H139.23v-54.9a12.94,12.94,0,0,1,12.94-12.94h0a12.93,12.93,0,0,1,12.94,12.94h0Z"/><path id="Path_19692" data-name="Path 19692" class="cls-1" d="M135.05,319.43V260.35a17.13,17.13,0,0,1,34.25,0v59.1Z"/><path id="Path_19693" data-name="Path 19693" class="cls-9" d="M165.11,315.25H139.23v-54.9a12.94,12.94,0,0,1,12.94-12.94h0a12.94,12.94,0,0,1,12.94,12.94h0Z"/></svg>