<svg xmlns="http://www.w3.org/2000/svg" xmlns:xlink="http://www.w3.org/1999/xlink" viewBox="0 0 334.48 300"><defs><linearGradient id="linear-gradient" x1="-1516.46" y1="-188.35" x2="-1516.66" y2="-187.95" gradientTransform="matrix(476.83, -61.81, -46.22, -356.51, 714591.86, -160676.3)" gradientUnits="userSpaceOnUse"><stop offset="0" stop-color="#8f7b8f"/><stop offset="0.21" stop-color="#927e92"/><stop offset="0.39" stop-color="#9a899b"/><stop offset="0.56" stop-color="#a89aa9"/><stop offset="0.72" stop-color="#bcb3be"/><stop offset="0.87" stop-color="#d5d2d9"/><stop offset="1" stop-color="#f0f3f5"/></linearGradient><linearGradient id="linear-gradient-2" x1="-1339.81" y1="-196.25" x2="-1338.04" y2="-195.67" gradientTransform="matrix(7.74, 0, 0, -67.66, 10544.51, -13055.04)" gradientUnits="userSpaceOnUse"><stop offset="0" stop-color="#fff"/><stop offset="1"/></linearGradient><linearGradient id="linear-gradient-3" x1="-1341.89" y1="-218.19" x2="-1343.35" y2="-218.19" gradientTransform="matrix(7.51, 0, 0, -21.44, 10172.7, -4496.49)" xlink:href="#linear-gradient-2"/><linearGradient id="linear-gradient-4" x1="-1426.74" y1="-204.22" x2="-1427.49" y2="-204.22" gradientTransform="matrix(15.03, 0, 0, -38.18, 21624.8, -7608.51)" xlink:href="#linear-gradient-2"/><linearGradient id="linear-gradient-5" x1="-1384.01" y1="-258.03" x2="-1383.8" y2="-257.13" gradientTransform="matrix(10.26, 0, 0, -9.61, 14359.74, -2327.02)" xlink:href="#linear-gradient-2"/><linearGradient id="linear-gradient-6" x1="-1396.44" y1="-321.05" x2="-1396.28" y2="-320.03" gradientTransform="matrix(11.29, 0, 0, -5.15, 15922.6, -1507.47)" xlink:href="#linear-gradient-2"/></defs><title>S-Test</title><g id="Layer_2" data-name="Layer 2"><g id="Spend"><rect x="3.91" width="300" height="300" style="fill:#fff"/><path id="Path_19696" data-name="Path 19696" d="M244.33,151.57c47.19,50.08,72.95,90.34,36,104.51-29,11.14-98.28-7-136.87,5C126,266.52,79.68,285.23,45.81,255,15.68,228-17.61,140.8,47,153.23c26,5,4.83-79.69,53.89-83.91C135.65,66.33,204.66,109.46,244.33,151.57Z" style="fill:#e9e5e9;isolation:isolate"/><path id="Path_19697" data-name="Path 19697" d="M25.51,210.24C36.3,224.7,49,237.43,60.49,245c47.36,31.3,91.06,8.13,111.11-2.33C216,219.54,288.87,240.5,322.1,221c20.2-11.83,14.77-35.86-9.64-70.24-10.54-14.86-24.63-31.66-41.73-50.25C221,46.48,142.5,1.4,112.86,5.15c-60.13,7.61-40,118.07-72.5,117.08C-18.58,120.45-3.38,171.55,25.51,210.24Z" style="opacity:0.5;isolation:isolate;fill:url(#linear-gradient)"/><path d="M262.91,215.36H45.5a4.83,4.83,0,0,1-4.84-4.84V72.65A4.85,4.85,0,0,1,45.5,67.8H262.91a4.86,4.86,0,0,1,4.85,4.85V210.52a4.83,4.83,0,0,1-4.85,4.84Z" style="fill:#717171"/><path d="M254.57,203.66H53.84a1.49,1.49,0,0,1-1.12-.52,1.47,1.47,0,0,1-.35-1V81a1.43,1.43,0,0,1,.43-1,1.46,1.46,0,0,1,1-.44H254.57A1.5,1.5,0,0,1,256.05,81V202.18a1.48,1.48,0,0,1-1.48,1.48Z" style="fill:#fff"/><path d="M84,118.54h-15a1.17,1.17,0,0,1-1.17-1.17v-15a1.16,1.16,0,0,1,1.17-1.16H84a1.16,1.16,0,0,1,1.16,1.16v15A1.16,1.16,0,0,1,84,118.54Zm-13.82-2.33H82.86V103.56H70.21Z" style="fill:#8f7b8f"/><path d="M76.51,114.25a1.17,1.17,0,0,1-1-.59c-3-5.27-9.79-8.69-9.86-8.73a1.17,1.17,0,1,1,1-2.09,30.39,30.39,0,0,1,9.71,7.91c4.49-8.38,12.55-15.24,18.29-17.63a1.17,1.17,0,0,1,.9,2.15c-5.75,2.4-14,9.63-18,18.3a1.18,1.18,0,0,1-1,.68Z" style="fill:#fc5252"/><rect x="96.68" y="100.02" width="146.75" height="2.36" style="fill:#a595a5"/><rect x="96.68" y="105.81" width="88.87" height="2.36" style="fill:#a595a5"/><rect x="196.62" y="105.81" width="33.48" height="2.36" style="fill:#a595a5"/><rect x="96.68" y="111.59" width="108.09" height="2.36" style="fill:#a595a5"/><rect x="210.68" y="111.59" width="32.75" height="2.36" style="fill:#a595a5"/><rect x="96.68" y="117.38" width="81.04" height="2.36" style="fill:#a595a5"/><rect x="190.62" y="117.38" width="52.81" height="2.36" style="fill:#a595a5"/><path d="M84,153.74h-15a1.17,1.17,0,0,1-1.17-1.17v-15a1.17,1.17,0,0,1,1.17-1.17H84a1.17,1.17,0,0,1,1.16,1.17v15A1.17,1.17,0,0,1,84,153.74Zm-13.82-2.33H82.86V138.76H70.21Z" style="fill:#8f7b8f"/><rect x="96.68" y="152.58" width="122.3" height="2.36" transform="translate(315.66 307.52) rotate(180)" style="fill:#a595a5"/><rect x="200.24" y="146.79" width="28.51" height="2.36" transform="translate(428.98 295.95) rotate(180)" style="fill:#a595a5"/><rect x="96.68" y="146.79" width="93.84" height="2.36" transform="translate(287.2 295.95) rotate(180)" style="fill:#a595a5"/><rect x="195.7" y="141.01" width="47.73" height="2.36" transform="translate(439.13 284.37) rotate(180)" style="fill:#a595a5"/><rect x="96.68" y="141.01" width="93.11" height="2.36" transform="translate(286.47 284.37) rotate(180)" style="fill:#a595a5"/><rect x="222.75" y="135.22" width="20.68" height="2.36" transform="translate(466.18 272.8) rotate(180)" style="fill:#a595a5"/><rect x="96.68" y="135.22" width="113.17" height="2.36" transform="translate(306.53 272.8) rotate(180)" style="fill:#a595a5"/><path d="M84,188.94h-15a1.17,1.17,0,0,1-1.17-1.17v-15a1.17,1.17,0,0,1,1.17-1.17H84a1.17,1.17,0,0,1,1.16,1.17v15A1.17,1.17,0,0,1,84,188.94Zm-13.82-2.33H82.86V174H70.21Z" style="fill:#8f7b8f"/><path d="M76.51,184.65a1.19,1.19,0,0,1-1-.59c-3-5.27-9.79-8.69-9.86-8.73a1.17,1.17,0,1,1,1-2.09,30.23,30.23,0,0,1,9.71,7.91c4.49-8.38,12.55-15.24,18.29-17.63a1.17,1.17,0,0,1,.9,2.15c-5.75,2.4-14,9.63-18,18.3a1.18,1.18,0,0,1-1,.68Z" style="fill:#fc5252"/><rect x="96.68" y="170.42" width="146.75" height="2.36" transform="translate(340.11 343.2) rotate(180)" style="fill:#a595a5"/><rect x="200.91" y="176.2" width="28.51" height="2.36" transform="translate(430.33 354.77) rotate(180)" style="fill:#a595a5"/><rect x="96.68" y="176.2" width="93.84" height="2.36" transform="translate(287.2 354.77) rotate(180)" style="fill:#a595a5"/><rect x="195.7" y="181.99" width="47.73" height="2.36" transform="translate(439.13 366.35) rotate(180)" style="fill:#a595a5"/><rect x="96.68" y="181.99" width="93.11" height="2.36" transform="translate(286.47 366.35) rotate(180)" style="fill:#a595a5"/><rect x="222.75" y="187.78" width="20.68" height="2.36" transform="translate(466.18 377.92) rotate(180)" style="fill:#a595a5"/><rect x="96.68" y="187.78" width="113.17" height="2.36" transform="translate(306.53 377.92) rotate(180)" style="fill:#a595a5"/><path d="M180.33,215.36H128.08a103.19,103.19,0,0,1-6.34,25.47h64.94A103.45,103.45,0,0,1,180.33,215.36Z" style="fill:#3f3f3f"/><path d="M193.29,240.83H115.13A5.18,5.18,0,0,0,110,246h88.49a5.17,5.17,0,0,0-5.16-5.17Z" style="fill:#717171"/><path id="Path_20953" data-name="Path 20953" d="M52.13,268l.06,13.09h2.07v-3.57s1.6,3.4,2.59,3.56c.63.1,3.14.06,5.2,0a.55.55,0,0,0,.51-.59.54.54,0,0,0-.26-.43c-1.89-1.13-4.63-2.25-5.25-5.59-.54-2.89-.79-6.67-.79-6.67Z"/><path id="Path_20953-2" data-name="Path 20953" d="M33.87,268l.06,13.09H36l0-3.57s1.6,3.4,2.6,3.56c.63.1,3.13.06,5.19,0a.55.55,0,0,0,.52-.59.57.57,0,0,0-.27-.43c-1.89-1.13-4.62-2.25-5.25-5.59-.53-2.89-.78-6.67-.78-6.67Z"/><path d="M37.61,165.94l-1.93-2.87-3.38,1.05-2.36,3.33.27,12.13s.14,5,2.44,7.31c2.69,2.72,8.12,8.88,8.12,8.88l2-2.24L36,184.09l-.62-1.88a61.86,61.86,0,0,1,.25-7A63.54,63.54,0,0,1,37.61,165.94Z" style="fill:#d47d6f"/><path d="M43.24,195.55c-2.23-.07-4.46-.2-6.69-.21s-2.12,1.35-2.83,3.25a69.45,69.45,0,0,0-2.15,6.64,13.45,13.45,0,0,0-.62,5.18c.41,3.19,2.45,5.72,2.56,9,.08,2.57.16,5.13.25,7.7l.38,11.86,6.51,1.72Z" style="fill:#2f3454"/><polygon points="37.98 159.73 44.71 158.98 44.52 154.91 46.34 154.59 44.33 151.83 43.81 146.4 36.49 145.29 33.2 150.86 34.58 158.64 37.98 159.73" style="fill:#f8b5ab"/><path d="M43.81,146.4l.31,3.19c.1-.23.75-3.23-.13-3.83s-1.52.43-1.52.43h0Z" style="fill:#424f5d"/><path d="M44.33,151.83l-.21-2.24h0s-.25-2.37-1.35-3.19a.51.51,0,0,0-.3-.21h0s1.58,1.35,1.09,4.63a3.85,3.85,0,0,0,.09,1.27,19.31,19.31,0,0,1,.49,2l-.5.61L43.08,158l-2.95,1.49h0l4.58-.51-.19-4.07,1.81-.32Z" style="fill:#fff;opacity:0.2"/><polygon points="33.8 268.88 38.27 268.88 40.71 240.18 40.63 240.18 34.13 238.45 34.13 238.46 33.8 268.88" style="fill:#2f3454"/><path d="M48.65,195.39l4.44,44.27,3.44,29.22H51.66L46.05,239.7,44,230.11l-1.7-7.8c-.59-2.72-.92-5.61-2.55-7.93-.65-.91-1.43-1.71-2.07-2.63a13.12,13.12,0,0,1-1.89-8.59,22.9,22.9,0,0,1,1.7-7.26c.78-1.69,1.81-1.45,3.51-1.28C41.56,194.68,48.63,195.15,48.65,195.39Z" style="fill:#1d2039"/><path d="M40.78,163.62l5.19,1,.46,6.12s3.18,5.46,2.89,9.67a130.69,130.69,0,0,0,.9,17.46c.41,2.69,1.87,4.39,0,4.33s-14.14-.39-15.14-.8-3.58-.26-2.82-1.37a19.1,19.1,0,0,0,2.84-12.18c-.7-6.26-4.61-15.81-5.08-18.78-.77-4.82,4-5.69,5.63-5.68C36.94,163.4,38.15,163.39,40.78,163.62Z" style="fill:#c95c4a"/><path d="M42.47,146.19A4.53,4.53,0,0,1,41.14,152c-3.24,2.71-1.54,3.75-1.54,3.75s1.26,1.63-.89,2.56.53,3,1.21,3.79,1.36,4.39-.44,6.23-5.29,4.75-8.87,2.62-5.05-3.89-.76-9.38a5.49,5.49,0,0,1,1.64-6.79,19,19,0,0,0-.49-4.28c-.49-1.79.6-8.39,8.57-7.31s4.55,6.36,4.55,6.36S43.84,146.76,42.47,146.19Z" style="fill:#ffb600"/><polygon points="63.59 147.15 64.77 143.62 66.42 141.29 68.89 140.59 70.91 140.66 70.88 141.3 70.17 141.39 70.45 141.99 69.88 143.59 69.28 143.28 68.24 144.61 66.84 145.21 65.91 147.73 63.59 147.15" style="fill:#f8b5ab"/><path d="M41.88,165.56l-.38.63a2.28,2.28,0,0,0,.26,2.71l.81.89a2.27,2.27,0,0,0,1,.65l3.16.93,10.88-3.56s6.29-2,6.65-5.24c.46-4,2.18-15.81,2.18-15.81l-2.88-.85-3.87,13.4a3.75,3.75,0,0,1-1.89,2.29l-.87.45a3.1,3.1,0,0,1-.6.23,40.44,40.44,0,0,1-4.59.85c-2.8.39-6.58,1.05-8.36,1.36A2.3,2.3,0,0,0,41.88,165.56Z" style="fill:#d47d6f"/><polygon points="69.85 141.94 69.59 142.81 69.28 143.28 69.88 143.59 70.45 141.99 70.17 141.39 70.88 141.3 70.89 140.91 69.89 141.25 69.85 141.94" style="fill:#fff;opacity:0.2"/><polygon points="66.84 145.21 68.24 144.61 69.28 143.28 67.65 143.97 66.78 144.96 65.6 146.5 65.94 146.59 66.48 146.75 66.84 145.21" style="fill:#fff;opacity:0.30000000000000004"/><g style="opacity:0.15"><path d="M64.3,162.57c.46-4,2.18-15.81,2.18-15.81l-.69-.21c-.53,2.76-2.15,11-3.24,14-1.21,3.3-3.07,6-10.69,9.16h0l5.79-1.89S63.94,165.82,64.3,162.57Z" style="fill:#fff"/></g><rect x="35.8" y="155.79" width="4.44" height="8.57" transform="matrix(1, -0.04, 0.04, 1, -6.15, 1.59)" style="fill:#f8b5ab"/><g style="opacity:0.2"><path d="M39.31,152.17c-2.89,2.15-.51,3.57-.49,4.39S37,158.61,38.1,160h0a1.06,1.06,0,0,1,.61-1.67c2.15-.93.89-2.56.89-2.56s-1.7-1,1.54-3.75a4.53,4.53,0,0,0,1.33-5.85A8.88,8.88,0,0,1,39.31,152.17Z" style="fill:#fff"/></g><path d="M50.22,197.87a130.69,130.69,0,0,1-.9-17.46c.29-4.21-2.89-9.67-2.89-9.67L46,164.62l-4.26-.82c.88,1.75,4.33,8.75,5.3,13.38,1.11,5.32,2.08,10.77,1.75,13.41s-1,7.06-3.06,10.21a1.12,1.12,0,0,0,.06,1.26l4.46.14C52.09,202.26,50.63,200.56,50.22,197.87Z" style="fill:#fff;opacity:0.2"/><path d="M53.09,239.66l-3.76-37.48-3.57-.12c.47,1,.3,2,.67,4.06.77,4.27,3.27,15.88,5.2,30.72,1.68,12.88,3.62,27.67,4.09,32h.81Z" style="fill:#fff;opacity:0.1"/><g style="opacity:0.4"><path d="M32.26,176.56a76.79,76.79,0,0,1,2.19,12.22q.38.39.75.81a17.24,17.24,0,0,0-.1-1.74A64.35,64.35,0,0,0,32.26,176.56Z" style="fill:#c95c4a"/></g><path d="M68,280.71c0,1.56-10.75,2.82-24,2.82s-24-1.26-24-2.82,10.74-2.81,24-2.81S68,279.16,68,280.71Z" style="fill:#9faad4;opacity:0.219999998807907;isolation:isolate"/><ellipse id="Ellipse_381" data-name="Ellipse 381" cx="258.91" cy="283.42" rx="35.63" ry="2.77" style="fill:#9faad4;opacity:0.219999998807907;isolation:isolate"/><path d="M259.81,277.85l-.22,4.93h-4s-.22-.62-.56-.62-.66.62-1.05.62h-10.2s-.18-.91,0-1.23A3.71,3.71,0,0,1,245,281c2.07-.64,8-2.65,9-4.84C255.33,273.47,259.81,277.85,259.81,277.85Z" style="fill:#975140"/><path d="M243.73,281.74a3.17,3.17,0,0,0,0,1H254c.39,0,.76-.62,1.05-.62s.56.62.56.62h4l.18-1Z" style="fill:#fff"/><path d="M251.16,279.81c-.08.13-.31,0-.62-.27-.73-.62-.66-.55-.47-.65s.28-.14.71.23S251.25,279.68,251.16,279.81Z" style="fill:#e5e8ec"/><path d="M252.25,279.28c-.09.13-.32,0-.62-.27-.73-.61-.67-.55-.48-.65s.29-.14.71.23S252.34,279.16,252.25,279.28Z" style="fill:#e5e8ec"/><path d="M253.25,278.69c-.09.13-.32,0-.62-.28-.74-.61-.67-.55-.48-.65s.29-.14.71.23S253.33,278.56,253.25,278.69Z" style="fill:#e5e8ec"/><path d="M276.88,281.82a3.49,3.49,0,0,0-.1,1.71s6.17.76,8.16.24a9.72,9.72,0,0,0,2.21-1.14c.14-.09.38-.61.52-.7s.38.11.59,0a6.06,6.06,0,0,0,.94-.72c.55-3.12-.18-4.38-.18-4.38s-3.95-1.93-4.94-.59C281.77,279.37,277.75,280.33,276.88,281.82Z" style="fill:#975140"/><path d="M276.7,282.48a48.12,48.12,0,0,0,6.64.66,12.44,12.44,0,0,0,6-3.42,12.69,12.69,0,0,1-.18,1.45,6.06,6.06,0,0,1-.94.72c-.21.15-.34-.12-.59,0s-.38.61-.52.7a9.72,9.72,0,0,1-2.21,1.14c-2,.52-8.16-.24-8.16-.24A4.7,4.7,0,0,1,276.7,282.48Z" style="fill:#fff"/><path d="M280.06,279.52c0,.13.22.2.57.19a10.09,10.09,0,0,1,2.12.11c.36.06.66,0,.67-.14s-.26-.32-.61-.37a9.8,9.8,0,0,0-2.09-.1C280.38,279.23,280.08,279.38,280.06,279.52Z" style="fill:#e5e8ec"/><path d="M281.24,278.59c0,.14.24.24.58.25a10.15,10.15,0,0,1,2.1.31c.35.09.64.07.65-.08s-.26-.36-.6-.45a10,10,0,0,0-2.08-.28C281.56,278.33,281.27,278.45,281.24,278.59Z" style="fill:#e5e8ec"/><path d="M282.4,277.74c0,.14.24.27.58.32a9.52,9.52,0,0,1,2.06.5c.34.12.63.11.64,0s-.26-.39-.6-.51a10.11,10.11,0,0,0-2.05-.47C282.7,277.5,282.42,277.6,282.4,277.74Z" style="fill:#e5e8ec"/><polyline points="280.82 208.9 284.06 207.09 284.44 206.69 283.99 205.97 283.28 206.06 283.4 203.95 280.01 203.35 278.28 202.54 279.88 208.25" style="fill:#fdc689"/><path d="M265.81,157.48s3.63,4-7.54,14.54-13.2,7.47-13.2,7.47l-3.38-2.25-2.5-11.74,5.39-1.25.59.69a2,2,0,0,0,1.74-.71c.58-.82,4.28-3.6,9.62-10.46C259,150.61,265.12,156.7,265.81,157.48Z" style="fill:#d1dbea"/><path d="M240.08,166.17s-11.26-.2-12.16-11.93c-.27-3.49-1.16-.12-1.77,3.21s1.44,12.72,7.46,16.49,8.59,4.69,10.91,3.16S240.08,166.17,240.08,166.17Z" style="fill:#fdc689"/><path d="M257.08,278l.45.4c2.2,2,3.18-1.72,3.84-3.27,1-2.42,1.91-4.91,2.73-7.41,1.47-4.53,3-9.43,3.15-14.24A62.62,62.62,0,0,0,266,238.58l-9.39-3.06.07,25.33,0,6.8c0,2.13.33,4.94-1.15,6.69a6.94,6.94,0,0,0-.6.74,1,1,0,0,0-.06.92,1.33,1.33,0,0,0,.26.27Z" style="fill:#163f59"/><path d="M257,195.14l-.43,40.38,8.54,4.71a58.16,58.16,0,0,0,5.76-21.93c.27-5.22.41-16.93-2.51-20.92C264.41,192,257,195.14,257,195.14Z" style="fill:#163f59"/><path d="M260.12,195.14l1.4,14,3.79,15.16,4,14.17,6.34,17.29,4.95,13.5,1.88,5.14a7.79,7.79,0,0,0,.75,2c1,1.15,3.13,1.08,4.47,1.07a.78.78,0,0,0,.58-.16.69.69,0,0,0,.11-.53c-.09-1.05-.61-2-.68-3,0-.6,0-1.23,0-1.84-.29-5.7-.73-11.41-1.52-17.08-.68-4.86-1.34-10.48-3.9-14.79-2.71-4.55-2.7-14.66-3.95-25.55-.23-2,.88-6.39.7-8.18a29,29,0,0,0-4.34-12.34Z" style="fill:#194866"/><path d="M256.87,195.75l18.49-.41,7.9-26.44s5.12-16-4.7-16.19-21.12-.21-21.12-.21S249.33,167.42,256.87,195.75Z" style="fill:#d1dbea"/><path d="M290.05,188l-11.71,14.25s.42,2.08,1.36,1c.12-.14-.45-.56.26-.95,2.88-1.57,9.64-4,12.14-6.4a41.7,41.7,0,0,0,5.63-6.92Z" style="fill:#fdc689"/><path d="M266.92,156.22s-8.61,14.83-6.16,31.25a3.84,3.84,0,0,0,1.73,2.22l2.12-1.85S264.44,169.26,266.92,156.22Z" style="fill:#ad5c49"/><polygon points="267.23 155.82 267.69 159.1 273.32 153.78 273.32 152.96 267.23 155.82" style="fill:#b0bfde"/><polygon points="265.45 153.71 264.47 157.97 266.96 155.82 265.45 153.71" style="fill:#b0bfde"/><path d="M248.78,168.18l-1.47-2.65-.64-1a2.21,2.21,0,0,1-1.5.44l1.46,1.77,1.34,2.4.75,3.66Z" style="fill:#b0bfde"/><path d="M282.37,168.43,288.8,187l1.39.55-.77,1.23,7.93,1.38,3.48-6.05-9.26-25.14A16.47,16.47,0,0,0,280,152.77C274.23,152.13,281.9,166.89,282.37,168.43Z" style="fill:#d1dbea"/><path d="M297.83,185.82s-5.41,1-8.25,1.45l.61.24-.77,1.23,2.74.46,4,.09.63-1.48-1.17-.3Z" style="fill:#b0bfde"/><path d="M274,149a19.4,19.4,0,0,1-1,3.51c-.63,1.44-6.18,3.28-7,3.49s.22-4.31.22-5.33c0-.78.5-.54-.1-1.67Z" style="fill:#fdc689"/><path d="M264.53,146.71a1.62,1.62,0,0,0,1.33,1.85l7.16,1.15a1.62,1.62,0,0,0,1.85-1.34l1.7-10.6a1.62,1.62,0,0,0-1.34-1.85l-7.15-1.14a1.61,1.61,0,0,0-1.85,1.33Z" style="fill:#fdc689"/><path d="M265.87,138.29a6.05,6.05,0,0,1-.87-1.83,2.39,2.39,0,0,1,1.33-1.83c.87-.33,1.4.63,1.4.63s-1.39.51-1.5.76S265.87,138.29,265.87,138.29Z" style="fill:#3f2a01"/><path d="M276.53,142.66s1.74-3.9,1.73-5.13,0-2.07-1.44-2.44c-2.16-.55-2.26-.09-3.21-.92s-2.6-2.74-3.23-3a2.22,2.22,0,0,0-3.22,1.69,2.31,2.31,0,0,1-1.29,1.79c.05.2.42.44,1.06.89,1.83,1.32,3,1.71,4.58,1.55s4.56-.56,4.71.62-.53,4.61-.44,4.89S276.23,142.81,276.53,142.66Z" style="fill:#3f2a01"/><rect x="273.33" y="142.95" width="3.94" height="2.64" rx="0.54" transform="translate(89.27 393.26) rotate(-80.89)" style="fill:#fdc689"/><rect x="264.11" y="141.47" width="3.94" height="2.64" rx="0.54" transform="translate(82.97 382.91) rotate(-80.89)" style="fill:#fdc689"/><path d="M275.7,143.47s-.67,4.18-.9,5.57-1.14,3.94-8.25,2.8c-4.21-.68-3.56-3.74-3.39-4.76a9.14,9.14,0,0,1,1.88-3.32s-.27,1.72-.27,1.72a3.39,3.39,0,0,1,3.14-1.22c3.23.52,3.66,2.53,5.08,2.72C274.09,147.13,275.2,145.48,275.7,143.47Z" style="fill:#3f2a01"/><path d="M268.8,147.22l-2.21-.36a.53.53,0,0,1-.44-.61l0-.31,3.27.52,0,.31A.54.54,0,0,1,268.8,147.22Z" style="fill:#e9d6b8"/><path d="M228.09,156.21s1.07-3.6.51-4.5-2.77-4.05-2.77-4.05l-.63-.75s-1.15.3.36,2.4.25,1.51.25,1.51l-2-1.34-2.62-1.43-1.09-.8s-.59-.5-.82-.49c-.67,0-.4.57-.4.57l4,3.48-4.49-2.13s-.61-.17-.81.12,0,.38,0,.38l4.55,3.69-2.42-.81s-.61-.15-.81.12l-.29.38,8.95,4.54Z" style="fill:#fdc689"/><path d="M222.19,151.53l-3.24-1.3a2.65,2.65,0,0,0-1.12-.34.49.49,0,0,0-.46.51l4.7,2.47Z" style="fill:#e9d6b8"/><path d="M240.09,21.84a5.25,5.25,0,0,0,5.25,5.24l1.31-2.49c2.9,0,5.25-4.37,5.25-7.27v-2a5.25,5.25,0,0,0-5.25-5.24h-1.31a5.25,5.25,0,0,0-5.25,5.24Z" style="fill:#002b3b"/><path d="M250.85,15.2a8,8,0,0,1,1.09-.09,7.92,7.92,0,0,0,.07,1.37A8.83,8.83,0,0,0,261,24a9,9,0,0,1-17.8,1.18A8.86,8.86,0,0,1,250.85,15.2Z" style="fill:#002b3b"/><path d="M242.19,12.1a9.42,9.42,0,0,0,.12,1.48c.53,3.37,2.58,5.93,4.82,6.24.07,1.53.61,2.85.74,4.07.29,2.65,3.22,2.93,3.22,2.93.38,2.35-8.87,5.61-8.69,5.23a23.12,23.12,0,0,0,2.82-5.69,5.17,5.17,0,0,0-.81-4.25,4.3,4.3,0,0,0-3.07-1.45.6.6,0,0,1-.44-.19,3.67,3.67,0,0,1-.17-1.1V15A3.71,3.71,0,0,1,242.19,12.1Z" style="fill:#895d4a"/><path d="M236.49,60.37l0-.07,0-.06A39.45,39.45,0,0,1,240,49.64c1.19-2.3,3.6-4.49,4.66-5.59,2.74,1.49,5.44.8,8,2.73a24.34,24.34,0,0,1,.8,3.45c.39,2.23.72,4.31,1,6.25,4,.37,13.76,1.12,17.44,1.85A3.68,3.68,0,0,1,274.6,60c-.2,3.56-3.09,5.57-4.84,8.43-.31.5-23.75.07-27.77.27C242.53,68.93,234.07,69,236.49,60.37Z" style="fill:#37193b"/><path d="M273.09,65a16.26,16.26,0,0,0,1.48-2.5c.37-1.6.36-2.67-.09-3C272.74,58,266.83,61,252,83.3c-3.24,4.85-9.94,14.24-7.94,13,3.42-2.18,4.28-4.85,6.46-7.12C268.29,70.67,270.2,68.35,273.09,65Z" style="fill:#754f42"/><path d="M243.21,95.57l2.63-4.22a1.21,1.21,0,0,1,1.07-.6l-2,3.25a1.46,1.46,0,0,0,.22,1.88.91.91,0,0,0,.57.22l-.61,1a1.09,1.09,0,0,1-1.63.39A1.47,1.47,0,0,1,243.21,95.57Z"/><path d="M242.7,40.47l-4.09-7.26c-1.51-2.15-.75-4.93,1.68-5.54l12.8-3c1.54-.25,4.1,1.87,3.65,4.52l-2.61,8.71Z" style="fill:#895d4a"/><path d="M255.12,26.22c-1.7,7.92,2.56,22,2.56,22s2.45.5,2.92-.83c.59-1.7-.93-5.75-1.88-16.78C258.12,23.8,255.41,24.9,255.12,26.22Z" style="fill:#c95d4b"/><path d="M253.14,43.25c0,1-.69,3.25-1.45,3.27l-7.58-.59c-.76,0-2.62-.64-2.64-1.64l-.07-3.35a1.63,1.63,0,0,1,1.34-1.83l9.4-2.63c.75,0,1.38.78,1.41,1.78Z" style="fill:#c95d4b"/><path d="M252.56,46.64c0,.1-.54.16-1.18.12l-7.28-.45c-.64,0-1.16-.16-1.15-.27l0-.42c0-.11.54-.16,1.18-.12l7.28.45c.64,0,1.16.16,1.15.27Z" style="fill:#15100c"/><path d="M255.81,28.59a3.91,3.91,0,0,0,.42-1.52c0-.46-.2-1-.66-1.08a1.17,1.17,0,0,0-.95.5,9.42,9.42,0,0,1-1.73,1.78,15.89,15.89,0,0,1-2.46,1.27,13.21,13.21,0,0,1-4.25,1c-.51,0-6.57-.46-6.52-.88,0,.21,0,.42,0,.64,0,2.38.23,4.76.22,7.15,0,1.9,2.72,3.45,4,3.45,4.78,0,5.86-.3,10.4-1.72,1.22-.38,3.43-2.48,2.88-4.2-.37-1.17-.72-2.35-1.07-3.52a4.07,4.07,0,0,1-.4-2.32C255.69,28.93,255.75,28.76,255.81,28.59Z" style="fill:#c95d4b"/><path d="M269,66.66a12.77,12.77,0,0,0,1-2.67c.08-1.6-.2-2.53-.64-2.93-2-1.82-6.39,1.54-13.5,16.16-3.58,7.37-6.44,14.23-11.29,18.18-.7.57-.89.65-1.12,1.32a9.6,9.6,0,0,0-.3,4.58c1.07-1,3-4.26,5.61-7.46C254.28,86.92,262.49,76.89,269,66.66Z" style="fill:#895d4a"/><path d="M241.7,99.77,244,95.35a1.24,1.24,0,0,1,1-.69l-1.76,3.41a1.46,1.46,0,0,0,.36,1.86.94.94,0,0,0,.59.17l-.52,1a1.1,1.1,0,0,1-1.6.52A1.48,1.48,0,0,1,241.7,99.77Z"/><path d="M223.44,66.94a3.66,3.66,0,0,0-.88,1.3c-.07.38-.1,2.19-.1,2.19a2.16,2.16,0,0,0,.46-1.24A7.24,7.24,0,0,1,223.44,66.94Z" style="fill:#754f42"/><path d="M223,68.11a2.67,2.67,0,0,0-.72,2.16,1.55,1.55,0,0,1-.48,1.26,10.78,10.78,0,0,1,.1-2c0-.4.1-.8.17-1.19C222.32,67.06,224.39,67,223,68.11Z" style="fill:#754f42"/><path d="M224.19,66.14c.09.48-.37,1.26-.22,1.53a3.51,3.51,0,0,0,.84,1.06c-1,.3-1.52-1-2.07-1.31S224,64.92,224.19,66.14Z" style="fill:#895d4a"/><path d="M227.91,61.89a17,17,0,0,0-3.56,3.28c-.73,1.3-.53,2.29-1.34,2.94a2.61,2.61,0,0,0-.23.24c-.22.22-.49.42-.57.52s-.29.47-.26.3a13.69,13.69,0,0,1,.85-3.53,43.91,43.91,0,0,1,4.49-4.88C228.73,59.63,229.82,60.38,227.91,61.89Z" style="fill:#895d4a"/><path d="M222.93,68s-.24-.29-.47-.12a5.34,5.34,0,0,0-1,1.41c-.18.33-.74,2.06-.74,2.06a2.09,2.09,0,0,0,.8-1A8.93,8.93,0,0,1,222.93,68Z" style="fill:#895d4a"/><path d="M227.9,60a1.25,1.25,0,0,0,.34,0,3.61,3.61,0,0,0,.42-.16,10.48,10.48,0,0,0,1.05-.55c.32-.19,3.54-2.34,3.75-1.9-2.55,3.67-10.21,7.75-10.21,7.75.19-.1.38-.41.52-.56l.57-.6c.38-.4.75-.8,1.12-1.21a18.41,18.41,0,0,0,1.88-2.27,2.62,2.62,0,0,1,.23-.32.37.37,0,0,1,.13-.12A.65.65,0,0,1,227.9,60Z" style="fill:#895d4a"/><path d="M228.31,60.31a1.14,1.14,0,0,1,.71,1.16c2.16-1.64,8.16-6.25,8.7-9.3.17-.92-1.61-3.25-4.39.08-3.42,4.09-5.06,6.44-5.69,7.88A1.46,1.46,0,0,1,228.31,60.31Z" style="fill:#895d4a"/><path d="M264.9,32s.34.14.47-.12a5.47,5.47,0,0,0,.23-1.73c0-.39-.33-2.18-.33-2.18a2.2,2.2,0,0,0-.21,1.31A9.1,9.1,0,0,1,264.9,32Z" style="fill:#754f42"/><path d="M264.92,31.71a2.67,2.67,0,0,0-.39-2.26,1.57,1.57,0,0,1-.18-1.34,11.92,11.92,0,0,1,.87,1.82,3.32,3.32,0,0,1,.3,1.18C265.54,32.31,264.22,33.34,264.92,31.71Z" style="fill:#754f42"/><path d="M258.7,46.64c-.17-2.73,4.41-9.94,4.41-9.94s2.52-2.17-1.62,8.41C260.24,48.28,258.74,47.31,258.7,46.64Z" style="fill:#895d4a"/><path d="M264.86,31l.31.17.25,1.16a13.41,13.41,0,0,1-.85,2.84,39.91,39.91,0,0,0-1.16,4.34c-.18.37-2.07.45-2.07.45s1.35-3.12,1.78-4.4a32.15,32.15,0,0,0,.57-3.84c.25-.86.33-1.32.33-1.32s.45.2.13,1.59c-.09.36.36.27.36.27Z" style="fill:#895d4a"/><path d="M265,32.44a3.68,3.68,0,0,0,.08-1.58c-.14-.35-1.06-1.93-1.06-1.93a2.14,2.14,0,0,0,.26,1.3A7.44,7.44,0,0,1,265,32.44Z" style="fill:#895d4a"/><path d="M264.51,32.22s-.3.08-.4,0a2.26,2.26,0,0,0,0,.29c0,.18,0,1.41,0,1.41a10.46,10.46,0,0,1,.31-1.13,5.69,5.69,0,0,0,.19-.84,1.16,1.16,0,0,0,0-.17Z" style="fill:#895d4a"/><path d="M264.15,32c.21-.93.08-1.33,0-1.49-.05.22-.13.57-.28,1.06a7.49,7.49,0,0,0-.12,1,1.6,1.6,0,0,1,.49.87c0,.14.23-.68.24-1.17C264.33,32.24,264.08,32.23,264.15,32Z" style="fill:#754f42"/><path d="M262.17,43.1c0-.38-2.07-.88-2.43-.26l-.33.44s-2.67,3.92-.52,5.11C258.89,48.39,261.39,48.64,262.17,43.1Z" style="fill:#c95d4b"/><path d="M237.83,29.46c-1.1,9.66-3.76,22.08-3.76,22.08s2.65,2.14,3.5.94c1.09-1.52,2.1-7.14,3.28-17.81C241.58,28.06,238,28.1,237.83,29.46Z" style="fill:#c95d4b"/><rect x="248.63" y="57.95" width="22.36" height="0.46" style="fill:#cdd5d7"/><path d="M258.49,57.93a.61.61,0,0,0,.57.64h11.46c.32,0,.74-.22,1.12-1.13l5.67-10.35a.59.59,0,0,0-.66-.65l-11.77.36a1.09,1.09,0,0,0-.74.78Z" style="fill:#cdd5d7"/><path d="M259.88,58.41H248.57a4.06,4.06,0,0,0,1.83.36h18.84a4.06,4.06,0,0,0,1.83-.36Z" style="fill:#b7bec0"/><g id="Group_10465" data-name="Group 10465"><g id="Group_10455" data-name="Group 10455"><path id="Path_19790" data-name="Path 19790" d="M143.34,281.57c-.63.24-8.79.1-12.19,0a.78.78,0,0,1-.75-.79.76.76,0,0,1,.24-.55,7.84,7.84,0,0,1,4.89-2,2.71,2.71,0,0,0,2.19-1.06,13.7,13.7,0,0,0,1.68-5.75c0-.36.74-.86.71-1.26-.29-3.48,4.94.53,4.94.53a4.47,4.47,0,0,0-.39,1.6c0,1-1.46,3.61-1.17,4.8,0,.18.09.34.14.5C144.27,279.62,144.15,281.26,143.34,281.57Z" style="fill:#76503f"/><path id="Path_19791" data-name="Path 19791" d="M143.34,281.57c-.69.26-10.19.07-12.93,0-.35,0-.49-.38-.33-.69.54-1.09,2.09-2.82,5.36-3.13a3.63,3.63,0,0,0,2.57-1.14c1.15.07,2.06.58,2,1.62,0,.62,1.93.79,3.45-1.11,0,.17.08.34.13.5C144.28,279.62,144.14,281.26,143.34,281.57Z" style="fill:#202952"/></g><g id="Group_10456" data-name="Group 10456"><path id="Path_19792" data-name="Path 19792" d="M175.09,279a1.54,1.54,0,0,1-1,2.73h-6c-1.06,0-2.53-.85-2.25-3.58,0-.16,0-.34,0-.52.1-1.33.1-2.88.07-4.18,0-1.53-.11-2.69-.11-2.69l4.55-2.74.91-.55s0,.19-.07.52a34.4,34.4,0,0,0-.29,5.46,7,7,0,0,0,.82,3.48,1.45,1.45,0,0,0,.61.51A11.11,11.11,0,0,1,175.09,279Z" style="fill:#76503f"/><path id="Path_19793" data-name="Path 19793" d="M176.61,280.87a.59.59,0,0,1-.3.78.52.52,0,0,1-.24.05h-7.95c-1.06,0-2.53-.85-2.25-3.58,0-.16,0-.34,0-.52.82.52,1.28.83,2,.16a4,4,0,0,1,3.37-1.36c.49.07.6.63.8.8a1.52,1.52,0,0,0,.34.22C175.2,278.59,176.23,280,176.61,280.87Z" style="fill:#202952"/></g><path id="Path_19794" data-name="Path 19794" d="M173.57,253.85v.05q-.66,9.51-1.71,20.67h-6.25l-4.44-56.48-16.12,56.48h-7.42s8.81-55.15,13.81-72.24,23.5-1.11,23.5-1.11,0,.51.07,1.53C175.2,207.74,175.61,225,173.57,253.85Z" style="fill:#822b0e"/><path id="Path_19795" data-name="Path 19795" d="M173.57,253.85c1.36-34.07-4.24-49.22-4.24-49.22l5.68-1.88C175.2,207.74,175.61,225,173.57,253.85Z" style="opacity:0.150000005960464;isolation:isolate;fill:url(#linear-gradient-2)"/><path id="Path_19796" data-name="Path 19796" d="M131.43,180.29l0,.48.26,2.33a10,10,0,0,0-1-.22,7.68,7.68,0,0,0-2.19-.14l-.24,0a11.55,11.55,0,0,1-6.29-.56c-1-.5-.59-.88-.59-.88-2.28-.5-2.06-1.4-1.56-1.41s1.57.08,1.71.09c-1-.15-1.88-.59-1.86-.95s.47-.41,1.37-.23a26.85,26.85,0,0,0,5.07.24c1.18-.13.67-.46.13-1.16s-1.38-1.76-.9-2.06,2.24,1.75,2.9,2.21c.26.17.78.55,1.33.94Z" style="fill:#76503f"/><path id="Path_19797" data-name="Path 19797" d="M151.79,172.88c1,2.85,1.84,5.71,1.84,5.71S150.41,187,148,189a2.19,2.19,0,0,1-.37.25c-1.82,1-17.37-4.91-17.37-4.91l1.14-4.93,12.19,2.7a.51.51,0,0,0,.61-.38h0c.55-2.42,3.46-13.78,4.78-15.14C149.72,165.76,150.65,169.71,151.79,172.88Z" style="fill:#698ca0"/><path id="Path_19798" data-name="Path 19798" d="M151.79,172.88c1,2.85,1.84,5.71,1.84,5.71S150.41,187,148,189c3-5.78,3.51-16.19,3.51-16.19Z" style="opacity:0.150000005960464;isolation:isolate;fill:url(#linear-gradient-3)"/><path id="Path_19799" data-name="Path 19799" d="M180.68,176.79a37.12,37.12,0,0,1-1.59,5.06,67.45,67.45,0,0,0-4.1,20.5,33.47,33.47,0,0,1-5.34,1.08,55.47,55.47,0,0,1-18.21-1.1c0-13.62-4.52-35.08-1.74-36.89s8.27-5.07,13.06-5.49l5.14-.15c11,2.35,13.06,6,13.06,6S182.3,169.88,180.68,176.79Z" style="fill:#1d2039"/><path id="Path_19800" data-name="Path 19800" d="M173.4,145.63c-.63,4.92-6.88,8.6-6.88,8.6a36,36,0,0,0-2.28-6.82c-1.17-2.53-2.81-4.89-4.91-5.34-4.84-1-3.64-5.39-1.87-6.17a17.31,17.31,0,0,1,11.07.29c3.06,1.24,2.9,4.82,2.9,4.82S174,140.72,173.4,145.63Z" style="fill:#002b3b"/><path id="Path_19801" data-name="Path 19801" d="M167.9,159.8s-2.77,2.39-5.16,2.34a3.64,3.64,0,0,1-3.18-1.46l.14-3.14.12-2.9,7.45-4.36,0,0v1.67c0,1,0,2.26.06,2.86C167.43,156.05,167.9,159.8,167.9,159.8Z" style="fill:#895d4a"/><path id="Path_19802" data-name="Path 19802" d="M161.22,163.44s.9,1.36,1.52,1.46,1.92-1.46,1.92-1.46l-1.92-1.3Z" style="fill:#e34862"/><path id="Path_19804" data-name="Path 19804" d="M162.74,162.14l1.86,2.45,5.15-4.37-1.85-1.73Z" style="fill:#fff"/><path id="Path_19805" data-name="Path 19805" d="M159.56,159.33l3.18,2.81-1.59,2.45-2.83-3.6Z" style="fill:#fff"/><path id="Path_19806" data-name="Path 19806" d="M180.68,176.79a38.57,38.57,0,0,1-1.59,5.06,67.21,67.21,0,0,0-4.1,20.5,33.69,33.69,0,0,1-5.34,1.08,2.53,2.53,0,0,1-.26-.79c-.78-4.6,7-28,7-28S178.8,175.79,180.68,176.79Z" style="opacity:0.150000005960464;isolation:isolate;fill:url(#linear-gradient-4)"/><path id="Path_19807" data-name="Path 19807" d="M167.37,151.61l-.08.32c-1.1,4.26-5.09,5.45-7.59,5.61l.12-2.9,7.45-4.36,0,0A1.88,1.88,0,0,1,167.37,151.61Z" style="opacity:0.150000005960464;isolation:isolate;fill:url(#linear-gradient-5)"/><path id="Path_19808" data-name="Path 19808" d="M169.54,149.27c-.15,1.23-2.25,2.45-2.25,2.45-1.62,2.41-5.3,5.76-8.3,3.3-2.49-2-1.31-9.86-.84-12.44.09-.53.16-.83.16-.83a15.86,15.86,0,0,0,4.48.74c2.28,0,4,.62,3.88,3.14v0a1.09,1.09,0,0,1,0,.18c-.19,2.69-.26,2.95.1,3s.77-.58.91-.74C168.27,147.32,169.69,148,169.54,149.27Z" style="fill:#76503f"/><path id="Path_19809" data-name="Path 19809" d="M166.67,145.63a3,3,0,0,0-2.64-2.57c-1.75-.21-3.14.14-5.88-.48.09-.53.16-.83.16-.83a15.86,15.86,0,0,0,4.48.74C165.07,142.49,166.77,143.11,166.67,145.63Z" style="opacity:0.150000005960464;isolation:isolate;fill:url(#linear-gradient-6)"/><g id="Group_10464" data-name="Group 10464"><g id="Group_10457" data-name="Group 10457"><rect id="Rectangle_4994" data-name="Rectangle 4994" x="142.74" y="143" width="8.74" height="86.81" transform="translate(-79.82 256.33) rotate(-68.85)" style="fill:#fad382"/></g><g id="Group_10458" data-name="Group 10458"><rect id="Rectangle_4995" data-name="Rectangle 4995" x="143.44" y="144.02" width="6.55" height="86.81" transform="translate(-81.03 256.62) rotate(-68.85)" style="fill:#ffb600"/></g><g id="Group_10459" data-name="Group 10459"><rect id="Rectangle_4996" data-name="Rectangle 4996" x="144.83" y="146.05" width="2.18" height="86.81" transform="translate(-83.43 257.18) rotate(-68.85)" style="fill:#fad382"/></g><g id="Group_10460" data-name="Group 10460"><rect id="Rectangle_4997" data-name="Rectangle 4997" x="181.13" y="199.02" width="8.74" height="4.49" transform="translate(-69.14 301.63) rotate(-68.85)" style="fill:#202952"/></g><g id="Group_10461" data-name="Group 10461"><path id="Path_19810" data-name="Path 19810" d="M190.9,204.52l.78-2a3.27,3.27,0,0,0-1.87-4.24h0l-.65-.25L186,206.14l.65.25a3.26,3.26,0,0,0,4.23-1.87Z" style="fill:#c95d4b"/></g><g id="Group_10462" data-name="Group 10462"><path id="Path_19811" data-name="Path 19811" d="M105.09,174.81l3.15-8.15-14-.72Z" style="fill:#fad382"/></g><g id="Group_10463" data-name="Group 10463"><path id="Path_19812" data-name="Path 19812" d="M99.68,170.37l1.58-4.07-7-.36Z" style="fill:#202952"/></g></g><path id="Path_19813" data-name="Path 19813" d="M163.51,190.68l.16.42.79,2a8.75,8.75,0,0,0-.93,0,7.27,7.27,0,0,0-2,.4l-.2.09a10.51,10.51,0,0,1-5.69,1c-1-.2-.73-.64-.73-.64-1.58-.27-2-1.08-1.57-1.2a5.88,5.88,0,0,1,1.39,0c-.89.09-1.8-.08-1.87-.4s.32-.47,1.16-.53a33.14,33.14,0,0,0,4.52-1c1-.32.42-.38-.21-.85s-1.75-.74-1.4-1.12,2.56.32,3.26.56l1.39.52Z" style="fill:#76503f"/><path id="Path_19814" data-name="Path 19814" d="M180.85,165.29c2.49,1.48,3.36,8.06,2.8,17.42-.18,3-.91,9-2.76,11.52a2.28,2.28,0,0,1-.29.33c-1.5,1.42-18-.19-18-.19l-.19-5.06,12.48-.58a.51.51,0,0,0,.48-.52h0c-.1-2.48-.28-13-.14-14.91C175.59,167.72,177.45,163.25,180.85,165.29Z" style="fill:#698ca0"/></g></g></g></svg>