<svg xmlns="http://www.w3.org/2000/svg" viewBox="0 0 127 127"><defs><style>.cls-1,.cls-4,.cls-8{fill:#fff;}.cls-11,.cls-13,.cls-2,.cls-6{fill:none;}.cls-2{stroke:#707070;stroke-width:0.94px;}.cls-3{fill:#9f9386;}.cls-10,.cls-11,.cls-12,.cls-4,.cls-5,.cls-6,.cls-7,.cls-8,.cls-9{stroke:#f4aa42;}.cls-10,.cls-11,.cls-12,.cls-13,.cls-4,.cls-5,.cls-6,.cls-7,.cls-8,.cls-9{stroke-linecap:round;}.cls-10,.cls-11,.cls-4,.cls-5,.cls-6,.cls-7,.cls-8,.cls-9{stroke-linejoin:round;}.cls-4,.cls-5,.cls-6,.cls-7{stroke-width:0.47px;}.cls-5,.cls-9{fill:#f7e3cb;}.cls-12,.cls-7{fill:#f7c282;}.cls-10,.cls-11,.cls-12,.cls-8,.cls-9{stroke-width:0.71px;}.cls-10{fill:#fcd4a9;}.cls-13{stroke:#9f9386;stroke-width:1.89px;stroke-dasharray:11.34;}</style></defs><title>plan-icon</title><g id="Spend"><g id="Spend-2" data-name="Spend"><g id="Ellipse_166" data-name="Ellipse 166"><circle class="cls-1" cx="64.56" cy="64.04" r="60"/><circle class="cls-2" cx="64.56" cy="64.04" r="59.53"/></g><g id="Spend_img" data-name="Spend img"><g id="Group_1428" data-name="Group 1428"><g id="Group_1382" data-name="Group 1382"><g id="Group_1381" data-name="Group 1381"><g id="Group_1380" data-name="Group 1380"><g id="Group_1379" data-name="Group 1379"><g id="Group_1378" data-name="Group 1378"><g id="Group_1377" data-name="Group 1377"><g id="Group_1376" data-name="Group 1376"><g id="Group_1375" data-name="Group 1375"><g id="Group_1374" data-name="Group 1374"><g id="Group_1373" data-name="Group 1373"><g id="Group_1372" data-name="Group 1372"><g id="Group_1371" data-name="Group 1371"><g id="Group_1370" data-name="Group 1370"><g id="Group_1369" data-name="Group 1369"><g id="Group_1368" data-name="Group 1368"><g id="Group_1367" data-name="Group 1367"><g id="Group_1366" data-name="Group 1366"><g id="Group_1365" data-name="Group 1365"><g id="Group_1364" data-name="Group 1364"><circle id="Ellipse_116" data-name="Ellipse 116" class="cls-3" cx="64.6" cy="64.07" r="38.85"/></g></g></g></g></g></g></g></g></g></g></g></g></g></g></g></g></g></g></g></g><g id="Group_1430" data-name="Group 1430"><g id="Group_1421" data-name="Group 1421"><g id="Group_1420" data-name="Group 1420"><path id="Path_6576" data-name="Path 6576" class="cls-4" d="M36.1,56.14H31.29a.64.64,0,0,1-.63-.63h0V43.74a.25.25,0,0,1,.12-.2l5.59-3.41a.23.23,0,0,1,.32.07.28.28,0,0,1,0,.13V55.51a.64.64,0,0,1-.62.63Z"/><path id="Path_6577" data-name="Path 6577" class="cls-4" d="M44.59,56.13h-5a.39.39,0,0,1-.39-.39h0l.21-17.32a.22.22,0,0,1,.12-.19l5.37-3.29a.23.23,0,0,1,.32.08.19.19,0,0,1,0,.12V55.5A.63.63,0,0,1,44.59,56.13Z"/><path id="Path_6578" data-name="Path 6578" class="cls-4" d="M53.08,56.13h-4.8a.63.63,0,0,1-.63-.63h0V33.35a.21.21,0,0,1,.11-.19l5.59-3.68a.23.23,0,0,1,.32.07.22.22,0,0,1,0,.13V55.5a.63.63,0,0,1-.63.63Z"/><path id="Path_6579" data-name="Path 6579" class="cls-4" d="M28.23,45.51v10a.63.63,0,0,1-.63.63H22.8a.63.63,0,0,1-.63-.63h0V48.93a.24.24,0,0,1,.11-.2l5.6-3.42a.24.24,0,0,1,.32.08A.27.27,0,0,1,28.23,45.51Z"/></g></g><g id="Group_1424" data-name="Group 1424"><ellipse id="Ellipse_123" data-name="Ellipse 123" class="cls-5" cx="50.2" cy="48.11" rx="8.67" ry="8.65"/><g id="Group_1422" data-name="Group 1422"><ellipse id="Ellipse_124" data-name="Ellipse 124" class="cls-5" cx="50.2" cy="48.11" rx="7.09" ry="7.08"/></g><g id="Group_1423" data-name="Group 1423"><path id="Path_6580" data-name="Path 6580" class="cls-5" d="M48.11,49.72A2.14,2.14,0,1,0,50.63,48a3,3,0,0,0-.43,0,1.81,1.81,0,0,1-2-1.58,2,2,0,0,1,3.84,0"/><line id="Line_31" data-name="Line 31" class="cls-6" x1="50.2" y1="51.96" x2="50.2" y2="44.26"/></g></g></g><g id="Group_1431" data-name="Group 1431"><path id="Path_6562" data-name="Path 6562" class="cls-4" d="M95.07,62.67,91.2,59.93a11.07,11.07,0,0,0-11.38-.73l-3.56,1.9-.84.45,4.39,7h9.57Z"/><g id="Group_1405" data-name="Group 1405"><g id="Group_1404" data-name="Group 1404"><path id="Path_6563" data-name="Path 6563" class="cls-4" d="M80.37,65.52l-8-6.45h0a2.5,2.5,0,0,0-3.25.13,2.29,2.29,0,0,0,.13,3.23h0c5,6,14.49,11.6,14.49,11.6a6.93,6.93,0,0,0,3.87.79c2.23-.2,5.83-.92,8.35-1.27a3.54,3.54,0,0,1,2.23.44l4.34,2.47,4.27-8s-2.84-1.6-4.15-2.55a18.14,18.14,0,0,0-4.52-2.55,10.52,10.52,0,0,0-5.78-.24,16.37,16.37,0,0,1-4.26,1c-2.7.2-3.82.18-5,.18a4.73,4.73,0,0,0-1.35.13,1.8,1.8,0,0,0-.58.23,1.83,1.83,0,0,0-.88,2,2.48,2.48,0,0,0,1.6,1.78,2.73,2.73,0,0,0,1,.17,99.09,99.09,0,0,0,10.34-.15"/></g></g><g id="Group_1406" data-name="Group 1406"><path id="Path_6564" data-name="Path 6564" class="cls-7" d="M99.09,75.65l3.19,1.95a.56.56,0,0,0,.77-.19l5.49-9a.56.56,0,0,0-.18-.77h0l-3.2-2a.55.55,0,0,0-.76.18l-5.5,9a.56.56,0,0,0,.18.77Z"/><line id="Line_25" data-name="Line 25" class="cls-6" x1="103.16" y1="74.56" x2="102.23" y2="76.04"/></g><g id="Group_1408" data-name="Group 1408"><g id="Group_1407" data-name="Group 1407"><path id="Path_6565" data-name="Path 6565" class="cls-4" d="M71.8,38.4c11-1.32,16.6,9.85,10.87,13.45-2.52,1.59-6.2.31-7.87-2.74C72.78,45.43,74.33,41,71.8,38.4Z"/><path id="Path_6566" data-name="Path 6566" class="cls-6" d="M85.1,60.43s-.66-17.12-13.3-22"/><path id="Path_6567" data-name="Path 6567" class="cls-4" d="M98.18,45.88c-6.7-4.58-14.1.79-11.6,5.06,1.1,1.88,3.92,2.29,6,.87C95.17,50.11,95.68,46.68,98.18,45.88Z"/><path id="Path_6568" data-name="Path 6568" class="cls-6" d="M98.23,45.88C89,45.56,84.41,54.37,85,59.26"/><path id="Path_6569" data-name="Path 6569" class="cls-4" d="M82.36,61.12a1.92,1.92,0,0,1,.64-.36,5,5,0,0,1,.94-.24,7.52,7.52,0,0,1,2.32,0,5,5,0,0,1,.94.24,2,2,0,0,1,.64.36"/></g></g><g id="Group_1410" data-name="Group 1410"><circle id="Ellipse_118" data-name="Ellipse 118" class="cls-5" cx="75.43" cy="50.27" r="4.81"/><g id="Group_1409" data-name="Group 1409"><path id="Path_6570" data-name="Path 6570" class="cls-6" d="M73.59,51.57a1.72,1.72,0,1,0,2-1.36,2,2,0,0,0-.34,0A1.46,1.46,0,0,1,73.7,48.9a1.59,1.59,0,0,1,3.11,0"/><line id="Line_26" data-name="Line 26" class="cls-6" x1="75.28" y1="53.38" x2="75.28" y2="47.15"/></g></g><g id="Group_1412" data-name="Group 1412"><circle id="Ellipse_119" data-name="Ellipse 119" class="cls-5" cx="95.07" cy="53.57" r="4.81"/><g id="Group_1411" data-name="Group 1411"><path id="Path_6571" data-name="Path 6571" class="cls-5" d="M93.22,54.87a1.73,1.73,0,1,0,2-1.35,2,2,0,0,0-.34,0,1.45,1.45,0,0,1-1.58-1.28,1.58,1.58,0,0,1,3.1,0"/><line id="Line_27" data-name="Line 27" class="cls-6" x1="94.92" y1="56.68" x2="94.92" y2="50.46"/></g></g><g id="Group_1414" data-name="Group 1414"><circle id="Ellipse_120" data-name="Ellipse 120" class="cls-5" cx="87.84" cy="37.94" r="4.81"/><g id="Group_1413" data-name="Group 1413"><path id="Path_6572" data-name="Path 6572" class="cls-6" d="M86,39.24a1.73,1.73,0,1,0,2-1.35,2,2,0,0,0-.34,0,1.47,1.47,0,0,1-1.58-1.28,1.58,1.58,0,0,1,3.1,0"/><line id="Line_28" data-name="Line 28" class="cls-6" x1="87.69" y1="41.06" x2="87.69" y2="34.83"/></g></g></g><g id="Group_1432" data-name="Group 1432"><g id="Group_1418" data-name="Group 1418"><g id="Group_1417" data-name="Group 1417"><rect id="Rectangle_2113" data-name="Rectangle 2113" class="cls-8" x="36.63" y="77.29" width="31.03" height="23.03" rx="6.6"/><path id="Path_6573" data-name="Path 6573" class="cls-8" d="M66.71,81l-2.25,6.36-.62,1.32A5.7,5.7,0,0,1,58.69,92H45.6a5.71,5.71,0,0,1-5.14-3.23l-.65-1.37L37.57,81"/><path id="Rectangle_2114" data-name="Rectangle 2114" class="cls-9" d="M50.15,90.92h4a1.17,1.17,0,0,1,1.17,1.18h0a1.17,1.17,0,0,1-1.17,1.18h-4A1.17,1.17,0,0,1,49,92.1h0A1.17,1.17,0,0,1,50.15,90.92Z"/><g id="Group_1416" data-name="Group 1416"><path id="Path_6574" data-name="Path 6574" class="cls-9" d="M56.45,73.33H47.83a.71.71,0,0,0-.72.71h0v3.24H57.17V74A.71.71,0,0,0,56.45,73.33ZM55,77.22H49.25V75.76a.53.53,0,0,1,.52-.53H54.5a.52.52,0,0,1,.52.53Z"/></g></g><path id="Path_6575" data-name="Path 6575" class="cls-10" d="M79.42,90.34A11,11,0,1,1,67.7,80.17,11,11,0,0,1,79.42,90.34h0"/><circle id="Ellipse_121" data-name="Ellipse 121" class="cls-8" cx="68.48" cy="91.11" r="9.03"/><line id="Line_29" data-name="Line 29" class="cls-11" x1="68.75" y1="90.62" x2="68.75" y2="83.74"/></g><line id="Line_30" data-name="Line 30" class="cls-11" x1="67.57" y1="91.72" x2="63.44" y2="91.72"/><path id="Path_6581" data-name="Path 6581" class="cls-12" d="M67.7,91.21a1.1,1.1,0,0,1,2,1,1.12,1.12,0,0,1-1.5.46,1.11,1.11,0,0,1-.45-1.49Z"/></g><g id="Group_1434" data-name="Group 1434"><g id="Group_1382-2" data-name="Group 1382-2"><g id="Group_1381-2" data-name="Group 1381-2"><g id="Group_1380-2" data-name="Group 1380-2"><g id="Group_1379-2" data-name="Group 1379-2"><g id="Group_1378-2" data-name="Group 1378-2"><g id="Group_1377-2" data-name="Group 1377-2"><g id="Group_1376-2" data-name="Group 1376-2"><g id="Group_1375-2" data-name="Group 1375-2"><g id="Group_1374-2" data-name="Group 1374-2"><g id="Group_1373-2" data-name="Group 1373-2"><g id="Group_1372-2" data-name="Group 1372-2"><g id="Group_1371-2" data-name="Group 1371-2"><g id="Group_1370-2" data-name="Group 1370-2"><g id="Group_1369-2" data-name="Group 1369-2"><g id="Group_1368-2" data-name="Group 1368-2"><g id="Group_1367-2" data-name="Group 1367-2"><g id="Group_1366-2" data-name="Group 1366-2"><g id="Group_1365-2" data-name="Group 1365-2"><g id="Group_1364-2" data-name="Group 1364-2"><circle id="Ellipse_116-2" data-name="Ellipse 116-2" class="cls-13" cx="64.6" cy="64.07" r="50.58"/></g></g></g></g></g></g></g></g></g></g></g></g></g></g></g></g></g></g></g></g></g></g></g></svg>