<svg xmlns="http://www.w3.org/2000/svg" xmlns:xlink="http://www.w3.org/1999/xlink" viewBox="0 0 300 300"><defs><linearGradient id="linear-gradient" x1="-1134.59" y1="-190.53" x2="-1134.29" y2="-189.9" gradientTransform="translate(-299601.56 -38182.15) rotate(180) scale(264.23 201.51)" gradientUnits="userSpaceOnUse"><stop offset="0" stop-color="#cac1ca"/><stop offset="1" stop-color="#fff"/></linearGradient></defs><title>S-Monitor</title><g id="Layer_2" data-name="Layer 2"><g id="Spend"><rect width="300" height="300" style="fill:#fff"/><path id="Path_20834" data-name="Path 20834" d="M235.67,139.52c47.94,44.09,75.11,80.45,41.66,96.73-26.28,12.78-92.4.68-127.55,15.05-15.88,6.5-57.74,27.79-91.72,1.54C27.83,229.48-10,149,51.35,156c24.64,2.8-1.6-76.19,43.93-83.9C127.56,66.6,195.36,102.44,235.67,139.52Z" style="fill:#7d677d;opacity:0.172000005841255;isolation:isolate"/><path id="Path_20835" data-name="Path 20835" d="M20.67,198.61c7.82,13.72,17.52,26.16,26.72,34,38,32.39,78.92,17.25,97.7,10.45,41.53-15,103.07,11.26,134.42-1.85,15.23-6.37,18.29-22.52,17.39-37.33-1-16-1.23-31.5-1.08-47.51.09-9.94.18-20-1.63-29.73s-5.67-19.4-12.53-26.6A54.64,54.64,0,0,0,266,89.1c-11.2-5.51-22.91-9.66-34.33-14.51-12.6-5.35-27.95-6.47-41.27-10-8.85-2.32-15.46-7.35-22.9-12.47-13.05-9-30.27-21.12-46.89-21.17C67,30.84,72.11,128.65,43.69,124.15-7.78,116-.26,161.9,20.67,198.61Z" style="opacity:0.787999987602234;isolation:isolate;fill:url(#linear-gradient)"/><rect x="34.4" y="231.83" width="242.47" height="4.3" rx="2.13" style="fill:#2c77bc;opacity:0.30000000000000004"/><path d="M175.15,124l-.08-.12a.93.93,0,0,1,.32-1.26l3.09-2.42a.79.79,0,0,1,1.17.19l.16.31a1,1,0,0,1-.49,1.24l-3,2.27A.8.8,0,0,1,175.15,124Z" style="fill:#f2b17e"/><path d="M177.82,119.37h0l-4.49,4.17c-.34.5-.22.51,0,1l.05.09c.09.12.09.12.32.27l2.42,1.47a2.08,2.08,0,0,0,2.07.46l1.72-1.24-2.11-6.24Z" style="fill:#fbbe89"/><path d="M177.82,119.37h0l-4.49,4.17c-.34.5-.22.51,0,1l.05.09c.09.12.09.12.32.27l2.42,1.47a2.08,2.08,0,0,0,2.07.46l1.72-1.24-2.11-6.24Z" style="fill:#885c49"/><path d="M178.65,124.32c.25.1.41.3.34.45l-.43,1.09c-.06.15-.31.19-.56.09l-7.14-2.87c-.25-.1-.4-.31-.34-.46l.44-1.08c.06-.15.3-.19.55-.09Z" style="fill:#fff"/><path d="M178.65,124.32c.25.1.41.3.34.45l-.43,1.09c-.06.15-.31.19-.56.09l-7.14-2.87c-.25-.1-.4-.31-.34-.46l.44-1.08c.06-.15.3-.19.55-.09Z" style="fill:#363636"/><path d="M177.7,123.42c.31.13.51.38.43.57l-.55,1.37c-.08.19-.39.24-.7.11l-9-3.62c-.31-.13-.5-.38-.43-.57l.55-1.37c.08-.19.39-.24.7-.11Z" style="fill:#264465"/><g style="opacity:0.6000000000000001"><path d="M163.15,110.5a7.85,7.85,0,1,0,4.35,10.21A7.85,7.85,0,0,0,163.15,110.5Z" style="fill:#dbf0f4"/><path d="M160,110.7a7.14,7.14,0,0,1,6.75,4.3,7.08,7.08,0,1,1-6.75-4.3m0-.77a7.85,7.85,0,0,0-2.67,15.13,7.59,7.59,0,0,0,3.19.57,7.85,7.85,0,0,0,2.67-15.13,8,8,0,0,0-3.19-.57Z" style="fill:#88d0c8"/></g><path d="M165.48,116.31a.32.32,0,0,1-.19-.25,4.21,4.21,0,0,0-2.6-3.39h0a4.18,4.18,0,0,0-2.1-.27.31.31,0,1,1-.07-.61,4.69,4.69,0,0,1,2.4.31h0a4.84,4.84,0,0,1,3,3.88.32.32,0,0,1-.27.35Z" style="fill:#fff"/><path d="M163.75,109A9.46,9.46,0,1,0,169,121.31,9.46,9.46,0,0,0,163.75,109Zm-6.46,16.06a7.85,7.85,0,1,1,10.21-4.35A7.84,7.84,0,0,1,157.29,125.06Z" style="fill:#325b87"/><path d="M171,120.61l-.91,2.27a.6.6,0,0,0,.34.79l.57.23,9.53,3.83a.61.61,0,0,0,.79-.34l.91-2.27a.6.6,0,0,0-.33-.79l-9.62-3.87-.49-.19A.62.62,0,0,0,171,120.61Z" style="fill:#325b87"/><path d="M172.91,123l0-.07,0,0Z" style="fill:#4f4c4d"/><polygon points="184.97 122.63 182.47 126.63 188.62 131.71 190.82 130.75 190.71 127.49 184.97 122.63" style="fill:#885c49"/><path d="M184.55,122.4l-6.18-3.05c-.61-.24-.86.25-.83,1l.29,3.3-.71.37-2.49-.29a.93.93,0,0,0-1.13.76v.11c-.13.54.32.83.86,1l4.24.74h0l2.15.66a9.57,9.57,0,0,0,2.54-.52l3-2.05C186.49,123.74,185.16,122.65,184.55,122.4Z" style="fill:#885c49"/><polygon points="174.54 125.56 177.9 126.14 178.6 126.26 178.83 126.33 178.89 126.36 178.56 126.6 174.54 125.56" style="fill:#7e5f45;opacity:0.4"/><path d="M202.51,145.93,185,129.23l3.36-4.24L203,138.27l5.67-26.4a5.06,5.06,0,0,1,7.56-.74l.77.87c2.05,1.91,1.39,4.25-.52,6.29l-10.54,26.58A3.32,3.32,0,0,1,202.51,145.93Z" style="fill:#b0bfde"/><rect x="43.75" y="148.07" width="1.52" height="84.46" style="fill:#eff2f6"/><path d="M190.18,148.1H43.75v-1.79a1.71,1.71,0,0,1,1.71-1.71h143a1.72,1.72,0,0,1,1.71,1.71Z" style="fill:#7c96b2"/><rect x="43.75" y="148.1" width="146.43" height="9.59" style="fill:#eff2f6"/><rect x="188.66" y="148.1" width="1.52" height="84.74" style="fill:#eff2f6"/><path d="M170,143.41a.84.84,0,0,1-.84,1.16l-42.61,0a1.73,1.73,0,0,1-1.56-1.16l.19-1.09,44.48,0Z" style="fill:#264465"/><path d="M125.34,142.35l25,0a1.18,1.18,0,0,0,1.17-1.63l-6.23-20.14a2.42,2.42,0,0,0-2.18-1.62l-25,0a1.18,1.18,0,0,0-1.17,1.63l6.24,20.14A2.41,2.41,0,0,0,125.34,142.35Z" style="fill:#325b87"/><polygon points="123.89 138.37 149.35 138.35 143.92 120.8 118.46 120.82 123.89 138.37" style="fill:#5cb0db"/><path d="M125.78,124.36h10.68a.15.15,0,0,0,.14-.15.14.14,0,0,0-.14-.14H125.78a.15.15,0,0,0-.15.14A.15.15,0,0,0,125.78,124.36Z" style="fill:#9dd0e9"/><path d="M125.29,125.47H136a.15.15,0,0,0,.14-.15.14.14,0,0,0-.14-.14H125.29a.15.15,0,0,0-.15.14A.15.15,0,0,0,125.29,125.47Z" style="fill:#9dd0e9"/><path d="M127.57,126.58h10.68a.15.15,0,0,0,.14-.15.14.14,0,0,0-.14-.14H127.57a.15.15,0,0,0-.15.14A.15.15,0,0,0,127.57,126.58Z" style="fill:#9dd0e9"/><path d="M128.45,127.69h10.68a.15.15,0,0,0,.15-.15.15.15,0,0,0-.15-.14H128.45a.14.14,0,0,0-.14.14A.15.15,0,0,0,128.45,127.69Z" style="fill:#9dd0e9"/><path d="M129.34,129.58H140a.14.14,0,0,0,.14-.14.15.15,0,0,0-.14-.15H129.34a.15.15,0,0,0-.15.15A.15.15,0,0,0,129.34,129.58Z" style="fill:#9dd0e9"/><path d="M127.57,128.66h10.68a.15.15,0,0,0,.14-.15.14.14,0,0,0-.14-.14H127.57a.15.15,0,0,0-.15.14A.15.15,0,0,0,127.57,128.66Z" style="fill:#9dd0e9"/><path d="M128.94,131.1h10.68a.15.15,0,1,0,0-.3H128.94a.15.15,0,0,0,0,.3Z" style="fill:#9dd0e9"/><path d="M128.45,132.21h10.68a.15.15,0,0,0,0-.3H128.45a.15.15,0,0,0,0,.3Z" style="fill:#9dd0e9"/><path d="M130.73,133.31h10.68a.15.15,0,0,0,.15-.14.15.15,0,0,0-.15-.15H130.73a.15.15,0,0,0-.14.15A.14.14,0,0,0,130.73,133.31Z" style="fill:#9dd0e9"/><path d="M131.62,134.42H142.3a.14.14,0,0,0,.14-.14.15.15,0,0,0-.14-.15H131.62a.15.15,0,0,0-.15.15A.15.15,0,0,0,131.62,134.42Z" style="fill:#9dd0e9"/><path d="M132.5,136.32h10.68a.15.15,0,0,0,.15-.15.15.15,0,0,0-.15-.14H132.5a.14.14,0,0,0-.14.14A.15.15,0,0,0,132.5,136.32Z" style="fill:#9dd0e9"/><path d="M130.73,135.39h10.68a.15.15,0,0,0,.15-.14.15.15,0,0,0-.15-.15H130.73a.15.15,0,0,0-.14.15A.14.14,0,0,0,130.73,135.39Z" style="fill:#9dd0e9"/><path d="M177.05,153.43v-4.38h0v-4.38c0-15.68-13.07-15.54-13.07-15.54l-13.34-.31c3.76.79,10.73,2.44,10.73,13.9v4.39h0v4.37c0,15.68,13.07,15.54,13.07,15.54l13.34.31C184,166.54,177.05,164.89,177.05,153.43Z" style="fill:#e5eaf0"/><path d="M148.53,128.54S133,128.37,133,147.06v48.26S136.16,218,115.69,218H85.77c-11.45,0-14.46-7-15.25-10.72l2.14,22.16s-.58,4.17,14.68,4.24h41.58c11.09,0,16.83-6.67,19.77-12.78a31.83,31.83,0,0,0,2.95-13.77V144.74c0-14.73,9.63-15.63,12.08-15.62Z" style="fill:#f1f8fd"/><path d="M163.72,129.12l.57,0S164.08,129.12,163.72,129.12Z" style="fill:#f1f2f2"/><polygon points="116.27 141.52 116.27 141.03 116.27 140.79 116.27 140.54 78.5 140.54 78.5 140.79 78.5 141.03 78.5 141.52 78.5 142.01 80.21 142.01 80.21 142.58 78.5 142.58 78.5 142.82 78.5 142.94 78.5 143.06 78.5 143.18 78.5 143.42 78.5 143.61 78.5 143.66 78.5 143.85 78.5 144.09 78.5 144.33 78.5 144.57 116.27 144.57 116.27 144.33 116.27 144.09 116.27 143.85 116.27 143.66 116.27 143.61 116.27 143.42 116.27 143.18 116.27 143.06 116.27 142.94 116.27 142.82 116.27 142.7 117.98 142.7 117.98 141.72 116.27 141.72 116.27 141.52" style="fill:#e5eaf0"/><polygon points="78.43 140.02 78.43 140.26 78.43 140.5 116.2 140.5 116.2 140.26 116.2 140.02 116.2 139.78 116.2 139.54 115.67 139.54 115.67 139.3 116.2 139.3 116.2 139.06 116.2 138.87 116.2 138.82 116.2 138.63 117.64 138.63 117.64 138.39 116.2 138.39 116.2 138.27 116.2 138.15 116.2 138.03 116.2 137.79 114.85 137.79 114.85 137.22 116.2 137.22 116.2 136.73 117.24 136.73 117.24 135.75 79.47 135.75 79.47 136 78.43 136 78.43 136.24 78.43 136.93 77.08 136.93 77.08 137.91 78.43 137.91 78.43 138.03 78.43 138.15 78.43 138.27 78.43 138.39 79.86 138.39 79.86 138.63 78.43 138.63 78.43 138.82 78.43 138.87 78.43 139.06 78.43 139.3 77.9 139.3 77.9 139.54 78.43 139.54 78.43 139.78 78.43 140.02" style="fill:#e5eaf0"/><polygon points="117.16 128.75 117.26 128.75 117.26 128.51 117.38 128.51 117.38 128.27 79.61 128.27 79.61 128.51 79.49 128.51 79.49 128.75 79.39 128.75 79.39 128.99 117.16 128.99 117.16 128.75" style="fill:#e5eaf0"/><polygon points="116.67 126.26 116.67 125.4 116.44 125.4 116.44 124.71 115.98 124.71 115.98 124.22 113.31 124.22 113.31 124.1 113.31 123.86 113.31 123.62 113.31 123.38 112.78 123.38 112.78 123.14 113.31 123.14 113.31 122.9 113.31 122.71 113.31 122.66 113.31 122.47 114.75 122.47 114.75 122.23 113.31 122.23 113.31 122.11 113.31 121.99 113.31 121.87 113.31 121.63 111.96 121.63 111.96 121.06 113.31 121.06 113.31 120.57 114.35 120.57 114.35 119.59 76.58 119.59 76.58 119.84 75.54 119.84 75.54 120.08 75.54 120.77 74.19 120.77 74.19 121.75 75.54 121.75 75.54 121.87 75.54 121.99 75.54 122.11 75.54 122.23 76.97 122.23 76.97 122.47 75.54 122.47 75.54 122.66 75.54 122.71 75.54 122.9 75.54 123.14 75.01 123.14 75.01 123.38 75.54 123.38 75.54 123.62 75.54 123.86 75.54 124.1 75.54 124.33 78.21 124.33 78.21 125.2 78.67 125.2 78.67 125.69 78.9 125.69 78.9 126.38 80.67 126.38 80.67 126.5 80.42 126.5 80.42 126.62 80.08 126.62 80.08 126.86 79.46 126.86 79.46 127.1 79.46 127.29 78.85 127.29 78.85 127.53 78.85 127.77 79.16 127.77 79.16 128 79.23 128 79.23 128.24 117 128.24 117 128 116.93 128 116.93 127.77 116.62 127.77 116.62 127.53 116.62 127.33 117.23 127.33 117.23 127.1 117.23 126.86 117.84 126.86 117.84 126.74 118.19 126.74 118.19 126.5 118.44 126.5 118.44 126.26 116.67 126.26" style="fill:#e5eaf0"/><polygon points="79.15 132.27 79.15 132.51 79.03 132.51 79.03 132.75 78.92 132.75 78.92 132.99 78.47 132.99 78.47 133.23 78.37 133.23 78.37 133.47 78.25 133.47 78.25 133.71 78.14 133.71 78.14 133.95 78.07 133.95 78.07 134.19 77.76 134.19 77.76 134.43 77.76 134.67 78.37 134.67 78.37 134.86 78.37 135.1 78.98 135.1 78.98 135.34 79.33 135.34 79.33 135.46 79.57 135.46 79.57 135.7 117.34 135.7 117.34 135.46 117.1 135.46 117.1 135.22 116.75 135.22 116.75 135.1 116.14 135.1 116.14 134.86 116.14 134.62 115.53 134.62 115.53 134.43 115.53 134.19 115.84 134.19 115.84 133.95 115.91 133.95 115.91 133.71 116.02 133.71 116.02 133.47 116.14 133.47 116.14 133.23 116.24 133.23 116.24 132.99 116.69 132.99 116.69 132.75 116.8 132.75 116.8 132.51 116.92 132.51 116.92 132.27 117.02 132.27 117.02 132.03 116.24 132.03 116.24 131.79 116.35 131.79 116.35 131.56 116.47 131.56 116.47 131.32 116.57 131.32 116.57 131.08 116.69 131.08 116.69 130.84 116.8 130.84 116.8 130.6 116.92 130.6 116.92 130.36 117.02 130.36 117.02 130.12 117.01 130.12 117.01 129.88 117.13 129.88 117.13 129.64 117.24 129.64 117.24 129.4 117.34 129.4 117.34 129.16 79.57 129.16 79.57 129.4 79.47 129.4 79.47 129.64 79.36 129.64 79.36 129.88 79.24 129.88 79.24 130.12 79.25 130.12 79.25 130.36 79.15 130.36 79.15 130.6 79.03 130.6 79.03 130.84 78.92 130.84 78.92 131.08 78.8 131.08 78.8 131.32 78.7 131.32 78.7 131.56 78.58 131.56 78.58 131.79 78.47 131.79 78.47 132.03 79.25 132.03 79.25 132.27 79.15 132.27" style="fill:#e5eaf0"/><g style="opacity:0.30000000000000004"><polygon points="116.63 125.93 104.32 125.91 89.91 125.91 78.74 125.93 78.74 125.93 89.91 125.79 104.33 125.79 116.63 125.92 116.63 125.93" style="fill:#325b87"/><polygon points="116.86 131.67 104.55 131.65 90.14 131.65 78.97 131.67 78.97 131.67 90.14 131.53 104.56 131.53 116.86 131.66 116.86 131.67" style="fill:#325b87"/><polygon points="116.86 132.06 108.85 132.04 99.47 132.04 92.21 132.06 92.21 132.06 99.47 131.93 108.86 131.93 116.86 132.06 116.86 132.06" style="fill:#325b87"/><polygon points="116.97 142.08 104.67 142.06 90.25 142.06 79.09 142.08 79.09 142.08 90.25 141.94 104.68 141.94 116.97 142.08 116.97 142.08" style="fill:#325b87"/><polygon points="116.97 142.48 108.97 142.46 99.58 142.46 92.32 142.48 92.32 142.48 99.58 142.34 108.97 142.34 116.97 142.47 116.97 142.48" style="fill:#325b87"/><polygon points="115.73 134.06 103.42 134.04 89 134.04 77.84 134.06 77.84 134.06 89 133.92 103.43 133.92 115.73 134.06 115.73 134.06" style="fill:#325b87"/><polygon points="115.73 134.46 107.72 134.44 98.34 134.44 91.08 134.46 91.08 134.46 98.34 134.32 107.72 134.32 115.73 134.46 115.73 134.46" style="fill:#325b87"/><polygon points="79.55 127.52 91.86 127.5 106.27 127.5 117.43 127.52 117.43 127.52 106.27 127.38 91.85 127.38 79.55 127.51 79.55 127.52" style="fill:#325b87"/><polygon points="79.55 127.91 87.56 127.89 96.94 127.89 104.2 127.91 104.2 127.91 96.94 127.77 87.55 127.77 79.55 127.91 79.55 127.91" style="fill:#325b87"/><polygon points="78.97 139.41 91.28 139.39 105.7 139.39 116.86 139.41 116.86 139.41 105.7 139.27 91.27 139.27 78.97 139.41 78.97 139.41" style="fill:#325b87"/><polygon points="78.97 139.81 86.98 139.79 96.36 139.79 103.63 139.81 103.63 139.81 96.36 139.67 86.98 139.67 78.97 139.81 78.97 139.81" style="fill:#325b87"/><polygon points="78.64 136.6 90.95 136.59 105.36 136.59 116.52 136.6 116.52 136.6 105.36 136.47 90.94 136.47 78.64 136.6 78.64 136.6" style="fill:#325b87"/><polygon points="78.64 137 86.65 136.98 96.03 136.98 103.29 137 103.29 137 96.03 136.86 86.64 136.86 78.64 137 78.64 137" style="fill:#325b87"/><polygon points="75.73 123.13 88.03 123.11 102.45 123.11 113.61 123.13 113.61 123.13 102.45 122.99 88.03 122.99 75.73 123.13 75.73 123.13" style="fill:#325b87"/><polygon points="75.73 123.53 83.74 123.51 93.12 123.51 100.38 123.53 100.38 123.53 93.12 123.39 83.73 123.39 75.73 123.52 75.73 123.53" style="fill:#325b87"/></g><g style="opacity:0.2"><polygon points="75.11 121.19 87.42 121.17 101.84 121.17 113 121.19 113 121.19 101.84 121.05 87.41 121.05 75.11 121.19 75.11 121.19" style="fill:#325b87"/><polygon points="75.11 121.59 83.12 121.57 92.5 121.57 99.77 121.59 99.77 121.59 92.5 121.45 83.12 121.45 75.11 121.59 75.11 121.59" style="fill:#325b87"/></g><g style="opacity:0.2"><polygon points="116.33 141.51 116.33 141.01 116.33 140.78 116.33 140.53 109.2 140.54 109.2 140.79 109.2 141.03 109.21 141.52 109.21 141.72 110.92 141.72 110.93 142.7 109.21 142.7 109.21 142.82 109.21 142.94 109.21 143.06 109.21 143.18 109.21 143.42 109.21 143.61 109.21 143.66 109.21 143.85 109.21 144.09 109.21 144.33 109.21 144.57 116.34 144.55 116.34 144.31 116.33 144.07 116.33 143.83 116.33 143.64 116.33 143.59 116.33 143.4 116.33 143.16 116.33 143.04 116.33 142.93 116.33 142.81 116.33 142.69 118.05 142.68 118.05 141.7 116.33 141.71 116.33 141.51" style="fill:#7c96b2"/><polygon points="109.13 136.74 109.13 137.23 107.78 137.23 107.78 137.8 109.13 137.8 109.13 138.04 109.13 138.16 109.13 138.28 109.13 138.4 110.57 138.39 110.57 138.63 109.13 138.64 109.13 138.83 109.13 138.88 109.13 139.07 109.13 139.31 108.6 139.31 108.61 139.55 109.13 139.54 109.13 139.78 109.13 140.03 109.14 140.26 109.14 140.5 116.26 140.49 116.26 140.25 116.26 140.01 116.26 139.77 116.26 139.53 115.73 139.53 115.73 139.29 116.25 139.29 116.25 139.05 116.25 138.86 116.25 138.81 116.25 138.62 117.69 138.62 117.69 138.38 116.25 138.38 116.25 138.26 116.25 138.14 116.25 138.02 116.25 137.78 114.9 137.78 114.9 137.22 116.25 137.21 116.25 136.72 117.29 136.72 117.29 135.74 110.17 135.75 110.17 136.74 109.13 136.74" style="fill:#7c96b2"/><polygon points="110.17 128.51 110.17 128.75 110.06 128.75 110.07 128.99 117.19 128.97 117.19 128.73 117.29 128.73 117.29 128.49 117.41 128.49 117.41 128.25 110.28 128.27 110.28 128.51 110.17 128.51" style="fill:#7c96b2"/><polygon points="116.7 126.24 116.7 125.38 116.47 125.38 116.46 124.69 116 124.69 116 124.2 113.33 124.21 113.33 124.09 113.33 123.85 113.33 123.61 113.33 123.37 112.8 123.37 112.8 123.13 113.33 123.13 113.33 122.89 113.32 122.7 113.32 122.65 113.32 122.46 114.76 122.46 114.76 122.22 113.32 122.22 113.32 122.1 113.32 121.98 113.32 121.86 113.32 121.62 111.97 121.63 111.97 121.06 113.32 121.05 113.32 120.56 114.36 120.56 114.36 119.58 107.24 119.6 107.24 120.58 106.2 120.58 106.2 121.07 104.85 121.08 104.85 121.64 106.2 121.64 106.2 121.88 106.2 122 106.2 122.12 106.2 122.24 107.64 122.24 107.64 122.48 106.2 122.48 106.2 122.67 106.2 122.72 106.2 122.91 106.2 123.15 105.67 123.15 105.67 123.39 106.2 123.39 106.2 123.63 106.2 123.87 106.2 124.11 106.2 124.23 108.88 124.22 108.88 124.71 109.34 124.71 109.34 125.4 109.57 125.4 109.58 126.26 111.34 126.26 111.34 126.5 111.09 126.5 111.09 126.74 110.75 126.74 110.75 126.86 110.13 126.86 110.14 127.1 110.14 127.34 109.52 127.34 109.52 127.53 109.53 127.77 109.84 127.77 109.84 128.01 109.91 128.01 109.91 128.25 117.03 128.23 117.03 127.99 116.96 127.99 116.96 127.75 116.65 127.75 116.65 127.51 116.65 127.32 117.26 127.32 117.26 127.08 117.26 126.84 117.87 126.84 117.87 126.72 118.22 126.72 118.22 126.48 118.46 126.48 118.46 126.24 116.7 126.24" style="fill:#7c96b2"/><polygon points="110.15 129.4 110.15 129.64 110.04 129.64 110.04 129.88 109.92 129.88 109.92 130.12 109.93 130.12 109.93 130.36 109.83 130.36 109.83 130.6 109.72 130.6 109.72 130.84 109.6 130.84 109.6 131.08 109.48 131.08 109.49 131.32 109.38 131.32 109.38 131.56 109.27 131.56 109.27 131.8 109.15 131.8 109.15 132.04 109.94 132.04 109.94 132.28 109.83 132.28 109.83 132.52 109.72 132.52 109.72 132.76 109.61 132.76 109.61 133 109.16 133 109.16 133.24 109.06 133.24 109.06 133.48 108.94 133.48 108.94 133.72 108.83 133.72 108.83 133.96 108.76 133.96 108.76 134.19 108.45 134.2 108.45 134.44 108.45 134.63 109.06 134.62 109.06 134.86 109.06 135.1 109.68 135.1 109.68 135.22 110.02 135.22 110.02 135.46 110.27 135.46 110.27 135.7 117.39 135.68 117.39 135.44 117.15 135.44 117.15 135.2 116.8 135.2 116.8 135.08 116.19 135.09 116.18 134.85 116.18 134.61 115.57 134.61 115.57 134.42 115.57 134.18 115.88 134.18 115.88 133.94 115.95 133.94 115.95 133.7 116.07 133.7 116.06 133.46 116.18 133.46 116.18 133.22 116.28 133.22 116.28 132.98 116.73 132.98 116.73 132.74 116.84 132.74 116.84 132.5 116.96 132.5 116.96 132.26 117.06 132.26 117.06 132.02 116.28 132.02 116.28 131.78 116.39 131.78 116.39 131.54 116.5 131.54 116.5 131.3 116.61 131.3 116.61 131.06 116.72 131.06 116.72 130.82 116.84 130.82 116.84 130.58 116.95 130.58 116.95 130.34 117.06 130.34 117.06 130.1 117.04 130.1 117.04 129.86 117.16 129.86 117.16 129.62 117.27 129.62 117.27 129.38 117.38 129.38 117.38 129.15 110.25 129.16 110.25 129.4 110.15 129.4" style="fill:#7c96b2"/></g><path d="M83.59,137a17.24,17.24,0,0,0-1.8-3.93H96.64C92.62,133.58,85,135.07,83.59,137Z" style="fill:#414042;opacity:0.30000000000000004"/><path d="M81.83,136.29A13.38,13.38,0,0,0,80,133H96.8C92.76,133.49,83.28,134.73,81.83,136.29Z" style="fill:#fff"/><path d="M98.15,125.59a8,8,0,0,1,1.53-2H87.06C90.48,123.83,96.92,124.61,98.15,125.59Z" style="fill:#414042;opacity:0.30000000000000004"/><path d="M99.65,125.24a6.89,6.89,0,0,1,1.54-1.7H86.92C90.36,123.78,98.42,124.43,99.65,125.24Z" style="fill:#fff"/><polygon points="103.63 141.77 101.94 141.77 101.94 141.58 101.94 141.09 101.94 140.86 101.94 140.61 64.87 140.61 64.87 140.86 64.87 141.09 64.87 141.58 64.87 142.06 66.56 142.06 66.56 142.62 64.87 142.62 64.87 142.85 64.87 142.97 64.87 143.09 64.87 143.2 64.87 143.44 64.87 143.63 64.87 143.67 64.87 143.86 64.87 144.1 64.87 144.33 64.87 144.57 101.94 144.57 101.94 144.33 101.94 144.1 101.94 143.86 101.94 143.67 101.94 143.63 101.94 143.44 101.94 143.2 101.94 143.09 101.94 142.97 101.94 142.85 101.94 142.73 103.63 142.73 103.63 141.77" style="fill:#e5eaf0"/><polygon points="64.8 140.1 64.8 140.34 64.8 140.57 101.87 140.57 101.87 140.34 101.87 140.1 101.87 139.87 101.87 139.63 101.35 139.63 101.35 139.4 101.87 139.4 101.87 139.16 101.87 138.98 101.87 138.93 101.87 138.74 103.28 138.74 103.28 138.51 101.87 138.51 101.87 138.39 101.87 138.27 101.87 138.16 101.87 137.92 100.55 137.92 100.55 137.36 101.87 137.36 101.87 136.88 102.9 136.88 102.9 135.92 65.83 135.92 65.83 136.16 64.8 136.16 64.8 136.4 64.8 137.07 63.48 137.07 63.48 138.04 64.8 138.04 64.8 138.16 64.8 138.27 64.8 138.39 64.8 138.51 66.21 138.51 66.21 138.74 64.8 138.74 64.8 138.93 64.8 138.98 64.8 139.16 64.8 139.4 64.28 139.4 64.28 139.63 64.8 139.63 64.8 139.87 64.8 140.1" style="fill:#e5eaf0"/><g style="opacity:0.30000000000000004"><polygon points="102.63 142.13 90.56 142.11 76.41 142.11 65.45 142.13 65.45 142.13 76.41 141.99 90.56 141.99 102.63 142.12 102.63 142.13" style="fill:#325b87"/><polygon points="102.63 142.52 94.77 142.5 85.57 142.5 78.44 142.52 78.44 142.52 85.57 142.38 94.78 142.38 102.63 142.51 102.63 142.52" style="fill:#325b87"/></g><g style="opacity:0.30000000000000004"><polygon points="65.34 139.51 77.42 139.49 91.57 139.49 102.52 139.51 102.52 139.51 91.57 139.37 77.41 139.37 65.34 139.51 65.34 139.51" style="fill:#325b87"/><polygon points="65.34 139.9 73.2 139.88 82.41 139.88 89.53 139.9 89.53 139.9 82.41 139.76 73.19 139.76 65.34 139.9 65.34 139.9" style="fill:#325b87"/></g><g style="opacity:0.30000000000000004"><polygon points="65.01 136.75 77.09 136.73 91.24 136.73 102.19 136.75 102.19 136.75 91.24 136.62 77.08 136.62 65.01 136.75 65.01 136.75" style="fill:#325b87"/><polygon points="65.01 137.14 72.87 137.12 82.08 137.12 89.2 137.14 89.2 137.14 82.08 137.01 72.87 137.01 65.01 137.14 65.01 137.14" style="fill:#325b87"/></g><g style="opacity:0.2"><polygon points="101.94 141.58 101.94 141.09 101.94 140.86 101.94 140.61 90.74 140.61 90.74 140.86 90.74 141.09 90.74 141.58 90.74 141.77 92.43 141.77 92.43 142.73 90.74 142.73 90.74 142.85 90.74 142.97 90.74 143.09 90.74 143.2 90.74 143.44 90.74 143.63 90.74 143.67 90.74 143.86 90.74 144.1 90.74 144.33 90.74 144.57 101.94 144.57 101.94 144.33 101.94 144.1 101.94 143.86 101.94 143.67 101.94 143.63 101.94 143.44 101.94 143.2 101.94 143.09 101.94 142.97 101.94 142.85 101.94 142.73 103.63 142.73 103.63 141.77 101.94 141.77 101.94 141.58" style="fill:#7c96b2"/><polygon points="90.68 136.88 90.68 137.36 89.35 137.36 89.35 137.92 90.68 137.92 90.68 138.16 90.68 138.27 90.68 138.39 90.68 138.51 92.09 138.51 92.09 138.74 90.68 138.74 90.68 138.93 90.68 138.98 90.68 139.16 90.68 139.4 90.16 139.4 90.16 139.63 90.68 139.63 90.68 139.87 90.68 140.1 90.68 140.34 90.68 140.57 101.87 140.57 101.87 140.34 101.87 140.1 101.87 139.87 101.87 139.63 101.35 139.63 101.35 139.4 101.87 139.4 101.87 139.16 101.87 138.98 101.87 138.93 101.87 138.74 103.28 138.74 103.28 138.51 101.87 138.51 101.87 138.39 101.87 138.27 101.87 138.16 101.87 137.92 100.55 137.92 100.55 137.36 101.87 137.36 101.87 136.88 102.9 136.88 102.9 135.92 91.7 135.92 91.7 136.88 90.68 136.88" style="fill:#7c96b2"/></g><path d="M71,140.7a6,6,0,0,0-1.63-1.06H82.82C79.18,139.79,72.31,140.19,71,140.7Z" style="fill:#325b87;opacity:0.30000000000000004"/><path d="M69.4,140.52a6.32,6.32,0,0,0-1.63-.88H83C79.3,139.76,70.72,140.1,69.4,140.52Z" style="fill:#fff"/><path d="M188.74,137.56l-3.42-1.24-3.13-1.83,0,0-.74-.39-.18-.11h0l-1.76-.95-6,.09.21.6.48.46,4.16.91.41.3-.21.15-1,.77-1.85.45a10.77,10.77,0,0,0-3.21,3l7.48,1.94,5.91-.14,6,1.5,1.31-4.58Z" style="fill:#885c49"/><path d="M188.56,141l-3.1-.32h-5l-6-2,2-2-.79.08a10.54,10.54,0,0,0-3.21,3l7.47,1.93,5.91-.13L188,142l.33.08Z" style="fill:#fff;opacity:0.2"/><polygon points="175.95 121.93 178 120 178 120 179.01 120.12 184 123 187.38 126.2 188.1 125.29 185.22 122.81 183.09 121.68 178 119 178 119 175.33 121.68 175.95 121.93" style="fill:#fff;opacity:0.2"/></g><g id="Report"><path d="M252.4,187.1a8.29,8.29,0,0,0,5.1-1.66c2.56-2,3.67-5.56,3.3-10.58-.25-3.38-1.74-6.81-3.31-10.45-2.64-6.1-5.64-13-4.07-22.18l-2.92-.4c-1.69,9.85,1.6,17.44,4.24,23.54,1.56,3.59,2.9,6.69,3.12,9.67.3,4.07-.48,7-2.27,8.38a5.31,5.31,0,0,1-3.89,1l-.59,2.59A7.3,7.3,0,0,0,252.4,187.1Z" style="fill:#484f59"/><path d="M229.8,208.1,226.92,212,251,219s1.61-1.38-4.31-4.16C239.84,211.57,229.8,208.1,229.8,208.1Z" style="fill:#a8a1b1"/><path d="M225.51,208.1l2.88,3.93L204.27,219s-1.61-1.38,4.31-4.16C215.47,211.57,225.51,208.1,225.51,208.1Z" style="fill:#a8a1b1"/><rect x="225.14" y="196.4" width="5.04" height="16.11" style="fill:#a8a1b1"/><path d="M230.12,208.92l-2.46,3.76,20.64,6.61s1.38-1.32-3.68-4C238.72,212.23,230.12,208.92,230.12,208.92Z" style="fill:#c6c7c9"/><path d="M225.19,208.92l2.46,3.76L207,219.29s-1.38-1.32,3.68-4C216.59,212.23,225.19,208.92,225.19,208.92Z" style="fill:#c6c7c9"/><path d="M246,220.78a1.76,1.76,0,1,0,1.75-1.57A1.66,1.66,0,0,0,246,220.78Z" style="fill:#161711"/><path d="M206,220.78a1.76,1.76,0,1,0,1.75-1.57A1.67,1.67,0,0,0,206,220.78Z" style="fill:#161711"/><path d="M250.2,220.78a1.77,1.77,0,1,0,1.76-1.57A1.67,1.67,0,0,0,250.2,220.78Z" style="fill:#484f59"/><path d="M201.74,220.78a1.76,1.76,0,1,0,1.75-1.57A1.66,1.66,0,0,0,201.74,220.78Z" style="fill:#484f59"/><rect x="225.88" y="190.5" width="3.69" height="5.79" style="fill:#484f59"/><path d="M223.11,187.44a3.42,3.42,0,0,0,3.6,3.23h2a3.42,3.42,0,0,0,3.59-3.23h0a3.42,3.42,0,0,0-3.59-3.22h-2a3.42,3.42,0,0,0-3.6,3.22Z" style="fill:#484f59"/><path d="M200.33,184.49c-.09-.38-.14-2.76-.14-3.17a4.47,4.47,0,0,1,4.19-4.71h46.68a4.47,4.47,0,0,1,4.19,4.71c0,.41-.05,2.79-.14,3.17Z" style="fill:#ad5c49"/><path d="M255.68,185.77a1.32,1.32,0,0,1-1.16,1.44h-53.6a1.32,1.32,0,0,1-1.16-1.44h0a1.32,1.32,0,0,1,1.16-1.44h53.6a1.32,1.32,0,0,1,1.16,1.44Z" style="fill:#484f59"/><path d="M253.07,160.29c-1.15.08-8.47.19-9.73.21-8,.09-14.91-1.26-15.29-3a55,55,0,0,1-.21-22.27c.34-1.77,7.34-3.12,15.52-3,1.29,0,8.76.14,9.93.21A54.27,54.27,0,0,0,253.07,160.29Z" style="fill:#ad5c49"/><path d="M254.17,132.37c.9,0,1.52.39,1.4.86a54.07,54.07,0,0,0-.25,26.21c.11.47-.51.85-1.39.86h0c-.88,0-1.69-.36-1.8-.82a54.39,54.39,0,0,1,.19-26.29c.13-.46,1-.83,1.85-.82Z" style="fill:#484f59"/><path d="M254.53,160.28a20.61,20.61,0,0,1-2.1.12,4.1,4.1,0,0,1-3.9-3.1,54.36,54.36,0,0,1,.12-21.93,4.2,4.2,0,0,1,4-3.11c.29,0,1.9.06,2.14.13A54.27,54.27,0,0,0,254.53,160.28Z" style="fill:#975140"/><path d="M209.09,124.1l2.9,26.37v1.59l8.7-.45s-2.52-21.06-2.9-22.08a79.53,79.53,0,0,1-1.14-11.43c.13-1.59-3.09-12.23-6.48-7.82C205.29,116.62,209.09,124.1,209.09,124.1Z" style="fill:#b0bfde"/><path d="M218.85,102.82c1.37,5.49,7.55,8.93,13.79,7.67s10.2-6.73,8.83-12.22-7.54-8.92-13.79-7.67S217.48,97.33,218.85,102.82Z" style="fill:#282723"/><path d="M208.18,97.18c1,4.22,5.71,6.87,10.41,5.93l1.22-4.06c4.7-.94,7.65-5.13,6.6-9.35l-.72-2.86c-1.05-4.22-5.71-6.87-10.41-5.93l-2.12.43c-4.7,1-7.66,5.14-6.6,9.35Z" style="fill:#282723"/><path d="M208.77,85.27a14.8,14.8,0,0,0,.75,2.11c2.08,4.73,6.33,7.79,10.07,7.52a22.77,22.77,0,0,0,2.68,5.67c1.16,1.8,4.19,3.33,4.19,3.33,1.47,3.3-9.46,10.62-10.08,10.33-1.34-.62-2.74-4.81-.33-7.27,1.13-1.16,2.28-2.52,2.31-3.29.08-2.73-.88-3.31-2.34-4.56a7.84,7.84,0,0,0-5.5-1.11,1.11,1.11,0,0,1-.79-.13,5.24,5.24,0,0,1-.67-1.55L207.49,90A5.13,5.13,0,0,1,208.77,85.27Z" style="fill:#885c49"/><path d="M224,155.51s-3.77,3.06-4.83,3.33c-1.42.37-5.39-1.17-5.39-1.17s1.1-15.9.69-22.2-2.06-8.12-1.87-10.06a20.23,20.23,0,0,1,1.48-6.19c.84-2.37,2.08-6.28,2.85-6.72a10.33,10.33,0,0,0,3.44-2.79C220.87,109.05,224,155.51,224,155.51Z" style="fill:#c95d4b"/><path d="M215.71,105s-5.46,4.19-5.39,5.71-1.19,9.75-.64,16.54,1.33,8.52,1.08,13.43-1.61,5.91-1.7,12a86.66,86.66,0,0,0,.38,8.95,4.78,4.78,0,0,0,4.28-.85c2-1.62,2.79-18,2.49-22.11s-2-14.84-1.57-17.64,2.21-11.4,2.84-12.24C219.06,106.65,216.09,105.27,215.71,105Z" style="fill:#d1dbea"/><path d="M215.73,104.59a2.46,2.46,0,0,0,.56.66,10.24,10.24,0,0,1,1.38,1.31s-1-.51-1.43.25a14.27,14.27,0,0,0-1.05,3.07s-1.61-2.9-1.09-3.75C215.05,104.6,215.73,104.59,215.73,104.59Z" style="fill:#b0bfde"/><path d="M222.15,116.66c1.43,5.74,7.89,9.32,14.41,8s10.65-7,9.22-12.76-7.88-9.32-14.4-8S220.72,110.93,222.15,116.66Z" style="fill:#282723"/><polygon points="197.24 209.89 199.5 225.47 189.72 229.51 184.29 230.53 193.93 224.07 190.77 210.01 197.24 209.89" style="fill:#895d4a"/><path d="M200.15,227.82l-2.13.5-1.42-1.15-7.82,3.41L181.84,232a1.06,1.06,0,0,1,.15-.75c.88-1,5.73-3.19,5.73-3.19s.08,1.45.77,1.49,6.68-2.69,8.06-3.45c2.39-1.31,2.83-2.12,3-2C200.05,224.35,200.15,227.82,200.15,227.82Z" style="fill:#161711"/><polygon points="173.62 188.21 165.85 201.49 155.09 201.02 149.75 199.69 161.62 197.94 168.11 186.59 173.62 188.21" style="fill:#895d4a"/><path d="M165.21,203.84l-2.14-.44-.67-1.6-9.64-.13L147,200.5a4.66,4.66,0,0,1,1.13-.83A35.88,35.88,0,0,1,154,199s-.48,1.13.11,1.46,7.22.51,8.84.41c2.79-.17,3.6-.71,3.71-.54C166.91,200.72,165.21,203.84,165.21,203.84Z" style="fill:#161711"/><path d="M230.42,148.49l-5.8,2.26-2.52,6.79L184.79,152s-3.8-1.05-6.22,4.34c-3.44,7.67-12.21,31.52-12.21,31.52l5.55,5.2,17.4-26.94s35.66,15,47.42,11.77c4.51-1.24,8-8.39,7.32-15.62a84.79,84.79,0,0,0-1.77-10.87Z" style="fill:#194866"/><path d="M225.38,177.75l-28.54-1.85,2.46,39.54-8.42.24-6.21-46.3s1.67-6.89,7.12-5.85S210.43,173.64,225.38,177.75Z" style="fill:#163f59"/><path d="M221.78,158.52s-.69-16.08-1.21-23.71-.41-22.35-.53-24.18a20.3,20.3,0,0,1,.45-4.42s2.58-4,5.46-3.61c2.53.3,12.31,5.91,16.08,7.5,2.6,1.11-3.25,25.58-3.13,26.93.44,4.89,2.79,10.63,4.29,14.58a47.36,47.36,0,0,1,1.93,7.75S230.59,156.86,221.78,158.52Z" style="fill:#d1dbea"/><polygon points="225.05 101.34 223 103.15 220.12 105.93 221.58 109.05 226.67 102.64 225.05 101.34" style="fill:#b0bfde"/><path d="M224.14,138.83l6.05-23.26s3.71-4.09,5.89-5.29c2.59-1.42,6.35,0,6.35,0s-.05,4-4.7,21.89c-3.19,12.25-4,17.41-10.44,16.51-6-.84-34.88-3.05-34.88-3.05L190,137.28Z" style="fill:#b0bfde"/><path d="M229,143.37s-.28,1.84-11.22.69S191,139,191,139l25.46.73S226.19,140.39,229,143.37Z" style="fill:#d1dbea"/></g></g></svg>