<svg xmlns="http://www.w3.org/2000/svg" viewBox="0 0 163.04 191.21"><defs><style>.cls-1{fill:#fff;}.cls-1,.cls-3{stroke:#666;stroke-linecap:round;stroke-linejoin:round;stroke-width:4px;}.cls-2{fill:#d6c5c1;}.cls-3{fill:none;}</style></defs><title>Report</title><g id="Layer_2" data-name="Layer 2"><g id="LY_Reports"><polyline class="cls-1" points="118.64 2 118.64 51.03 161 51.03"/><polyline class="cls-1" points="151.25 163.57 161.04 163.57 161.04 49.94 119.07 2 27.02 2 27.02 11.8"/><polyline class="cls-1" points="108.84 11.8 108.84 60.83 151.2 60.83"/><polyline class="cls-1" points="139.77 173.37 151.25 173.37 151.25 59.74 109.28 11.8 17.23 11.8 17.23 21.59"/><polyline class="cls-2" points="107.23 32.31 0 32.31 0 191.21 133.24 191.21 133.24 59.48 107.23 32.31"/><polyline class="cls-3" points="97.41 21.59 97.41 70.63 139.77 70.63"/><polygon class="cls-3" points="97.84 21.59 5.8 21.59 5.8 183.16 139.82 183.16 139.82 69.54 97.84 21.59"/><path d="M20.45,121h5.91v2.24H17.67V109.71h2.78Z"/><path d="M33.6,123.22a2.66,2.66,0,0,1-.27-.9,3.25,3.25,0,0,1-2.53,1.08,3.57,3.57,0,0,1-2.45-.85,2.77,2.77,0,0,1-1-2.15A2.83,2.83,0,0,1,28.57,118a5.81,5.81,0,0,1,3.41-.87h1.24v-.57a1.61,1.61,0,0,0-.36-1.11,1.4,1.4,0,0,0-1.13-.42,1.63,1.63,0,0,0-1.06.32,1.13,1.13,0,0,0-.38.89H27.61a2.72,2.72,0,0,1,.53-1.61,3.6,3.6,0,0,1,1.53-1.17,5.53,5.53,0,0,1,2.2-.42,4.35,4.35,0,0,1,2.95.94,3.24,3.24,0,0,1,1.09,2.62v4.35a4.85,4.85,0,0,0,.4,2.16v.16Zm-2.22-1.87a2.41,2.41,0,0,0,1.1-.26,1.81,1.81,0,0,0,.74-.71v-1.73h-1c-1.35,0-2.06.47-2.15,1.39v.16a1.07,1.07,0,0,0,.36.83A1.37,1.37,0,0,0,31.38,121.35Z"/><path d="M43.41,120.44a.88.88,0,0,0-.49-.77,5.61,5.61,0,0,0-1.57-.51c-2.38-.5-3.58-1.51-3.58-3a2.76,2.76,0,0,1,1.11-2.23,4.47,4.47,0,0,1,2.9-.9,4.82,4.82,0,0,1,3.06.9A2.84,2.84,0,0,1,46,116.23H43.3a1.29,1.29,0,0,0-.37-1,1.57,1.57,0,0,0-1.16-.38,1.64,1.64,0,0,0-1.05.31,1,1,0,0,0-.37.78.82.82,0,0,0,.42.72,4.44,4.44,0,0,0,1.43.47,12.21,12.21,0,0,1,1.69.45,2.78,2.78,0,0,1,2.12,2.7,2.59,2.59,0,0,1-1.18,2.22,5,5,0,0,1-3,.85,5.3,5.3,0,0,1-2.24-.45A3.86,3.86,0,0,1,38,121.72a2.87,2.87,0,0,1-.55-1.69H40a1.37,1.37,0,0,0,.53,1.09,2.13,2.13,0,0,0,1.32.38,2,2,0,0,0,1.16-.29A.93.93,0,0,0,43.41,120.44Z"/><path d="M51,110.71v2.47h1.71v2H51v5a1.19,1.19,0,0,0,.21.79,1.07,1.07,0,0,0,.82.24,4.7,4.7,0,0,0,.79-.06v2a5.59,5.59,0,0,1-1.63.24,2.55,2.55,0,0,1-2.87-2.85v-5.4H46.8v-2h1.47v-2.47Z"/><path d="M21.24,142.22,23.1,136H26l-4,11.6-.23.52a3.06,3.06,0,0,1-3,2,4.14,4.14,0,0,1-1.19-.18v-2H18a2.25,2.25,0,0,0,1.13-.23,1.49,1.49,0,0,0,.59-.77L20,146,16.49,136h2.89Z"/><path d="M31.53,146.2a5,5,0,0,1-3.6-1.35,4.85,4.85,0,0,1-1.38-3.61V141a6.09,6.09,0,0,1,.58-2.71,4.27,4.27,0,0,1,1.66-1.83,4.64,4.64,0,0,1,2.44-.65,4.16,4.16,0,0,1,3.24,1.3,5.29,5.29,0,0,1,1.19,3.68v1.1H29.27a2.44,2.44,0,0,0,.78,1.58,2.41,2.41,0,0,0,1.66.59,2.89,2.89,0,0,0,2.42-1.12l1.31,1.47a3.9,3.9,0,0,1-1.63,1.33A5.32,5.32,0,0,1,31.53,146.2ZM31.22,138a1.64,1.64,0,0,0-1.29.55,2.84,2.84,0,0,0-.64,1.54H33v-.21a2,2,0,0,0-.48-1.39A1.76,1.76,0,0,0,31.22,138Z"/><path d="M43,146a2.66,2.66,0,0,1-.27-.9,3.27,3.27,0,0,1-2.54,1.08,3.54,3.54,0,0,1-2.44-.85,2.74,2.74,0,0,1-1-2.15A2.83,2.83,0,0,1,38,140.75a5.86,5.86,0,0,1,3.42-.87h1.24v-.57a1.61,1.61,0,0,0-.36-1.11,1.41,1.41,0,0,0-1.13-.42,1.62,1.62,0,0,0-1.06.32,1.11,1.11,0,0,0-.39.89H37a2.67,2.67,0,0,1,.54-1.61,3.63,3.63,0,0,1,1.52-1.17,5.58,5.58,0,0,1,2.21-.42,4.31,4.31,0,0,1,2.94.94,3.24,3.24,0,0,1,1.09,2.62v4.35a4.85,4.85,0,0,0,.4,2.16V146Zm-2.22-1.87a2.37,2.37,0,0,0,1.09-.26,1.84,1.84,0,0,0,.75-.71v-1.73h-1c-1.34,0-2,.47-2.14,1.39V143a1.11,1.11,0,0,0,.35.83A1.42,1.42,0,0,0,40.78,144.15Z"/><path d="M53,138.49a7.24,7.24,0,0,0-1-.07,2,2,0,0,0-2,1V146H47.37V136H49.9l.07,1.19a2.5,2.5,0,0,1,2.24-1.38,2.78,2.78,0,0,1,.83.12Z"/><path d="M55.21,136.66,54,135.92a5,5,0,0,0,.83-2.59v-1.56h2.13v1.43a4.21,4.21,0,0,1-.46,1.81A5,5,0,0,1,55.21,136.66Z"/><path d="M62.09,143.24a.85.85,0,0,0-.49-.77A5.41,5.41,0,0,0,60,142q-3.59-.75-3.58-3a2.76,2.76,0,0,1,1.11-2.23,4.45,4.45,0,0,1,2.9-.9,4.79,4.79,0,0,1,3.05.9A2.83,2.83,0,0,1,64.67,139H62a1.33,1.33,0,0,0-.37-.95,1.59,1.59,0,0,0-1.16-.38,1.62,1.62,0,0,0-1.05.31,1,1,0,0,0-.37.78.82.82,0,0,0,.42.72,4.28,4.28,0,0,0,1.42.47,12.21,12.21,0,0,1,1.69.45,2.78,2.78,0,0,1,2.13,2.7,2.62,2.62,0,0,1-1.18,2.22,5.07,5.07,0,0,1-3.05.85,5.33,5.33,0,0,1-2.24-.45,3.76,3.76,0,0,1-1.53-1.23,2.88,2.88,0,0,1-.56-1.69h2.54a1.44,1.44,0,0,0,.53,1.09,2.13,2.13,0,0,0,1.32.38A2,2,0,0,0,61.7,144,.92.92,0,0,0,62.09,143.24Z"/><path d="M22.67,163.87H20.45v4.95H17.67V155.31h5a5.69,5.69,0,0,1,3.69,1.06,3.69,3.69,0,0,1,1.3,3,3.78,3.78,0,0,1-2.41,3.78l2.92,5.52v.13h-3Zm-2.22-2.25H22.7a2.26,2.26,0,0,0,1.62-.54,1.9,1.9,0,0,0,.58-1.47,2.06,2.06,0,0,0-.55-1.5,2.26,2.26,0,0,0-1.66-.55H20.45Z"/><path d="M34.24,169a5,5,0,0,1-3.6-1.35A4.85,4.85,0,0,1,29.26,164v-.26a6.09,6.09,0,0,1,.58-2.71,4.27,4.27,0,0,1,1.66-1.83,4.64,4.64,0,0,1,2.44-.65,4.19,4.19,0,0,1,3.24,1.3,5.29,5.29,0,0,1,1.19,3.68v1.1H32a2.5,2.5,0,0,0,.79,1.58,2.38,2.38,0,0,0,1.65.59,2.91,2.91,0,0,0,2.43-1.12l1.31,1.47a3.9,3.9,0,0,1-1.63,1.33A5.35,5.35,0,0,1,34.24,169Zm-.31-8.25a1.67,1.67,0,0,0-1.29.54,2.83,2.83,0,0,0-.64,1.55h3.73v-.21a2,2,0,0,0-.48-1.39A1.76,1.76,0,0,0,33.93,160.75Z"/><path d="M48.92,163.89a6.06,6.06,0,0,1-1.05,3.72A3.37,3.37,0,0,1,45,169a3.1,3.1,0,0,1-2.46-1.06v4.74H39.89v-13.9h2.48l.1,1A3.14,3.14,0,0,1,45,158.59,3.37,3.37,0,0,1,47.89,160a6.13,6.13,0,0,1,1,3.78Zm-2.68-.19a4,4,0,0,0-.49-2.17,1.64,1.64,0,0,0-1.45-.76,1.74,1.74,0,0,0-1.73,1v4.11a1.78,1.78,0,0,0,1.75,1C45.6,166.84,46.24,165.79,46.24,163.7Z"/><path d="M50.17,163.7a6,6,0,0,1,.57-2.66,4.28,4.28,0,0,1,1.66-1.81,4.9,4.9,0,0,1,2.51-.64,4.55,4.55,0,0,1,3.31,1.25,5,5,0,0,1,1.44,3.37l0,.69a5.27,5.27,0,0,1-1.29,3.71,5,5,0,0,1-6.93,0,5.35,5.35,0,0,1-1.29-3.78Zm2.68.19a3.73,3.73,0,0,0,.54,2.19,1.93,1.93,0,0,0,3.06,0A4.13,4.13,0,0,0,57,163.7a3.72,3.72,0,0,0-.55-2.17,1.78,1.78,0,0,0-1.54-.78,1.75,1.75,0,0,0-1.52.77A4.15,4.15,0,0,0,52.85,163.89Z"/><path d="M67,161.29a7.24,7.24,0,0,0-1-.07,2,2,0,0,0-2,1v6.57H61.33v-10h2.53l.07,1.19a2.5,2.5,0,0,1,2.24-1.38,2.73,2.73,0,0,1,.83.12Z"/><path d="M71.93,156.31v2.47h1.72v2H71.93v5a1.14,1.14,0,0,0,.22.8,1.06,1.06,0,0,0,.81.24,4.62,4.62,0,0,0,.79-.06v2a5.53,5.53,0,0,1-1.62.24,2.56,2.56,0,0,1-2.88-2.85v-5.4H67.79v-2h1.46v-2.47Z"/><path d="M80.58,166a.85.85,0,0,0-.49-.77,5.41,5.41,0,0,0-1.56-.51q-3.59-.75-3.58-3a2.75,2.75,0,0,1,1.11-2.23,4.45,4.45,0,0,1,2.9-.9,4.79,4.79,0,0,1,3.05.9,2.83,2.83,0,0,1,1.15,2.34H80.48a1.33,1.33,0,0,0-.37-1A1.59,1.59,0,0,0,79,160.5a1.62,1.62,0,0,0-1,.31,1,1,0,0,0-.37.78.82.82,0,0,0,.42.72,4.28,4.28,0,0,0,1.42.47,10.94,10.94,0,0,1,1.69.45,2.78,2.78,0,0,1,2.13,2.7A2.62,2.62,0,0,1,82,168.15,5.07,5.07,0,0,1,79,169a5.33,5.33,0,0,1-2.24-.45,3.76,3.76,0,0,1-1.53-1.23,2.88,2.88,0,0,1-.56-1.7h2.54a1.44,1.44,0,0,0,.53,1.1,2.13,2.13,0,0,0,1.32.38,2,2,0,0,0,1.17-.29A.92.92,0,0,0,80.58,166Z"/></g></g></svg>