<svg xmlns="http://www.w3.org/2000/svg" xmlns:xlink="http://www.w3.org/1999/xlink" viewBox="0 0 293.93 242.08"><defs><linearGradient id="linear-gradient" x1="-741.52" y1="252.21" x2="-741.22" y2="252.83" gradientTransform="matrix(262.04, -38.37, -27.63, -188.71, 201412.46, 19317.9)" gradientUnits="userSpaceOnUse"><stop offset="0" stop-color="#608a93"/><stop offset="0.42" stop-color="#628b94"/><stop offset="0.57" stop-color="#699099"/><stop offset="0.68" stop-color="#7499a1"/><stop offset="0.76" stop-color="#85a5ac"/><stop offset="0.84" stop-color="#9bb5bb"/><stop offset="0.9" stop-color="#b7c9ce"/><stop offset="0.96" stop-color="#d6e0e3"/><stop offset="1" stop-color="#f0f3f5"/></linearGradient></defs><title>Create a Budget</title><g id="Layer_2" data-name="Layer 2"><g id="Plan"><path id="Path_20835" data-name="Path 20835" d="M283.17,135.22c-6.41,13.49-15,26.11-23.58,34.54C224,204.58,179,197.33,158.45,194.13,112.9,187,51.78,220,17.17,213.13c-21-4.21-21.71-23.66-7.62-55.43C15.64,144,24.49,128,35.65,109.86,68.1,57.26,128.67,4.69,156.38.56c56.2-8.38,63.65,80,92.87,71.56C302.19,56.91,300.32,99.16,283.17,135.22Z" style="opacity:0.30000000000000004;isolation:isolate;fill:url(#linear-gradient)"/><path d="M49.51,231.91c0,.81-8.73,1.46-19.5,1.46s-19.5-.65-19.5-1.46,8.73-1.46,19.5-1.46S49.51,231.11,49.51,231.91Z" style="fill:#9faad4;opacity:0.219999998807907;isolation:isolate"/><path d="M139.51,232.91c0,.81-8.73,1.46-19.5,1.46s-19.5-.65-19.5-1.46,8.73-1.46,19.5-1.46S139.51,232.11,139.51,232.91Z" style="fill:#9faad4;opacity:0.219999998807907;isolation:isolate"/><path d="M96.51,239.27c0,1.55-10.75,2.81-24,2.81s-24-1.26-24-2.81,10.74-2.82,24-2.82S96.51,237.71,96.51,239.27Z" style="fill:#9faad4;opacity:0.219999998807907;isolation:isolate"/><path d="M204.51,239.27c0,1.55-10.75,2.81-24,2.81s-24-1.26-24-2.81,10.74-2.82,24-2.82S204.51,237.71,204.51,239.27Z" style="fill:#9faad4;opacity:0.219999998807907;isolation:isolate"/><polyline points="285.51 22.95 41.23 71.14 41.23 144.9 285.51 169.38 285.51 22.95" style="fill:#bfbfbf"/><path d="M30.43,62.43v75.93c26.33.85,98.43,4.38,244.27,18.94V15C117.71,50.76,50.33,60.15,30.43,62.43Z" style="fill:#fff;stroke:#698ca0;stroke-miterlimit:10;stroke-width:0.25px"/><path d="M193.19,37.1l-2.21.45c-31,6.36-56.72,11.29-77.83,15.12l-2.21.4C68,60.79,44.57,63.85,34.28,65V99.43h0v36.34c12.92.4,37.28,1.45,76.62,4.18V140l2.21.16c21.42,1.5,47.18,3.48,77.83,6.11l2.21.2c22.77,2,48.2,4.28,76.51,7V20.78C241.23,27.05,215.82,32.45,193.19,37.1Z" style="fill:#e9f4fc"/><g style="opacity:0.15"><rect x="34.1" y="93.61" width="235.79" height="0.29" transform="translate(-4.95 8.54) rotate(-3.17)" style="fill:#3f6786"/><path d="M34.28,112.29V112c.94,0,94.24-1.39,125.16-1.79,27.27-.35,109.44-1.22,110.26-1.22v.28c-.82,0-83,.88-110.25,1.23C128.53,110.9,35.22,112.27,34.28,112.29Z" style="fill:#3f6786"/><path d="M269.7,131.34c-1,0-97.76-3.41-124.44-4.24-31.51-1-110.19-2.62-111-2.64v-.29c.79,0,79.47,1.67,111,2.64,26.68.83,123.46,4.21,124.44,4.24Z" style="fill:#3f6786"/><path d="M34.3,76.22l0-.29c.3,0,30.92-3.34,105.88-13.24,29.19-3.85,128.53-20,129.53-20.14l.05.28C268.73,43,169.38,59.12,140.19,63,65.22,72.87,34.6,76.18,34.3,76.22Z" style="fill:#3f6786"/><path d="M34.29,88.72l0-.29c.73-.07,73.42-7.12,102.5-10S268.66,64.94,269.69,64.83l0,.29c-1,.1-103.72,10.64-132.92,13.56S35,88.65,34.29,88.72Z" style="fill:#3f6786"/><rect x="60.99" y="61.38" width="0.29" height="75.44" style="fill:#3f6786"/><rect x="74.06" y="59.35" width="0.29" height="78.26" style="fill:#3f6786"/><rect x="87.09" y="57.21" width="0.29" height="81.18" style="fill:#3f6786"/><rect x="100.14" y="54.96" width="0.29" height="84.28" style="fill:#3f6786"/><rect x="113.19" y="52.67" width="0.29" height="87.5" style="fill:#3f6786"/><rect x="126.24" y="50.24" width="0.29" height="90.87" style="fill:#3f6786"/><rect x="139.3" y="47.77" width="0.29" height="94.31" style="fill:#3f6786"/><rect x="152.35" y="45.26" width="0.29" height="97.84" style="fill:#3f6786"/><rect x="165.4" y="42.67" width="0.29" height="101.48" style="fill:#3f6786"/><rect x="178.45" y="40.07" width="0.29" height="105.15" style="fill:#3f6786"/><rect x="191.25" y="37.55" width="0.29" height="108.76" style="fill:#3f6786"/><rect x="204.3" y="34.77" width="0.29" height="112.69" style="fill:#3f6786"/><rect x="217.35" y="32.04" width="0.29" height="116.57" style="fill:#3f6786"/><rect x="230.41" y="29.27" width="0.29" height="120.52" style="fill:#3f6786"/><rect x="243.46" y="26.47" width="0.29" height="124.53" style="fill:#3f6786"/><rect x="256.51" y="23.64" width="0.29" height="128.59" style="fill:#3f6786"/></g><path d="M269.7,42.53V20.8c-28.47,6.27-53.88,11.67-76.51,16.32l-2.21.45c-31,6.36-56.72,11.29-77.83,15.11l-2.21.4C68,60.81,44.57,63.86,34.28,65V75.93c2.72-.3,34-3.73,105.87-13.22C168.63,59,264.15,43.43,269.7,42.53Z" style="fill:#3f6786;opacity:0.7000000000000001"/><path d="M34.28,76.2V99.43h0v36.34c6.16.19,14.92.53,26.67,1.13V73.07C44,75.14,35.54,76.06,34.28,76.2Z" style="fill:#3f6786;opacity:0.2"/><g style="opacity:0.30000000000000004"><g style="opacity:0.8"><path d="M67.88,68.72c-.44-.12-.88-.25-1.27-.38a.53.53,0,0,0-.2,0A1.53,1.53,0,0,1,65,66.6a1.57,1.57,0,0,1,1.54-1.75A1.51,1.51,0,0,1,68,66.53a1.56,1.56,0,0,1-.94,1.6v0c.33.08.69.16,1,.21Zm-.35-2.16c0-.67-.35-1.36-1-1.36s-1.08.67-1.08,1.39.38,1.35,1.06,1.35S67.53,67.31,67.53,66.56Z" style="fill:#fff"/><path d="M69.33,65.43h0l-.56.31-.08-.33.69-.38h.37v3.2h-.41Z" style="fill:#fff"/></g><g style="opacity:0.8"><path d="M80.81,66.84c-.49-.13-1-.28-1.4-.43a1,1,0,0,0-.22,0,1.68,1.68,0,0,1-1.61-1.85,1.73,1.73,0,0,1,1.7-1.93,1.67,1.67,0,0,1,1.64,1.85,1.71,1.71,0,0,1-1,1.76v0c.36.09.76.18,1.07.23Zm-.39-2.38c0-.74-.38-1.49-1.15-1.49s-1.19.74-1.19,1.53S78.5,66,79.25,66,80.42,65.29,80.42,64.46Z" style="fill:#fff"/><path d="M81.36,66.3V66l.37-.36c.9-.86,1.31-1.32,1.31-1.85a.62.62,0,0,0-.69-.68,1.23,1.23,0,0,0-.75.29l-.15-.33a1.57,1.57,0,0,1,1-.36,1,1,0,0,1,1.08,1c0,.65-.47,1.18-1.21,1.9l-.28.25v0h1.58v.39Z" style="fill:#fff"/></g><g style="opacity:0.8"><path d="M94,65c-.49-.13-1-.28-1.39-.42a.66.66,0,0,0-.22-.06,1.67,1.67,0,0,1-1.61-1.85,1.72,1.72,0,0,1,1.69-1.92,1.66,1.66,0,0,1,1.64,1.85,1.7,1.7,0,0,1-1,1.75v0c.37.1.76.18,1.07.24Zm-.39-2.38c0-.73-.37-1.49-1.15-1.49s-1.19.74-1.19,1.53.43,1.48,1.17,1.48S93.62,63.43,93.62,62.6Z" style="fill:#fff"/><path d="M94.68,63.9a1.51,1.51,0,0,0,.78.22c.6,0,.8-.38.79-.68,0-.5-.45-.71-.91-.71h-.26v-.35h.26c.35,0,.79-.18.79-.6s-.18-.53-.62-.53a1.26,1.26,0,0,0-.7.23l-.13-.34a1.65,1.65,0,0,1,.92-.28c.7,0,1,.42,1,.84a.89.89,0,0,1-.65.84h0a.93.93,0,0,1,.79.9c0,.56-.45,1-1.29,1a1.82,1.82,0,0,1-.91-.23Z" style="fill:#fff"/></g><g style="opacity:0.8"><path d="M106.61,62.88c-.44-.12-.88-.25-1.27-.39a.73.73,0,0,0-.2-.05,1.52,1.52,0,0,1-1.46-1.68A1.57,1.57,0,0,1,105.22,59a1.51,1.51,0,0,1,1.49,1.68,1.56,1.56,0,0,1-.94,1.6v0c.33.08.69.16,1,.21Zm-.35-2.17c0-.66-.34-1.35-1.05-1.35s-1.08.67-1.08,1.39.39,1.35,1.07,1.35S106.26,61.47,106.26,60.71Z" style="fill:#fff"/><path d="M108.45,62.39v-.88H107v-.28l1.43-2h.46v2h.45v.33h-.45v.88Zm0-1.21V60.11c0-.17,0-.34,0-.5h0c-.09.18-.17.32-.26.47l-.78,1.09h1Z" style="fill:#fff"/></g><g style="opacity:0.8"><path d="M119.86,61.1c-.45-.12-.89-.25-1.28-.38a.49.49,0,0,0-.2,0A1.53,1.53,0,0,1,116.92,59a1.57,1.57,0,0,1,1.54-1.75A1.51,1.51,0,0,1,120,58.91a1.56,1.56,0,0,1-.94,1.6v0c.33.08.69.16,1,.21Zm-.36-2.16c0-.67-.35-1.36-1-1.36s-1.08.67-1.08,1.39.39,1.35,1.06,1.35S119.5,59.69,119.5,58.94Z" style="fill:#fff"/><path d="M122.27,57.77H121l-.12.83.26,0a1.25,1.25,0,0,1,.69.18.9.9,0,0,1,.46.82,1.11,1.11,0,0,1-1.19,1.09,1.58,1.58,0,0,1-.8-.2l.11-.33a1.4,1.4,0,0,0,.69.18.7.7,0,0,0,.75-.7c0-.41-.28-.7-.92-.7a2.68,2.68,0,0,0-.44,0l.2-1.54h1.54Z" style="fill:#fff"/></g><g style="opacity:0.8"><path d="M132.88,59.14c-.45-.12-.89-.25-1.28-.38a.49.49,0,0,0-.2,0A1.53,1.53,0,0,1,129.94,57a1.57,1.57,0,0,1,1.54-1.75A1.51,1.51,0,0,1,133,57a1.56,1.56,0,0,1-.94,1.6v0c.33.08.69.16,1,.21ZM132.52,57c0-.67-.35-1.36-1.05-1.36s-1.08.67-1.08,1.39.39,1.35,1.07,1.35S132.52,57.73,132.52,57Z" style="fill:#fff"/><path d="M135.2,55.76a1.22,1.22,0,0,0-.32,0,1.29,1.29,0,0,0-1.12,1.14h0a1,1,0,0,1,.78-.38,1,1,0,0,1,1,1,1.07,1.07,0,0,1-1.07,1.14c-.68,0-1.13-.53-1.13-1.37a2,2,0,0,1,.54-1.44,1.76,1.76,0,0,1,1-.47l.31,0Zm-.12,1.85a.65.65,0,0,0-.66-.74.73.73,0,0,0-.63.39.49.49,0,0,0,0,.19c0,.53.25.92.71.92S135.08,58.06,135.08,57.61Z" style="fill:#fff"/></g><g style="opacity:0.8"><path d="M146.37,56.67c-.46-.12-.92-.26-1.31-.4a.63.63,0,0,0-.21-.05,1.58,1.58,0,0,1-1.52-1.75,1.63,1.63,0,0,1,1.6-1.81,1.57,1.57,0,0,1,1.55,1.74,1.62,1.62,0,0,1-1,1.66v0l1,.22ZM146,54.43c0-.7-.35-1.4-1.08-1.4s-1.12.69-1.12,1.43.4,1.4,1.1,1.4S146,55.21,146,54.43Z" style="fill:#fff"/><path d="M149.05,52.85v.29l-1.44,3h-.47l1.44-2.93H147v-.37Z" style="fill:#fff"/></g><g style="opacity:0.8"><path d="M159.11,54.92c-.52-.14-1-.29-1.47-.45a1.06,1.06,0,0,0-.23,0,1.77,1.77,0,0,1-1.69-2,1.81,1.81,0,0,1,1.78-2,1.75,1.75,0,0,1,1.73,1.94,1.78,1.78,0,0,1-1.1,1.84v0a11.54,11.54,0,0,0,1.13.24Zm-.41-2.5c0-.78-.4-1.57-1.21-1.57s-1.25.78-1.25,1.61.45,1.55,1.23,1.55S158.7,53.29,158.7,52.42Z" style="fill:#fff"/><path d="M160.38,52.41a.93.93,0,0,1-.6-.84,1,1,0,0,1,1.15-1,1,1,0,0,1,1.09.91,1,1,0,0,1-.62.87h0a1,1,0,0,1,.75,1,1.14,1.14,0,0,1-1.26,1.08c-.78,0-1.24-.46-1.24-1a1.07,1.07,0,0,1,.73-1Zm1.26,1c0-.44-.31-.66-.81-.81a.81.81,0,0,0-.67.77.68.68,0,0,0,.74.7A.67.67,0,0,0,161.64,53.39Zm-1.38-1.85c0,.37.28.57.71.68a.72.72,0,0,0,.56-.67.57.57,0,0,0-.62-.6A.59.59,0,0,0,160.26,51.54Z" style="fill:#fff"/></g><g style="opacity:0.8"><path d="M172.81,52.56c-.57-.15-1.13-.32-1.61-.49a.88.88,0,0,0-.26-.06,1.92,1.92,0,0,1-1.84-2.13A2,2,0,0,1,171,47.67a1.91,1.91,0,0,1,1.89,2.12,2,2,0,0,1-1.19,2v0c.41.1.87.2,1.22.26Zm-.45-2.74c0-.84-.44-1.71-1.33-1.71s-1.36.85-1.36,1.76.48,1.7,1.34,1.7S172.36,50.78,172.36,49.82Z" style="fill:#fff"/><path d="M173.76,51.56a2.38,2.38,0,0,0,.44,0,1.5,1.5,0,0,0,.85-.4,1.76,1.76,0,0,0,.53-1.07h0a1.22,1.22,0,0,1-2.15-.81,1.39,1.39,0,0,1,1.39-1.43c.83,0,1.33.66,1.33,1.71a2.55,2.55,0,0,1-.69,1.89,2,2,0,0,1-1.18.54,2.32,2.32,0,0,1-.5,0Zm.2-2.33a.77.77,0,0,0,.77.86.91.91,0,0,0,.8-.42.41.41,0,0,0,.05-.21c0-.69-.25-1.22-.83-1.22S174,48.65,174,49.23Z" style="fill:#fff"/></g><g style="opacity:0.8"><path d="M185.58,50.24c-.56-.15-1.12-.32-1.6-.49a1,1,0,0,0-.26-.06,1.93,1.93,0,0,1-1.85-2.13,2,2,0,0,1,1.95-2.21,1.92,1.92,0,0,1,1.89,2.12,2,2,0,0,1-1.2,2v0c.42.1.87.2,1.23.26Zm-.45-2.73c0-.85-.43-1.72-1.32-1.72s-1.37.85-1.37,1.76.49,1.7,1.35,1.7S185.13,48.46,185.13,47.51Z" style="fill:#fff"/><path d="M187.41,46.09h0l-.7.38-.11-.42.89-.47h.46v4h-.52Z" style="fill:#fff"/></g><g style="opacity:0.8"><path d="M198.74,48c-.57-.15-1.12-.32-1.61-.49a.82.82,0,0,0-.25-.06A1.93,1.93,0,0,1,195,45.36,2,2,0,0,1,197,43.15a1.91,1.91,0,0,1,1.88,2.12,2,2,0,0,1-1.19,2v0c.41.11.87.21,1.22.27Zm-.45-2.74c0-.84-.44-1.71-1.33-1.71s-1.36.85-1.36,1.76.49,1.7,1.34,1.7S198.29,46.26,198.29,45.3Z" style="fill:#fff"/><path d="M199.37,47.42v-.34l.43-.41c1-1,1.51-1.51,1.51-2.12a.72.72,0,0,0-.8-.79,1.41,1.41,0,0,0-.86.34l-.17-.38a1.74,1.74,0,0,1,1.14-.42,1.14,1.14,0,0,1,1.24,1.18c0,.75-.55,1.35-1.4,2.17l-.32.3H202v.46Z" style="fill:#fff"/></g><g style="opacity:0.8"><path d="M211.66,45.41c-.57-.15-1.12-.32-1.61-.49a.82.82,0,0,0-.25-.06A1.93,1.93,0,0,1,208,42.73a2,2,0,0,1,2-2.21,1.91,1.91,0,0,1,1.88,2.12,2,2,0,0,1-1.19,2v0c.42.11.87.21,1.22.27Zm-.45-2.74c0-.84-.44-1.71-1.33-1.71s-1.36.85-1.36,1.76.49,1.7,1.35,1.7S211.21,43.63,211.21,42.67Z" style="fill:#fff"/><path d="M212.42,44.17a1.94,1.94,0,0,0,.9.25c.7,0,.92-.44.92-.79,0-.56-.52-.81-1.05-.81h-.3v-.41h.3c.4,0,.9-.2.9-.68,0-.33-.2-.61-.71-.61a1.47,1.47,0,0,0-.81.27l-.15-.4a1.94,1.94,0,0,1,1.07-.31c.8,0,1.16.47,1.16,1a1,1,0,0,1-.75,1h0a1.05,1.05,0,0,1,.9,1c0,.65-.51,1.22-1.47,1.22a2.09,2.09,0,0,1-1.06-.27Z" style="fill:#fff"/></g><g style="opacity:0.8"><path d="M224.45,43.31c-.57-.15-1.12-.32-1.61-.49a.82.82,0,0,0-.25-.06,1.93,1.93,0,0,1-1.85-2.13,2,2,0,0,1,1.95-2.21,1.91,1.91,0,0,1,1.88,2.12,2,2,0,0,1-1.19,2v0c.41.1.87.2,1.22.26ZM224,40.58c0-.85-.44-1.72-1.33-1.72s-1.36.85-1.36,1.76.49,1.7,1.34,1.7S224,41.53,224,40.58Z" style="fill:#fff"/><path d="M226.77,42.69V41.58h-1.88v-.35l1.81-2.58h.59v2.51h.57v.42h-.57v1.11Zm0-1.53V39.81c0-.21,0-.42,0-.63h0c-.12.23-.22.41-.33.59l-1,1.38h1.32Z" style="fill:#fff"/></g><g style="opacity:0.8"><path d="M237.42,40.86c-.57-.15-1.12-.32-1.61-.49a.82.82,0,0,0-.25-.06,1.93,1.93,0,0,1-1.85-2.13A2,2,0,0,1,235.66,36a1.91,1.91,0,0,1,1.88,2.12,2,2,0,0,1-1.19,2v0c.41.1.87.2,1.22.26ZM237,38.13c0-.85-.44-1.72-1.33-1.72s-1.36.85-1.36,1.76.49,1.7,1.35,1.7S237,39.08,237,38.13Z" style="fill:#fff"/><path d="M240.47,36.66h-1.55l-.15,1a1.52,1.52,0,0,1,.33,0,1.59,1.59,0,0,1,.87.22,1.12,1.12,0,0,1,.58,1A1.4,1.4,0,0,1,239,40.31a2,2,0,0,1-1-.25l.14-.42a1.82,1.82,0,0,0,.87.23.89.89,0,0,0,1-.88c0-.52-.35-.89-1.15-.89a4.1,4.1,0,0,0-.57,0l.26-1.94h1.94Z" style="fill:#fff"/></g><g style="opacity:0.8"><path d="M250.73,38.17c-.56-.15-1.12-.32-1.6-.49a1,1,0,0,0-.26-.06A1.93,1.93,0,0,1,247,35.49,2,2,0,0,1,249,33.28a1.93,1.93,0,0,1,1.89,2.13,2,2,0,0,1-1.2,2v0l1.23.27Zm-.45-2.73c0-.85-.43-1.71-1.32-1.71s-1.37.84-1.37,1.75.49,1.7,1.35,1.7S250.28,36.39,250.28,35.44Z" style="fill:#fff"/><path d="M253.68,33.89l-.42,0a1.62,1.62,0,0,0-1.4,1.44h0a1.23,1.23,0,0,1,2.2.83,1.35,1.35,0,0,1-1.35,1.43c-.86,0-1.42-.67-1.42-1.72a2.55,2.55,0,0,1,.68-1.83,2.21,2.21,0,0,1,1.3-.59,2.09,2.09,0,0,1,.4,0Zm-.16,2.34a.82.82,0,0,0-.83-.93.91.91,0,0,0-.8.5.54.54,0,0,0,0,.24c0,.66.32,1.16.9,1.16S253.52,36.81,253.52,36.23Z" style="fill:#fff"/></g><g style="opacity:0.8"><path d="M263.34,35.9c-.57-.15-1.12-.32-1.61-.49a.82.82,0,0,0-.26-.06,1.92,1.92,0,0,1-1.84-2.13A2,2,0,0,1,261.57,31a1.91,1.91,0,0,1,1.89,2.12,2,2,0,0,1-1.19,2v0c.41.11.87.21,1.22.27Zm-.45-2.74c0-.84-.44-1.71-1.33-1.71s-1.36.85-1.36,1.76.48,1.69,1.34,1.69S262.89,34.12,262.89,33.16Z" style="fill:#fff"/><path d="M266.6,31.23v.36l-1.76,3.69h-.57L266,31.7h-2v-.46Z" style="fill:#fff"/></g></g><path d="M259.41,120.43a3.78,3.78,0,0,1-3.82,3.74c-11.88-.13-49.49-.53-79.43-.83a3.79,3.79,0,0,1,.07-7.57c30,.3,67.56.71,79.45.84a3.78,3.78,0,0,1,3.73,3.82Z" style="fill:#7d677d;opacity:0.7000000000000001"/><path d="M259.34,119.69a3.64,3.64,0,0,1,.07.74,3.78,3.78,0,0,1-3.82,3.74c-11.88-.13-49.49-.53-79.43-.83a3.73,3.73,0,0,1-2.09-.66,3.78,3.78,0,0,0,3.68,3.09c29.94.3,67.55.7,79.43.83a3.78,3.78,0,0,0,3.82-3.74h0A3.79,3.79,0,0,0,259.34,119.69Z" style="fill:#516a95;opacity:0.2"/><g style="opacity:0.8"><path d="M211.09,142.51h-.28l-9.14-.61c-13.57-.9-28.37-1.69-44-2.37a4,4,0,0,1,.35-8c15.7.69,30.57,1.48,44.19,2.38l9.17.61a4,4,0,0,1-.27,8Z" style="fill:#3f6786;opacity:0.7000000000000001"/><path d="M211.09,142.65h-.29l-9.14-.61c-13.55-.89-28.36-1.69-44-2.37a4.16,4.16,0,0,1,.23-8.32H158c15.73.68,30.6,1.48,44.19,2.38l9.17.61a4.16,4.16,0,0,1,3.87,4.44A4.18,4.18,0,0,1,211.09,142.65Zm-53.21-11a3.88,3.88,0,0,0-.22,7.75c15.65.68,30.46,1.47,44,2.36l9.14.61h.27a3.88,3.88,0,0,0,.26-7.75l-9.16-.61c-13.6-.89-28.46-1.69-44.19-2.37Z" style="fill:#3f6786"/><path d="M214.74,136.85a4.08,4.08,0,0,1,.36,1.91,4,4,0,0,1-4,3.75h-.28l-9.14-.61c-13.57-.9-28.37-1.69-44-2.37a4,4,0,0,1-1.81-.54,4,4,0,0,0,3.49,2.39c15.65.68,30.45,1.48,44,2.37l9.14.61h.28a4,4,0,0,0,2-7.51Z" style="fill:#516a95;opacity:0.2"/></g><path d="M80.38,109a4,4,0,0,1-.13-8c.74,0,74.92-2.51,109.53-4a4,4,0,0,1,.33,8c-34.64,1.44-108.85,3.92-109.6,4Z" style="fill:#608a93;opacity:0.7000000000000001"/><path d="M80.38,109.15a4.17,4.17,0,0,1-.14-8.33c.73,0,74.86-2.5,109.53-3.94a4.17,4.17,0,0,1,4.33,4,4.16,4.16,0,0,1-4,4.33c-34.52,1.44-108.88,3.93-109.6,4ZM190,97.16h-.19c-34.67,1.45-108.8,3.92-109.53,4a3.88,3.88,0,0,0,.13,7.75h.13c.72,0,75.08-2.51,109.59-4a3.87,3.87,0,0,0,3.72-4A3.89,3.89,0,0,0,190,97.16Z" style="fill:#608a93;opacity:0.7000000000000001"/><path d="M193.25,98.78a3.88,3.88,0,0,1,.71,2.09,4,4,0,0,1-3.85,4.19c-34.64,1.44-108.85,3.92-109.6,4h-.13a4,4,0,0,1-1.51-.3,4,4,0,0,0,3.32,1.76h.13c.75,0,75-2.5,109.6-4a4,4,0,0,0,1.33-7.74Z" style="fill:#516a95;opacity:0.2"/><path d="M67.44,82.92a4,4,0,0,1-.29-8c.2,0,20.19-1.93,68.45-7.87a4,4,0,0,1,1,8c-48.5,6-68.63,7.88-68.83,7.9Z" style="fill:#986e65;opacity:0.7000000000000001"/><path d="M67.44,83.06a4.18,4.18,0,0,1-4.15-3.85,4.13,4.13,0,0,1,1-3,4.18,4.18,0,0,1,2.84-1.44c.12,0,19.9-1.89,68.45-7.86a4.17,4.17,0,0,1,3.79,6.7,4.17,4.17,0,0,1-2.77,1.57c-48.67,6-68.72,7.89-68.84,7.9ZM136.1,67.13a3.87,3.87,0,0,0-.48,0C86.93,73.15,67.27,75,67.15,75a3.88,3.88,0,0,0,.59,7.74c.12,0,20.15-1.92,68.82-7.91a3.87,3.87,0,0,0,3.38-4.32,3.89,3.89,0,0,0-3.84-3.41Z" style="fill:#f7941d"/><path d="M141.81,71.77a4,4,0,0,0-2.6-3.27,3.93,3.93,0,0,1,.87,2,4,4,0,0,1-3.5,4.49c-48.5,6-68.63,7.88-68.83,7.9h-.31a4,4,0,0,1-1.38-.25,4,4,0,0,0,3.12,1.49h.3c.2,0,20.34-1.94,68.83-7.9A4,4,0,0,0,141.81,71.77Z" style="fill:#516a95;opacity:0.2"/><path d="M45.14,69.24c-.06-.45-.13-1-.17-1.42h0c-.08.4-.18.82-.31,1.29l-.45,1.65-.33,0-.67-1.53c-.19-.46-.35-.87-.48-1.26h0c0,.41,0,1,.06,1.46l0,1.43-.4,0,0-3.32.54,0,.7,1.55c.17.4.31.75.42,1.09h0c.06-.34.15-.71.26-1.14l.46-1.65.55,0,.47,3.29-.42,0Z" style="fill:#fff"/><path d="M46.06,70.83l1.07-3.67.34,0L46.38,70.8Z" style="fill:#fff"/><path d="M48.83,70.41,48.72,69l-1.21-1.82.49,0,.54.88.39.65h0c.07-.22.17-.45.27-.71l.4-1,.49,0-1,2,.11,1.41Z" style="fill:#fff"/><path d="M143.58,92.22v32.91a4,4,0,0,0,3.89,4l64.22,2.09a4,4,0,0,0,4.15-3.95l.64-40.5Z" style="fill:#516a95;opacity:0.2"/><path d="M143.14,90.81v32.33a3.94,3.94,0,0,0,3.82,3.94l63.1,2.06a4,4,0,0,0,4.08-3.89l.62-39.79Z" style="fill:#986e65;opacity:0.7000000000000001"/><g style="opacity:0.8"><rect x="157.89" y="101.57" width="49.85" height="1.15" transform="translate(-3.72 6.96) rotate(-2.16)" style="fill:#fff;opacity:0.8"/><rect x="149.38" y="105.21" width="58.12" height="1.15" transform="translate(-2.28 3.95) rotate(-1.26)" style="fill:#fff;opacity:0.8"/><rect x="149.84" y="108.86" width="45.19" height="1.15" transform="matrix(1, -0.01, 0.01, 1, -1.36, 2.18)" style="fill:#fff;opacity:0.8"/></g><path d="M143.14,91A4.18,4.18,0,0,1,139,87.07a4.12,4.12,0,0,1,1-3,4.18,4.18,0,0,1,2.86-1.42l.18,0c4.54-.43,23-2.1,70.38-5.65a4,4,0,0,1,3.05.86,4.78,4.78,0,0,1,1.41,3.45A4.2,4.2,0,0,1,214,85.73c-52.79,4-69.89,5.16-70.59,5.21Zm70.74-13.72a3.24,3.24,0,0,0-.44,0c-47.36,3.55-65.84,5.22-70.38,5.65l-.18,0a3.87,3.87,0,0,0-3.6,4.13,3.88,3.88,0,0,0,3.86,3.61h.28c.71-.05,17.81-1.25,70.6-5.21a3.91,3.91,0,0,0,3.58-4.16A4.55,4.55,0,0,0,216.28,78,3.55,3.55,0,0,0,213.88,77.23Z" style="fill:#f7941d"/><path d="M143.14,90.81a4,4,0,0,1-.27-8c.16,0,16.49-1.61,70.56-5.67a4,4,0,0,1,4.31,4.18A4.15,4.15,0,0,1,214,85.59c-54.1,4-70.44,5.2-70.6,5.21Z" style="fill:#986e65;opacity:0.7000000000000001"/><rect x="153.34" y="85.92" width="0.57" height="0.29" transform="translate(-5.84 11.38) rotate(-4.16)" style="fill:#fff"/><path d="M155,86.11l0-.29,1.11-.08,0,.28Zm2.23-.17,0-.28,1.12-.09,0,.29Zm2.24-.16,0-.29,1.12-.08,0,.29Zm2.24-.17,0-.28,1.11-.09,0,.29Zm2.23-.16,0-.29,1.12-.08,0,.29Zm2.24-.16,0-.29,1.12-.08,0,.28Zm2.23-.17,0-.29,1.12-.08,0,.29Zm2.24-.16,0-.29h.17l.95-.07,0,.28-.95.07Zm2.24-.17,0-.29,1.11-.08,0,.29Zm2.23-.16,0-.29,1.12-.08,0,.29Zm2.24-.17,0-.29,1.12-.08,0,.29Zm2.24-.16,0-.29,1.11-.08,0,.28Zm2.23-.17,0-.29,1.12-.08,0,.29Zm2.24-.17,0-.28,1.11-.09,0,.29Zm2.23-.16,0-.29,1.12-.08,0,.29Zm2.24-.17,0-.29,1.12-.08,0,.29Z" style="fill:#fff"/><polygon points="190.83 83.46 190.81 83.18 191.38 83.13 191.4 83.42 190.83 83.46" style="fill:#fff"/><path d="M217.09,78.9a3.75,3.75,0,0,1,.65,2.38A4,4,0,0,1,214,85.59c-54.1,4-70.44,5.2-70.6,5.21h-.29a4,4,0,0,1-1-.14,4,4,0,0,0,3,1.35h.28c.16,0,16.5-1.16,70.6-5.21a4,4,0,0,0,3.71-4.31A3.68,3.68,0,0,0,217.09,78.9Z" style="fill:#516a95;opacity:0.2"/><path d="M146.83,86.62a2.94,2.94,0,1,1-2.94-2.94A2.93,2.93,0,0,1,146.83,86.62Z" style="fill:#f7941d"/><g style="opacity:0.9"><path d="M144,87.79a7,7,0,0,1-.73-.23l-.13,0a.85.85,0,0,1-.83-.9.9.9,0,0,1,.87-1,.95.95,0,0,1,.48,1.73h0l.44.09Zm-.37-1.22c0-.34-.18-.61-.46-.6s-.43.29-.42.64.18.6.46.59S143.62,86.93,143.61,86.57Z" style="fill:#fff"/><path d="M145.49,85.67v.26l-.68,1.52h-.44l.68-1.43h0l-.8,0v-.34Z" style="fill:#fff"/></g><path d="M136.18,108.3a1.38,1.38,0,0,1,.28.19A.49.49,0,0,0,136.18,108.3Z" style="fill:#424f5d"/><polygon points="136.18 108.3 136.18 108.3 136.18 108.3 136.18 108.3" style="fill:#424f5d"/><path d="M137.58,107.93c-.8-.56-1.4.37-1.4.37h0a.49.49,0,0,1,.28.19c1,.78,1.16,2.94,1.16,2.94C137.72,111.22,138.37,108.5,137.58,107.93Z" style="fill:#fff;opacity:0.2"/></g><g id="People"><g id="Group_10455" data-name="Group 10455"><path id="Path_19790" data-name="Path 19790" d="M27.37,231.91c.56.21,7.63.09,10.57,0a.67.67,0,0,0,.45-1.16,6.76,6.76,0,0,0-4.24-1.72,2.38,2.38,0,0,1-1.9-.93,11.86,11.86,0,0,1-1.46-5c0-.31-.64-.75-.61-1.09.24-3-4.28.46-4.28.46a3.63,3.63,0,0,1,.33,1.38c0,.89,1.27,3.13,1,4.17l-.12.43C26.57,230.22,26.68,231.64,27.37,231.91Z" style="fill:#76503f"/><path id="Path_19791" data-name="Path 19791" d="M27.38,231.91c.59.23,8.83.06,11.2,0,.31,0,.43-.32.29-.59a5.49,5.49,0,0,0-4.65-2.72,3.18,3.18,0,0,1-2.22-1c-1,.06-1.79.5-1.77,1.41,0,.53-1.68.68-3-1,0,.15-.07.3-.12.44C26.57,230.22,26.68,231.64,27.38,231.91Z" style="fill:#2a355b"/></g><g id="Group_10455-2" data-name="Group 10455"><path id="Path_19790-2" data-name="Path 19790" d="M24.83,232.76c.55.21,7.62.09,10.57,0a.67.67,0,0,0,.65-.69.64.64,0,0,0-.21-.47,6.74,6.74,0,0,0-4.24-1.72,2.39,2.39,0,0,1-1.9-.93,11.71,11.71,0,0,1-1.45-5c0-.31-.64-.75-.62-1.09.25-3-4.28.46-4.28.46a3.84,3.84,0,0,1,.34,1.38c0,.89,1.26,3.13,1,4.16,0,.16-.08.3-.12.44C24,231.07,24.13,232.49,24.83,232.76Z" style="fill:#76503f"/><path id="Path_19791-2" data-name="Path 19791" d="M24.83,232.76c.6.23,8.84.06,11.21,0a.38.38,0,0,0,.29-.59,5.5,5.5,0,0,0-4.65-2.72,3.18,3.18,0,0,1-2.23-1c-1,.06-1.78.5-1.77,1.41,0,.53-1.67.68-3-1l-.12.44C24,231.07,24.13,232.49,24.83,232.76Z" style="fill:#202952"/></g><polygon points="36.85 158.77 33.47 193.38 30.72 226.04 24.82 226.04 26.67 193.1 23.3 158.75 36.85 158.77" style="fill:#6d210d"/><polygon points="30.69 105.46 31.55 108.41 33.98 111.2 32.48 111.63 32.61 115.79 27.68 117.2 25.74 116.69 23.26 113.7 21.38 107.19 30.44 104.58 30.69 105.46" style="fill:#7e5544"/><rect x="23.77" y="112.56" width="3.93" height="9.48" transform="translate(64.71 230.9) rotate(173.44)" style="fill:#7e5544"/><polygon points="36.85 158.77 32.01 194.16 29.2 227.46 23.3 227.46 25.2 193.88 23.33 165.52 22.29 163.05 22.89 158.75 36.85 158.77" style="fill:#822b0e"/><g style="opacity:0.35000000000000003"><polygon points="27.71 117.19 32.61 115.79 32.48 111.63 33.98 111.2 31.55 108.41 30.69 105.46 30.44 104.58 28.31 105.19 30.69 109.05 31.48 111.31 31.48 114.72 27.18 116.86 27.05 121.93 28.24 121.79 27.71 117.19" style="fill:#66443b"/></g><path d="M28.92,106.62a4.65,4.65,0,0,0,1.88-2.84c.33-1.11.22-3-.67-3.61s-2,.46-3.8.87c-.84.19-1.45-.58-2.56.42s-1.17,1.43-2,1.35-1.09,1-1.49,2.44a3,3,0,0,0-.09,2.45c.29,1,.35.4-.09,1.25s.43,1.78,1.35,2.64.84.72,1.05,1.44.43.51.6,1.09,3.29-1.58,3.26-2.88-.14-1.44.28-2,.35-.7.73,0,1,0,1-.25C28.57,108.09,26.79,106.62,28.92,106.62Z" style="fill:#002b3b"/><polygon points="23.9 118.83 28.4 119.38 28.96 120.43 23.69 120.03 23.9 118.83" style="fill:#fff"/><path d="M34.15,161.71a12.39,12.39,0,0,0,5.69.25,19.26,19.26,0,0,0-.3-3.15c-4-21.77-1.79-13.19-4.12-25.86-2.44-13.23-6.71-12.33-7-12.69,0,0-3.82-.79-4.47-.37s-7.36,3.38-4,15.68c3.78,13.79,1.19,22.57,1,25.94C24.3,161.24,30.79,160.87,34.15,161.71Z" style="fill:#1d2039"/><path d="M26.47,124.07,28,126.42a4.6,4.6,0,0,0,4.12,2l14.9-.92-.12-3.77-18-3a2.65,2.65,0,0,0-1.52.19h0A2.13,2.13,0,0,0,26.47,124.07Z" style="fill:#698ca0"/><polygon points="49.44 112.6 50.29 109.4 49.79 107.02 50.23 104.9 50.83 105.05 52.29 101.46 52.58 101.76 52.46 102.86 52.81 103.31 53.81 104.47 53.81 107.26 52.73 109.43 51.8 113.06 49.44 112.6" style="fill:#7e5544"/><polygon points="52.47 111.18 52.81 110.16 49.88 110.22 49.57 111.31 52.47 111.18" style="fill:#fff"/><path d="M46.63,127.55h0a2.5,2.5,0,0,1-2.11-3.35l5-13.39h3.34l-4.26,15.39A1.85,1.85,0,0,1,46.63,127.55Z" style="fill:#698ca0"/><g style="opacity:0.1"><polygon points="36.58 162.13 32.41 161.41 28.15 227.46 29.2 227.46 32.01 194.16 36.58 162.13" style="fill:#97a6bf"/></g><polygon points="53.81 107.26 53.81 104.47 52.81 103.31 52.46 102.86 52.58 101.76 52.24 102.95 52.81 104.47 53.37 105.03 53.67 107.11 52.24 109.32 52.54 110.16 52.73 109.43 53.81 107.26" style="fill:#66443b"/><path d="M51.05,110.8s.58,4-2.44,15.39c-.23.89,0,.12,0,.12l4.24-15.51H51.05Z" style="fill:#fff;opacity:0.30000000000000004"/><polygon points="146.28 125.13 146.28 125.13 144.73 125.87 143.74 125.92 143.36 125.64 141.55 126.44 140.27 128.11 137.7 129.34 138.64 131.03 139.75 130.49 141.53 129.6 143.74 128.96 146.35 126.97 146.28 125.13" style="fill:#f8b5ab"/><path d="M143.74,129l2.61-2-.07-1.84a.62.62,0,0,0-.32.42c-.08.33-.16,1.1-.16,1.1L144,128a4,4,0,0,0-2.64.49,20.66,20.66,0,0,0-2.14,1.39l.57.63,1.8-.89Z" style="fill:#fff;opacity:0.30000000000000004"/><path d="M114.3,123.18h0a2.67,2.67,0,0,0-2,2.14h0a2.67,2.67,0,0,0,.31,1.79l.54.95a2.57,2.57,0,0,0,.66.77l10,8.07a3.84,3.84,0,0,0,5,.63c2.83-1.85,11.07-6.87,11.07-6.87l-1.61-1.76-8.7,3.47-2.52.87a24.14,24.14,0,0,1-2.75-2.31c-1.71-1.6-5.8-5.5-7.6-7.14A2.71,2.71,0,0,0,114.3,123.18Z" style="fill:#4c384c"/><polygon points="120.24 231.81 131.31 232.23 130.71 231.34 123.26 228.92 123.64 224.19 120.81 224.19 120.62 228.73 120.24 231.81" style="fill:#f8b5ab"/><path d="M120.55,228.69l-.76,2.95a.57.57,0,0,0,.55.66l10.94.31s1.19.09.62-.58c-.83-.95-4.55-1.84-4.55-1.84l-.65.11s-4.55.07-5.73-.77A2.68,2.68,0,0,1,120.55,228.69Z" style="fill:#472f08"/><polygon points="111.98 222.72 111.98 228.73 111.6 231.81 122.67 232.23 122.06 231.34 114.62 228.92 114.9 221.78 112.03 221.78 111.98 222.72" style="fill:#f8b5ab"/><path d="M111.91,228.69l-.76,2.95a.56.56,0,0,0,.54.66l11,.31s1.19.09.61-.58c-.82-.95-4.54-1.84-4.54-1.84l-.65.11s-4.56.07-5.73-.77A2.68,2.68,0,0,1,111.91,228.69Z" style="fill:#5e3e0a"/><polygon points="121.38 153.23 110.07 152.38 121.06 192.99 127.66 191.4 121.38 153.23" style="fill:#192832"/><polygon points="112.92 125.34 108.27 125.56 108.27 116.03 112.46 116.03 112.49 122.43 113 123.23 112.92 125.34" style="fill:#f8b5ab"/><path d="M120.81,152.91l-2.57,42.15-2.84,28.38h-4l.17-28.34L108.27,170l-1-5.46a5,5,0,0,1-.19-3.88l3.26-8.93Z" style="fill:#213543"/><path d="M112.49,122.27l2.87.77a3.27,3.27,0,0,1,2.15,1.87l1.68,3.93a10.26,10.26,0,0,1,1.44,6.34c-.28,4,1.27,15.49,1.66,18s1.76,4.13,0,4.08-12.85-.61-13.78-1-.72-.88,0-1.93,1.37-4.46.71-10.36-6.76-13.72-6.37-16.53,4.4-4.88,5.42-5.49c0,0,5,5.8,4.29,1.08A6.27,6.27,0,0,1,112.49,122.27Z" style="fill:#4c384c"/><polygon points="110.42 119.91 116.79 120.32 117.29 116.52 117.88 116.03 117.62 113.62 118.03 108.5 111.42 106.26 107.45 110.89 107.45 118.33 110.42 119.91" style="fill:#f8b5ab"/><polygon points="120.36 224.34 123.86 224.67 127.66 191.38 127.59 191.38 121.02 192.11 121.02 192.12 120.36 224.34" style="fill:#192832"/><g style="opacity:0.2"><path d="M117.29,116.52l.59-.49-.26-2.41.41-5.12-2.73-.93a10.93,10.93,0,0,1,1.45,4.09c0,2-.25,4.81-.25,4.81l-1,3-3,.51.13.08,4.18.27Z" style="fill:#fff"/></g><path d="M114.62,104.86c-7.22-2.32-9.55,3.67-9.16,5.37a5.72,5.72,0,0,1-.25,4c-1.9,1.85-.57,3.45.57,4.33.14.1,2.08,1.39,3.85.59a3.57,3.57,0,0,1,1-.29l.7-.16a1.48,1.48,0,0,0,1.24-2.23s-3.25-2.94-.37-3.9a7.09,7.09,0,0,0,4.62-4.53c1.18.74,1,3.43,1,3.43S121.84,107.17,114.62,104.86Z" style="fill:#5e3e0a"/><path d="M110.21,119c-.1,0-.19.06-.29.09A1,1,0,0,0,110.21,119Z" style="fill:none"/><path d="M116.82,108.09l.8,1.33A2.13,2.13,0,0,0,116.82,108.09Z" style="fill:none"/><path d="M117.78,110.47a5.47,5.47,0,0,0-.15-1Z" style="fill:none"/><path d="M112.74,110.2c-3.49.58-3.87,3.53-2.11,5.5,1.51,1.68.35,2.94-.42,3.3a3.15,3.15,0,0,1,.42-.09l.7-.16a1.48,1.48,0,0,0,1.24-2.23s-3.25-2.94-.37-3.9a7.09,7.09,0,0,0,4.62-4.53S116.23,109.63,112.74,110.2Z" style="fill:#fff;opacity:0.2"/><path d="M117.62,109.42s0,0,0,0v0Z" style="fill:#fff"/><path d="M117.78,110.47a8.61,8.61,0,0,1,0,1l.14-.16-.09-.47Z" style="fill:#fff"/><path d="M122.29,153.21c-.39-2.54-1.94-14.06-1.66-18a10.26,10.26,0,0,0-1.44-6.34l-1.68-3.93s1,6.87,2,9.06.93,7.66.83,9.3A54.06,54.06,0,0,1,117.27,157l5,.25C124.05,157.34,122.67,155.74,122.29,153.21Z" style="fill:#fff;opacity:0.1"/><polygon points="105.39 149.31 107.63 152.17 109.85 150.32 114.25 151.39 112.49 153.05 110.4 153.06 108.49 154.19 106.83 154.06 103.97 150.85 105.39 149.31" style="fill:#f8b5ab"/><path d="M108.34,126.65h0a2.83,2.83,0,0,0-2.38-1.88h-.3a2.8,2.8,0,0,0-1.79.55l-.47.67a9.15,9.15,0,0,0-.71,1.19l-6.11,11.35a3.84,3.84,0,0,0,.3,5c2.33,2.45,7.7,8.19,7.7,8.19l1.43-1.91-3.92-6.47-1.32-2.32a25.68,25.68,0,0,1,1.78-3.12c1.25-2,4.35-6.72,5.63-8.78A2.67,2.67,0,0,0,108.34,126.65Z" style="fill:#4c384c"/><g style="opacity:0.1"><polygon points="118.23 195.06 120.55 157.21 117.27 157.04 117.14 193.29 114.48 223.44 115.4 223.44 118.23 195.06" style="fill:#fff"/></g><g style="opacity:0.1"><path d="M122,157.28h-1l-.51-.08-.88,14.35,6,17a13.82,13.82,0,0,1,.69,5.81l-2.9,30.27.45,0,3.8-33.27Z" style="fill:#fff"/></g><path d="M102.16,136.54s-2.51,3.18-2.62,4.14,4.22,7.43,6.1,9.63l.25-.65-3.81-6.29-1.32-2.32a25.68,25.68,0,0,1,1.78-3.12c1.25-2,4.35-6.72,5.63-8.78C108.17,129.15,106.72,128.76,102.16,136.54Z" style="fill:#fff;opacity:0.1"/><g style="opacity:0.1"><path d="M139.91,130.67l-.74-.81c-3.6,2.53-10.11,7.49-10.4,7.72l.06,0C131.66,135.69,139.91,130.67,139.91,130.67Z" style="fill:#fff"/></g><polygon points="79.34 123.7 77.93 120.26 76.95 119.04 75.93 117.49 76.13 115.09 78.42 115.45 80.46 117.1 80.85 118.84 80.8 120.27 82.1 123.29 79.34 123.7" style="fill:#fdc689"/><polygon points="68.98 229.39 72.64 229.39 72.64 233.46 76.45 236.23 80.58 237.43 80.58 238.58 67.64 238.58 67.73 235.45 68.57 233.25 68.57 229.39 68.98 229.39" style="fill:#59433b"/><polygon points="79.83 160.3 76.2 197.51 73.24 232.62 66.9 232.62 68.89 197.21 65.26 160.28 79.83 160.3" style="fill:#2f4d65"/><polygon points="66.48 231.06 70.48 231.06 70.48 235.32 74.46 238.21 78.78 239.46 78.78 240.66 65.26 240.66 65.35 237.39 66.22 235.1 66.22 231.06 66.48 231.06" style="fill:#76594e"/><polygon points="74.75 104.3 75.13 107.57 77.21 110.96 75.54 111.15 76.09 115.97 70.21 116.54 69.42 115.61 65.4 111.69 64.57 104.47 74.64 103.31 74.75 104.3" style="fill:#fdc689"/><rect x="65.81" y="110" width="4.23" height="10.2" transform="translate(148.54 221.68) rotate(173.44)" style="fill:#fdc689"/><path d="M72.48,106.18a5.67,5.67,0,0,0,2.86-.89c.93-.81,1.3-3.72.46-4.51s-2-1.18-2.43-2-2.58-.41-3.94.45-1.59.89-2.41.65a1.85,1.85,0,0,0-2.56,1c-.68,1.44-1.28,2.12-1.16,3.23s.25,1.15-.36,2,.13,2,1,3,.77.92.86,1.72.36.61.43,1.26,3.77-1.09,4-2.47.11-1.55.66-2.08.71.48,1,1.34,1.1.3,1.1.3S71.64,106.28,72.48,106.18Z" style="fill:#8e7e5f"/><polygon points="79.83 160.3 74.62 198.35 71.6 234.14 65.26 234.14 67.31 198.05 64.82 160.28 79.83 160.3" style="fill:#24415e"/><path d="M75.62,111.81s.06.33.12,1.12.35,3,.35,3l-5.38.52L69,113.6l1.65-2.42.21-2.05,1,.08.38,2.27" style="fill:#24415e;opacity:0.2"/><polygon points="65.91 117.36 70.74 117.95 71.35 119.09 65.68 118.66 65.91 117.36" style="fill:#fff"/><path d="M70.74,118.9s-4.12-.85-4.81-.39-7.92,3.63-4.29,16.85c5.48,20,.89,29,1.8,28.94a51.14,51.14,0,0,1,10.33.34c6.06.78,9.85.54,9.38-1.67-1.53-7.05-4.08-20.57-4.8-29.73C77.21,118.82,71.08,119.29,70.74,118.9Z" style="fill:#fff"/><path d="M69.58,122.63l-.27,3a4.94,4.94,0,0,0,2.06,4.48l13.1,9.28,2.44-3.23-13.06-14.7a2.9,2.9,0,0,0-1.4-.87h0A2.29,2.29,0,0,0,69.58,122.63Z" style="fill:#f0ecec"/><polygon points="78.66 122.38 78.25 121.31 81.39 121.23 81.79 122.38 78.66 122.38" style="fill:#fff"/><path d="M85.76,139.67h0a2.69,2.69,0,0,0,2.1-3.7l-6-14.13-3.59.15,5.35,16.32A2,2,0,0,0,85.76,139.67Z" style="fill:#f0ecec"/><path d="M72.48,106.18a5.67,5.67,0,0,0,2.86-.89c.93-.81,1.3-3.72.46-4.51a3.79,3.79,0,0,0-.39-.31c0,.11.34,2.08-1.18,2.89s-3.22,1.75-2.88,3.4,0,1.28.52,2.46h0S71.64,106.28,72.48,106.18Z" style="fill:#0a1018"/><path d="M72.48,106.18a5.67,5.67,0,0,0,2.86-.89c.93-.81,1.3-3.72.46-4.51a3.79,3.79,0,0,0-.39-.31c0,.11.34,2.08-1.18,2.89s-3.22,1.75-2.88,3.4,0,1.28.52,2.46h0S71.64,106.28,72.48,106.18Z" style="fill:#8e7e5f"/><g style="opacity:0.2"><path d="M87.86,136l-6-14.13-1.79.07h0l6.44,13.69a7.39,7.39,0,0,1-.07,3.82.29.29,0,0,1,0,.09A2.69,2.69,0,0,0,87.86,136Z" style="fill:#f0ecec"/></g><g style="opacity:0.2"><path d="M83.15,163c-1.4-6.45-3.65-18.31-4.58-27.3h0s-.34,14.67,1.26,21.45c1.28,5.43.07,7.18-1.41,7.9C81.66,165.11,83.49,164.54,83.15,163Z" style="fill:#fff"/></g><g style="opacity:0.1"><polygon points="74.62 198.35 79.18 165.05 75.16 164.8 73.24 200.89 69.77 234.14 71.6 234.14 74.62 198.35" style="fill:#fff"/></g><g style="opacity:0.1"><polygon points="70.48 235.32 70.48 234.14 69.77 234.14 69.77 235.45 73.92 238.47 78.78 239.46 74.46 238.21 70.48 235.32" style="fill:#fff"/></g><polygon points="71.8 130.48 78.76 137.37 78.52 135.25 71.8 130.48" style="fill:#231f20;opacity:0.1"/><path id="Path_20953" data-name="Path 20953" d="M183.73,227.39l.06,13.08h2.07V236.9s1.6,3.4,2.59,3.55c.63.1,3.14.06,5.2,0a.56.56,0,0,0,.51-.59.57.57,0,0,0-.26-.44c-1.89-1.13-4.63-2.25-5.25-5.59-.54-2.89-.79-6.67-.79-6.67Z"/><path id="Path_20953-2" data-name="Path 20953" d="M165.47,227.39l.06,13.08h2.07l0-3.56s1.6,3.4,2.6,3.55c.63.1,3.13.06,5.19,0a.56.56,0,0,0,.52-.59.61.61,0,0,0-.27-.44c-1.89-1.13-4.62-2.25-5.25-5.59-.53-2.89-.78-6.67-.78-6.67Z"/><path d="M169.21,125.32l-1.93-2.88-3.38,1-2.36,3.34.27,12.12s.14,5,2.44,7.32c2.69,2.72,8.12,8.88,8.12,8.88l2-2.25-6.79-9.44-.62-1.87a62,62,0,0,1,.25-7A63.27,63.27,0,0,1,169.21,125.32Z" style="fill:#d47d6f"/><path d="M174.84,154.93c-2.23-.07-4.46-.2-6.69-.22s-2.12,1.35-2.83,3.25c-.83,2.18-1.54,4.39-2.15,6.64a13.45,13.45,0,0,0-.62,5.18c.41,3.2,2.45,5.72,2.56,9q.12,3.85.25,7.71l.38,11.86,6.51,1.72Z" style="fill:#2f3454"/><polygon points="169.58 119.1 176.31 118.36 176.12 114.29 177.94 113.97 175.93 111.2 175.41 105.77 168.09 104.66 164.8 110.24 166.18 118.01 169.58 119.1" style="fill:#f8b5ab"/><path d="M175.41,105.77l.31,3.2c.1-.23.75-3.24-.13-3.84s-1.52.44-1.52.44h0Z" style="fill:#424f5d"/><path d="M175.93,111.2l-.21-2.23h0s-.25-2.37-1.35-3.2a.48.48,0,0,0-.3-.2h0s1.58,1.35,1.09,4.63a3.8,3.8,0,0,0,.09,1.26,20,20,0,0,1,.49,2l-.5.6-.56,3.3-3,1.48h0l4.58-.5-.19-4.07,1.81-.32Z" style="fill:#fff;opacity:0.2"/><polygon points="165.4 228.25 169.87 228.25 172.31 199.55 172.23 199.55 165.73 197.83 165.73 197.83 165.4 228.25" style="fill:#2f3454"/><path d="M180.25,154.77,184.69,199l3.44,29.22h-4.87l-5.61-29.18-2.09-9.59-1.7-7.8c-.59-2.71-.92-5.6-2.55-7.92-.65-.92-1.43-1.72-2.07-2.64a13.11,13.11,0,0,1-1.89-8.59,23,23,0,0,1,1.7-7.26c.78-1.68,1.81-1.45,3.51-1.28C173.16,154.05,180.23,154.52,180.25,154.77Z" style="fill:#1d2039"/><path d="M172.38,123l5.19,1,.46,6.12s3.18,5.45,2.89,9.66a130.85,130.85,0,0,0,.9,17.47c.41,2.69,1.87,4.38,0,4.32s-14.14-.38-15.14-.79-3.58-.26-2.82-1.37a19.14,19.14,0,0,0,2.84-12.19c-.7-6.26-4.61-15.81-5.08-18.78-.77-4.81,4-5.68,5.63-5.67A47,47,0,0,1,172.38,123Z" style="fill:#c95c4a"/><path d="M174.07,105.57a4.52,4.52,0,0,1-1.33,5.84c-3.24,2.72-1.54,3.75-1.54,3.75s1.26,1.64-.89,2.56.53,3,1.21,3.8,1.36,4.38-.44,6.23-5.29,4.74-8.87,2.62-5.05-3.9-.76-9.38a5.5,5.5,0,0,1,1.64-6.8,19,19,0,0,0-.49-4.28c-.49-1.78.6-8.39,8.57-7.31s4.55,6.37,4.55,6.37S175.44,106.13,174.07,105.57Z" style="fill:#ffb600"/><polygon points="195.19 106.52 196.37 103 198.03 100.67 200.49 99.97 202.51 100.03 202.48 100.68 201.77 100.76 202.05 101.36 201.47 102.97 200.88 102.66 199.84 103.99 198.44 104.58 197.51 107.11 195.19 106.52" style="fill:#f8b5ab"/><path d="M173.48,124.93l-.38.63a2.27,2.27,0,0,0,.26,2.71l.81.89a2.29,2.29,0,0,0,1,.66l3.16.92,10.88-3.56s6.29-2,6.65-5.24c.46-4,2.18-15.81,2.18-15.81l-2.88-.85-3.87,13.41a3.75,3.75,0,0,1-1.89,2.29l-.87.44a2.57,2.57,0,0,1-.6.23,39.53,39.53,0,0,1-4.59.86c-2.8.38-6.58,1-8.36,1.36A2.26,2.26,0,0,0,173.48,124.93Z" style="fill:#d47d6f"/><polygon points="201.45 101.32 201.19 102.18 200.88 102.66 201.47 102.97 202.05 101.36 201.77 100.76 202.48 100.68 202.5 100.29 201.49 100.63 201.45 101.32" style="fill:#fff;opacity:0.2"/><polygon points="198.44 104.58 199.84 103.99 200.88 102.66 199.25 103.34 198.38 104.33 197.2 105.87 197.54 105.97 198.08 106.13 198.44 104.58" style="fill:#fff;opacity:0.30000000000000004"/><g style="opacity:0.15"><path d="M195.9,121.94c.46-4,2.18-15.81,2.18-15.81l-.69-.2c-.53,2.75-2.15,11-3.24,14-1.21,3.31-3.07,6-10.69,9.17h0l5.79-1.9S195.54,125.2,195.9,121.94Z" style="fill:#fff"/></g><rect x="167.4" y="115.17" width="4.44" height="8.57" transform="matrix(1, -0.04, 0.04, 1, -4.48, 6.63)" style="fill:#f8b5ab"/><g style="opacity:0.2"><path d="M170.91,111.55c-2.89,2.15-.51,3.57-.49,4.38s-1.86,2.06-.72,3.47h0a1.07,1.07,0,0,1,.61-1.68c2.15-.92.89-2.56.89-2.56s-1.7-1,1.54-3.75a4.52,4.52,0,0,0,1.33-5.84A8.88,8.88,0,0,1,170.91,111.55Z" style="fill:#fff"/></g><path d="M181.82,157.25a130.85,130.85,0,0,1-.9-17.47c.29-4.21-2.89-9.66-2.89-9.66l-.46-6.12-4.26-.82c.88,1.74,4.33,8.74,5.3,13.37,1.11,5.32,2.08,10.77,1.75,13.41s-1,7.07-3.06,10.21a1.12,1.12,0,0,0,.06,1.26c2.09.08,3.84.12,4.46.14C183.69,161.63,182.23,159.94,181.82,157.25Z" style="fill:#fff;opacity:0.2"/><path d="M184.69,199l-3.76-37.47-3.57-.13c.47,1,.3,2,.67,4.06.77,4.28,3.27,15.89,5.2,30.72,1.68,12.88,3.62,27.67,4.09,32h.81Z" style="fill:#fff;opacity:0.1"/><g style="opacity:0.4"><path d="M163.86,135.94a76.32,76.32,0,0,1,2.19,12.21l.75.81a17.41,17.41,0,0,0-.1-1.74A64,64,0,0,0,163.86,135.94Z" style="fill:#c95c4a"/></g></g></g></svg>