<svg xmlns="http://www.w3.org/2000/svg" viewBox="0 0 99.64 72.03"><title>GlossaryNew</title><g id="Layer_2" data-name="Layer 2"><g id="Layer_1-2" data-name="Layer 1"><path d="M53.52,8.27a5.68,5.68,0,0,0-5.84,5.51,5.69,5.69,0,0,0-5.84-5.51H27.38V26.6l-6.8-6.8-6.51,6.52V69.58H99.64V8.27Z" style="fill:#775f75;opacity:0.48"/><path d="M27.38,2.11H41A6.79,6.79,0,0,1,47.75,8.9a6.79,6.79,0,0,1,6.79-6.79h39" style="fill:none;stroke:#666;stroke-linecap:round;stroke-linejoin:round;stroke-width:4px"/><path d="M93.5,2V63.23h-39A6.8,6.8,0,0,0,47.75,70,6.8,6.8,0,0,0,41,63.23H2V2.11H13.79" style="fill:none;stroke:#666;stroke-linecap:round;stroke-linejoin:round;stroke-width:4px"/><line x1="47.75" y1="8.9" x2="47.75" y2="66.63" style="fill:none;stroke:#666;stroke-linecap:round;stroke-linejoin:round;stroke-width:3.1035644321823197px"/><polyline points="27.25 2.98 27.25 26.75 20.46 19.95 13.67 26.75 13.67 2.98" style="fill:none;stroke:#666;stroke-linecap:round;stroke-linejoin:round;stroke-width:4px"/></g></g></svg>