<?xml version="1.0" encoding="utf-8"?>
<!-- Generator: Adobe Illustrator 24.0.0, SVG Export Plug-In . SVG Version: 6.00 Build 0)  -->
<svg version="1.1" id="Layer_1" xmlns="http://www.w3.org/2000/svg" xmlns:xlink="http://www.w3.org/1999/xlink" x="0px" y="0px"
	 viewBox="0 0 174.9 150.7" style="enable-background:new 0 0 174.9 150.7;" xml:space="preserve">
<style type="text/css">
	.st0{opacity:0.1;}
	.st1{fill-rule:evenodd;clip-rule:evenodd;}
</style>
<g transform="translate(0 -928.375)" class="st0">
	<path class="st1" d="M-0.1,928.7v150h175v-150H-0.1z M9,931.8h3.7c1.3,0,2.3,0.8,2.3,1.8v6.4c0,1-1,1.8-2.3,1.8H9
		c-1.3,0-2.3-0.8-2.3-1.8v-6.4C6.7,932.6,7.7,931.8,9,931.8L9,931.8z M30.9,931.8h3.7c1.3,0,2.3,0.8,2.3,1.8v6.4c0,1-1,1.8-2.3,1.8
		h-3.7c-1.3,0-2.3-0.8-2.3-1.8v-6.4C28.6,932.6,29.6,931.8,30.9,931.8z M52.8,931.8h3.7c1.3,0,2.3,0.8,2.3,1.8v6.4
		c0,1-1,1.8-2.3,1.8h-3.7c-1.3,0-2.3-0.8-2.3-1.8v-6.4C50.5,932.6,51.5,931.8,52.8,931.8z M74.7,931.8h3.7c1.3,0,2.3,0.8,2.3,1.8
		v6.4c0,1-1,1.8-2.3,1.8h-3.7c-1.3,0-2.3-0.8-2.3-1.8v-6.4C72.4,932.6,73.4,931.8,74.7,931.8L74.7,931.8z M96.5,931.8h3.7
		c1.3,0,2.3,0.8,2.3,1.8v6.4c0,1-1,1.8-2.3,1.8h-3.7c-1.3,0-2.3-0.8-2.3-1.8v-6.4C94.2,932.6,95.3,931.8,96.5,931.8z M118.4,931.8
		h3.7c1.3,0,2.3,0.8,2.3,1.8v6.4c0,1-1,1.8-2.3,1.8h-3.7c-1.3,0-2.3-0.8-2.3-1.8v-6.4C116.1,932.6,117.2,931.8,118.4,931.8z
		 M140.3,931.8h3.7c1.3,0,2.3,0.8,2.3,1.8v6.4c0,1-1,1.8-2.3,1.8h-3.7c-1.3,0-2.3-0.8-2.3-1.8v-6.4
		C138,932.6,139.1,931.8,140.3,931.8z M162.2,931.8h3.7c1.3,0,2.3,0.8,2.3,1.8v6.4c0,1-1,1.8-2.3,1.8h-3.7c-1.3,0-2.3-0.8-2.3-1.8
		v-6.4C159.9,932.6,160.9,931.8,162.2,931.8z M4.5,945.3h165.8v116.5H4.5V945.3z M8.3,1064.8H12c1.3,0,2.3,0.8,2.3,1.8v6.4
		c0,1-1,1.8-2.3,1.8H8.3c-1.3,0-2.3-0.8-2.3-1.8v-6.4C6,1065.6,7,1064.8,8.3,1064.8L8.3,1064.8z M30.2,1064.8h3.7
		c1.3,0,2.3,0.8,2.3,1.8v6.4c0,1-1,1.8-2.3,1.8h-3.7c-1.3,0-2.3-0.8-2.3-1.8v-6.4C27.9,1065.6,28.9,1064.8,30.2,1064.8L30.2,1064.8z
		 M52.1,1064.8h3.7c1.3,0,2.3,0.8,2.3,1.8v6.4c0,1-1,1.8-2.3,1.8h-3.7c-1.3,0-2.3-0.8-2.3-1.8v-6.4
		C49.7,1065.6,50.8,1064.8,52.1,1064.8z M74,1064.8h3.7c1.3,0,2.3,0.8,2.3,1.8v6.4c0,1-1,1.8-2.3,1.8H74c-1.3,0-2.3-0.8-2.3-1.8
		v-6.4C71.6,1065.6,72.7,1064.8,74,1064.8L74,1064.8z M95.9,1064.8h3.7c1.3,0,2.3,0.8,2.3,1.8v6.4c0,1-1,1.8-2.3,1.8h-3.7
		c-1.3,0-2.3-0.8-2.3-1.8v-6.4C93.5,1065.6,94.6,1064.8,95.9,1064.8z M117.7,1064.8h3.7c1.3,0,2.3,0.8,2.3,1.8v6.4
		c0,1-1,1.8-2.3,1.8h-3.7c-1.3,0-2.3-0.8-2.3-1.8v-6.4C115.4,1065.6,116.5,1064.8,117.7,1064.8z M139.6,1064.8h3.7
		c1.3,0,2.3,0.8,2.3,1.8v6.4c0,1-1,1.8-2.3,1.8h-3.7c-1.3,0-2.3-0.8-2.3-1.8v-6.4C137.3,1065.6,138.3,1064.8,139.6,1064.8z
		 M161.5,1064.8h3.7c1.3,0,2.3,0.8,2.3,1.8v6.4c0,1-1,1.8-2.3,1.8h-3.7c-1.3,0-2.3-0.8-2.3-1.8v-6.4
		C159.2,1065.6,160.2,1064.8,161.5,1064.8z"/>
</g>
</svg>
