<svg xmlns="http://www.w3.org/2000/svg" viewBox="0 0 86.24 86.78"><title>Asset 1</title><g id="Layer_2" data-name="Layer 2"><g id="Layer_1-2" data-name="Layer 1"><path d="M39.56,7.35a39.71,39.71,0,1,0,28.59,12,39.58,39.58,0,0,0-28.59-12" fill="#dee39d"/><circle cx="41.62" cy="47.09" r="23" transform="translate(-0.18 0.16) rotate(-0.22)" fill="#fff"/><path d="M73.32,13.62a39.72,39.72,0,1,0-.69,56.16A39.72,39.72,0,0,0,73.32,13.62Z" fill="none" stroke="#666" stroke-miterlimit="10" stroke-width="1.71"/><path d="M73.32,13.62a39.72,39.72,0,1,0-.69,56.16A39.72,39.72,0,0,0,73.32,13.62Z" fill="none" stroke="#fff" stroke-miterlimit="10" stroke-width="3.27"/><polyline points="69.35 18.96 42.08 50.84 29.99 39.93" fill="none" stroke="#666" stroke-linecap="round" stroke-linejoin="round" stroke-width="3.58"/><path d="M50.87,25.16a20.08,20.08,0,0,0-8.76-1.71,23,23,0,1,0,23,23.05,18.88,18.88,0,0,0-1.15-6.57" fill="none" stroke="#666" stroke-linecap="round" stroke-linejoin="round" stroke-width="3.58"/></g></g></svg>