<svg xmlns="http://www.w3.org/2000/svg" xmlns:xlink="http://www.w3.org/1999/xlink" viewBox="0 0 300 300"><defs><linearGradient id="linear-gradient" x1="-348.56" y1="-190.57" x2="-348.26" y2="-189.94" gradientTransform="translate(-91927.59 -38182.15) rotate(180) scale(264.23 201.51)" gradientUnits="userSpaceOnUse"><stop offset="0" stop-color="#cac1ca"/><stop offset="1" stop-color="#fff"/></linearGradient></defs><title>S-S.32</title><g id="Layer_2" data-name="Layer 2"><g id="Spend"><rect width="300" height="300" style="fill:#fff"/><path id="Path_20834" data-name="Path 20834" d="M236.4,146.27c44.24,47.8,68.4,86.23,33.74,99.77C242.93,256.66,178,239.3,141.8,250.8,125.44,256,82,273.85,50.25,245c-28.25-25.7-59.47-109,1.1-97.1,24.33,4.77,4.53-76.07,50.53-80.1C134.49,64.91,199.19,106.07,236.4,146.27Z" style="fill:#fff;opacity:0.2"/><path id="Path_20835" data-name="Path 20835" d="M23.67,198.61c7.82,13.72,17.52,26.16,26.72,34,38,32.39,78.92,17.25,97.7,10.45,41.53-15,103.07,11.26,134.42-1.85,19.06-8,17-29.36-.47-61.84-7.55-14-18-30.15-30.88-48.15C213.69,78.88,150,31.08,123.57,31,70,30.84,75.11,128.65,46.69,124.15-4.78,116,2.74,161.9,23.67,198.61Z" style="opacity:0.787999987602234;isolation:isolate;fill:url(#linear-gradient)"/><rect x="70.19" y="231.35" width="181.88" height="3.85" rx="1.9" style="fill:#2c77bc;opacity:0.30000000000000004"/><path d="M147,142.65a.75.75,0,0,0,.75,1l38.17,0a1.55,1.55,0,0,0,1.39-1l-.17-1-39.84,0Z" style="fill:#264465"/><path d="M186.92,141.71l-22.41,0a1,1,0,0,1-1-1.45l5.58-18a2.18,2.18,0,0,1,2-1.45l22.42,0a1,1,0,0,1,1,1.45l-5.58,18A2.17,2.17,0,0,1,186.92,141.71Z" style="fill:#325b87"/><polygon points="188.22 138.14 165.42 138.12 170.28 122.4 193.08 122.43 188.22 138.14" style="fill:#5cb0db"/><path d="M186.53,125.59H177a.13.13,0,0,1,0-.26h9.56a.13.13,0,0,1,0,.26Z" style="fill:#9dd0e9"/><path d="M187,126.59H177.4a.13.13,0,0,1-.13-.14.13.13,0,0,1,.13-.13H187a.13.13,0,0,1,.13.13A.13.13,0,0,1,187,126.59Z" style="fill:#9dd0e9"/><path d="M184.93,127.58h-9.57a.13.13,0,1,1,0-.26h9.57a.13.13,0,1,1,0,.26Z" style="fill:#9dd0e9"/><path d="M184.13,128.57h-9.56a.13.13,0,0,1,0-.26h9.56a.13.13,0,0,1,0,.26Z" style="fill:#9dd0e9"/><path d="M183.34,130.27h-9.56a.13.13,0,0,1,0-.26h9.56a.13.13,0,1,1,0,.26Z" style="fill:#9dd0e9"/><path d="M184.93,129.44h-9.57a.13.13,0,1,1,0-.26h9.57a.13.13,0,0,1,0,.26Z" style="fill:#9dd0e9"/><path d="M183.7,131.62h-9.57a.13.13,0,0,1-.13-.13.13.13,0,0,1,.13-.13h9.57a.13.13,0,0,1,.13.13A.13.13,0,0,1,183.7,131.62Z" style="fill:#9dd0e9"/><path d="M184.13,132.62h-9.56a.13.13,0,0,1-.13-.13.13.13,0,0,1,.13-.13h9.56a.12.12,0,0,1,.13.13A.13.13,0,0,1,184.13,132.62Z" style="fill:#9dd0e9"/><path d="M182.09,133.61h-9.56a.13.13,0,0,1,0-.26h9.56a.13.13,0,1,1,0,.26Z" style="fill:#9dd0e9"/><path d="M181.3,134.6h-9.56a.12.12,0,0,1-.13-.13.13.13,0,0,1,.13-.13h9.56a.13.13,0,0,1,.13.13A.13.13,0,0,1,181.3,134.6Z" style="fill:#9dd0e9"/><path d="M180.51,136.3h-9.57a.13.13,0,0,1,0-.26h9.57a.13.13,0,1,1,0,.26Z" style="fill:#9dd0e9"/><path d="M182.09,135.47h-9.56a.13.13,0,0,1,0-.26h9.56a.13.13,0,0,1,0,.26Z" style="fill:#9dd0e9"/><rect x="137.28" y="146.86" width="1.36" height="86.39" style="fill:#eff2f6"/><path d="M244.38,146.88H137.28v-1.6a1.54,1.54,0,0,1,1.53-1.53h104a1.54,1.54,0,0,1,1.53,1.53Z" style="fill:#7c96b2"/><rect x="137.28" y="146.88" width="107.09" height="8.59" style="fill:#eff2f6"/><rect x="243.02" y="146.88" width="1.36" height="85.74" style="fill:#eff2f6"/><polygon points="235.72 140.99 235.72 140.55 235.72 140.34 235.72 140.11 201.89 140.11 201.89 140.34 201.89 140.55 201.89 140.99 201.89 141.43 203.43 141.43 203.43 141.94 201.89 141.94 201.89 142.16 201.89 142.26 201.89 142.37 201.89 142.48 201.89 142.69 201.89 142.86 201.89 142.91 201.89 143.08 201.89 143.29 201.89 143.5 201.89 143.72 235.72 143.72 235.72 143.5 235.72 143.29 235.72 143.08 235.72 142.91 235.72 142.86 235.72 142.69 235.72 142.48 235.72 142.37 235.72 142.26 235.72 142.16 235.72 142.05 237.25 142.05 237.25 141.17 235.72 141.17 235.72 140.99" style="fill:#e5eaf0"/><polygon points="201.83 139.65 201.83 139.86 201.83 140.08 235.66 140.08 235.66 139.86 235.66 139.65 235.66 139.43 235.66 139.22 235.18 139.22 235.18 139 235.66 139 235.66 138.79 235.66 138.62 235.66 138.58 235.66 138.41 236.94 138.41 236.94 138.19 235.66 138.19 235.66 138.08 235.66 137.98 235.66 137.87 235.66 137.66 234.45 137.66 234.45 137.14 235.66 137.14 235.66 136.71 236.59 136.71 236.59 135.83 202.76 135.83 202.76 136.05 201.83 136.05 201.83 136.27 201.83 136.88 200.62 136.88 200.62 137.76 201.83 137.76 201.83 137.87 201.83 137.98 201.83 138.08 201.83 138.19 203.12 138.19 203.12 138.41 201.83 138.41 201.83 138.58 201.83 138.62 201.83 138.79 201.83 139 201.35 139 201.35 139.22 201.83 139.22 201.83 139.43 201.83 139.65" style="fill:#e5eaf0"/><polygon points="236.51 129.55 236.61 129.55 236.61 129.34 236.71 129.34 236.71 129.12 202.88 129.12 202.88 129.34 202.78 129.34 202.78 129.55 202.69 129.55 202.69 129.77 236.51 129.77 236.51 129.55" style="fill:#e5eaf0"/><polygon points="236.08 127.32 236.08 126.55 235.88 126.55 235.88 125.93 235.46 125.93 235.46 125.49 233.07 125.49 233.07 125.39 233.07 125.17 233.07 124.96 233.07 124.74 232.59 124.74 232.59 124.53 233.07 124.53 233.07 124.31 233.07 124.14 233.07 124.1 233.07 123.93 234.35 123.93 234.35 123.72 233.07 123.72 233.07 123.61 233.07 123.5 233.07 123.39 233.07 123.18 231.86 123.18 231.86 122.67 233.07 122.67 233.07 122.23 234 122.23 234 121.35 200.18 121.35 200.18 121.58 199.24 121.58 199.24 121.79 199.24 122.41 198.03 122.41 198.03 123.29 199.24 123.29 199.24 123.39 199.24 123.5 199.24 123.61 199.24 123.72 200.53 123.72 200.53 123.93 199.24 123.93 199.24 124.1 199.24 124.14 199.24 124.31 199.24 124.53 198.77 124.53 198.77 124.74 199.24 124.74 199.24 124.96 199.24 125.17 199.24 125.39 199.24 125.6 201.64 125.6 201.64 126.37 202.05 126.37 202.05 126.81 202.25 126.81 202.25 127.43 203.83 127.43 203.83 127.54 203.61 127.54 203.61 127.64 203.3 127.64 203.3 127.86 202.75 127.86 202.75 128.07 202.75 128.24 202.21 128.24 202.21 128.46 202.21 128.67 202.48 128.67 202.48 128.89 202.55 128.89 202.55 129.1 236.37 129.1 236.37 128.89 236.31 128.89 236.31 128.67 236.03 128.67 236.03 128.46 236.03 128.29 236.58 128.29 236.58 128.07 236.58 127.86 237.13 127.86 237.13 127.75 237.44 127.75 237.44 127.54 237.66 127.54 237.66 127.32 236.08 127.32" style="fill:#e5eaf0"/><polygon points="202.47 132.71 202.47 132.93 202.37 132.93 202.37 133.14 202.27 133.14 202.27 133.35 201.87 133.35 201.87 133.57 201.78 133.57 201.78 133.78 201.67 133.78 201.67 134 201.57 134 201.57 134.21 201.51 134.21 201.51 134.43 201.23 134.43 201.23 134.64 201.23 134.86 201.78 134.86 201.78 135.03 201.78 135.24 202.32 135.24 202.32 135.46 202.63 135.46 202.63 135.56 202.85 135.56 202.85 135.78 236.68 135.78 236.68 135.56 236.46 135.56 236.46 135.35 236.15 135.35 236.15 135.24 235.6 135.24 235.6 135.03 235.6 134.81 235.05 134.81 235.05 134.64 235.05 134.43 235.33 134.43 235.33 134.21 235.39 134.21 235.39 134 235.5 134 235.5 133.78 235.6 133.78 235.6 133.57 235.69 133.57 235.69 133.35 236.09 133.35 236.09 133.14 236.19 133.14 236.19 132.93 236.3 132.93 236.3 132.71 236.39 132.71 236.39 132.5 235.69 132.5 235.69 132.28 235.79 132.28 235.79 132.07 235.9 132.07 235.9 131.85 235.99 131.85 235.99 131.64 236.09 131.64 236.09 131.42 236.19 131.42 236.19 131.21 236.3 131.21 236.3 131 236.39 131 236.39 130.78 236.38 130.78 236.38 130.57 236.49 130.57 236.49 130.35 236.59 130.35 236.59 130.14 236.68 130.14 236.68 129.92 202.85 129.92 202.85 130.14 202.76 130.14 202.76 130.35 202.66 130.35 202.66 130.57 202.56 130.57 202.56 130.78 202.56 130.78 202.56 131 202.47 131 202.47 131.21 202.37 131.21 202.37 131.42 202.27 131.42 202.27 131.64 202.16 131.64 202.16 131.85 202.07 131.85 202.07 132.07 201.97 132.07 201.97 132.28 201.86 132.28 201.86 132.5 202.56 132.5 202.56 132.71 202.47 132.71" style="fill:#e5eaf0"/><g style="opacity:0.30000000000000004"><polygon points="236.04 127.03 225.02 127.01 212.11 127.01 202.11 127.03 202.11 127.03 212.11 126.9 225.03 126.9 236.04 127.02 236.04 127.03" style="fill:#325b87"/><polygon points="236.25 132.17 225.22 132.15 212.31 132.15 202.32 132.17 202.32 132.17 212.31 132.04 225.23 132.04 236.25 132.16 236.25 132.17" style="fill:#325b87"/><polygon points="236.25 132.52 229.07 132.5 220.67 132.5 214.17 132.52 214.17 132.52 220.67 132.4 229.08 132.4 236.25 132.52 236.25 132.52" style="fill:#325b87"/><polygon points="236.35 141.49 225.33 141.47 212.42 141.47 202.42 141.49 202.42 141.49 212.42 141.37 225.34 141.37 236.35 141.49 236.35 141.49" style="fill:#325b87"/><polygon points="236.35 141.85 229.18 141.83 220.78 141.83 214.27 141.85 214.27 141.85 220.78 141.72 229.18 141.72 236.35 141.85 236.35 141.85" style="fill:#325b87"/><polygon points="235.23 134.31 224.21 134.29 211.3 134.29 201.31 134.31 201.31 134.31 211.3 134.19 224.22 134.19 235.23 134.31 235.23 134.31" style="fill:#325b87"/><polygon points="235.23 134.67 228.06 134.65 219.66 134.65 213.16 134.67 213.16 134.67 219.66 134.54 228.06 134.54 235.23 134.66 235.23 134.67" style="fill:#325b87"/><polygon points="202.83 128.45 213.85 128.43 226.76 128.43 236.76 128.45 236.76 128.45 226.76 128.32 213.85 128.32 202.83 128.45 202.83 128.45" style="fill:#325b87"/><polygon points="202.83 128.81 210 128.79 218.41 128.79 224.91 128.81 224.91 128.81 218.41 128.68 210 128.68 202.83 128.8 202.83 128.81" style="fill:#325b87"/><polygon points="202.32 139.1 213.34 139.09 226.25 139.09 236.25 139.1 236.25 139.1 226.25 138.98 213.33 138.98 202.32 139.1 202.32 139.1" style="fill:#325b87"/><polygon points="202.32 139.46 209.49 139.44 217.89 139.44 224.4 139.46 224.4 139.46 217.89 139.34 209.49 139.34 202.32 139.46 202.32 139.46" style="fill:#325b87"/><polygon points="202.02 136.59 213.04 136.57 225.95 136.57 235.95 136.59 235.95 136.59 225.95 136.46 213.03 136.46 202.02 136.59 202.02 136.59" style="fill:#325b87"/><polygon points="202.02 136.94 209.19 136.93 217.59 136.93 224.09 136.94 224.09 136.95 217.59 136.82 209.19 136.82 202.02 136.94 202.02 136.94" style="fill:#325b87"/><polygon points="199.41 124.52 210.43 124.5 223.34 124.5 233.34 124.52 233.34 124.52 223.34 124.4 210.42 124.4 199.41 124.52 199.41 124.52" style="fill:#325b87"/><polygon points="199.41 124.88 206.58 124.86 214.98 124.86 221.49 124.88 221.49 124.88 214.98 124.75 206.58 124.75 199.41 124.87 199.41 124.88" style="fill:#325b87"/></g><g style="opacity:0.2"><polygon points="198.86 122.78 209.88 122.77 222.79 122.77 232.79 122.78 232.79 122.79 222.79 122.66 209.88 122.66 198.86 122.78 198.86 122.78" style="fill:#325b87"/><polygon points="198.86 123.14 206.03 123.12 214.43 123.12 220.94 123.14 220.94 123.14 214.43 123.02 206.03 123.02 198.86 123.14 198.86 123.14" style="fill:#325b87"/></g><g style="opacity:0.2"><polygon points="235.77 140.98 235.77 140.54 235.77 140.32 235.77 140.1 229.39 140.12 229.39 140.34 229.39 140.55 229.39 140.99 229.39 141.17 230.93 141.17 230.93 142.05 229.4 142.05 229.4 142.16 229.4 142.26 229.4 142.37 229.4 142.48 229.4 142.69 229.4 142.87 229.4 142.91 229.4 143.08 229.4 143.29 229.4 143.51 229.4 143.72 235.78 143.71 235.78 143.49 235.78 143.28 235.78 143.06 235.78 142.89 235.78 142.85 235.78 142.68 235.78 142.46 235.78 142.36 235.78 142.25 235.77 142.14 235.77 142.03 237.31 142.03 237.31 141.15 235.77 141.16 235.77 140.98" style="fill:#7c96b2"/><polygon points="229.32 136.71 229.32 137.15 228.11 137.15 228.12 137.66 229.32 137.66 229.32 137.87 229.32 137.98 229.32 138.09 229.32 138.19 230.61 138.19 230.61 138.41 229.32 138.41 229.32 138.58 229.32 138.62 229.33 138.79 229.33 139.01 228.85 139.01 228.85 139.22 229.33 139.22 229.33 139.44 229.33 139.65 229.33 139.87 229.33 140.08 235.71 140.06 235.71 139.85 235.71 139.64 235.71 139.42 235.71 139.21 235.23 139.21 235.23 138.99 235.71 138.99 235.7 138.78 235.7 138.61 235.7 138.56 235.7 138.39 236.99 138.39 236.99 138.18 235.7 138.18 235.7 138.07 235.7 137.96 235.7 137.86 235.7 137.64 234.49 137.65 234.49 137.13 235.7 137.13 235.7 136.69 236.63 136.69 236.63 135.81 230.25 135.83 230.26 136.71 229.32 136.71" style="fill:#7c96b2"/><polygon points="230.25 129.34 230.25 129.55 230.16 129.55 230.16 129.77 236.54 129.75 236.54 129.54 236.63 129.54 236.63 129.32 236.74 129.32 236.74 129.11 230.36 129.12 230.36 129.34 230.25 129.34" style="fill:#7c96b2"/><polygon points="236.1 127.31 236.1 126.54 235.89 126.54 235.89 125.92 235.48 125.92 235.48 125.48 233.08 125.49 233.08 125.38 233.08 125.17 233.08 124.95 233.08 124.74 232.61 124.74 232.61 124.52 233.08 124.52 233.08 124.31 233.08 124.14 233.08 124.09 233.08 123.92 234.37 123.92 234.37 123.71 233.08 123.71 233.08 123.6 233.08 123.5 233.08 123.39 233.08 123.17 231.87 123.18 231.87 122.67 233.08 122.66 233.08 122.22 234.01 122.22 234.01 121.34 227.63 121.36 227.63 122.24 226.7 122.24 226.7 122.68 225.49 122.68 225.49 123.19 226.7 123.19 226.7 123.4 226.7 123.51 226.7 123.62 226.7 123.72 227.99 123.72 227.99 123.94 226.7 123.94 226.7 124.11 226.7 124.15 226.7 124.32 226.7 124.54 226.23 124.54 226.23 124.75 226.7 124.75 226.7 124.97 226.7 125.18 226.71 125.4 226.71 125.5 229.1 125.5 229.1 125.94 229.51 125.94 229.52 126.55 229.72 126.55 229.72 127.33 231.3 127.32 231.3 127.54 231.08 127.54 231.08 127.75 230.77 127.75 230.77 127.86 230.22 127.86 230.22 128.07 230.22 128.29 229.68 128.29 229.68 128.46 229.68 128.68 229.96 128.67 229.96 128.89 230.02 128.89 230.02 129.1 236.4 129.09 236.4 128.87 236.34 128.87 236.34 128.66 236.06 128.66 236.06 128.44 236.06 128.27 236.6 128.27 236.6 128.06 236.6 127.84 237.15 127.84 237.15 127.73 237.46 127.73 237.46 127.52 237.68 127.52 237.68 127.31 236.1 127.31" style="fill:#7c96b2"/><polygon points="230.24 130.14 230.24 130.35 230.13 130.35 230.14 130.57 230.03 130.57 230.03 130.78 230.04 130.78 230.04 131 229.95 131 229.95 131.21 229.85 131.21 229.85 131.43 229.75 131.43 229.75 131.64 229.64 131.64 229.64 131.86 229.55 131.86 229.55 132.07 229.45 132.07 229.45 132.28 229.34 132.28 229.34 132.5 230.05 132.5 230.05 132.71 229.96 132.71 229.96 132.93 229.85 132.93 229.85 133.14 229.75 133.14 229.75 133.36 229.35 133.36 229.35 133.57 229.26 133.57 229.26 133.79 229.16 133.79 229.16 134 229.05 134 229.05 134.22 228.99 134.22 228.99 134.43 228.71 134.43 228.71 134.65 228.72 134.82 229.26 134.82 229.26 135.03 229.26 135.24 229.81 135.24 229.81 135.35 230.12 135.35 230.13 135.56 230.34 135.56 230.34 135.78 236.72 135.76 236.72 135.55 236.5 135.55 236.5 135.33 236.19 135.34 236.19 135.23 235.64 135.23 235.64 135.01 235.64 134.8 235.09 134.8 235.09 134.63 235.09 134.42 235.37 134.42 235.37 134.2 235.43 134.2 235.43 133.99 235.54 133.99 235.53 133.77 235.64 133.77 235.64 133.56 235.73 133.56 235.73 133.34 236.13 133.34 236.13 133.13 236.23 133.13 236.23 132.91 236.33 132.91 236.33 132.7 236.43 132.7 236.43 132.48 235.72 132.48 235.72 132.27 235.83 132.27 235.83 132.06 235.93 132.06 235.93 131.84 236.02 131.84 236.02 131.63 236.12 131.63 236.12 131.41 236.23 131.41 236.23 131.2 236.33 131.2 236.33 130.98 236.42 130.98 236.42 130.77 236.41 130.77 236.41 130.55 236.51 130.55 236.51 130.34 236.62 130.34 236.62 130.12 236.71 130.12 236.71 129.91 230.33 129.92 230.33 130.14 230.24 130.14" style="fill:#7c96b2"/></g><path d="M206.45,136.9a15.48,15.48,0,0,0-1.61-3.52h13.3C214.54,133.88,207.75,135.22,206.45,136.9Z" style="fill:#414042;opacity:0.30000000000000004"/><path d="M204.87,136.31a11.81,11.81,0,0,0-1.62-2.93h15C214.66,133.8,206.18,134.91,204.87,136.31Z" style="fill:#fff"/><path d="M219.49,126.72a7.08,7.08,0,0,1,1.37-1.83h-11.3C212.62,125.15,218.39,125.85,219.49,126.72Z" style="fill:#414042;opacity:0.30000000000000004"/><path d="M220.84,126.42a6.07,6.07,0,0,1,1.37-1.53H209.44C212.51,125.11,219.73,125.68,220.84,126.42Z" style="fill:#fff"/><polygon points="224.39 141.22 222.88 141.22 222.88 141.04 222.88 140.61 222.88 140.4 222.88 140.18 189.69 140.18 189.69 140.4 189.69 140.61 189.69 141.04 189.69 141.47 191.2 141.47 191.2 141.97 189.69 141.97 189.69 142.18 189.69 142.29 189.69 142.39 189.69 142.5 189.69 142.71 189.69 142.88 189.69 142.92 189.69 143.09 189.69 143.3 189.69 143.51 189.69 143.72 222.88 143.72 222.88 143.51 222.88 143.3 222.88 143.09 222.88 142.92 222.88 142.88 222.88 142.71 222.88 142.5 222.88 142.39 222.88 142.29 222.88 142.18 222.88 142.08 224.39 142.08 224.39 141.22" style="fill:#e5eaf0"/><polygon points="189.63 139.72 189.63 139.93 189.63 140.15 222.82 140.15 222.82 139.93 222.82 139.72 222.82 139.51 222.82 139.3 222.36 139.3 222.36 139.09 222.82 139.09 222.82 138.88 222.82 138.71 222.82 138.67 222.82 138.5 224.09 138.5 224.09 138.29 222.82 138.29 222.82 138.19 222.82 138.08 222.82 137.98 222.82 137.77 221.64 137.77 221.64 137.27 222.82 137.27 222.82 136.84 223.74 136.84 223.74 135.97 190.54 135.97 190.54 136.19 189.63 136.19 189.63 136.4 189.63 137.01 188.44 137.01 188.44 137.87 189.63 137.87 189.63 137.98 189.63 138.08 189.63 138.19 189.63 138.29 190.89 138.29 190.89 138.5 189.63 138.5 189.63 138.67 189.63 138.71 189.63 138.88 189.63 139.09 189.16 139.09 189.16 139.3 189.63 139.3 189.63 139.51 189.63 139.72" style="fill:#e5eaf0"/><g style="opacity:0.30000000000000004"><polygon points="223.51 141.53 212.69 141.52 200.02 141.52 190.21 141.53 190.21 141.53 200.02 141.41 212.7 141.41 223.51 141.53 223.51 141.53" style="fill:#325b87"/><polygon points="223.51 141.88 216.47 141.87 208.22 141.87 201.84 141.88 201.84 141.88 208.22 141.76 216.47 141.76 223.51 141.88 223.51 141.88" style="fill:#325b87"/></g><g style="opacity:0.30000000000000004"><polygon points="190.11 139.19 200.93 139.17 213.59 139.17 223.41 139.19 223.41 139.19 213.59 139.07 200.92 139.07 190.11 139.19 190.11 139.19" style="fill:#325b87"/><polygon points="190.11 139.54 197.15 139.52 205.39 139.52 211.77 139.54 211.77 139.54 205.39 139.42 197.14 139.42 190.11 139.54 190.11 139.54" style="fill:#325b87"/></g><g style="opacity:0.30000000000000004"><polygon points="189.81 136.72 200.63 136.7 213.3 136.7 223.11 136.72 223.11 136.72 213.3 136.6 200.62 136.6 189.81 136.72 189.81 136.72" style="fill:#325b87"/><polygon points="189.81 137.07 196.85 137.05 205.1 137.05 211.48 137.07 211.48 137.07 205.1 136.95 196.85 136.95 189.81 137.07 189.81 137.07" style="fill:#325b87"/></g><g style="opacity:0.2"><polygon points="222.88 141.04 222.88 140.61 222.88 140.4 222.88 140.18 212.86 140.18 212.86 140.4 212.86 140.61 212.86 141.04 212.86 141.22 214.37 141.22 214.37 142.08 212.86 142.08 212.86 142.18 212.86 142.29 212.86 142.39 212.86 142.5 212.86 142.71 212.86 142.88 212.86 142.92 212.86 143.09 212.86 143.3 212.86 143.51 212.86 143.72 222.88 143.72 222.88 143.51 222.88 143.3 222.88 143.09 222.88 142.92 222.88 142.88 222.88 142.71 222.88 142.5 222.88 142.39 222.88 142.29 222.88 142.18 222.88 142.08 224.39 142.08 224.39 141.22 222.88 141.22 222.88 141.04" style="fill:#7c96b2"/><polygon points="212.8 136.84 212.8 137.27 211.61 137.27 211.61 137.77 212.8 137.77 212.8 137.98 212.8 138.08 212.8 138.19 212.8 138.29 214.06 138.29 214.06 138.5 212.8 138.5 212.8 138.67 212.8 138.71 212.8 138.88 212.8 139.09 212.33 139.09 212.33 139.3 212.8 139.3 212.8 139.51 212.8 139.72 212.8 139.93 212.8 140.15 222.82 140.15 222.82 139.93 222.82 139.72 222.82 139.51 222.82 139.3 222.36 139.3 222.36 139.09 222.82 139.09 222.82 138.88 222.82 138.71 222.82 138.67 222.82 138.5 224.09 138.5 224.09 138.29 222.82 138.29 222.82 138.19 222.82 138.08 222.82 137.98 222.82 137.77 221.64 137.77 221.64 137.27 222.82 137.27 222.82 136.84 223.74 136.84 223.74 135.97 213.72 135.97 213.72 136.84 212.8 136.84" style="fill:#7c96b2"/></g><path d="M195.18,140.26a5.75,5.75,0,0,0-1.46-1h12C202.5,139.44,196.35,139.8,195.18,140.26Z" style="fill:#325b87;opacity:0.30000000000000004"/><path d="M193.75,140.1a5.8,5.8,0,0,0-1.47-.8h13.61C202.61,139.42,194.93,139.72,193.75,140.1Z" style="fill:#fff"/><path d="M215.54,197.05l15.07,6.25a66.11,66.11,0,0,0,26-24.07s-9.53,10.2-17.77,7Z" style="fill:#f1f8fd;stroke:#606060;stroke-miterlimit:10;stroke-width:0.150000005960464px"/><path d="M208.41,144.29l19.88,1s-9.13,8.53-1,22.49l-11.77,5.82S203.42,158.07,208.41,144.29Z" style="fill:#f1f8fd;stroke:#606060;stroke-miterlimit:10;stroke-width:0.150000005960464px"/><path d="M164.73,239.6,161.12,220s10.4,6.93,22.11-4.2L191.6,226S179.29,241.3,164.73,239.6Z" style="fill:#f1f8fd;stroke:#606060;stroke-miterlimit:10;stroke-width:0.150000005960464px"/><path d="M107.62,101.93l7,5.17s-.71,1-.88,1a.36.36,0,0,1-.22-.13,8.41,8.41,0,0,0-4.56-2,3.4,3.4,0,0,1-2.17-.85l-1-.72Z" style="fill:#fff"/><g id="Group_11501" data-name="Group 11501"><g id="Group_11464" data-name="Group 11464"><g id="Group_11454" data-name="Group 11454"><g id="Group_11453" data-name="Group 11453"><path id="Path_20890" data-name="Path 20890" d="M273.9,199.23c0-6.57-5-11.88-11.25-11.87s-11.22,5.36-11.2,11.93,5.05,11.87,11.25,11.86S273.92,205.79,273.9,199.23Z" style="fill:#d69136"/></g></g><g id="Group_11456" data-name="Group 11456"><g id="Group_11455" data-name="Group 11455"><ellipse id="Ellipse_483" data-name="Ellipse 483" cx="262.68" cy="199.25" rx="10.6" ry="11.23" transform="translate(-0.4 0.53) rotate(-0.11)" style="fill:#ffb600"/></g></g><g id="Group_11458" data-name="Group 11458"><g id="Group_11457" data-name="Group 11457"><path id="Path_20891" data-name="Path 20891" d="M271.09,201.67l-.32-.09a9.82,9.82,0,0,0,.29-2.35,8.65,8.65,0,0,0-8.4-8.85,8,8,0,0,0-4.36,1.3l-.17-.3a8.26,8.26,0,0,1,4.52-1.35,9,9,0,0,1,8.74,9.2A10.06,10.06,0,0,1,271.09,201.67Z" style="fill:#fff"/></g></g><g id="Group_11460" data-name="Group 11460"><g id="Group_11459" data-name="Group 11459"><path id="Path_20892" data-name="Path 20892" d="M262.7,208.48a9,9,0,0,1-8.74-9.2,9.53,9.53,0,0,1,1.62-5.38l.27.2a9.08,9.08,0,0,0-1.55,5.18,8.63,8.63,0,0,0,8.4,8.85,8.27,8.27,0,0,0,7.09-4.18l.28.19A8.57,8.57,0,0,1,262.7,208.48Z" style="fill:#fff"/></g></g><g id="Group_11463" data-name="Group 11463"><g id="Group_11462" data-name="Group 11462"><g id="Group_11461" data-name="Group 11461"><path id="Path_20893" data-name="Path 20893" d="M263.44,205.71h-1.27v-1.46a5.19,5.19,0,0,1-2.37-.64l-.08-.05v-2.37l.27.23a3.32,3.32,0,0,0,1.07.56,4.78,4.78,0,0,0,1.11.29v-2.18a5,5,0,0,1-2-1.3,2.9,2.9,0,0,1-.6-1.81,2.82,2.82,0,0,1,.76-2,3.08,3.08,0,0,1,1.86-.91v-1.31h1.27v1.26a4.61,4.61,0,0,1,2,.48l.09.05v2.27l-.25-.17a4.56,4.56,0,0,0-1.79-.66v2.28a5.26,5.26,0,0,1,2,1.24,2.65,2.65,0,0,1,.66,1.8,2.7,2.7,0,0,1-.73,2,3.35,3.35,0,0,1-1.91.88Zm-.94-.35h.61v-1.47l.15,0a3.08,3.08,0,0,0,1.86-.8,2.51,2.51,0,0,0,.06-3.28,5,5,0,0,0-2-1.18l-.11,0v-2.92l.18,0a4.82,4.82,0,0,1,1.86.58V194.8a4.66,4.66,0,0,0-1.88-.39h-.16v-1.24h-.61v1.26l-.15,0a2.85,2.85,0,0,0-1.8.83,2.43,2.43,0,0,0-.67,1.72,2.5,2.5,0,0,0,.52,1.58,4.86,4.86,0,0,0,2,1.24l.11,0v2.81h-.18a5.36,5.36,0,0,1-1.37-.32,4.66,4.66,0,0,1-.9-.43v1.46a4.9,4.9,0,0,0,2.28.56h.17Zm.6-2.72v-2.55l.23.11c.68.31,1,.73,1,1.25a1.1,1.1,0,0,1-1,1.16h0Zm.33-2v1.59a.72.72,0,0,0,.59-.77.94.94,0,0,0-.59-.82Zm-.95-2.31-.24-.13a1.53,1.53,0,0,1-1-1.33,1.11,1.11,0,0,1,1-1.17l.2,0Zm-.34-2.24a.73.73,0,0,0-.56.78,1.06,1.06,0,0,0,.57.88Z" style="fill:#fff"/></g></g></g><path id="Path_20894" data-name="Path 20894" d="M269.08,198.17c-.71.18-.84.32-1,1.07-.16-.75-.3-.89-1-1.06.71-.18.84-.33,1-1.08C268.24,197.85,268.37,198,269.08,198.17Z" style="fill:#fff"/></g><g id="Group_11476" data-name="Group 11476"><rect id="Rectangle_5282" data-name="Rectangle 5282" x="251.54" y="225.59" width="22.2" height="5.95" style="fill:#d69136"/><rect id="Rectangle_5283" data-name="Rectangle 5283" x="251.54" y="226.21" width="22.2" height="5.32" style="fill:#ffb600"/><g id="Group_11475" data-name="Group 11475"><g id="Group_11465" data-name="Group 11465"><rect id="Rectangle_5284" data-name="Rectangle 5284" x="271.48" y="227.07" width="0.69" height="3.6" style="fill:#d69136"/></g><g id="Group_11466" data-name="Group 11466"><rect id="Rectangle_5285" data-name="Rectangle 5285" x="269.41" y="227.07" width="0.69" height="3.6" style="fill:#d69136"/></g><g id="Group_11467" data-name="Group 11467"><rect id="Rectangle_5286" data-name="Rectangle 5286" x="267.34" y="227.07" width="0.69" height="3.6" style="fill:#d69136"/></g><g id="Group_11468" data-name="Group 11468"><rect id="Rectangle_5287" data-name="Rectangle 5287" x="265.28" y="227.07" width="0.69" height="3.6" style="fill:#d69136"/></g><g id="Group_11469" data-name="Group 11469"><rect id="Rectangle_5288" data-name="Rectangle 5288" x="263.21" y="227.07" width="0.69" height="3.6" style="fill:#d69136"/></g><g id="Group_11470" data-name="Group 11470"><rect id="Rectangle_5289" data-name="Rectangle 5289" x="261.15" y="227.07" width="0.69" height="3.6" style="fill:#d69136"/></g><g id="Group_11471" data-name="Group 11471"><rect id="Rectangle_5290" data-name="Rectangle 5290" x="259.08" y="227.07" width="0.69" height="3.6" style="fill:#d69136"/></g><g id="Group_11472" data-name="Group 11472"><rect id="Rectangle_5291" data-name="Rectangle 5291" x="257.02" y="227.07" width="0.69" height="3.6" style="fill:#d69136"/></g><g id="Group_11473" data-name="Group 11473"><rect id="Rectangle_5292" data-name="Rectangle 5292" x="254.95" y="227.07" width="0.69" height="3.6" style="fill:#d69136"/></g><g id="Group_11474" data-name="Group 11474"><rect id="Rectangle_5293" data-name="Rectangle 5293" x="252.89" y="227.07" width="0.69" height="3.6" style="fill:#d69136"/></g></g></g><g id="Group_11488" data-name="Group 11488"><rect id="Rectangle_5294" data-name="Rectangle 5294" x="252.46" y="219.64" width="22.2" height="5.95" style="fill:#d69136"/><rect id="Rectangle_5295" data-name="Rectangle 5295" x="252.46" y="220.26" width="22.2" height="5.32" style="fill:#ffb600"/><g id="Group_11487" data-name="Group 11487"><g id="Group_11477" data-name="Group 11477"><rect id="Rectangle_5296" data-name="Rectangle 5296" x="272.4" y="221.13" width="0.69" height="3.6" style="fill:#d69136"/></g><g id="Group_11478" data-name="Group 11478"><rect id="Rectangle_5297" data-name="Rectangle 5297" x="270.33" y="221.13" width="0.69" height="3.6" style="fill:#d69136"/></g><g id="Group_11479" data-name="Group 11479"><rect id="Rectangle_5298" data-name="Rectangle 5298" x="268.27" y="221.13" width="0.69" height="3.6" style="fill:#d69136"/></g><g id="Group_11480" data-name="Group 11480"><rect id="Rectangle_5299" data-name="Rectangle 5299" x="266.2" y="221.13" width="0.69" height="3.6" style="fill:#d69136"/></g><g id="Group_11481" data-name="Group 11481"><rect id="Rectangle_5300" data-name="Rectangle 5300" x="264.14" y="221.13" width="0.69" height="3.6" style="fill:#d69136"/></g><g id="Group_11482" data-name="Group 11482"><rect id="Rectangle_5301" data-name="Rectangle 5301" x="262.07" y="221.13" width="0.69" height="3.6" style="fill:#d69136"/></g><g id="Group_11483" data-name="Group 11483"><rect id="Rectangle_5302" data-name="Rectangle 5302" x="260.01" y="221.13" width="0.69" height="3.6" style="fill:#d69136"/></g><g id="Group_11484" data-name="Group 11484"><rect id="Rectangle_5303" data-name="Rectangle 5303" x="257.94" y="221.13" width="0.69" height="3.6" style="fill:#d69136"/></g><g id="Group_11485" data-name="Group 11485"><rect id="Rectangle_5304" data-name="Rectangle 5304" x="255.87" y="221.13" width="0.69" height="3.6" style="fill:#d69136"/></g><g id="Group_11486" data-name="Group 11486"><rect id="Rectangle_5305" data-name="Rectangle 5305" x="253.81" y="221.13" width="0.69" height="3.6" style="fill:#d69136"/></g></g></g><g id="Group_11500" data-name="Group 11500"><rect id="Rectangle_5306" data-name="Rectangle 5306" x="250.05" y="213.81" width="22.2" height="5.95" style="fill:#d69136"/><rect id="Rectangle_5307" data-name="Rectangle 5307" x="250.05" y="214.44" width="22.2" height="5.32" style="fill:#ffb600"/><g id="Group_11499" data-name="Group 11499"><g id="Group_11489" data-name="Group 11489"><rect id="Rectangle_5308" data-name="Rectangle 5308" x="269.99" y="215.3" width="0.69" height="3.6" style="fill:#d69136"/></g><g id="Group_11490" data-name="Group 11490"><rect id="Rectangle_5309" data-name="Rectangle 5309" x="267.92" y="215.3" width="0.69" height="3.6" style="fill:#d69136"/></g><g id="Group_11491" data-name="Group 11491"><rect id="Rectangle_5310" data-name="Rectangle 5310" x="265.86" y="215.3" width="0.69" height="3.6" style="fill:#d69136"/></g><g id="Group_11492" data-name="Group 11492"><rect id="Rectangle_5311" data-name="Rectangle 5311" x="263.79" y="215.3" width="0.69" height="3.6" style="fill:#d69136"/></g><g id="Group_11493" data-name="Group 11493"><rect id="Rectangle_5312" data-name="Rectangle 5312" x="261.72" y="215.3" width="0.69" height="3.6" style="fill:#d69136"/></g><g id="Group_11494" data-name="Group 11494"><rect id="Rectangle_5313" data-name="Rectangle 5313" x="259.66" y="215.3" width="0.69" height="3.6" style="fill:#d69136"/></g><g id="Group_11495" data-name="Group 11495"><rect id="Rectangle_5314" data-name="Rectangle 5314" x="257.59" y="215.3" width="0.69" height="3.6" style="fill:#d69136"/></g><g id="Group_11496" data-name="Group 11496"><rect id="Rectangle_5315" data-name="Rectangle 5315" x="255.53" y="215.3" width="0.69" height="3.6" style="fill:#d69136"/></g><g id="Group_11497" data-name="Group 11497"><rect id="Rectangle_5316" data-name="Rectangle 5316" x="253.46" y="215.3" width="0.69" height="3.6" style="fill:#d69136"/></g><g id="Group_11498" data-name="Group 11498"><rect id="Rectangle_5317" data-name="Rectangle 5317" x="251.4" y="215.3" width="0.69" height="3.6" style="fill:#d69136"/></g></g></g></g><g id="Group_11527" data-name="Group 11527"><path id="Path_20895" data-name="Path 20895" d="M56.21,229.36c0,1-5.47,1.79-12.23,1.79s-12.23-.8-12.23-1.79,5.48-1.78,12.23-1.78S56.21,228.38,56.21,229.36Z" style="fill:#9faad4;opacity:0.219999998807907;isolation:isolate"/><g id="Group_11526" data-name="Group 11526"><g id="Group_11513" data-name="Group 11513"><rect id="Rectangle_5318" data-name="Rectangle 5318" x="33.25" y="223.8" width="21.23" height="5.69" style="fill:#d69136"/><rect id="Rectangle_5319" data-name="Rectangle 5319" x="33.25" y="224.4" width="21.23" height="5.09" style="fill:#ffb600"/><g id="Group_11512" data-name="Group 11512"><g id="Group_11502" data-name="Group 11502"><rect id="Rectangle_5320" data-name="Rectangle 5320" x="52.31" y="225.23" width="0.66" height="3.44" style="fill:#d69136"/></g><g id="Group_11503" data-name="Group 11503"><rect id="Rectangle_5321" data-name="Rectangle 5321" x="50.34" y="225.23" width="0.66" height="3.44" style="fill:#d69136"/></g><g id="Group_11504" data-name="Group 11504"><rect id="Rectangle_5322" data-name="Rectangle 5322" x="48.36" y="225.23" width="0.66" height="3.44" style="fill:#d69136"/></g><g id="Group_11505" data-name="Group 11505"><rect id="Rectangle_5323" data-name="Rectangle 5323" x="46.39" y="225.23" width="0.66" height="3.44" style="fill:#d69136"/></g><g id="Group_11506" data-name="Group 11506"><rect id="Rectangle_5324" data-name="Rectangle 5324" x="44.41" y="225.23" width="0.66" height="3.44" style="fill:#d69136"/></g><g id="Group_11507" data-name="Group 11507"><rect id="Rectangle_5325" data-name="Rectangle 5325" x="42.44" y="225.23" width="0.66" height="3.44" style="fill:#d69136"/></g><g id="Group_11508" data-name="Group 11508"><rect id="Rectangle_5326" data-name="Rectangle 5326" x="40.46" y="225.23" width="0.66" height="3.44" style="fill:#d69136"/></g><g id="Group_11509" data-name="Group 11509"><rect id="Rectangle_5327" data-name="Rectangle 5327" x="38.49" y="225.23" width="0.66" height="3.44" style="fill:#d69136"/></g><g id="Group_11510" data-name="Group 11510"><rect id="Rectangle_5328" data-name="Rectangle 5328" x="36.51" y="225.23" width="0.66" height="3.44" style="fill:#d69136"/></g><g id="Group_11511" data-name="Group 11511"><rect id="Rectangle_5329" data-name="Rectangle 5329" x="34.54" y="225.23" width="0.66" height="3.44" style="fill:#d69136"/></g></g></g><g id="Group_11525" data-name="Group 11525"><rect id="Rectangle_5330" data-name="Rectangle 5330" x="34.13" y="218.12" width="21.23" height="5.69" style="fill:#d69136"/><rect id="Rectangle_5331" data-name="Rectangle 5331" x="34.13" y="218.71" width="21.23" height="5.09" style="fill:#ffb600"/><g id="Group_11524" data-name="Group 11524"><g id="Group_11514" data-name="Group 11514"><rect id="Rectangle_5332" data-name="Rectangle 5332" x="53.2" y="219.54" width="0.66" height="3.44" style="fill:#d69136"/></g><g id="Group_11515" data-name="Group 11515"><rect id="Rectangle_5333" data-name="Rectangle 5333" x="51.22" y="219.54" width="0.66" height="3.44" style="fill:#d69136"/></g><g id="Group_11516" data-name="Group 11516"><rect id="Rectangle_5334" data-name="Rectangle 5334" x="49.25" y="219.54" width="0.66" height="3.44" style="fill:#d69136"/></g><g id="Group_11517" data-name="Group 11517"><rect id="Rectangle_5335" data-name="Rectangle 5335" x="47.27" y="219.54" width="0.66" height="3.44" style="fill:#d69136"/></g><g id="Group_11518" data-name="Group 11518"><rect id="Rectangle_5336" data-name="Rectangle 5336" x="45.3" y="219.54" width="0.66" height="3.44" style="fill:#d69136"/></g><g id="Group_11519" data-name="Group 11519"><rect id="Rectangle_5337" data-name="Rectangle 5337" x="43.32" y="219.54" width="0.66" height="3.44" style="fill:#d69136"/></g><g id="Group_11520" data-name="Group 11520"><rect id="Rectangle_5338" data-name="Rectangle 5338" x="41.35" y="219.54" width="0.66" height="3.44" style="fill:#d69136"/></g><g id="Group_11521" data-name="Group 11521"><rect id="Rectangle_5339" data-name="Rectangle 5339" x="39.37" y="219.54" width="0.66" height="3.44" style="fill:#d69136"/></g><g id="Group_11522" data-name="Group 11522"><rect id="Rectangle_5340" data-name="Rectangle 5340" x="37.39" y="219.54" width="0.66" height="3.44" style="fill:#d69136"/></g><g id="Group_11523" data-name="Group 11523"><rect id="Rectangle_5341" data-name="Rectangle 5341" x="35.42" y="219.54" width="0.66" height="3.44" style="fill:#d69136"/></g></g></g></g></g><polyline points="113 102 112.96 104.13 119.19 106.51 119.49 105.74 114 104 113 102" style="fill:#fff;opacity:0.2"/></g><g id="Report"><path d="M64.6,187.1a8.29,8.29,0,0,1-5.1-1.66c-2.56-2-3.68-5.56-3.3-10.58.25-3.38,1.73-6.81,3.31-10.45,2.64-6.1,5.64-13,4.07-22.18l2.92-.4c1.69,9.85-1.6,17.44-4.24,23.54-1.56,3.59-2.9,6.69-3.12,9.67-.3,4.07.48,7,2.26,8.38a5.34,5.34,0,0,0,3.9,1l.59,2.59A7.3,7.3,0,0,1,64.6,187.1Z" style="fill:#484f59"/><path d="M85,187.1a8.32,8.32,0,0,1-5.11-1.66c-2.56-2-3.67-5.56-3.3-10.58.25-3.38,1.74-6.81,3.31-10.45,2.65-6.1,5.65-13,4.08-22.18l2.91-.4c1.69,9.85-1.6,17.44-4.24,23.54-1.55,3.59-2.89,6.69-3.11,9.67-.31,4.07.48,7,2.26,8.38a5.34,5.34,0,0,0,3.9,1l.59,2.59A7.43,7.43,0,0,1,85,187.1Z" style="fill:#484f59"/><path d="M87.2,219.1,90.07,223,66,230s-1.61-1.38,4.31-4.16C77.15,222.57,87.2,219.1,87.2,219.1Z" style="fill:#a8a1b1"/><path d="M91.48,219.1,88.61,223,112.73,230s1.61-1.38-4.31-4.16C101.53,222.57,91.48,219.1,91.48,219.1Z" style="fill:#a8a1b1"/><rect x="86.83" y="196.4" width="5.04" height="26.6" style="fill:#a8a1b1"/><path d="M86.88,219.92l2.46,3.76-20.65,6.61s-1.37-1.32,3.69-4C78.28,223.23,86.88,219.92,86.88,219.92Z" style="fill:#c6c7c9"/><path d="M91.81,219.92l-2.46,3.76L110,230.29s1.38-1.32-3.68-4C100.41,223.23,91.81,219.92,91.81,219.92Z" style="fill:#c6c7c9"/><path d="M71,231.78a1.76,1.76,0,1,1-1.75-1.57A1.66,1.66,0,0,1,71,231.78Z" style="fill:#161711"/><path d="M111,231.78a1.77,1.77,0,1,1-1.75-1.57A1.67,1.67,0,0,1,111,231.78Z" style="fill:#161711"/><path d="M66.79,231.78A1.76,1.76,0,1,1,65,230.21,1.66,1.66,0,0,1,66.79,231.78Z" style="fill:#484f59"/><path d="M115.26,231.78a1.76,1.76,0,1,1-1.75-1.57A1.66,1.66,0,0,1,115.26,231.78Z" style="fill:#484f59"/><rect x="87.43" y="190.5" width="3.69" height="5.79" style="fill:#484f59"/><path d="M93.89,187.44a3.42,3.42,0,0,1-3.6,3.23h-2a3.42,3.42,0,0,1-3.6-3.23h0a3.42,3.42,0,0,1,3.6-3.22h2a3.42,3.42,0,0,1,3.6,3.22Z" style="fill:#484f59"/><path d="M116.67,184.49c.09-.38.14-2.76.14-3.17a4.48,4.48,0,0,0-4.19-4.71H65.94a4.47,4.47,0,0,0-4.19,4.71c0,.41,0,2.79.14,3.17Z" style="fill:#ad5c49"/><path d="M61.32,185.77a1.32,1.32,0,0,0,1.16,1.44h53.6a1.32,1.32,0,0,0,1.16-1.44h0a1.32,1.32,0,0,0-1.16-1.44H62.48a1.32,1.32,0,0,0-1.16,1.44Z" style="fill:#484f59"/><path d="M63.93,160.29c1.15.08,8.47.19,9.73.21,8,.09,14.91-1.26,15.29-3a55.31,55.31,0,0,0,.21-22.27c-.34-1.77-7.34-3.12-15.52-3-1.29,0-8.76.14-9.93.21A54.27,54.27,0,0,1,63.93,160.29Z" style="fill:#ad5c49"/><path d="M62.83,132.37c-.9,0-1.52.39-1.4.86a54.07,54.07,0,0,1,.25,26.21c-.11.47.51.85,1.39.86h0c.88,0,1.69-.36,1.8-.82a54.39,54.39,0,0,0-.19-26.29c-.12-.46-1-.83-1.85-.82Z" style="fill:#484f59"/><path d="M63,160.11a20.61,20.61,0,0,0,2.11.13A4.08,4.08,0,0,0,69,157.13a54.36,54.36,0,0,0-.1-21.93,4.2,4.2,0,0,0-4-3.1c-.28,0-1.9.06-2.14.12A54.27,54.27,0,0,1,63,160.11Z" style="fill:#975140"/><polygon points="104.14 220.5 110.71 223.51 115.82 214.53 109.25 211.52 104.14 220.5" style="fill:#593446"/><path d="M131.39,168.44,107,212.39l8.14,3.26s29.35-42.6,27.29-45.43S132.45,166.57,131.39,168.44Z" style="fill:#163f59"/><path d="M103,223.27l4.79,2.19.74-1.31,1.34,2.27,12.1,5.54s.8-1.87-7.17-5.88c-2-1-2.06-4.25-2.06-4.25s-.56-1.32-3.24-.07c-.7.33-4.53-2.66-4.53-2.66S103,221.53,103,223.27Z" style="fill:#081832"/><path d="M77.12,139.49s-4.77,13.19-7.86,17.21c-2.22,2.87-4.18,8.82-3.94,11.47s.52,11.23,5.66,11.69c7.37.66,21.37-.22,21.37-.22s8.11-18.75,7.87-21.18-2-5.32-2.34-6.52,2.09-5.83,2.09-5.83Z" style="fill:#163f59"/><path d="M93.09,166.18l39.43,18.45s13.65-12.49,8-15.8c-10.94-6.41-42.64-16.89-42.64-16.89Z" style="fill:#163f59"/><polygon points="133.64 221.37 134.21 230.91 142.53 230.66 140.35 219.84 133.64 221.37" style="fill:#593446"/><path d="M71.47,179.86l52.11-.16s9.57-3.81,5-8.81c-3-3.21-39-9.45-49.44-9.56C58,161.11,71.47,179.86,71.47,179.86Z" style="fill:#194866"/><path d="M115.7,178.76,133,223l9-2s-7.69-46.92-13.52-48.2S115.3,177.26,115.7,178.76Z" style="fill:#194866"/><path d="M134.27,232l5.65.16.05-1.54,2.41,1.61,14.24.4s-.17-2.1-9.74-2.7c-2.46-.15-4.07-3.2-4.07-3.2s-1.19-1-3.11,1.23c-.5.59-5.63-.71-5.63-.71S133.47,230.35,134.27,232Z" style="fill:#081832"/><path d="M91.91,162.51c-2.49,7.49-4.35,12.94-4.35,12.94L68.3,173.94c-2.1-5.48-2.42-12.75,10.79-12.61A123,123,0,0,1,91.91,162.51Z" style="fill:#163f59"/><path d="M137.94,112.47,136.09,107l1.66-3.15,4.43,1.32,2.95,1.49.73,2.15s-1.66,4.31-4.23,5.3A2.87,2.87,0,0,1,137.94,112.47Z" style="fill:#fdd1b1"/><path d="M106.06,87.65a13.61,13.61,0,0,1-4.8,10.09c-5,4.14,13.46,6,13.46,6s-3.26-6.4,6.69-6.9C126.71,96.54,108.27,86,106.06,87.65Z" style="fill:#efc8ac"/><path d="M123,107.17s7.19,31.27,14,35.9c6.65,4.52,4.24-3,3.5-8.76s-5.53-23.17-7-25.15S125.22,104.19,123,107.17Z" style="fill:#163f59"/><path d="M91.06,99.34a145.35,145.35,0,0,1,17.51,2.15c8.57,1.62,17,4.28,18.19,5.35,2.46,2.21-1.72,17.87-11.8,26.69a65.31,65.31,0,0,0-14.49,17.65S72,153.61,70.24,152.73c2.67,1.36,3.72-14.61,4.42-15.67,2.22-3.31,10.32-25.37,8.85-29.78A6.33,6.33,0,0,1,91.06,99.34Z" style="fill:#d1dbea"/><path d="M115,129.56a79.42,79.42,0,0,0,1-10.37c.24-6.39.24-16.1.24-16.1l7.13,2.2.49,7.28-3.2.67,2,5.07A101.8,101.8,0,0,1,115,129.56Z" style="fill:#163f59"/><path d="M96.5,151.69l2.92,1.2a136.4,136.4,0,0,0,11.3-52.07q-1.36.06-2.73.09A133.19,133.19,0,0,1,96.5,151.69Z" style="fill:#b0bfde"/><polygon points="72.3 154.14 101.87 153.02 101.75 150.38 72.17 151.49 72.3 154.14" style="fill:#163f59"/><polygon points="85.12 154.72 86.23 154.68 86.03 150.27 84.92 150.31 85.12 154.72" style="fill:#163f59"/><polygon points="72.55 155.2 73.66 155.15 73.45 150.74 72.34 150.79 72.55 155.2" style="fill:#163f59"/><path d="M136.09,140.59s1.48,4.47,5.17,4.63,5.71-6.45,5.16-15.38a118,118,0,0,0-2.22-16.38l-5.71-.67S134.25,138.61,136.09,140.59Z" style="fill:#194866"/><path d="M109,83.18c2-3.64,11.26-6.86,12.76-4.82A7.37,7.37,0,0,1,123.05,81c.19,1,.37,2,.56,3a2.57,2.57,0,0,1,.06.68s0,0,0,0V96.22a.67.67,0,0,1-.71.64h-8.41a39.9,39.9,0,0,1-5.76-4.45,16.29,16.29,0,0,1-2.36-2.3C105.87,89.14,107.19,86.44,109,83.18Z" style="fill:#fdd1b1"/><polygon points="120.12 81.65 117.08 86.37 114.04 91.09 120.12 91.09 126.19 91.09 123.16 86.37 120.12 81.65" style="fill:#fdd1b1"/><path d="M105.69,90.45l1.07-5.62c.41-2.15.55-5.91,2.38-7.35a5.75,5.75,0,0,1,2.52-1,40.89,40.89,0,0,1,6.54-.5c1.86-.05,5.9.36,6.44,2.69.22.93-.82,2.18-1.29,3l-6.88-.52,1.24,4-1.45,4.4-1.66.08-.07.11s.43-2.53-1.15-3.7-3,.33-2.38,1.95.43,2.14.43,2.14l-2.31,1.63Z" style="fill:#3f2a01"/><path d="M110.17,100.06l1.72,2.59s-.67,1.76-1,1.87a18.5,18.5,0,0,1-2.71-.16,13.72,13.72,0,0,1-.55-2.26C107.53,101.32,110.17,100.06,110.17,100.06Z" style="fill:#ad5c49"/><polygon points="110.05 99.56 110.05 102.21 112.51 105.96 116.19 103.09 114.96 99.34 110.05 99.56" style="fill:#b0bfde"/><polygon points="100.71 97.13 98.74 100 104.89 104.85 110.05 102.21 110.05 99.56 100.71 97.13" style="fill:#b0bfde"/><path d="M92.85,97.35l7.24.56s7.38,10.58-.61,36.28c-5.06,16.3-12.29,37.51-12.29,37.51l-25.3-2s9.24-14.35,10.8-28.45c1.24-11.2.54-22.9,2-26.48,1.8-4.48-1.11-9,.86-11.47C80.85,96.58,91.05,97.19,92.85,97.35Z" style="fill:#194866"/><path d="M108.38,103.22l1.69.23c1,8.8,1.54,23.68-2.67,38.88a6,6,0,0,1-2.33,3l-1.73-3S107,121.53,108.38,103.22Z" style="fill:#ad5c49"/><path d="M121.6,144.85a31.17,31.17,0,0,0,3.19.6c1.26.17,3.2.55,3.2.55l4.91-.33,2.33-.56-1.35-2.86-3.07-2s-3.17-2.06-3.93-1.76-4.79,1.21-4.79,1.21Z" style="fill:#fdd1b1"/><path d="M93,146.06l-7.4,2.53s-10.14-22.12-11.89-29.9c-1-4.22-.89-14.3,2.5-17.06,5-4.06,11.62-4.06,11.62-4.06s3.72,12.12,4.11,16.32S93,146.06,93,146.06Z" style="fill:#163f59"/><path d="M100.09,97.91l-3.68-.34.24,7.83,2.95,4-3.81,3.3s3.08,17.32,1.73,24.38,5.86-12.26,5.4-26.36A34.28,34.28,0,0,0,100.09,97.91Z" style="fill:#163f59"/><path d="M109.41,139.56l.38-.58c.53-.84.84-1.81,1.31-2.7,2-3.63,4.42-7.83,4.85-12,.49-4.86.24-21.18.24-21.18L129,106.4c-1.8,6.51-3.66,13.08-4.87,19.73-.1.57-.1,1.21-.24,1.76a12.5,12.5,0,0,1-1.59,3,73.73,73.73,0,0,0-3.48,6.87,50.71,50.71,0,0,0-3.17,9.55,50.41,50.41,0,0,0-.68,5.06c-.11.94-.15,4.34-1,4.89s-4.2-1-5.15-1.28l-5.56-1.56a4.46,4.46,0,0,1-1.76-.79c-1.55-1.33-.46-3.51.56-4.72,1.73-2.06,3.43-4.14,5.06-6.27C107.85,141.62,108.69,140.61,109.41,139.56Z" style="fill:#194866"/><path d="M85.25,147.35s1.31,4,10,2.58,27.7-5,27.7-5l.39-7.49s-21.73,1.92-25.68,2.39S85.14,139.24,85.25,147.35Z" style="fill:#163f59"/></g></g></svg>