<svg xmlns="http://www.w3.org/2000/svg" xmlns:xlink="http://www.w3.org/1999/xlink" viewBox="0 0 300 300"><defs><linearGradient id="linear-gradient" x1="-348.56" y1="-190.57" x2="-348.26" y2="-189.94" gradientTransform="translate(-91927.59 -38182.15) rotate(180) scale(264.23 201.51)" gradientUnits="userSpaceOnUse"><stop offset="0" stop-color="#cac1ca"/><stop offset="1" stop-color="#fff"/></linearGradient></defs><title>InitiateAuthSpending</title><g id="Layer_2" data-name="Layer 2"><g id="Spend"><rect width="300" height="300" style="fill:#fff"/><path id="Path_20834" data-name="Path 20834" d="M236.4,146.27c44.24,47.8,68.4,86.23,33.74,99.77C242.93,256.66,178,239.3,141.8,250.8,125.44,256,82,273.85,50.25,245c-28.25-25.7-59.47-109,1.1-97.1,24.33,4.77,4.53-76.07,50.53-80.1C134.49,64.91,199.19,106.07,236.4,146.27Z" style="fill:#fff;opacity:0.2"/><path id="Path_20835" data-name="Path 20835" d="M23.67,198.61c7.82,13.72,17.52,26.16,26.72,34,38,32.39,78.92,17.25,97.7,10.45,41.53-15,103.07,11.26,134.42-1.85,19.06-8,17-29.36-.47-61.84-7.55-14-18-30.15-30.88-48.15C213.69,78.88,150,31.08,123.57,31,70,30.84,75.11,128.65,46.69,124.15-4.78,116,2.74,161.9,23.67,198.61Z" style="opacity:0.787999987602234;isolation:isolate;fill:url(#linear-gradient)"/><rect x="70.19" y="227.35" width="181.88" height="3.85" rx="1.9" style="fill:#2c77bc;opacity:0.30000000000000004"/><path d="M142.58,227.55l15,.43v-.53a1.23,1.23,0,0,0-.93-1.2L152,224.39l-3.54-2.55-.71-1.91-4.72.15L143,222.5l-.42,3.52Z" style="fill:#202952"/><path d="M90.29,178.25h54.58V165.66H81.8L81,168.92A9.34,9.34,0,0,0,90.29,178.25Z" style="fill:#325b87"/><path d="M149,221.93h-6.35l-.19-56.27h3.9a6.66,6.66,0,0,1,6.66,6.66Z" style="fill:#325b87"/><path d="M123,227.55,138,228v-.53a1.23,1.23,0,0,0-.93-1.2l-4.68-1.86-3.54-2.55-.71-1.91-4.72.15,0,2.42L123,226Z" style="fill:#202952"/><path d="M129.82,221.48l-6.67.06,3.41-52.4a3.66,3.66,0,0,1,4.11-3.41h0a6.67,6.67,0,0,1,5.76,7.46Z" style="fill:#325b87"/><polygon points="143.4 136.73 150.25 135.39 153.65 135.39 157.23 140.87 156.96 141.52 156.06 141.52 153.1 138.59 151.22 138.5 149.41 139.66 147.93 139.64 146.64 139.21 143.77 139.74 143.4 136.73" style="fill:#bb7d14"/><path d="M117.64,146.37l29-5.45-.49-5.23-26.71,3.7L112,111.71a4.77,4.77,0,0,0-6.54-2.9h0a4.76,4.76,0,0,0-2.34,6.32l11.77,29.28A3.13,3.13,0,0,0,117.64,146.37Z" style="fill:#7c7c40"/><polygon points="107.7 102.13 119.72 106.71 121.89 102.94 124.16 101.91 123.81 97.71 125.61 90.55 113.83 86.06 107.7 102.13" style="fill:#fdc689"/><rect x="107.09" y="99.68" width="5.62" height="9.16" transform="translate(175.44 240.83) rotate(-159.13)" style="fill:#fdc689"/><path d="M110.11,90.56a17.46,17.46,0,0,1,3.38-5.36c1.54-1.73,3.56-2.73,5.9-1.84,1.68.65,3.64.85,5.32,1.49a5,5,0,1,1-3.56,9.35c-.09,0-.17-.09-.25-.12.25.11-1.17,2.57-1.48,2.79-1.64,1.17-.88-.49-1.36-1.4-1-1.82-2.16,1.4-2.5,2A3.83,3.83,0,0,1,111,99.4c-2.53-.82-1.83-5.38-1.35-7.29A14.64,14.64,0,0,1,110.11,90.56Z" style="fill:#3f2a01"/><path d="M81,165.66h25.58l1.27-20.37c2-9.3,12.27-30.25,5.6-37.89l-1.26-1c-5.59-3-9.74-1.16-14.84,2.66-3.23,2.42-7.41,14.37-8.3,18.63Z" style="fill:#9da057"/><polygon points="160.04 139.4 160.63 138.94 156.46 135.36 153.09 135.75 146.18 136.85 147.14 140.81 149.94 139.96 151.96 140.66 153.44 140.51 155.75 139.78 158.46 141.84 160.31 141.26 160.51 140.58 159.18 138.87 160.04 139.4" style="fill:#fdc689"/><path d="M121,147.35l27.73-5.94-.58-5.22-25.44,4.15-8-27.55a4.75,4.75,0,0,0-6.58-2.78h0a4.77,4.77,0,0,0-2.23,6.36l12.28,29.07A3.11,3.11,0,0,0,121,147.35Z" style="fill:#9da057"/><polyline points="123.47 94.5 122.95 96.58 123.3 100.78 121.03 101.81 119 107 120 107 122.03 102.81 124.3 101.78 123.95 97.58 124.81 94.16" style="fill:#fff;opacity:0.2"/><path d="M147,142.65a.75.75,0,0,0,.75,1l38.17,0a1.55,1.55,0,0,0,1.39-1l-.17-1-39.84,0Z" style="fill:#264465"/><path d="M186.92,141.71l-22.41,0a1,1,0,0,1-1-1.45l5.58-18a2.18,2.18,0,0,1,2-1.45l22.42,0a1,1,0,0,1,1,1.45l-5.58,18A2.17,2.17,0,0,1,186.92,141.71Z" style="fill:#325b87"/><polygon points="188.22 138.14 165.42 138.12 170.28 122.4 193.08 122.43 188.22 138.14" style="fill:#5cb0db"/><path d="M186.53,125.59H177a.13.13,0,0,1,0-.26h9.56a.13.13,0,0,1,0,.26Z" style="fill:#9dd0e9"/><path d="M187,126.59H177.4a.13.13,0,0,1-.13-.14.13.13,0,0,1,.13-.13H187a.13.13,0,0,1,.13.13A.13.13,0,0,1,187,126.59Z" style="fill:#9dd0e9"/><path d="M184.93,127.58h-9.57a.13.13,0,1,1,0-.26h9.57a.13.13,0,1,1,0,.26Z" style="fill:#9dd0e9"/><path d="M184.13,128.57h-9.56a.13.13,0,0,1,0-.26h9.56a.13.13,0,0,1,0,.26Z" style="fill:#9dd0e9"/><path d="M183.34,130.27h-9.56a.13.13,0,0,1,0-.26h9.56a.13.13,0,1,1,0,.26Z" style="fill:#9dd0e9"/><path d="M184.93,129.44h-9.57a.13.13,0,1,1,0-.26h9.57a.13.13,0,0,1,0,.26Z" style="fill:#9dd0e9"/><path d="M183.7,131.62h-9.57a.13.13,0,0,1-.13-.13.13.13,0,0,1,.13-.13h9.57a.13.13,0,0,1,.13.13A.13.13,0,0,1,183.7,131.62Z" style="fill:#9dd0e9"/><path d="M184.13,132.62h-9.56a.13.13,0,0,1-.13-.13.13.13,0,0,1,.13-.13h9.56a.12.12,0,0,1,.13.13A.13.13,0,0,1,184.13,132.62Z" style="fill:#9dd0e9"/><path d="M182.09,133.61h-9.56a.13.13,0,0,1,0-.26h9.56a.13.13,0,1,1,0,.26Z" style="fill:#9dd0e9"/><path d="M181.3,134.6h-9.56a.12.12,0,0,1-.13-.13.13.13,0,0,1,.13-.13h9.56a.13.13,0,0,1,.13.13A.13.13,0,0,1,181.3,134.6Z" style="fill:#9dd0e9"/><path d="M180.51,136.3h-9.57a.13.13,0,0,1,0-.26h9.57a.13.13,0,1,1,0,.26Z" style="fill:#9dd0e9"/><path d="M182.09,135.47h-9.56a.13.13,0,0,1,0-.26h9.56a.13.13,0,0,1,0,.26Z" style="fill:#9dd0e9"/><path d="M76.71,178.25h46.71a8.43,8.43,0,0,1,8.43,8.43v1.86a0,0,0,0,1,0,0H71.14a0,0,0,0,1,0,0v-4.72A5.56,5.56,0,0,1,76.71,178.25Z" transform="translate(202.99 366.79) rotate(180)" style="fill:#fff"/><rect x="101.28" y="188.54" width="3.13" height="28.67" style="fill:#325b87"/><path d="M119.71,218.93l-16.4-3.76-.47,2-.46-2L86,218.93a5.3,5.3,0,0,0-4.13,5.18v2.26H86v-2.26a1.13,1.13,0,0,1,.88-1.11l12-2.75a8.65,8.65,0,0,0-.62,3v3.11h4.18v-3.11a4.52,4.52,0,0,1,.57-2.18l.86-1.49L118.77,223a1.14,1.14,0,0,1,.89,1.11v2.26h4.17v-2.26A5.29,5.29,0,0,0,119.71,218.93Z" style="fill:#325b87"/><path d="M118.26,227.44a3.49,3.49,0,1,0,3.49-3.48A3.48,3.48,0,0,0,118.26,227.44Z" style="fill:#264465"/><path d="M96.89,227.44a3.48,3.48,0,1,0,3.48-3.48A3.48,3.48,0,0,0,96.89,227.44Z" style="fill:#264465"/><path d="M80.46,227.44A3.48,3.48,0,1,0,83.94,224,3.48,3.48,0,0,0,80.46,227.44Z" style="fill:#264465"/><path d="M75.73,188.54H81.3L69.62,175.71a10.69,10.69,0,0,1-2-6.18l.22-28.15a2.09,2.09,0,0,0-2.09-2.09h0a2.09,2.09,0,0,0-2.08,2.09l-.23,28.15a14.82,14.82,0,0,0,2.75,8.6Z" style="fill:#325b87"/><path d="M73.3,167l-8-1.74.46-45.08a3.11,3.11,0,0,1,4.09-2.93l1.51.5a5.26,5.26,0,0,1,3.62,4.73L77,163.88A3.07,3.07,0,0,1,73.3,167Z" style="fill:#fff"/><rect x="137.28" y="146.86" width="1.36" height="86.39" style="fill:#eff2f6"/><path d="M244.38,146.88H137.28v-1.6a1.54,1.54,0,0,1,1.53-1.53h104a1.54,1.54,0,0,1,1.53,1.53Z" style="fill:#7c96b2"/><rect x="137.28" y="146.88" width="107.09" height="8.59" style="fill:#eff2f6"/><rect x="243.02" y="146.88" width="1.36" height="85.74" style="fill:#eff2f6"/><polygon points="235.72 140.99 235.72 140.55 235.72 140.34 235.72 140.11 201.89 140.11 201.89 140.34 201.89 140.55 201.89 140.99 201.89 141.43 203.43 141.43 203.43 141.94 201.89 141.94 201.89 142.16 201.89 142.26 201.89 142.37 201.89 142.48 201.89 142.69 201.89 142.86 201.89 142.91 201.89 143.08 201.89 143.29 201.89 143.5 201.89 143.72 235.72 143.72 235.72 143.5 235.72 143.29 235.72 143.08 235.72 142.91 235.72 142.86 235.72 142.69 235.72 142.48 235.72 142.37 235.72 142.26 235.72 142.16 235.72 142.05 237.25 142.05 237.25 141.17 235.72 141.17 235.72 140.99" style="fill:#e5eaf0"/><polygon points="201.83 139.65 201.83 139.86 201.83 140.08 235.66 140.08 235.66 139.86 235.66 139.65 235.66 139.43 235.66 139.22 235.18 139.22 235.18 139 235.66 139 235.66 138.79 235.66 138.62 235.66 138.58 235.66 138.41 236.94 138.41 236.94 138.19 235.66 138.19 235.66 138.08 235.66 137.98 235.66 137.87 235.66 137.66 234.45 137.66 234.45 137.14 235.66 137.14 235.66 136.71 236.59 136.71 236.59 135.83 202.76 135.83 202.76 136.05 201.83 136.05 201.83 136.27 201.83 136.88 200.62 136.88 200.62 137.76 201.83 137.76 201.83 137.87 201.83 137.98 201.83 138.08 201.83 138.19 203.12 138.19 203.12 138.41 201.83 138.41 201.83 138.58 201.83 138.62 201.83 138.79 201.83 139 201.35 139 201.35 139.22 201.83 139.22 201.83 139.43 201.83 139.65" style="fill:#e5eaf0"/><polygon points="236.51 129.55 236.61 129.55 236.61 129.34 236.71 129.34 236.71 129.12 202.88 129.12 202.88 129.34 202.78 129.34 202.78 129.55 202.69 129.55 202.69 129.77 236.51 129.77 236.51 129.55" style="fill:#e5eaf0"/><polygon points="236.08 127.32 236.08 126.55 235.88 126.55 235.88 125.93 235.46 125.93 235.46 125.49 233.07 125.49 233.07 125.39 233.07 125.17 233.07 124.96 233.07 124.74 232.59 124.74 232.59 124.53 233.07 124.53 233.07 124.31 233.07 124.14 233.07 124.1 233.07 123.93 234.35 123.93 234.35 123.72 233.07 123.72 233.07 123.61 233.07 123.5 233.07 123.39 233.07 123.18 231.86 123.18 231.86 122.67 233.07 122.67 233.07 122.23 234 122.23 234 121.35 200.18 121.35 200.18 121.58 199.24 121.58 199.24 121.79 199.24 122.41 198.03 122.41 198.03 123.29 199.24 123.29 199.24 123.39 199.24 123.5 199.24 123.61 199.24 123.72 200.53 123.72 200.53 123.93 199.24 123.93 199.24 124.1 199.24 124.14 199.24 124.31 199.24 124.53 198.77 124.53 198.77 124.74 199.24 124.74 199.24 124.96 199.24 125.17 199.24 125.39 199.24 125.6 201.64 125.6 201.64 126.37 202.05 126.37 202.05 126.81 202.25 126.81 202.25 127.43 203.83 127.43 203.83 127.54 203.61 127.54 203.61 127.64 203.3 127.64 203.3 127.86 202.75 127.86 202.75 128.07 202.75 128.24 202.21 128.24 202.21 128.46 202.21 128.67 202.48 128.67 202.48 128.89 202.55 128.89 202.55 129.1 236.37 129.1 236.37 128.89 236.31 128.89 236.31 128.67 236.03 128.67 236.03 128.46 236.03 128.29 236.58 128.29 236.58 128.07 236.58 127.86 237.13 127.86 237.13 127.75 237.44 127.75 237.44 127.54 237.66 127.54 237.66 127.32 236.08 127.32" style="fill:#e5eaf0"/><polygon points="202.47 132.71 202.47 132.93 202.37 132.93 202.37 133.14 202.27 133.14 202.27 133.35 201.87 133.35 201.87 133.57 201.78 133.57 201.78 133.78 201.67 133.78 201.67 134 201.57 134 201.57 134.21 201.51 134.21 201.51 134.43 201.23 134.43 201.23 134.64 201.23 134.86 201.78 134.86 201.78 135.03 201.78 135.24 202.32 135.24 202.32 135.46 202.63 135.46 202.63 135.56 202.85 135.56 202.85 135.78 236.68 135.78 236.68 135.56 236.46 135.56 236.46 135.35 236.15 135.35 236.15 135.24 235.6 135.24 235.6 135.03 235.6 134.81 235.05 134.81 235.05 134.64 235.05 134.43 235.33 134.43 235.33 134.21 235.39 134.21 235.39 134 235.5 134 235.5 133.78 235.6 133.78 235.6 133.57 235.69 133.57 235.69 133.35 236.09 133.35 236.09 133.14 236.19 133.14 236.19 132.93 236.3 132.93 236.3 132.71 236.39 132.71 236.39 132.5 235.69 132.5 235.69 132.28 235.79 132.28 235.79 132.07 235.9 132.07 235.9 131.85 235.99 131.85 235.99 131.64 236.09 131.64 236.09 131.42 236.19 131.42 236.19 131.21 236.3 131.21 236.3 131 236.39 131 236.39 130.78 236.38 130.78 236.38 130.57 236.49 130.57 236.49 130.35 236.59 130.35 236.59 130.14 236.68 130.14 236.68 129.92 202.85 129.92 202.85 130.14 202.76 130.14 202.76 130.35 202.66 130.35 202.66 130.57 202.56 130.57 202.56 130.78 202.56 130.78 202.56 131 202.47 131 202.47 131.21 202.37 131.21 202.37 131.42 202.27 131.42 202.27 131.64 202.16 131.64 202.16 131.85 202.07 131.85 202.07 132.07 201.97 132.07 201.97 132.28 201.86 132.28 201.86 132.5 202.56 132.5 202.56 132.71 202.47 132.71" style="fill:#e5eaf0"/><g style="opacity:0.30000000000000004"><polygon points="236.04 127.03 225.02 127.01 212.11 127.01 202.11 127.03 202.11 127.03 212.11 126.9 225.03 126.9 236.04 127.02 236.04 127.03" style="fill:#325b87"/><polygon points="236.25 132.17 225.22 132.15 212.31 132.15 202.32 132.17 202.32 132.17 212.31 132.04 225.23 132.04 236.25 132.16 236.25 132.17" style="fill:#325b87"/><polygon points="236.25 132.52 229.07 132.5 220.67 132.5 214.17 132.52 214.17 132.52 220.67 132.4 229.08 132.4 236.25 132.52 236.25 132.52" style="fill:#325b87"/><polygon points="236.35 141.49 225.33 141.47 212.42 141.47 202.42 141.49 202.42 141.49 212.42 141.37 225.34 141.37 236.35 141.49 236.35 141.49" style="fill:#325b87"/><polygon points="236.35 141.85 229.18 141.83 220.78 141.83 214.27 141.85 214.27 141.85 220.78 141.72 229.18 141.72 236.35 141.85 236.35 141.85" style="fill:#325b87"/><polygon points="235.23 134.31 224.21 134.29 211.3 134.29 201.31 134.31 201.31 134.31 211.3 134.19 224.22 134.19 235.23 134.31 235.23 134.31" style="fill:#325b87"/><polygon points="235.23 134.67 228.06 134.65 219.66 134.65 213.16 134.67 213.16 134.67 219.66 134.54 228.06 134.54 235.23 134.66 235.23 134.67" style="fill:#325b87"/><polygon points="202.83 128.45 213.85 128.43 226.76 128.43 236.76 128.45 236.76 128.45 226.76 128.32 213.85 128.32 202.83 128.45 202.83 128.45" style="fill:#325b87"/><polygon points="202.83 128.81 210 128.79 218.41 128.79 224.91 128.81 224.91 128.81 218.41 128.68 210 128.68 202.83 128.8 202.83 128.81" style="fill:#325b87"/><polygon points="202.32 139.1 213.34 139.09 226.25 139.09 236.25 139.1 236.25 139.1 226.25 138.98 213.33 138.98 202.32 139.1 202.32 139.1" style="fill:#325b87"/><polygon points="202.32 139.46 209.49 139.44 217.89 139.44 224.4 139.46 224.4 139.46 217.89 139.34 209.49 139.34 202.32 139.46 202.32 139.46" style="fill:#325b87"/><polygon points="202.02 136.59 213.04 136.57 225.95 136.57 235.95 136.59 235.95 136.59 225.95 136.46 213.03 136.46 202.02 136.59 202.02 136.59" style="fill:#325b87"/><polygon points="202.02 136.94 209.19 136.93 217.59 136.93 224.09 136.94 224.09 136.95 217.59 136.82 209.19 136.82 202.02 136.94 202.02 136.94" style="fill:#325b87"/><polygon points="199.41 124.52 210.43 124.5 223.34 124.5 233.34 124.52 233.34 124.52 223.34 124.4 210.42 124.4 199.41 124.52 199.41 124.52" style="fill:#325b87"/><polygon points="199.41 124.88 206.58 124.86 214.98 124.86 221.49 124.88 221.49 124.88 214.98 124.75 206.58 124.75 199.41 124.87 199.41 124.88" style="fill:#325b87"/></g><g style="opacity:0.2"><polygon points="198.86 122.78 209.88 122.77 222.79 122.77 232.79 122.78 232.79 122.79 222.79 122.66 209.88 122.66 198.86 122.78 198.86 122.78" style="fill:#325b87"/><polygon points="198.86 123.14 206.03 123.12 214.43 123.12 220.94 123.14 220.94 123.14 214.43 123.02 206.03 123.02 198.86 123.14 198.86 123.14" style="fill:#325b87"/></g><g style="opacity:0.2"><polygon points="235.77 140.98 235.77 140.54 235.77 140.32 235.77 140.1 229.39 140.12 229.39 140.34 229.39 140.55 229.39 140.99 229.39 141.17 230.93 141.17 230.93 142.05 229.4 142.05 229.4 142.16 229.4 142.26 229.4 142.37 229.4 142.48 229.4 142.69 229.4 142.87 229.4 142.91 229.4 143.08 229.4 143.29 229.4 143.51 229.4 143.72 235.78 143.71 235.78 143.49 235.78 143.28 235.78 143.06 235.78 142.89 235.78 142.85 235.78 142.68 235.78 142.46 235.78 142.36 235.78 142.25 235.77 142.14 235.77 142.03 237.31 142.03 237.31 141.15 235.77 141.16 235.77 140.98" style="fill:#7c96b2"/><polygon points="229.32 136.71 229.32 137.15 228.11 137.15 228.12 137.66 229.32 137.66 229.32 137.87 229.32 137.98 229.32 138.09 229.32 138.19 230.61 138.19 230.61 138.41 229.32 138.41 229.32 138.58 229.32 138.62 229.33 138.79 229.33 139.01 228.85 139.01 228.85 139.22 229.33 139.22 229.33 139.44 229.33 139.65 229.33 139.87 229.33 140.08 235.71 140.06 235.71 139.85 235.71 139.64 235.71 139.42 235.71 139.21 235.23 139.21 235.23 138.99 235.71 138.99 235.7 138.78 235.7 138.61 235.7 138.56 235.7 138.39 236.99 138.39 236.99 138.18 235.7 138.18 235.7 138.07 235.7 137.96 235.7 137.86 235.7 137.64 234.49 137.65 234.49 137.13 235.7 137.13 235.7 136.69 236.63 136.69 236.63 135.81 230.25 135.83 230.26 136.71 229.32 136.71" style="fill:#7c96b2"/><polygon points="230.25 129.34 230.25 129.55 230.16 129.55 230.16 129.77 236.54 129.75 236.54 129.54 236.63 129.54 236.63 129.32 236.74 129.32 236.74 129.11 230.36 129.12 230.36 129.34 230.25 129.34" style="fill:#7c96b2"/><polygon points="236.1 127.31 236.1 126.54 235.89 126.54 235.89 125.92 235.48 125.92 235.48 125.48 233.08 125.49 233.08 125.38 233.08 125.17 233.08 124.95 233.08 124.74 232.61 124.74 232.61 124.52 233.08 124.52 233.08 124.31 233.08 124.14 233.08 124.09 233.08 123.92 234.37 123.92 234.37 123.71 233.08 123.71 233.08 123.6 233.08 123.5 233.08 123.39 233.08 123.17 231.87 123.18 231.87 122.67 233.08 122.66 233.08 122.22 234.01 122.22 234.01 121.34 227.63 121.36 227.63 122.24 226.7 122.24 226.7 122.68 225.49 122.68 225.49 123.19 226.7 123.19 226.7 123.4 226.7 123.51 226.7 123.62 226.7 123.72 227.99 123.72 227.99 123.94 226.7 123.94 226.7 124.11 226.7 124.15 226.7 124.32 226.7 124.54 226.23 124.54 226.23 124.75 226.7 124.75 226.7 124.97 226.7 125.18 226.71 125.4 226.71 125.5 229.1 125.5 229.1 125.94 229.51 125.94 229.52 126.55 229.72 126.55 229.72 127.33 231.3 127.32 231.3 127.54 231.08 127.54 231.08 127.75 230.77 127.75 230.77 127.86 230.22 127.86 230.22 128.07 230.22 128.29 229.68 128.29 229.68 128.46 229.68 128.68 229.96 128.67 229.96 128.89 230.02 128.89 230.02 129.1 236.4 129.09 236.4 128.87 236.34 128.87 236.34 128.66 236.06 128.66 236.06 128.44 236.06 128.27 236.6 128.27 236.6 128.06 236.6 127.84 237.15 127.84 237.15 127.73 237.46 127.73 237.46 127.52 237.68 127.52 237.68 127.31 236.1 127.31" style="fill:#7c96b2"/><polygon points="230.24 130.14 230.24 130.35 230.13 130.35 230.14 130.57 230.03 130.57 230.03 130.78 230.04 130.78 230.04 131 229.95 131 229.95 131.21 229.85 131.21 229.85 131.43 229.75 131.43 229.75 131.64 229.64 131.64 229.64 131.86 229.55 131.86 229.55 132.07 229.45 132.07 229.45 132.28 229.34 132.28 229.34 132.5 230.05 132.5 230.05 132.71 229.96 132.71 229.96 132.93 229.85 132.93 229.85 133.14 229.75 133.14 229.75 133.36 229.35 133.36 229.35 133.57 229.26 133.57 229.26 133.79 229.16 133.79 229.16 134 229.05 134 229.05 134.22 228.99 134.22 228.99 134.43 228.71 134.43 228.71 134.65 228.72 134.82 229.26 134.82 229.26 135.03 229.26 135.24 229.81 135.24 229.81 135.35 230.12 135.35 230.13 135.56 230.34 135.56 230.34 135.78 236.72 135.76 236.72 135.55 236.5 135.55 236.5 135.33 236.19 135.34 236.19 135.23 235.64 135.23 235.64 135.01 235.64 134.8 235.09 134.8 235.09 134.63 235.09 134.42 235.37 134.42 235.37 134.2 235.43 134.2 235.43 133.99 235.54 133.99 235.53 133.77 235.64 133.77 235.64 133.56 235.73 133.56 235.73 133.34 236.13 133.34 236.13 133.13 236.23 133.13 236.23 132.91 236.33 132.91 236.33 132.7 236.43 132.7 236.43 132.48 235.72 132.48 235.72 132.27 235.83 132.27 235.83 132.06 235.93 132.06 235.93 131.84 236.02 131.84 236.02 131.63 236.12 131.63 236.12 131.41 236.23 131.41 236.23 131.2 236.33 131.2 236.33 130.98 236.42 130.98 236.42 130.77 236.41 130.77 236.41 130.55 236.51 130.55 236.51 130.34 236.62 130.34 236.62 130.12 236.71 130.12 236.71 129.91 230.33 129.92 230.33 130.14 230.24 130.14" style="fill:#7c96b2"/></g><path d="M206.45,136.9a15.48,15.48,0,0,0-1.61-3.52h13.3C214.54,133.88,207.75,135.22,206.45,136.9Z" style="fill:#414042;opacity:0.30000000000000004"/><path d="M204.87,136.31a11.81,11.81,0,0,0-1.62-2.93h15C214.66,133.8,206.18,134.91,204.87,136.31Z" style="fill:#fff"/><path d="M219.49,126.72a7.08,7.08,0,0,1,1.37-1.83h-11.3C212.62,125.15,218.39,125.85,219.49,126.72Z" style="fill:#414042;opacity:0.30000000000000004"/><path d="M220.84,126.42a6.07,6.07,0,0,1,1.37-1.53H209.44C212.51,125.11,219.73,125.68,220.84,126.42Z" style="fill:#fff"/><polygon points="224.39 141.22 222.88 141.22 222.88 141.04 222.88 140.61 222.88 140.4 222.88 140.18 189.69 140.18 189.69 140.4 189.69 140.61 189.69 141.04 189.69 141.47 191.2 141.47 191.2 141.97 189.69 141.97 189.69 142.18 189.69 142.29 189.69 142.39 189.69 142.5 189.69 142.71 189.69 142.88 189.69 142.92 189.69 143.09 189.69 143.3 189.69 143.51 189.69 143.72 222.88 143.72 222.88 143.51 222.88 143.3 222.88 143.09 222.88 142.92 222.88 142.88 222.88 142.71 222.88 142.5 222.88 142.39 222.88 142.29 222.88 142.18 222.88 142.08 224.39 142.08 224.39 141.22" style="fill:#e5eaf0"/><polygon points="189.63 139.72 189.63 139.93 189.63 140.15 222.82 140.15 222.82 139.93 222.82 139.72 222.82 139.51 222.82 139.3 222.36 139.3 222.36 139.09 222.82 139.09 222.82 138.88 222.82 138.71 222.82 138.67 222.82 138.5 224.09 138.5 224.09 138.29 222.82 138.29 222.82 138.19 222.82 138.08 222.82 137.98 222.82 137.77 221.64 137.77 221.64 137.27 222.82 137.27 222.82 136.84 223.74 136.84 223.74 135.97 190.54 135.97 190.54 136.19 189.63 136.19 189.63 136.4 189.63 137.01 188.44 137.01 188.44 137.87 189.63 137.87 189.63 137.98 189.63 138.08 189.63 138.19 189.63 138.29 190.89 138.29 190.89 138.5 189.63 138.5 189.63 138.67 189.63 138.71 189.63 138.88 189.63 139.09 189.16 139.09 189.16 139.3 189.63 139.3 189.63 139.51 189.63 139.72" style="fill:#e5eaf0"/><g style="opacity:0.30000000000000004"><polygon points="223.51 141.53 212.69 141.52 200.02 141.52 190.21 141.53 190.21 141.53 200.02 141.41 212.7 141.41 223.51 141.53 223.51 141.53" style="fill:#325b87"/><polygon points="223.51 141.88 216.47 141.87 208.22 141.87 201.84 141.88 201.84 141.88 208.22 141.76 216.47 141.76 223.51 141.88 223.51 141.88" style="fill:#325b87"/></g><g style="opacity:0.30000000000000004"><polygon points="190.11 139.19 200.93 139.17 213.59 139.17 223.41 139.19 223.41 139.19 213.59 139.07 200.92 139.07 190.11 139.19 190.11 139.19" style="fill:#325b87"/><polygon points="190.11 139.54 197.15 139.52 205.39 139.52 211.77 139.54 211.77 139.54 205.39 139.42 197.14 139.42 190.11 139.54 190.11 139.54" style="fill:#325b87"/></g><g style="opacity:0.30000000000000004"><polygon points="189.81 136.72 200.63 136.7 213.3 136.7 223.11 136.72 223.11 136.72 213.3 136.6 200.62 136.6 189.81 136.72 189.81 136.72" style="fill:#325b87"/><polygon points="189.81 137.07 196.85 137.05 205.1 137.05 211.48 137.07 211.48 137.07 205.1 136.95 196.85 136.95 189.81 137.07 189.81 137.07" style="fill:#325b87"/></g><g style="opacity:0.2"><polygon points="222.88 141.04 222.88 140.61 222.88 140.4 222.88 140.18 212.86 140.18 212.86 140.4 212.86 140.61 212.86 141.04 212.86 141.22 214.37 141.22 214.37 142.08 212.86 142.08 212.86 142.18 212.86 142.29 212.86 142.39 212.86 142.5 212.86 142.71 212.86 142.88 212.86 142.92 212.86 143.09 212.86 143.3 212.86 143.51 212.86 143.72 222.88 143.72 222.88 143.51 222.88 143.3 222.88 143.09 222.88 142.92 222.88 142.88 222.88 142.71 222.88 142.5 222.88 142.39 222.88 142.29 222.88 142.18 222.88 142.08 224.39 142.08 224.39 141.22 222.88 141.22 222.88 141.04" style="fill:#7c96b2"/><polygon points="212.8 136.84 212.8 137.27 211.61 137.27 211.61 137.77 212.8 137.77 212.8 137.98 212.8 138.08 212.8 138.19 212.8 138.29 214.06 138.29 214.06 138.5 212.8 138.5 212.8 138.67 212.8 138.71 212.8 138.88 212.8 139.09 212.33 139.09 212.33 139.3 212.8 139.3 212.8 139.51 212.8 139.72 212.8 139.93 212.8 140.15 222.82 140.15 222.82 139.93 222.82 139.72 222.82 139.51 222.82 139.3 222.36 139.3 222.36 139.09 222.82 139.09 222.82 138.88 222.82 138.71 222.82 138.67 222.82 138.5 224.09 138.5 224.09 138.29 222.82 138.29 222.82 138.19 222.82 138.08 222.82 137.98 222.82 137.77 221.64 137.77 221.64 137.27 222.82 137.27 222.82 136.84 223.74 136.84 223.74 135.97 213.72 135.97 213.72 136.84 212.8 136.84" style="fill:#7c96b2"/></g><path d="M195.18,140.26a5.75,5.75,0,0,0-1.46-1h12C202.5,139.44,196.35,139.8,195.18,140.26Z" style="fill:#325b87;opacity:0.30000000000000004"/><path d="M193.75,140.1a5.8,5.8,0,0,0-1.47-.8h13.61C202.61,139.42,194.93,139.72,193.75,140.1Z" style="fill:#fff"/><path d="M215.54,197.05l15.07,6.25a66.11,66.11,0,0,0,26-24.07s-9.53,10.2-17.77,7Z" style="fill:#f1f8fd;stroke:#606060;stroke-miterlimit:10;stroke-width:0.150000005960464px"/><path d="M208.41,144.29l19.88,1s-9.13,8.53-1,22.49l-11.77,5.82S203.42,158.07,208.41,144.29Z" style="fill:#f1f8fd;stroke:#606060;stroke-miterlimit:10;stroke-width:0.150000005960464px"/><path d="M164.73,239.6,161.12,220s10.4,6.93,22.11-4.2L191.6,226S179.29,241.3,164.73,239.6Z" style="fill:#f1f8fd;stroke:#606060;stroke-miterlimit:10;stroke-width:0.150000005960464px"/><path d="M107.62,101.93l6.45,4.73s-.72,1-.88,1a.33.33,0,0,1-.2-.11,7,7,0,0,0-4.23-1.81,3,3,0,0,1-2-.74l-.9-.66Z" style="fill:#fff"/><g id="Group_11501" data-name="Group 11501"><g id="Group_11464" data-name="Group 11464"><g id="Group_11454" data-name="Group 11454"><g id="Group_11453" data-name="Group 11453"><path id="Path_20890" data-name="Path 20890" d="M273.9,199.23c0-6.57-5-11.88-11.25-11.87s-11.22,5.36-11.2,11.93,5.05,11.87,11.25,11.86S273.92,205.79,273.9,199.23Z" style="fill:#d69136"/></g></g><g id="Group_11456" data-name="Group 11456"><g id="Group_11455" data-name="Group 11455"><ellipse id="Ellipse_483" data-name="Ellipse 483" cx="262.68" cy="199.25" rx="10.6" ry="11.23" transform="translate(-0.4 0.53) rotate(-0.11)" style="fill:#ffb600"/></g></g><g id="Group_11458" data-name="Group 11458"><g id="Group_11457" data-name="Group 11457"><path id="Path_20891" data-name="Path 20891" d="M271.09,201.67l-.32-.09a9.82,9.82,0,0,0,.29-2.35,8.65,8.65,0,0,0-8.4-8.85,8,8,0,0,0-4.36,1.3l-.17-.3a8.26,8.26,0,0,1,4.52-1.35,9,9,0,0,1,8.74,9.2A10.06,10.06,0,0,1,271.09,201.67Z" style="fill:#fff"/></g></g><g id="Group_11460" data-name="Group 11460"><g id="Group_11459" data-name="Group 11459"><path id="Path_20892" data-name="Path 20892" d="M262.7,208.48a9,9,0,0,1-8.74-9.2,9.53,9.53,0,0,1,1.62-5.38l.27.2a9.08,9.08,0,0,0-1.55,5.18,8.63,8.63,0,0,0,8.4,8.85,8.27,8.27,0,0,0,7.09-4.18l.28.19A8.57,8.57,0,0,1,262.7,208.48Z" style="fill:#fff"/></g></g><g id="Group_11463" data-name="Group 11463"><g id="Group_11462" data-name="Group 11462"><g id="Group_11461" data-name="Group 11461"><path id="Path_20893" data-name="Path 20893" d="M263.44,205.71h-1.27v-1.46a5.19,5.19,0,0,1-2.37-.64l-.08-.05v-2.37l.27.23a3.32,3.32,0,0,0,1.07.56,4.78,4.78,0,0,0,1.11.29v-2.18a5,5,0,0,1-2-1.3,2.9,2.9,0,0,1-.6-1.81,2.82,2.82,0,0,1,.76-2,3.08,3.08,0,0,1,1.86-.91v-1.31h1.27v1.26a4.61,4.61,0,0,1,2,.48l.09.05v2.27l-.25-.17a4.56,4.56,0,0,0-1.79-.66v2.28a5.26,5.26,0,0,1,2,1.24,2.65,2.65,0,0,1,.66,1.8,2.7,2.7,0,0,1-.73,2,3.35,3.35,0,0,1-1.91.88Zm-.94-.35h.61v-1.47l.15,0a3.08,3.08,0,0,0,1.86-.8,2.51,2.51,0,0,0,.06-3.28,5,5,0,0,0-2-1.18l-.11,0v-2.92l.18,0a4.82,4.82,0,0,1,1.86.58V194.8a4.66,4.66,0,0,0-1.88-.39h-.16v-1.24h-.61v1.26l-.15,0a2.85,2.85,0,0,0-1.8.83,2.43,2.43,0,0,0-.67,1.72,2.5,2.5,0,0,0,.52,1.58,4.86,4.86,0,0,0,2,1.24l.11,0v2.81h-.18a5.36,5.36,0,0,1-1.37-.32,4.66,4.66,0,0,1-.9-.43v1.46a4.9,4.9,0,0,0,2.28.56h.17Zm.6-2.72v-2.55l.23.11c.68.31,1,.73,1,1.25a1.1,1.1,0,0,1-1,1.16h0Zm.33-2v1.59a.72.72,0,0,0,.59-.77.94.94,0,0,0-.59-.82Zm-.95-2.31-.24-.13a1.53,1.53,0,0,1-1-1.33,1.11,1.11,0,0,1,1-1.17l.2,0Zm-.34-2.24a.73.73,0,0,0-.56.78,1.06,1.06,0,0,0,.57.88Z" style="fill:#fff"/></g></g></g><path id="Path_20894" data-name="Path 20894" d="M269.08,198.17c-.71.18-.84.32-1,1.07-.16-.75-.3-.89-1-1.06.71-.18.84-.33,1-1.08C268.24,197.85,268.37,198,269.08,198.17Z" style="fill:#fff"/></g><g id="Group_11476" data-name="Group 11476"><rect id="Rectangle_5282" data-name="Rectangle 5282" x="251.54" y="225.59" width="22.2" height="5.95" style="fill:#d69136"/><rect id="Rectangle_5283" data-name="Rectangle 5283" x="251.54" y="226.21" width="22.2" height="5.32" style="fill:#ffb600"/><g id="Group_11475" data-name="Group 11475"><g id="Group_11465" data-name="Group 11465"><rect id="Rectangle_5284" data-name="Rectangle 5284" x="271.48" y="227.07" width="0.69" height="3.6" style="fill:#d69136"/></g><g id="Group_11466" data-name="Group 11466"><rect id="Rectangle_5285" data-name="Rectangle 5285" x="269.41" y="227.07" width="0.69" height="3.6" style="fill:#d69136"/></g><g id="Group_11467" data-name="Group 11467"><rect id="Rectangle_5286" data-name="Rectangle 5286" x="267.34" y="227.07" width="0.69" height="3.6" style="fill:#d69136"/></g><g id="Group_11468" data-name="Group 11468"><rect id="Rectangle_5287" data-name="Rectangle 5287" x="265.28" y="227.07" width="0.69" height="3.6" style="fill:#d69136"/></g><g id="Group_11469" data-name="Group 11469"><rect id="Rectangle_5288" data-name="Rectangle 5288" x="263.21" y="227.07" width="0.69" height="3.6" style="fill:#d69136"/></g><g id="Group_11470" data-name="Group 11470"><rect id="Rectangle_5289" data-name="Rectangle 5289" x="261.15" y="227.07" width="0.69" height="3.6" style="fill:#d69136"/></g><g id="Group_11471" data-name="Group 11471"><rect id="Rectangle_5290" data-name="Rectangle 5290" x="259.08" y="227.07" width="0.69" height="3.6" style="fill:#d69136"/></g><g id="Group_11472" data-name="Group 11472"><rect id="Rectangle_5291" data-name="Rectangle 5291" x="257.02" y="227.07" width="0.69" height="3.6" style="fill:#d69136"/></g><g id="Group_11473" data-name="Group 11473"><rect id="Rectangle_5292" data-name="Rectangle 5292" x="254.95" y="227.07" width="0.69" height="3.6" style="fill:#d69136"/></g><g id="Group_11474" data-name="Group 11474"><rect id="Rectangle_5293" data-name="Rectangle 5293" x="252.89" y="227.07" width="0.69" height="3.6" style="fill:#d69136"/></g></g></g><g id="Group_11488" data-name="Group 11488"><rect id="Rectangle_5294" data-name="Rectangle 5294" x="252.46" y="219.64" width="22.2" height="5.95" style="fill:#d69136"/><rect id="Rectangle_5295" data-name="Rectangle 5295" x="252.46" y="220.26" width="22.2" height="5.32" style="fill:#ffb600"/><g id="Group_11487" data-name="Group 11487"><g id="Group_11477" data-name="Group 11477"><rect id="Rectangle_5296" data-name="Rectangle 5296" x="272.4" y="221.13" width="0.69" height="3.6" style="fill:#d69136"/></g><g id="Group_11478" data-name="Group 11478"><rect id="Rectangle_5297" data-name="Rectangle 5297" x="270.33" y="221.13" width="0.69" height="3.6" style="fill:#d69136"/></g><g id="Group_11479" data-name="Group 11479"><rect id="Rectangle_5298" data-name="Rectangle 5298" x="268.27" y="221.13" width="0.69" height="3.6" style="fill:#d69136"/></g><g id="Group_11480" data-name="Group 11480"><rect id="Rectangle_5299" data-name="Rectangle 5299" x="266.2" y="221.13" width="0.69" height="3.6" style="fill:#d69136"/></g><g id="Group_11481" data-name="Group 11481"><rect id="Rectangle_5300" data-name="Rectangle 5300" x="264.14" y="221.13" width="0.69" height="3.6" style="fill:#d69136"/></g><g id="Group_11482" data-name="Group 11482"><rect id="Rectangle_5301" data-name="Rectangle 5301" x="262.07" y="221.13" width="0.69" height="3.6" style="fill:#d69136"/></g><g id="Group_11483" data-name="Group 11483"><rect id="Rectangle_5302" data-name="Rectangle 5302" x="260.01" y="221.13" width="0.69" height="3.6" style="fill:#d69136"/></g><g id="Group_11484" data-name="Group 11484"><rect id="Rectangle_5303" data-name="Rectangle 5303" x="257.94" y="221.13" width="0.69" height="3.6" style="fill:#d69136"/></g><g id="Group_11485" data-name="Group 11485"><rect id="Rectangle_5304" data-name="Rectangle 5304" x="255.87" y="221.13" width="0.69" height="3.6" style="fill:#d69136"/></g><g id="Group_11486" data-name="Group 11486"><rect id="Rectangle_5305" data-name="Rectangle 5305" x="253.81" y="221.13" width="0.69" height="3.6" style="fill:#d69136"/></g></g></g><g id="Group_11500" data-name="Group 11500"><rect id="Rectangle_5306" data-name="Rectangle 5306" x="250.05" y="213.81" width="22.2" height="5.95" style="fill:#d69136"/><rect id="Rectangle_5307" data-name="Rectangle 5307" x="250.05" y="214.44" width="22.2" height="5.32" style="fill:#ffb600"/><g id="Group_11499" data-name="Group 11499"><g id="Group_11489" data-name="Group 11489"><rect id="Rectangle_5308" data-name="Rectangle 5308" x="269.99" y="215.3" width="0.69" height="3.6" style="fill:#d69136"/></g><g id="Group_11490" data-name="Group 11490"><rect id="Rectangle_5309" data-name="Rectangle 5309" x="267.92" y="215.3" width="0.69" height="3.6" style="fill:#d69136"/></g><g id="Group_11491" data-name="Group 11491"><rect id="Rectangle_5310" data-name="Rectangle 5310" x="265.86" y="215.3" width="0.69" height="3.6" style="fill:#d69136"/></g><g id="Group_11492" data-name="Group 11492"><rect id="Rectangle_5311" data-name="Rectangle 5311" x="263.79" y="215.3" width="0.69" height="3.6" style="fill:#d69136"/></g><g id="Group_11493" data-name="Group 11493"><rect id="Rectangle_5312" data-name="Rectangle 5312" x="261.72" y="215.3" width="0.69" height="3.6" style="fill:#d69136"/></g><g id="Group_11494" data-name="Group 11494"><rect id="Rectangle_5313" data-name="Rectangle 5313" x="259.66" y="215.3" width="0.69" height="3.6" style="fill:#d69136"/></g><g id="Group_11495" data-name="Group 11495"><rect id="Rectangle_5314" data-name="Rectangle 5314" x="257.59" y="215.3" width="0.69" height="3.6" style="fill:#d69136"/></g><g id="Group_11496" data-name="Group 11496"><rect id="Rectangle_5315" data-name="Rectangle 5315" x="255.53" y="215.3" width="0.69" height="3.6" style="fill:#d69136"/></g><g id="Group_11497" data-name="Group 11497"><rect id="Rectangle_5316" data-name="Rectangle 5316" x="253.46" y="215.3" width="0.69" height="3.6" style="fill:#d69136"/></g><g id="Group_11498" data-name="Group 11498"><rect id="Rectangle_5317" data-name="Rectangle 5317" x="251.4" y="215.3" width="0.69" height="3.6" style="fill:#d69136"/></g></g></g></g><g id="Group_11527" data-name="Group 11527"><path id="Path_20895" data-name="Path 20895" d="M74.21,229.36c0,1-5.47,1.79-12.23,1.79s-12.23-.8-12.23-1.79,5.48-1.78,12.23-1.78S74.21,228.38,74.21,229.36Z" style="fill:#9faad4;opacity:0.219999998807907;isolation:isolate"/><g id="Group_11526" data-name="Group 11526"><g id="Group_11513" data-name="Group 11513"><rect id="Rectangle_5318" data-name="Rectangle 5318" x="51.25" y="223.8" width="21.23" height="5.69" style="fill:#d69136"/><rect id="Rectangle_5319" data-name="Rectangle 5319" x="51.25" y="224.4" width="21.23" height="5.09" style="fill:#ffb600"/><g id="Group_11512" data-name="Group 11512"><g id="Group_11502" data-name="Group 11502"><rect id="Rectangle_5320" data-name="Rectangle 5320" x="70.31" y="225.23" width="0.66" height="3.44" style="fill:#d69136"/></g><g id="Group_11503" data-name="Group 11503"><rect id="Rectangle_5321" data-name="Rectangle 5321" x="68.34" y="225.23" width="0.66" height="3.44" style="fill:#d69136"/></g><g id="Group_11504" data-name="Group 11504"><rect id="Rectangle_5322" data-name="Rectangle 5322" x="66.36" y="225.23" width="0.66" height="3.44" style="fill:#d69136"/></g><g id="Group_11505" data-name="Group 11505"><rect id="Rectangle_5323" data-name="Rectangle 5323" x="64.39" y="225.23" width="0.66" height="3.44" style="fill:#d69136"/></g><g id="Group_11506" data-name="Group 11506"><rect id="Rectangle_5324" data-name="Rectangle 5324" x="62.41" y="225.23" width="0.66" height="3.44" style="fill:#d69136"/></g><g id="Group_11507" data-name="Group 11507"><rect id="Rectangle_5325" data-name="Rectangle 5325" x="60.44" y="225.23" width="0.66" height="3.44" style="fill:#d69136"/></g><g id="Group_11508" data-name="Group 11508"><rect id="Rectangle_5326" data-name="Rectangle 5326" x="58.46" y="225.23" width="0.66" height="3.44" style="fill:#d69136"/></g><g id="Group_11509" data-name="Group 11509"><rect id="Rectangle_5327" data-name="Rectangle 5327" x="56.49" y="225.23" width="0.66" height="3.44" style="fill:#d69136"/></g><g id="Group_11510" data-name="Group 11510"><rect id="Rectangle_5328" data-name="Rectangle 5328" x="54.51" y="225.23" width="0.66" height="3.44" style="fill:#d69136"/></g><g id="Group_11511" data-name="Group 11511"><rect id="Rectangle_5329" data-name="Rectangle 5329" x="52.54" y="225.23" width="0.66" height="3.44" style="fill:#d69136"/></g></g></g><g id="Group_11525" data-name="Group 11525"><rect id="Rectangle_5330" data-name="Rectangle 5330" x="52.13" y="218.12" width="21.23" height="5.69" style="fill:#d69136"/><rect id="Rectangle_5331" data-name="Rectangle 5331" x="52.13" y="218.71" width="21.23" height="5.09" style="fill:#ffb600"/><g id="Group_11524" data-name="Group 11524"><g id="Group_11514" data-name="Group 11514"><rect id="Rectangle_5332" data-name="Rectangle 5332" x="71.2" y="219.54" width="0.66" height="3.44" style="fill:#d69136"/></g><g id="Group_11515" data-name="Group 11515"><rect id="Rectangle_5333" data-name="Rectangle 5333" x="69.22" y="219.54" width="0.66" height="3.44" style="fill:#d69136"/></g><g id="Group_11516" data-name="Group 11516"><rect id="Rectangle_5334" data-name="Rectangle 5334" x="67.25" y="219.54" width="0.66" height="3.44" style="fill:#d69136"/></g><g id="Group_11517" data-name="Group 11517"><rect id="Rectangle_5335" data-name="Rectangle 5335" x="65.27" y="219.54" width="0.66" height="3.44" style="fill:#d69136"/></g><g id="Group_11518" data-name="Group 11518"><rect id="Rectangle_5336" data-name="Rectangle 5336" x="63.3" y="219.54" width="0.66" height="3.44" style="fill:#d69136"/></g><g id="Group_11519" data-name="Group 11519"><rect id="Rectangle_5337" data-name="Rectangle 5337" x="61.32" y="219.54" width="0.66" height="3.44" style="fill:#d69136"/></g><g id="Group_11520" data-name="Group 11520"><rect id="Rectangle_5338" data-name="Rectangle 5338" x="59.35" y="219.54" width="0.66" height="3.44" style="fill:#d69136"/></g><g id="Group_11521" data-name="Group 11521"><rect id="Rectangle_5339" data-name="Rectangle 5339" x="57.37" y="219.54" width="0.66" height="3.44" style="fill:#d69136"/></g><g id="Group_11522" data-name="Group 11522"><rect id="Rectangle_5340" data-name="Rectangle 5340" x="55.39" y="219.54" width="0.66" height="3.44" style="fill:#d69136"/></g><g id="Group_11523" data-name="Group 11523"><rect id="Rectangle_5341" data-name="Rectangle 5341" x="53.42" y="219.54" width="0.66" height="3.44" style="fill:#d69136"/></g></g></g></g></g><polyline points="113 102 112.96 104.13 119.19 106.51 119.49 105.74 114 104 113 102" style="fill:#fff;opacity:0.2"/></g></g></svg>