<svg xmlns="http://www.w3.org/2000/svg" viewBox="0 0 127 127"><defs><style>.cls-1,.cls-8{fill:#fff;}.cls-10,.cls-11,.cls-12,.cls-13,.cls-16,.cls-17,.cls-2,.cls-4,.cls-5,.cls-7{fill:none;}.cls-19,.cls-2{stroke:#707070;}.cls-19,.cls-2,.cls-5,.cls-7,.cls-8{stroke-width:0.94px;}.cls-3{fill:#9f9386;}.cls-4{stroke:#9f9386;stroke-width:1.89px;stroke-dasharray:11.34;}.cls-10,.cls-11,.cls-12,.cls-13,.cls-14,.cls-16,.cls-4,.cls-5,.cls-7{stroke-linecap:round;}.cls-5{stroke:#fff;}.cls-10,.cls-11,.cls-12,.cls-13,.cls-14,.cls-16,.cls-5,.cls-7{stroke-linejoin:round;}.cls-6{fill:#f7e3cb;stroke-width:0.47px;}.cls-13,.cls-14,.cls-15,.cls-16,.cls-17,.cls-6,.cls-7,.cls-8{stroke:#f4aa42;}.cls-14,.cls-15,.cls-9{fill:#f4aa42;}.cls-10{stroke:#b7b7b7;stroke-dasharray:5.94 5.94;}.cls-10,.cls-11,.cls-12,.cls-13,.cls-14,.cls-15,.cls-16,.cls-17{stroke-width:0.24px;}.cls-11{stroke:gray;}.cls-12{stroke:#c3e8f5;}.cls-16{stroke-dasharray:2.93;}.cls-18{fill:gray;}.cls-19{fill:#707070;}.cls-20{fill:#f7c282;}</style></defs><title>plan-icon</title><g id="Report"><g id="Report-2" data-name="Report"><g id="Ellipse_167" data-name="Ellipse 167"><circle class="cls-1" cx="64.47" cy="64.04" r="60"/><circle class="cls-2" cx="64.47" cy="64.04" r="59.53"/></g><g id="Report_img" data-name="Report img"><g id="Group_1429" data-name="Group 1429"><g id="Group_1382" data-name="Group 1382"><g id="Group_1381" data-name="Group 1381"><g id="Group_1380" data-name="Group 1380"><g id="Group_1379" data-name="Group 1379"><g id="Group_1378" data-name="Group 1378"><g id="Group_1377" data-name="Group 1377"><g id="Group_1376" data-name="Group 1376"><g id="Group_1375" data-name="Group 1375"><g id="Group_1374" data-name="Group 1374"><g id="Group_1373" data-name="Group 1373"><g id="Group_1372" data-name="Group 1372"><g id="Group_1371" data-name="Group 1371"><g id="Group_1370" data-name="Group 1370"><g id="Group_1369" data-name="Group 1369"><g id="Group_1368" data-name="Group 1368"><g id="Group_1367" data-name="Group 1367"><g id="Group_1366" data-name="Group 1366"><g id="Group_1365" data-name="Group 1365"><g id="Group_1364" data-name="Group 1364"><circle id="Ellipse_116" data-name="Ellipse 116" class="cls-3" cx="64.5" cy="64.07" r="38.85"/></g></g></g></g></g></g></g></g></g></g></g></g></g></g></g></g></g></g></g></g><g id="Group_1438" data-name="Group 1438"><g id="Group_1382-2" data-name="Group 1382-2"><g id="Group_1381-2" data-name="Group 1381-2"><g id="Group_1380-2" data-name="Group 1380-2"><g id="Group_1379-2" data-name="Group 1379-2"><g id="Group_1378-2" data-name="Group 1378-2"><g id="Group_1377-2" data-name="Group 1377-2"><g id="Group_1376-2" data-name="Group 1376-2"><g id="Group_1375-2" data-name="Group 1375-2"><g id="Group_1374-2" data-name="Group 1374-2"><g id="Group_1373-2" data-name="Group 1373-2"><g id="Group_1372-2" data-name="Group 1372-2"><g id="Group_1371-2" data-name="Group 1371-2"><g id="Group_1370-2" data-name="Group 1370-2"><g id="Group_1369-2" data-name="Group 1369-2"><g id="Group_1368-2" data-name="Group 1368-2"><g id="Group_1367-2" data-name="Group 1367-2"><g id="Group_1366-2" data-name="Group 1366-2"><g id="Group_1365-2" data-name="Group 1365-2"><g id="Group_1364-2" data-name="Group 1364-2"><circle id="Ellipse_116-2" data-name="Ellipse 116-2" class="cls-4" cx="64.5" cy="64.07" r="50.58"/></g></g></g></g></g></g></g></g></g></g></g></g></g></g></g></g></g></g></g></g><g id="Group_1512" data-name="Group 1512"><path id="Path_6590" data-name="Path 6590" class="cls-5" d="M83.11,75.27l-1.89,2.16-1.54,1.76-4.14,4.74-1.72,2L70,83.73l-7,5.43-3.79-1-6.52,6.27"/><rect id="Rectangle_2122" data-name="Rectangle 2122" class="cls-6" x="82.42" y="83.23" width="3.41" height="19.66"/><rect id="Rectangle_2192" data-name="Rectangle 2192" class="cls-6" x="77.64" y="85.62" width="3.41" height="17.27"/><rect id="Rectangle_2193" data-name="Rectangle 2193" class="cls-6" x="72.86" y="88.61" width="3.41" height="14.28"/><rect id="Rectangle_2194" data-name="Rectangle 2194" class="cls-6" x="68.08" y="91.6" width="3.41" height="11.3"/><rect id="Rectangle_2195" data-name="Rectangle 2195" class="cls-6" x="63.3" y="93.99" width="3.41" height="8.31"/><rect id="Rectangle_2196" data-name="Rectangle 2196" class="cls-6" x="58.52" y="96.38" width="3.41" height="6.51"/><rect id="Rectangle_2197" data-name="Rectangle 2197" class="cls-6" x="53.74" y="98.77" width="3.41" height="4.13"/><path id="Path_6591" data-name="Path 6591" class="cls-1" d="M79.47,76.19l5.73-3.32-1.33,3.94-.72,2.11Z"/><path id="Path_6592" data-name="Path 6592" class="cls-7" d="M89.26,102.83H49.84V77.58"/></g><g id="Group_1510" data-name="Group 1510"><g id="Group_1472" data-name="Group 1472"><path id="Path_6685" data-name="Path 6685" class="cls-8" d="M75.43,29.46H96.29a1,1,0,0,1,.93,1V61.75H74.5V30.44A1,1,0,0,1,75.43,29.46Z"/><path id="Rectangle_2124" data-name="Rectangle 2124" class="cls-9" d="M76.58,29.45H94.84a2.33,2.33,0,0,1,2.33,2.33H74.25A2.33,2.33,0,0,1,76.58,29.45Z"/><circle id="Ellipse_125" data-name="Ellipse 125" class="cls-1" cx="75.75" cy="30.61" r="0.52"/><path id="Path_6593" data-name="Path 6593" class="cls-1" d="M77.69,30.61a.52.52,0,0,1-1,0,.52.52,0,1,1,1,0Z"/><circle id="Ellipse_126" data-name="Ellipse 126" class="cls-1" cx="78.59" cy="30.61" r="0.52"/><g id="Group_1452" data-name="Group 1452"><g id="Group_1447" data-name="Group 1447"><g id="Group_1441" data-name="Group 1441"><line id="Line_39" data-name="Line 39" class="cls-10" x1="77.27" y1="38.16" x2="77.68" y2="38.16"/><line id="Line_40" data-name="Line 40" class="cls-10" x1="78.5" y1="38.16" x2="93.16" y2="38.16"/><line id="Line_41" data-name="Line 41" class="cls-10" x1="93.57" y1="38.16" x2="93.98" y2="38.16"/></g><g id="Group_1509" data-name="Group 1509"><line id="Line_39-2" data-name="Line 39-2" class="cls-10" x1="77.27" y1="36.58" x2="77.68" y2="36.58"/><line id="Line_40-2" data-name="Line 40-2" class="cls-10" x1="78.5" y1="36.58" x2="93.16" y2="36.58"/><line id="Line_41-2" data-name="Line 41-2" class="cls-10" x1="93.57" y1="36.58" x2="93.98" y2="36.58"/></g><g id="Group_1442" data-name="Group 1442"><line id="Line_42" data-name="Line 42" class="cls-10" x1="77.27" y1="39.8" x2="77.68" y2="39.8"/><line id="Line_43" data-name="Line 43" class="cls-10" x1="78.5" y1="39.8" x2="93.16" y2="39.8"/><line id="Line_44" data-name="Line 44" class="cls-10" x1="93.57" y1="39.8" x2="93.98" y2="39.8"/></g><g id="Group_1443" data-name="Group 1443"><line id="Line_45" data-name="Line 45" class="cls-10" x1="77.27" y1="41.44" x2="77.68" y2="41.44"/><line id="Line_46" data-name="Line 46" class="cls-10" x1="78.5" y1="41.44" x2="93.16" y2="41.44"/><line id="Line_47" data-name="Line 47" class="cls-10" x1="93.57" y1="41.44" x2="93.98" y2="41.44"/></g><g id="Group_1444" data-name="Group 1444"><line id="Line_48" data-name="Line 48" class="cls-10" x1="77.27" y1="43.08" x2="77.68" y2="43.08"/><line id="Line_49" data-name="Line 49" class="cls-10" x1="78.5" y1="43.08" x2="93.16" y2="43.08"/><line id="Line_50" data-name="Line 50" class="cls-10" x1="93.57" y1="43.08" x2="93.98" y2="43.08"/></g><g id="Group_1445" data-name="Group 1445"><line id="Line_51" data-name="Line 51" class="cls-10" x1="77.27" y1="44.72" x2="77.68" y2="44.72"/><line id="Line_52" data-name="Line 52" class="cls-10" x1="78.5" y1="44.72" x2="93.16" y2="44.72"/><line id="Line_53" data-name="Line 53" class="cls-10" x1="93.57" y1="44.72" x2="93.98" y2="44.72"/></g><g id="Group_1446" data-name="Group 1446"><line id="Line_54" data-name="Line 54" class="cls-10" x1="77.27" y1="46.36" x2="77.68" y2="46.36"/><line id="Line_55" data-name="Line 55" class="cls-10" x1="78.5" y1="46.36" x2="93.16" y2="46.36"/><line id="Line_56" data-name="Line 56" class="cls-10" x1="93.57" y1="46.36" x2="93.98" y2="46.36"/></g></g><g id="Group_1448" data-name="Group 1448"><line id="Line_57" data-name="Line 57" class="cls-11" x1="77.27" y1="46.36" x2="94.51" y2="46.36"/><line id="Line_58" data-name="Line 58" class="cls-11" x1="77.17" y1="44.72" x2="77.37" y2="44.72"/><line id="Line_59" data-name="Line 59" class="cls-11" x1="77.17" y1="43.08" x2="77.37" y2="43.08"/><line id="Line_60" data-name="Line 60" class="cls-11" x1="77.17" y1="41.44" x2="77.37" y2="41.44"/><line id="Line_61" data-name="Line 61" class="cls-11" x1="77.17" y1="39.8" x2="77.37" y2="39.8"/><line id="Line_62" data-name="Line 62" class="cls-11" x1="77.17" y1="38.16" x2="77.37" y2="38.16"/><line id="Line_63" data-name="Line 63" class="cls-11" x1="77.17" y1="36.52" x2="77.37" y2="36.52"/><line id="Line_64" data-name="Line 64" class="cls-11" x1="78.91" y1="46.26" x2="78.91" y2="46.46"/><line id="Line_65" data-name="Line 65" class="cls-11" x1="80.55" y1="46.26" x2="80.55" y2="46.46"/><line id="Line_66" data-name="Line 66" class="cls-11" x1="81.83" y1="46.26" x2="81.83" y2="46.46"/><line id="Line_67" data-name="Line 67" class="cls-11" x1="83.36" y1="46.26" x2="83.36" y2="46.46"/><line id="Line_68" data-name="Line 68" class="cls-11" x1="84.88" y1="46.26" x2="84.88" y2="46.46"/><line id="Line_69" data-name="Line 69" class="cls-11" x1="86.4" y1="46.26" x2="86.4" y2="46.46"/><line id="Line_70" data-name="Line 70" class="cls-11" x1="87.93" y1="46.26" x2="87.93" y2="46.46"/><line id="Line_71" data-name="Line 71" class="cls-11" x1="89.45" y1="46.26" x2="89.45" y2="46.46"/><line id="Line_72" data-name="Line 72" class="cls-11" x1="90.97" y1="46.26" x2="90.97" y2="46.46"/><line id="Line_73" data-name="Line 73" class="cls-11" x1="92.34" y1="46.26" x2="92.34" y2="46.46"/><line id="Line_74" data-name="Line 74" class="cls-11" x1="93.98" y1="46.26" x2="93.98" y2="46.46"/><line id="Line_75" data-name="Line 75" class="cls-11" x1="77.27" y1="46.36" x2="77.27" y2="36.11"/></g><line id="Line_76" data-name="Line 76" class="cls-12" x1="92.55" y1="39.3" x2="92.55" y2="39.3"/><line id="Line_77" data-name="Line 77" class="cls-12" x1="92.78" y1="39.14" x2="92.78" y2="39.14"/><line id="Line_78" data-name="Line 78" class="cls-12" x1="91.88" y1="39.97" x2="91.88" y2="39.97"/><g id="Group_1449" data-name="Group 1449"><path id="Path_6594" data-name="Path 6594" class="cls-13" d="M94.23,38.66l-1.2.48h0"/><line id="Line_79" data-name="Line 79" class="cls-13" x1="91.88" y1="40.09" x2="89.91" y2="40.43"/><line id="Line_80" data-name="Line 80" class="cls-13" x1="88.12" y1="39.57" x2="87.4" y2="39"/><line id="Line_81" data-name="Line 81" class="cls-13" x1="85.53" y1="39.78" x2="84.82" y2="40.81"/><line id="Line_82" data-name="Line 82" class="cls-13" x1="83.38" y1="41.61" x2="81.65" y2="41.18"/><line id="Line_83" data-name="Line 83" class="cls-13" x1="80.73" y1="42.31" x2="79.35" y2="42.86"/><line id="Line_84" data-name="Line 84" class="cls-13" x1="81.48" y1="41.25" x2="80.73" y2="42.15"/><line id="Line_85" data-name="Line 85" class="cls-13" x1="84.68" y1="40.99" x2="83.53" y2="41.58"/><line id="Line_86" data-name="Line 86" class="cls-13" x1="87.23" y1="38.96" x2="85.66" y2="39.6"/><line id="Line_87" data-name="Line 87" class="cls-13" x1="89.94" y1="40.4" x2="88.26" y2="39.71"/><path id="Path_6595" data-name="Path 6595" class="cls-13" d="M92.13,40h0l.66-.66h0"/><line id="Line_88" data-name="Line 88" class="cls-13" x1="79.07" y1="42.93" x2="77.27" y2="43.19"/><path id="Path_6596" data-name="Path 6596" class="cls-13" d="M81.7,41.16a.15.15,0,1,1-.15-.15A.15.15,0,0,1,81.7,41.16Z"/><path id="Path_6597" data-name="Path 6597" class="cls-13" d="M87.46,38.91a.14.14,0,0,1-.14.14.14.14,0,0,1-.15-.14.14.14,0,0,1,.15-.15.14.14,0,0,1,.14.14Z"/><path id="Path_6598" data-name="Path 6598" class="cls-14" d="M90.18,40.45a.15.15,0,0,1-.15.15.15.15,0,0,1,0-.3A.15.15,0,0,1,90.18,40.45Z"/><path id="Path_6599" data-name="Path 6599" class="cls-14" d="M93.05,39.2a.15.15,0,0,1-.3,0,.15.15,0,1,1,.3,0Z"/><path id="Path_6600" data-name="Path 6600" class="cls-13" d="M85.73,39.66a.15.15,0,0,1-.15.15.15.15,0,0,1,0-.3A.15.15,0,0,1,85.73,39.66Z"/><path id="Path_6601" data-name="Path 6601" class="cls-13" d="M88.35,39.66a.15.15,0,0,1-.14.15.15.15,0,0,1,0-.3A.15.15,0,0,1,88.35,39.66Z"/><path id="Path_6602" data-name="Path 6602" class="cls-14" d="M92.17,40.07a.14.14,0,0,1-.14.14.15.15,0,0,1-.15-.14.15.15,0,0,1,.15-.15A.15.15,0,0,1,92.17,40.07Z"/><path id="Path_6603" data-name="Path 6603" class="cls-13" d="M84.91,40.93a.15.15,0,0,1-.15.14h0a.15.15,0,0,1-.15-.14h0a.15.15,0,0,1,.15-.15h0a.15.15,0,0,1,.15.14Z"/><path id="Path_6604" data-name="Path 6604" class="cls-13" d="M83.59,41.65a.15.15,0,0,1-.3,0,.15.15,0,0,1,.15-.15.15.15,0,0,1,.15.15Z"/><path id="Path_6605" data-name="Path 6605" class="cls-14" d="M80.8,42.26a.14.14,0,0,1-.15.14.14.14,0,0,1-.14-.14.15.15,0,0,1,.14-.15A.15.15,0,0,1,80.8,42.26Z"/><path id="Path_6606" data-name="Path 6606" class="cls-14" d="M79.36,42.91a.15.15,0,0,1-.15.15.15.15,0,0,1,0-.3A.15.15,0,0,1,79.36,42.91Z"/></g><g id="Group_1450" data-name="Group 1450"><path id="Path_6607" data-name="Path 6607" class="cls-13" d="M77.52,39.93l1.76-.69L81,38l1.95.39,1-.69,1.44.22,1.54.8,1.83-.77L89.92,37l1.76-.27,1.5.24,1-.74"/><path id="Path_6608" data-name="Path 6608" class="cls-15" d="M79.57,39.24a.14.14,0,0,1-.14.14.15.15,0,0,1-.15-.14.15.15,0,0,1,.15-.15A.15.15,0,0,1,79.57,39.24Z"/><path id="Path_6609" data-name="Path 6609" class="cls-15" d="M81.17,38a.15.15,0,1,1-.15-.15A.15.15,0,0,1,81.17,38Z"/><path id="Path_6610" data-name="Path 6610" class="cls-15" d="M83.11,38.35a.15.15,0,0,1-.3,0A.15.15,0,0,1,83,38.2h0A.15.15,0,0,1,83.11,38.35Z"/><path id="Path_6611" data-name="Path 6611" class="cls-15" d="M84.15,37.66a.15.15,0,0,1-.3,0,.15.15,0,0,1,.3,0Z"/><path id="Path_6612" data-name="Path 6612" class="cls-15" d="M85.6,37.88a.15.15,0,1,1-.15-.15A.15.15,0,0,1,85.6,37.88Z"/><circle id="Ellipse_127" data-name="Ellipse 127" class="cls-15" cx="86.98" cy="38.68" r="0.15"/><path id="Path_6613" data-name="Path 6613" class="cls-15" d="M90.06,37a.15.15,0,0,1-.15.15.14.14,0,0,1-.14-.15.14.14,0,0,1,.14-.14A.15.15,0,0,1,90.06,37Z"/><circle id="Ellipse_128" data-name="Ellipse 128" class="cls-15" cx="88.81" cy="37.92" r="0.15"/><path id="Path_6614" data-name="Path 6614" class="cls-15" d="M91.63,36.71a.15.15,0,1,1-.15-.15A.15.15,0,0,1,91.63,36.71Z"/><path id="Path_6615" data-name="Path 6615" class="cls-15" d="M93.25,36.94a.15.15,0,1,1-.15-.15A.15.15,0,0,1,93.25,36.94Z"/></g><g id="Group_1451" data-name="Group 1451"><path id="Path_6616" data-name="Path 6616" class="cls-16" d="M77.77,40.29l1.39,1.25h1.41l.78,1.64,1.37.48,1.13,1.16,1.36.43L86.66,45l1.41.58,1-.71,1.26-1.17,1.33,1.07,1.7-.76,1.09-.31"/><path id="Path_6618" data-name="Path 6618" class="cls-15" d="M79.31,41.7h0a.16.16,0,0,1-.16-.16h0a.16.16,0,0,1,.16-.16h0a.16.16,0,0,1,.16.16h0A.16.16,0,0,1,79.31,41.7Z"/><path id="Path_6619" data-name="Path 6619" class="cls-17" d="M81.58,43.29h0a.1.1,0,0,1-.1-.1h0a.12.12,0,0,1,.1-.11h0a.12.12,0,0,1,.11.11h0A.1.1,0,0,1,81.58,43.29Z"/><path id="Path_6620" data-name="Path 6620" class="cls-17" d="M82.27,41.08h0a.16.16,0,0,1-.16-.16h0a.16.16,0,0,1,.16-.15h0a.16.16,0,0,1,.16.15h0A.16.16,0,0,1,82.27,41.08Z"/><path id="Path_6621" data-name="Path 6621" class="cls-17" d="M83.39,42.18h0a.1.1,0,0,1-.11-.1h0a.11.11,0,0,1,.11-.11h0a.11.11,0,0,1,.1.11h0A.1.1,0,0,1,83.39,42.18Z"/><path id="Path_6622" data-name="Path 6622" class="cls-17" d="M84.75,42.66h0a.16.16,0,0,1-.16-.16h0a.16.16,0,0,1,.16-.16h0a.16.16,0,0,1,.16.16h0A.16.16,0,0,1,84.75,42.66Z"/><path id="Path_6623" data-name="Path 6623" class="cls-17" d="M86.2,42.33h0a.1.1,0,0,1-.1-.11h0a.1.1,0,0,1,.1-.1h0a.11.11,0,0,1,.11.1h0A.11.11,0,0,1,86.2,42.33Z"/><path id="Path_6624" data-name="Path 6624" class="cls-17" d="M87.61,43h0a.16.16,0,0,1-.16-.16h0a.16.16,0,0,1,.16-.16h0a.16.16,0,0,1,.16.16h0A.16.16,0,0,1,87.61,43Z"/><path id="Path_6625" data-name="Path 6625" class="cls-17" d="M88.63,42.19h0a.1.1,0,0,1-.11-.1h0a.1.1,0,0,1,.11-.1h0a.09.09,0,0,1,.1.1h0A.09.09,0,0,1,88.63,42.19Z"/><path id="Path_6626" data-name="Path 6626" class="cls-15" d="M91.73,44.58h0a.11.11,0,0,1-.11-.11h0a.11.11,0,0,1,.11-.1h0a.11.11,0,0,1,.1.1h0A.11.11,0,0,1,91.73,44.58Z"/><path id="Path_6627" data-name="Path 6627" class="cls-15" d="M93.3,43.81h0a.16.16,0,0,1,.16.16h0a.17.17,0,0,1-.16.16h0a.16.16,0,0,1-.16-.16h0A.16.16,0,0,1,93.3,43.81Z"/><path id="Path_6628" data-name="Path 6628" class="cls-15" d="M90.36,44.07h0a.16.16,0,0,1-.16-.16h0a.16.16,0,0,1,.16-.16h0a.16.16,0,0,1,.16.16h0A.16.16,0,0,1,90.36,44.07Z"/></g></g><g id="Group_1453" data-name="Group 1453"><path id="Rectangle_2128" data-name="Rectangle 2128" class="cls-18" d="M76,51H95.47a.26.26,0,0,1,.26.26h0a.26.26,0,0,1-.26.26H76a.27.27,0,0,1-.27-.26h0A.26.26,0,0,1,76,51Z"/><path id="Rectangle_2180" data-name="Rectangle 2180" class="cls-18" d="M76,53.08H95.47a.26.26,0,0,1,.26.26h0a.27.27,0,0,1-.26.27H76a.27.27,0,0,1-.27-.27h0A.27.27,0,0,1,76,53.08Z"/><path id="Rectangle_2181" data-name="Rectangle 2181" class="cls-18" d="M76,55.16H95.47a.26.26,0,0,1,.26.26h0a.26.26,0,0,1-.26.26H76a.27.27,0,0,1-.27-.26h0A.26.26,0,0,1,76,55.16Z"/><path id="Rectangle_2182" data-name="Rectangle 2182" class="cls-18" d="M76,57.23H95.47a.26.26,0,0,1,.26.26h0a.27.27,0,0,1-.26.27H76a.27.27,0,0,1-.27-.27h0A.27.27,0,0,1,76,57.23Z"/><path id="Rectangle_2183" data-name="Rectangle 2183" class="cls-18" d="M76,59.31H95.47a.26.26,0,0,1,.26.26h0a.26.26,0,0,1-.26.26H76a.27.27,0,0,1-.27-.26h0A.26.26,0,0,1,76,59.31Z"/></g><g id="Group_1471" data-name="Group 1471"><g id="Group_1470" data-name="Group 1470"><path id="Path_6630" data-name="Path 6630" class="cls-19" d="M88.84,45.56l-.17.15a.54.54,0,0,0-.08.77.08.08,0,0,0,0,0l2.94,2.95a.56.56,0,0,0,.78,0l.24-.24.24-.23a.56.56,0,0,0,0-.78h0l-3-2.95a.54.54,0,0,0-.78,0l0,0-.14.17A.3.3,0,0,1,88.84,45.56Z"/><g id="Group_1469" data-name="Group 1469"><path id="Path_6666" data-name="Path 6666" class="cls-19" d="M85.61,47.16a4.84,4.84,0,0,1-3.48-1.44,4.92,4.92,0,0,1,0-6.94,4.91,4.91,0,0,1,7,0h0a4.9,4.9,0,0,1,0,6.94A4.83,4.83,0,0,1,85.61,47.16Zm0-9.27a4.28,4.28,0,0,0-3.09,1.28,4.37,4.37,0,1,0,6.17,0h0A4.28,4.28,0,0,0,85.61,37.89Z"/></g><g id="Ellipse_136" data-name="Ellipse 136"><circle class="cls-1" cx="85.62" cy="42.28" r="4.43"/><circle class="cls-2" cx="85.62" cy="42.28" r="3.96"/></g></g></g></g></g><g id="Group_1514" data-name="Group 1514"><rect id="Rectangle_2184" data-name="Rectangle 2184" class="cls-1" x="45.85" y="56.73" width="20.79" height="0.94" rx="0.47"/><rect id="Rectangle_2185" data-name="Rectangle 2185" class="cls-1" x="45.85" y="59.95" width="20.79" height="0.94" rx="0.47"/><g id="Group_1513" data-name="Group 1513"><g id="Group_1511" data-name="Group 1511"><path id="Path_6683" data-name="Path 6683" class="cls-20" d="M34.22,55.35a3.64,3.64,0,0,1,2.41,6l4.24,4.27a9.65,9.65,0,0,0-6.6-16.33Z"/><path id="Path_6684" data-name="Path 6684" class="cls-9" d="M36.28,61.75a3.64,3.64,0,0,1-6-2.77h0a3.65,3.65,0,0,1,3.47-3.64l.05-6a9.66,9.66,0,0,0,.13,19.31h0A9.52,9.52,0,0,0,40.5,66Z"/></g><rect id="Rectangle_2186" data-name="Rectangle 2186" class="cls-1" x="45.85" y="63.17" width="20.79" height="0.94" rx="0.47"/><rect id="Rectangle_2187" data-name="Rectangle 2187" class="cls-1" x="45.85" y="66.39" width="20.79" height="0.94" rx="0.47"/></g><rect id="Rectangle_2188" data-name="Rectangle 2188" class="cls-1" x="46.09" y="51.22" width="3.29" height="3.29"/><rect id="Rectangle_2189" data-name="Rectangle 2189" class="cls-1" x="51.84" y="51.22" width="3.29" height="3.29"/><rect id="Rectangle_2190" data-name="Rectangle 2190" class="cls-1" x="57.59" y="51.22" width="3.29" height="3.29"/><rect id="Rectangle_2191" data-name="Rectangle 2191" class="cls-1" x="63.35" y="51.22" width="3.29" height="3.29"/></g></g></g></g></svg>