<svg xmlns="http://www.w3.org/2000/svg" xmlns:xlink="http://www.w3.org/1999/xlink" viewBox="0 0 279.67 257.97"><defs><linearGradient id="linear-gradient" x1="-744.67" y1="-217.9" x2="-744.37" y2="-217.28" gradientTransform="matrix(250.91, -36.74, -32.99, -225.25, 179786.66, -76223.76)" gradientUnits="userSpaceOnUse"><stop offset="0" stop-color="#8f7b8f"/><stop offset="0.43" stop-color="#917d91"/><stop offset="0.59" stop-color="#968496"/><stop offset="0.7" stop-color="#a08fa0"/><stop offset="0.79" stop-color="#ada0af"/><stop offset="0.87" stop-color="#bfb6c1"/><stop offset="0.94" stop-color="#d4d1d8"/><stop offset="1" stop-color="#eef0f3"/><stop offset="1" stop-color="#f0f3f5"/></linearGradient></defs><title>Exercise Financial Authority</title><g id="Layer_2" data-name="Layer 2"><g id="Spend"><path id="Path_20835" data-name="Path 20835" d="M270.64,172.84c-5.72,15.81-13.52,30.53-21.53,40.26-33.08,40.18-76.59,30-96.52,25.53-44.08-10-101.79,27.2-135.33,17.8-20.4-5.71-21.71-28.86-9.21-66.14,5.39-16.11,13.37-34.86,23.49-56C61,72.88,117.52,12.44,144,8.47c53.81-8,64,97.19,91.81,88.21C286.29,80.39,285.92,130.54,270.64,172.84Z" style="opacity:0.30000000000000004;isolation:isolate;fill:url(#linear-gradient)"/><path d="M47,195.52l74.92-55.75s35.08,10,47.34,12c34.32,5.71,89.71,15.44,89.71,15.44L191.43,233s-78.79-23.4-94.8-28.09A268.27,268.27,0,0,0,47,195.52Z" style="fill:#163f59;opacity:0.30000000000000004"/><path d="M48,189.5l83.42-65s33.2,17.07,45.19,21.67c33.59,12.9,83.59,11.58,83.59,11.58l-78.58,76s-70.21-16.55-85.32-24.46A292.07,292.07,0,0,0,48,189.5Z" style="fill:#e5e8ec"/><path d="M164.49,57.34a9.64,9.64,0,0,1,3.82-2.85,9.33,9.33,0,1,1-5.07,12.57A11.23,11.23,0,0,0,164.49,57.34Z" style="fill:#282723"/><path d="M171.37,66.14c-.72-.89-3.48-.22-4.82.84-6.77,5.35-17,15.41-17,15.41s1.84,4.87,3.21,3.77c2.77-2.23,8.65-3.64,16.43-12.77C171.41,70.75,172.58,67.64,171.37,66.14Z" style="fill:#975140"/><path d="M140.55,109a6.34,6.34,0,0,0-.72,2.64c.1.65,1.08,3.66,1.08,3.66A3.78,3.78,0,0,0,141,113,12.43,12.43,0,0,1,140.55,109Z" style="fill:#e2c59c"/><path d="M140.5,111.11c-.64,1-.51,2.38,0,4a2.73,2.73,0,0,1-.07,2.35,18.13,18.13,0,0,1-1-3.35c-.16-.67-.28-1.37-.38-2C138.76,109.77,142.15,108.52,140.5,111.11Z" style="fill:#e2c59c"/><path d="M145.07,98.1c-1.7,2.64-3.71,5.62-4,7.42-.46,2.55.43,4.07-.54,5.59a5.12,5.12,0,0,0-.25.53c-.23.48-.57,1-.63,1.18s-.22.93-.28.64c-.5-2.66-.81-5.68-.59-6.3.43-1.28,3.12-8.21,4.65-10.58C145.13,93.9,147.36,94.54,145.07,98.1Z" style="fill:#fdc689"/><path d="M140.29,111s-.55-.35-.83.07a8.83,8.83,0,0,0-.89,2.9c-.1.65-.06,3.81-.06,3.81a3.68,3.68,0,0,0,.73-2.18A15.8,15.8,0,0,1,140.29,111Z" style="fill:#fdc689"/><path d="M145,92.12c2-.77,5.82-5.48,6.6-4.66-1.74,6-12.44,18.53-12.44,18.53Z" style="fill:#fdc689"/><path d="M146.57,100.28c-2,0-3.42-1-5-2,1.38-4.16,5.29-13.17,8.5-16.44,2.65-2.71,4.25-4,4.08.05-.09,1.93-2.25,7.44-3.62,10.62C149.29,95.42,148.27,98.6,146.57,100.28Z" style="fill:#975140"/><path d="M177.78,51.26a11.07,11.07,0,0,1,2-.61,10.93,10.93,0,0,0,.6,2,11.4,11.4,0,0,0,13.09,6.63,11.55,11.55,0,1,1-15.65-8Z" style="fill:#3f2a01"/><path d="M183.33,66.37s-3.38,7.94-7.92,9.33-6.82.55-7.61-1.25S166.57,69,167.56,68a12.08,12.08,0,0,0,2.75-3.78c.66-1.46.25-4-.42-5.94s-2.27-2-.75-3,.79-1.91,2.39-1.77,2.49-.5,2.6,1c.2,2.77.25,6.68,1.92,8.35C177.91,64.77,179.63,65.25,183.33,66.37Z" style="fill:#fdc689"/><path d="M167.51,77.19c.38-3.63-1.66-6.28.16-9.54.39-.7,1-.75,1.23-1.39,1.17,8.42,10.83,3.18,10.08-.32,1.83,1.64,6.56,3,6.6,3.34.42,3.86.52,7.76.9,11.63a6.36,6.36,0,0,1-1.42,4.4,4.61,4.61,0,0,1,.21.94l.33,1.87c.16,1.55,3.39,6.64,2.43,6.79l-13.21.42a18.71,18.71,0,0,1-2.54-4.58c-.7-1.51-2.9-6-2.9-6a2.75,2.75,0,0,1,0-.4C168.23,83.09,167.3,79,167.51,77.19Z" style="fill:#dbdac6"/><path d="M177.69,64.09s5.56-1,7.19,1.49c2.16,3.23,1.94,6.88,1.77,9.31-.2,2.83.23,6.44-.13,10.09-.44,4.44,3.48,8,2.69,7.4-.17-.13-5.54.29-8.47-.77s-1.64-6.11-1.55-7.73c.21-3.65-3.49-10.52-3.2-13.45A25,25,0,0,1,177.69,64.09Z" style="fill:#ad5c49"/><path d="M165.66,72A11.09,11.09,0,0,1,167,68.07c.61-1.26,3.25-3,2.81-2.82-.06,0-2.93,1.85-1,12,.32,1.73,2.17,5.68,3.21,8.3s2.45,7.56,2.45,7.56-2.77,1.09-2.83,1.54a22.7,22.7,0,0,0-1.46-7.46C166.32,78.38,165.37,76.91,165.66,72Z" style="fill:#ad5c49"/><path d="M132.93,164.88c-2.64,5.85-7.82,4.18-6.55-2.12,2.45-11.07,3.83-18.06,6-29.15a30.17,30.17,0,0,1,12.71,4.1C140.41,148,137.43,154.47,132.93,164.88Z" style="fill:#cdd5d8"/><path d="M182.64,13.62c4.84-16.48-2.31-18.79-8-2.59-9.62,27.22-32.27,95.24-42,122.41l12.48,4C153.05,109.72,174.51,41.33,182.64,13.62Z" style="fill:#474f59"/><rect x="136.11" y="130.44" width="4.17" height="13.95" transform="translate(-35.08 226.6) rotate(-72.07)" style="fill:#ffb600"/><path d="M129.78,162.19l7.4-22.92-5.54-1.79c-1.59,8-4.57,22.16-4.57,22.16Z" style="fill:#f7f8fc"/><path d="M138.46,135.31,182.2,0c-1.94-.08-4.91,3.45-7.58,11-9.62,27.21-32.27,95.22-42,122.38Z" style="fill:#596273"/><polygon points="138.46 135.31 132.6 133.41 132.21 133.28 130.92 137.25 131.64 137.48 137.18 139.27 138.46 135.31" style="fill:#ffc400"/><path d="M186.08,67c-.22-1.13-1-2-2.68-2.63-4.46-1.58-7.94,14.83-7.94,14.83s-.21,7.81,1.07,7.33c4.85-1.8,4.54-2.48,7.86-10.48C185.81,72.66,186.45,68.93,186.08,67Z" style="fill:#975140"/><path d="M164.72,75.37s-3.37-3.48-3.59-3.89-.08-.74-.17-1.77-.16-1.21-.28-2-.15-.9-.15-.9-.45.12-.48.45.08,1,0,1.23-.1-.58-.53-1.71a17.42,17.42,0,0,0-1.27-2.64c-.17-.29-.2-.32-.22-.32s-.27.1-.25.24.17.57.14.55a5.94,5.94,0,0,1-.6-.82c-.07-.12-.16-.28-.22-.37s-.37,0-.37.38c0,0-.16.14-.16.26a1.09,1.09,0,0,0,0,.18,1.66,1.66,0,0,0,0,.22,4.76,4.76,0,0,0,.1.77,5.38,5.38,0,0,1,.29,1s-.35-.64-.4-.61-.22.23-.17.35.2.54.58,1.42a7.53,7.53,0,0,1,.8,2.48,2.64,2.64,0,0,0,1.16,2c2.35,2,5.59,6.43,6.27,7S164.72,75.37,164.72,75.37Z" style="fill:#fdc689"/><path d="M161.21,76.51c.95-1.75,2.13-1.89,3.73-2.78,3,3.24,8,4.14,12.21,6.43,1.5.81,4.21,3.07,3.13,4.25a6.35,6.35,0,0,1-8.52.88C169.34,83.7,161.59,76.72,161.21,76.51Z" style="fill:#975140"/><path d="M171.62,53.72c2.92-.21,5,2.66,7.48,1a9.4,9.4,0,0,0,.83-4.57,8.35,8.35,0,1,0-16.63,1.19,9.15,9.15,0,0,0,2.86,6.09C171,63.51,168.11,54,171.62,53.72Z" style="fill:#3f2a01"/><path d="M168.11,47.74l.41-.13a8.94,8.94,0,0,0,4,4.82,13.32,13.32,0,0,0,1.55.86l.11,1.52a4.3,4.3,0,0,1-8.57.62L165.32,52A9.15,9.15,0,0,0,168.11,47.74Z" style="fill:#fdc689"/><path d="M164.45,198.77a18,18,0,0,1,3.33-.48c1.42-.12,2.48,0,3-.48.91-.78,1-3.84,1.2-3.78,1.94.6,1.73,6.86.79,6.8-1.3-.08-7.64-1-8.17-1.09S164.3,198.63,164.45,198.77Z" style="fill:#e2c59c"/><path d="M176.38,146.77c.62.83,3,3.17,3.38,5.75a32.13,32.13,0,0,1-.06,12.7c-1.47,8.05-4.08,20.86-5.26,26.25-1.05,4.85-.76,11-4.11,9.23,2.55-6.36,2.22-17,2.23-22.71C172.59,139.26,175.29,145.28,176.38,146.77Z" style="fill:#fdc689"/><path d="M165.85,198.49c-.53,1.52,4.3,1.38,5.58,1.11a15.12,15.12,0,0,1,2-.31h.15a.4.4,0,0,1,0,.11c-.09.86.17,2-1.19,1.89l-8.55-.89C156.83,199.68,165.86,198.45,165.85,198.49Z" style="fill:#ad5c49"/><path d="M179.84,94.59c1.66-.36,1.63,1.08,2.64,4.72,2,7.13,2.82,17.59,1.5,28.63-1.56,12.94-4.16,25.87-7.16,32.86-2-5.24-3.52-10-4.22-21.37C171.06,114.15,174.72,95.68,179.84,94.59Z" style="fill:#fdc689"/><path d="M179.21,96.39c1.52-.25,1.45,1,2.29,4,1.65,6,2.16,14.81.72,24-1.69,10.78-4.61,22.67-7.51,22.64-1.11,0-1.19-8.13-1.3-14.95C173.06,110.92,174.56,97.15,179.21,96.39Z" style="fill:#fdc689"/><path d="M187.39,202.43s1-.22,3.14-.61c1.52-.27,2.28-.46,2.66-1,.63-1,.5-3.88.9-3.86,2,.07,2.29,5.28,1.78,6.08-.66,1-7.06,1.23-8,.67C187.4,203.4,187.21,202.35,187.39,202.43Z" style="fill:#fdc689"/><path d="M188.2,150.78c.93-.36.2-4.16,1.81-1.6,2.62,4.16,4.56,13.42,4.73,18.39.27,7.88.86,20.4.87,25.72,0,4.79,1.56,10.54-2,9.54.49-6.72-1.18-16.56-2.58-21.85C186.24,162.92,185.33,151.9,188.2,150.78Z" style="fill:#fdc689"/><path d="M187.39,202.42c1.82,2.08,5.57.81,6.79.4,2.08-.72,2-1.39,2-1.35.16.81.42,2-.78,2.54a10.9,10.9,0,0,1-3.61.53c-1.19.11-8.14.43-8.33-.46C183.19,202.84,187.37,202.39,187.39,202.42Z" style="fill:#ad5c49"/><path d="M187.12,98.89c1.59-.4,1.6,1,2.69,4.46,2.13,6.82,3.25,16.87,2.3,27.56-1.11,12.52-3.41,23.42-6.1,30.25-2-5-3.5-7.86-4.52-18.84C179.25,118,182.22,100.09,187.12,98.89Z" style="fill:#fdc689"/><path d="M186.65,145.26c.86-.44,2.34,1.75,3.41,3.88,2.11,4.17,2.77,9.28,3.63,16.33,1,8.26,1.11,15.62.47,20.38-1.63-3.65-2.91-8.32-4.77-13.18C178.13,143.3,184,146.62,186.65,145.26Z" style="fill:#fdc689"/><path d="M186.81,97.34c1.58-.31,1.55,1,2.54,4.16,1.92,6.28,2.75,15.49,1.54,25.21A115.2,115.2,0,0,1,185.75,150c-.55,1.53-2.28,1.49-2.51.07a130.49,130.49,0,0,1-1.36-14.95C180.81,112.82,181.94,98.3,186.81,97.34Z" style="fill:#fdc689"/><path d="M172.19,142.45a14.07,14.07,0,0,1-.55-2.14c-.71-7.43-3.51-14.6,1.44-40.46a32.67,32.67,0,0,1,1.4-4.73c3.69-2.28,9.51.4,13.48-1.4a19.72,19.72,0,0,1,4.95,4.71c11,14.61,7.27,36.5,8.81,44.5A61.13,61.13,0,0,1,172.19,142.45Z" style="fill:#1d2039"/><path d="M174.31,95.24a3.63,3.63,0,0,0,1.74.07l10.71-.92c1-.08,1.7-.24,1.69-.36l-.06-.46a3.63,3.63,0,0,0-1.74-.07l-10.71.92c-.94.08-1.7.24-1.69.37Z" style="fill:#15100c"/><path d="M141.34,107.21c.41.73.1,2.28.48,2.64a5.6,5.6,0,0,0,2,1.26c-1.42,1-3.09-.82-4.16-1S140.27,105.32,141.34,107.21Z" style="fill:#fdc689"/><path d="M135.55,157.8l-.94,19.45s-7.12,1.81-11.82,13.48l5.62-22.16,2.9-11.71Z" style="fill:#c68a06"/><path d="M127.22,155.84l-8.89,16.69s5.1,6.71,3.84,17.83L126,175.73l2.51-7.36,3-11.43Z" style="fill:#ffb600"/><circle cx="126.95" cy="172.24" r="3.64" style="fill:#fff"/></g></g></svg>