<svg xmlns="http://www.w3.org/2000/svg" xmlns:xlink="http://www.w3.org/1999/xlink" viewBox="0 0 278.92 209.95"><defs><linearGradient id="linear-gradient" x1="30.32" y1="-241.66" x2="30.59" y2="-241.08" gradientTransform="matrix(264.23, 0, 0, -201.51, -7881.82, -48525.16)" gradientUnits="userSpaceOnUse"><stop offset="0" stop-color="#cac1ca"/><stop offset="1" stop-color="#fff"/></linearGradient><linearGradient id="linear-gradient-2" x1="32.09" y1="-270.85" x2="32.39" y2="-265.75" gradientTransform="matrix(63.04, 0, 0, -25.41, -1872.56, -6776.62)" gradientUnits="userSpaceOnUse"><stop offset="0" stop-color="#9cdbf0"/><stop offset="1" stop-color="#fff"/></linearGradient><linearGradient id="linear-gradient-3" x1="67.71" y1="-414.49" x2="67.43" y2="-413.29" gradientTransform="matrix(6.05, 0, 0, -6.02, -286.66, -2110.37)" gradientUnits="userSpaceOnUse"><stop offset="0" stop-color="#fff"/><stop offset="1"/></linearGradient><linearGradient id="linear-gradient-4" x1="58.71" y1="-504.97" x2="58.5" y2="-503.62" gradientTransform="matrix(6.66, 0, 0, -3.22, -303.9, -1454.35)" xlink:href="#linear-gradient-3"/><linearGradient id="linear-gradient-5" x1="51.73" y1="-273.59" x2="52.73" y2="-273.59" gradientTransform="matrix(6.98, 0, 0, -20.91, -118.13, -5626.42)" xlink:href="#linear-gradient-3"/><linearGradient id="linear-gradient-6" x1="75.21" y1="-497.33" x2="77.27" y2="-498.01" gradientTransform="matrix(3.34, 0, 0, -2.89, -13.49, -1365.34)" xlink:href="#linear-gradient-3"/></defs><title>KM Spend</title><g id="Layer_2" data-name="Layer 2"><g id="Spend"><path id="Path_20834" data-name="Path 20834" d="M50.23,95.2C6,143-18.17,181.43,16.49,195c27.21,10.63,92.15-6.74,128.33,4.76,16.36,5.2,59.79,23.06,91.56-5.84,28.25-25.71,59.47-109-1.1-97.1-24.33,4.77-4.53-76.07-50.53-80.1C152.14,13.83,87.44,55,50.23,95.2Z" style="fill:#7d677d;opacity:0.172000005841255;isolation:isolate"/><path id="Path_20835" data-name="Path 20835" d="M264.29,152.42c-7.17,12.49-16.06,23.8-24.49,30.93-34.8,29.45-72.33,15.68-89.54,9.5-38.07-13.68-94.47,10.24-123.2-1.68-17.47-7.25-15.61-26.7.42-56.24,6.93-12.77,16.5-27.42,28.31-43.79C90.13,43.54,148.52.07,172.73,0c49.11-.14,44.42,88.8,70.46,84.71C290.37,77.29,283.48,119,264.29,152.42Z" style="opacity:0.787999987602234;isolation:isolate;fill:url(#linear-gradient)"/><ellipse id="Ellipse_481" data-name="Ellipse 481" cx="140.67" cy="166.15" rx="74.13" ry="3.97" style="fill:#9faad4;opacity:0.219999998807907;isolation:isolate"/><ellipse id="Ellipse_482" data-name="Ellipse 482" cx="126.93" cy="176.62" rx="12.23" ry="1.79" style="fill:#9faad4;opacity:0.219999998807907;isolation:isolate"/><path id="Path_20836" data-name="Path 20836" d="M112.29,56.92l.17,1.12s-1.08.57-1.38,4.06-18,.88-18,.88-.54-5.06-.66-8.61,1.44-6.59,2.39-6.78S104,47,108.27,49,112.29,56.92,112.29,56.92Z" style="fill:#9da057"/><path id="Path_20837" data-name="Path 20837" d="M116.75,37.49a2.76,2.76,0,0,1-2.94,2.57h0c-1.88,0-5.88.57-6.74,2.37A3,3,0,0,1,104,43.87a1.37,1.37,0,0,1-.81-1.69c.26-1.33-1.08-3.36-.39-5.39s2.77-4.71,5.07-3.57,3.17-.95,6.06.09A4.55,4.55,0,0,1,116.75,37.49Z" style="fill:#3f2a01"/><path id="Path_20838" data-name="Path 20838" d="M69.08,137.24c-1,.24-1.14.43-1.36,1.45-.23-1-.41-1.21-1.36-1.45,1-.23,1.13-.43,1.36-1.44C68,136.81,68.13,137,69.08,137.24Z" style="fill:#fff"/><g id="Group_11422" data-name="Group 11422" style="opacity:0.349999994039536"><g id="Group_11416" data-name="Group 11416"><rect id="Rectangle_5266" data-name="Rectangle 5266" x="100.36" y="88.17" width="4.89" height="20.42" style="fill:#004b6a"/></g><g id="Group_11417" data-name="Group 11417"><rect id="Rectangle_5267" data-name="Rectangle 5267" x="93.94" y="90.11" width="4.89" height="18.48" style="fill:#004b6a"/></g><g id="Group_11418" data-name="Group 11418"><rect id="Rectangle_5268" data-name="Rectangle 5268" x="87.53" y="92.06" width="4.89" height="16.53" style="fill:#004b6a"/></g><g id="Group_11419" data-name="Group 11419"><rect id="Rectangle_5269" data-name="Rectangle 5269" x="81.11" y="94.97" width="4.89" height="13.61" style="fill:#004b6a"/></g><g id="Group_11420" data-name="Group 11420"><rect id="Rectangle_5270" data-name="Rectangle 5270" x="106.71" y="94.97" width="4.89" height="13.61" style="fill:#004b6a"/></g><g id="Group_11421" data-name="Group 11421"><rect id="Rectangle_5271" data-name="Rectangle 5271" x="74.69" y="89.14" width="4.89" height="19.45" style="fill:#004b6a"/></g></g><g id="Group_11426" data-name="Group 11426"><g id="Group_11423" data-name="Group 11423"><path id="Path_20839" data-name="Path 20839" d="M85.73,69.21a.94.94,0,1,1-.94-1,1,1,0,0,1,.94,1Z" style="fill:#004b6a"/></g><g id="Group_11424" data-name="Group 11424"><path id="Path_20840" data-name="Path 20840" d="M80.52,69.21a.94.94,0,0,1-1.87-.11.94.94,0,0,1,.94-.89,1,1,0,0,1,.93,1Z" style="fill:#004b6a"/></g><g id="Group_11425" data-name="Group 11425"><path id="Path_20841" data-name="Path 20841" d="M75.32,69.21a.93.93,0,0,1-1,.88,1,1,0,0,1-.89-1,1,1,0,0,1,.94-.89,1,1,0,0,1,.94,1Z" style="fill:#004b6a"/></g></g><g id="Group_11430" data-name="Group 11430"><g id="Group_11427" data-name="Group 11427"><path id="Path_20842" data-name="Path 20842" d="M76.35,129.68h0a1.72,1.72,0,0,1-1.66-1.76h0a1.7,1.7,0,0,1,1.66-1.76h0A1.71,1.71,0,0,1,78,127.92h0A1.72,1.72,0,0,1,76.35,129.68Z" style="fill:#004b6a;opacity:0.349999994039536;isolation:isolate"/><path id="Path_20843" data-name="Path 20843" d="M106.18,129.68H82.77a1.72,1.72,0,0,1-1.67-1.76h0a1.71,1.71,0,0,1,1.67-1.76h23.41a1.7,1.7,0,0,1,1.66,1.76h0A1.71,1.71,0,0,1,106.18,129.68Z" style="fill:#004b6a"/></g><g id="Group_11428" data-name="Group 11428"><path id="Path_20844" data-name="Path 20844" d="M76.35,123.85h0a1.72,1.72,0,0,1-1.66-1.77h0a1.72,1.72,0,0,1,1.66-1.76h0A1.72,1.72,0,0,1,78,122.08h0A1.73,1.73,0,0,1,76.35,123.85Z" style="fill:#004b6a;opacity:0.349999994039536;isolation:isolate"/><path id="Path_20845" data-name="Path 20845" d="M106.18,123.85H82.77a1.73,1.73,0,0,1-1.67-1.77h0a1.72,1.72,0,0,1,1.67-1.76h23.41a1.71,1.71,0,0,1,1.66,1.76h0A1.71,1.71,0,0,1,106.18,123.85Z" style="fill:#004b6a"/></g><g id="Group_11429" data-name="Group 11429"><path id="Path_20846" data-name="Path 20846" d="M76.35,118h0a1.72,1.72,0,0,1-1.66-1.76h0a1.72,1.72,0,0,1,1.66-1.77h0A1.73,1.73,0,0,1,78,116.25h0A1.72,1.72,0,0,1,76.35,118Z" style="fill:#004b6a;opacity:0.349999994039536;isolation:isolate"/><path id="Path_20847" data-name="Path 20847" d="M106.18,118H82.77a1.72,1.72,0,0,1-1.67-1.76h0a1.73,1.73,0,0,1,1.67-1.77h23.41a1.71,1.71,0,0,1,1.66,1.77h0A1.71,1.71,0,0,1,106.18,118Z" style="fill:#004b6a"/></g></g><path id="Path_20848" data-name="Path 20848" d="M130.88,108.51h61.74S191,82.37,182.37,82.37s-7.78,15.31-12.62,14.35c-3.57-.71-3.79-5.14-7.05-5.14-4.59,0-6.14,12.34-12.86,4.8-5.4-6.07-7,8.42-11.24,5.66C132.57,98.14,130.88,108.51,130.88,108.51Z" style="fill:#004b6a"/><path id="Path_20849" data-name="Path 20849" d="M193.21,111.17h-3.68v-.87h-.26v.87h-3.16v-.87h-.26v.87H182.7v-.87h-.27v.87h-3.15v-.87H179v.87h-3.19v-.87h-.27v.87H172.4v-.87h-.26v.87H169v-.87h-.27v.87h-3.16v-.87h-.27v.87H162.1v-.87h-.26v.87h-3.15v-.87h-.27v.87h-3.15v-.87H155v.87h-3.17v-.87h-.26v.87h-3.19v-.87h-.27v.87h-3.24v-.87h-.28v.87h-3.14v-.87h-.28v.87H138v-.87h-.28v.87h-3.14v-.87h-.28v.87h-3.17v-.87h-.28v1.17h62.44v-.18A.11.11,0,0,0,193.21,111.17Z" style="fill:#004b6a"/><path id="Path_20850" data-name="Path 20850" d="M130.88,108.51s5.1-.1,7.52-4.28c2.91-5,5.94-2.06,7.95.14,2.85,3.1,5.75-8.87,9.65-7.43s4.25,9.27,9.18,7.36c4.2-1.63,5.37-4.15,9.18-2.39,5,2.3,6.54-6.88,10.9-1.41,4.2,5.28,4.74,7.77,7.36,8Z" style="fill:#004b6a;opacity:0.349999994039536;isolation:isolate"/><g id="Group_11431" data-name="Group 11431"><path id="Path_20851" data-name="Path 20851" d="M175.94,142.9a6.28,6.28,0,1,1-6.75-6.62,3.87,3.87,0,0,1,.48,0,6.18,6.18,0,0,1,5.3,3.1A6.94,6.94,0,0,1,175.94,142.9Z" style="fill:#004b6a"/><path id="Path_20852" data-name="Path 20852" d="M175,139.35l-5.3,3.55-.48-6.62a3.87,3.87,0,0,1,.48,0A6.18,6.18,0,0,1,175,139.35Z" style="fill:#004b6a;opacity:0.349999994039536;isolation:isolate"/></g><g id="Group_11432" data-name="Group 11432"><path id="Path_20853" data-name="Path 20853" d="M192.6,142.9a6.47,6.47,0,0,1-6.27,6.65,6.32,6.32,0,0,1-6-4.8,6.75,6.75,0,0,1-.25-1.84,6.5,6.5,0,0,1,5.78-6.63,3.85,3.85,0,0,1,.48,0,6.17,6.17,0,0,1,5.3,3.1A6.81,6.81,0,0,1,192.6,142.9Z" style="fill:#004b6a"/><path id="Path_20854" data-name="Path 20854" d="M191.63,139.35l-5.3,3.55-6,1.85a7.17,7.17,0,0,1-.24-1.85,6.49,6.49,0,0,1,5.78-6.62,3.87,3.87,0,0,1,.48,0A6.18,6.18,0,0,1,191.63,139.35Z" style="fill:#004b6a;opacity:0.349999994039536;isolation:isolate"/></g><g id="Group_11433" data-name="Group 11433"><path id="Path_20855" data-name="Path 20855" d="M159.58,142.9a6.28,6.28,0,0,1-12.54.75q0-.37,0-.75a7,7,0,0,1,1.25-4,6.13,6.13,0,0,1,5-2.65,6.28,6.28,0,0,1,5.91,4.45A6.84,6.84,0,0,1,159.58,142.9Z" style="fill:#004b6a"/><path id="Path_20856" data-name="Path 20856" d="M159.23,140.71l-5.92,2.19-5-4a6.13,6.13,0,0,1,5-2.65A6.29,6.29,0,0,1,159.23,140.71Z" style="fill:#004b6a;opacity:0.349999994039536;isolation:isolate"/></g><g id="Group_11434" data-name="Group 11434"><path id="Path_20857" data-name="Path 20857" d="M143.07,142.9a6.47,6.47,0,0,1-6.27,6.65,6,6,0,0,1-4.35-1.86,6.77,6.77,0,0,1-1.91-4.78,6.86,6.86,0,0,1,1.25-4,6.13,6.13,0,0,1,5-2.66,6.28,6.28,0,0,1,5.91,4.45A6.84,6.84,0,0,1,143.07,142.9Z" style="fill:#004b6a"/><path id="Path_20858" data-name="Path 20858" d="M136.8,142.9l-1.55,6.45a6.22,6.22,0,0,1-2.8-1.66Z" style="fill:#004b6a;opacity:0.349999994039536;isolation:isolate"/></g><path id="Path_20859" data-name="Path 20859" d="M170.29,116.18H130.17a.61.61,0,0,1-.59-.63h0a.61.61,0,0,1,.59-.63h40.12a.61.61,0,0,1,.6.63h0a.61.61,0,0,1-.59.63Z" style="fill:#004b6a"/><g id="Group_11435" data-name="Group 11435"><rect id="Rectangle_5272" data-name="Rectangle 5272" x="130.78" y="116.52" width="61.84" height="13.33" rx="2.31" style="fill:#004b6a"/><path id="Path_20860" data-name="Path 20860" d="M173.67,120.37H133.55a.61.61,0,0,1-.59-.63h0a.61.61,0,0,1,.59-.63h40.12a.61.61,0,0,1,.6.63h0a.61.61,0,0,1-.6.63Z" style="fill:#004b6a"/><path id="Path_20861" data-name="Path 20861" d="M189.24,123.82H155.4a.62.62,0,0,1-.59-.63h0a.62.62,0,0,1,.59-.64h33.84a.61.61,0,0,1,.6.63h0a.61.61,0,0,1-.59.63Z" style="fill:#004b6a"/><path id="Path_20862" data-name="Path 20862" d="M189.25,120.37H177.17a.61.61,0,0,1-.6-.63h0a.61.61,0,0,1,.6-.63h12.08a.62.62,0,0,1,.6.63h0a.61.61,0,0,1-.6.63Z" style="fill:#004b6a"/><path id="Path_20863" data-name="Path 20863" d="M151.49,123.82h-18a.61.61,0,0,1-.6-.63h0a.62.62,0,0,1,.6-.64h18a.62.62,0,0,1,.59.64h0A.61.61,0,0,1,151.49,123.82Z" style="fill:#004b6a"/><path id="Path_20864" data-name="Path 20864" d="M179.44,127.35h-32a.62.62,0,0,1-.59-.64h0a.61.61,0,0,1,.59-.63h32a.63.63,0,0,1,.6.63h0A.64.64,0,0,1,179.44,127.35Z" style="fill:#004b6a"/><path id="Path_20865" data-name="Path 20865" d="M143.27,127.35H133.5a.61.61,0,0,1-.6-.63h0a.62.62,0,0,1,.6-.63h9.77a.62.62,0,0,1,.59.63h0A.63.63,0,0,1,143.27,127.35Z" style="fill:#004b6a"/><path id="Path_20866" data-name="Path 20866" d="M189.25,127.35h-5.82a.63.63,0,0,1-.59-.64h0a.62.62,0,0,1,.59-.63h5.82a.61.61,0,0,1,.6.63h0a.62.62,0,0,1-.6.64Z" style="fill:#004b6a"/></g><g id="Group_11436" data-name="Group 11436"><rect id="Rectangle_5273" data-name="Rectangle 5273" x="74.8" y="136.2" width="50.24" height="13.33" rx="2.31" style="fill:#004b6a"/><path id="Path_20867" data-name="Path 20867" d="M109.53,140.1H77.16a.61.61,0,0,1-.6-.63h0a.61.61,0,0,1,.6-.63h32.37a.61.61,0,0,1,.6.63h0A.61.61,0,0,1,109.53,140.1Z" style="fill:#004b6a"/><path id="Path_20868" data-name="Path 20868" d="M122.19,143.54H101.35a.61.61,0,0,1-.6-.63h0a.61.61,0,0,1,.6-.63h20.84a.62.62,0,0,1,.6.63h0a.61.61,0,0,1-.6.63Z" style="fill:#004b6a"/><path id="Path_20869" data-name="Path 20869" d="M122.19,140.1H112.6a.61.61,0,0,1-.6-.63h0a.61.61,0,0,1,.6-.63h9.59a.61.61,0,0,1,.6.62h0a.61.61,0,0,1-.6.63Z" style="fill:#004b6a"/><path id="Path_20870" data-name="Path 20870" d="M98.14,143.54h-21a.62.62,0,0,1-.6-.63h0a.61.61,0,0,1,.6-.63h21a.61.61,0,0,1,.6.63h0A.61.61,0,0,1,98.14,143.54Z" style="fill:#004b6a"/><path id="Path_20871" data-name="Path 20871" d="M84.83,147.07H77.11a.62.62,0,0,1-.6-.63h0a.62.62,0,0,1,.6-.63h7.71a.62.62,0,0,1,.6.63h0A.63.63,0,0,1,84.83,147.07Z" style="fill:#004b6a"/></g><path id="Path_20872" data-name="Path 20872" d="M205.84,68.75v90.76a2.84,2.84,0,0,1-2.75,2.92H73.38a2.84,2.84,0,0,1-2.75-2.92h0V68.75a2.82,2.82,0,0,1,2.74-2.92h130l.14,0h.09l.09,0,.06,0h0l.1,0a1.69,1.69,0,0,1,.27.1,1.92,1.92,0,0,1,.25.12l.1.06.1.07.09.07.08.06.1.08.09.08a2.85,2.85,0,0,1,.23.26l.05.06.1.15.06.09.05.09a.25.25,0,0,0,0,.07h0a1.17,1.17,0,0,0,.05.11l.06.14,0,.07.05.12a.5.5,0,0,0,0,.13c0,.12.06.24.08.36a.51.51,0,0,0,0,.13v0s0,.09,0,.14v.21Z" style="fill:#dcf4fe"/><path id="Path_20873" data-name="Path 20873" d="M73.38,165.5a5.84,5.84,0,0,1-5.66-6V68.74a5.84,5.84,0,0,1,5.66-6h130l.25,0,.32,0,.13,0,.14,0,.17,0,.12,0,.21.06.51.2a5.28,5.28,0,0,1,.53.27,1.37,1.37,0,0,1,.2.13l.23.15.2.15.16.13.18.15.17.16a4.6,4.6,0,0,1,.47.52l0,0,1,1.76,0,.06a1.42,1.42,0,0,0,.07.22V67a6,6,0,0,1,.17.73,1,1,0,0,0,0,.17l0,.24s0,.09,0,.13a2.62,2.62,0,0,1,0,.28v91a5.83,5.83,0,0,1-5.65,6Z" style="fill:#202952"/><path id="Path_20874" data-name="Path 20874" d="M205.84,68.75v90.76a2.84,2.84,0,0,1-2.75,2.92H73.38a2.84,2.84,0,0,1-2.75-2.92h0V68.75a2.82,2.82,0,0,1,2.74-2.92h130l.14,0h.09l.09,0,.06,0h0l.1,0a1.69,1.69,0,0,1,.27.1,1.92,1.92,0,0,1,.25.12l.1.06.1.07.09.07.08.06.1.08.09.08a2.85,2.85,0,0,1,.23.26l.05.06.1.15.06.09.05.09a.25.25,0,0,0,0,.07h0a1.17,1.17,0,0,0,.05.11l.06.14,0,.07.05.12a.5.5,0,0,0,0,.13c0,.12.06.24.08.36a.51.51,0,0,0,0,.13v0s0,.09,0,.14v.21Z" style="fill:#8f7b8f"/><rect id="Rectangle_5274" data-name="Rectangle 5274" x="74.57" y="76.58" width="127.13" height="81.6" rx="3.84" style="fill:#fff"/><g id="Group_11443" data-name="Group 11443" style="opacity:0.349999994039536"><g id="Group_11437" data-name="Group 11437"><rect id="Rectangle_5275" data-name="Rectangle 5275" x="109.33" y="88.17" width="4.89" height="20.42" style="fill:#8ed2e8"/></g><g id="Group_11438" data-name="Group 11438"><rect id="Rectangle_5276" data-name="Rectangle 5276" x="102.92" y="90.11" width="4.89" height="18.48" style="fill:#8ed2e8"/></g><g id="Group_11439" data-name="Group 11439"><rect id="Rectangle_5277" data-name="Rectangle 5277" x="96.5" y="92.06" width="4.89" height="16.53" style="fill:#8ed2e8"/></g><g id="Group_11440" data-name="Group 11440"><rect id="Rectangle_5278" data-name="Rectangle 5278" x="90.08" y="94.97" width="4.89" height="13.61" style="fill:#8ed2e8"/></g><g id="Group_11441" data-name="Group 11441"><rect id="Rectangle_5279" data-name="Rectangle 5279" x="115.68" y="94.97" width="4.89" height="13.61" style="fill:#8ed2e8"/></g><g id="Group_11442" data-name="Group 11442"><rect id="Rectangle_5280" data-name="Rectangle 5280" x="83.66" y="89.14" width="4.89" height="19.45" style="fill:#8ed2e8"/></g></g><path id="Path_20875" data-name="Path 20875" d="M205.84,68.74v3.57H70.63V68.74a2.84,2.84,0,0,1,2.74-2.92H203.09A2.84,2.84,0,0,1,205.84,68.74Z" style="fill:#37193b"/><g id="Group_11447" data-name="Group 11447"><g id="Group_11444" data-name="Group 11444"><path id="Path_20876" data-name="Path 20876" d="M90.05,69.21a.94.94,0,0,1-1.87-.11.94.94,0,0,1,.94-.89,1,1,0,0,1,.93,1Z" style="fill:#dcf4fe"/></g><g id="Group_11445" data-name="Group 11445"><path id="Path_20877" data-name="Path 20877" d="M84.85,69.21a.93.93,0,0,1-1,.88.94.94,0,0,1-.88-1,1,1,0,0,1,.94-.89,1,1,0,0,1,.94,1Z" style="fill:#dcf4fe"/></g><g id="Group_11446" data-name="Group 11446"><path id="Path_20878" data-name="Path 20878" d="M79.65,69.21a.94.94,0,0,1-1.88-.11,1,1,0,0,1,.94-.89,1,1,0,0,1,.94,1Z" style="fill:#dcf4fe"/></g></g><g id="Group_11451" data-name="Group 11451"><g id="Group_11448" data-name="Group 11448"><path id="Path_20879" data-name="Path 20879" d="M85.33,129.68h0a1.71,1.71,0,0,1-1.66-1.76h0a1.7,1.7,0,0,1,1.66-1.76h0A1.7,1.7,0,0,1,87,127.92h0A1.72,1.72,0,0,1,85.33,129.68Z" style="fill:#8ed2e8"/><path id="Path_20880" data-name="Path 20880" d="M115.16,129.68H91.74a1.72,1.72,0,0,1-1.66-1.76h0a1.7,1.7,0,0,1,1.66-1.76h23.42a1.7,1.7,0,0,1,1.66,1.76h0A1.72,1.72,0,0,1,115.16,129.68Z" style="fill:#d0ebf5"/></g><g id="Group_11449" data-name="Group 11449"><path id="Path_20881" data-name="Path 20881" d="M85.33,123.85h0a1.71,1.71,0,0,1-1.66-1.77h0a1.71,1.71,0,0,1,1.66-1.76h0A1.72,1.72,0,0,1,87,122.08h0A1.72,1.72,0,0,1,85.33,123.85Z" style="fill:#8ed2e8"/><path id="Path_20882" data-name="Path 20882" d="M115.16,123.85H91.74a1.72,1.72,0,0,1-1.66-1.77h0a1.72,1.72,0,0,1,1.66-1.76h23.42a1.72,1.72,0,0,1,1.66,1.76h0A1.72,1.72,0,0,1,115.16,123.85Z" style="fill:#d0ebf5"/></g><g id="Group_11450" data-name="Group 11450"><path id="Path_20883" data-name="Path 20883" d="M85.33,118h0a1.71,1.71,0,0,1-1.66-1.76h0a1.71,1.71,0,0,1,1.66-1.77h0A1.72,1.72,0,0,1,87,116.25h0A1.72,1.72,0,0,1,85.33,118Z" style="fill:#8ed2e8"/><path id="Path_20884" data-name="Path 20884" d="M115.16,118H91.74a1.72,1.72,0,0,1-1.66-1.76h0a1.72,1.72,0,0,1,1.66-1.77h23.42a1.72,1.72,0,0,1,1.66,1.77h0A1.72,1.72,0,0,1,115.16,118Z" style="fill:#d0ebf5"/></g></g><g id="Group_11452" data-name="Group 11452"><rect id="Rectangle_5281" data-name="Rectangle 5281" x="83.77" y="136.2" width="50.24" height="13.33" rx="2.31" style="fill:#d0ebf5"/><path id="Path_20885" data-name="Path 20885" d="M118.5,140.1H86.13a.61.61,0,0,1-.59-.63h0a.61.61,0,0,1,.59-.63H118.5a.6.6,0,0,1,.6.62h0a.61.61,0,0,1-.59.63Z" style="fill:#fff"/><path id="Path_20886" data-name="Path 20886" d="M131.16,143.54H110.32a.61.61,0,0,1-.6-.63h0a.61.61,0,0,1,.6-.63h20.84a.62.62,0,0,1,.6.63h0A.62.62,0,0,1,131.16,143.54Z" style="fill:#fff"/><path id="Path_20887" data-name="Path 20887" d="M131.16,140.1h-9.59a.61.61,0,0,1-.6-.63h0a.61.61,0,0,1,.6-.63h9.59a.61.61,0,0,1,.6.63h0a.61.61,0,0,1-.6.63Z" style="fill:#fff"/><path id="Path_20888" data-name="Path 20888" d="M107.11,143.54h-21a.61.61,0,0,1-.6-.63h0a.61.61,0,0,1,.6-.63h21a.61.61,0,0,1,.6.63h0a.61.61,0,0,1-.6.63Z" style="fill:#fff"/><path id="Path_20889" data-name="Path 20889" d="M93.8,147.07H86.09a.62.62,0,0,1-.59-.64h0a.61.61,0,0,1,.59-.63H93.8a.62.62,0,0,1,.6.63h0A.63.63,0,0,1,93.8,147.07Z" style="fill:#fff"/></g><line id="Line_191" data-name="Line 191" x1="110.97" y1="63.68" x2="110.97" y2="64.21" style="fill:none"/><g id="Group_11501" data-name="Group 11501"><g id="Group_11464" data-name="Group 11464"><g id="Group_11454" data-name="Group 11454"><g id="Group_11453" data-name="Group 11453"><path id="Path_20890" data-name="Path 20890" d="M138.19,144.15c0-6.57-5.05-11.88-11.25-11.86s-11.21,5.35-11.2,11.92,5.05,11.88,11.25,11.86S138.21,150.71,138.19,144.15Z" style="fill:#d69136"/></g></g><g id="Group_11456" data-name="Group 11456"><g id="Group_11455" data-name="Group 11455"><ellipse id="Ellipse_483" data-name="Ellipse 483" cx="126.97" cy="144.18" rx="10.6" ry="11.23" transform="translate(-0.29 0.25) rotate(-0.11)" style="fill:#ffb600"/></g></g><g id="Group_11458" data-name="Group 11458"><g id="Group_11457" data-name="Group 11457"><path id="Path_20891" data-name="Path 20891" d="M135.38,146.59l-.32-.09a9.68,9.68,0,0,0,.29-2.34,8.66,8.66,0,0,0-8.4-8.86,8,8,0,0,0-4.36,1.31l-.17-.3A8.36,8.36,0,0,1,127,135a9,9,0,0,1,8.73,9.2A9.94,9.94,0,0,1,135.38,146.59Z" style="fill:#fff"/></g></g><g id="Group_11460" data-name="Group 11460"><g id="Group_11459" data-name="Group 11459"><path id="Path_20892" data-name="Path 20892" d="M127,153.41a9,9,0,0,1-8.73-9.21,9.54,9.54,0,0,1,1.61-5.38l.27.2a9.18,9.18,0,0,0-1.55,5.18,8.65,8.65,0,0,0,8.4,8.86,8.26,8.26,0,0,0,7.09-4.18l.28.18A8.58,8.58,0,0,1,127,153.41Z" style="fill:#fff"/></g></g><g id="Group_11463" data-name="Group 11463"><g id="Group_11462" data-name="Group 11462"><g id="Group_11461" data-name="Group 11461"><path id="Path_20893" data-name="Path 20893" d="M127.73,150.63h-1.27v-1.45a5.11,5.11,0,0,1-2.36-.64l-.09,0v-2.38l.27.23a3.68,3.68,0,0,0,1.07.57,5.34,5.34,0,0,0,1.11.29V145a4.89,4.89,0,0,1-2-1.3,2.86,2.86,0,0,1-.6-1.81,2.76,2.76,0,0,1,.77-2,3,3,0,0,1,1.85-.92v-1.3h1.28V139a4.55,4.55,0,0,1,2,.47l.09.05v2.27l-.25-.16a4.41,4.41,0,0,0-1.79-.66v2.28a5.2,5.2,0,0,1,2,1.23,2.66,2.66,0,0,1,.66,1.81,2.7,2.7,0,0,1-.73,2,3.26,3.26,0,0,1-1.91.88Zm-.94-.35h.61v-1.47l.15,0a3,3,0,0,0,1.87-.8,2.33,2.33,0,0,0,.63-1.71,2.26,2.26,0,0,0-.58-1.56,5,5,0,0,0-2-1.19l-.11,0v-2.92l.19,0a5.11,5.11,0,0,1,1.86.58v-1.44a4.74,4.74,0,0,0-1.89-.39h-.16v-1.24h-.61v1.26h-.15a2.81,2.81,0,0,0-1.8.84,2.43,2.43,0,0,0-.67,1.71,2.55,2.55,0,0,0,.52,1.59,4.83,4.83,0,0,0,2,1.23l.11.05v2.8h-.18a5,5,0,0,1-1.37-.32,4.14,4.14,0,0,1-.9-.43v1.46a4.9,4.9,0,0,0,2.28.56h.17Zm.61-2.71V145l.23.1c.68.31,1,.73,1,1.26a1.1,1.1,0,0,1-1,1.15h0Zm.32-2v1.58a.72.72,0,0,0,.6-.77,1,1,0,0,0-.6-.82Zm-1-2.32-.24-.12a1.56,1.56,0,0,1-1-1.34,1.12,1.12,0,0,1,1-1.17l.19,0Zm-.33-2.23a.73.73,0,0,0-.57.77,1,1,0,0,0,.57.88Z" style="fill:#fff"/></g></g></g><path id="Path_20894" data-name="Path 20894" d="M133.37,143.09c-.71.18-.84.33-1,1.08-.17-.75-.3-.9-1-1.07.7-.18.84-.32,1-1.07C132.53,142.78,132.66,142.92,133.37,143.09Z" style="fill:#fff"/></g><g id="Group_11476" data-name="Group 11476"><rect id="Rectangle_5282" data-name="Rectangle 5282" x="115.83" y="170.51" width="22.2" height="5.95" style="fill:#d69136"/><rect id="Rectangle_5283" data-name="Rectangle 5283" x="115.83" y="171.14" width="22.2" height="5.32" style="fill:#ffb600"/><g id="Group_11475" data-name="Group 11475"><g id="Group_11465" data-name="Group 11465"><rect id="Rectangle_5284" data-name="Rectangle 5284" x="135.77" y="172" width="0.69" height="3.6" style="fill:#d69136"/></g><g id="Group_11466" data-name="Group 11466"><rect id="Rectangle_5285" data-name="Rectangle 5285" x="133.7" y="172" width="0.69" height="3.6" style="fill:#d69136"/></g><g id="Group_11467" data-name="Group 11467"><rect id="Rectangle_5286" data-name="Rectangle 5286" x="131.64" y="172" width="0.69" height="3.6" style="fill:#d69136"/></g><g id="Group_11468" data-name="Group 11468"><rect id="Rectangle_5287" data-name="Rectangle 5287" x="129.57" y="172" width="0.69" height="3.6" style="fill:#d69136"/></g><g id="Group_11469" data-name="Group 11469"><rect id="Rectangle_5288" data-name="Rectangle 5288" x="127.51" y="172" width="0.69" height="3.6" style="fill:#d69136"/></g><g id="Group_11470" data-name="Group 11470"><rect id="Rectangle_5289" data-name="Rectangle 5289" x="125.44" y="172" width="0.69" height="3.6" style="fill:#d69136"/></g><g id="Group_11471" data-name="Group 11471"><rect id="Rectangle_5290" data-name="Rectangle 5290" x="123.37" y="172" width="0.69" height="3.6" style="fill:#d69136"/></g><g id="Group_11472" data-name="Group 11472"><rect id="Rectangle_5291" data-name="Rectangle 5291" x="121.31" y="172" width="0.69" height="3.6" style="fill:#d69136"/></g><g id="Group_11473" data-name="Group 11473"><rect id="Rectangle_5292" data-name="Rectangle 5292" x="119.24" y="172" width="0.69" height="3.6" style="fill:#d69136"/></g><g id="Group_11474" data-name="Group 11474"><rect id="Rectangle_5293" data-name="Rectangle 5293" x="117.18" y="172" width="0.69" height="3.6" style="fill:#d69136"/></g></g></g><g id="Group_11488" data-name="Group 11488"><rect id="Rectangle_5294" data-name="Rectangle 5294" x="116.75" y="164.56" width="22.2" height="5.95" style="fill:#d69136"/><rect id="Rectangle_5295" data-name="Rectangle 5295" x="116.75" y="165.19" width="22.2" height="5.32" style="fill:#ffb600"/><g id="Group_11487" data-name="Group 11487"><g id="Group_11477" data-name="Group 11477"><rect id="Rectangle_5296" data-name="Rectangle 5296" x="136.69" y="166.05" width="0.69" height="3.6" style="fill:#d69136"/></g><g id="Group_11478" data-name="Group 11478"><rect id="Rectangle_5297" data-name="Rectangle 5297" x="134.63" y="166.05" width="0.69" height="3.6" style="fill:#d69136"/></g><g id="Group_11479" data-name="Group 11479"><rect id="Rectangle_5298" data-name="Rectangle 5298" x="132.56" y="166.05" width="0.69" height="3.6" style="fill:#d69136"/></g><g id="Group_11480" data-name="Group 11480"><rect id="Rectangle_5299" data-name="Rectangle 5299" x="130.49" y="166.05" width="0.69" height="3.6" style="fill:#d69136"/></g><g id="Group_11481" data-name="Group 11481"><rect id="Rectangle_5300" data-name="Rectangle 5300" x="128.43" y="166.05" width="0.69" height="3.6" style="fill:#d69136"/></g><g id="Group_11482" data-name="Group 11482"><rect id="Rectangle_5301" data-name="Rectangle 5301" x="126.36" y="166.05" width="0.69" height="3.6" style="fill:#d69136"/></g><g id="Group_11483" data-name="Group 11483"><rect id="Rectangle_5302" data-name="Rectangle 5302" x="124.3" y="166.05" width="0.69" height="3.6" style="fill:#d69136"/></g><g id="Group_11484" data-name="Group 11484"><rect id="Rectangle_5303" data-name="Rectangle 5303" x="122.23" y="166.05" width="0.69" height="3.6" style="fill:#d69136"/></g><g id="Group_11485" data-name="Group 11485"><rect id="Rectangle_5304" data-name="Rectangle 5304" x="120.17" y="166.05" width="0.69" height="3.6" style="fill:#d69136"/></g><g id="Group_11486" data-name="Group 11486"><rect id="Rectangle_5305" data-name="Rectangle 5305" x="118.1" y="166.05" width="0.69" height="3.6" style="fill:#d69136"/></g></g></g><g id="Group_11500" data-name="Group 11500"><rect id="Rectangle_5306" data-name="Rectangle 5306" x="114.34" y="158.74" width="22.2" height="5.95" style="fill:#d69136"/><rect id="Rectangle_5307" data-name="Rectangle 5307" x="114.34" y="159.36" width="22.2" height="5.32" style="fill:#ffb600"/><g id="Group_11499" data-name="Group 11499"><g id="Group_11489" data-name="Group 11489"><rect id="Rectangle_5308" data-name="Rectangle 5308" x="134.28" y="160.22" width="0.69" height="3.6" style="fill:#d69136"/></g><g id="Group_11490" data-name="Group 11490"><rect id="Rectangle_5309" data-name="Rectangle 5309" x="132.21" y="160.22" width="0.69" height="3.6" style="fill:#d69136"/></g><g id="Group_11491" data-name="Group 11491"><rect id="Rectangle_5310" data-name="Rectangle 5310" x="130.15" y="160.22" width="0.69" height="3.6" style="fill:#d69136"/></g><g id="Group_11492" data-name="Group 11492"><rect id="Rectangle_5311" data-name="Rectangle 5311" x="128.08" y="160.22" width="0.69" height="3.6" style="fill:#d69136"/></g><g id="Group_11493" data-name="Group 11493"><rect id="Rectangle_5312" data-name="Rectangle 5312" x="126.02" y="160.22" width="0.69" height="3.6" style="fill:#d69136"/></g><g id="Group_11494" data-name="Group 11494"><rect id="Rectangle_5313" data-name="Rectangle 5313" x="123.95" y="160.22" width="0.69" height="3.6" style="fill:#d69136"/></g><g id="Group_11495" data-name="Group 11495"><rect id="Rectangle_5314" data-name="Rectangle 5314" x="121.89" y="160.22" width="0.69" height="3.6" style="fill:#d69136"/></g><g id="Group_11496" data-name="Group 11496"><rect id="Rectangle_5315" data-name="Rectangle 5315" x="119.82" y="160.22" width="0.69" height="3.6" style="fill:#d69136"/></g><g id="Group_11497" data-name="Group 11497"><rect id="Rectangle_5316" data-name="Rectangle 5316" x="117.75" y="160.22" width="0.69" height="3.6" style="fill:#d69136"/></g><g id="Group_11498" data-name="Group 11498"><rect id="Rectangle_5317" data-name="Rectangle 5317" x="115.69" y="160.22" width="0.69" height="3.6" style="fill:#d69136"/></g></g></g></g><g id="Group_11527" data-name="Group 11527"><path id="Path_20895" data-name="Path 20895" d="M114.51,180.29c0,1-5.48,1.78-12.23,1.78S90,181.27,90,180.29s5.48-1.79,12.24-1.79S114.51,179.3,114.51,180.29Z" style="fill:#9faad4;opacity:0.219999998807907;isolation:isolate"/><g id="Group_11526" data-name="Group 11526"><g id="Group_11513" data-name="Group 11513"><rect id="Rectangle_5318" data-name="Rectangle 5318" x="91.54" y="174.73" width="21.23" height="5.69" style="fill:#d69136"/><rect id="Rectangle_5319" data-name="Rectangle 5319" x="91.54" y="175.33" width="21.23" height="5.09" style="fill:#ffb600"/><g id="Group_11512" data-name="Group 11512"><g id="Group_11502" data-name="Group 11502"><rect id="Rectangle_5320" data-name="Rectangle 5320" x="110.61" y="176.15" width="0.66" height="3.44" style="fill:#d69136"/></g><g id="Group_11503" data-name="Group 11503"><rect id="Rectangle_5321" data-name="Rectangle 5321" x="108.63" y="176.15" width="0.66" height="3.44" style="fill:#d69136"/></g><g id="Group_11504" data-name="Group 11504"><rect id="Rectangle_5322" data-name="Rectangle 5322" x="106.66" y="176.15" width="0.66" height="3.44" style="fill:#d69136"/></g><g id="Group_11505" data-name="Group 11505"><rect id="Rectangle_5323" data-name="Rectangle 5323" x="104.68" y="176.15" width="0.66" height="3.44" style="fill:#d69136"/></g><g id="Group_11506" data-name="Group 11506"><rect id="Rectangle_5324" data-name="Rectangle 5324" x="102.7" y="176.15" width="0.66" height="3.44" style="fill:#d69136"/></g><g id="Group_11507" data-name="Group 11507"><rect id="Rectangle_5325" data-name="Rectangle 5325" x="100.73" y="176.15" width="0.66" height="3.44" style="fill:#d69136"/></g><g id="Group_11508" data-name="Group 11508"><rect id="Rectangle_5326" data-name="Rectangle 5326" x="98.75" y="176.15" width="0.66" height="3.44" style="fill:#d69136"/></g><g id="Group_11509" data-name="Group 11509"><rect id="Rectangle_5327" data-name="Rectangle 5327" x="96.78" y="176.15" width="0.66" height="3.44" style="fill:#d69136"/></g><g id="Group_11510" data-name="Group 11510"><rect id="Rectangle_5328" data-name="Rectangle 5328" x="94.8" y="176.15" width="0.66" height="3.44" style="fill:#d69136"/></g><g id="Group_11511" data-name="Group 11511"><rect id="Rectangle_5329" data-name="Rectangle 5329" x="92.83" y="176.15" width="0.66" height="3.44" style="fill:#d69136"/></g></g></g><g id="Group_11525" data-name="Group 11525"><rect id="Rectangle_5330" data-name="Rectangle 5330" x="92.42" y="169.04" width="21.23" height="5.69" style="fill:#d69136"/><rect id="Rectangle_5331" data-name="Rectangle 5331" x="92.42" y="169.64" width="21.23" height="5.09" style="fill:#ffb600"/><g id="Group_11524" data-name="Group 11524"><g id="Group_11514" data-name="Group 11514"><rect id="Rectangle_5332" data-name="Rectangle 5332" x="111.49" y="170.46" width="0.66" height="3.44" style="fill:#d69136"/></g><g id="Group_11515" data-name="Group 11515"><rect id="Rectangle_5333" data-name="Rectangle 5333" x="109.51" y="170.46" width="0.66" height="3.44" style="fill:#d69136"/></g><g id="Group_11516" data-name="Group 11516"><rect id="Rectangle_5334" data-name="Rectangle 5334" x="107.54" y="170.46" width="0.66" height="3.44" style="fill:#d69136"/></g><g id="Group_11517" data-name="Group 11517"><rect id="Rectangle_5335" data-name="Rectangle 5335" x="105.56" y="170.46" width="0.66" height="3.44" style="fill:#d69136"/></g><g id="Group_11518" data-name="Group 11518"><rect id="Rectangle_5336" data-name="Rectangle 5336" x="103.59" y="170.46" width="0.66" height="3.44" style="fill:#d69136"/></g><g id="Group_11519" data-name="Group 11519"><rect id="Rectangle_5337" data-name="Rectangle 5337" x="101.61" y="170.46" width="0.66" height="3.44" style="fill:#d69136"/></g><g id="Group_11520" data-name="Group 11520"><rect id="Rectangle_5338" data-name="Rectangle 5338" x="99.64" y="170.46" width="0.66" height="3.44" style="fill:#d69136"/></g><g id="Group_11521" data-name="Group 11521"><rect id="Rectangle_5339" data-name="Rectangle 5339" x="97.66" y="170.46" width="0.66" height="3.44" style="fill:#d69136"/></g><g id="Group_11522" data-name="Group 11522"><rect id="Rectangle_5340" data-name="Rectangle 5340" x="95.69" y="170.46" width="0.66" height="3.44" style="fill:#d69136"/></g><g id="Group_11523" data-name="Group 11523"><rect id="Rectangle_5341" data-name="Rectangle 5341" x="93.71" y="170.46" width="0.66" height="3.44" style="fill:#d69136"/></g></g></g></g></g><ellipse id="Ellipse_484" data-name="Ellipse 484" cx="46.99" cy="175.16" rx="23.54" ry="3.97" style="fill:#9faad4;opacity:0.219999998807907;isolation:isolate"/><ellipse id="Ellipse_485" data-name="Ellipse 485" cx="237.3" cy="175.16" rx="17.57" ry="3.97" style="fill:#9faad4;opacity:0.219999998807907;isolation:isolate"/><ellipse id="Ellipse_486" data-name="Ellipse 486" cx="199.09" cy="176.62" rx="21.38" ry="2.51" style="fill:#9faad4;opacity:0.219999998807907;isolation:isolate"/><g id="Group_11534" data-name="Group 11534"><path id="Path_20896" data-name="Path 20896" d="M193.72,22.37c-.08,3.83-6.8,3.81-6.8,3.81H133.38c-4.19-.95-2.88-4.2-.27-5,1.19-.36,3.2-1,3-1.88-.66-3.26-2.18-5.62,1.73-9.48,1.23-1.22,4.9-2.32,8.42-.36,2.89,1.61,4.75-4.6,11-7.67,4.73-2.31,11.16-1,12.86,6.67s5.7,2.59,6.38,1.72c1.95-2.53,7.77-1.17,8.67,2.36,1.71,6.67,3.5,5.62,5,6S193.76,20.38,193.72,22.37Z" style="fill:url(#linear-gradient-2)"/><g id="Group_11533" data-name="Group 11533"><g id="Group_11528" data-name="Group 11528"><rect id="Rectangle_5342" data-name="Rectangle 5342" x="170.39" y="16.92" width="2.49" height="4.9" style="fill:#6ecedb"/></g><g id="Group_11529" data-name="Group 11529"><rect id="Rectangle_5343" data-name="Rectangle 5343" x="164.86" y="15.03" width="2.49" height="6.79" style="fill:#6ecedb"/></g><g id="Group_11530" data-name="Group 11530"><rect id="Rectangle_5344" data-name="Rectangle 5344" x="159.34" y="12.03" width="2.49" height="9.79" style="fill:#6ecedb"/></g><g id="Group_11531" data-name="Group 11531"><rect id="Rectangle_5345" data-name="Rectangle 5345" x="153.81" y="14" width="2.49" height="7.82" style="fill:#6ecedb"/></g><g id="Group_11532" data-name="Group 11532"><rect id="Rectangle_5346" data-name="Rectangle 5346" x="148.29" y="18.18" width="2.49" height="3.64" style="fill:#6ecedb"/></g></g></g><g id="Group_11644" data-name="Group 11644"><path id="Path_20897" data-name="Path 20897" d="M49.65,77.3S37.37,78,36,83.1c-.71,2.64,8.48,17.34,8.48,17.34s11.73-1.34,12.91-1.09,2.37-12.7,2.44-14.78a9.8,9.8,0,0,0-.28-2.41,4.53,4.53,0,0,0-3.42-3.48Z" style="fill:#1d2039"/><path id="Path_20898" data-name="Path 20898" d="M56.76,78.88s6.12.68,5.37,6.65S59.81,98,59.81,98s-4.57-4.64-4.73-5.93S56.76,78.88,56.76,78.88Z" style="fill:#698ca0"/><g id="Group_11535" data-name="Group 11535"><path id="Path_20899" data-name="Path 20899" d="M57.61,175.59c.54.22,7.55.09,10.47,0a.72.72,0,0,0,.65-.77.76.76,0,0,0-.21-.45,6.56,6.56,0,0,0-4.2-1.81,2.33,2.33,0,0,1-1.89-1c-.48-.76-.62-3.56-.52-5.09,0-.32-4.35.05-4.37.7a28.33,28.33,0,0,1-.06,4.32,3,3,0,0,1-.12.45C56.81,173.82,56.92,175.3,57.61,175.59Z" style="fill:#724d3d"/><path id="Path_20900" data-name="Path 20900" d="M57.61,175.59c.59.23,8.75.06,11.1,0,.3,0,.42-.34.28-.63a5.42,5.42,0,0,0-4.6-2.85,3,3,0,0,1-2.2-1c-1,.06-1.77.53-1.75,1.48,0,.56-1.66.72-3-1,0,.15-.08.31-.12.45C56.81,173.82,56.92,175.3,57.61,175.59Z" style="fill:#202952"/></g><g id="Group_11536" data-name="Group 11536"><path id="Path_20901" data-name="Path 20901" d="M20.77,167.35c.31.52,6,4.8,8.43,6.58a.67.67,0,0,0,.93-.18.63.63,0,0,0,.1-.53,7.23,7.23,0,0,0-2.38-4.09,2.54,2.54,0,0,1-1-2c0-.92,1.48-3.27,2.41-4.44.2-.25-3.55-2.68-3.92-2.18A26.07,26.07,0,0,1,22.91,164l-.35.29C21.11,165.42,20.37,166.69,20.77,167.35Z" style="fill:#724d3d"/><path id="Path_20902" data-name="Path 20902" d="M20.77,167.35c.34.56,7,5.54,9,7,.25.18.53,0,.58-.33a5.94,5.94,0,0,0-2.13-5.18,3.39,3.39,0,0,1-1.2-2.22c-.83-.57-1.72-.68-2.23.1-.3.46-1.74-.46-1.83-2.67l-.35.29C21.11,165.42,20.37,166.69,20.77,167.35Z" style="fill:#202952"/></g><g id="Group_11537" data-name="Group 11537"><path id="Path_20903" data-name="Path 20903" d="M42.71,66.05c.5,4.08,5.39,7.13,5.39,7.13a30.87,30.87,0,0,1,1.77-5.65c.92-2.1,2.2-4.06,3.85-4.44,3.77-.85,2.83-4.47,1.46-5.11a12.82,12.82,0,0,0-8.66.24c-2.39,1-2.27,4-2.27,4S42.21,62,42.71,66.05Z" style="fill:#002b3b"/><path id="Path_20904" data-name="Path 20904" d="M47,77.79s2.16,2,4,1.94a2.77,2.77,0,0,0,2.48-1.2l-.1-2.61-.1-2.4L47.51,69.9h0v1.38c0,.85,0,1.88,0,2.38C47.38,74.69,47,77.79,47,77.79Z" style="fill:#805745"/><path id="Path_20905" data-name="Path 20905" d="M47.43,71l.06.26a6.2,6.2,0,0,0,5.94,4.65l-.1-2.4L47.52,69.9s0,0,0,0A1.67,1.67,0,0,0,47.43,71Z" style="opacity:0.150000005960464;isolation:isolate;fill:url(#linear-gradient-3)"/><path id="Path_20906" data-name="Path 20906" d="M45.73,69.07c.12,1,1.76,2,1.76,2,1.26,2,4.14,4.77,6.49,2.73,1.94-1.7,1-8.17.66-10.31-.07-.44-.13-.7-.13-.7a11.61,11.61,0,0,1-3.5.62c-1.78,0-3.11.51-3,2.61h0a.38.38,0,0,0,0,.15c.15,2.23.2,2.45-.08,2.48s-.6-.48-.71-.62C46.72,67.45,45.62,68,45.73,69.07Z" style="fill:#7e5544"/><path id="Path_20907" data-name="Path 20907" d="M48,66A2.45,2.45,0,0,1,50,63.91a24.51,24.51,0,0,0,4.6-.4c-.07-.43-.12-.69-.12-.69a11.66,11.66,0,0,1-3.51.61C49.23,63.44,47.9,64,48,66Z" style="opacity:0.150000005960464;isolation:isolate;fill:url(#linear-gradient-4)"/></g><path id="Path_20908" data-name="Path 20908" d="M40.17,122.62s-1.25,16-1.8,18.38-14.14,21.18-14.14,21.18l3.33,2.8s18-17.8,19.82-21.18S53.9,117,53.9,117Z" style="fill:#822b0e"/><path id="Path_20909" data-name="Path 20909" d="M49.88,124.68s7.21,14,8,17-.7,27.06-.7,27.06h4.72s4.57-20.44,4.71-27.79-5.82-27.65-5.82-27.65l-10.95,5.31Z" style="fill:#822b0e"/><g id="Group_11643" data-name="Group 11643"><g id="Group_11540" data-name="Group 11540"><g id="Group_11539" data-name="Group 11539"><g id="Group_11538" data-name="Group 11538"><path id="Path_20911" data-name="Path 20911" d="M31.92,130.85,20.57,97.15a1,1,0,0,1,.68-1.26L60.78,80.66a.94.94,0,0,1,1.25.46s0,0,0,0l11.35,33.7a1,1,0,0,1-.68,1.25L33.19,131.35a.94.94,0,0,1-1.25-.46Z" style="fill:#28b5c8"/></g></g></g><g id="Group_11543" data-name="Group 11543" style="opacity:0.910000026226044"><g id="Group_11542" data-name="Group 11542"><g id="Group_11541" data-name="Group 11541"><path id="Path_20912" data-name="Path 20912" d="M22.17,96.8,60.62,82a.26.26,0,0,1,.36.13h0l11,32.72a.3.3,0,0,1-.2.36L33.35,130a.25.25,0,0,1-.35-.13h0L22,97.16A.3.3,0,0,1,22.17,96.8Z" style="fill:#fff"/></g></g></g><g id="Group_11546" data-name="Group 11546"><g id="Group_11545" data-name="Group 11545"><g id="Group_11544" data-name="Group 11544"><path id="Path_20913" data-name="Path 20913" d="M62,116.28,52.46,87.82a.34.34,0,0,1,.19-.42l4.79-1.85a.3.3,0,0,1,.39.18v0l9.58,28.45a.35.35,0,0,1-.19.43l-4.79,1.85a.31.31,0,0,1-.39-.19Z" style="fill:#28b5c8"/></g></g></g><g id="Group_11549" data-name="Group 11549"><g id="Group_11548" data-name="Group 11548"><g id="Group_11547" data-name="Group 11547"><path id="Path_20914" data-name="Path 20914" d="M51.15,119.78l-1-2.88a1,1,0,0,1,.57-1.29l2.68-1a.92.92,0,0,1,1.19.55l0,.05,1,2.88a1,1,0,0,1-.57,1.29l-2.69,1a.94.94,0,0,1-1.19-.56S51.15,119.8,51.15,119.78Z" style="fill:#ffb600"/></g></g></g><g id="Group_11552" data-name="Group 11552"><g id="Group_11551" data-name="Group 11551"><g id="Group_11550" data-name="Group 11550"><path id="Path_20915" data-name="Path 20915" d="M45.79,121.84l-1-2.87a1,1,0,0,1,.57-1.29l2.69-1a.91.91,0,0,1,1.18.55.14.14,0,0,1,0,.06l1,2.87a1,1,0,0,1-.57,1.29l-2.69,1a.92.92,0,0,1-1.18-.55A.14.14,0,0,1,45.79,121.84Z" style="fill:#ffb600"/></g></g></g><g id="Group_11555" data-name="Group 11555"><g id="Group_11554" data-name="Group 11554"><g id="Group_11553" data-name="Group 11553"><path id="Path_20916" data-name="Path 20916" d="M35,126l-1-2.87a1,1,0,0,1,.57-1.29l8.07-3.11a.91.91,0,0,1,1.18.55.14.14,0,0,1,0,.06l1,2.87a1,1,0,0,1-.57,1.29l-8.06,3.11a.92.92,0,0,1-1.19-.55S35,126,35,126Z" style="fill:#e34862"/></g></g></g><g id="Group_11625" data-name="Group 11625"><g id="Group_11576" data-name="Group 11576"><g id="Group_11559" data-name="Group 11559"><g id="Group_11558" data-name="Group 11558"><g id="Group_11557" data-name="Group 11557"><g id="Group_11556" data-name="Group 11556"><path id="Path_20917" data-name="Path 20917" d="M57.66,117.64l-1.15-3.43a.65.65,0,0,1,.35-.82h0a.58.58,0,0,1,.75.35l0,0,1.15,3.44a.64.64,0,0,1-.36.81h0a.58.58,0,0,1-.75-.35Z" style="fill:#28b5c8"/></g></g></g></g><g id="Group_11563" data-name="Group 11563"><g id="Group_11562" data-name="Group 11562"><g id="Group_11561" data-name="Group 11561"><g id="Group_11560" data-name="Group 11560"><path id="Path_20918" data-name="Path 20918" d="M55.6,111.53l-1.15-3.44a.64.64,0,0,1,.36-.81h0a.58.58,0,0,1,.75.35v0l1.15,3.44a.64.64,0,0,1-.35.81h0a.58.58,0,0,1-.75-.35Z" style="fill:#28b5c8"/></g></g></g></g><g id="Group_11567" data-name="Group 11567"><g id="Group_11566" data-name="Group 11566"><g id="Group_11565" data-name="Group 11565"><g id="Group_11564" data-name="Group 11564"><path id="Path_20919" data-name="Path 20919" d="M53.55,105.42,52.39,102a.65.65,0,0,1,.36-.81h0a.58.58,0,0,1,.75.35v0L54.67,105a.65.65,0,0,1-.36.81h0a.58.58,0,0,1-.75-.35Z" style="fill:#28b5c8"/></g></g></g></g><g id="Group_11571" data-name="Group 11571"><g id="Group_11570" data-name="Group 11570"><g id="Group_11569" data-name="Group 11569"><g id="Group_11568" data-name="Group 11568"><path id="Path_20920" data-name="Path 20920" d="M51.49,99.31l-1.16-3.44a.65.65,0,0,1,.36-.81h0a.57.57,0,0,1,.75.35v0l1.16,3.43a.66.66,0,0,1-.36.82h0a.59.59,0,0,1-.75-.35Z" style="fill:#28b5c8"/></g></g></g></g><g id="Group_11575" data-name="Group 11575"><g id="Group_11574" data-name="Group 11574"><g id="Group_11573" data-name="Group 11573"><g id="Group_11572" data-name="Group 11572"><path id="Path_20921" data-name="Path 20921" d="M49.43,93.19l-1.15-3.43a.66.66,0,0,1,.35-.82h0a.59.59,0,0,1,.75.35l0,0,1.15,3.43a.65.65,0,0,1-.36.82h0a.59.59,0,0,1-.75-.35Z" style="fill:#28b5c8"/></g></g></g></g></g><g id="Group_11579" data-name="Group 11579"><g id="Group_11578" data-name="Group 11578"><g id="Group_11577" data-name="Group 11577"><path id="Path_20922" data-name="Path 20922" d="M42.91,95.31l-1-2.87a1,1,0,0,1,.57-1.29l2.69-1a.93.93,0,0,1,1.19.55s0,0,0,.06l1,2.87a1,1,0,0,1-.56,1.29l-2.69,1a.93.93,0,0,1-1.19-.55S42.92,95.33,42.91,95.31Z" style="fill:#28b5c8"/></g></g></g><g id="Group_11582" data-name="Group 11582"><g id="Group_11581" data-name="Group 11581"><g id="Group_11580" data-name="Group 11580"><path id="Path_20923" data-name="Path 20923" d="M45,101.5l-1-2.88a1,1,0,0,1,.57-1.29l2.69-1a.94.94,0,0,1,1.19.56.17.17,0,0,0,0,.05l1,2.88a1,1,0,0,1-.56,1.29l-2.69,1a.93.93,0,0,1-1.19-.55S45,101.51,45,101.5Z" style="fill:#28b5c8"/></g></g></g><g id="Group_11585" data-name="Group 11585"><g id="Group_11584" data-name="Group 11584"><g id="Group_11583" data-name="Group 11583"><path id="Path_20924" data-name="Path 20924" d="M47.07,107.67l-1-2.87a1,1,0,0,1,.56-1.29l2.69-1a.93.93,0,0,1,1.19.56s0,0,0,0l1,2.88a1,1,0,0,1-.57,1.29l-2.69,1a.93.93,0,0,1-1.19-.55S47.08,107.69,47.07,107.67Z" style="fill:#28b5c8"/></g></g></g><g id="Group_11588" data-name="Group 11588"><g id="Group_11587" data-name="Group 11587"><g id="Group_11586" data-name="Group 11586"><path id="Path_20925" data-name="Path 20925" d="M49.15,113.86l-1-2.88a1,1,0,0,1,.56-1.29l2.69-1a.93.93,0,0,1,1.19.56s0,0,0,.05l1,2.88a1,1,0,0,1-.57,1.29l-2.69,1a.93.93,0,0,1-1.19-.55A.08.08,0,0,0,49.15,113.86Z" style="fill:#28b5c8"/></g></g></g><g id="Group_11591" data-name="Group 11591"><g id="Group_11590" data-name="Group 11590"><g id="Group_11589" data-name="Group 11589"><path id="Path_20926" data-name="Path 20926" d="M37.55,97.38l-1-2.88a1,1,0,0,1,.57-1.29l2.69-1a.93.93,0,0,1,1.19.55.14.14,0,0,0,0,.06l1,2.87a1,1,0,0,1-.56,1.29l-2.69,1a.92.92,0,0,1-1.19-.55S37.56,97.39,37.55,97.38Z" style="fill:#28b5c8"/></g></g></g><g id="Group_11594" data-name="Group 11594"><g id="Group_11593" data-name="Group 11593"><g id="Group_11592" data-name="Group 11592"><path id="Path_20927" data-name="Path 20927" d="M39.63,103.56l-1-2.88a1,1,0,0,1,.56-1.29l2.69-1a.94.94,0,0,1,1.19.56s0,0,0,0l1,2.88a1,1,0,0,1-.57,1.29l-2.69,1a.93.93,0,0,1-1.19-.55A.08.08,0,0,0,39.63,103.56Z" style="fill:#28b5c8"/></g></g></g><g id="Group_11597" data-name="Group 11597"><g id="Group_11596" data-name="Group 11596"><g id="Group_11595" data-name="Group 11595"><path id="Path_20928" data-name="Path 20928" d="M41.72,109.74l-1-2.88a1,1,0,0,1,.56-1.29l2.69-1a.92.92,0,0,1,1.19.55s0,0,0,0l1,2.88a1,1,0,0,1-.57,1.29l-2.69,1a.94.94,0,0,1-1.19-.56S41.72,109.76,41.72,109.74Z" style="fill:#28b5c8"/></g></g></g><g id="Group_11600" data-name="Group 11600"><g id="Group_11599" data-name="Group 11599"><g id="Group_11598" data-name="Group 11598"><path id="Path_20929" data-name="Path 20929" d="M43.8,115.92l-1-2.88a1,1,0,0,1,.56-1.29l2.69-1a.92.92,0,0,1,1.19.55s0,0,0,0l1,2.88a1,1,0,0,1-.57,1.29l-2.69,1a.94.94,0,0,1-1.19-.56S43.8,115.94,43.8,115.92Z" style="fill:#28b5c8"/></g></g></g><g id="Group_11603" data-name="Group 11603"><g id="Group_11602" data-name="Group 11602"><g id="Group_11601" data-name="Group 11601"><path id="Path_20930" data-name="Path 20930" d="M32.1,99.48l-1-2.88a1,1,0,0,1,.57-1.29l2.69-1a.94.94,0,0,1,1.19.56.17.17,0,0,0,0,0l1,2.88A1,1,0,0,1,36,99.05l-2.69,1a.93.93,0,0,1-1.19-.55S32.11,99.49,32.1,99.48Z" style="fill:#28b5c8"/></g></g></g><g id="Group_11606" data-name="Group 11606"><g id="Group_11605" data-name="Group 11605"><g id="Group_11604" data-name="Group 11604"><path id="Path_20931" data-name="Path 20931" d="M34.23,105.55l-1-2.87a1,1,0,0,1,.57-1.29l2.69-1a.91.91,0,0,1,1.18.55.14.14,0,0,1,0,.06l1,2.87a1,1,0,0,1-.57,1.29l-2.69,1a.93.93,0,0,1-1.19-.56A.43.43,0,0,1,34.23,105.55Z" style="fill:#28b5c8"/></g></g></g><g id="Group_11609" data-name="Group 11609"><g id="Group_11608" data-name="Group 11608"><g id="Group_11607" data-name="Group 11607"><path id="Path_20932" data-name="Path 20932" d="M36.31,111.73l-1-2.87a1,1,0,0,1,.57-1.29l2.69-1a.92.92,0,0,1,1.18.55.14.14,0,0,1,0,.06l1,2.88a1,1,0,0,1-.57,1.29l-2.69,1a.91.91,0,0,1-1.18-.55A.14.14,0,0,1,36.31,111.73Z" style="fill:#28b5c8"/></g></g></g><g id="Group_11612" data-name="Group 11612"><g id="Group_11611" data-name="Group 11611"><g id="Group_11610" data-name="Group 11610"><path id="Path_20933" data-name="Path 20933" d="M38.39,117.92l-1-2.88a1,1,0,0,1,.57-1.29l2.69-1a.94.94,0,0,1,1.19.56s0,0,0,0l1,2.88a1,1,0,0,1-.57,1.29l-2.68,1a.92.92,0,0,1-1.19-.55A.17.17,0,0,1,38.39,117.92Z" style="fill:#28b5c8"/></g></g></g><g id="Group_11615" data-name="Group 11615"><g id="Group_11614" data-name="Group 11614"><g id="Group_11613" data-name="Group 11613"><path id="Path_20934" data-name="Path 20934" d="M26.73,101.55l-1-2.88a1,1,0,0,1,.56-1.29l2.69-1a.92.92,0,0,1,1.19.55l0,0,1,2.88a1,1,0,0,1-.57,1.29l-2.69,1a.94.94,0,0,1-1.19-.56S26.73,101.57,26.73,101.55Z" style="fill:#28b5c8"/></g></g></g><g id="Group_11618" data-name="Group 11618"><g id="Group_11617" data-name="Group 11617"><g id="Group_11616" data-name="Group 11616"><path id="Path_20935" data-name="Path 20935" d="M28.81,107.73l-1-2.88a1,1,0,0,1,.56-1.29l2.69-1a.92.92,0,0,1,1.19.55l0,0,1,2.88a1,1,0,0,1-.57,1.29l-2.69,1a.94.94,0,0,1-1.19-.56S28.81,107.75,28.81,107.73Z" style="fill:#28b5c8"/></g></g></g><g id="Group_11621" data-name="Group 11621"><g id="Group_11620" data-name="Group 11620"><g id="Group_11619" data-name="Group 11619"><path id="Path_20936" data-name="Path 20936" d="M30.89,113.91l-1-2.88a1,1,0,0,1,.57-1.29l2.68-1a.92.92,0,0,1,1.19.55s0,0,0,0l1,2.88a1,1,0,0,1-.57,1.29l-2.69,1A.93.93,0,0,1,30.9,114,.43.43,0,0,1,30.89,113.91Z" style="fill:#28b5c8"/></g></g></g><g id="Group_11624" data-name="Group 11624"><g id="Group_11623" data-name="Group 11623"><g id="Group_11622" data-name="Group 11622"><path id="Path_20937" data-name="Path 20937" d="M33,120.09l-1-2.88a1,1,0,0,1,.57-1.29l2.69-1a.91.91,0,0,1,1.18.55.14.14,0,0,1,0,.06l1,2.87a1,1,0,0,1-.57,1.29l-2.69,1a.92.92,0,0,1-1.18-.55A.14.14,0,0,1,33,120.09Z" style="fill:#28b5c8"/></g></g></g></g><g id="Group_11629" data-name="Group 11629"><g id="Group_11628" data-name="Group 11628"><g id="Group_11627" data-name="Group 11627"><g id="Group_11626" data-name="Group 11626"><path id="Path_20938" data-name="Path 20938" d="M53.79,117.24l-.74.28.25.76a.11.11,0,0,1-.06.15h0a.12.12,0,0,1-.15-.07h0l-.25-.75-.75.28a.11.11,0,0,1-.14-.06h0v0a.12.12,0,0,1,.07-.15l.74-.29-.25-.75a.13.13,0,0,1,.07-.16h0a.11.11,0,0,1,.14.07h0l.26.76.73-.29a.12.12,0,0,1,.15.07h0A.14.14,0,0,1,53.79,117.24Z" style="fill:#fff"/></g></g></g></g><g id="Group_11633" data-name="Group 11633"><g id="Group_11632" data-name="Group 11632"><g id="Group_11631" data-name="Group 11631"><g id="Group_11630" data-name="Group 11630"><path id="Path_20939" data-name="Path 20939" d="M47.86,120.51h0a.12.12,0,0,1-.16-.08h0l-.58-1.74a.12.12,0,0,1,.07-.17h0a.14.14,0,0,1,.16.07h0l.58,1.74A.14.14,0,0,1,47.86,120.51Z" style="fill:#fff"/></g></g></g></g><g id="Group_11642" data-name="Group 11642"><g id="Group_11637" data-name="Group 11637"><g id="Group_11636" data-name="Group 11636"><g id="Group_11635" data-name="Group 11635"><g id="Group_11634" data-name="Group 11634"><path id="Path_20940" data-name="Path 20940" d="M40.09,123.5h0a.13.13,0,0,1-.16-.07h0l-.58-1.73a.12.12,0,0,1,.07-.17h0a.12.12,0,0,1,.16.07h0l.58,1.73A.13.13,0,0,1,40.09,123.5Z" style="fill:#fff"/></g></g></g></g><g id="Group_11641" data-name="Group 11641"><g id="Group_11640" data-name="Group 11640"><g id="Group_11639" data-name="Group 11639"><g id="Group_11638" data-name="Group 11638"><path id="Path_20941" data-name="Path 20941" d="M39.35,123.78h0a.13.13,0,0,1-.16-.07h0L38.61,122a.13.13,0,0,1,.07-.17h0a.12.12,0,0,1,.16.07h0l.58,1.73A.12.12,0,0,1,39.35,123.78Z" style="fill:#fff"/></g></g></g></g></g></g><path id="Path_20942" data-name="Path 20942" d="M36,83.1c1.51-3.58,5.92-4.34,6.8,5.76.87,9.86.36,14.06,2.09,17.14,1.57,2.8,7.88,15.38,7.88,15.38l-3.48,1.44s-9.53-11.09-11.89-16.35S34.65,86.24,36,83.1Z" style="fill:#698ca0"/><path id="Path_20943" data-name="Path 20943" d="M49.45,122.74l3.1-1.28s2,.6,2.46,1.64S51.68,126.27,49.45,122.74Z" style="fill:#7d5543"/><path id="Path_20945" data-name="Path 20945" d="M46.33,77.68l.86-1.43,4.66,2.63,1.58-1.58,1.21,1.07-1.58,2.77-1.25-1.52-1,1.75Z" style="fill:#fff"/></g><path id="Path_20948" data-name="Path 20948" d="M113.76,40.06a13.61,13.61,0,0,1-3.55,5.41,2.79,2.79,0,0,1-4.48-1.07,20.39,20.39,0,0,1-.6-3.3s-.56-1.68,0-2.53,1.65-.57,1.62.44,1.16.16,1.73-.7,1.4-.63,2.5.29A10.13,10.13,0,0,0,113.76,40.06Z" style="fill:#fdd1b1"/><path id="Path_20949" data-name="Path 20949" d="M108.84,45.41l-1.34,3.26A2.11,2.11,0,0,1,105.41,50c-1.68,0-3.33-1.07-3.44-2.4l3.22-6.05Z" style="fill:#fdd1b1"/><g id="Group_11646" data-name="Group 11646"><g id="Group_11645" data-name="Group 11645"><path id="Path_20950" data-name="Path 20950" d="M231.18,82l1,3.88h.46l-.91-4Z" style="fill:#9da057"/><path id="Path_20951" data-name="Path 20951" d="M238.9,78.34s-6.86,2.37-6.7,13.27,5.28,7.46,5.28,7.46Z" style="fill:#d47d6f"/><path id="Path_20952" data-name="Path 20952" d="M233.85,63.22c-1.4,2.15-.24,4.81,2.13,4.69,2-.11,6.92,1.27,7.07,3.53s3.59,8.9,7.54,10.65,5.67-3.38,4.08-5.58,2.43-5.21-2.9-7.61c-5.12-2.31-4.33-8.09-8.61-8.67s-3.95,1.4-6.08,1.4S234.38,62.4,233.85,63.22Z" style="fill:#ffb600"/><path id="Path_20953" data-name="Path 20953" d="M230,163.51v10.36h-1.64v-2.82s-1.26,2.7-2,2.82c-.5.08-2.49.06-4.12,0a.44.44,0,0,1-.41-.46.47.47,0,0,1,.21-.35c1.49-.9,3.66-1.8,4.14-4.44.41-2.29.6-5.28.6-5.28Z"/><path id="Path_20954" data-name="Path 20954" d="M249.39,163.26l.94,10.17a.43.43,0,0,1-.37.48H245.3a.42.42,0,0,1-.41-.44v-.05c.08-.6,1.06-1.7,1.33-2.84.59-2.5.23-7.68.23-7.68Z"/><path id="Path_20955" data-name="Path 20955" d="M249.79,101.3s3.22,5.23,2.19,19.6S251,136,251,136l-.84,28.24s-2.41.61-3.78,0l-4.7-45.17s-5.86,14.86-7.12,18.15,0,12-4.24,27.29a8.29,8.29,0,0,1-4.14,0s-.23-27,.92-31.45,8-27.77,9.16-30.43S249.79,101.3,249.79,101.3Z" style="fill:#1d2039"/><path id="Path_20956" data-name="Path 20956" d="M250.14,102.19a7.45,7.45,0,0,1-1.67,1.5,13.13,13.13,0,0,1-7.31,1.83,7.74,7.74,0,0,1-5-2s.93-7.87,1-10-2.22-4.86-2-6.5a21.51,21.51,0,0,1,3.75-8.68c6.2-2.35,12.75.43,12.75.43a7.93,7.93,0,0,0-1.87,4.44,80.49,80.49,0,0,1-1.24,9.66C247.62,96.43,250.14,102.19,250.14,102.19Z" style="fill:#c95d4b"/><path id="Path_20957" data-name="Path 20957" d="M250.14,102.19a7.45,7.45,0,0,1-1.67,1.5l-1.85.42s-5.73-9.8-2.45-11.58,4.86-5.75,5.51-9.33h.09a78.49,78.49,0,0,1-1.23,9.66C247.62,96.43,250.14,102.19,250.14,102.19Z" style="opacity:0.150000005960464;isolation:isolate;fill:url(#linear-gradient-5)"/><path id="Path_20958" data-name="Path 20958" d="M243.16,96h-8.72l-6.52-12h8.72Z"/><path id="Path_20959" data-name="Path 20959" d="M235.06,90.47l-2.13-1.4c-.55-.35-1.3-.84-1.36-.48s.88.9.8,1.09-1.54-.55-2.49-1.56-1,2.1,1.1,3a12.91,12.91,0,0,0,4.15,1Z" style="fill:#fdd1b1"/><path id="Path_20960" data-name="Path 20960" d="M251.65,78.76c-4.44-.74-4.42,17-5.91,16.88-.71,0-10.6-6-10.6-6l-1.55,2.59a33.26,33.26,0,0,0,6.81,5.94c3,1.9,6.75,2.83,8.3,1.88C251.72,98.22,254.57,79.25,251.65,78.76Z" style="fill:#d47d6f"/><path id="Path_20961" data-name="Path 20961" d="M246.33,77.23c-1,2.49-5.07,3.09-5.3,1a32.6,32.6,0,0,1-.07-3.83c0-1.3.11-2.34.11-2.34s3.62-4.33,3.7-2.38A61.16,61.16,0,0,0,246.33,77.23Z" style="fill:#fdd1b1"/><path id="Path_20962" data-name="Path 20962" d="M236,67.91s2,7.82,5.54,7.56,3.16-5.12,3.25-5.83,1.51-1.71,1-2.76a.82.82,0,0,0-1-.61.8.8,0,0,0-.57.49c-.27.46-.83,1.18-1.36-.57s-2.5.52-3.88,1A17.57,17.57,0,0,1,236,67.91Z" style="fill:#fdd1b1"/><path id="Path_20963" data-name="Path 20963" d="M231.77,82a.29.29,0,0,1-.31.29.31.31,0,0,1-.29-.31.3.3,0,0,1,.3-.29.29.29,0,0,1,.3.3Z" style="fill:#9da057"/></g><path id="Path_20964" data-name="Path 20964" d="M240.94,75.44s2.3.19,2.92-1.37,1.13,2.54-2.92,2.54Z" style="opacity:0.150000005960464;isolation:isolate;fill:url(#linear-gradient-6)"/></g><g id="Group_11650" data-name="Group 11650"><path id="Path_20965" data-name="Path 20965" d="M131,103.13c-7.74-3.5-11.34-13-8-21.19s12.24-12,20-8.53,11.33,13,8,21.19S138.69,106.63,131,103.13Z" style="fill:#b8e4f2;opacity:0.340000003576279;isolation:isolate"/><g id="Group_11647" data-name="Group 11647" style="opacity:0.5"><path id="Path_20966" data-name="Path 20966" d="M128.58,78.52a1,1,0,0,1,.25-.36,12,12,0,0,1,9.78-3,1,1,0,0,1,.78,1.09.92.92,0,0,1-1,.83h0A10.24,10.24,0,0,0,130,79.64a.88.88,0,0,1-1.24-.06l-.05-.06A1,1,0,0,1,128.58,78.52Z" style="fill:#fff"/></g><g id="Group_11648" data-name="Group 11648" style="opacity:0.5"><path id="Path_20967" data-name="Path 20967" d="M140.62,76.59a.89.89,0,0,1,1.14-.54l.06,0c6.33,2.86,9.3,10.66,6.6,17.38a.89.89,0,0,1-1.15.54l-.05,0a1,1,0,0,1-.49-1.27,11.61,11.61,0,0,0-5.63-14.86A1,1,0,0,1,140.62,76.59Z" style="fill:#fff"/></g><path id="Path_20968" data-name="Path 20968" d="M123.12,80.91l-.76,1.9L96.41,71.08l.76-1.9Z" style="fill:#ffb600"/><g id="Group_11649" data-name="Group 11649"><path id="Path_20969" data-name="Path 20969" d="M121.54,81.32c3.54-8.81,13.18-12.93,21.49-9.18s12.19,14,8.65,22.8-13.18,12.93-21.49,9.17S118,90.13,121.54,81.32ZM150,94.18c3.15-7.83-.3-16.92-7.69-20.26s-16,.32-19.1,8.16.3,16.92,7.69,20.26S146.86,102,150,94.18Z" style="fill:#ffb600"/></g><path id="Path_20970" data-name="Path 20970" d="M113.43,76.56l-.74,1.85a1.32,1.32,0,0,1-1.69.78l-.08,0L91.49,70.38a1.46,1.46,0,0,1-.71-1.87l.74-1.85a1.32,1.32,0,0,1,1.69-.78l.07,0,19.44,8.78A1.47,1.47,0,0,1,113.43,76.56Z" style="fill:#37193b"/></g><path id="Path_20971" data-name="Path 20971" d="M95.68,67.4a5.68,5.68,0,0,1,.44,2.3,5,5,0,0,0,0,2.28c.26.66-1.6.22-2-.26a4.9,4.9,0,0,1-.5-2.17Z" style="fill:#fdd1b1"/><path id="Path_20972" data-name="Path 20972" d="M97.59,48.53c.76,1.21-1.31,4.14-4.36,6.61S86.65,60,86.71,60.53s9,6.87,9,6.87l-2.09,2.15s-13.43-3.74-12.65-9.34C81.49,56.28,94.54,43.72,97.59,48.53Z" style="fill:#7c7c40"/><path id="Path_20973" data-name="Path 20973" d="M108.44,49l-.77-.75-2.45,1.56-2.67-3.3-1.67,1L103,51.61l2.21-1.09,1.1,1.42Z" style="fill:#fff"/><rect id="Rectangle_5347" data-name="Rectangle 5347" x="156.18" y="43.37" width="62.45" height="95.79" rx="11.64" style="fill:#8ed2e8;opacity:0.589999973773956;isolation:isolate"/><path id="Path_20975" data-name="Path 20975" d="M60.39,111.11l4.43-4.89.82,2.45-4.4,5Z" style="fill:#d0ebf5;opacity:0.400000005960465;isolation:isolate"/><path id="Path_20976" data-name="Path 20976" d="M61.2,95.73l1.82,5.4-4.2,5.57-1.88-5.57Z" style="fill:#d0ebf5;opacity:0.400000005960465;isolation:isolate"/><g id="Group_11651" data-name="Group 11651"><path id="Path_20977" data-name="Path 20977" d="M202.89,65.5a16.93,16.93,0,0,0-14.23-10.79c-.42,0-.84-.05-1.26-.05A16.65,16.65,0,0,0,173,63.2a18.65,18.65,0,0,0-2.48,9.34,17.87,17.87,0,0,0,10.89,16.72,16,16,0,0,0,13.9-1,17.69,17.69,0,0,0,8-10.13,18.92,18.92,0,0,0-.5-12.68Zm-10.8,16.37a9.47,9.47,0,0,1-8.22.56,10.56,10.56,0,0,1-6.44-9.89A11,11,0,0,1,178.9,67a9.86,9.86,0,0,1,8.5-5c.25,0,.5,0,.74,0a10,10,0,0,1,8.42,6.38,11.23,11.23,0,0,1,.3,7.5,10.54,10.54,0,0,1-4.76,6Z" style="fill:#fff"/><path id="Path_20978" data-name="Path 20978" d="M202.89,65.5l-6.33,2.87A10,10,0,0,0,188.14,62l.52-7.28A16.93,16.93,0,0,1,202.89,65.5Z" style="fill:#ffb600"/><path id="Path_20979" data-name="Path 20979" d="M203.39,78.18a17.73,17.73,0,0,1-8,10.13l-3.24-6.44a10.54,10.54,0,0,0,4.76-6Z" style="fill:#28b5c8"/><path id="Path_20980" data-name="Path 20980" d="M188.66,54.71,188.14,62c-.24,0-.49,0-.74,0a9.84,9.84,0,0,0-8.5,5c-2.18-1.42-4.34-2.82-5.87-3.8a16.66,16.66,0,0,1,14.36-8.54C187.82,54.66,188.24,54.68,188.66,54.71Z" style="fill:#c95d4b"/></g><g id="Group_11655" data-name="Group 11655"><g id="Group_11652" data-name="Group 11652"><rect id="Rectangle_5348" data-name="Rectangle 5348" x="164.02" y="115.09" width="2.51" height="2.66" rx="1.25" style="fill:#ffb600"/></g><g id="Group_11653" data-name="Group 11653"><rect id="Rectangle_5349" data-name="Rectangle 5349" x="164.02" y="109.26" width="2.51" height="2.66" rx="1.25" style="fill:#28b5c8"/></g><g id="Group_11654" data-name="Group 11654"><rect id="Rectangle_5350" data-name="Rectangle 5350" x="164.02" y="103.44" width="2.51" height="2.66" rx="1.25" style="fill:#e34862"/></g><path id="Rectangle_5351" data-name="Rectangle 5351" d="M172.62,103.44h36.59a1.34,1.34,0,0,1,1.33,1.33h0a1.34,1.34,0,0,1-1.33,1.33H172.62a1.33,1.33,0,0,1-1.33-1.33h0A1.33,1.33,0,0,1,172.62,103.44Z" style="fill:#fff"/><path id="Rectangle_5352" data-name="Rectangle 5352" d="M172.62,109.26h36.59a1.34,1.34,0,0,1,1.33,1.33h0a1.33,1.33,0,0,1-1.33,1.33H172.62a1.32,1.32,0,0,1-1.33-1.33h0A1.33,1.33,0,0,1,172.62,109.26Z" style="fill:#fff"/><path id="Rectangle_5353" data-name="Rectangle 5353" d="M172.62,115.09h36.59a1.33,1.33,0,0,1,1.33,1.33h0a1.34,1.34,0,0,1-1.33,1.33H172.62a1.33,1.33,0,0,1-1.33-1.33h0A1.32,1.32,0,0,1,172.62,115.09Z" style="fill:#fff"/></g><g id="Group_11656" data-name="Group 11656"><path id="Path_20981" data-name="Path 20981" d="M161.26,49.82V44h.94v5.8Zm0-11.6v-5.8h.94v5.8Z" style="fill:#ffb600"/><path id="Path_20982" data-name="Path 20982" d="M161.26,59.13V55.62h.94v2.5h2.36v1Z" style="fill:#ffb600"/><rect id="Rectangle_5354" data-name="Rectangle 5354" x="169.2" y="58.12" width="4.64" height="1" style="fill:#ffb600"/><rect id="Rectangle_5355" data-name="Rectangle 5355" x="178.49" y="58.12" width="2.83" height="1" style="fill:#ffb600"/></g><g id="Group_11692" data-name="Group 11692"><path id="Path_20983" data-name="Path 20983" d="M179.56,150.38v26.47h39.2V150.38Zm34.53,2.05h.31v.78h.83v-.78h.31v1.45h-1.45Zm-5.3,0h.31v.78h.83v-.78h.31v1.45h-1.45Zm-5.3,0h.31v.78h.83v-.78h.31v1.45h-1.45Zm-5.3,0h.31v.78h.83v-.78h.31v1.45h-1.45Zm-5.3,0h.31v.78H194v-.78h.31v1.45h-1.45Zm-5.3,0h.31v.78h.83v-.78H189v1.45h-1.45Zm-5.3,0h.31v.78h.83v-.78h.31v1.45h-1.45Z" style="fill:#6ecedb"/><path id="Path_20984" data-name="Path 20984" d="M179.56,150.38v26.24h38.5V150.38Zm34.53,2.16h.31v.83h.83v-.83h.31v1.54h-1.45Zm-5.3,0h.31v.83h.83v-.83h.31v1.54h-1.45Zm-5.3,0h.31v.83h.83v-.83h.31v1.54h-1.45Zm-5.3,0h.31v.83h.83v-.83h.31v1.54h-1.45Zm-5.3,0h.31v.83H194v-.83h.31v1.54h-1.45Zm-5.3,0h.31v.83h.83v-.83H189v1.54h-1.45Zm-5.3,0h.31v.83h.83v-.83h.31v1.54h-1.45Z" style="fill:#fff"/><path id="Path_20985" data-name="Path 20985" d="M179.56,150.38v5.86h38.5v-5.86Zm4.18,3.7h-1.45v-1.54h.3v.83h.84v-.83h.31Zm5.3,0h-1.45v-1.54h.3v.83h.84v-.83H189Zm5.3,0h-1.45v-1.54h.3v.83H194v-.83h.31Zm5.3,0h-1.45v-1.54h.3v.83h.84v-.83h.31Zm5.3,0h-1.45v-1.54h.3v.83h.84v-.83h.31Zm5.3,0h-1.45v-1.54h.3v.83h.84v-.83h.31Zm5.3,0h-1.45v-1.54h.31v.83h.83v-.83h.31Z" style="fill:#6ecedb"/><g id="Group_11689" data-name="Group 11689"><g id="Group_11664" data-name="Group 11664"><g id="Group_11657" data-name="Group 11657"><rect id="Rectangle_5356" data-name="Rectangle 5356" x="212.85" y="157.88" width="2.71" height="2.88" style="fill:#c95d4b"/></g><g id="Group_11658" data-name="Group 11658"><rect id="Rectangle_5357" data-name="Rectangle 5357" x="207.73" y="157.88" width="2.71" height="2.88" style="fill:#c95d4b"/></g><g id="Group_11659" data-name="Group 11659"><rect id="Rectangle_5358" data-name="Rectangle 5358" x="202.62" y="157.88" width="2.71" height="2.88" style="fill:#6ecedb"/></g><g id="Group_11660" data-name="Group 11660"><rect id="Rectangle_5359" data-name="Rectangle 5359" x="197.5" y="157.88" width="2.71" height="2.88" style="fill:#6ecedb"/></g><g id="Group_11661" data-name="Group 11661"><rect id="Rectangle_5360" data-name="Rectangle 5360" x="192.38" y="157.88" width="2.71" height="2.88" style="fill:#6ecedb"/></g><g id="Group_11662" data-name="Group 11662"><rect id="Rectangle_5361" data-name="Rectangle 5361" x="187.26" y="157.88" width="2.71" height="2.88" style="fill:#6ecedb"/></g><g id="Group_11663" data-name="Group 11663"><rect id="Rectangle_5362" data-name="Rectangle 5362" x="182.14" y="157.88" width="2.71" height="2.88" style="fill:#6ecedb"/></g></g><g id="Group_11672" data-name="Group 11672"><g id="Group_11665" data-name="Group 11665"><rect id="Rectangle_5363" data-name="Rectangle 5363" x="212.85" y="162.57" width="2.71" height="2.88" style="fill:#c95d4b"/></g><g id="Group_11666" data-name="Group 11666"><rect id="Rectangle_5364" data-name="Rectangle 5364" x="207.73" y="162.57" width="2.71" height="2.88" style="fill:#c95d4b"/></g><g id="Group_11667" data-name="Group 11667"><rect id="Rectangle_5365" data-name="Rectangle 5365" x="202.62" y="162.57" width="2.71" height="2.88" style="fill:#6ecedb"/></g><g id="Group_11668" data-name="Group 11668"><rect id="Rectangle_5366" data-name="Rectangle 5366" x="197.5" y="162.57" width="2.71" height="2.88" style="fill:#6ecedb"/></g><g id="Group_11669" data-name="Group 11669"><rect id="Rectangle_5367" data-name="Rectangle 5367" x="192.38" y="162.57" width="2.71" height="2.88" style="fill:#6ecedb"/></g><g id="Group_11670" data-name="Group 11670"><rect id="Rectangle_5368" data-name="Rectangle 5368" x="187.26" y="162.57" width="2.71" height="2.88" style="fill:#6ecedb"/></g><g id="Group_11671" data-name="Group 11671"><rect id="Rectangle_5369" data-name="Rectangle 5369" x="182.14" y="162.57" width="2.71" height="2.88" style="fill:#6ecedb"/></g></g><g id="Group_11680" data-name="Group 11680"><g id="Group_11673" data-name="Group 11673"><rect id="Rectangle_5370" data-name="Rectangle 5370" x="212.85" y="167.25" width="2.71" height="2.88" style="fill:#c95d4b"/></g><g id="Group_11674" data-name="Group 11674"><rect id="Rectangle_5371" data-name="Rectangle 5371" x="207.73" y="167.25" width="2.71" height="2.88" style="fill:#c95d4b"/></g><g id="Group_11675" data-name="Group 11675"><rect id="Rectangle_5372" data-name="Rectangle 5372" x="202.62" y="167.25" width="2.71" height="2.88" style="fill:#6ecedb"/></g><g id="Group_11676" data-name="Group 11676"><rect id="Rectangle_5373" data-name="Rectangle 5373" x="197.5" y="167.25" width="2.71" height="2.88" style="fill:#6ecedb"/></g><g id="Group_11677" data-name="Group 11677"><rect id="Rectangle_5374" data-name="Rectangle 5374" x="192.38" y="167.25" width="2.71" height="2.88" style="fill:#6ecedb"/></g><g id="Group_11678" data-name="Group 11678"><rect id="Rectangle_5375" data-name="Rectangle 5375" x="187.26" y="167.25" width="2.71" height="2.88" style="fill:#6ecedb"/></g><g id="Group_11679" data-name="Group 11679"><rect id="Rectangle_5376" data-name="Rectangle 5376" x="182.14" y="167.25" width="2.71" height="2.88" style="fill:#6ecedb"/></g></g><g id="Group_11688" data-name="Group 11688"><g id="Group_11681" data-name="Group 11681"><rect id="Rectangle_5377" data-name="Rectangle 5377" x="212.85" y="171.94" width="2.71" height="2.88" style="fill:#c95d4b"/></g><g id="Group_11682" data-name="Group 11682"><rect id="Rectangle_5378" data-name="Rectangle 5378" x="207.73" y="171.94" width="2.71" height="2.88" style="fill:#c95d4b"/></g><g id="Group_11683" data-name="Group 11683"><rect id="Rectangle_5379" data-name="Rectangle 5379" x="202.62" y="171.94" width="2.71" height="2.88" style="fill:#6ecedb"/></g><g id="Group_11684" data-name="Group 11684"><rect id="Rectangle_5380" data-name="Rectangle 5380" x="197.5" y="171.94" width="2.71" height="2.88" style="fill:#6ecedb"/></g><g id="Group_11685" data-name="Group 11685"><rect id="Rectangle_5381" data-name="Rectangle 5381" x="192.38" y="171.94" width="2.71" height="2.88" style="fill:#6ecedb"/></g><g id="Group_11686" data-name="Group 11686"><rect id="Rectangle_5382" data-name="Rectangle 5382" x="187.26" y="171.94" width="2.71" height="2.88" style="fill:#6ecedb"/></g><g id="Group_11687" data-name="Group 11687"><rect id="Rectangle_5383" data-name="Rectangle 5383" x="182.14" y="171.94" width="2.71" height="2.88" style="fill:#6ecedb"/></g></g></g><g id="Group_11690" data-name="Group 11690"><rect id="Rectangle_5384" data-name="Rectangle 5384" x="214.39" y="152.54" width="0.84" height="0.83" style="fill:#fff"/><path id="Path_20986" data-name="Path 20986" d="M215.23,147.84v5.09a.43.43,0,0,1-.42.44h0a.44.44,0,0,1-.42-.44h0v-5.09a.43.43,0,0,1,.42-.44h0A.42.42,0,0,1,215.23,147.84Z" style="fill:#202952"/></g><g id="Group_11691" data-name="Group 11691"><rect id="Rectangle_5385" data-name="Rectangle 5385" x="182.59" y="152.54" width="0.84" height="0.83" style="fill:#fff"/><path id="Path_20987" data-name="Path 20987" d="M183.43,147.84v5.09a.44.44,0,0,1-.42.44h0a.43.43,0,0,1-.42-.44h0v-5.09a.42.42,0,0,1,.42-.44h0A.43.43,0,0,1,183.43,147.84Z" style="fill:#202952"/></g><rect id="Rectangle_5386" data-name="Rectangle 5386" x="186.22" y="151.61" width="24.96" height="3.33" style="fill:#6ecedb"/></g><g id="Group_11694" data-name="Group 11694" style="opacity:0.660000026226044"><path id="Path_20988" data-name="Path 20988" d="M173.53,189h-2.2v-2.15h-.88V189h-2.2v.87h2.2V192h.88v-2.15h2.2Z" style="fill:#fff"/></g><path d="M110.36,60.49a.63.63,0,0,0-.37.14.6.6,0,0,0-.12.44c0,.56,0,1.11.06,1.67a.18.18,0,0,0,0,.13c0,.05.09.05.15.06.34,0,.69,0,1,0a.23.23,0,0,0,.11,0,.36.36,0,0,0,0-.11,7.39,7.39,0,0,0,.18-1.48C111.43,60.38,111.27,60.36,110.36,60.49Z" style="fill:#7c7c40"/><path id="Path_20946" data-name="Path 20946" d="M108.32,49a14.23,14.23,0,0,1,5.45,1.85,19.6,19.6,0,0,1,4.65,3.37c4,3.93,6.51,6.59,6.27,7.79s-.54,2.34-6.75,2.22a47.3,47.3,0,0,1-8.06-.57l.24-3.1s6.21-.82,6.63-.82a11.7,11.7,0,0,1-2.41-1c-.5-.19-1.24-.23-1.69-.46s-.51-1-.47-1.57c.12-1.53-1.24-3.43-1.89-4.82S109.62,50,108.32,49Z" style="fill:#7c7c40"/><path id="Path_20947" data-name="Path 20947" d="M110,62.92h-4.16s-.58,0-.63-.42,2.15-1.28,2.84-1.29,2.13.06,2.13.06Z" style="fill:#fdd1b1"/></g></g></svg>