<svg xmlns="http://www.w3.org/2000/svg" xmlns:xlink="http://www.w3.org/1999/xlink" viewBox="0 0 51.04 61.43"><defs><clipPath id="clip-path"><path d="M47.39,35.39a23.2,23.2,0,1,0-23.2,23.19A23.2,23.2,0,0,0,47.39,35.39Z" style="fill:none;stroke:#666;stroke-miterlimit:10;stroke-width:2px"/></clipPath></defs><title>ActivityIcon</title><g id="Layer_2" data-name="Layer 2"><g id="Layer_1-2" data-name="Layer 1"><path d="M51,38.23a23.2,23.2,0,1,0-23.2,23.2A23.2,23.2,0,0,0,51,38.23Z" style="fill:#e6cfc4"/><g style="opacity:0.6000000000000001"><path d="M47.39,35.39a23.2,23.2,0,1,0-23.2,23.19A23.2,23.2,0,0,0,47.39,35.39Z" style="fill:none;stroke:#666;stroke-miterlimit:10"/></g><g style="clip-path:url(#clip-path)"><polygon points="23.99 53.1 31.82 30.5 31.82 1 25.7 1 22.94 1 16.82 1 16.82 30.5 23.99 53.1" style="fill:#fff;stroke:#666;stroke-miterlimit:10;stroke-width:2px"/><path id="Path_20153" data-name="Path 20153" d="M24.21,50.72l2.11-6.22h-4Z" style="fill:#666"/><line x1="24.32" y1="1.5" x2="24.32" y2="30.5" style="fill:none;stroke:#666;stroke-miterlimit:10;stroke-width:2px"/><line x1="16.82" y1="30.5" x2="31.82" y2="30.5" style="fill:none;stroke:#666;stroke-miterlimit:10;stroke-width:2px"/></g><path d="M47.39,35.39a23.2,23.2,0,1,0-23.2,23.19A23.2,23.2,0,0,0,47.39,35.39Z" style="fill:none;stroke:#666;stroke-miterlimit:10;stroke-width:2px"/></g></g></svg>